<?xml version="1.0" standalone="no"?>
<!DOCTYPE svg PUBLIC "-//W3C//DTD SVG 1.1//EN" "http://www.w3.org/Graphics/SVG/1.1/DTD/svg11.dtd" >
<svg xmlns="http://www.w3.org/2000/svg" xmlns:xlink="http://www.w3.org/1999/xlink" version="1.1">
<metadata>
Created by FontForge 20170731 at Fri May 21 18:32:03 2021
 By Aleksey,,,
Font software Copyright 1994 Adobe Systems Incorporated. Typeface designs Copyright 1994 The Monotype Corporation. All rights reserved.
</metadata>
<defs>
<font id="BaskervilleMTStd-Italic" horiz-adv-x="618" >
  <font-face 
    font-family="Baskerville MT Std"
    font-weight="400"
    font-style="italic"
    font-stretch="normal"
    units-per-em="2048"
    panose-1="2 2 6 3 5 4 5 9 3 4"
    ascent="1397"
    descent="-651"
    x-height="848"
    cap-height="1356"
    bbox="-424 -518 2218 1872"
    underline-thickness="102"
    underline-position="-307"
    slope="-17"
    unicode-range="U+0020-FB04"
  />
<missing-glyph horiz-adv-x="1024" 
d="M25 0v1362h972v-1362h-972zM180 1266l332 -498l330 498h-662zM123 1178v-992q0 -1 82.5 123t164.5 249l83 124zM901 1178l-332 -496l332 -498v994zM842 98l-330 496l-332 -496h662z" />
    <glyph glyph-name="f_f" unicode="ff" horiz-adv-x="917" 
d="M133 772l10 47h203q10 39 15 57t21 68.5t29.5 81.5t37.5 81.5t48 83t58.5 71t71.5 61t84.5 38t99.5 15.5q103 0 164 -86q39 31 61.5 45.5t58 27.5t74.5 13q77 0 128 -36t51 -74q0 -23 -15.5 -39.5t-40.5 -16.5q-21 0 -38 13t-24 24.5t-20 36.5q-10 20 -30 32.5t-41 12.5
q-20 0 -37.5 -5.5t-33 -18.5t-28.5 -25.5t-26 -37t-21.5 -40t-19.5 -48.5t-17 -49.5t-16 -54.5t-13.5 -52.5t-13.5 -53.5l-30 -125h164l-11 -47h-166l-165 -659q-25 -100 -43 -159.5t-57.5 -143t-92.5 -148.5q-58 -71 -132 -109t-151 -38q-115 0 -200 79q-38 -35 -99.5 -57
t-119.5 -22q-87 0 -135 43.5t-48 95.5q0 36 20 58t46 22q21 0 43 -18t22 -48q0 -4 -5 -26t-5 -25q0 -27 25 -44t59 -17q126 0 213 170q46 90 100 292l189 754h-201zM463 819h297q40 159 72 241.5t81 158.5q-20 9 -27.5 18.5t-27.5 46.5q-27 45 -78 45q-40 0 -73 -13.5
t-62 -51.5t-46.5 -62t-42.5 -92t-32.5 -91t-32.5 -106q-7 -21 -10 -32zM748 772h-295l-154 -618q-25 -101 -43.5 -165t-54 -149.5t-78.5 -146.5q15 -24 29 -80q7 -27 32.5 -42t57.5 -15q41 0 78.5 21t65.5 51t55.5 81.5t45 93.5t38 107t30.5 102.5t25 98.5z" />
    <glyph glyph-name="fi" unicode="fi" horiz-adv-x="811" 
d="M78 774l10 45h156l22 84q62 232 172 348q51 53 121 88t146 35t126 -31.5t50 -78.5q0 -20 -14 -36t-38 -16q-8 0 -15.5 2.5t-12 5t-11 8.5t-9.5 9.5t-10 12.5t-9 12q-18 23 -27.5 32.5t-30.5 20t-47 10.5q-85 0 -144 -94t-126 -338l-20 -74h307q64 0 135 23l-178 -652
q-2 -8 -9 -32.5t-10.5 -42t-3.5 -31.5q0 -39 29 -39q27 0 63 35t76 110h41q-10 -21 -20 -40t-33.5 -54.5t-47.5 -60.5t-60 -44.5t-72 -19.5q-39 0 -70 31t-31 80q0 29 23 111l164 581h-318l-192 -743q-17 -64 -30 -110t-34 -104t-42.5 -98.5t-52 -82.5t-64.5 -67.5
t-79.5 -41.5t-97.5 -16q-85 0 -133.5 44t-48.5 95q0 27 17 48t45 21q20 0 39.5 -16.5t19.5 -44.5q0 -19 -5 -38.5t-5 -25.5q0 -16 18.5 -29.5t52.5 -13.5q60 0 102 34.5t79.5 119t76.5 238.5l211 831h-151z" />
    <glyph glyph-name="fl" unicode="fl" horiz-adv-x="831" 
d="M961 1374l-322 -1165q-1 -5 -6 -24t-9 -33.5t-7 -33.5t-3 -32q0 -41 27 -41q34 0 72 45t67 100h41q-10 -21 -20 -40t-33.5 -54.5t-47.5 -60.5t-60 -44.5t-72 -19.5q-34 0 -66.5 27t-32.5 84q0 35 25 127l160 565h-324l-192 -743q-24 -91 -45 -156.5t-55.5 -139t-74 -119
t-97.5 -75.5t-128 -30q-85 0 -133.5 44t-48.5 95q0 27 17 48t45 21q25 0 42 -18t17 -43q0 -15 -5 -32.5t-5 -24.5q0 -17 17.5 -33.5t53.5 -16.5q98 0 153.5 96t117.5 343l198 784h-151l10 45h156l22 84q8 31 16 56t28 76.5t42 92t58.5 89t77 81t97 54.5t119.5 22
q49 0 97 -16q102 0 162 16zM686 819l111 402q-11 5 -25 23.5t-25.5 35.5t-35.5 31t-56 14q-86 0 -145 -96.5t-125 -335.5l-20 -74h321z" />
    <glyph glyph-name="f_f_i" unicode="ffi" horiz-adv-x="1343" 
d="M178 772l10 47h174l19 68q10 37 21 71t32.5 85.5t45.5 94t61 88.5t78.5 77.5t98 52t118.5 20.5q86 0 130.5 -32.5t47.5 -75.5q112 108 227 108q79 0 128.5 -33.5t49.5 -78.5q0 -26 -15 -41t-40 -15q-26 0 -39.5 13t-40.5 59q-24 49 -78 49q-37 0 -70 -22t-59.5 -58.5
t-51 -93t-43 -115.5t-38.5 -135l-22 -86h264q68 0 170 15l-166 -615q-31 -120 -31 -133q0 -18 11.5 -26.5t23.5 -8.5q35 0 81.5 55.5t57.5 81.5h45q-12 -23 -25 -44.5t-38 -55t-51 -57.5t-61 -42t-70 -18q-51 0 -74 33t-23 74q0 8 0.5 15.5t1.5 14t4.5 19t6.5 22.5t9.5 34
t12.5 44l150 545h-314l-170 -661q-20 -77 -34 -128t-37.5 -119t-46 -113t-55.5 -94t-69 -77t-84 -46.5t-104 -18.5q-39 0 -71.5 10t-52 22t-36.5 32t-23.5 31.5t-14.5 27.5q-50 -58 -118.5 -90.5t-142.5 -32.5q-81 0 -132.5 39.5t-51.5 91.5q0 30 18 52.5t50 22.5
q29 0 46 -21.5t17 -45.5l-2 -39q0 -59 66 -59q43 0 78 16t64.5 58.5t49 75t44 109t35 115t35.5 135.5q3 13 5 19l178 688h-170zM483 819h318l16 64q25 96 68 190.5t90 147.5q-11 0 -23 -1t-28 7t-29 26q-21 28 -30.5 39t-30.5 24t-46 13q-40 0 -75.5 -18.5t-63.5 -56.5
t-49 -75.5t-41 -95.5t-31 -95.5t-26 -96.5zM788 772h-319l-178 -680q-45 -173 -65 -230.5t-60 -135.5q67 -8 72 -82q1 -16 3.5 -26t10 -27t26 -26t46.5 -9q37 0 69.5 20t57.5 55.5t47 81.5t40 102t34 113t31 118q2 9 3 13z" />
    <glyph glyph-name="f_f_l" unicode="ffl" horiz-adv-x="1366" 
d="M1485 1374h12l-309 -1155q-31 -120 -31 -133q0 -18 10.5 -26.5t22.5 -8.5q25 0 59.5 33.5t53.5 60.5t28 43h43q-13 -27 -33.5 -58t-52.5 -70t-74.5 -64t-85.5 -25q-51 0 -72.5 33t-21.5 74q0 23 4.5 44t28.5 105l150 545h-312l-170 -661q-19 -76 -34 -127.5t-38.5 -119.5
t-46 -113.5t-55.5 -93.5t-69.5 -76.5t-84.5 -47t-104 -18.5q-39 0 -71.5 10t-51.5 22t-36 32t-23.5 31t-14.5 28q-110 -123 -262 -123q-80 0 -132 39.5t-52 91.5q0 30 18.5 52.5t49.5 22.5q30 0 46.5 -21t16.5 -46l-2 -39q2 -59 66 -59q119 0 194 159q9 18 17.5 39t15 38.5
t15.5 45.5t14 44.5t14.5 50t13 47.5t14 53t13.5 51l178 688h-168l10 47h172l19 66q11 38 22 72t32.5 86.5t45.5 94.5t61 88.5t78 77.5t97 51.5t118 20.5q87 0 131 -32.5t48 -75.5q112 108 227 108q69 0 121 -28q78 2 127 26zM479 819h318l16 62q27 101 70.5 196t87.5 146
q-11 0 -23 -1t-28 7t-29 26q-21 28 -30 38.5t-30 23t-47 12.5q-40 0 -75.5 -19t-63.5 -56.5t-49.5 -76t-41 -95.5t-31 -96t-25.5 -95zM784 772h-319l-178 -680q-46 -177 -65.5 -234t-59.5 -132q66 -8 71 -82q1 -15 3.5 -26t10.5 -27.5t27 -25.5t48 -9q37 0 69 20t57 55.5
t46.5 81.5t39.5 102t34 113.5t31 117.5q2 9 3 13zM1229 819l108 393q-17 7 -25 17t-30 51q0 1 -5 7t-8 10t-10.5 11t-15 11t-18.5 7t-23 3q-83 0 -145 -107.5t-117 -316.5l-22 -86h311z" />
    <glyph glyph-name=".notdef" horiz-adv-x="1024" 
d="M25 0v1362h972v-1362h-972zM180 1266l332 -498l330 498h-662zM123 1178v-992q0 -1 82.5 123t164.5 249l83 124zM901 1178l-332 -496l332 -498v994zM842 98l-330 496l-332 -496h662z" />
    <glyph glyph-name=".null" horiz-adv-x="0" 
 />
    <glyph glyph-name="nonmarkingreturn" horiz-adv-x="682" 
 />
    <glyph glyph-name="space" unicode=" " horiz-adv-x="512" 
 />
    <glyph glyph-name="exclam" unicode="!" horiz-adv-x="491" 
d="M70 78q0 44 31 75t75 31t75.5 -31t31.5 -75t-32 -75.5t-75 -31.5t-74.5 32t-31.5 75zM293 395h-45l192 770q11 43 14.5 56.5t13.5 46.5t17.5 44.5t20.5 28.5t28 23t35 6q30 0 49 -20.5t19 -53.5q0 -12 -2.5 -26.5t-8 -32t-9.5 -28.5t-11.5 -30.5t-9.5 -23.5z" />
    <glyph glyph-name="quotedbl" unicode="&#x22;" horiz-adv-x="854" 
d="M731 797l37 356q12 112 39 159q39 67 113 68q30 0 53.5 -16.5t23.5 -54.5q0 -42 -65 -179l-158 -333h-43zM319 797l37 356q12 112 39 159q38 68 113 68q30 0 54 -16.5t24 -54.5q0 -19 -11 -51t-21 -54.5t-34 -73.5l-158 -333h-43z" />
    <glyph glyph-name="numbersign" unicode="#" horiz-adv-x="1366" 
d="M188 958h328l90 412h103l-91 -412h443l88 412h102l-88 -412h207v-102h-225l-82 -389h307v-102h-328l-86 -412h-102l86 412h-442l-84 -412h-103l84 412h-207v102h228l82 389h-310v102zM1042 856h-442l-82 -389h443z" />
    <glyph glyph-name="dollar" unicode="$" horiz-adv-x="1024" 
d="M334 61l186 627q-25 23 -40.5 40.5t-43 56t-42.5 86.5t-15 102q0 137 96.5 234.5t235.5 115.5l16 57h55l-16 -53q29 0 40 -0.5t41.5 -6.5t67.5 -20l25 80h57l-32 -102q68 -37 103.5 -82.5t35.5 -81.5q0 -21 -13.5 -35t-39.5 -14q-23 0 -45.5 18t-57.5 76l-10 15
q-2 4 -2 6h-4l-158 -541q162 -162 162 -313q0 -52 -17.5 -104t-56 -105t-112.5 -93.5t-175 -56.5l-55 -184h-55l53 178q-80 0 -153 16l-60 -194h-53l61 209q-93 35 -137.5 87.5t-44.5 84.5q0 22 14 38.5t37 16.5q18 0 33.5 -7t30.5 -25t22.5 -28.5t24.5 -37.5q34 -53 41 -60
zM565 840l133 444q-109 -26 -162 -99.5t-53 -156.5q0 -91 82 -188zM733 682l162 551q-64 55 -139 55l-148 -489q1 -1 5 -6.5t12 -12.5q51 -43 102 -94q4 -4 6 -4zM530 2l158 530q-41 44 -123 117l-186 -622q53 -34 151 -25zM729 487l-141 -479q63 10 111.5 37.5t76.5 64
t41.5 76t13.5 78.5q0 109 -102 223z" />
    <glyph glyph-name="percent" unicode="%" horiz-adv-x="1792" 
d="M1219 205q0 105 34 198t85 152.5t109 94t109 34.5q76 0 126.5 -65.5t50.5 -178.5q0 -103 -46 -211.5t-123.5 -182t-160.5 -73.5q-86 0 -135 65.5t-49 166.5zM1321 115q0 -46 18.5 -74.5t53.5 -28.5q49 0 96 66t76 156.5t47 176t18 132.5q0 55 -19.5 78.5t-47.5 23.5
q-57 0 -115.5 -102t-92.5 -225.5t-34 -202.5zM289 899q0 105 34 198t85.5 152.5t109.5 94t109 34.5q76 0 126 -65t50 -178q0 -103 -46 -211.5t-123.5 -182t-160.5 -73.5q-86 0 -135 65t-49 166zM391 809q0 -46 18.5 -74t53.5 -28q49 0 96 66t76 156t47 175.5t18 132.5
q0 55 -19.5 78.5t-47.5 23.5q-57 0 -115.5 -102t-92.5 -225.5t-34 -202.5zM487 0h-73l1132 1356h72z" />
    <glyph glyph-name="ampersand" unicode="&#x26;" horiz-adv-x="1748" 
d="M514 842l-6 11q-6 11 -10 19t-10.5 25.5t-10.5 34t-7 40t-3 48.5q0 41 15.5 88.5t48 95.5t76.5 87.5t107 64t134 24.5q109 0 175.5 -59.5t66.5 -134.5q0 -53 -32.5 -108.5t-72.5 -55.5q-7 0 -12.5 5t-5.5 13q0 10 13 45.5t13 61.5q0 48 -28 81t-64.5 45.5t-77.5 12.5
q-67 0 -125 -30t-95.5 -76.5t-59 -101t-21.5 -105.5q0 -21 5 -41t19 -44t44.5 -41t75.5 -22q36 -4 50.5 -23.5t14.5 -43.5q0 -23 -14 -39.5t-41 -16.5q-18 0 -32 7t-31 21.5t-21 17.5q-51 38 -96 38q-63 0 -120 -63t-57 -148q0 -56 24 -118t73.5 -123.5t117.5 -110.5
t164.5 -79.5t204.5 -30.5q121 0 228 34t179.5 89t114 126.5t41.5 145.5q0 48 -18.5 94t-54 85t-95.5 63t-135 24q-115 0 -203 -61.5t-88 -155.5q0 -58 31.5 -92.5t67.5 -34.5q14 0 22.5 5t12 17t4 21.5t0.5 28.5q0 44 21 72t61 28q36 0 62 -24t26 -70q0 -61 -43 -103.5
t-113 -42.5q-79 0 -139 57t-60 142q0 151 126 238.5t352 87.5q72 0 130 5t123 21.5t108.5 44t72 77t28.5 116.5q0 72 -42.5 128t-129.5 56q-28 0 -50.5 -10.5t-22.5 -30.5q0 -11 20 -51q3 -5 6.5 -11.5t5.5 -10t4 -8.5t2.5 -10.5t0.5 -12.5q0 -36 -27.5 -64t-71.5 -28
q-54 0 -77 34t-23 72q0 27 13.5 56.5t40 57t74 45t107.5 17.5q79 0 137 -42t83.5 -100.5t25.5 -121.5q0 -75 -28 -138.5t-84.5 -112.5t-150 -74.5t-214.5 -20.5q70 -45 117 -123.5t47 -173.5q0 -65 -26 -133.5t-80.5 -134t-130 -116.5t-183 -82.5t-231.5 -31.5
q-148 0 -267.5 35t-194 89t-124.5 125t-70 138t-20 132q0 55 17.5 110t53 107t98.5 88t144 43z" />
    <glyph glyph-name="quotesingle" unicode="'" horiz-adv-x="448" 
d="M334 797l37 356q12 108 36 155q38 72 115 72q30 0 54 -16.5t24 -54.5q0 -17 -8 -43t-14.5 -42t-20.5 -46l-14 -29l-166 -352h-43z" />
    <glyph glyph-name="parenleft" unicode="(" 
d="M383 -471l-27 -18q-25 48 -51.5 117t-56 211t-29.5 286q0 178 36.5 343t97.5 296.5t146.5 247.5t178 202t196.5 154l21 -25q-148 -121 -260 -275.5t-173.5 -294t-99.5 -291.5t-49.5 -256.5t-11.5 -200.5q0 -133 25.5 -275t56.5 -221z" />
    <glyph glyph-name="parenright" unicode=")" 
d="M360 1352l27 18q25 -48 51.5 -117t56 -211t29.5 -286q0 -178 -36.5 -343t-97.5 -296.5t-146.5 -247.5t-178 -202t-196.5 -154l-21 24q148 121 260 275.5t173.5 294.5t99.5 291.5t49.5 256.5t11.5 201q0 133 -25.5 275t-56.5 221z" />
    <glyph glyph-name="asterisk" unicode="*" horiz-adv-x="937" 
d="M766 877l51 -29q26 -15 40.5 -24.5t36.5 -27.5t33 -39t11 -44q0 -37 -22.5 -54.5t-47.5 -17.5q-13 0 -25 4t-22.5 11t-20 15.5t-18 20t-15.5 20.5t-13 20.5t-9.5 18t-7.5 15.5l-4 8q-54 116 -86 156q-16 -85 -16 -144q0 -28 4 -79q5 -67 -24 -101.5t-66 -34.5
q-30 0 -52 23t-22 59q0 19 7.5 39.5t14.5 32t23 32.5t19 25q57 81 86 152q-79 -21 -179 -90q-59 -41 -100 -41q-33 0 -61.5 20t-28.5 54q0 39 32.5 65.5t92.5 26.5q12 0 68 -7.5t100 -7.5q39 0 71 7q-17 15 -31 27t-27 21.5t-21 15.5t-20 13.5t-16.5 10t-18.5 9.5t-17 9
q-66 37 -88 63q-25 30 -25 64q0 33 22.5 52.5t51.5 19.5t54.5 -21t37.5 -42t26.5 -54.5t16.5 -36.5q8 -15 37 -66t37 -65q12 82 12 141q0 130 4 144q9 33 28 51.5t31.5 22t24.5 3.5q30 0 53 -25t23 -58q0 -25 -11.5 -50t-47.5 -73q-59 -85 -90 -164q32 10 58.5 21.5t43 21.5
t53.5 33q30 19 46 28t42.5 19t48.5 10q37 0 60.5 -21.5t23.5 -50.5q0 -36 -29 -64t-87 -28q-4 0 -54.5 5t-97.5 5q-52 0 -102 -8q19 -17 43 -34t38.5 -25t16.5 -8z" />
    <glyph glyph-name="plus" unicode="+" horiz-adv-x="1366" 
d="M238 709h487v487h106v-487h488v-107h-488v-487h-106v487h-487v107z" />
    <glyph glyph-name="comma" unicode="," horiz-adv-x="491" 
d="M0 -365v39q68 7 124.5 32t90.5 56t57.5 66t33 62t9.5 44q0 46 -39 46q-4 0 -22 -2.5t-21 -2.5q-10 0 -23 4t-30.5 13t-29 30.5t-11.5 51.5q0 57 33 83.5t74 26.5q67 0 101 -54.5t34 -127.5q0 -63 -25.5 -124.5t-72 -114t-120.5 -87.5t-163 -41z" />
    <glyph glyph-name="hyphen" unicode="-" horiz-adv-x="681" 
d="M152 451h491l-47 -82h-490z" />
    <glyph glyph-name="period" unicode="." horiz-adv-x="491" 
d="M139 78q0 44 31.5 75t75.5 31t75 -31t31 -75t-31.5 -75.5t-74.5 -31.5t-75 32t-32 75z" />
    <glyph glyph-name="slash" unicode="/" horiz-adv-x="1067" 
d="M918 1380h120l-698 -1413h-121z" />
    <glyph glyph-name="zero" unicode="0" horiz-adv-x="1024" 
d="M213 369q0 173 53 352t137 316t194 224t218 87q73 0 127.5 -56.5t80.5 -144.5t26 -193q0 -34 -4.5 -84.5t-21 -154t-62 -225t-113.5 -226.5q-78 -121 -192.5 -208t-200.5 -87q-79 0 -135.5 60.5t-81.5 149t-25 190.5zM332 211q0 -111 34 -156t83 -45q76 0 163.5 115.5
t156.5 283t115 362.5t46 345q0 191 -113 191q-86 0 -177 -123t-157 -297t-108.5 -360.5t-42.5 -315.5z" />
    <glyph glyph-name="one" unicode="1" horiz-adv-x="1024" 
d="M846 1348h55l-362 -1201q-19 -67 -3.5 -84.5t87.5 -17.5h69l-14 -45h-496l15 45h104q42 0 59 17.5t39 89.5l263 860q28 96 28 116q0 70 -127 70h-61l14 45q107 0 191 21t139 84z" />
    <glyph glyph-name="two" unicode="2" horiz-adv-x="1024" 
d="M813 117l-57 -189h-31q3 51 -20.5 61.5t-104.5 10.5h-504q0 34 7 55.5t16 32.5t35 35q25 23 288 276q56 55 71.5 70t67 67.5t69.5 74t59.5 70.5t58.5 77.5t44.5 74.5t38.5 81t20.5 78.5t9.5 84.5q0 39 -13.5 77.5t-39.5 71t-68.5 52.5t-95.5 20q-92 0 -158 -54.5
t-66 -135.5q0 -16 2.5 -31t5.5 -25.5t8.5 -21t8.5 -15.5t8.5 -12t5.5 -8q5 -8 11 -14t9.5 -8t6 -5t2.5 -7q0 -14 -42.5 -46t-62.5 -32q-31 0 -53 49t-22 106q0 41 14.5 84t45 83.5t73 72t104 51t133.5 19.5q90 0 157 -27t102 -71t51 -90.5t16 -96.5q0 -133 -72.5 -242.5
t-238.5 -257.5q-70 -62 -174 -152.5t-183 -160.5t-145 -133h602z" />
    <glyph glyph-name="three" unicode="3" horiz-adv-x="1024" 
d="M602 745q52 1 98 -14.5t84.5 -46.5t61 -85.5t22.5 -125.5q0 -91 -41 -182t-109.5 -162t-166 -115.5t-203.5 -44.5q-67 0 -133 18t-113 55.5t-47 84.5q0 33 18.5 51.5t45.5 18.5q46 0 87 -75q2 -3 3 -5q29 -49 63 -76t86 -27q77 0 142.5 42t106.5 103.5t70.5 135t41.5 134
t12 101.5q0 74 -36 126.5t-105 52.5q-59 0 -150 -70q-4 -3 -10.5 -8t-10 -7.5t-8.5 -6t-8 -5l-7 -3.5t-7.5 -2.5t-7.5 -0.5q-11 0 -20 7.5t-9 19.5q0 18 11.5 26.5t72.5 42.5q17 9 61.5 33t72 38.5t71.5 42t72 49.5t61.5 54.5t53 63.5t33 70t13.5 80q0 79 -50 124.5
t-158 45.5q-54 0 -96 -18t-65.5 -47.5t-35.5 -61t-12 -62.5q0 -43 18 -70q12 -24 12 -26q0 -13 -32 -38.5t-47 -25.5q-21 0 -42.5 36.5t-21.5 88.5q0 115 98 192t260 77q148 0 229 -61.5t81 -151.5q0 -36 -11.5 -70t-27.5 -60.5t-46 -55t-54.5 -47.5t-66 -44.5t-67 -39
t-71.5 -38t-66 -35.5z" />
    <glyph glyph-name="four" unicode="4" horiz-adv-x="1024" 
d="M633 455h-440l18 65l768 828h65l-251 -828h65q47 0 64.5 10.5t46.5 63.5h43l-43 -139h-197l-88 -295q-18 -61 -18 -74q0 -15 6.5 -23.5t23 -12.5t29.5 -4.5t41 -0.5h39l-14 -45h-431l13 45h69q39 0 58 16t37 72zM274 520h379l191 619z" />
    <glyph glyph-name="five" unicode="5" horiz-adv-x="1024" 
d="M389 682h-45l223 633h529q-20 -47 -34 -72t-31 -37t-30 -14t-43 -2h-389l-137 -393q93 98 219 98q114 0 200.5 -93.5t86.5 -250.5q0 -108 -42.5 -213.5t-115 -187t-177 -131.5t-220.5 -50q-72 0 -128.5 19.5t-87 48.5t-46 58.5t-15.5 54.5q0 24 17 43.5t47 19.5
q28 0 50.5 -19t32.5 -39.5t23 -54.5q19 -50 48.5 -68t81.5 -18q81 0 157 64t127 159t82 201.5t31 194.5q0 28 -5.5 58t-21 69.5t-52 64.5t-89.5 25q-139 0 -246 -168z" />
    <glyph glyph-name="six" unicode="6" horiz-adv-x="1024" 
d="M1133 1135q-26 0 -41.5 14t-40.5 55q-33 53 -60.5 76t-75.5 23q-60 0 -121 -37t-110 -95.5t-93 -125.5t-75 -132.5t-50 -111.5t-24 -68q40 52 104 85.5t136 33.5q136 0 224.5 -106t88.5 -269q0 -106 -38.5 -201.5t-101.5 -162t-143.5 -105.5t-162.5 -39
q-59 0 -114.5 23.5t-105 72.5t-80 137t-30.5 204q0 102 26.5 213.5t73.5 215t114.5 197.5t145.5 164t171.5 111t187.5 41q72 0 126.5 -19.5t80 -47t37.5 -49.5t12 -36q0 -24 -16 -42.5t-45 -18.5zM326 262q0 -122 64.5 -185t146.5 -63q70 0 129.5 51t96 124.5t62.5 159.5
t36.5 153t10.5 108q0 49 -15 87t-36 58t-49 32.5t-49.5 16t-42.5 3.5q-177 0 -279 -215q-38 -80 -56.5 -171.5t-18.5 -158.5z" />
    <glyph glyph-name="seven" unicode="7" horiz-adv-x="1024" 
d="M389 1061h-45l111 317h43q-6 -39 6 -49q14 -14 67 -14h531v-25l-592 -1083q-62 -113 -96.5 -163.5t-52 -62.5t-44.5 -12q-25 0 -45 13.5t-20 42.5q0 11 7 27.5t14 28.5t16.5 25.5t9.5 14.5l698 1069h-430q-81 0 -111.5 -19.5t-54.5 -78.5z" />
    <glyph glyph-name="eight" unicode="8" horiz-adv-x="1024" 
d="M723 682q88 -27 150.5 -104.5t62.5 -190.5q0 -51 -17 -107t-53.5 -111.5t-87 -100t-124 -72t-158.5 -27.5q-78 0 -144 28t-108 74.5t-65 103.5t-23 116q0 24 6 58.5t32 93.5t68.5 108t126 92.5t193.5 56.5q-25 10 -49 26t-55 46.5t-50.5 80.5t-19.5 112q0 64 28 131
t77 123.5t125.5 92.5t164.5 36q127 0 201.5 -84t74.5 -193q0 -46 -10.5 -92.5t-37 -95.5t-66 -89t-102 -70.5t-140.5 -41.5zM537 877q0 -78 36 -123t105 -45q57 0 105 39t78 95t51 120.5t29.5 113.5t8.5 76q0 39 -12 68.5t-28.5 44.5t-38.5 24t-36 11t-26 2
q-58 0 -106.5 -39t-78 -94.5t-50.5 -119t-29 -108t-8 -65.5zM287 186q0 -74 51 -123t147 -49q59 0 109.5 25.5t84 67.5t59 92t39.5 104.5t21 99t7 80.5q0 82 -48.5 131.5t-156.5 49.5q-75 0 -138 -54.5t-99 -133.5t-56 -156t-20 -134z" />
    <glyph glyph-name="nine" unicode="9" horiz-adv-x="1024" 
d="M811 586q-19 -19 -26.5 -26t-34.5 -28.5t-48 -31.5t-56 -19.5t-71 -9.5q-91 0 -160 53t-104 137.5t-35 184.5q0 106 38.5 201.5t100 160t139.5 102.5t157 38q42 0 83 -11t84.5 -40.5t76.5 -74.5t54 -119.5t21 -168.5q0 -71 -14.5 -156.5t-44 -177.5t-70.5 -182.5
t-97 -171.5t-120.5 -142.5t-144.5 -98t-164 -36.5q-60 0 -105.5 16t-68.5 40t-34 47t-11 43q0 34 21.5 53.5t47.5 19.5q19 0 34 -8.5t25.5 -25.5t15 -28t11.5 -30q27 -82 99 -82q23 0 44 6t50 24t63 58t70 101q38 64 88 171.5t86 211.5zM399 707q0 -75 45 -133t138 -58
q80 0 147 52.5t108.5 133.5t64 173t22.5 178q0 117 -56 183.5t-139 66.5q-69 0 -127 -49t-94 -121.5t-62 -157.5t-36.5 -154t-10.5 -114z" />
    <glyph glyph-name="colon" unicode=":" horiz-adv-x="491" 
d="M301 741q0 44 31.5 75.5t75.5 31.5t75 -31.5t31 -75.5t-31.5 -75t-74.5 -31t-75 31.5t-32 74.5zM139 78q0 44 31.5 75t75.5 31t75 -31t31 -75t-31.5 -75.5t-74.5 -31.5t-75 32t-32 75z" />
    <glyph glyph-name="semicolon" unicode=";" horiz-adv-x="491" 
d="M301 741q0 44 31.5 75.5t75.5 31.5t75 -31.5t31 -75.5t-31.5 -75t-74.5 -31t-75 31.5t-32 74.5zM0 -365v39q68 7 124.5 32t90.5 56t57.5 66t33 62t9.5 44q0 46 -39 46q-4 0 -22 -2.5t-21 -2.5q-10 0 -23 4t-30.5 13t-29 30.5t-11.5 51.5q0 57 33 83.5t74 26.5
q67 0 101 -54.5t34 -127.5q0 -63 -25.5 -124.5t-72 -114t-120.5 -87.5t-163 -41z" />
    <glyph glyph-name="less" unicode="&#x3c;" horiz-adv-x="1366" 
d="M1319 156l-1079 456v97l1079 454v-116l-936 -388l936 -387v-116z" />
    <glyph glyph-name="equal" unicode="=" horiz-adv-x="1366" 
d="M238 942h1081v-106h-1081v106zM238 475h1081v-106h-1081v106z" />
    <glyph glyph-name="greater" unicode="&#x3e;" horiz-adv-x="1366" 
d="M240 1163l1079 -456v-97l-1079 -454v116l934 385l-934 387v119z" />
    <glyph glyph-name="question" unicode="?" horiz-adv-x="704" 
d="M317 391h-45l111 369h31q8 -80 63 -80q57 0 106.5 83t74 189t24.5 195q0 45 -12 79t-28.5 51.5t-37.5 28t-34 13t-23 2.5q-29 0 -48.5 -13t-41.5 -46q-31 -45 -68 -45q-22 0 -35.5 12.5t-13.5 34.5q0 39 53.5 72.5t126.5 33.5q113 0 197 -97.5t84 -240.5
q0 -99 -38 -190.5t-109.5 -151t-159.5 -59.5q-43 0 -97 24zM111 78q0 44 31 75t75 31t75.5 -31t31.5 -75t-32 -75.5t-75 -31.5t-74.5 32t-31.5 75z" />
    <glyph glyph-name="at" unicode="@" horiz-adv-x="1878" 
d="M1409 915l-170 -585q-41 -150 -41 -193q0 -26 18 -52t58 -26q69 0 144 51t137 136.5t102.5 209t40.5 255.5q0 174 -80 314t-228.5 221t-340.5 81q-129 0 -247 -38t-211 -104.5t-168.5 -157.5t-125.5 -196.5t-77 -222t-27 -233.5q0 -177 59 -327t162.5 -253.5t248 -161
t312.5 -57.5q90 0 177 17t178.5 57.5t171 102.5t152 158.5t124.5 217.5h57q-48 -150 -141 -269t-210 -193t-248.5 -113t-266.5 -39q-183 0 -344 66t-277.5 181.5t-184 281.5t-67.5 357q0 207 76 390.5t204.5 311.5t302 202.5t363.5 74.5q141 0 260 -38t202 -103.5
t140.5 -153.5t85 -187t27.5 -204q0 -94 -22 -191.5t-68.5 -190t-110.5 -164.5t-155 -116t-195 -44q-153 0 -153 139q0 54 20 152q-35 -44 -60.5 -73.5t-71 -75t-83.5 -73t-86.5 -48.5t-93.5 -21q-60 0 -103 39t-61 90t-18 104q0 113 54.5 240.5t135 227.5t179 166.5
t182.5 66.5q68 0 111.5 -35.5t58.5 -104.5h4l30 111zM1057 877q-65 0 -140 -71t-131.5 -170t-94.5 -206t-38 -178q0 -57 32.5 -100t84.5 -43q46 0 94.5 27t90 71t68 78t50.5 71q42 65 75.5 182.5t33.5 188.5q0 66 -34 108t-91 42z" />
    <glyph glyph-name="A" unicode="A" horiz-adv-x="1173" 
d="M819 514h-387l-149 -231q-2 -3 -17 -27t-22 -36.5t-15 -33t-8 -36.5q0 -27 10 -46.5t22.5 -29.5t40 -16.5t46.5 -8.5t57 -4l-14 -45h-475l14 45q55 4 101.5 25t82.5 57t55 60.5t44 62.5l756 1130h69l-47 -1126q-5 -77 0 -122t39 -64t121 -23l-15 -45h-532l14 45
q48 2 79 7t53.5 17.5t33.5 27.5t18 46t9.5 62t5.5 86v4zM463 559h358l27 586z" />
    <glyph glyph-name="B" unicode="B" horiz-adv-x="1216" 
d="M631 0h-639l14 45h57q125 0 168 139l289 949q23 73 23 106q0 72 -129 72h-27l12 45h488q110 0 192 -28t125.5 -73.5t63.5 -93.5t20 -98q0 -79 -37 -142.5t-100 -104t-135.5 -65.5t-153.5 -36q155 -28 237.5 -114t82.5 -200q0 -79 -27 -144t-74 -107t-103 -73t-120.5 -47
t-119.5 -23t-107 -7zM719 694h-154l-141 -461q-23 -75 -23 -98q0 -29 17 -48.5t49 -27.5t62 -11t71 -3q87 0 156.5 26.5t113.5 69t73.5 99t41.5 113.5t12 116q0 225 -278 225zM754 1311l-174 -572h143q101 0 178.5 31.5t121 84.5t64.5 113t21 126q0 95 -57.5 156t-188.5 61
h-108z" />
    <glyph glyph-name="C" unicode="C" horiz-adv-x="1236" 
d="M1155 422h45l-137 -438h-43q0 96 -8 135q-144 -144 -336 -144q-88 0 -164.5 29.5t-132.5 79.5t-96 116t-60 140.5t-20 151.5q0 148 59.5 305.5t158 286.5t241 212.5t294.5 83.5q66 0 121 -16.5t88 -38.5t61 -55t40 -54.5t24 -48.5q51 84 68 156h43l-88 -393h-43
q14 107 -14.5 199.5t-100.5 151t-176 58.5q-93 0 -175.5 -42t-141 -110t-107 -156t-79 -177.5t-51.5 -177t-29.5 -152t-8.5 -104.5q0 -174 82.5 -287t224.5 -113q273 0 461 402z" />
    <glyph glyph-name="D" unicode="D" horiz-adv-x="1386" 
d="M369 1356h155q63 0 162 6q63 4 150 4q107 0 196.5 -22.5t150 -59.5t107.5 -88.5t74 -104t44 -112.5t22.5 -108t5.5 -95q0 -24 -2.5 -53.5t-11.5 -79.5t-23.5 -99.5t-43 -110t-65.5 -114.5t-95 -109.5t-128 -98.5q-63 -39 -127 -63t-141.5 -33.5t-133.5 -12t-157 -2.5
h-545l12 45h58q86 0 127 34t59 93l283 930q33 112 33 137q0 72 -129 72h-52zM748 1319l-328 -1077q-25 -78 -25 -103q0 -28 16 -47.5t46.5 -29t64.5 -13.5t80 -4q344 0 518 313q66 118 98.5 249.5t32.5 226.5q0 223 -110 355t-287 132q-83 0 -106 -2z" />
    <glyph glyph-name="E" unicode="E" horiz-adv-x="1259" 
d="M1212 344h45l-104 -344h-1137l15 45h28q36 0 63 5t47 18.5t33 27t26 41.5t20 49.5t20 63.5l260 856q33 116 33 133q0 72 -129 72h-39l13 45h968l4 -305h-43q-39 151 -101.5 205.5t-180.5 54.5h-281l-176 -582h98q140 0 214 44t132 177h47l-161 -530h-47q12 58 12 100
q0 101 -36 132.5t-161 31.5h-112l-127 -420q-6 -19 -12.5 -40.5t-9 -29.5t-5.5 -18.5t-3.5 -17.5t-0.5 -17q0 -32 16 -52.5t49 -29.5t64 -11.5t80 -2.5h82q205 0 314 68.5t183 230.5z" />
    <glyph glyph-name="F" unicode="F" horiz-adv-x="1110" 
d="M1343 1356l7 -305h-43q-18 72 -42 122.5t-46.5 77t-54 40.5t-54 17t-57.5 3h-305l-168 -586h106q53 0 91.5 4t81 17.5t73.5 37.5t59.5 65t48.5 99h47l-155 -547h-49q18 69 18 119q0 33 -6.5 58.5t-15.5 42.5t-28 28.5t-34 17.5t-44 9t-49 3.5t-56 0.5h-103l-108 -385
q-37 -127 -37 -154q0 -31 17.5 -52.5t44.5 -29.5t45.5 -11t33.5 -3h33l-14 -45h-564l15 45q44 0 74.5 4t53.5 16t37 24.5t26.5 39.5t20.5 50.5t20 66.5q1 3 1 4l254 885q21 72 21 102q0 74 -129 74h-29l12 45h950z" />
    <glyph glyph-name="G" unicode="G" horiz-adv-x="1300" 
d="M1380 563l-14 -43q-30 0 -47.5 -1t-34 -8.5t-25 -15t-19 -29t-17 -41t-19.5 -60.5l-92 -304q-12 11 -26.5 24.5t-20.5 19t-14.5 11.5t-14.5 7.5t-14 1.5q-9 0 -24 -10t-40 -29t-43 -31q-129 -80 -276 -80q-94 0 -177 34.5t-146.5 99t-100.5 166.5t-37 229q0 116 35 239
t103.5 236t160 203t214.5 144t257 54q238 0 352 -176l66 125h41l-82 -407h-41q10 197 -45 282q-10 16 -26.5 33.5t-48.5 42t-82.5 40t-110.5 15.5q-99 0 -186 -43t-148.5 -112.5t-112 -159t-82.5 -180.5t-53.5 -180t-30 -153.5t-8.5 -105.5q0 -191 82 -282
q48 -52 111.5 -75.5t124.5 -23.5q131 0 212.5 76.5t120.5 202.5l15 45q22 71 22 102q0 72 -129 72h-37l13 45h495z" />
    <glyph glyph-name="H" unicode="H" horiz-adv-x="1536" 
d="M1212 680h-647l-145 -479q-22 -74 6 -115t129 -41l-14 -45h-521l15 45q88 0 133 36t70 114l280 929q3 10 9.5 31t8.5 28t5.5 20.5t4.5 23t1 20.5q0 64 -148 64l15 45h512l-15 -45q-38 0 -63.5 -3t-47 -14t-34.5 -24t-27.5 -42.5t-24.5 -59t-26 -83.5l-106 -350h647
l135 445q20 65 -3.5 98t-125.5 33l14 45h488l-13 -45q-90 0 -127.5 -39.5t-80.5 -179.5l-265 -875q-14 -52 -12.5 -90t38.5 -60t112 -22l-15 -45h-532l12 45q40 0 69.5 4.5t52 18.5t36.5 26.5t27.5 41.5t21 50t20.5 64z" />
    <glyph glyph-name="I" unicode="I" horiz-adv-x="704" 
d="M614 45l-14 -45h-571l14 45h31q43 0 77 13t52.5 29t34 43t20 40.5t10.5 35.5q1 5 2 7l275 903q28 95 28 123q0 72 -129 72h-34l14 45h532l-14 -45q-31 0 -53.5 -1.5t-41.5 -8t-31.5 -11t-25 -19.5t-19 -25t-16.5 -36t-15.5 -43t-16.5 -55q-4 -13 -6 -20l-246 -811
q-35 -119 -35 -140q0 -31 17.5 -52.5t44.5 -29.5t44.5 -11t32.5 -3h39z" />
    <glyph glyph-name="J" unicode="J" horiz-adv-x="966" 
d="M666 676h-248l14 45h250q46 131 124 292.5t126 219.5l-24 -8t-32.5 -10t-36 -10t-45.5 -10.5t-48.5 -8t-57.5 -6.5t-61 -2q-63 0 -144 9t-96 9q-64 0 -105 -22t-77 -78h-45q23 120 108 198t185 78q35 0 68 -10t54 -21t60 -34q6 -3 22 -12.5t20.5 -12t17 -10t17.5 -9.5
t15.5 -6.5t17 -6t16 -4t18 -3t18.5 -0.5q29 0 52 4t41 13.5t27.5 15.5t24.5 20t19 17q6 5 22 21.5t30.5 26t30.5 9.5q37 0 37 -33q0 -5 -0.5 -9.5t-2.5 -9.5t-3.5 -8.5t-6 -9t-7 -8.5t-9 -10t-10 -10.5l-12.5 -12.5l-14 -14q-21 -21 -50.5 -66t-37.5 -67q-51 -142 -105 -391
h172l-14 -45h-168q-7 -24 -25 -111q-31 -148 -53 -244t-57.5 -217.5t-71 -198t-88 -158t-112.5 -126.5t-141.5 -74.5t-178.5 -29.5q-81 0 -144.5 22.5t-98 57t-51.5 70.5t-17 69q0 44 23.5 71t56.5 27q32 0 55.5 -25.5t23.5 -68.5q0 -5 -2 -32t-2 -32q0 -48 44.5 -81
t113.5 -33q52 0 97 19t83 59t69 90.5t61 125t54.5 149.5t53.5 177q68 238 160 494z" />
    <glyph glyph-name="K" unicode="K" horiz-adv-x="1193" 
d="M1135 125h49q-11 -21 -17.5 -32.5t-26 -35t-41 -36.5t-57.5 -24t-79 -11q-51 0 -90.5 16t-59.5 38.5t-32.5 50.5t-15.5 47t-3 34q0 44 29 180q18 88 18 144q0 47 -13.5 82t-36 52.5t-45 25.5t-46.5 8q-31 0 -55.5 -11.5t-41.5 -28.5t-33 -51.5t-26.5 -65t-26.5 -83.5
l-57 -188q-20 -72 -20 -97q0 -94 155 -94l-14 -45h-531l15 45q45 0 78.5 11t53.5 25t37 43.5t24.5 49.5t19.5 59l270 887q3 11 9.5 30t9 26.5t5.5 20t4 22t1 20.5q0 72 -129 72h-39l14 45h529l-15 -45q-23 0 -41.5 -1.5t-35 -6.5t-28.5 -9t-23.5 -15t-19.5 -18t-17 -24.5
t-14 -28.5t-13 -35.5t-13 -39t-14 -46.5l-119 -389q255 286 369 392q59 55 107 96t115 90.5t130 76.5t115 27q50 0 86.5 -27.5t36.5 -76.5q0 -37 -23.5 -57.5t-52.5 -20.5q-51 0 -64 55q-7 28 -18.5 41t-40.5 13q-15 0 -33.5 -5t-37 -13.5t-37 -18.5t-37 -23t-34 -24.5
t-31 -24.5t-24.5 -20.5t-19 -15.5l-9 -9q-162 -141 -457 -467q58 23 99 23q120 0 191 -94.5t71 -252.5q0 -25 -7.5 -109t-7.5 -89q0 -40 19.5 -67t60.5 -27q57 0 101 55z" />
    <glyph glyph-name="L" unicode="L" horiz-adv-x="1110" 
d="M1145 340h43l-113 -340h-1073l14 45h31q150 0 186 127l279 924q37 119 37 143q0 72 -129 72h-29l15 45h555l-15 -45h-37q-106 0 -140 -40t-77 -180q-1 -4 -2 -6l-254 -837q-26 -91 -26 -111q0 -17 4.5 -30.5t14 -23t18.5 -16.5t25.5 -11t27.5 -6.5t30.5 -3.5t29 -1.5
t29.5 0t25 0.5h101q55 0 105.5 12t86.5 27.5t72 45t56 49t45 55.5t32.5 48.5t24.5 43.5q6 10 8 14z" />
    <glyph glyph-name="M" unicode="M" horiz-adv-x="1792" 
d="M866 209l785 1147h338l-13 -45q-111 0 -147 -24q-33 -22 -55 -95q-7 -22 -23 -88l-209 -844q-22 -90 -22 -115q0 -32 18 -54t45.5 -31t46.5 -12t35 -3h31l-15 -45h-567l14 45q34 0 60 2.5t47 10t35.5 14t27.5 23.5t20 28t16 38t13.5 43.5t14.5 53.5l242 959l-832 -1217
h-49l-133 1114l-291 -770q-49 -130 -49 -172q0 -22 4 -40.5t13 -31t18 -22t24.5 -15.5t26 -9.5t29.5 -5t28.5 -2l28.5 -1.5l-14 -45h-455l14 45q37 1 66 9t51.5 19.5t44 36.5t36.5 47t34.5 66.5t34 80t39.5 100.5q1 2 1.5 4t1.5 4l259 665q43 113 43 150q0 36 -19.5 55.5
t-44.5 24t-65 4.5h-54l13 45h317z" />
    <glyph glyph-name="N" unicode="N" horiz-adv-x="1314" 
d="M1049 -12h-48l-376 1153l-121 -498q-22 -89 -36.5 -145.5t-34.5 -129.5t-35.5 -118.5t-36.5 -100t-40.5 -87t-44.5 -66.5t-51 -51.5t-58 -29t-67 -11.5q-74 0 -123 42t-49 105q0 53 23 78t55 25q30 0 52 -20.5t22 -55.5q0 -9 -1.5 -17t-3 -11.5t-7 -15t-7.5 -16.5
q-10 -22 -10 -32q0 -37 55 -37q54 0 102 39.5t81 107.5q36 74 70.5 183t52.5 182l151 614q33 127 33 150q0 86 -174 86h-19l13 45h313l348 -1063l82 350q108 467 176 596q74 135 178 135q55 0 84 -26.5t29 -63.5q0 -35 -24 -55.5t-54 -20.5q-7 0 -13 1.5t-10.5 2.5t-9.5 5
t-7.5 5t-7.5 7.5t-6 7.5t-6.5 9t-6.5 9q-8 11 -12 15.5t-12 9t-17 4.5q-31 0 -60 -52.5t-72 -196.5t-108 -417z" />
    <glyph glyph-name="O" unicode="O" horiz-adv-x="1343" 
d="M219 518q0 90 26.5 190.5t73.5 195.5t115.5 182t147 152t173 103.5t189.5 38.5q187 0 310.5 -145.5t123.5 -388.5q0 -156 -60.5 -315t-157 -281t-226 -198.5t-260.5 -76.5q-64 0 -125.5 17t-122 57.5t-106 100.5t-73.5 155t-28 213zM397 418q0 -29 1 -51t6.5 -66.5
t15 -78t30 -73.5t48.5 -66.5t72.5 -44.5t99.5 -18q104 0 195.5 74t153 185.5t106 243.5t65 248.5t20.5 199.5q0 180 -75 272t-193 92q-84 0 -162 -48.5t-136 -127.5t-106 -177.5t-78 -202t-46.5 -196.5t-16.5 -165z" />
    <glyph glyph-name="P" unicode="P" horiz-adv-x="1110" 
d="M557 659l-117 -393q-30 -98 -30 -125q0 -31 17.5 -52.5t44.5 -29.5t44.5 -11t32.5 -3h33l-15 -45h-538l12 45q151 0 188 127l281 928q35 122 35 139q0 72 -129 72h-47l14 45h377q104 0 155 -2.5t113 -16.5t113 -43q82 -47 119.5 -118t37.5 -142q0 -90 -52 -174.5
t-144 -130.5q-143 -70 -447 -70h-98zM756 1311l-185 -606h60q62 0 96.5 2t88.5 10t97.5 29t79.5 55q121 113 121 270q0 101 -61 174q-21 24 -46 38t-62 20t-63 7t-79 1h-47z" />
    <glyph glyph-name="Q" unicode="Q" horiz-adv-x="1343" 
d="M793 -8l-256 -105q108 5 212.5 -19t225.5 -69q186 -69 275 -93.5t190 -24.5q118 0 186.5 39t116.5 106h59q-66 -161 -173 -241.5t-240 -80.5q-30 0 -61.5 5t-56.5 11.5t-56 19.5t-49.5 22t-47.5 26.5t-40 24.5t-38 25l-30 20q-11 7 -59.5 40t-69 45.5t-69 38.5t-83 37
t-85 21t-101.5 10q-57 0 -96.5 -18.5t-86.5 -56.5q-39 -31 -61 -31q-17 0 -27 9t-10 24q0 7 2 13.5t6.5 12t10 10.5t15 10t17.5 9.5t22 10t24.5 10t29 12t31.5 12.5q63 26 237 98q-205 9 -321.5 156.5t-116.5 376.5q0 146 60.5 302t158.5 281.5t233.5 207t274.5 81.5
q185 0 308.5 -145.5t123.5 -388.5q0 -187 -81 -370.5t-216 -313.5t-288 -170zM397 418q0 -29 1 -51t6.5 -66.5t15 -78t30 -73.5t48.5 -66.5t72.5 -44.5t99.5 -18q104 0 195.5 74t153 185.5t106 243.5t65 248.5t20.5 199.5q0 180 -75 272t-193 92q-84 0 -162 -48.5
t-136 -127.5t-106 -177.5t-78 -202t-46.5 -196.5t-16.5 -165z" />
    <glyph glyph-name="R" unicode="R" horiz-adv-x="1280" 
d="M1272 113l22 -47q-110 -84 -227 -84q-48 0 -85.5 12.5t-61.5 30.5t-41 47t-25 52.5t-12.5 57.5t-5 50.5t-0.5 43.5q0 128 -6 194t-27 105q-23 42 -68 59t-129 17h-49l-121 -391q-30 -98 -30 -119q0 -31 17 -52t43 -29.5t45 -11.5t34 -3h28l-14 -45h-549l15 45
q92 0 138 29.5t70 107.5l285 932q31 105 31 125q0 43 -39 57.5t-109 14.5l15 45h354q157 0 229 -9.5t144 -48.5q69 -38 113 -102.5t44 -155.5q0 -27 -4 -54t-17.5 -64t-35 -69t-61 -65t-92.5 -57q-64 -29 -135 -42.5t-187 -16.5q53 -21 94.5 -48t68.5 -52.5t47 -61t30 -61
t16.5 -64.5t8 -59t3.5 -58q2 -37 3 -52.5t4 -44t7 -40.5t11.5 -30t18.5 -25t26.5 -13t36.5 -6q52 0 129 56zM758 1311l-189 -615q188 -7 318 43q233 89 233 328q0 173 -151 223q-81 27 -211 21z" />
    <glyph glyph-name="S" unicode="S" horiz-adv-x="960" 
d="M147 455h41q3 -92 24 -166t54 -122t75.5 -80.5t86.5 -46t90 -13.5q98 0 180 68.5t82 185.5q0 48 -12.5 89.5t-40 79t-47.5 59t-57 56.5q-54 51 -79.5 76t-65 71.5t-58 82t-33 85.5t-14.5 103q0 100 50.5 192t136 148.5t181.5 56.5q171 0 256 -172q36 59 62 148h41
l-53 -398h-46q-1 95 -21.5 166.5t-49 110t-66.5 62.5t-67.5 31t-59.5 7q-98 0 -164.5 -77.5t-66.5 -186.5q0 -27 5.5 -52.5t12 -45t24.5 -45t28.5 -39.5t40.5 -44t44 -43t54 -50q50 -45 81 -78t65 -81t50.5 -104t16.5 -120q0 -96 -40 -174.5t-101.5 -124.5t-129 -70.5
t-129.5 -24.5q-181 0 -313 179q-47 -63 -68 -138h-49z" />
    <glyph glyph-name="T" unicode="T" horiz-adv-x="1343" 
d="M1096 1270l-301 -989q-5 -18 -13.5 -46t-12 -40t-6.5 -27.5t-3 -26.5q0 -31 18 -52.5t45 -29.5t45 -11t33 -3h35l-14 -45h-580l14 45h31q98 0 141 44.5t80 168.5l312 1024q-217 14 -281 14q-252 0 -252 -84q0 -13 10 -43q1 -2 4 -10.5t5 -17t2 -15.5q0 -27 -19.5 -46
t-52.5 -19q-40 0 -61 31t-21 65q0 31 20.5 68.5t69.5 70.5q89 60 320 60q48 0 434 -23q332 -24 360 -24q51 0 77.5 9t34.5 20.5t15 37.5q9 35 41 35q47 0 47 -53q0 -31 -21 -53t-47 -32.5t-65 -16.5t-57.5 -6.5t-40.5 -0.5q-15 0 -346 21z" />
    <glyph glyph-name="U" unicode="U" horiz-adv-x="1449" 
d="M1280 1356h432l-14 -45q-95 -3 -149 -48.5t-83 -146.5l-26 -92l-187 -610q-13 -43 -21.5 -68t-31.5 -77t-47 -85.5t-66.5 -77t-91 -69t-119.5 -44t-153 -18.5q-222 0 -343.5 84.5t-121.5 245.5q0 64 29 154l194 641q3 12 11 37t12 40t8 33t4 29q0 72 -129 72h-31l15 45
h553l-15 -45h-28q-100 0 -140.5 -41t-83.5 -185l-190 -632q-3 -12 -11 -39t-11.5 -39t-8 -32t-6.5 -36.5t-2 -32.5q0 -117 88 -183t217 -66q69 0 128.5 14t103 37t81.5 59.5t63.5 72.5t49 86t38 90.5t30.5 94.5l182 602q29 102 29 123q0 40 -36 66.5t-136 40.5z" />
    <glyph glyph-name="V" unicode="V" horiz-adv-x="1216" 
d="M520 -33h-80l62 1055q2 35 4.5 79t4 71t1.5 30q0 66 -38 87.5t-142 21.5l6 45h545l-6 -45q-40 0 -70.5 -5t-51.5 -12t-35 -21.5t-22 -26t-13 -34.5t-6 -38t-3 -44l-47 -925l563 846q2 3 10.5 15.5t11.5 16.5t10.5 15.5t11 17t9.5 16.5t9 17t7 16t6 17t3.5 15t1.5 15
q0 31 -15 51.5t-44.5 30t-51 12.5t-57.5 5l12 45h440l-14 -45q-38 -2 -72.5 -17.5t-59.5 -34.5t-58 -59.5t-53.5 -69.5t-59.5 -88z" />
    <glyph glyph-name="W" unicode="W" horiz-adv-x="1898" 
d="M1229 -33h-62l27 1123l-741 -1123h-60l60 1168l2 69q2 56 -28.5 81t-119.5 26l12 45h486l-14 -45q-40 -2 -64.5 -4.5t-44 -12t-28.5 -19t-16 -34.5t-9 -48t-4 -69l-50 -897l746 1129h49l-29 -1133l531 834q41 65 54 93t13 54q0 30 -12.5 51t-37.5 32t-44 15.5t-49 8.5
l12 45h410l-14 -45q-27 -2 -45 -7t-50.5 -22t-69 -57.5t-77.5 -104.5z" />
    <glyph glyph-name="X" unicode="X" horiz-adv-x="1323" 
d="M883 750l153 -541q24 -85 40 -108q30 -44 114 -53q24 -2 55 -3l-10 -45h-530l12 45q32 0 51 1.5t48 8t43.5 24t14.5 44.5q0 26 -30 127l-103 362l-319 -315q-96 -96 -96 -158q0 -84 157 -94l-14 -45h-477l14 45q80 10 156.5 68t218.5 200l348 351l-143 514
q-12 41 -19 59.5t-18 37t-29.5 24t-43 9t-68.5 3.5l6 45h491l-4 -45q-31 0 -49.5 -1.5t-45.5 -8t-40.5 -23t-13.5 -43.5q0 -21 16 -82l100 -354l289 286q54 54 73 84.5t19 57.5q0 72 -135 84l12 45h424l-14 -45q-68 -4 -122.5 -44.5t-199.5 -185.5z" />
    <glyph glyph-name="Y" unicode="Y" horiz-adv-x="1130" 
d="M276 950h-45q16 42 37 90t56.5 111t72.5 112t85 83t93 34q66 0 114 -80.5t48 -238.5q0 -74 -15.5 -207t-45.5 -268q16 38 41.5 92.5t75 153t106 187.5t120 174t132 136t127.5 51t97 -32.5t38 -83.5q0 -31 -18.5 -54.5t-46.5 -23.5q-21 0 -41.5 14.5t-20.5 50.5
q0 20 -2 32.5t-13 25t-32 12.5q-51 0 -136 -90t-171 -236q-196 -335 -256 -532l-70 -232q-20 -77 -20 -88q0 -31 16.5 -52.5t43 -30.5t45 -12t34.5 -3h59l-14 -45h-629l15 45h61q54 0 92 14t61.5 44t37 61t26.5 82l84 313q20 74 42 236.5t22 259.5q0 237 -70 237
q-37 0 -89.5 -69t-91 -145.5t-55.5 -127.5z" />
    <glyph glyph-name="Z" unicode="Z" horiz-adv-x="1216" 
d="M1266 -137h45q-27 -165 -108.5 -252.5t-198.5 -87.5q-107 0 -181 70t-157 229q-25 48 -33.5 63t-34.5 59.5t-40.5 62.5t-42 49.5t-50 45.5t-53 25.5t-62.5 11.5q-15 0 -32.5 -2.5t-52 -12.5t-64 -38.5t-45.5 -71.5q-7 -19 -12.5 -30.5t-19.5 -24t-32 -12.5
q-20 0 -29.5 15t-9.5 26q0 16 23 57t63 90q127 154 389 363q112 89 153 122t137 111t144.5 120.5t118 105t117.5 113t86 97.5q-5 -1 -25.5 -6.5t-33.5 -8.5t-38.5 -6t-53.5 -3q-98 0 -240 33q-86 22 -176 22q-53 0 -95.5 -14t-67.5 -36t-38.5 -42t-19.5 -39h-50
q33 85 80 148.5t97.5 98t96.5 50.5t87 16q46 0 95.5 -17.5t84.5 -37.5t100 -63q91 -58 140 -58q43 0 71 27t37 61q21 88 64 88q14 0 26.5 -9.5t12.5 -35.5q0 -31 -44 -97.5t-80 -109t-61 -69.5q-110 -120 -227.5 -221.5t-464.5 -378.5q-13 -9 -74.5 -59t-145.5 -125
t-128 -125q3 1 18.5 8t23.5 10t26 9.5t32.5 9.5t35.5 5.5t42 2.5q40 0 78.5 -10t68 -22.5t63 -40t54.5 -47t53.5 -59t49 -61.5t49.5 -68q28 -38 47.5 -61t56.5 -58t81.5 -53t94.5 -18q49 0 84 15.5t53.5 44.5t26.5 51t15 55z" />
    <glyph glyph-name="bracketleft" unicode="[" horiz-adv-x="681" 
d="M485 -395l-12 -39h-391l493 1747h398l-12 -39h-326l-473 -1669h323z" />
    <glyph glyph-name="backslash" unicode="\" horiz-adv-x="1067" 
d="M340 1380l698 -1413h-120l-699 1413h121z" />
    <glyph glyph-name="bracketright" unicode="]" horiz-adv-x="681" 
d="M295 1274l12 39h393l-493 -1747h-397l12 39h325l471 1669h-323z" />
    <glyph glyph-name="asciicircum" unicode="^" horiz-adv-x="874" 
d="M565 1356l428 -717h-114l-334 559l-332 -559h-115l428 717h39z" />
    <glyph glyph-name="underscore" unicode="_" horiz-adv-x="1024" 
d="M1036 -256h-1050v102h1050v-102z" />
    <glyph glyph-name="grave" unicode="`" horiz-adv-x="681" 
d="M621 975l-224 190q-51 43 -66.5 64.5t-15.5 42.5q0 26 20 42.5t42 16.5q32 0 58 -26.5t63 -87.5l143 -226z" />
    <glyph glyph-name="a" unicode="a" horiz-adv-x="854" 
d="M733 831h121l-178 -585q-39 -127 -39 -154q0 -41 37 -41q36 0 79.5 47.5t77.5 110.5h43q-47 -101 -117.5 -169.5t-127.5 -68.5q-52 0 -75.5 38t-23.5 83q0 41 25 121q-17 -32 -47 -71t-69 -78.5t-87.5 -66t-91.5 -26.5q-67 0 -118.5 58t-51.5 164q0 114 52.5 236t128 212
t162 148.5t153.5 58.5q47 0 80 -27t43 -80zM209 162q0 -25 2 -42.5t9 -41.5t25 -36.5t46 -12.5q50 0 124.5 65t125.5 166q58 115 97.5 248t39.5 186q0 46 -23 73.5t-61 27.5q-64 0 -135.5 -74.5t-125 -177t-89 -209t-35.5 -172.5z" />
    <glyph glyph-name="b" unicode="b" horiz-adv-x="854" 
d="M162 330l246 811q30 103 30 112q0 21 -12 31.5t-25.5 12t-42.5 1.5h-32l12 41q159 3 242 37h18l-221 -729q28 41 51.5 70t57.5 62.5t72 51t77 17.5q87 0 134.5 -70t47.5 -164q0 -156 -77.5 -307t-196 -243.5t-234.5 -92.5q-83 0 -134.5 51t-51.5 130q0 48 39 178z
M229 109q0 -45 21.5 -69t62.5 -24q61 0 122 50t107.5 126.5t83.5 165t56.5 169.5t19.5 135q0 133 -88 133q-59 0 -143 -92t-143 -244q-31 -78 -65 -190t-34 -160z" />
    <glyph glyph-name="c" unicode="c" horiz-adv-x="655" 
d="M553 285h41q-56 -158 -145 -236t-177 -78q-75 0 -126.5 59t-51.5 173q0 95 31 192.5t82 177t112 142.5t125 98t117 35q57 0 91 -36.5t34 -80.5q0 -36 -17 -54t-38 -18q-23 0 -42.5 19t-19.5 53q0 68 -45 68q-53 0 -111.5 -75t-101 -179t-70.5 -212.5t-28 -176.5
q0 -60 31 -93.5t69 -33.5q69 0 136.5 78.5t103.5 177.5z" />
    <glyph glyph-name="d" unicode="d" horiz-adv-x="854" 
d="M805 182h49q-49 -86 -115.5 -148.5t-124.5 -62.5q-123 0 -104 179l-25 -28q-25 -29 -36.5 -40.5t-40.5 -37.5t-50 -38.5t-51 -23.5t-57 -11q-58 0 -96.5 35.5t-53 81.5t-14.5 98q0 113 46.5 234.5t117 214.5t157 153t162.5 60q40 0 74 -23t53 -61l121 403q23 85 23 86
q0 32 -20.5 38.5t-88.5 6.5l12 41q133 0 240 39l18 -2l-352 -1155q-26 -93 -26 -129q0 -49 36 -49q27 0 70.5 42.5t75.5 96.5zM201 139q0 -14 1.5 -26.5t8 -36t24 -37.5t44.5 -14q67 0 148 93t142 242q35 86 67 199t32 141q0 38 -25.5 66.5t-64.5 28.5q-64 0 -135 -77.5
t-122.5 -184t-85.5 -217t-34 -177.5z" />
    <glyph glyph-name="e" unicode="e" 
d="M541 256h49q-56 -128 -142 -206.5t-184 -78.5q-72 0 -128 52.5t-56 162.5q0 115 48 237.5t118 214t152 151t149 59.5q36 0 60.5 -14.5t35.5 -37t15 -40.5t4 -35q0 -61 -36 -120t-99.5 -109t-136.5 -90.5t-161 -77.5q-30 -88 -30 -166q0 -36 10 -62.5t22.5 -39t29.5 -19
t25 -7.5t15 -1q69 0 131 62t109 165zM244 375q115 50 225.5 154.5t110.5 189.5q0 42 -19.5 59t-44.5 17q-56 0 -136 -108.5t-136 -311.5z" />
    <glyph glyph-name="f" unicode="f" horiz-adv-x="512" 
d="M649 819l-14 -45h-174l-156 -584q-13 -49 -22 -81.5t-27 -90.5t-34.5 -99.5t-43 -97t-52.5 -94.5t-62.5 -80.5t-75 -67t-87.5 -42t-102 -16.5q-78 0 -149.5 37t-71.5 100q0 34 21 54t49 20q34 0 53.5 -22t19.5 -52q0 -6 -3 -20.5t-3 -22.5q0 -9 5.5 -19t25.5 -20t51 -10
q126 0 210.5 145t178.5 496l152 567h-197l15 45h196q14 56 26.5 101t34.5 105.5t45.5 106.5t59 94t76 79t95 51t116.5 20q78 0 128 -35t50 -79q0 -17 -11 -35.5t-38 -18.5q-16 0 -29.5 7.5t-20 15t-19 24.5t-17.5 23q-21 26 -37.5 37.5t-40.5 11.5q-160 0 -246 -326
l-49 -182h174z" />
    <glyph glyph-name="g" unicode="g" horiz-adv-x="724" 
d="M305 -125l-78 19q-39 9 -68 19t-59 27t-46.5 42.5t-16.5 58.5q0 24 12 51t38 55.5t76.5 53.5t117.5 39q-129 72 -129 231q0 82 41.5 167.5t122 146.5t176.5 61q38 0 68.5 -10.5t41 -18.5t29.5 -24q57 43 83 50q14 5 29 5q31 0 56.5 -19.5t25.5 -52.5q0 -17 -13 -33
t-34 -16t-43 25l-7.5 10t-6.5 8.5t-5.5 6t-5.5 4.5t-6 2t-8 1q-15 0 -34 -26q38 -66 38 -156q0 -151 -89.5 -260t-258.5 -131q-114 -14 -165.5 -46.5t-51.5 -70.5q0 -35 29.5 -50.5t99.5 -31.5l207 -49q193 -47 193 -194q0 -44 -21.5 -86.5t-66.5 -82t-126 -63.5t-188 -24
q-183 0 -282 58.5t-99 147.5q0 57 46 105.5t87 48.5q14 0 24.5 -7t10.5 -20q0 -11 -16.5 -28.5t-32.5 -42.5t-16 -54q0 -62 67.5 -112.5t202.5 -50.5q87 0 149.5 17t92 44.5t41.5 53t12 51.5q0 23 -9 42t-29 33.5t-39 25t-52.5 20.5t-55 15.5t-59.5 14.5zM258 381
q0 -63 34.5 -93t78.5 -30q48 0 88.5 37.5t64.5 90.5t40.5 114t23 104t6.5 64q0 137 -96 137q-50 0 -97 -49t-77 -118t-48 -139t-18 -118z" />
    <glyph glyph-name="h" unicode="h" horiz-adv-x="854" 
d="M160 -14h-119l350 1153q31 100 31 114q0 21 -12 31.5t-25.5 12t-42.5 1.5h-33l13 41q143 0 243 37h17l-228 -753q72 91 158 158t172 67q72 0 102.5 -33.5t30.5 -81.5q0 -40 -29 -123l-139 -401q-31 -87 -31 -111q0 -23 11 -38t28 -15q44 0 90.5 53t69.5 101h49
q-52 -103 -122 -165.5t-132 -62.5q-45 0 -78.5 33t-33.5 92q0 61 39 166l102 279q59 154 59 198q0 24 -16 38t-41 14q-42 0 -93.5 -33.5t-106.5 -97t-108.5 -168.5t-92.5 -234z" />
    <glyph glyph-name="i" unicode="i" horiz-adv-x="491" 
d="M465 219h49q-51 -100 -122.5 -174t-145.5 -74q-17 0 -35 5.5t-38 18.5t-33 41t-13 68q0 18 4.5 41.5t8.5 36.5t13 39t9 27l135 364q41 111 41 131q0 18 -10.5 28.5t-26.5 10.5q-36 0 -87.5 -55t-82.5 -115h-47q65 125 134.5 180.5t123.5 55.5q49 0 78 -33t29 -84
q0 -8 -1 -16.5t-1.5 -15.5t-3 -17.5t-4.5 -17t-5.5 -19t-5.5 -19t-7.5 -21t-8 -21t-9 -23.5t-8.5 -24l-96 -261q-53 -144 -53 -176t15.5 -43.5t29.5 -11.5q40 0 89.5 53.5t84.5 120.5zM391 1288q0 36 26 62t62 26t62 -26t26 -62t-26 -62t-62 -26t-62 26t-26 62z" />
    <glyph glyph-name="j" unicode="j" horiz-adv-x="417" 
d="M111 582h-45q32 100 100.5 183t136.5 83q45 0 77 -38t32 -95q0 -24 -6 -59t-12 -60.5t-14.5 -56.5t-8.5 -33l-125 -461q-12 -44 -19 -69t-22.5 -74t-29 -80t-35.5 -76t-44 -74.5t-53 -62t-64 -52t-75.5 -32t-89.5 -12.5q-79 0 -143 40t-64 101q0 28 16.5 46.5t42.5 18.5
q33 0 48 -21.5t24 -62.5q17 -77 88 -77q39 0 70.5 12.5t59.5 50t46 65t42.5 101t36 112.5t40.5 141l6 21l135 486q3 11 13 48t15 56.5t10 45.5t5 40q0 16 -3.5 26t-9.5 13.5t-10 4.5t-10 1q-73 0 -161 -200zM365 1288q0 36 26 62t62 26t62 -26t26 -62t-26 -62t-62 -26
t-62 26t-26 62z" />
    <glyph glyph-name="k" unicode="k" horiz-adv-x="788" 
d="M770 229h43q-5 -20 -10 -37.5t-17 -51.5t-29 -60t-40 -52.5t-56 -41.5t-71 -15q-127 0 -127 162q0 31 8 121t8 123q0 38 -18 67t-58 29q-65 0 -97.5 -49t-72.5 -182l-77 -256h-119l362 1190q19 59 19 77q0 21 -11 31.5t-24 12t-43 1.5h-37l12 41q152 0 242 37h23
l-279 -909q23 24 71 74.5t74.5 78t69 69.5t72 65t65 47.5t66.5 35.5t59 11q35 0 62.5 -17.5t27.5 -48.5q0 -25 -18 -42t-41 -17q-13 0 -49 18q-31 17 -51 17q-85 0 -320 -254q20 4 33 4q46 0 80 -26.5t51 -62.5t27 -86t12 -82.5t2 -66.5q0 -69 10 -100t43 -31t68.5 47.5
t54.5 128.5z" />
    <glyph glyph-name="l" unicode="l" horiz-adv-x="491" 
d="M467 240h45q-18 -46 -40.5 -87t-55 -85t-76 -70.5t-90.5 -26.5q-57 0 -89 37.5t-32 91.5q0 61 29 158l264 858q35 105 35 137q0 13 -4.5 22t-10 13.5t-18 6.5t-21.5 2.5t-28 0.5h-37l12 41q151 0 246 37h22l-342 -1126q-36 -119 -36 -158q0 -33 13.5 -48t33.5 -15
q40 0 91.5 58t88.5 153z" />
    <glyph glyph-name="m" unicode="m" horiz-adv-x="1300" 
d="M1264 188h43q-42 -91 -110 -154t-136 -63q-40 0 -75.5 30t-35.5 91q0 37 23 113l133 385q33 97 33 121q0 31 -16.5 47t-41.5 16q-90 0 -194 -135q-127 -165 -223 -479l-54 -174h-118l161 536q2 6 5 16q36 129 38 173q0 31 -14.5 45t-32.5 14q-90 0 -229 -207
q-45 -68 -88 -168.5t-109 -310.5l-30 -98h-119l186 614q1 4 7 23.5t10 35.5t8 37t4 35q0 33 -19 33q-13 0 -32.5 -11.5t-54 -51t-68.5 -101.5h-45q52 107 120 170.5t121 63.5q32 0 58 -24t26 -73q0 -65 -63 -256q73 148 170.5 251.5t179.5 103.5q50 0 82.5 -34.5
t32.5 -101.5q0 -33 -16 -106t-33 -113q24 49 51 94.5t64 94.5t74 84.5t82 58.5t89 23q55 0 96 -38t41 -106q0 -58 -28 -139l-121 -354q-3 -8 -13 -38t-15 -49t-5 -34q0 -17 10 -31t27 -14q30 0 74.5 40.5t89.5 114.5z" />
    <glyph glyph-name="n" unicode="n" horiz-adv-x="874" 
d="M825 188h52q-115 -217 -250 -217q-20 0 -42.5 6.5t-45.5 33.5t-23 71q0 28 9.5 62t37.5 116l107 303q43 125 43 162q0 22 -13 41.5t-47 19.5q-84 0 -200 -176q-122 -185 -207 -465l-49 -159h-123l182 589q2 7 10.5 33.5t15 46.5t12 43.5t5.5 34.5q0 33 -27 33
q-29 0 -67 -42t-72 -103h-47q63 115 124.5 171t113.5 56q24 0 40.5 -10t24 -26.5t10 -30.5t2.5 -29q0 -58 -65 -271q183 367 350 367q54 0 95.5 -36t41.5 -107q0 -46 -41 -168l-120 -361q-29 -90 -29 -102q0 -17 11 -29t26 -12q62 0 155 155z" />
    <glyph glyph-name="o" unicode="o" horiz-adv-x="747" 
d="M100 262q0 139 59.5 275.5t158 223.5t202.5 87q83 0 144 -72t61 -213q0 -101 -32 -206.5t-85.5 -191t-132.5 -140t-166 -54.5q-43 0 -77.5 14.5t-55.5 35.5t-36.5 52t-23 56.5t-11.5 57.5t-4.5 45.5t-0.5 29.5zM207 147q0 -48 26 -89.5t80 -41.5q61 0 114 58.5
t86.5 142.5t58.5 178t35.5 164t10.5 103q0 72 -30.5 106.5t-73.5 34.5q-70 0 -131.5 -79.5t-98 -190.5t-57 -216t-20.5 -170z" />
    <glyph glyph-name="p" unicode="p" horiz-adv-x="854" 
d="M113 412h-45l188 303q47 76 68 112t49 100t51 142l14 47h119q-44 -162 -154 -469q66 101 134 151t127 50q75 0 126.5 -67t51.5 -175q0 -102 -38.5 -214.5t-100.5 -205t-148.5 -153t-175.5 -60.5q-112 0 -137 105l-129 -422q-21 -56 -4.5 -79t94.5 -23h41l-13 -41h-417
l12 41h41q60 0 84 18.5t41 75.5l235 774q78 248 140 405q-24 -60 -254 -415zM338 391l-41 -133q-27 -100 -27 -127q0 -44 25 -80.5t78 -36.5q64 0 123 55.5t99.5 137.5t71.5 175t45.5 168.5t14.5 117.5q0 59 -21 93t-61 34q-35 0 -81.5 -29.5t-84.5 -73.5q-34 -39 -62 -93
t-40.5 -89.5t-32.5 -99.5q-4 -13 -6 -19z" />
    <glyph glyph-name="q" unicode="q" horiz-adv-x="854" 
d="M752 836h118l-348 -1149q-11 -35 -16 -56.5t-1.5 -37t8 -23t25 -11.5t36.5 -4.5t55 -0.5l-15 -41h-401l12 41h47h16h16t14 1t13.5 3t11.5 5.5t12 9.5t10 14t11 19t9 25l156 512q-114 -172 -250 -172q-34 0 -65 13t-59 40.5t-44.5 77.5t-16.5 117q0 114 49.5 231.5
t122 203t156.5 140t152 54.5q56 0 91.5 -34t43.5 -83zM614 385l58 197q18 65 18 100q0 48 -26.5 84.5t-73.5 36.5q-66 0 -135.5 -73.5t-119.5 -177.5t-82 -216t-32 -191q0 -51 23.5 -90t64.5 -39q91 0 174 102t131 267z" />
    <glyph glyph-name="r" unicode="r" horiz-adv-x="598" 
d="M127 578h-43q17 44 38.5 85.5t51 86t67 71.5t74.5 27t60.5 -34t23.5 -105q0 -30 -6 -71.5t-11.5 -67t-17 -72.5t-12.5 -52q5 12 27.5 64.5t34 77.5t35 73t41.5 74t42 56t48 43.5t49 13.5q34 0 56 -22t22 -54q0 -30 -18 -48.5t-42 -18.5q-23 0 -45 22q-2 2 -8 8.5t-8 8
t-7 4t-10 2.5q-35 0 -101.5 -133.5t-120.5 -275t-89 -253.5l-33 -102h-119l136 450q2 8 10.5 36.5t11.5 38t10.5 34.5t10 36.5t8 32t8 32t5.5 27t4 26.5t1 20q0 59 -30 59q-37 0 -80.5 -64t-73.5 -136z" />
    <glyph glyph-name="s" unicode="s" horiz-adv-x="641" 
d="M535 221q0 -43 -16.5 -85.5t-48.5 -80t-88.5 -61t-129.5 -23.5q-56 0 -98.5 15t-64.5 39t-32 46.5t-10 43.5q0 23 13 45t42 22q54 0 54 -57q0 -10 -4.5 -28.5t-4.5 -22.5q0 -29 32 -45.5t71 -16.5q84 0 131 50t47 112q0 55 -33 119l-98 184q-37 71 -37 137q0 99 77 164.5
t173 65.5q72 0 122 -36.5t50 -76.5q0 -22 -12 -38.5t-33 -16.5t-30.5 14.5t-16.5 44.5q-3 14 -6.5 22t-12.5 20.5t-26.5 19t-42.5 6.5q-55 0 -98.5 -32t-43.5 -83q0 -64 54 -158l73 -131q48 -92 48 -178z" />
    <glyph glyph-name="t" unicode="t" horiz-adv-x="491" 
d="M596 819l-14 -45h-150l-180 -594q-19 -62 -19 -92q0 -22 12.5 -36.5t28.5 -14.5q45 0 100 73.5t99 168.5h45q-19 -46 -45 -92.5t-63.5 -98.5t-84 -84.5t-92.5 -32.5q-48 0 -79 34.5t-31 92.5q0 57 22 123l168 553h-137l12 45h138l92 303h121l-93 -303h150z" />
    <glyph glyph-name="u" unicode="u" horiz-adv-x="874" 
d="M834 207h40q-7 -22 -16 -43.5t-30.5 -59t-45 -64.5t-60.5 -48t-77 -21q-98 0 -98 109q0 21 3 44.5t10.5 54.5t12 49.5t15.5 58t14 49.5q-15 -36 -37 -77.5t-57 -94.5t-73 -94.5t-86 -70t-95 -28.5q-60 0 -97.5 37.5t-37.5 100.5q0 61 45 188l115 330q3 9 13.5 40t16.5 50
t6 26q0 35 -26 35q-63 0 -139 -170h-48q41 108 105.5 174t128.5 66q34 0 64 -22.5t30 -75.5q0 -35 -37 -142l-125 -370q-39 -112 -39 -140q0 -65 60 -65q34 0 79.5 36t96.5 113q137 208 262 594l18 58h119l-174 -574q-43 -146 -43 -170q0 -9 2 -18.5t12 -20t27 -10.5
q76 0 146 166z" />
    <glyph glyph-name="v" unicode="v" horiz-adv-x="724" 
d="M158 692h-41q51 156 129 156q16 0 30 -7t26.5 -22.5t17.5 -22.5t14 -22q14 -29 39 -29t37 41q15 48 32 58q8 4 17 4q7 0 14.5 -5.5t7.5 -17.5q0 -15 -10 -38.5t-28 -56t-21 -38.5q-39 -73 -59.5 -115t-55 -120.5t-51 -147.5t-16.5 -129q0 -76 31 -111.5t67 -35.5
q81 0 162 92t128.5 217t47.5 227q0 67 -29 138q-18 45 -18 71q0 27 13.5 48.5t39.5 21.5q28 0 48 -33.5t20 -97.5q0 -78 -18 -173.5t-56 -197t-90 -185t-127.5 -137t-161.5 -53.5q-76 0 -126 47.5t-50 137.5q0 74 37.5 168t82.5 164.5t92 141t56 91.5q-41 -27 -74 -27
q-14 0 -25 3t-15 5.5t-11 9t-8 7.5q-28 22 -45 22q-31 0 -53 -49z" />
    <glyph glyph-name="w" unicode="w" horiz-adv-x="1280" 
d="M152 694h-43q11 49 30 86q30 62 74 62q18 0 33.5 -7.5t22.5 -14.5t26 -27t26 -27t20 -15t26 -8q5 0 9.5 1.5t8 3t6.5 5t5 6t4 7t2.5 7t2 6.5t1.5 5q2 5 5.5 18t5.5 18.5t7 13.5t12 11t17 3q15 0 23.5 -8.5t8.5 -20.5t-55 -108q-69 -117 -115 -219.5t-63 -171.5
t-22 -102.5t-5 -59.5q0 -42 21.5 -81.5t72.5 -39.5q42 0 94 26.5t94.5 62.5t69.5 62.5t35 36.5q-4 28 -4 54q0 116 34 247t95.5 226.5t128.5 95.5q41 0 58.5 -34t17.5 -79q0 -171 -200 -427q-5 -6 -7 -9q7 -111 45.5 -188.5t108.5 -77.5q77 0 158.5 91.5t130.5 212t49 212.5
q0 55 -33 127q-29 59 -29 104q0 30 16.5 49t37.5 19q5 0 10.5 -1t17.5 -10t21 -25t16.5 -51t7.5 -83q0 -81 -19.5 -175t-59.5 -188t-93 -171t-127.5 -125t-156.5 -48q-45 0 -83 19.5t-59.5 44.5t-38.5 57.5t-22 49t-8 28.5q-89 -93 -182 -146t-175 -53q-39 0 -70 12.5
t-48.5 31.5t-29.5 44t-16 47t-4 44q0 108 72.5 241.5t208.5 321.5q-37 -25 -84 -25q-37 0 -74 37q-18 16 -30 16q-7 0 -13.5 -3t-10 -6.5t-7 -10t-5 -10t-3.5 -10t-2 -7.5zM725 354q31 40 65 92.5t70.5 140t36.5 154.5q0 62 -37 62q-23 0 -48.5 -33.5t-47 -90t-33 -143
t-6.5 -182.5z" />
    <glyph glyph-name="x" unicode="x" horiz-adv-x="831" 
d="M219 602h-43q18 51 45 103t68 97.5t78 45.5q14 0 25 -4.5t20.5 -16.5t15.5 -22t14 -34t12 -38.5t13 -48.5l43 -164l160 201q54 69 85.5 98t65.5 29q45 0 45 -55q0 -28 -13 -84.5t-26 -87.5h-43q35 111 35 149q0 10 -5 17.5t-11 7.5q-12 0 -33 -23t-51 -61q-5 -7 -8 -11
l-187 -231l60 -244q18 -70 30 -105t19 -42.5t16 -7.5q19 0 44 45t44 110h43q-32 -114 -79 -184t-99 -70q-19 0 -34 6t-28 23.5t-20.5 30t-17.5 44.5t-14 47t-15 56l-43 170l-180 -235q-63 -82 -94.5 -112t-61.5 -30q-28 0 -38.5 21t-10.5 43q0 65 53 164h41
q-47 -104 -47 -146q0 -28 17 -28q24 0 90 88l219 288l-66 267q-13 52 -19.5 67t-19.5 15q-36 0 -94 -148z" />
    <glyph glyph-name="y" unicode="y" horiz-adv-x="747" 
d="M139 575h-41q6 75 25 130t38.5 81.5t45 41.5t38.5 17.5t25 2.5q32 0 57.5 -19.5t53.5 -60.5q51 -73 51 -287q0 -248 -57 -448q40 45 84.5 107t92.5 140.5t79 163t31 150.5q0 30 -11 63t-22 50q-31 41 -31 75q0 26 14.5 46t38.5 20q40 0 61 -45.5t21 -116.5
q0 -132 -71 -288t-171.5 -287.5t-213.5 -250.5t-194 -189t-116 -91q-132 -80 -246 -80q-57 0 -92 19.5t-35 54.5q0 31 27.5 48.5t56.5 17.5q21 0 72 -15q59 -18 105 -18q56 0 122.5 37.5t182.5 156.5q36 36 59 75.5t32 65.5t19 68q49 201 49 461q0 139 -24.5 215t-63.5 76
q-28 0 -48 -28.5t-30 -68t-14 -90.5z" />
    <glyph glyph-name="z" unicode="z" horiz-adv-x="874" 
d="M324 639h-37q10 31 19.5 54t28 54.5t39.5 51.5t54.5 34.5t73.5 14.5q37 0 69.5 -12t44.5 -20t33 -25q4 -3 15.5 -12t18 -13.5t18 -11t23.5 -9t26 -2.5q55 0 73 60q5 14 8 21t12.5 15.5t22.5 8.5t20 -8.5t7 -18.5q0 -64 -262 -289l-262 -221q-54 -46 -86 -74.5t-75 -74.5
t-67 -84q3 2 10 6t10 5.5l9 4.5t10.5 4t11.5 3t13.5 3t16 1.5t20.5 0.5q59 0 121.5 -32.5t142.5 -93.5q40 -30 62 -44.5t55.5 -27t66.5 -12.5q34 0 58.5 11t36.5 24t19.5 34.5t8.5 32t2 27.5h35q1 -122 -59 -193.5t-148 -71.5q-34 0 -63.5 9.5t-50 21.5t-48.5 40.5t-42.5 47
t-47.5 60.5q-34 45 -52.5 66t-48 38.5t-61.5 17.5q-60 0 -98 -38q-15 -15 -22 -32.5t-13 -25.5t-22 -8q-6 0 -11.5 9t-5.5 22q0 73 108 192t310 285q184 148 291 244q-37 -11 -68 -11q-39 0 -124 7.5t-93 7.5q-44 0 -71.5 -4t-44 -17t-22.5 -21t-19 -32z" />
    <glyph glyph-name="braceleft" unicode="{" horiz-adv-x="980" 
d="M305 416v39q110 21 168.5 81t58.5 132q0 51 -24 151q-23 98 -23 162q0 61 24 124t69 120t119.5 98t166.5 53v-39q-106 -20 -169.5 -81.5t-63.5 -159.5q0 -40 18 -152q23 -106 23 -170q0 -28 -6 -57.5t-24.5 -69.5t-48.5 -76t-83 -72t-123 -61q74 -30 129 -69.5t84 -75.5
t46 -76.5t21.5 -66.5t4.5 -52q0 -52 -23 -170q-16 -88 -16 -149q0 -98 62.5 -160t168.5 -88v-35q-173 24 -275 139t-102 252q0 64 23 158q0 2 4.5 22t9 41t8 47.5t3.5 43.5q0 8 -0.5 16t-5 28t-12.5 37t-25.5 39t-41 39t-61 33t-84.5 25z" />
    <glyph glyph-name="bar" unicode="|" horiz-adv-x="1044" 
d="M549 1380h110v-1884h-110v1884z" />
    <glyph glyph-name="braceright" unicode="}" horiz-adv-x="980" 
d="M864 455v-39q-110 -21 -168.5 -81t-58.5 -132q0 -48 25 -152q22 -93 22 -162q0 -61 -24 -124t-69 -120t-119.5 -98t-166.5 -53v39q106 20 170 82t64 160q0 32 -19 151q-22 102 -22 170q0 28 5.5 57.5t24.5 69.5t48.5 76t82.5 72t123 61q-74 30 -129 69.5t-83.5 75.5
t-46 76.5t-21.5 66.5t-4 52q0 57 22 170q17 93 17 150q0 98 -62.5 159.5t-169.5 87.5v35q173 -24 275 -139t102 -252q0 -64 -23 -158q0 -2 -4.5 -22t-8.5 -41t-7.5 -47t-3.5 -43q0 -13 1.5 -26.5t13.5 -45.5t34 -56.5t69 -50.5t111 -38z" />
    <glyph glyph-name="asciitilde" unicode="~" horiz-adv-x="1366" 
d="M1268 803h47q-3 -135 -75.5 -211t-174.5 -76q-56 0 -118 20t-255 101q-154 63 -217 63q-42 0 -75.5 -16t-51.5 -35.5t-32 -50t-17.5 -45t-7.5 -35.5h-47q3 59 17 106t33 76.5t45 51t47 31t45.5 15.5t33.5 6.5t18 0.5q29 0 54 -4t110 -32.5t217 -84.5q69 -30 114.5 -45
t64 -18t40.5 -3q28 0 55 8t55.5 26.5t48.5 57t26 93.5z" />
    <glyph glyph-name="uni00A0" unicode="&#xa0;" horiz-adv-x="512" 
 />
    <glyph glyph-name="exclamdown" unicode="&#xa1;" horiz-adv-x="491" 
d="M508 797q0 -44 -31.5 -75.5t-75.5 -31.5t-75 31.5t-31 75.5t31.5 75t74.5 31t75 -31.5t32 -74.5zM285 479h45l-193 -770q-11 -43 -14.5 -56.5t-13.5 -46.5t-17.5 -44.5t-20.5 -28.5t-28 -23t-35 -6q-30 0 -48.5 20.5t-18.5 53.5q0 12 2.5 26.5t8 32t9.5 28.5t11.5 30.5
t9.5 23.5z" />
    <glyph glyph-name="cent" unicode="&#xa2;" horiz-adv-x="917" 
d="M629 840l125 403h43l-121 -395q60 1 96.5 -34.5t36.5 -82.5q0 -36 -18 -54t-39 -18q-23 0 -40 17t-20 55q-1 21 -2.5 29.5t-8.5 19.5t-22 17l-231 -764q70 -6 140 72.5t108 179.5h39q-49 -140 -129.5 -221.5t-175.5 -90.5l-109 -354h-43l109 354q-66 12 -109 68.5
t-43 161.5q0 140 65.5 280.5t160.5 234.5t188 122zM389 45l225 746q-56 -28 -110 -112.5t-89.5 -183.5t-57 -192t-21.5 -147q0 -77 53 -111z" />
    <glyph glyph-name="sterling" unicode="&#xa3;" horiz-adv-x="1622" 
d="M498 207l166 282q64 107 157.5 244.5t167.5 227.5q55 68 115.5 128t142 122.5t176 99.5t187.5 37q86 0 153.5 -32.5t67.5 -88.5q0 -35 -22.5 -60.5t-53.5 -25.5q-26 0 -36.5 15t-22.5 56q-12 37 -47 61.5t-93 24.5q-49 0 -98.5 -18.5t-90 -45.5t-82 -67.5t-71 -75
t-60 -79t-45.5 -68.5t-32 -53q-270 -460 -438 -684h371l-31 -45h-375q-100 -130 -264 -318q62 27 125 27q34 0 65.5 -7t56 -21t43 -27t35.5 -33t25.5 -30.5t19.5 -28.5l11 -17q26 -33 43.5 -51.5t50 -34.5t70.5 -16q98 0 183 73.5t85 151.5q0 26 -8 54t-8 36q0 43 28 63.5
t54 20.5q28 0 40.5 -20.5t12.5 -49.5q0 -91 -76.5 -190.5t-193.5 -166t-226 -66.5q-87 0 -143 41.5t-113 125.5q-41 61 -79 95t-83 34q-53 0 -84 -36q-14 -16 -49.5 -61t-60 -73t-57.5 -61.5t-62 -50.5t-53 -17q-16 0 -28.5 9.5t-12.5 25.5q0 33 42.5 80.5t100.5 89t103 70
t63 37.5q86 130 158 254l51 88h-322l31 45h320z" />
    <glyph glyph-name="currency" unicode="&#xa4;" horiz-adv-x="1048" 
d="M961 356l-62 -63l-135 133q-112 -84 -242 -84t-239 84l-138 -133l-61 63l137 131q-82 119 -82 238q0 129 82 238l-137 133l61 63l138 -133q120 84 239 84q125 0 240 -84l137 133l62 -63l-136 -133q84 -116 84 -238q0 -117 -84 -238zM821 727q0 126 -91 210.5t-206 84.5
q-126 0 -211.5 -87.5t-85.5 -207.5q0 -122 87 -210.5t208 -88.5q123 0 211 88t88 211z" />
    <glyph glyph-name="yen" unicode="&#xa5;" horiz-adv-x="1024" 
d="M588 379h416l-17 -60h-416q-41 -141 -41 -178q0 -31 15 -52t38 -29.5t40 -11.5t32 -3h54l-13 -45h-565l12 45h56q33 0 57 6t51.5 24.5t49 59.5t36.5 103l21 81h-363l17 60h360l33 147h-361l17 60h356l16 78q39 184 39 393q0 31 -2 62t-7.5 74.5t-20 71t-35.5 27.5
q-33 0 -80 -70t-81 -145t-50 -127h-41q13 38 31 83t50.5 109.5t66 115t77.5 86.5t86 36q59 0 102.5 -82t43.5 -235q0 -47 -4 -104t-11.5 -114.5t-13.5 -100.5t-14 -91.5t-9 -56.5q81 224 226 475q178 309 311 309q52 0 86.5 -32t34.5 -84q0 -30 -16 -54t-41 -24
q-19 0 -31.5 8t-17.5 25.5t-6.5 25.5t-2.5 27q0 49 -41 49q-62 0 -192 -193q-68 -103 -148.5 -261.5t-126.5 -280.5h404l-17 -60h-407z" />
    <glyph glyph-name="brokenbar" unicode="&#xa6;" horiz-adv-x="1044" 
d="M549 250h110v-754h-110v754zM549 1380h110v-753h-110v753z" />
    <glyph glyph-name="section" unicode="&#xa7;" horiz-adv-x="854" 
d="M477 717q-108 139 -108 284q0 144 91 246.5t247 102.5q115 0 193.5 -64.5t78.5 -140.5q0 -35 -18.5 -58.5t-49.5 -23.5q-71 0 -80 115q-4 47 -31 78.5t-58.5 43t-63.5 11.5q-102 0 -163.5 -71t-61.5 -157q0 -51 13.5 -97t41.5 -86.5t50 -66t58 -61.5q189 -189 189 -356
q0 -126 -75.5 -197.5t-178.5 -71.5q-33 0 -102 21q53 -49 89.5 -128t36.5 -155q0 -43 -11 -89.5t-38 -94.5t-65.5 -85t-99.5 -61t-134 -24q-71 0 -130 24t-94.5 61t-55 77.5t-19.5 77.5q0 31 17.5 57.5t52.5 26.5q72 0 86 -113q10 -78 58.5 -124t115.5 -46q106 0 167.5 73
t61.5 162q0 75 -39 145.5t-139 184.5q-38 44 -60 72.5t-50 73.5t-41 92t-13 98q0 116 74 186t174 70q38 0 84 -12zM236 545q0 -68 35 -136.5t84.5 -116t103 -77t92.5 -29.5q73 0 112 43t39 107q0 62 -41 144t-114 147t-150 65q-72 0 -116.5 -45t-44.5 -102z" />
    <glyph glyph-name="dieresis" unicode="&#xa8;" horiz-adv-x="681" 
d="M297 1149q0 35 24.5 59.5t59.5 24.5t60.5 -24.5t25.5 -59.5t-25.5 -59.5t-60.5 -24.5q-34 0 -59 24.5t-25 59.5zM647 1149q0 34 24.5 59t59.5 25t59.5 -25t24.5 -59t-24.5 -59t-59.5 -25t-59.5 24.5t-24.5 59.5z" />
    <glyph glyph-name="copyright" unicode="&#xa9;" horiz-adv-x="1556" 
d="M1225 1128l20 -280h-39q-6 20 -10.5 31.5t-17 39t-26.5 46.5t-38.5 43t-52.5 39t-69 25.5t-89 10.5q-144 0 -232.5 -102.5t-88.5 -286.5q0 -26 1 -47.5t7.5 -66.5t18.5 -80.5t36.5 -78t58.5 -71t88 -48t121 -19.5q197 0 312 161l37 -20q-138 -203 -383 -203
q-136 0 -243.5 63.5t-163.5 164.5t-56 217q0 91 35.5 174.5t98.5 147.5t158 102t207 38q65 0 142 -22q11 -3 28.5 -10t29.5 -10t22 -3q20 0 30 11t19 34h39zM874 1380q192 0 355 -94t258.5 -257t95.5 -357q0 -115 -36 -223.5t-101.5 -195.5t-152.5 -152.5t-195.5 -101.5
t-223.5 -36q-144 0 -275 56t-226 151t-151 226.5t-56 275.5q0 194 95.5 357t258 257t354.5 94zM874 1319q-175 0 -323.5 -85.5t-236 -234.5t-87.5 -327q0 -176 86.5 -325t235.5 -235.5t325 -86.5q132 0 252 51t206.5 137.5t138 206.5t51.5 252q0 133 -52 253.5t-139 206.5
t-206.5 136.5t-250.5 50.5z" />
    <glyph glyph-name="ordfeminine" unicode="&#xaa;" horiz-adv-x="555" 
d="M672 1372h78l-121 -364q-21 -66 -21 -80q0 -9 6.5 -18t18.5 -9q45 0 100 96h29q-29 -60 -75.5 -100.5t-84.5 -40.5q-34 0 -47.5 23t-13.5 49q0 17 12 67q-14 -20 -30.5 -39t-42 -44t-57 -40.5t-61.5 -15.5q-43 0 -76.5 34t-33.5 97q0 69 34 142t83 127t105.5 89t100.5 35
q69 0 80 -65zM332 971q0 -17 1 -26.5t5 -24t15.5 -22t29.5 -7.5q33 0 84.5 41t93.5 127q29 59 51.5 130.5t22.5 100.5q0 27 -14.5 43.5t-38.5 16.5q-43 0 -90 -46.5t-81 -109.5t-56.5 -125.5t-22.5 -97.5z" />
    <glyph glyph-name="guillemotleft" unicode="&#xab;" horiz-adv-x="681" 
d="M215 68h-47l-172 372l364 363h60l-268 -385zM631 68h-45l-174 372l364 363h60l-269 -385z" />
    <glyph glyph-name="logicalnot" unicode="&#xac;" horiz-adv-x="1366" 
d="M238 942h1081v-573h-107v467h-974v106z" />
    <glyph glyph-name="uni00AD" unicode="&#xad;" horiz-adv-x="681" 
d="M152 451h491l-47 -82h-490z" />
    <glyph glyph-name="registered" unicode="&#xae;" horiz-adv-x="1556" 
d="M481 1108h387q137 0 217 -62.5t80 -160.5q0 -47 -19 -85.5t-42.5 -60.5t-60.5 -40t-56 -24t-45 -13l211 -297q28 -39 51 -59.5t36 -24.5t34 -5v-34h-184l-295 405h-76v-264q0 -34 2 -48.5t12.5 -31t35.5 -22t69 -5.5v-34h-367v34q31 0 51 6t30.5 13.5t15.5 28.5t6 37
t1 53v524q0 31 -0.5 45t-3 33.5t-8 26.5t-16 15.5t-26.5 11t-40 3.5v35zM719 1049v-359h31q43 0 83 7.5t81 26t65.5 56.5t24.5 92q0 80 -55 135.5t-146 55.5q-40 0 -84 -14zM874 1380q192 0 355 -94t258.5 -257t95.5 -357q0 -115 -36 -223.5t-101.5 -195.5t-152.5 -152.5
t-195.5 -101.5t-223.5 -36q-144 0 -275 56t-226 151t-151 226.5t-56 275.5q0 194 95.5 357t258 257t354.5 94zM874 1319q-175 0 -323.5 -85.5t-236 -234.5t-87.5 -327q0 -176 86.5 -325t235.5 -235.5t325 -86.5q132 0 252 51t206.5 137.5t138 206.5t51.5 252
q0 133 -52 253.5t-139 206.5t-206.5 136.5t-250.5 50.5z" />
    <glyph glyph-name="macron" unicode="&#xaf;" horiz-adv-x="681" 
d="M369 1188h569l-23 -92h-569z" />
    <glyph glyph-name="degree" unicode="&#xb0;" horiz-adv-x="811" 
d="M537 1343q133 0 227 -93.5t94 -227.5t-94 -228t-227 -94t-227.5 94t-94.5 228q0 133 94 227t228 94zM537 1243q-92 0 -157 -64.5t-65 -156.5t65 -156.5t157 -64.5t156.5 64.5t64.5 156.5t-64.5 156.5t-156.5 64.5z" />
    <glyph glyph-name="plusminus" unicode="&#xb1;" horiz-adv-x="1366" 
d="M238 106h1081v-106h-1081v106zM238 874h487v488h106v-488h488v-106h-488v-487h-106v487h-487v106z" />
    <glyph glyph-name="two.superior" unicode="&#xb2;" 
d="M621 721l-37 -109h-41q0 25 -6.5 31t-38.5 6h-324q0 12 0.5 17.5t0.5 12.5t3.5 11t5 8.5t9.5 10.5t13.5 11t20 16t25.5 20l76 61q183 149 245 226.5t62 160.5q0 41 -29.5 74t-85.5 33q-49 0 -85 -25.5t-36 -64.5q0 -7 0.5 -13t1.5 -9.5t3 -8t3.5 -6.5t5 -7t5.5 -8t8 -8.5
t10 -9.5t4 -6q0 -8 -27.5 -26.5t-45.5 -18.5q-28 0 -43 28t-15 58q0 59 62 110.5t170 51.5q105 0 153.5 -44.5t48.5 -105.5q0 -63 -47.5 -129t-179.5 -162q-73 -53 -246 -186h351z" />
    <glyph glyph-name="three.superior" unicode="&#xb3;" 
d="M508 1042q57 -8 91.5 -35.5t44 -54t9.5 -55.5q0 -101 -95.5 -182.5t-225.5 -81.5q-68 0 -126.5 25t-58.5 61q0 21 15 32t35 11t33 -8t30 -33q14 -22 19.5 -29t21.5 -15.5t39 -8.5q50 0 91.5 29.5t65.5 72t37 84.5t13 72q0 32 -16.5 58t-53.5 26q-11 0 -22.5 -3.5t-17 -6
t-18 -10t-13.5 -7.5q-7 -4 -15 -9.5t-12 -8.5t-11 -5t-16 -2q-28 0 -28 21q0 10 15 19t69 34q3 1 30.5 13.5t37 17.5t35.5 18.5t37.5 22.5t31 25.5t28 30.5t16 33.5t7.5 39.5q0 80 -111 80q-58 0 -84 -28t-26 -60q0 -17 8 -33q10 -15 10 -18q0 -6 -18 -19l-19 -14
q-8 -6 -22 -6q-21 0 -35.5 21.5t-14.5 49.5q0 61 62.5 101.5t161.5 40.5q91 0 142.5 -33.5t51.5 -81.5q0 -32 -17.5 -59t-53.5 -51t-70 -41t-88 -40z" />
    <glyph glyph-name="acute" unicode="&#xb4;" horiz-adv-x="681" 
d="M465 975l-21 16l142 226q39 61 64.5 87.5t56.5 26.5q22 0 41.5 -16.5t19.5 -42.5q0 -21 -15 -43t-65 -64z" />
    <glyph glyph-name="mu" unicode="&#xb5;" horiz-adv-x="1024" 
d="M313 834h154l-131 -457q-1 -4 -13.5 -46.5t-22 -82.5t-9.5 -60q0 -13 2 -26t10 -37.5t30.5 -39.5t57.5 -15q26 0 53.5 8.5t66.5 36.5t75 72.5t75.5 126t71.5 188.5l98 332h152l-152 -523q-36 -121 -36 -157q0 -9 1 -17.5t5.5 -25t17.5 -27t33 -10.5q23 0 44 12.5t39 37
t28.5 43t25.5 48.5h37q-9 -38 -29 -77t-50.5 -77t-76.5 -62t-98 -24q-18 0 -37.5 6.5t-42 21.5t-37 47t-14.5 77q0 34 8 84q-78 -119 -165 -177.5t-158 -58.5q-32 0 -58 8.5t-40.5 16.5t-30 28t-19.5 27t-16 29q-43 -144 -54.5 -204t-25.5 -212q-15 -168 -107 -168
q-21 0 -36 8.5t-22.5 19t-11.5 24t-4.5 19t-0.5 9.5q0 25 12.5 54.5t64.5 132.5q42 83 73.5 173.5t84.5 274.5z" />
    <glyph glyph-name="paragraph" unicode="&#xb6;" horiz-adv-x="1067" 
d="M1098 1348v-39h-43q-66 0 -92.5 -29t-26.5 -115v-1652h-74v1777h-194v-1777h-76v1050q-1 0 -31.5 1t-49.5 2.5t-59 6.5t-68 13t-68 23t-68.5 34.5t-59.5 50t-50 67t-31.5 87.5t-12.5 110q0 171 120 280.5t347 109.5h537z" />
    <glyph glyph-name="periodcentered" unicode="&#xb7;" horiz-adv-x="593" 
d="M315 678q0 43 31.5 74.5t75.5 31.5t75 -31t31 -75t-31.5 -74.5t-74.5 -30.5t-75 30.5t-32 74.5z" />
    <glyph glyph-name="cedilla" unicode="&#xb8;" horiz-adv-x="681" 
d="M8 -485l12 41q160 -9 236 37.5t76 103.5q0 21 -7 37.5t-20.5 27t-25.5 17t-32 10.5t-28 5l-24 3l135 217h53l-80 -127q83 -12 122.5 -56.5t39.5 -98.5q0 -90 -92 -155.5t-279 -65.5q-50 0 -86 4z" />
    <glyph glyph-name="one.superior" unicode="&#xb9;" 
d="M621 1348h53l-213 -607q-12 -34 -12 -45q0 -10 47 -10h55l-12 -37h-318l12 37h43q6 0 15.5 -0.5t12.5 0t9.5 0.5t8.5 2t6 3t6 6t5 8t6 11.5t5.5 15.5t7.5 20l146 415q18 56 18 64q0 29 -63 29h-47l10 34q148 0 199 54z" />
    <glyph glyph-name="ordmasculine" unicode="&#xba;" horiz-adv-x="491" 
d="M262 1030q0 128 85.5 239t187.5 111q53 0 93 -43t40 -129q0 -138 -83.5 -245t-187.5 -107q-38 0 -65.5 16.5t-40.5 37t-20 49.5t-8 42.5t-1 28.5zM332 963q0 -29 16.5 -53.5t52.5 -24.5q51 0 92 55t62 128t32 128t11 72q0 42 -18 63t-50 21q-45 0 -84.5 -47t-63 -113
t-37 -128t-13.5 -101z" />
    <glyph glyph-name="guillemotright" unicode="&#xbb;" horiz-adv-x="681" 
d="M559 803h47l172 -373l-364 -362h-60l269 385zM143 803h45l174 -373l-364 -362h-59l268 385z" />
    <glyph glyph-name="onequarter" unicode="&#xbc;" horiz-adv-x="1792" 
d="M1325 231h-262l16 41l457 428h59l-147 -424q39 0 50 4.5t28 28.5q4 4 4 6h47l-31 -84h-114l-50 -141q-12 -35 -12 -39q0 -12 7 -14t40 -2h37l-12 -35h-279l13 35q71 0 77 8q8 8 27 59zM496 0h-74l1132 1356h74zM1147 276h192l97 267l-4 4zM750 1348h53l-213 -607
q-12 -34 -12 -45q0 -10 47 -10h55l-12 -37h-318l12 37h44q6 0 15.5 -0.5t12.5 0t9 0.5t8.5 2t6 3t6 6t5 8t5.5 12t5.5 15t7.5 20l146 415q18 56 18 64q0 29 -63 29h-47l10 34q148 0 199 54z" />
    <glyph glyph-name="onehalf" unicode="&#xbd;" horiz-adv-x="1792" 
d="M496 0h-74l1132 1356h74zM1556 72l-36 -109h-41q0 27 -6 31q-6 6 -39 6h-324v19t2.5 14t3.5 11t9 10.5t13 12t21.5 16.5t28.5 23l76 62q183 149 245 226.5t62 160.5q0 41 -29.5 74t-85.5 33q-49 0 -85 -26t-36 -65q0 -8 0.5 -14t3 -11.5t3.5 -8t5.5 -8.5t6.5 -9t8 -8.5
t10 -9.5t4 -6q0 -8 -27.5 -26.5t-45.5 -18.5q-28 0 -43 28t-15 58q0 59 62 110t170 51q105 0 153.5 -44t48.5 -105q0 -63 -47.5 -129t-179.5 -162q-73 -53 -246 -186h350zM750 1348h53l-213 -607q-12 -34 -12 -45q0 -10 47 -10h55l-12 -37h-318l12 37h44q6 0 15.5 -0.5
t12.5 0t9 0.5t8.5 2t6 3t6 6t5 8t5.5 12t5.5 15t7.5 20l146 415q18 56 18 64q0 29 -63 29h-47l10 34q148 0 199 54z" />
    <glyph glyph-name="threequarters" unicode="&#xbe;" horiz-adv-x="1792" 
d="M1325 231h-262l16 41l457 428h59l-147 -424q39 0 50 4.5t28 28.5q4 4 4 6h47l-31 -84h-114l-50 -141q-12 -35 -12 -39q0 -12 7 -14t40 -2h37l-12 -35h-279l13 35q71 0 77 8q8 8 27 59zM496 0h-74l1132 1356h74zM1147 276h192l97 267l-4 4zM662 1042q57 -8 91.5 -35.5
t44 -54t9.5 -55.5q0 -101 -96 -182.5t-226 -81.5q-67 0 -125.5 25t-58.5 61q0 21 14.5 32t34.5 11q21 0 34 -8.5t30 -32.5q14 -22 19.5 -29t21.5 -15.5t39 -8.5q50 0 91.5 29.5t65 72t36.5 84.5t13 72q0 32 -16 58t-53 26q-9 0 -17.5 -1.5t-16.5 -5t-13 -6t-14 -8t-11 -6.5
q-8 -5 -18 -12.5t-17 -10t-18 -2.5q-10 0 -19.5 5t-9.5 16q0 10 15 19t69 34q3 1 30.5 13.5t37 17.5t35.5 18.5t37.5 22.5t31 25.5t28 30.5t16 33.5t7.5 39.5q0 80 -110 80q-58 0 -84.5 -28t-26.5 -60q0 -17 8 -33q11 -17 11 -18q0 -5 -19 -19l-18 -14q-8 -6 -23 -6
q-21 0 -35 21t-14 50q0 61 62.5 101.5t160.5 40.5q91 0 143 -33.5t52 -81.5q0 -32 -17.5 -59t-53.5 -51t-70 -41t-88 -40z" />
    <glyph glyph-name="questiondown" unicode="&#xbf;" horiz-adv-x="704" 
d="M471 483h45l-110 -368h-31q-3 22 -6.5 36t-18.5 29t-39 15q-56 0 -105 -81t-74.5 -187.5t-25.5 -198.5q0 -45 12 -79t28.5 -51.5t38 -28t34.5 -13t23 -2.5q29 0 48.5 13t41.5 46q31 45 67 45q22 0 36 -13t14 -34q0 -41 -55.5 -74t-125.5 -33q-113 0 -196.5 97.5
t-83.5 240.5q0 104 39.5 196t111 149t156.5 57q40 0 96 -25zM678 797q0 -44 -31.5 -75.5t-75.5 -31.5t-75 31.5t-31 75.5t31.5 75t74.5 31t75 -31.5t32 -74.5z" />
    <glyph glyph-name="Agrave" unicode="&#xc0;" horiz-adv-x="1173" 
d="M819 514h-387l-149 -231q-2 -3 -17 -27t-22 -36.5t-15 -33t-8 -36.5q0 -27 10 -46.5t22.5 -29.5t40 -16.5t46.5 -8.5t57 -4l-14 -45h-475l14 45q55 4 101.5 25t82.5 57t55 60.5t44 62.5l756 1130h69l-47 -1126q-5 -77 0 -122t39 -64t121 -23l-15 -45h-532l14 45
q48 2 79 7t53.5 17.5t33.5 27.5t18 46t9.5 62t5.5 86v4zM463 559h358l27 586zM1092 1458l-224 191q-51 43 -66.5 64.5t-15.5 41.5q0 26 20 43t42 17q32 0 57.5 -27t63.5 -88l143 -225z" />
    <glyph glyph-name="Aacute" unicode="&#xc1;" horiz-adv-x="1173" 
d="M819 514h-387l-149 -231q-2 -3 -17 -27t-22 -36.5t-15 -33t-8 -36.5q0 -27 10 -46.5t22.5 -29.5t40 -16.5t46.5 -8.5t57 -4l-14 -45h-475l14 45q55 4 101.5 25t82.5 57t55 60.5t44 62.5l756 1130h69l-47 -1126q-5 -77 0 -122t39 -64t121 -23l-15 -45h-532l14 45
q48 2 79 7t53.5 17.5t33.5 27.5t18 46t9.5 62t5.5 86v4zM463 559h358l27 586zM864 1458l-20 17l141 225q40 62 65 88.5t56 26.5q22 0 41.5 -17t19.5 -43q0 -21 -15 -42t-65 -64z" />
    <glyph glyph-name="Acircumflex" unicode="&#xc2;" horiz-adv-x="1173" 
d="M819 514h-387l-149 -231q-2 -3 -17 -27t-22 -36.5t-15 -33t-8 -36.5q0 -27 10 -46.5t22.5 -29.5t40 -16.5t46.5 -8.5t57 -4l-14 -45h-475l14 45q55 4 101.5 25t82.5 57t55 60.5t44 62.5l756 1130h69l-47 -1126q-5 -77 0 -122t39 -64t121 -23l-15 -45h-532l14 45
q48 2 79 7t53.5 17.5t33.5 27.5t18 46t9.5 62t5.5 86v4zM463 559h358l27 586zM1083 1706l-313 -246h-39l375 391h98l17 -391h-21z" />
    <glyph glyph-name="Atilde" unicode="&#xc3;" horiz-adv-x="1173" 
d="M819 514h-387l-149 -231q-2 -3 -17 -27t-22 -36.5t-15 -33t-8 -36.5q0 -27 10 -46.5t22.5 -29.5t40 -16.5t46.5 -8.5t57 -4l-14 -45h-475l14 45q55 4 101.5 25t82.5 57t55 60.5t44 62.5l756 1130h69l-47 -1126q-5 -77 0 -122t39 -64t121 -23l-15 -45h-532l14 45
q48 2 79 7t53.5 17.5t33.5 27.5t18 46t9.5 62t5.5 86v4zM463 559h358l27 586zM715 1507h-29q0 119 54.5 180.5t140.5 61.5q40 0 75 -16.5t95 -61.5q4 -3 26 -20.5t32.5 -24.5t28 -15.5t31.5 -8.5q40 0 68 41.5t33 103.5h28q0 -108 -50.5 -175t-135.5 -67q-78 0 -170 76
q-56 46 -76.5 58t-46.5 12q-40 0 -69 -39.5t-35 -104.5z" />
    <glyph glyph-name="Adieresis" unicode="&#xc4;" horiz-adv-x="1173" 
d="M819 514h-387l-149 -231q-2 -3 -17 -27t-22 -36.5t-15 -33t-8 -36.5q0 -27 10 -46.5t22.5 -29.5t40 -16.5t46.5 -8.5t57 -4l-14 -45h-475l14 45q55 4 101.5 25t82.5 57t55 60.5t44 62.5l756 1130h69l-47 -1126q-5 -77 0 -122t39 -64t121 -23l-15 -45h-532l14 45
q48 2 79 7t53.5 17.5t33.5 27.5t18 46t9.5 62t5.5 86v4zM463 559h358l27 586zM737 1632q0 35 24.5 59.5t59.5 24.5t60.5 -24.5t25.5 -59.5t-25.5 -59.5t-60.5 -24.5q-34 0 -59 24.5t-25 59.5zM1087 1632q0 34 24.5 59t59.5 25t59.5 -25t24.5 -59t-24.5 -59t-59.5 -25
t-59.5 24.5t-24.5 59.5z" />
    <glyph glyph-name="Aring" unicode="&#xc5;" horiz-adv-x="1173" 
d="M819 514h-387l-149 -231q-2 -3 -17 -27t-22 -36.5t-15 -33t-8 -36.5q0 -27 10 -46.5t22.5 -29.5t40 -16.5t46.5 -8.5t57 -4l-14 -45h-475l14 45q55 4 101.5 25t82.5 57t55 60.5t44 62.5l756 1130h69l-47 -1126q-5 -77 0 -122t39 -64t121 -23l-15 -45h-532l14 45
q48 2 79 7t53.5 17.5t33.5 27.5t18 46t9.5 62t5.5 86v4zM463 559h358l27 586zM1194 1686q0 -78 -55 -133.5t-133 -55.5t-133.5 55.5t-55.5 133.5q0 77 55.5 131.5t133.5 54.5t133 -54.5t55 -131.5zM1004 1817q-54 0 -90.5 -38.5t-36.5 -92.5q0 -56 38 -94t93 -38
q54 0 91.5 37.5t37.5 91.5q0 57 -38.5 95.5t-94.5 38.5z" />
    <glyph glyph-name="AE" unicode="&#xc6;" horiz-adv-x="1898" 
d="M1022 682h-336l-299 -389q-39 -51 -50 -66.5t-22.5 -39.5t-11.5 -44q0 -89 154 -98l-13 -45h-452l12 45q107 26 168 74t156 170l669 860q38 48 52 70t14 38q0 19 -6.5 28.5t-39 17.5t-95.5 8h-31l10 45h1010l4 -305h-47q-18 54 -36.5 96t-34 69.5t-36 46t-34.5 28
t-37 14.5t-36 5.5t-38 0.5h-221l-178 -584h69q49 0 80 3t69.5 15.5t66.5 35.5t58 65.5t56 103.5h45l-162 -534h-43q10 102 10 110q0 38 -5 65t-17.5 44t-24.5 27t-36 14t-41 5t-50 1h-90l-131 -426q-27 -98 -27 -111q0 -56 48 -78t133 -22h75q28 0 49.5 1t59.5 7t68.5 17
t70 32.5t71.5 51.5t64.5 77.5t57.5 106.5h43l-103 -338h-1054l14 45q46 0 78 4t57 16.5t39.5 25t29.5 42t23 53t23 72.5zM721 727h315l178 584h-34z" />
    <glyph glyph-name="Ccedilla" unicode="&#xc7;" horiz-adv-x="1236" 
d="M618 -20q-120 14 -215.5 87t-147.5 185t-52 240q0 152 61 311.5t161 286.5t241.5 208.5t289.5 81.5q66 0 121 -16.5t88 -38.5t61 -55t40 -54.5t24 -48.5q51 84 68 156h43l-88 -393h-43q19 190 -66 299.5t-225 109.5q-93 0 -175.5 -42t-141 -110t-107 -156t-79 -177.5
t-51.5 -177t-29.5 -152t-8.5 -104.5q0 -173 80.5 -286.5t226.5 -113.5q273 0 461 402h45l-137 -438h-43q0 69 -8 135q-148 -144 -344 -144l-41 -96q75 -12 116 -55t41 -100q0 -231 -512 -216l13 46q41 0 69.5 1t78 4.5t83.5 12t69 22t53.5 37t18.5 54.5q0 71 -126 85
q-5 1 -7 1z" />
    <glyph glyph-name="Egrave" unicode="&#xc8;" horiz-adv-x="1259" 
d="M1212 344h45l-104 -344h-1137l15 45h28q36 0 63 5t47 18.5t33 27t26 41.5t20 49.5t20 63.5l260 856q33 116 33 133q0 72 -129 72h-39l13 45h968l4 -305h-43q-39 151 -101.5 205.5t-180.5 54.5h-281l-176 -582h98q140 0 214 44t132 177h47l-161 -530h-47q12 58 12 100
q0 101 -36 132.5t-161 31.5h-112l-127 -420q-6 -19 -12.5 -40.5t-9 -29.5t-5.5 -18.5t-3.5 -17.5t-0.5 -17q0 -32 16 -52.5t49 -29.5t64 -11.5t80 -2.5h82q205 0 314 68.5t183 230.5zM1124 1458l-223 191q-51 43 -66.5 64.5t-15.5 41.5q0 26 20 43t42 17q32 0 57 -26.5
t63 -88.5l144 -225z" />
    <glyph glyph-name="Eacute" unicode="&#xc9;" horiz-adv-x="1259" 
d="M1212 344h45l-104 -344h-1137l15 45h28q36 0 63 5t47 18.5t33 27t26 41.5t20 49.5t20 63.5l260 856q33 116 33 133q0 72 -129 72h-39l13 45h968l4 -305h-43q-39 151 -101.5 205.5t-180.5 54.5h-281l-176 -582h98q140 0 214 44t132 177h47l-161 -530h-47q12 58 12 100
q0 101 -36 132.5t-161 31.5h-112l-127 -420q-6 -19 -12.5 -40.5t-9 -29.5t-5.5 -18.5t-3.5 -17.5t-0.5 -17q0 -32 16 -52.5t49 -29.5t64 -11.5t80 -2.5h82q205 0 314 68.5t183 230.5zM907 1458l-20 17l141 225q40 62 65 88.5t56 26.5q22 0 41.5 -17t19.5 -43q0 -21 -15 -42
t-65 -64z" />
    <glyph glyph-name="Ecircumflex" unicode="&#xca;" horiz-adv-x="1259" 
d="M1212 344h45l-104 -344h-1137l15 45h28q36 0 63 5t47 18.5t33 27t26 41.5t20 49.5t20 63.5l260 856q33 116 33 133q0 72 -129 72h-39l13 45h968l4 -305h-43q-39 151 -101.5 205.5t-180.5 54.5h-281l-176 -582h98q140 0 214 44t132 177h47l-161 -530h-47q12 58 12 100
q0 101 -36 132.5t-161 31.5h-112l-127 -420q-6 -19 -12.5 -40.5t-9 -29.5t-5.5 -18.5t-3.5 -17.5t-0.5 -17q0 -32 16 -52.5t49 -29.5t64 -11.5t80 -2.5h82q205 0 314 68.5t183 230.5zM1065 1706l-313 -246h-39l374 391h99l16 -391h-20z" />
    <glyph glyph-name="Edieresis" unicode="&#xcb;" horiz-adv-x="1259" 
d="M1212 344h45l-104 -344h-1137l15 45h28q36 0 63 5t47 18.5t33 27t26 41.5t20 49.5t20 63.5l260 856q33 116 33 133q0 72 -129 72h-39l13 45h968l4 -305h-43q-39 151 -101.5 205.5t-180.5 54.5h-281l-176 -582h98q140 0 214 44t132 177h47l-161 -530h-47q12 58 12 100
q0 101 -36 132.5t-161 31.5h-112l-127 -420q-6 -19 -12.5 -40.5t-9 -29.5t-5.5 -18.5t-3.5 -17.5t-0.5 -17q0 -32 16 -52.5t49 -29.5t64 -11.5t80 -2.5h82q205 0 314 68.5t183 230.5zM739 1632q0 35 24.5 59.5t59.5 24.5t60.5 -24.5t25.5 -59.5t-25.5 -59.5t-60.5 -24.5
q-34 0 -59 24.5t-25 59.5zM1090 1632q0 34 24.5 59t59.5 25t59 -25t24 -59t-24 -59t-59 -25t-59.5 24.5t-24.5 59.5z" />
    <glyph glyph-name="Igrave" unicode="&#xcc;" horiz-adv-x="704" 
d="M614 45l-14 -45h-571l14 45h31q43 0 77 13t52.5 29t34 43t20 40.5t10.5 35.5q1 5 2 7l275 903q28 95 28 123q0 72 -129 72h-34l14 45h532l-14 -45q-31 0 -53.5 -1.5t-41.5 -8t-31.5 -11t-25 -19.5t-19 -25t-16.5 -36t-15.5 -43t-16.5 -55q-4 -13 -6 -20l-246 -811
q-35 -119 -35 -140q0 -31 17.5 -52.5t44.5 -29.5t44.5 -11t32.5 -3h39zM848 1458l-223 191q-51 43 -66.5 64.5t-15.5 41.5q0 26 19.5 43t41.5 17q32 0 57.5 -27t63.5 -88l143 -225z" />
    <glyph glyph-name="Iacute" unicode="&#xcd;" horiz-adv-x="704" 
d="M614 45l-14 -45h-571l14 45h31q43 0 77 13t52.5 29t34 43t20 40.5t10.5 35.5q1 5 2 7l275 903q28 95 28 123q0 72 -129 72h-34l14 45h532l-14 -45q-31 0 -53.5 -1.5t-41.5 -8t-31.5 -11t-25 -19.5t-19 -25t-16.5 -36t-15.5 -43t-16.5 -55q-4 -13 -6 -20l-246 -811
q-35 -119 -35 -140q0 -31 17.5 -52.5t44.5 -29.5t44.5 -11t32.5 -3h39zM631 1458l-21 17l142 225q40 63 64.5 89t55.5 26q22 0 42 -17t20 -43q0 -21 -15 -42t-65 -64z" />
    <glyph glyph-name="Icircumflex" unicode="&#xce;" horiz-adv-x="704" 
d="M614 45l-14 -45h-571l14 45h31q43 0 77 13t52.5 29t34 43t20 40.5t10.5 35.5q1 5 2 7l275 903q28 95 28 123q0 72 -129 72h-34l14 45h532l-14 -45q-31 0 -53.5 -1.5t-41.5 -8t-31.5 -11t-25 -19.5t-19 -25t-16.5 -36t-15.5 -43t-16.5 -55q-4 -13 -6 -20l-246 -811
q-35 -119 -35 -140q0 -31 17.5 -52.5t44.5 -29.5t44.5 -11t32.5 -3h39zM809 1706l-313 -246h-39l374 391h99l16 -391h-20z" />
    <glyph glyph-name="Idieresis" unicode="&#xcf;" horiz-adv-x="704" 
d="M614 45l-14 -45h-571l14 45h31q43 0 77 13t52.5 29t34 43t20 40.5t10.5 35.5q1 5 2 7l275 903q28 95 28 123q0 72 -129 72h-34l14 45h532l-14 -45q-31 0 -53.5 -1.5t-41.5 -8t-31.5 -11t-25 -19.5t-19 -25t-16.5 -36t-15.5 -43t-16.5 -55q-4 -13 -6 -20l-246 -811
q-35 -119 -35 -140q0 -31 17.5 -52.5t44.5 -29.5t44.5 -11t32.5 -3h39zM494 1632q0 35 24.5 59.5t59.5 24.5t60.5 -24.5t25.5 -59.5t-25.5 -59.5t-60.5 -24.5q-34 0 -59 24.5t-25 59.5zM844 1632q0 34 24.5 59t59.5 25t59.5 -25t24.5 -59t-24.5 -59t-59.5 -25t-59.5 24.5
t-24.5 59.5z" />
    <glyph glyph-name="Eth" unicode="&#xd0;" horiz-adv-x="1386" 
d="M369 1356h155q63 0 162 6q63 4 150 4q107 0 196.5 -22.5t150 -59.5t107.5 -88.5t74 -104t44 -112.5t22.5 -108t5.5 -95q0 -24 -2.5 -53.5t-11.5 -79.5t-23.5 -99.5t-43 -110t-65.5 -114.5t-95 -109.5t-128 -98.5q-63 -39 -127 -63t-141.5 -33.5t-133.5 -12t-157 -2.5
h-545l12 45h58q86 0 127 34t59 93l148 483h-207l10 45h209l123 402q33 112 33 137q0 72 -129 72h-52zM748 1319l-189 -619h322l-15 -45h-319l-127 -413q-25 -78 -25 -103q0 -28 16 -47.5t46.5 -29t64.5 -13.5t80 -4q344 0 518 313q66 118 98.5 249.5t32.5 226.5
q0 223 -110 355t-287 132q-83 0 -106 -2z" />
    <glyph glyph-name="Ntilde" unicode="&#xd1;" horiz-adv-x="1314" 
d="M1049 -12h-48l-376 1153l-121 -498q-22 -89 -36.5 -145.5t-34.5 -129.5t-35.5 -118.5t-36.5 -100t-40.5 -87t-44.5 -66.5t-51 -51.5t-58 -29t-67 -11.5q-74 0 -123 42t-49 105q0 53 23 78t55 25q30 0 52 -20.5t22 -55.5q0 -9 -1.5 -17t-3 -11.5t-7 -15t-7.5 -16.5
q-10 -22 -10 -32q0 -37 55 -37q54 0 102 39.5t81 107.5q36 74 70.5 183t52.5 182l151 614q33 127 33 150q0 86 -174 86h-19l13 45h313l348 -1063l82 350q108 467 176 596q74 135 178 135q55 0 84 -26.5t29 -63.5q0 -35 -24 -55.5t-54 -20.5q-7 0 -13 1.5t-10.5 2.5t-9.5 5
t-7.5 5t-7.5 7.5t-6 7.5t-6.5 9t-6.5 9q-8 11 -12 15.5t-12 9t-17 4.5q-31 0 -60 -52.5t-72 -196.5t-108 -417zM776 1507h-28q0 119 54 180.5t140 61.5q40 0 75 -16.5t95 -61.5q5 -4 20.5 -16.5t25 -19.5t23.5 -15.5t26.5 -13t23.5 -4.5q40 0 67.5 41.5t32.5 103.5h29
q0 -108 -50.5 -175t-135.5 -67q-78 0 -170 76q-56 46 -76.5 58t-46.5 12q-40 0 -69.5 -39.5t-35.5 -104.5z" />
    <glyph glyph-name="Ograve" unicode="&#xd2;" horiz-adv-x="1343" 
d="M219 518q0 90 26.5 190.5t73.5 195.5t115.5 182t147 152t173 103.5t189.5 38.5q187 0 310.5 -145.5t123.5 -388.5q0 -156 -60.5 -315t-157 -281t-226 -198.5t-260.5 -76.5q-64 0 -125.5 17t-122 57.5t-106 100.5t-73.5 155t-28 213zM397 418q0 -29 1 -51t6.5 -66.5
t15 -78t30 -73.5t48.5 -66.5t72.5 -44.5t99.5 -18q104 0 195.5 74t153 185.5t106 243.5t65 248.5t20.5 199.5q0 180 -75 272t-193 92q-84 0 -162 -48.5t-136 -127.5t-106 -177.5t-78 -202t-46.5 -196.5t-16.5 -165zM1167 1458l-223 191q-51 43 -66.5 64.5t-15.5 41.5
q0 26 20 43t42 17q32 0 57 -26.5t63 -88.5l144 -225z" />
    <glyph glyph-name="Oacute" unicode="&#xd3;" horiz-adv-x="1343" 
d="M219 518q0 90 26.5 190.5t73.5 195.5t115.5 182t147 152t173 103.5t189.5 38.5q187 0 310.5 -145.5t123.5 -388.5q0 -156 -60.5 -315t-157 -281t-226 -198.5t-260.5 -76.5q-64 0 -125.5 17t-122 57.5t-106 100.5t-73.5 155t-28 213zM397 418q0 -29 1 -51t6.5 -66.5
t15 -78t30 -73.5t48.5 -66.5t72.5 -44.5t99.5 -18q104 0 195.5 74t153 185.5t106 243.5t65 248.5t20.5 199.5q0 180 -75 272t-193 92q-84 0 -162 -48.5t-136 -127.5t-106 -177.5t-78 -202t-46.5 -196.5t-16.5 -165zM940 1458l-20 17l141 225q40 62 65 88.5t56 26.5
q22 0 41.5 -17t19.5 -43q0 -21 -15 -42t-65 -64z" />
    <glyph glyph-name="Ocircumflex" unicode="&#xd4;" horiz-adv-x="1343" 
d="M219 518q0 90 26.5 190.5t73.5 195.5t115.5 182t147 152t173 103.5t189.5 38.5q187 0 310.5 -145.5t123.5 -388.5q0 -156 -60.5 -315t-157 -281t-226 -198.5t-260.5 -76.5q-64 0 -125.5 17t-122 57.5t-106 100.5t-73.5 155t-28 213zM397 418q0 -29 1 -51t6.5 -66.5
t15 -78t30 -73.5t48.5 -66.5t72.5 -44.5t99.5 -18q104 0 195.5 74t153 185.5t106 243.5t65 248.5t20.5 199.5q0 180 -75 272t-193 92q-84 0 -162 -48.5t-136 -127.5t-106 -177.5t-78 -202t-46.5 -196.5t-16.5 -165zM1087 1706l-313 -246h-39l375 391h98l17 -391h-21z" />
    <glyph glyph-name="Otilde" unicode="&#xd5;" horiz-adv-x="1343" 
d="M219 518q0 90 26.5 190.5t73.5 195.5t115.5 182t147 152t173 103.5t189.5 38.5q187 0 310.5 -145.5t123.5 -388.5q0 -156 -60.5 -315t-157 -281t-226 -198.5t-260.5 -76.5q-64 0 -125.5 17t-122 57.5t-106 100.5t-73.5 155t-28 213zM397 418q0 -29 1 -51t6.5 -66.5
t15 -78t30 -73.5t48.5 -66.5t72.5 -44.5t99.5 -18q104 0 195.5 74t153 185.5t106 243.5t65 248.5t20.5 199.5q0 180 -75 272t-193 92q-84 0 -162 -48.5t-136 -127.5t-106 -177.5t-78 -202t-46.5 -196.5t-16.5 -165zM750 1507h-29q0 119 54 180.5t140 61.5q40 0 75 -16.5
t95 -61.5q5 -4 20.5 -16.5t25 -19.5t23.5 -15.5t26.5 -13t23.5 -4.5q40 0 68 41.5t33 103.5h28q0 -108 -50.5 -175t-135.5 -67q-78 0 -170 76q-56 46 -76.5 58t-46.5 12q-40 0 -69 -39.5t-35 -104.5z" />
    <glyph glyph-name="Odieresis" unicode="&#xd6;" horiz-adv-x="1343" 
d="M219 518q0 90 26.5 190.5t73.5 195.5t115.5 182t147 152t173 103.5t189.5 38.5q187 0 310.5 -145.5t123.5 -388.5q0 -156 -60.5 -315t-157 -281t-226 -198.5t-260.5 -76.5q-64 0 -125.5 17t-122 57.5t-106 100.5t-73.5 155t-28 213zM397 418q0 -29 1 -51t6.5 -66.5
t15 -78t30 -73.5t48.5 -66.5t72.5 -44.5t99.5 -18q104 0 195.5 74t153 185.5t106 243.5t65 248.5t20.5 199.5q0 180 -75 272t-193 92q-84 0 -162 -48.5t-136 -127.5t-106 -177.5t-78 -202t-46.5 -196.5t-16.5 -165zM772 1632q0 35 24.5 59.5t59.5 24.5t60.5 -24.5
t25.5 -59.5t-25.5 -59.5t-60.5 -24.5q-34 0 -59 24.5t-25 59.5zM1122 1632q0 34 24.5 59t59.5 25t59.5 -25t24.5 -59t-24.5 -59t-59.5 -25t-59.5 24.5t-24.5 59.5z" />
    <glyph glyph-name="multiply" unicode="&#xd7;" horiz-adv-x="1366" 
d="M287 1075l75 78l418 -420l418 420l76 -78l-418 -418l414 -413l-76 -76l-414 414l-415 -414l-76 76l416 413z" />
    <glyph glyph-name="Oslash" unicode="&#xd8;" horiz-adv-x="1343" 
d="M414 250l768 907q-68 178 -240 178q-100 0 -191 -69t-153.5 -174.5t-109.5 -231.5t-69 -241t-22 -201q0 -121 17 -168zM426 201q28 -86 92.5 -133.5t151.5 -47.5q78 0 149.5 41t124.5 108.5t98 154.5t75.5 179t52 182t31 163t9.5 123q0 86 -14 133zM324 145
q-12 17 -25 40.5t-33.5 71t-33.5 116.5t-13 145q0 90 27 190.5t74 195.5t115 182t146.5 152t173 103.5t189.5 38.5q186 0 307 -143l117 137l33 -28l-121 -144q39 -53 68.5 -147.5t29.5 -208.5q0 -156 -60.5 -315t-157.5 -280.5t-226.5 -198.5t-259.5 -77q-86 0 -164 29.5
t-158 108.5l-121 -142l-32 27z" />
    <glyph glyph-name="Ugrave" unicode="&#xd9;" horiz-adv-x="1449" 
d="M1280 1356h432l-14 -45q-95 -3 -149 -48.5t-83 -146.5l-26 -92l-187 -610q-13 -43 -21.5 -68t-31.5 -77t-47 -85.5t-66.5 -77t-91 -69t-119.5 -44t-153 -18.5q-222 0 -343.5 84.5t-121.5 245.5q0 64 29 154l194 641q3 12 11 37t12 40t8 33t4 29q0 72 -129 72h-31l15 45
h553l-15 -45h-28q-100 0 -140.5 -41t-83.5 -185l-190 -632q-3 -12 -11 -39t-11.5 -39t-8 -32t-6.5 -36.5t-2 -32.5q0 -117 88 -183t217 -66q69 0 128.5 14t103 37t81.5 59.5t63.5 72.5t49 86t38 90.5t30.5 94.5l182 602q29 102 29 123q0 40 -36 66.5t-136 40.5zM1221 1458
l-224 191q-51 43 -66.5 64.5t-15.5 41.5q0 26 20 43t42 17q32 0 57.5 -27t63.5 -88l143 -225z" />
    <glyph glyph-name="Uacute" unicode="&#xda;" horiz-adv-x="1449" 
d="M1280 1356h432l-14 -45q-95 -3 -149 -48.5t-83 -146.5l-26 -92l-187 -610q-13 -43 -21.5 -68t-31.5 -77t-47 -85.5t-66.5 -77t-91 -69t-119.5 -44t-153 -18.5q-222 0 -343.5 84.5t-121.5 245.5q0 64 29 154l194 641q3 12 11 37t12 40t8 33t4 29q0 72 -129 72h-31l15 45
h553l-15 -45h-28q-100 0 -140.5 -41t-83.5 -185l-190 -632q-3 -12 -11 -39t-11.5 -39t-8 -32t-6.5 -36.5t-2 -32.5q0 -117 88 -183t217 -66q69 0 128.5 14t103 37t81.5 59.5t63.5 72.5t49 86t38 90.5t30.5 94.5l182 602q29 102 29 123q0 40 -36 66.5t-136 40.5zM1004 1458
l-21 17l141 225q40 62 65 88.5t56 26.5q22 0 42 -17t20 -43q0 -21 -15 -42t-65 -64z" />
    <glyph glyph-name="Ucircumflex" unicode="&#xdb;" horiz-adv-x="1449" 
d="M1280 1356h432l-14 -45q-95 -3 -149 -48.5t-83 -146.5l-26 -92l-187 -610q-13 -43 -21.5 -68t-31.5 -77t-47 -85.5t-66.5 -77t-91 -69t-119.5 -44t-153 -18.5q-222 0 -343.5 84.5t-121.5 245.5q0 64 29 154l194 641q3 12 11 37t12 40t8 33t4 29q0 72 -129 72h-31l15 45
h553l-15 -45h-28q-100 0 -140.5 -41t-83.5 -185l-190 -632q-3 -12 -11 -39t-11.5 -39t-8 -32t-6.5 -36.5t-2 -32.5q0 -117 88 -183t217 -66q69 0 128.5 14t103 37t81.5 59.5t63.5 72.5t49 86t38 90.5t30.5 94.5l182 602q29 102 29 123q0 40 -36 66.5t-136 40.5zM1161 1706
l-313 -246h-39l375 391h98l16 -391h-20z" />
    <glyph glyph-name="Udieresis" unicode="&#xdc;" horiz-adv-x="1449" 
d="M1280 1356h432l-14 -45q-95 -3 -149 -48.5t-83 -146.5l-26 -92l-187 -610q-13 -43 -21.5 -68t-31.5 -77t-47 -85.5t-66.5 -77t-91 -69t-119.5 -44t-153 -18.5q-222 0 -343.5 84.5t-121.5 245.5q0 64 29 154l194 641q3 12 11 37t12 40t8 33t4 29q0 72 -129 72h-31l15 45
h553l-15 -45h-28q-100 0 -140.5 -41t-83.5 -185l-190 -632q-3 -12 -11 -39t-11.5 -39t-8 -32t-6.5 -36.5t-2 -32.5q0 -117 88 -183t217 -66q69 0 128.5 14t103 37t81.5 59.5t63.5 72.5t49 86t38 90.5t30.5 94.5l182 602q29 102 29 123q0 40 -36 66.5t-136 40.5zM836 1632
q0 35 24.5 59.5t59.5 24.5t60.5 -24.5t25.5 -59.5t-25.5 -59.5t-60.5 -24.5q-34 0 -59 24.5t-25 59.5zM1186 1632q0 34 24.5 59t59.5 25t59.5 -25t24.5 -59t-24.5 -59t-59.5 -25t-59.5 24.5t-24.5 59.5z" />
    <glyph glyph-name="Yacute" unicode="&#xdd;" horiz-adv-x="1130" 
d="M276 950h-45q16 42 37 90t56.5 111t72.5 112t85 83t93 34q66 0 114 -80.5t48 -238.5q0 -74 -15.5 -207t-45.5 -268q16 38 41.5 92.5t75 153t106 187.5t120 174t132 136t127.5 51t97 -32.5t38 -83.5q0 -31 -18.5 -54.5t-46.5 -23.5q-21 0 -41.5 14.5t-20.5 50.5
q0 20 -2 32.5t-13 25t-32 12.5q-51 0 -136 -90t-171 -236q-196 -335 -256 -532l-70 -232q-20 -77 -20 -88q0 -31 16.5 -52.5t43 -30.5t45 -12t34.5 -3h59l-14 -45h-629l15 45h61q54 0 92 14t61.5 44t37 61t26.5 82l84 313q20 74 42 236.5t22 259.5q0 237 -70 237
q-37 0 -89.5 -69t-91 -145.5t-55.5 -127.5zM834 1458l-21 17l141 225q40 62 65 88.5t56 26.5q22 0 42 -17t20 -43q0 -21 -15 -42t-65 -64z" />
    <glyph glyph-name="Thorn" unicode="&#xde;" horiz-adv-x="1110" 
d="M942 1356l-14 -45h-31q-141 0 -178 -121l-49 -164q131 2 214.5 -9t155.5 -52q83 -48 120.5 -118.5t37.5 -141.5q0 -90 -52.5 -175t-144.5 -131q-141 -69 -446 -69h-96l-27 -90q-22 -74 -22 -99q0 -31 15.5 -52.5t41 -30t44 -11t38.5 -2.5h33l-15 -45h-538l12 45
q54 0 90 12t58 42.5t32 54t25 76.5q1 4 2 6.5t2 6.5t2 7l260 854q33 113 33 135q0 72 -129 72h-47l14 45h559zM655 981l-184 -606h59q62 0 96.5 2t89 10t98 29.5t79.5 56.5q16 14 32 32.5t38.5 52t36.5 81.5t14 100q0 107 -62 176q-39 43 -95 54.5t-155 11.5h-47z" />
    <glyph glyph-name="germandbls" unicode="&#xdf;" horiz-adv-x="894" 
d="M508 725l10 45q147 0 223 88q48 56 74.5 159t26.5 169q0 12 -1 23.5t-7 33.5t-16.5 37.5t-33 28t-53.5 12.5q-43 0 -80.5 -18t-65.5 -52t-49.5 -70t-39.5 -87.5t-28.5 -87t-23.5 -84.5q-4 -15 -6 -23l-217 -823q-82 -311 -173 -437t-236 -126q-91 0 -142 47t-51 100
q0 27 16 43t41 16q29 0 47.5 -18.5t18.5 -52.5q0 -8 -3 -26.5t-3 -27.5q0 -16 19.5 -26t54.5 -10q37 0 65 12t59.5 47t61.5 106.5t59 182.5l250 946q13 52 22.5 85t31 93.5t42 101t55 90.5t72 80t90 51t111.5 21q63 0 111 -24.5t74.5 -64t39.5 -83t13 -88.5
q0 -131 -90.5 -234.5t-245.5 -136.5q217 -64 217 -276q0 -129 -58.5 -246t-152.5 -186.5t-195 -69.5q-61 0 -103 33.5t-42 83.5q0 61 49 61q30 0 44 -21t16 -46q1 -21 4 -33t15 -22.5t34 -10.5q59 0 110 58.5t81.5 142.5t47.5 168.5t17 146.5q0 100 -49.5 149.5t-157.5 49.5
z" />
    <glyph glyph-name="agrave" unicode="&#xe0;" horiz-adv-x="854" 
d="M733 831h121l-178 -585q-39 -127 -39 -154q0 -41 37 -41q36 0 79.5 47.5t77.5 110.5h43q-47 -101 -117.5 -169.5t-127.5 -68.5q-52 0 -75.5 38t-23.5 83q0 41 25 121q-17 -32 -47 -71t-69 -78.5t-87.5 -66t-91.5 -26.5q-67 0 -118.5 58t-51.5 164q0 114 52.5 236t128 212
t162 148.5t153.5 58.5q47 0 80 -27t43 -80zM209 162q0 -25 2 -42.5t9 -41.5t25 -36.5t46 -12.5q50 0 124.5 65t125.5 166q58 115 97.5 248t39.5 186q0 46 -23 73.5t-61 27.5q-64 0 -135.5 -74.5t-125 -177t-89 -209t-35.5 -172.5zM768 958l-223 191q-51 43 -66.5 64.5
t-15.5 41.5q0 26 19.5 43t41.5 17q32 0 57.5 -27t63.5 -88l143 -225z" />
    <glyph glyph-name="aacute" unicode="&#xe1;" horiz-adv-x="854" 
d="M733 831h121l-178 -585q-39 -127 -39 -154q0 -41 37 -41q36 0 79.5 47.5t77.5 110.5h43q-47 -101 -117.5 -169.5t-127.5 -68.5q-52 0 -75.5 38t-23.5 83q0 41 25 121q-17 -32 -47 -71t-69 -78.5t-87.5 -66t-91.5 -26.5q-67 0 -118.5 58t-51.5 164q0 114 52.5 236t128 212
t162 148.5t153.5 58.5q47 0 80 -27t43 -80zM209 162q0 -25 2 -42.5t9 -41.5t25 -36.5t46 -12.5q50 0 124.5 65t125.5 166q58 115 97.5 248t39.5 186q0 46 -23 73.5t-61 27.5q-64 0 -135.5 -74.5t-125 -177t-89 -209t-35.5 -172.5zM551 958l-21 17l142 225q40 62 65 88.5
t56 26.5q22 0 41.5 -17t19.5 -43q0 -21 -15 -42t-65 -64z" />
    <glyph glyph-name="acircumflex" unicode="&#xe2;" horiz-adv-x="854" 
d="M733 831h121l-178 -585q-39 -127 -39 -154q0 -41 37 -41q36 0 79.5 47.5t77.5 110.5h43q-47 -101 -117.5 -169.5t-127.5 -68.5q-52 0 -75.5 38t-23.5 83q0 41 25 121q-17 -32 -47 -71t-69 -78.5t-87.5 -66t-91.5 -26.5q-67 0 -118.5 58t-51.5 164q0 114 52.5 236t128 212
t162 148.5t153.5 58.5q47 0 80 -27t43 -80zM209 162q0 -25 2 -42.5t9 -41.5t25 -36.5t46 -12.5q50 0 124.5 65t125.5 166q58 115 97.5 248t39.5 186q0 46 -23 73.5t-61 27.5q-64 0 -135.5 -74.5t-125 -177t-89 -209t-35.5 -172.5zM698 1206l-313 -245h-39l375 391h98
l17 -391h-21z" />
    <glyph glyph-name="atilde" unicode="&#xe3;" horiz-adv-x="854" 
d="M733 831h121l-178 -585q-39 -127 -39 -154q0 -41 37 -41q36 0 79.5 47.5t77.5 110.5h43q-47 -101 -117.5 -169.5t-127.5 -68.5q-52 0 -75.5 38t-23.5 83q0 41 25 121q-17 -32 -47 -71t-69 -78.5t-87.5 -66t-91.5 -26.5q-67 0 -118.5 58t-51.5 164q0 114 52.5 236t128 212
t162 148.5t153.5 58.5q47 0 80 -27t43 -80zM209 162q0 -25 2 -42.5t9 -41.5t25 -36.5t46 -12.5q50 0 124.5 65t125.5 166q58 115 97.5 248t39.5 186q0 46 -23 73.5t-61 27.5q-64 0 -135.5 -74.5t-125 -177t-89 -209t-35.5 -172.5zM360 1008h-28q0 119 54 180t140 61
q40 0 75 -16.5t95 -61.5q5 -4 20.5 -16.5t25 -19.5t23.5 -15.5t26.5 -13t23.5 -4.5q40 0 67.5 41.5t32.5 103.5h29q0 -108 -50.5 -174.5t-135.5 -66.5q-79 0 -170 75q-56 46 -76.5 58t-46.5 12q-40 0 -69.5 -39t-35.5 -104z" />
    <glyph glyph-name="adieresis" unicode="&#xe4;" horiz-adv-x="854" 
d="M733 831h121l-178 -585q-39 -127 -39 -154q0 -41 37 -41q36 0 79.5 47.5t77.5 110.5h43q-47 -101 -117.5 -169.5t-127.5 -68.5q-52 0 -75.5 38t-23.5 83q0 41 25 121q-17 -32 -47 -71t-69 -78.5t-87.5 -66t-91.5 -26.5q-67 0 -118.5 58t-51.5 164q0 114 52.5 236t128 212
t162 148.5t153.5 58.5q47 0 80 -27t43 -80zM209 162q0 -25 2 -42.5t9 -41.5t25 -36.5t46 -12.5q50 0 124.5 65t125.5 166q58 115 97.5 248t39.5 186q0 46 -23 73.5t-61 27.5q-64 0 -135.5 -74.5t-125 -177t-89 -209t-35.5 -172.5zM383 1133q0 35 24.5 59.5t59.5 24.5
t60.5 -24.5t25.5 -59.5t-25.5 -59.5t-60.5 -24.5q-34 0 -59 24.5t-25 59.5zM733 1133q0 34 24.5 59t59.5 25t59.5 -25t24.5 -59t-24.5 -59t-59.5 -25t-59.5 24.5t-24.5 59.5z" />
    <glyph glyph-name="aring" unicode="&#xe5;" horiz-adv-x="854" 
d="M733 831h121l-178 -585q-39 -127 -39 -154q0 -41 37 -41q36 0 79.5 47.5t77.5 110.5h43q-47 -101 -117.5 -169.5t-127.5 -68.5q-52 0 -75.5 38t-23.5 83q0 41 25 121q-17 -32 -47 -71t-69 -78.5t-87.5 -66t-91.5 -26.5q-67 0 -118.5 58t-51.5 164q0 114 52.5 236t128 212
t162 148.5t153.5 58.5q47 0 80 -27t43 -80zM209 162q0 -25 2 -42.5t9 -41.5t25 -36.5t46 -12.5q50 0 124.5 65t125.5 166q58 115 97.5 248t39.5 186q0 46 -23 73.5t-61 27.5q-64 0 -135.5 -74.5t-125 -177t-89 -209t-35.5 -172.5zM850 1186q0 -78 -55 -133.5t-133 -55.5
t-133.5 55.5t-55.5 133.5q0 77 55.5 131.5t133.5 54.5t133 -54.5t55 -131.5zM659 1317q-54 0 -90.5 -38.5t-36.5 -92.5q0 -55 38 -93t94 -38q54 0 91.5 37.5t37.5 91.5q0 57 -39 95t-95 38z" />
    <glyph glyph-name="ae" unicode="&#xe6;" horiz-adv-x="937" 
d="M862 252h41q-22 -52 -50.5 -98.5t-68 -88.5t-90.5 -67t-108 -25q-72 0 -119 40.5t-47 138.5q-28 -53 -63.5 -91.5t-68.5 -56.5t-57 -25.5t-41 -7.5q-11 0 -22 1.5t-32.5 10t-37 23.5t-27.5 46.5t-12 74.5q0 103 57 212t147 197.5t194.5 160t207.5 111.5t179 40
q64 0 99.5 -38.5t35.5 -96.5q0 -105 -125 -214.5t-301 -162.5q-25 -74 -25 -166q0 -71 25.5 -108t64.5 -37q61 0 131.5 66.5t112.5 160.5zM565 381q81 21 144.5 62.5t97.5 84.5t56 90t28 75.5t6 45.5q0 30 -17 49t-46 19q-71 0 -148 -125t-121 -301zM725 788
q-109 -36 -203 -106t-155 -148t-105 -161t-63 -147t-19 -103q0 -86 58 -86q38 0 79 40.5t64.5 80t44.5 84.5q30 137 107.5 292t191.5 254z" />
    <glyph glyph-name="ccedilla" unicode="&#xe7;" horiz-adv-x="661" 
d="M227 -23q-22 6 -42.5 19t-42.5 37.5t-35 68.5t-13 101q0 95 31 192.5t82 177t112 142.5t125 98t117 35q57 0 91 -36.5t34 -80.5q0 -36 -17 -54t-38 -18q-23 0 -42.5 19t-19.5 53q0 68 -45 68q-53 0 -111.5 -75t-101 -179t-70.5 -212.5t-28 -176.5q0 -60 31 -93.5
t69 -33.5q69 0 136.5 78.5t103.5 177.5h41q-56 -157 -146.5 -235.5t-177.5 -78.5l-47 -67q43 -3 75 -19t47.5 -39.5t22.5 -44.5t7 -41q0 -9 -1.5 -21t-13 -42.5t-31.5 -56.5t-64.5 -55t-104.5 -46q-81 -22 -207 -20l12 41q86 0 149 16t94 41t44.5 49t13.5 47q0 90 -160 90z
" />
    <glyph glyph-name="egrave" unicode="&#xe8;" 
d="M541 256h49q-56 -128 -142 -206.5t-184 -78.5q-72 0 -128 52.5t-56 162.5q0 115 48 237.5t118 214t152 151t149 59.5q36 0 60.5 -14.5t35.5 -37t15 -40.5t4 -35q0 -61 -36 -120t-99.5 -109t-136.5 -90.5t-161 -77.5q-30 -88 -30 -166q0 -36 10 -62.5t22.5 -39t29.5 -19
t25 -7.5t15 -1q69 0 131 62t109 165zM244 375q115 50 225.5 154.5t110.5 189.5q0 42 -19.5 59t-44.5 17q-56 0 -136 -108.5t-136 -311.5zM651 958l-223 191q-51 43 -66.5 64.5t-15.5 41.5q0 26 20 43t42 17q32 0 57 -26.5t63 -88.5l144 -225z" />
    <glyph glyph-name="eacute" unicode="&#xe9;" 
d="M541 256h49q-56 -128 -142 -206.5t-184 -78.5q-72 0 -128 52.5t-56 162.5q0 115 48 237.5t118 214t152 151t149 59.5q36 0 60.5 -14.5t35.5 -37t15 -40.5t4 -35q0 -61 -36 -120t-99.5 -109t-136.5 -90.5t-161 -77.5q-30 -88 -30 -166q0 -36 10 -62.5t22.5 -39t29.5 -19
t25 -7.5t15 -1q69 0 131 62t109 165zM244 375q115 50 225.5 154.5t110.5 189.5q0 42 -19.5 59t-44.5 17q-56 0 -136 -108.5t-136 -311.5zM434 958l-20 17l141 225q40 62 65 88.5t56 26.5q22 0 41.5 -17t19.5 -43q0 -21 -15 -42t-65 -64z" />
    <glyph glyph-name="ecircumflex" unicode="&#xea;" 
d="M541 256h49q-56 -128 -142 -206.5t-184 -78.5q-72 0 -128 52.5t-56 162.5q0 115 48 237.5t118 214t152 151t149 59.5q36 0 60.5 -14.5t35.5 -37t15 -40.5t4 -35q0 -61 -36 -120t-99.5 -109t-136.5 -90.5t-161 -77.5q-30 -88 -30 -166q0 -36 10 -62.5t22.5 -39t29.5 -19
t25 -7.5t15 -1q69 0 131 62t109 165zM244 375q115 50 225.5 154.5t110.5 189.5q0 42 -19.5 59t-44.5 17q-56 0 -136 -108.5t-136 -311.5zM602 1206l-313 -245h-39l375 391h98l16 -391h-20z" />
    <glyph glyph-name="edieresis" unicode="&#xeb;" 
d="M541 256h49q-56 -128 -142 -206.5t-184 -78.5q-72 0 -128 52.5t-56 162.5q0 115 48 237.5t118 214t152 151t149 59.5q36 0 60.5 -14.5t35.5 -37t15 -40.5t4 -35q0 -61 -36 -120t-99.5 -109t-136.5 -90.5t-161 -77.5q-30 -88 -30 -166q0 -36 10 -62.5t22.5 -39t29.5 -19
t25 -7.5t15 -1q69 0 131 62t109 165zM244 375q115 50 225.5 154.5t110.5 189.5q0 42 -19.5 59t-44.5 17q-56 0 -136 -108.5t-136 -311.5zM287 1133q0 35 24.5 59.5t59.5 24.5t60.5 -24.5t25.5 -59.5t-25.5 -59.5t-60.5 -24.5q-34 0 -59 24.5t-25 59.5zM637 1133
q0 34 24.5 59t59.5 25t59.5 -25t24.5 -59t-24.5 -59t-59.5 -25t-59.5 24.5t-24.5 59.5z" />
    <glyph glyph-name="igrave" unicode="&#xec;" horiz-adv-x="491" 
d="M465 219h49q-51 -100 -122.5 -174t-145.5 -74q-17 0 -35 5.5t-38 18.5t-33 41t-13 68q0 18 4.5 41.5t8.5 36.5t13 39t9 27l135 364q41 111 41 131q0 18 -10.5 28.5t-26.5 10.5q-36 0 -87.5 -55t-82.5 -115h-47q65 125 134.5 180.5t123.5 55.5q49 0 78 -33t29 -84
q0 -8 -1 -16.5t-1.5 -15.5t-3 -17.5t-4.5 -17t-5.5 -19t-5.5 -19t-7.5 -21t-8 -21t-9 -23.5t-8.5 -24l-96 -261q-53 -144 -53 -176t15.5 -43.5t29.5 -11.5q40 0 89.5 53.5t84.5 120.5zM547 958l-223 191q-51 43 -66.5 64.5t-15.5 41.5q0 26 19.5 43t41.5 17q32 0 57.5 -27
t63.5 -88l143 -225z" />
    <glyph glyph-name="iacute" unicode="&#xed;" horiz-adv-x="491" 
d="M465 219h49q-51 -100 -122.5 -174t-145.5 -74q-17 0 -35 5.5t-38 18.5t-33 41t-13 68q0 18 4.5 41.5t8.5 36.5t13 39t9 27l135 364q41 111 41 131q0 18 -10.5 28.5t-26.5 10.5q-36 0 -87.5 -55t-82.5 -115h-47q65 125 134.5 180.5t123.5 55.5q49 0 78 -33t29 -84
q0 -8 -1 -16.5t-1.5 -15.5t-3 -17.5t-4.5 -17t-5.5 -19t-5.5 -19t-7.5 -21t-8 -21t-9 -23.5t-8.5 -24l-96 -261q-53 -144 -53 -176t15.5 -43.5t29.5 -11.5q40 0 89.5 53.5t84.5 120.5zM371 958l-21 17l142 225q40 63 64.5 89t55.5 26q22 0 42 -17t20 -43q0 -21 -15 -42
t-65 -64z" />
    <glyph glyph-name="icircumflex" unicode="&#xee;" horiz-adv-x="491" 
d="M465 219h49q-51 -100 -122.5 -174t-145.5 -74q-17 0 -35 5.5t-38 18.5t-33 41t-13 68q0 18 4.5 41.5t8.5 36.5t13 39t9 27l135 364q41 111 41 131q0 18 -10.5 28.5t-26.5 10.5q-36 0 -87.5 -55t-82.5 -115h-47q65 125 134.5 180.5t123.5 55.5q49 0 78 -33t29 -84
q0 -8 -1 -16.5t-1.5 -15.5t-3 -17.5t-4.5 -17t-5.5 -19t-5.5 -19t-7.5 -21t-8 -21t-9 -23.5t-8.5 -24l-96 -261q-53 -144 -53 -176t15.5 -43.5t29.5 -11.5q40 0 89.5 53.5t84.5 120.5zM518 1206l-313 -245h-39l375 391h98l16 -391h-20z" />
    <glyph glyph-name="idieresis" unicode="&#xef;" horiz-adv-x="491" 
d="M465 219h49q-51 -100 -122.5 -174t-145.5 -74q-17 0 -35 5.5t-38 18.5t-33 41t-13 68q0 18 4.5 41.5t8.5 36.5t13 39t9 27l135 364q41 111 41 131q0 18 -10.5 28.5t-26.5 10.5q-36 0 -87.5 -55t-82.5 -115h-47q65 125 134.5 180.5t123.5 55.5q49 0 78 -33t29 -84
q0 -8 -1 -16.5t-1.5 -15.5t-3 -17.5t-4.5 -17t-5.5 -19t-5.5 -19t-7.5 -21t-8 -21t-9 -23.5t-8.5 -24l-96 -261q-53 -144 -53 -176t15.5 -43.5t29.5 -11.5q40 0 89.5 53.5t84.5 120.5zM203 1133q0 35 24.5 59.5t59.5 24.5t60.5 -24.5t25.5 -59.5t-25.5 -59.5t-60.5 -24.5
q-34 0 -59 24.5t-25 59.5zM553 1133q0 34 24.5 59t59.5 25t59.5 -25t24.5 -59t-24.5 -59t-59.5 -25t-59.5 24.5t-24.5 59.5z" />
    <glyph glyph-name="eth" unicode="&#xf0;" horiz-adv-x="747" 
d="M621 1188l147 61l18 -41l-143 -59q109 -250 109 -459q0 -98 -20 -200.5t-59 -194.5t-91 -165t-122 -116t-147 -43q-89 0 -151 70.5t-62 206.5q0 146 59.5 285.5t157.5 227t203 87.5q32 0 55 -8t31 -15.5t19 -21.5q-6 100 -18 164t-42 151l-178 -74l-16 41l180 74
q-32 75 -56 115t-55 80l47 22q85 -95 134 -188zM207 147q0 -48 26 -89.5t80 -41.5q61 0 114 58.5t86.5 142.5t58.5 178t35.5 164t10.5 103q0 72 -30.5 106.5t-73.5 34.5q-70 0 -131.5 -79.5t-98 -190.5t-57 -216t-20.5 -170z" />
    <glyph glyph-name="ntilde" unicode="&#xf1;" horiz-adv-x="874" 
d="M825 188h52q-115 -217 -250 -217q-20 0 -42.5 6.5t-45.5 33.5t-23 71q0 28 9.5 62t37.5 116l107 303q43 125 43 162q0 22 -13 41.5t-47 19.5q-84 0 -200 -176q-122 -185 -207 -465l-49 -159h-123l182 589q2 7 10.5 33.5t15 46.5t12 43.5t5.5 34.5q0 33 -27 33
q-29 0 -67 -42t-72 -103h-47q63 115 124.5 171t113.5 56q24 0 40.5 -10t24 -26.5t10 -30.5t2.5 -29q0 -58 -65 -271q183 367 350 367q54 0 95.5 -36t41.5 -107q0 -46 -41 -168l-120 -361q-29 -90 -29 -102q0 -17 11 -29t26 -12q62 0 155 155zM371 1008h-29q0 119 54 180
t141 61q40 0 75 -16.5t95 -61.5q4 -3 26 -20.5t32.5 -24.5t28 -15.5t31.5 -8.5q40 0 68 41.5t33 103.5h28q0 -108 -50.5 -174.5t-135.5 -66.5q-79 0 -170 75q-56 46 -76.5 58t-46.5 12q-40 0 -69 -39t-35 -104z" />
    <glyph glyph-name="ograve" unicode="&#xf2;" horiz-adv-x="747" 
d="M100 262q0 139 59.5 275.5t158 223.5t202.5 87q83 0 144 -72t61 -213q0 -101 -32 -206.5t-85.5 -191t-132.5 -140t-166 -54.5q-43 0 -77.5 14.5t-55.5 35.5t-36.5 52t-23 56.5t-11.5 57.5t-4.5 45.5t-0.5 29.5zM207 147q0 -48 26 -89.5t80 -41.5q61 0 114 58.5
t86.5 142.5t58.5 178t35.5 164t10.5 103q0 72 -30.5 106.5t-73.5 34.5q-70 0 -131.5 -79.5t-98 -190.5t-57 -216t-20.5 -170zM674 958l-223 191q-51 43 -66.5 64.5t-15.5 41.5q0 26 19.5 43t41.5 17q32 0 57.5 -27t63.5 -88l143 -225z" />
    <glyph glyph-name="oacute" unicode="&#xf3;" horiz-adv-x="747" 
d="M100 262q0 139 59.5 275.5t158 223.5t202.5 87q83 0 144 -72t61 -213q0 -101 -32 -206.5t-85.5 -191t-132.5 -140t-166 -54.5q-43 0 -77.5 14.5t-55.5 35.5t-36.5 52t-23 56.5t-11.5 57.5t-4.5 45.5t-0.5 29.5zM207 147q0 -48 26 -89.5t80 -41.5q61 0 114 58.5
t86.5 142.5t58.5 178t35.5 164t10.5 103q0 72 -30.5 106.5t-73.5 34.5q-70 0 -131.5 -79.5t-98 -190.5t-57 -216t-20.5 -170zM498 958l-21 17l141 225q40 62 65 88.5t56 26.5q22 0 42 -17t20 -43q0 -21 -15 -42t-65 -64z" />
    <glyph glyph-name="ocircumflex" unicode="&#xf4;" horiz-adv-x="747" 
d="M100 262q0 139 59.5 275.5t158 223.5t202.5 87q83 0 144 -72t61 -213q0 -101 -32 -206.5t-85.5 -191t-132.5 -140t-166 -54.5q-43 0 -77.5 14.5t-55.5 35.5t-36.5 52t-23 56.5t-11.5 57.5t-4.5 45.5t-0.5 29.5zM207 147q0 -48 26 -89.5t80 -41.5q61 0 114 58.5
t86.5 142.5t58.5 178t35.5 164t10.5 103q0 72 -30.5 106.5t-73.5 34.5q-70 0 -131.5 -79.5t-98 -190.5t-57 -216t-20.5 -170zM645 1206l-313 -245h-39l375 391h98l16 -391h-20z" />
    <glyph glyph-name="otilde" unicode="&#xf5;" horiz-adv-x="747" 
d="M100 262q0 139 59.5 275.5t158 223.5t202.5 87q83 0 144 -72t61 -213q0 -101 -32 -206.5t-85.5 -191t-132.5 -140t-166 -54.5q-43 0 -77.5 14.5t-55.5 35.5t-36.5 52t-23 56.5t-11.5 57.5t-4.5 45.5t-0.5 29.5zM207 147q0 -48 26 -89.5t80 -41.5q61 0 114 58.5
t86.5 142.5t58.5 178t35.5 164t10.5 103q0 72 -30.5 106.5t-73.5 34.5q-70 0 -131.5 -79.5t-98 -190.5t-57 -216t-20.5 -170zM307 1008h-28q0 119 54 180t140 61q40 0 75 -16.5t95 -61.5q5 -4 20.5 -16.5t25 -19.5t23.5 -15.5t26.5 -13t23.5 -4.5q40 0 67.5 41.5t32.5 103.5
h29q0 -108 -50.5 -174.5t-135.5 -66.5q-79 0 -170 75q-56 46 -76.5 58t-46.5 12q-40 0 -69.5 -39t-35.5 -104z" />
    <glyph glyph-name="odieresis" unicode="&#xf6;" horiz-adv-x="747" 
d="M100 262q0 139 59.5 275.5t158 223.5t202.5 87q83 0 144 -72t61 -213q0 -101 -32 -206.5t-85.5 -191t-132.5 -140t-166 -54.5q-43 0 -77.5 14.5t-55.5 35.5t-36.5 52t-23 56.5t-11.5 57.5t-4.5 45.5t-0.5 29.5zM207 147q0 -48 26 -89.5t80 -41.5q61 0 114 58.5
t86.5 142.5t58.5 178t35.5 164t10.5 103q0 72 -30.5 106.5t-73.5 34.5q-70 0 -131.5 -79.5t-98 -190.5t-57 -216t-20.5 -170zM330 1133q0 35 24.5 59.5t59.5 24.5t60.5 -24.5t25.5 -59.5t-25.5 -59.5t-60.5 -24.5q-34 0 -59 24.5t-25 59.5zM680 1133q0 34 24.5 59t59.5 25
t59.5 -25t24.5 -59t-24.5 -59t-59.5 -25t-59.5 24.5t-24.5 59.5z" />
    <glyph glyph-name="divide" unicode="&#xf7;" horiz-adv-x="1366" 
d="M776 309q-29 0 -50 -21t-21 -50t21 -50.5t50 -21.5t50.5 21.5t21.5 50.5t-21.5 50t-50.5 21zM778 1145q-29 0 -50 -21.5t-21 -50.5t21 -50.5t50 -21.5t50.5 21.5t21.5 50.5t-21.5 50.5t-50.5 21.5zM238 709h1081v-107h-1081v107z" />
    <glyph glyph-name="oslash" unicode="&#xf8;" horiz-adv-x="747" 
d="M209 186l409 490q-1 59 -30.5 93t-73.5 34q-57 0 -108 -52.5t-85.5 -129.5t-60 -165.5t-38 -158.5t-13.5 -111zM152 49l-89 -98v69l66 78q-29 66 -29 164q0 139 60.5 275.5t158.5 223.5t201 87q60 0 103 -32t59 -66l94 110v-69l-74 -89q0 -1 2.5 -5.5t4 -9t4 -12.5
t4.5 -18.5t4 -24t3 -31t1 -38.5q0 -101 -32 -206.5t-86 -191t-133 -140t-165 -54.5q-42 0 -76.5 15t-47 27t-33.5 36zM209 125q18 -109 104 -109q60 0 113 58t85 136t57 170t34.5 146t11.5 78z" />
    <glyph glyph-name="ugrave" unicode="&#xf9;" horiz-adv-x="874" 
d="M834 207h40q-7 -22 -16 -43.5t-30.5 -59t-45 -64.5t-60.5 -48t-77 -21q-98 0 -98 109q0 21 3 44.5t10.5 54.5t12 49.5t15.5 58t14 49.5q-15 -36 -37 -77.5t-57 -94.5t-73 -94.5t-86 -70t-95 -28.5q-60 0 -97.5 37.5t-37.5 100.5q0 61 45 188l115 330q3 9 13.5 40t16.5 50
t6 26q0 35 -26 35q-63 0 -139 -170h-48q41 108 105.5 174t128.5 66q34 0 64 -22.5t30 -75.5q0 -35 -37 -142l-125 -370q-39 -112 -39 -140q0 -65 60 -65q34 0 79.5 36t96.5 113q137 208 262 594l18 58h119l-174 -574q-43 -146 -43 -170q0 -9 2 -18.5t12 -20t27 -10.5
q76 0 146 166zM737 958l-223 191q-51 43 -66.5 64.5t-15.5 41.5q0 26 20 43t42 17q32 0 57 -26.5t63 -88.5l144 -225z" />
    <glyph glyph-name="uacute" unicode="&#xfa;" horiz-adv-x="874" 
d="M834 207h40q-7 -22 -16 -43.5t-30.5 -59t-45 -64.5t-60.5 -48t-77 -21q-98 0 -98 109q0 21 3 44.5t10.5 54.5t12 49.5t15.5 58t14 49.5q-15 -36 -37 -77.5t-57 -94.5t-73 -94.5t-86 -70t-95 -28.5q-60 0 -97.5 37.5t-37.5 100.5q0 61 45 188l115 330q3 9 13.5 40t16.5 50
t6 26q0 35 -26 35q-63 0 -139 -170h-48q41 108 105.5 174t128.5 66q34 0 64 -22.5t30 -75.5q0 -35 -37 -142l-125 -370q-39 -112 -39 -140q0 -65 60 -65q34 0 79.5 36t96.5 113q137 208 262 594l18 58h119l-174 -574q-43 -146 -43 -170q0 -9 2 -18.5t12 -20t27 -10.5
q76 0 146 166zM561 958l-20 17l141 225q40 62 65 88.5t56 26.5q22 0 41.5 -17t19.5 -43q0 -21 -15 -42t-65 -64z" />
    <glyph glyph-name="ucircumflex" unicode="&#xfb;" horiz-adv-x="874" 
d="M834 207h40q-7 -22 -16 -43.5t-30.5 -59t-45 -64.5t-60.5 -48t-77 -21q-98 0 -98 109q0 21 3 44.5t10.5 54.5t12 49.5t15.5 58t14 49.5q-15 -36 -37 -77.5t-57 -94.5t-73 -94.5t-86 -70t-95 -28.5q-60 0 -97.5 37.5t-37.5 100.5q0 61 45 188l115 330q3 9 13.5 40t16.5 50
t6 26q0 35 -26 35q-63 0 -139 -170h-48q41 108 105.5 174t128.5 66q34 0 64 -22.5t30 -75.5q0 -35 -37 -142l-125 -370q-39 -112 -39 -140q0 -65 60 -65q34 0 79.5 36t96.5 113q137 208 262 594l18 58h119l-174 -574q-43 -146 -43 -170q0 -9 2 -18.5t12 -20t27 -10.5
q76 0 146 166zM709 1206l-314 -245h-39l375 391h98l17 -391h-21z" />
    <glyph glyph-name="udieresis" unicode="&#xfc;" horiz-adv-x="874" 
d="M834 207h40q-7 -22 -16 -43.5t-30.5 -59t-45 -64.5t-60.5 -48t-77 -21q-98 0 -98 109q0 21 3 44.5t10.5 54.5t12 49.5t15.5 58t14 49.5q-15 -36 -37 -77.5t-57 -94.5t-73 -94.5t-86 -70t-95 -28.5q-60 0 -97.5 37.5t-37.5 100.5q0 61 45 188l115 330q3 9 13.5 40t16.5 50
t6 26q0 35 -26 35q-63 0 -139 -170h-48q41 108 105.5 174t128.5 66q34 0 64 -22.5t30 -75.5q0 -35 -37 -142l-125 -370q-39 -112 -39 -140q0 -65 60 -65q34 0 79.5 36t96.5 113q137 208 262 594l18 58h119l-174 -574q-43 -146 -43 -170q0 -9 2 -18.5t12 -20t27 -10.5
q76 0 146 166zM393 1133q0 35 24.5 59.5t59.5 24.5t60.5 -24.5t25.5 -59.5t-25.5 -59.5t-60.5 -24.5q-34 0 -59 24.5t-25 59.5zM743 1133q0 34 24.5 59t59.5 25t59.5 -25t24.5 -59t-24.5 -59t-59.5 -25t-59.5 24.5t-24.5 59.5z" />
    <glyph glyph-name="yacute" unicode="&#xfd;" horiz-adv-x="747" 
d="M139 575h-41q6 75 25 130t38.5 81.5t45 41.5t38.5 17.5t25 2.5q32 0 57.5 -19.5t53.5 -60.5q51 -73 51 -287q0 -248 -57 -448q40 45 84.5 107t92.5 140.5t79 163t31 150.5q0 30 -11 63t-22 50q-31 41 -31 75q0 26 14.5 46t38.5 20q40 0 61 -45.5t21 -116.5
q0 -132 -71 -288t-171.5 -287.5t-213.5 -250.5t-194 -189t-116 -91q-132 -80 -246 -80q-57 0 -92 19.5t-35 54.5q0 31 27.5 48.5t56.5 17.5q21 0 72 -15q59 -18 105 -18q56 0 122.5 37.5t182.5 156.5q36 36 59 75.5t32 65.5t19 68q49 201 49 461q0 139 -24.5 215t-63.5 76
q-28 0 -48 -28.5t-30 -68t-14 -90.5zM457 958l-21 17l142 225q40 63 64.5 89t55.5 26q22 0 42 -17t20 -43q0 -21 -15 -42t-65 -64z" />
    <glyph glyph-name="thorn" unicode="&#xfe;" horiz-adv-x="854" 
d="M365 1298l12 41q84 2 133.5 9t101.5 28h25l-219 -710q128 182 246 182q75 0 126.5 -69t51.5 -173q0 -102 -38.5 -214.5t-100.5 -205.5t-148.5 -154t-175.5 -61q-63 0 -93 28.5t-46 74.5l-109 -361q-29 -96 -29 -119q0 -15 6.5 -23.5t23.5 -12t29 -4t40 -0.5h45l-15 -41
h-417l14 41q102 0 122.5 13.5t45.5 94.5q4 12 6 19l447 1472q26 86 26 100q0 21 -11.5 31.5t-24.5 12t-42 1.5h-32zM338 391l-41 -133q-27 -100 -27 -127q0 -50 27 -82.5t76 -32.5q66 0 126 58t100 142t70 178t44 166.5t14 107.5q0 59 -21 93t-61 34q-35 0 -81.5 -29.5
t-84.5 -73.5q-34 -39 -62 -93t-40.5 -89.5t-32.5 -99.5q-4 -13 -6 -19z" />
    <glyph glyph-name="ydieresis" unicode="&#xff;" horiz-adv-x="747" 
d="M139 575h-41q6 75 25 130t38.5 81.5t45 41.5t38.5 17.5t25 2.5q32 0 57.5 -19.5t53.5 -60.5q51 -73 51 -287q0 -248 -57 -448q40 45 84.5 107t92.5 140.5t79 163t31 150.5q0 30 -11 63t-22 50q-31 41 -31 75q0 26 14.5 46t38.5 20q40 0 61 -45.5t21 -116.5
q0 -132 -71 -288t-171.5 -287.5t-213.5 -250.5t-194 -189t-116 -91q-132 -80 -246 -80q-57 0 -92 19.5t-35 54.5q0 31 27.5 48.5t56.5 17.5q21 0 72 -15q59 -18 105 -18q56 0 122.5 37.5t182.5 156.5q36 36 59 75.5t32 65.5t19 68q49 201 49 461q0 139 -24.5 215t-63.5 76
q-28 0 -48 -28.5t-30 -68t-14 -90.5zM289 1133q0 35 24.5 59.5t59.5 24.5t60.5 -24.5t25.5 -59.5t-25.5 -59.5t-60.5 -24.5q-34 0 -59 24.5t-25 59.5zM639 1133q0 34 24.5 59t59.5 25t59.5 -25t24.5 -59t-24.5 -59t-59.5 -25t-59.5 24.5t-24.5 59.5z" />
    <glyph glyph-name="dotlessi" unicode="&#x131;" horiz-adv-x="491" 
d="M465 219h49q-51 -100 -122.5 -174t-145.5 -74q-17 0 -35 5.5t-38 18.5t-33 41t-13 68q0 18 4.5 41.5t8.5 36.5t13 39t9 27l135 364q41 111 41 131q0 18 -10.5 28.5t-26.5 10.5q-36 0 -87.5 -55t-82.5 -115h-47q65 125 134.5 180.5t123.5 55.5q49 0 78 -33t29 -84
q0 -8 -1 -16.5t-1.5 -15.5t-3 -17.5t-4.5 -17t-5.5 -19t-5.5 -19t-7.5 -21t-8 -21t-9 -23.5t-8.5 -24l-96 -261q-53 -144 -53 -176t15.5 -43.5t29.5 -11.5q40 0 89.5 53.5t84.5 120.5z" />
    <glyph glyph-name="Lslash" unicode="&#x141;" horiz-adv-x="1110" 
d="M565 672l-129 -424q-26 -86 -26 -111q0 -17 4.5 -30.5t14 -23t18.5 -16.5t25.5 -11t27.5 -6.5t30.5 -3.5t29 -1.5t29.5 0t25 0.5h101q55 0 105.5 12t86.5 27.5t72 45t56 49t45 55.5t32.5 48.5t24.5 43.5q6 10 8 14h43l-113 -340h-1073l14 45h31q150 0 186 127l107 358
l-242 -145l23 74l244 149l147 488q5 19 13.5 47t12.5 42t7.5 29t3.5 25q0 72 -129 72h-29l15 45h555l-15 -45h-37q-29 0 -51 -2t-40.5 -9.5t-31 -14t-25 -24t-19.5 -29t-17.5 -40.5t-16.5 -47.5t-18 -59.5l-100 -337l323 200l-22 -78z" />
    <glyph glyph-name="lslash" unicode="&#x142;" horiz-adv-x="491" 
d="M393 633l-117 -383q-36 -119 -36 -158q0 -33 13.5 -48t33.5 -15q40 0 91.5 58t88.5 153h45q-18 -46 -40.5 -87t-55 -85t-76 -70.5t-90.5 -26.5q-57 0 -89 37.5t-32 91.5q0 61 29 158l75 256l-153 -102l24 84l160 110l158 510q35 105 35 137q0 13 -4.5 22t-10 13.5
t-18 6.5t-21.5 2.5t-28 0.5h-37l12 41q151 0 246 37h22l-198 -655l207 147l-25 -84z" />
    <glyph glyph-name="OE" unicode="&#x152;" horiz-adv-x="1898" 
d="M1452 1311l-176 -576h168q98 0 154.5 55.5t107.5 174.5h45l-168 -539h-41q8 59 8 111t-9 83t-32.5 46.5t-50 19.5t-74.5 4h-122l-127 -420q-3 -10 -9.5 -33t-10.5 -36.5t-7.5 -30t-3.5 -25.5q0 -56 50.5 -78t152.5 -22h43q183 0 290 65.5t183 235.5h39l-109 -346h-780
q-108 0 -182 -8q-97 -10 -111 -10q-70 0 -139.5 18t-136.5 59.5t-118 101.5t-82.5 151t-31.5 202q0 141 69 305.5t181 290.5q54 61 112.5 107t115 72.5t103.5 43.5t97.5 23.5t76.5 8t60 1.5q43 0 133 -4q135 -6 213 -6h656l4 -309h-37q-16 56 -35.5 98.5t-37 70t-42.5 47
t-41.5 29t-47 14t-45.5 5t-49 0.5h-18h-188zM973 328l219 721q27 86 27 131q0 44 -21.5 75t-58 45t-70 19.5t-70.5 5.5q-276 0 -426 -238q-82 -130 -147.5 -320.5t-65.5 -340.5q0 -189 92.5 -296t221.5 -107q43 0 80 10.5t62.5 25.5t49 42.5t37.5 49t29 59t22 58t19 60.5z
" />
    <glyph glyph-name="oe" unicode="&#x153;" horiz-adv-x="980" 
d="M903 256h41q-18 -43 -44.5 -87.5t-65 -91.5t-91 -76.5t-108.5 -29.5q-96 0 -146 99q-88 -99 -178 -99q-70 0 -119 45t-69.5 108.5t-20.5 137.5q0 131 65 270t161 227.5t182 88.5q119 0 162 -176q64 88 129.5 132t118.5 44q51 0 79.5 -33t28.5 -82q0 -74 -60 -153
t-152 -139.5t-193 -94.5q-33 -101 -33 -190q0 -41 10.5 -69.5t26.5 -39.5t27.5 -14.5t21.5 -3.5q45 0 106.5 53t120.5 174zM635 391q90 27 163.5 87.5t110.5 125.5t37 119q0 42 -18 58t-39 16q-40 0 -79.5 -37t-72 -98t-58 -129.5t-44.5 -141.5zM217 156q0 -67 24.5 -105.5
t65.5 -38.5q50 0 90 56.5t84 189.5q23 67 66 222t43 216q0 56 -25.5 83.5t-60.5 27.5q-60 0 -116.5 -77t-92 -184.5t-57 -214.5t-21.5 -175z" />
    <glyph glyph-name="Scaron" unicode="&#x160;" horiz-adv-x="960" 
d="M147 455h41q3 -92 24 -166t54 -122t75.5 -80.5t86.5 -46t90 -13.5q98 0 180 68.5t82 185.5q0 48 -12.5 89.5t-40 79t-47.5 59t-57 56.5q-54 51 -79.5 76t-65 71.5t-58 82t-33 85.5t-14.5 103q0 100 50.5 192t136 148.5t181.5 56.5q171 0 256 -172q36 59 62 148h41
l-53 -398h-46q-1 95 -21.5 166.5t-49 110t-66.5 62.5t-67.5 31t-59.5 7q-98 0 -164.5 -77.5t-66.5 -186.5q0 -27 5.5 -52.5t12 -45t24.5 -45t28.5 -39.5t40.5 -44t44 -43t54 -50q50 -45 81 -78t65 -81t50.5 -104t16.5 -120q0 -96 -40 -174.5t-101.5 -124.5t-129 -70.5
t-129.5 -24.5q-181 0 -313 179q-47 -63 -68 -138h-49zM850 1608l315 243h37l-375 -391h-98l-16 391h20z" />
    <glyph glyph-name="scaron" unicode="&#x161;" horiz-adv-x="641" 
d="M535 221q0 -43 -16.5 -85.5t-48.5 -80t-88.5 -61t-129.5 -23.5q-56 0 -98.5 15t-64.5 39t-32 46.5t-10 43.5q0 23 13 45t42 22q54 0 54 -57q0 -10 -4.5 -28.5t-4.5 -22.5q0 -29 32 -45.5t71 -16.5q84 0 131 50t47 112q0 55 -33 119l-98 184q-37 71 -37 137q0 99 77 164.5
t173 65.5q72 0 122 -36.5t50 -76.5q0 -22 -12 -38.5t-33 -16.5t-30.5 14.5t-16.5 44.5q-3 14 -6.5 22t-12.5 20.5t-26.5 19t-42.5 6.5q-55 0 -98.5 -32t-43.5 -83q0 -64 54 -158l73 -131q48 -92 48 -178zM557 1108l315 244h37l-374 -391h-99l-16 391h20z" />
    <glyph glyph-name="Ydieresis" unicode="&#x178;" horiz-adv-x="1130" 
d="M276 950h-45q16 42 37 90t56.5 111t72.5 112t85 83t93 34q66 0 114 -80.5t48 -238.5q0 -74 -15.5 -207t-45.5 -268q16 38 41.5 92.5t75 153t106 187.5t120 174t132 136t127.5 51t97 -32.5t38 -83.5q0 -31 -18.5 -54.5t-46.5 -23.5q-21 0 -41.5 14.5t-20.5 50.5
q0 20 -2 32.5t-13 25t-32 12.5q-51 0 -136 -90t-171 -236q-196 -335 -256 -532l-70 -232q-20 -77 -20 -88q0 -31 16.5 -52.5t43 -30.5t45 -12t34.5 -3h59l-14 -45h-629l15 45h61q54 0 92 14t61.5 44t37 61t26.5 82l84 313q20 74 42 236.5t22 259.5q0 237 -70 237
q-37 0 -89.5 -69t-91 -145.5t-55.5 -127.5zM686 1632q0 35 24.5 59.5t59.5 24.5t60.5 -24.5t25.5 -59.5t-25.5 -59.5t-60.5 -24.5q-34 0 -59 24.5t-25 59.5zM1036 1632q0 34 24.5 59t59.5 25t59.5 -25t24.5 -59t-24.5 -59t-59.5 -25t-59.5 24.5t-24.5 59.5z" />
    <glyph glyph-name="Zcaron" unicode="&#x17d;" horiz-adv-x="1216" 
d="M1266 -137h45q-27 -165 -108.5 -252.5t-198.5 -87.5q-107 0 -181 70t-157 229q-25 48 -33.5 63t-34.5 59.5t-40.5 62.5t-42 49.5t-50 45.5t-53 25.5t-62.5 11.5q-15 0 -32.5 -2.5t-52 -12.5t-64 -38.5t-45.5 -71.5q-7 -19 -12.5 -30.5t-19.5 -24t-32 -12.5
q-20 0 -29.5 15t-9.5 26q0 16 23 57t63 90q127 154 389 363q112 89 153 122t137 111t144.5 120.5t118 105t117.5 113t86 97.5q-5 -1 -25.5 -6.5t-33.5 -8.5t-38.5 -6t-53.5 -3q-98 0 -240 33q-86 22 -176 22q-53 0 -95.5 -14t-67.5 -36t-38.5 -42t-19.5 -39h-50
q33 85 80 148.5t97.5 98t96.5 50.5t87 16q46 0 95.5 -17.5t84.5 -37.5t100 -63q91 -58 140 -58q43 0 71 27t37 61q21 88 64 88q14 0 26.5 -9.5t12.5 -35.5q0 -31 -44 -97.5t-80 -109t-61 -69.5q-110 -120 -227.5 -221.5t-464.5 -378.5q-13 -9 -74.5 -59t-145.5 -125
t-128 -125q3 1 18.5 8t23.5 10t26 9.5t32.5 9.5t35.5 5.5t42 2.5q40 0 78.5 -10t68 -22.5t63 -40t54.5 -47t53.5 -59t49 -61.5t49.5 -68q28 -38 47.5 -61t56.5 -58t81.5 -53t94.5 -18q49 0 84 15.5t53.5 44.5t26.5 51t15 55zM1071 1608l315 243h37l-374 -391h-99l-16 391h20
z" />
    <glyph glyph-name="zcaron" unicode="&#x17e;" horiz-adv-x="874" 
d="M324 639h-37q10 31 19.5 54t28 54.5t39.5 51.5t54.5 34.5t73.5 14.5q37 0 69.5 -12t44.5 -20t33 -25q4 -3 15.5 -12t18 -13.5t18 -11t23.5 -9t26 -2.5q55 0 73 60q5 14 8 21t12.5 15.5t22.5 8.5t20 -8.5t7 -18.5q0 -64 -262 -289l-262 -221q-54 -46 -86 -74.5t-75 -74.5
t-67 -84q3 2 10 6t10 5.5l9 4.5t10.5 4t11.5 3t13.5 3t16 1.5t20.5 0.5q59 0 121.5 -32.5t142.5 -93.5q40 -30 62 -44.5t55.5 -27t66.5 -12.5q34 0 58.5 11t36.5 24t19.5 34.5t8.5 32t2 27.5h35q1 -122 -59 -193.5t-148 -71.5q-34 0 -63.5 9.5t-50 21.5t-48.5 40.5t-42.5 47
t-47.5 60.5q-34 45 -52.5 66t-48 38.5t-61.5 17.5q-60 0 -98 -38q-15 -15 -22 -32.5t-13 -25.5t-22 -8q-6 0 -11.5 9t-5.5 22q0 73 108 192t310 285q184 148 291 244q-37 -11 -68 -11q-39 0 -124 7.5t-93 7.5q-44 0 -71.5 -4t-44 -17t-22.5 -21t-19 -32zM664 1108l315 244
h37l-375 -391h-98l-17 391h21z" />
    <glyph glyph-name="florin" unicode="&#x192;" horiz-adv-x="1024" 
d="M752 821h182l-16 -67h-181q-25 -137 -56.5 -272.5t-56 -225.5t-77.5 -281q-140 -493 -373 -493q-51 0 -88 28.5t-37 79.5q0 39 24.5 65t55.5 26q23 0 44.5 -17.5t21.5 -42.5q0 -14 -11.5 -31t-11.5 -28q0 -19 29 -19q32 0 58.5 24.5t45.5 71.5t30 85t25 95q1 6 2 9
q13 52 52 250.5t51 249.5l104 426h-180l17 67q48 3 69.5 5t48 10t36.5 16.5t26 31.5t25.5 48.5t25.5 73.5q22 63 37.5 103t42.5 90.5t54.5 79t68.5 49t90 20.5q54 0 97.5 -30t43.5 -87q0 -37 -22 -57.5t-48 -20.5q-25 0 -44 17t-19 40q0 15 10 35t10 29q0 11 -10.5 17.5
t-23.5 6.5q-17 0 -31.5 -5t-26.5 -17.5t-21 -26t-17.5 -37.5t-14 -44.5t-12.5 -55.5t-11.5 -61t-11.5 -70q-2 -11 -3 -17l-2.5 -15t-2.5 -17z" />
    <glyph glyph-name="circumflex" unicode="&#x2c6;" horiz-adv-x="681" 
d="M612 1223l-313 -246h-39l375 391h98l17 -391h-21z" />
    <glyph glyph-name="caron" unicode="&#x2c7;" horiz-adv-x="681" 
d="M547 1124l315 244h37l-375 -391h-98l-16 391h20z" />
    <glyph glyph-name="uni02C9" unicode="&#x2c9;" horiz-adv-x="681" 
d="M35 1063h612v-92h-612v92z" />
    <glyph glyph-name="breve" unicode="&#x2d8;" horiz-adv-x="681" 
d="M391 1358h23q-7 -86 42 -129t132 -43q42 0 78.5 12.5t59.5 28t46 43.5t33 44t26 44h21q-13 -71 -39 -127t-55.5 -88t-64 -53t-62 -28t-53.5 -7q-33 0 -68 12t-67 35t-52 64.5t-20 93.5q0 40 20 98z" />
    <glyph glyph-name="dotaccent" unicode="&#x2d9;" horiz-adv-x="681" 
d="M471 1149q0 35 25.5 59.5t60.5 24.5q34 0 59 -24.5t25 -59.5t-25 -59.5t-59 -24.5q-35 0 -60.5 24.5t-25.5 59.5z" />
    <glyph glyph-name="ring" unicode="&#x2da;" horiz-adv-x="681" 
d="M764 1202q0 -78 -55.5 -133t-133.5 -55t-133 55t-55 133q0 77 55 132t133 55t133.5 -55t55.5 -132zM573 1333q-54 0 -90.5 -38.5t-36.5 -92.5q0 -55 38 -93t94 -38q54 0 91.5 37.5t37.5 91.5q0 57 -39 95t-95 38z" />
    <glyph glyph-name="ogonek" unicode="&#x2db;" horiz-adv-x="681" 
d="M297 14h70q-22 -18 -34 -29t-27 -37t-15 -54q0 -14 4 -32.5t18.5 -45.5t37 -49t64 -37.5t95.5 -16.5l22 -26q-22 -17 -38 -26.5t-49 -19.5t-72 -10q-90 0 -156.5 59t-66.5 136q0 41 16 74.5t46.5 58t45 33.5t39.5 22z" />
    <glyph glyph-name="tilde" unicode="&#x2dc;" horiz-adv-x="681" 
d="M274 1024h-28q0 119 54 180.5t140 61.5q40 0 75 -16.5t95 -61.5q4 -3 26 -20.5t32.5 -25t28.5 -16t32 -8.5q40 0 67.5 42t32.5 104h29q0 -108 -50.5 -175t-135.5 -67q-78 0 -170 76q-55 45 -75.5 57t-47.5 12q-40 0 -69.5 -39t-35.5 -104z" />
    <glyph glyph-name="hungarumlaut" unicode="&#x2dd;" horiz-adv-x="681" 
d="M334 975l-21 16l142 226q40 62 64.5 88t55.5 26q24 0 43 -16.5t19 -42.5q0 -21 -15 -43t-65 -64zM655 975l-20 16l143 226q37 61 63 87.5t58 26.5q22 0 42 -16.5t20 -42.5q0 -21 -15.5 -42.5t-66.5 -64.5z" />
    <glyph glyph-name="uni03A9" unicode="&#x3a9;" horiz-adv-x="1343" 
d="M1255 0h-464v242q70 37 124 102t85.5 143.5t47 159t15.5 160.5q0 265 -99.5 424.5t-289.5 159.5q-99 0 -176.5 -45t-125 -124.5t-72 -184.5t-24.5 -230q0 -120 32 -235.5t99 -209.5t156 -129v-233h-475v279h47q0 -41 3 -64t14 -47t36 -34.5t66 -10.5h231v63
q-160 65 -270.5 231.5t-110.5 383.5q0 306 158 481.5t412 175.5q103 0 194 -34t158 -94.5t116 -140.5t74 -174.5t25 -195.5q0 -88 -23 -179t-67 -177.5t-117.5 -158.5t-165.5 -111v-70h219q42 0 67 10.5t36 35t13.5 47t2.5 63.5h49v-279z" />
    <glyph glyph-name="uni03BC" unicode="&#x3bc;" horiz-adv-x="1024" 
d="M127 819h143v-436q0 -56 1 -87.5t6 -70t15.5 -58.5t28.5 -39t46 -26.5t67 -7.5q59 0 128 35.5t126 99.5v590h146v-557q0 -114 12 -144q16 -37 57 -38q63 0 80 123h41q-4 -45 -14 -80.5t-30.5 -72.5t-60 -58t-94.5 -21q-40 0 -67 14.5t-41 43.5t-20 59.5t-9 73.5
q-166 -191 -334 -191q-94 0 -157 90q-1 -118 5 -177.5t29 -174.5q15 -84 15 -102q0 -46 -26 -78.5t-68 -32.5q-43 0 -66 35.5t-23 75.5q0 29 15 96q1 3 7.5 30.5t8 36t7.5 37t8.5 44.5t6.5 46t6 54t3.5 55.5t1.5 63.5v749z" />
    <glyph glyph-name="pi" unicode="&#x3c0;" horiz-adv-x="878" 
d="M834 184q-19 -99 -56 -154t-88 -55q-65 0 -96 64q-35 63 -35 254v561h-209v-410q0 -298 -59 -397q-45 -72 -113 -72q-24 0 -41.5 18t-17.5 44q0 53 63 76q59 17 76.5 106t17.5 268v367h-47q-52 0 -82 -31t-43 -106l-45 12q3 122 53 190t140 68h559v-133h-178v-500
q0 -143 22 -204q9 -28 24.5 -43t33.5 -15q52 0 86 119z" />
    <glyph glyph-name="figuredash" unicode="&#x2012;" horiz-adv-x="1024" 
d="M-12 655h1048v-45h-1048v45z" />
    <glyph glyph-name="endash" unicode="&#x2013;" horiz-adv-x="1024" 
d="M84 535h1049v-46h-1049v46z" />
    <glyph glyph-name="emdash" unicode="&#x2014;" horiz-adv-x="2048" 
d="M84 535h2073v-46h-2073v46z" />
    <glyph glyph-name="quoteleft" unicode="&#x2018;" horiz-adv-x="491" 
d="M682 1335v-39q-68 -7 -124.5 -32t-90.5 -56t-57.5 -66t-33 -62t-9.5 -44q0 -45 39 -45q4 0 22 2t21 2q15 0 33.5 -5.5t39.5 -29.5t21 -63q0 -57 -33 -84t-74 -27q-67 0 -101 55t-34 128q0 63 25.5 124.5t72 113.5t120.5 87t163 41z" />
    <glyph glyph-name="quoteright" unicode="&#x2019;" horiz-adv-x="491" 
d="M231 786v39q84 9 149.5 43.5t99.5 77.5t50.5 79.5t16.5 59.5q0 45 -39 45q-4 0 -22 -2t-21 -2q-10 0 -23 4t-30.5 13t-29 30.5t-11.5 51.5q0 57 32.5 83.5t73.5 26.5q67 0 101 -54.5t34 -127.5q0 -63 -25.5 -124.5t-72 -114t-120.5 -87.5t-163 -41z" />
    <glyph glyph-name="quotesinglbase" unicode="&#x201a;" horiz-adv-x="491" 
d="M-43 -365v39q68 7 124.5 32t90.5 56t57.5 66t33 62t9.5 44q0 46 -39 46q-4 0 -22 -2.5t-21 -2.5q-10 0 -23 4t-30.5 13t-29 30.5t-11.5 51.5q0 57 33 83.5t74 26.5q67 0 101 -54.5t34 -127.5q0 -63 -25.5 -124.5t-72 -114t-120.5 -87.5t-163 -41z" />
    <glyph glyph-name="quotedblleft" unicode="&#x201c;" horiz-adv-x="937" 
d="M688 1335v-39q-68 -7 -124.5 -32t-90.5 -56t-57.5 -66t-33 -62t-9.5 -44q0 -45 39 -45q4 0 22 2t21 2q15 0 33.5 -5.5t39.5 -29.5t21 -63q0 -57 -33 -84t-74 -27q-67 0 -101 55t-34 128q0 63 25.5 124.5t72 113.5t120.5 87t163 41zM1141 1335v-39q-84 -9 -149.5 -43.5
t-99.5 -77.5t-50.5 -79.5t-16.5 -59.5q0 -45 39 -45q4 0 22 2t21 2q15 0 33.5 -5.5t39.5 -29.5t21 -63q0 -57 -32.5 -84t-73.5 -27q-67 0 -101 55t-34 128q0 63 25.5 124.5t72 113.5t120.5 87t163 41z" />
    <glyph glyph-name="quotedblright" unicode="&#x201d;" horiz-adv-x="937" 
d="M688 786v39q84 9 149.5 43.5t99.5 77.5t50.5 79.5t16.5 59.5q0 45 -39 45q-4 0 -22 -2t-21 -2q-10 0 -23 4t-30.5 13t-29.5 30.5t-12 51.5q0 57 33 83.5t74 26.5q67 0 101 -54.5t34 -127.5q0 -63 -25.5 -124.5t-72 -114t-120.5 -87.5t-163 -41zM236 786v39q68 7 124.5 32
t90.5 56t57.5 66t33 62t9.5 44q0 45 -39 45q-4 0 -22 -2t-21 -2q-10 0 -23 4t-30.5 13t-29 30.5t-11.5 51.5q0 57 32.5 83.5t73.5 26.5q67 0 101 -54.5t34 -127.5q0 -63 -25.5 -124.5t-72 -114t-120 -87.5t-162.5 -41z" />
    <glyph glyph-name="quotedblbase" unicode="&#x201e;" horiz-adv-x="937" 
d="M412 -356v39q68 7 124.5 32t90.5 56t57.5 66t33 62t9.5 44q0 45 -39 45q-4 0 -22 -2t-21 -2q-15 0 -33.5 5.5t-39.5 29.5t-21 63q0 57 32.5 84t73.5 27q67 0 101.5 -55t34.5 -128q0 -63 -25.5 -124.5t-72 -113.5t-120.5 -87t-163 -41zM-41 -356v39q68 7 124.5 32t90.5 56
t57.5 66t33 62t9.5 44q0 45 -38 45q-4 0 -22 -2t-21 -2q-10 0 -23 3.5t-30.5 12.5t-29.5 30.5t-12 51.5q0 57 33 84t74 27q67 0 101 -55t34 -128q0 -63 -25.5 -124.5t-72 -113.5t-120.5 -87t-163 -41z" />
    <glyph glyph-name="dagger" unicode="&#x2020;" horiz-adv-x="937" 
d="M252 -465h-39l31 96q56 175 135 525q27 119 38 170.5t22.5 139t11.5 163.5q47 42 87.5 104.5t59.5 118.5q-58 0 -139 -33t-104 -40t-52 -7q-45 0 -75.5 24t-30.5 62q0 37 29.5 64.5t82.5 27.5q22 0 44.5 -6t109.5 -33q73 -22 145 -24q19 51 19 149q0 9 -3 59t-3 58
q0 63 13 106t34.5 61t37.5 24t33 6q37 0 66 -26.5t29 -70.5q0 -38 -20 -81.5t-83 -129.5q-28 -38 -39 -54.5t-25 -43.5t-24 -57q49 0 81 6.5t89 26.5q86 28 133 28q44 0 72.5 -25t28.5 -59q0 -30 -25 -61t-82 -31q-25 0 -51.5 7.5t-93.5 33.5q-100 39 -162 39
q-10 -41 -10 -82q0 -15 2 -30t4 -25t7.5 -25t8 -21t9.5 -21.5t8 -18.5q-79 -117 -222 -518q-103 -291 -174 -529z" />
    <glyph glyph-name="daggerdbl" unicode="&#x2021;" horiz-adv-x="937" 
d="M530 -18q69 26 105 26q37 0 63.5 -22.5t26.5 -55.5q0 -37 -26.5 -57t-59.5 -20q-34 0 -94 24q-100 41 -176 35q-27 -74 -27 -211q0 -60 -12.5 -101.5t-32.5 -59t-35 -23.5t-29 -6q-30 0 -49.5 21.5t-19.5 57.5q0 59 47 123q33 46 48.5 69.5t35.5 59.5t33 70
q-72 0 -170 -35q-63 -22 -101 -22q-30 0 -55 19t-25 56q0 36 23.5 58t58.5 22q11 0 27.5 -3.5t28.5 -7t27.5 -9t19.5 -6.5q114 -37 178 -33q12 57 12 106q0 62 -37 115q94 70 146.5 194.5t52.5 231.5q0 47 -22 111q57 46 86 93.5t59 127.5q-75 -3 -145 -27q-7 -2 -19.5 -6.5
t-17.5 -6.5t-14.5 -5t-13.5 -4t-11 -3t-12 -2.5t-11 -1t-12 -0.5q-37 0 -62.5 21.5t-25.5 56.5q0 37 26.5 57.5t59.5 20.5q17 0 35.5 -5.5t44.5 -15.5t45 -16q1 0 16 -5t24 -7.5t30.5 -7.5t35.5 -4.5t39 0.5q25 74 25 211q0 60 12.5 101.5t32.5 58.5t35 23.5t28 6.5
q31 0 51.5 -21.5t20.5 -56.5q0 -65 -74 -159q-62 -79 -90 -164q74 0 176 37q53 20 95 20q29 0 53 -19.5t24 -56.5q0 -36 -22.5 -57t-57.5 -21q-17 0 -33 3.5t-40 12.5t-25 9q-120 37 -182 33q-12 -55 -12 -107q0 -58 34 -114q-91 -66 -143.5 -190t-52.5 -236q0 -51 22 -111
q-56 -43 -86.5 -92.5t-58.5 -128.5q73 3 149 31z" />
    <glyph glyph-name="bullet" unicode="&#x2022;" horiz-adv-x="724" 
d="M455 907q-104 0 -177 -73t-73 -177t73 -177.5t177 -73.5t178 73.5t74 177.5t-74 177t-178 73z" />
    <glyph glyph-name="onedotenleader" unicode="&#x2024;" horiz-adv-x="1024" 
d="M618 76q0 -43 -31.5 -74t-74.5 -31t-74.5 31t-31.5 74q0 44 31.5 75t74.5 31t74.5 -31t31.5 -75z" />
    <glyph glyph-name="twodotenleader" unicode="&#x2025;" horiz-adv-x="1024" 
d="M256 182q44 0 75 -31t31 -75t-31 -75.5t-75 -31.5t-75 31.5t-31 75.5t31 75t75 31zM768 182q44 0 75 -31t31 -75t-31 -75.5t-75 -31.5t-75 31.5t-31 75.5t31 75t75 31z" />
    <glyph glyph-name="ellipsis" unicode="&#x2026;" horiz-adv-x="2048" 
d="M453 76q0 -44 -31.5 -76.5t-75.5 -32.5t-76 32.5t-32 76.5q0 43 32 74.5t76 31.5t75.5 -31.5t31.5 -74.5zM1133 76q0 -44 -32.5 -76.5t-76.5 -32.5t-75 32t-31 77q0 43 31 74.5t75 31.5t76.5 -31.5t32.5 -74.5zM1812 76q0 -45 -31 -77t-75 -32t-76.5 32.5t-32.5 76.5
q0 43 32.5 74.5t76.5 31.5t75 -31.5t31 -74.5z" />
    <glyph glyph-name="perthousand" unicode="&#x2030;" horiz-adv-x="1961" 
d="M778 205q0 105 34 198t85.5 152.5t109.5 94t109 34.5q76 0 126 -65t50 -179q0 -103 -45.5 -211.5t-123 -182t-160.5 -73.5q-86 0 -135.5 66t-49.5 166zM881 115q0 -47 18 -75t53 -28q49 0 96 66t76.5 156.5t47.5 176t18 132.5q0 55 -20 78.5t-48 23.5q-57 0 -115.5 -102
t-92 -225.5t-33.5 -202.5zM180 899q0 105 34 198t85.5 152.5t109.5 94t109 34.5q76 0 126 -65t50 -178q0 -103 -45.5 -211.5t-123 -182t-160.5 -73.5q-87 0 -136 65.5t-49 165.5zM283 809q0 -46 18 -74t53 -28q49 0 96 66t76.5 156t47.5 175.5t18 132.5q0 55 -20 78.5
t-48 23.5q-57 0 -115.5 -102t-92 -225.5t-33.5 -202.5zM1448 205q0 105 34 198t85.5 152.5t109.5 94t109 34.5q76 0 126 -65t50 -179q0 -103 -46 -211.5t-123.5 -182t-160.5 -73.5q-86 0 -135 65.5t-49 166.5zM1550 115q0 -46 18.5 -74.5t53.5 -28.5q49 0 96 66t76.5 156.5
t47.5 176t18 132.5q0 55 -20 78.5t-48 23.5q-57 0 -115.5 -102t-92.5 -225.5t-34 -202.5zM229 0h-73l1132 1356h72z" />
    <glyph glyph-name="guilsinglleft" unicode="&#x2039;" horiz-adv-x="491" 
d="M346 68h-47l-174 372l367 363h59l-270 -385z" />
    <glyph glyph-name="guilsinglright" unicode="&#x203a;" horiz-adv-x="491" 
d="M240 803h47l174 -373l-367 -362h-59l270 385z" />
    <glyph glyph-name="fraction" unicode="&#x2044;" horiz-adv-x="319" 
d="M-176 0h-72l1131 1356h73z" />
    <glyph glyph-name="zero.superior" unicode="&#x2070;" 
d="M242 842q0 119 53 236.5t138.5 192.5t174.5 75q75 0 112.5 -61.5t37.5 -141.5q0 -105 -37 -203t-92 -164t-118 -105.5t-116 -39.5q-73 0 -113 63t-40 148zM334 762q0 -46 15 -72t42 -26q53 0 119 95t111 227.5t45 234.5q0 92 -58 92q-59 0 -125 -100.5t-107.5 -230
t-41.5 -220.5z" />
    <glyph glyph-name="four.superior" unicode="&#x2074;" 
d="M487 879h-260l15 43l456 426h60l-148 -422h15.5h12.5h9.5t7.5 0.5t5 1t4.5 1.5t3.5 2t4 3q11 11 20 29h47l-28 -84h-117l-49 -142q-13 -30 -13 -45q0 -10 48 -10h36l-12 -35h-278l12 35q72 0 78 8q5 4 26 60zM309 926h195l94 264l-4 4z" />
    <glyph glyph-name="five.superior" unicode="&#x2075;" 
d="M362 993h-49l140 338h335q-28 -57 -42.5 -67.5t-55.5 -10.5h-219l-65 -159l4 -4q43 26 100 26q74 0 127 -51t53 -129q0 -122 -99.5 -213.5t-238.5 -91.5q-83 0 -128.5 32.5t-45.5 65.5q0 15 13 27t36 12q48 0 72 -59q9 -21 22 -31t44 -10q55 0 108 50.5t84 121.5t31 133
q0 14 -2.5 28t-10 33.5t-26.5 32t-47 12.5q-80 0 -140 -86z" />
    <glyph glyph-name="six.superior" unicode="&#x2076;" 
d="M401 1065l5 -4q52 33 112 33q84 0 140.5 -55t56.5 -142q0 -111 -84.5 -188.5t-190.5 -77.5q-35 0 -69 11.5t-66.5 36t-53 71.5t-20.5 110q0 79 35.5 165.5t94 157.5t140.5 117t167 46q37 0 67.5 -7.5t47.5 -18t28.5 -22.5t15.5 -20.5t4 -13.5q0 -14 -12.5 -25.5
t-34.5 -11.5q-17 0 -30 7t-17.5 12.5t-11.5 17.5q-32 49 -70 49q-123 0 -254 -248zM319 788q0 -60 34 -90t79 -30q46 0 84 36.5t59 88t32 97.5t11 73q0 31 -11 51.5t-29.5 29t-32 11t-27.5 2.5q-98 0 -156 -107q-43 -79 -43 -162z" />
    <glyph glyph-name="seven.superior" unicode="&#x2077;" 
d="M367 1188h-52l72 174h49q-6 -15 -6 -19q0 -8 1.5 -10t10.5 -2h349v-20l-355 -557q-51 -82 -71.5 -102.5t-49.5 -20.5q-51 0 -51 35q0 10 32 53q10 15 17 24l385 510h-243q-42 0 -57 -12t-31 -53z" />
    <glyph glyph-name="eight.superior" unicode="&#x2078;" 
d="M412 1008l30 6q-23 13 -38 24t-31.5 40t-16.5 67q0 75 70.5 138t175.5 63q79 0 127.5 -43.5t48.5 -104.5q0 -16 -3 -33t-15 -42.5t-31.5 -47.5t-56.5 -42.5t-86 -31.5v-4q106 -47 106 -147q0 -83 -77.5 -151t-194.5 -68q-91 0 -151 50t-60 118q0 48 22.5 88t57.5 64
t66 38t57 19zM459 1100v-17.5t3.5 -19.5t10 -21t21 -13.5t34.5 -6.5q36 0 66 27.5t47 66t26 72.5t9 53q0 68 -74 68q-34 0 -63 -26.5t-45.5 -63.5t-25.5 -69.5t-9 -49.5zM311 758q0 -26 9 -44.5t19 -27t27.5 -13t25.5 -5t22 -0.5q57 0 98.5 40.5t59.5 93.5t18 107
q0 16 -5.5 31t-29.5 30t-63 15q-80 0 -123 -63q-23 -32 -40.5 -83.5t-17.5 -80.5z" />
    <glyph glyph-name="nine.superior" unicode="&#x2079;" 
d="M580 918l-5 4q-50 -35 -106 -35q-86 0 -138 57.5t-52 140.5q0 110 82 185.5t186 75.5q24 0 48.5 -5t53 -19.5t50 -37.5t35.5 -63.5t14 -92.5q0 -51 -17 -115t-51.5 -131t-81 -123t-111.5 -92t-137 -36t-107.5 27.5t-35.5 54.5q0 20 16 31.5t37 11.5q40 0 59 -41
q10 -27 19 -37t31 -10q94 0 208 243q0 1 0.5 2t1.5 2.5t1 2.5zM375 1008q0 -46 28 -65t68 -19q89 0 143 92q45 77 45 174q0 57 -28 88t-74 31q-44 0 -80.5 -34.5t-57.5 -84.5t-32.5 -98.5t-11.5 -83.5z" />
    <glyph glyph-name="parenleft.superior" unicode="&#x207d;" horiz-adv-x="405" 
d="M385 381l-37 -23q-94 170 -94 375q0 246 118 438t316 308l23 -27q-99 -75 -173 -171t-112 -179.5t-61.5 -174t-29 -146t-5.5 -105.5q0 -77 15.5 -160t39.5 -135z" />
    <glyph glyph-name="parenright.superior" unicode="&#x207e;" horiz-adv-x="405" 
d="M342 1458l37 21q94 -174 94 -375q0 -228 -109.5 -421.5t-324.5 -324.5l-25 29q105 78 183 180.5t120 208t61 201.5t19 186q0 78 -16.5 163t-38.5 132z" />
    <glyph glyph-name="n.superior" unicode="&#x207f;" horiz-adv-x="555" 
d="M659 766h33q-21 -35 -37 -57.5t-51 -47t-74 -24.5q-27 0 -47 16t-20 56q0 35 26 104l68 178q27 72 27 94q0 15 -6.5 23t-12 9t-14.5 1q-58 0 -133.5 -111t-128.5 -262l-35 -100h-82l119 348q35 105 35 113t-11 8q-47 0 -104 -94h-29q9 16 22.5 35.5t34.5 43.5t47.5 40
t51.5 16q26 0 38.5 -11t12.5 -42q0 -24 -22 -101l4 -4q62 87 104 122.5t96 35.5q88 0 88 -80q0 -31 -26 -100l-60 -170q-38 -103 -38 -115q0 -16 18 -16q47 0 106 92z" />
    <glyph glyph-name="zero.inferior" unicode="&#x2080;" 
d="M121 195q0 120 53 237.5t138.5 192.5t174.5 75q75 0 112.5 -62t37.5 -142q0 -105 -37 -203t-92 -164t-118 -105.5t-116 -39.5q-73 0 -113 63t-40 148zM213 115q0 -46 15 -72.5t42 -26.5q53 0 119 95t111 227.5t45 234.5q0 95 -58 95q-59 0 -125 -100.5t-107.5 -230.5
t-41.5 -222z" />
    <glyph glyph-name="one.inferior" unicode="&#x2081;" 
d="M500 700h53l-213 -608q-12 -32 -12 -41q0 -10 7.5 -12t39.5 -2h55l-12 -37h-318l13 37h43q49 0 55 6q7 5 27 59l149 426q14 43 14 52q0 15 -14 21.5t-49 6.5h-47l12 37q142 0 197 55z" />
    <glyph glyph-name="two.inferior" unicode="&#x2082;" 
d="M500 72l-37 -109h-41q0 19 -4 29q-2 8 -58 8h-307q-1 32 7.5 44.5t50.5 45.5q236 182 320.5 281t84.5 184q0 41 -30 74t-87 33q-48 0 -84 -26.5t-36 -62.5q0 -24 10 -40t20 -23t10 -10q0 -12 -27 -30.5t-46 -18.5q-28 0 -44 28t-16 58q0 58 63 109.5t171 51.5
q105 0 154 -44t49 -105q0 -102 -127 -213q-25 -22 -156 -121.5t-147 -112.5l-39 -26v-4h346z" />
    <glyph glyph-name="three.inferior" unicode="&#x2083;" 
d="M393 395v-4q41 -6 70.5 -22t43.5 -38.5t19.5 -42.5t5.5 -40q0 -101 -95.5 -182.5t-225.5 -81.5q-67 0 -125.5 25t-58.5 61q0 21 14.5 32t34.5 11q17 0 31 -8t20 -15.5t6 -9.5q17 -24 25 -34t23.5 -18t37.5 -8q51 0 93.5 30.5t65.5 74.5t35.5 84t12.5 67q0 32 -16.5 58
t-53.5 26q-32 0 -71 -26q-38 -25 -54 -25q-28 0 -28 21q0 10 9 16t58 29q140 66 190 105.5t50 103.5q0 78 -111 78q-58 0 -83 -27.5t-25 -59.5q0 -20 8 -36q8 -10 8 -15q0 -8 -23 -23.5t-36 -15.5q-21 0 -35 21.5t-14 50.5q0 61 62 101t161 40q91 0 142.5 -33t51.5 -81
q0 -26 -12.5 -49t-29.5 -39.5t-51 -36t-58.5 -31.5t-71.5 -33z" />
    <glyph glyph-name="four.inferior" unicode="&#x2084;" 
d="M367 231h-261l15 43l457 426h59l-148 -421h15.5h12.5h9.5t7.5 0.5t5 1t4.5 1.5t3.5 2t4 3q12 12 20 28h47l-28 -84h-117l-49 -141q-12 -28 -12 -45q0 -10 47 -10h37l-13 -35h-278l12 35q72 0 78 8q7 5 27 59zM188 279h195l94 264l-4 4z" />
    <glyph glyph-name="five.inferior" unicode="&#x2085;" 
d="M242 346h-49l139 338h336q-28 -56 -43 -67t-56 -11h-219l-65 -160l4 -4q45 27 100 27q74 0 127 -51t53 -129q0 -122 -99.5 -213.5t-238.5 -91.5q-83 0 -128.5 32.5t-45.5 65.5q0 15 13 27t36 12q48 0 72 -60q9 -21 22 -31t44 -10q55 0 108 51t84 122t31 133q0 14 -2.5 28
t-10 33.5t-26.5 32t-47 12.5q-79 0 -139 -86z" />
    <glyph glyph-name="six.inferior" unicode="&#x2086;" 
d="M295 418l4 -4q51 32 113 32q84 0 140 -54.5t56 -141.5q0 -111 -84 -188.5t-190 -77.5q-35 0 -69 11.5t-66.5 36t-53 71.5t-20.5 110q0 79 35.5 165.5t93.5 157t140 116.5t167 46q37 0 67.5 -7.5t48 -18t29 -22.5t15.5 -20.5t4 -13.5q0 -13 -12.5 -24.5t-34.5 -11.5
q-17 0 -30 6.5t-18 12.5t-12 17q-32 50 -69 50q-123 0 -254 -248zM213 141q0 -60 34 -90.5t79 -30.5q46 0 84 36.5t59 88t32 97.5t11 73q0 31 -11 51.5t-29.5 29t-32 11.5t-27.5 3q-98 0 -156 -107q-43 -79 -43 -162z" />
    <glyph glyph-name="seven.inferior" unicode="&#x2087;" 
d="M246 541h-51l71 176h49q-6 -18 -6 -19q0 -9 2.5 -11.5t12.5 -2.5h346v-20l-353 -558q-52 -82 -72.5 -102t-49.5 -20q-52 0 -52 34q0 9 8 20.5t42 57.5l387 510h-246q-41 0 -56.5 -12.5t-31.5 -52.5z" />
    <glyph glyph-name="eight.inferior" unicode="&#x2088;" 
d="M291 360l31 7q-23 13 -38 24t-31.5 40t-16.5 67q0 75 70 137.5t175 62.5q79 0 127.5 -43t48.5 -104q0 -16 -3 -33t-15 -42.5t-31.5 -47.5t-56.5 -42.5t-86 -31.5v-4q106 -47 106 -147q0 -83 -77.5 -151t-194.5 -68q-91 0 -151 50t-60 118q0 39 15.5 73t38.5 56t52 39.5
t53 26.5t44 13zM338 453q0 -12 0.5 -17.5t3.5 -19t10 -21t21.5 -14t34.5 -6.5q36 0 66 27.5t46.5 66t25.5 72.5t9 53q0 68 -74 68q-34 0 -63 -26.5t-45.5 -63.5t-25.5 -69.5t-9 -49.5zM190 111q0 -91 103 -91q57 0 98.5 40.5t59.5 94t18 107.5q0 16 -5.5 31t-29.5 30t-63 15
q-79 0 -123 -64q-23 -32 -40.5 -83.5t-17.5 -79.5z" />
    <glyph glyph-name="nine.inferior" unicode="&#x2089;" 
d="M459 272l-4 4q-48 -34 -107 -34q-86 0 -138 57.5t-52 140.5q0 110 82 185t186 75q32 0 62.5 -9t64 -30.5t54 -67.5t20.5 -110q0 -51 -17 -115t-51.5 -131t-81 -123t-111.5 -92t-137 -36t-107.5 27.5t-35.5 54.5q0 20 16 31.5t37 11.5q41 0 60 -41q10 -28 18.5 -37.5
t30.5 -9.5q94 0 211 249zM254 362q0 -83 96 -83q90 0 144 92q45 77 45 174q0 57 -28.5 88t-74.5 31q-44 0 -80.5 -34.5t-57.5 -84.5t-32.5 -99t-11.5 -84z" />
    <glyph glyph-name="parenleft.inferior" unicode="&#x208d;" horiz-adv-x="405" 
d="M264 -262l-37 -21q-94 166 -94 373q0 246 118 438t316 308l25 -27q-84 -63 -149.5 -139t-105.5 -152t-67.5 -146.5t-39.5 -139.5t-16.5 -114t-4.5 -85q0 -77 15.5 -160t39.5 -135z" />
    <glyph glyph-name="parenright.inferior" unicode="&#x208e;" horiz-adv-x="405" 
d="M221 815l37 21q94 -170 94 -373q0 -229 -109.5 -422t-324.5 -324l-22 27q105 78 182.5 180.5t118.5 208t60 201.5t19 186q0 78 -16.5 163t-38.5 132z" />
    <glyph glyph-name="colonmonetary" unicode="&#x20a1;" horiz-adv-x="1236" 
d="M504 8l-70 -225h-47l76 244q-124 64 -192 195t-68 270q0 117 35.5 239t99.5 229.5t147 196t185 146t207 71.5l63 203h49l-61 -197q101 2 178 -26l70 223h47l-74 -242q91 -54 141 -168q51 84 68 156h43l-88 -393h-43q2 27 2.5 54.5t-5 73.5t-18.5 85.5t-41.5 80.5
t-70.5 68l-392 -1265q51 8 98 30t82.5 47.5t70 64t56.5 68.5t45.5 71.5t33.5 62t24 51.5h45l-137 -438h-43q0 53 -8 135q-126 -124 -281 -139l-61 -197h-47l59 192q-93 0 -178 33zM913 1331l-389 -1257q69 -48 172 -51l398 1292q-48 24 -117 24q-40 0 -64 -8zM487 109
l373 1210q-102 -33 -187 -123t-136.5 -197.5t-87.5 -227t-50 -208.5t-14 -143q0 -113 31.5 -191.5t70.5 -119.5z" />
    <glyph glyph-name="Euro" unicode="&#x20ac;" horiz-adv-x="1024" 
d="M987 770l-16 -57h-631q-5 -16 -10.5 -49.5t-7.5 -42.5h628l-16 -60h-623q-10 -92 -10 -153q0 -182 59 -279q35 -53 88.5 -81t116.5 -28q44 0 89 17t93 52.5t92 101.5t76 155h43q-119 -371 -407 -371q-193 0 -297 156q-96 143 -96 352q0 24 4 78h-78l16 60h68q8 52 16 92
h-90l17 57h90q48 163 149 305q190 279 432 279q116 0 176 -47q80 -58 103 -156q24 47 47 149h45l-86 -389h-43q4 36 4 52q0 97 -9.5 157.5t-39.5 102.5q-69 90 -178 90q-121 0 -226 -105q-119 -115 -194 -354q-21 -66 -25 -84h631z" />
    <glyph glyph-name="afii61289" unicode="&#x2113;" horiz-adv-x="735" 
d="M715 213q-88 -238 -269 -238q-96 0 -161 62q-74 71 -74 225v180q-12 -16 -34 -40.5t-48 -53.5t-35 -39l-43 53q124 137 160 185v497q0 181 66.5 297.5t179.5 116.5q87 0 129.5 -57t42.5 -148q0 -106 -42 -230t-106 -237q-74 -132 -110 -174v-356q0 -93 32 -141.5
t80 -48.5q99 0 168 176zM559 1251q0 135 -90 135q-45 0 -71.5 -64t-26.5 -196v-389q2 5 26.5 48t38.5 71q57 101 90 208t33 187z" />
    <glyph glyph-name="trademark" unicode="&#x2122;" horiz-adv-x="2004" 
d="M461 547v33q74 -2 95.5 25t21.5 136v566h-93q-38 0 -60.5 -4t-45 -17.5t-34.5 -42.5t-17 -76h-27v189h674v-189h-25q-11 83 -41 111.5t-116 28.5h-93v-566q0 -109 21 -136t96 -25v-33h-356zM1047 1356h237l295 -635l287 635h227v-33q-56 -3 -77.5 -12t-29.5 -33t-8 -84
v-473q0 -91 19 -115.5t96 -25.5v-33h-346v33q78 0 98.5 24.5t20.5 116.5v524l-312 -698h-16l-321 684v-516q0 -37 0.5 -51.5t4 -35t9.5 -26t20 -13t32.5 -8.5t49.5 -1v-33h-286v33q22 0 38 0.5t28.5 5t20 7t13.5 13.5t8.5 17.5t4 26t1.5 31v40.5v459q0 33 -0.5 46.5
t-3.5 33.5t-9.5 27.5t-19.5 17t-32.5 13t-48.5 5.5v33z" />
    <glyph glyph-name="Omega" unicode="&#x2126;" horiz-adv-x="1343" 
d="M1255 0h-464v242q70 37 124 102t85.5 143.5t47 159t15.5 160.5q0 265 -99.5 424.5t-289.5 159.5q-99 0 -176.5 -45t-125 -124.5t-72 -184.5t-24.5 -230q0 -120 32 -235.5t99 -209.5t156 -129v-233h-475v279h47q0 -41 3 -64t14 -47t36 -34.5t66 -10.5h231v63
q-160 65 -270.5 231.5t-110.5 383.5q0 306 158 481.5t412 175.5q103 0 194 -34t158 -94.5t116 -140.5t74 -174.5t25 -195.5q0 -88 -23 -179t-67 -177.5t-117.5 -158.5t-165.5 -111v-70h219q42 0 67 10.5t36 35t13.5 47t2.5 63.5h49v-279z" />
    <glyph glyph-name="estimated" unicode="&#x212e;" horiz-adv-x="1267" 
d="M1194 563h-870v-407q124 -127 309 -127q136 0 246.5 69.5t183.5 196.5l55 -33q-98 -144 -210 -215.5t-275 -71.5q-166 0 -292.5 79t-192.5 212t-66 297q0 165 65 298t191 212.5t293 79.5q129 0 234 -45.5t174.5 -126t109.5 -187t45 -231.5zM942 618v351
q-131 131 -311 131q-184 0 -307 -129v-353h618z" />
    <glyph glyph-name="onethird" unicode="&#x2153;" horiz-adv-x="1792" 
d="M1415 395v-4q41 -6 70.5 -22t43.5 -38.5t19.5 -42.5t5.5 -40q0 -101 -95.5 -182.5t-225.5 -81.5q-67 0 -125.5 25t-58.5 61q0 21 14.5 32t34.5 11q17 0 31 -8t20 -15.5t6 -9.5q17 -24 25 -34t23.5 -18t37.5 -8q51 0 93.5 30.5t65.5 74.5t35.5 84t12.5 67q0 32 -16.5 58
t-53.5 26q-32 0 -71 -26q-38 -25 -54 -25q-28 0 -28 21q0 10 9 16t58 29q140 66 190 105.5t50 103.5q0 78 -111 78q-58 0 -83 -27.5t-25 -59.5q0 -20 8 -36q8 -10 8 -15q0 -8 -23 -23.5t-36 -15.5q-21 0 -35 21.5t-14 50.5q0 61 62 101t161 40q91 0 142.5 -33t51.5 -81
q0 -26 -12.5 -49t-29.5 -39.5t-51 -36t-58.5 -31.5t-71.5 -33zM369 0h-74l1132 1356h74zM631 1346h53l-213 -607q-12 -42 -12 -45q0 -10 47 -10h55l-12 -37h-318l13 37h43q49 0 55 6q6 5 27 60l149 426q14 39 14 53t-13 19t-50 7l-47 2l10 35q148 0 199 54z" />
    <glyph glyph-name="twothirds" unicode="&#x2154;" horiz-adv-x="1792" 
d="M1436 395v-4q41 -6 70.5 -22t43.5 -38.5t19.5 -42.5t5.5 -40q0 -101 -96 -182.5t-226 -81.5q-67 0 -125.5 25t-58.5 61q0 21 14.5 32t34.5 11q17 0 31 -8t20.5 -15.5t6.5 -9.5q17 -24 25 -34t23.5 -18t37.5 -8q51 0 93.5 30.5t65.5 74.5t35 84t12 67q0 32 -16 58t-53 26
q-33 0 -72 -26q-38 -25 -53 -25q-10 0 -19.5 5t-9.5 16q0 10 9 15.5t59 29.5q139 65 189 105t50 104q0 78 -110 78q-58 0 -83.5 -27.5t-25.5 -59.5q0 -20 8 -36q9 -11 9 -15q0 -8 -23.5 -23.5t-36.5 -15.5q-21 0 -35 21.5t-14 50.5q0 61 62 101t161 40q91 0 143 -33t52 -81
q0 -26 -12.5 -49t-29.5 -39.5t-51 -36t-58.5 -31.5t-71.5 -33zM367 0h-74l1132 1356h74zM510 719l-37 -109h-41q0 19 -4 29q-2 8 -57 8h-308q-1 32 7.5 44.5t50.5 45.5q236 182 320.5 281t84.5 184q0 41 -29.5 74t-86.5 33q-48 0 -84.5 -26t-36.5 -62q0 -24 10.5 -40
t20.5 -23.5t10 -10.5q0 -12 -27.5 -30.5t-46.5 -18.5q-28 0 -43.5 28t-15.5 58q0 59 62.5 110.5t170.5 51.5q105 0 154 -44.5t49 -105.5q0 -102 -127 -213q-25 -22 -156 -121t-147 -112l-39 -27v-4h346z" />
    <glyph glyph-name="oneeighth" unicode="&#x215b;" horiz-adv-x="1792" 
d="M1335 360l31 7q-23 13 -38 24t-31.5 40t-16.5 67q0 75 70.5 137.5t175.5 62.5q79 0 127.5 -43t48.5 -104q0 -15 -3.5 -32.5t-15.5 -43t-31.5 -47.5t-56.5 -42.5t-86 -31.5v-4q107 -47 107 -147q0 -83 -78 -151t-195 -68q-91 0 -150.5 50t-59.5 118q0 48 22.5 88t57 63.5
t65 37.5t57.5 19zM1382 453q0 -12 0.5 -17.5t3.5 -19t10 -21t21.5 -14t34.5 -6.5q36 0 66 27.5t46.5 66t25.5 72.5t9 53q0 68 -73 68q-34 0 -63.5 -27t-46 -63.5t-25.5 -69t-9 -49.5zM1235 111q0 -91 102 -91q57 0 98.5 40.5t59.5 94t18 107.5q0 16 -5.5 31t-29.5 30t-63 15
q-79 0 -123 -64q-23 -32 -40 -83t-17 -80zM631 1346h53l-213 -607q-12 -42 -12 -45q0 -10 47 -10h55l-12 -37h-318l13 37h43q49 0 55 6q6 5 27 60l149 426q14 39 14 53t-13 19t-50 7l-47 2l10 35q148 0 199 54zM393 0h-74l1133 1356h72z" />
    <glyph glyph-name="threeeighths" unicode="&#x215c;" horiz-adv-x="1792" 
d="M1333 360l31 7q-23 13 -38 24t-31.5 40t-16.5 67q0 75 70.5 137.5t175.5 62.5q79 0 127.5 -43t48.5 -104q0 -15 -3.5 -32.5t-15.5 -43t-31.5 -47.5t-56.5 -42.5t-86 -31.5v-4q107 -47 107 -147q0 -83 -78 -151t-195 -68q-91 0 -151 50t-60 118q0 39 15.5 73t38.5 56
t52 39.5t53 26.5t44 13zM1380 453q0 -12 0.5 -17.5t3.5 -19t10 -21t21.5 -14t34.5 -6.5q36 0 66 27.5t46.5 66t25.5 72.5t9 53q0 68 -73 68q-34 0 -63.5 -27t-46 -63.5t-25.5 -69t-9 -49.5zM1233 111q0 -91 102 -91q57 0 98.5 40.5t59.5 94t18 107.5q0 16 -5.5 31t-29.5 30
t-63 15q-79 0 -123 -64q-23 -32 -40 -83t-17 -80zM463 1042v-4q41 -6 70.5 -22t43.5 -38.5t19.5 -42.5t5.5 -40q0 -101 -95.5 -182.5t-225.5 -81.5q-68 0 -126.5 25t-58.5 61q0 21 14.5 32t34.5 11q17 0 31 -8t20.5 -15.5t6.5 -9.5q16 -24 25 -34t24 -17.5t37 -7.5
q51 0 93.5 30.5t65.5 74.5t35.5 84t12.5 67q0 32 -16.5 58t-53.5 26q-31 0 -72 -27q-38 -25 -53 -25q-10 0 -19.5 5t-9.5 16q0 10 9 15.5t59 29.5q140 66 190 105.5t50 103.5q0 78 -111 78q-58 0 -83.5 -27t-25.5 -59q0 -19 9 -37q8 -10 8 -15q0 -8 -23.5 -23t-36.5 -15
q-21 0 -35 21t-14 50q0 61 62.5 101.5t161.5 40.5q91 0 142.5 -33.5t51.5 -81.5q0 -26 -12.5 -49t-29.5 -39.5t-51 -36t-58.5 -31.5t-71.5 -33zM367 0h-74l1132 1356h74z" />
    <glyph glyph-name="fiveeighths" unicode="&#x215d;" horiz-adv-x="1792" 
d="M1335 360l31 7q-23 13 -38 24t-31.5 40t-16.5 67q0 75 70.5 137.5t175.5 62.5q79 0 127.5 -43t48.5 -104q0 -15 -3.5 -32.5t-15.5 -43t-31.5 -47.5t-56.5 -42.5t-86 -31.5v-4q107 -47 107 -147q0 -83 -78 -151t-195 -68q-91 0 -150.5 50t-59.5 118q0 48 22.5 88t57 63.5
t65 37.5t57.5 19zM1382 453q0 -12 0.5 -17.5t3.5 -19t10 -21t21.5 -14t34.5 -6.5q36 0 66 27.5t46.5 66t25.5 72.5t9 53q0 68 -73 68q-34 0 -63.5 -27t-46 -63.5t-25.5 -69t-9 -49.5zM1235 111q0 -91 102 -91q57 0 98.5 40.5t59.5 94t18 107.5q0 16 -5.5 31t-29.5 30t-63 15
q-79 0 -123 -64q-23 -32 -40 -83t-17 -80zM252 993h-49l139 338h336q-28 -57 -42.5 -67.5t-55.5 -10.5h-220l-65 -159l4 -4q43 26 100 26q74 0 127.5 -51t53.5 -129q0 -122 -99.5 -213.5t-238.5 -91.5q-83 0 -128.5 32.5t-45.5 65.5q0 15 13 27t36 12q30 0 45.5 -16.5
t25.5 -42.5q9 -21 22 -31t44 -10q55 0 108 50.5t84 121.5t31 133q0 14 -2.5 28t-10 33.5t-26.5 32t-47 12.5q-79 0 -139 -86zM369 0h-74l1132 1356h72z" />
    <glyph glyph-name="seveneighths" unicode="&#x215e;" horiz-adv-x="1792" 
d="M1333 360l31 7q-23 13 -38 24t-31.5 40t-16.5 67q0 75 70.5 137.5t175.5 62.5q79 0 127.5 -43t48.5 -104q0 -15 -3.5 -32.5t-15.5 -43t-31.5 -47.5t-56.5 -42.5t-86 -31.5v-4q107 -47 107 -147q0 -83 -78 -151t-195 -68q-91 0 -151 50t-60 118q0 39 15.5 73t38.5 56
t52 39.5t53 26.5t44 13zM1380 453q0 -12 0.5 -17.5t3.5 -19t10 -21t21.5 -14t34.5 -6.5q36 0 66 27.5t46.5 66t25.5 72.5t9 53q0 68 -73 68q-34 0 -63.5 -27t-46 -63.5t-25.5 -69t-9 -49.5zM1233 111q0 -91 102 -91q57 0 98.5 40.5t59.5 94t18 107.5q0 16 -5.5 31t-29.5 30
t-63 15q-79 0 -123 -64q-23 -32 -40 -83t-17 -80zM352 1188h-51l72 174h49q-6 -15 -6 -19q0 -8 1.5 -10t10.5 -2h348v-20l-354 -557q-53 -83 -73 -103t-48 -20q-51 0 -51 35q0 9 7.5 20.5t41.5 56.5l385 510h-244q-42 0 -57 -12t-31 -53zM367 0h-74l1132 1356h74z" />
    <glyph glyph-name="partialdiff" unicode="&#x2202;" horiz-adv-x="942" 
d="M883 971q0 -123 -27.5 -280.5t-73.5 -278.5q-40 -103 -78 -176.5t-87.5 -136t-111 -94.5t-134.5 -32q-102 0 -175 58.5t-106 148.5t-33 199q0 115 31.5 219.5t88 183.5t141 125.5t184.5 46.5q108 0 178.5 -57.5t95.5 -126.5h4q8 93 8 168q0 58 -8 114t-27.5 111.5t-49 97
t-76 67.5t-105.5 26q-91 0 -159 -40.5t-127 -115.5l-37 37q32 47 61.5 81t75.5 73t105 60t128 21q87 0 149.5 -37t98 -106t51 -156t15.5 -200zM766 666q-11 36 -28 69.5t-44.5 68t-70.5 55t-95 20.5q-84 0 -156 -69t-114.5 -191.5t-42.5 -270.5q0 -144 57.5 -221.5
t145.5 -77.5q53 0 102 38t86.5 99.5t69.5 144t53.5 165.5t36.5 170z" />
    <glyph glyph-name="Delta" unicode="&#x2206;" horiz-adv-x="1107" 
d="M1071 0h-1032l467 1458h115zM885 82l-361 1120l-377 -1120h738z" />
    <glyph glyph-name="product" unicode="&#x220f;" horiz-adv-x="1277" 
d="M1206 -268h-426v49h35q61 0 79.5 38.5t18.5 114.5l2 1424h-555v-1424q0 -76 19 -114.5t80 -38.5h33v-49h-420v49h32q61 0 80 38.5t19 114.5v1297q0 31 -1.5 50.5t-7 41t-16 33.5t-29 20t-45.5 8h-32v50h1134v-50h-30q-27 0 -46.5 -8t-30 -20t-16 -33.5t-7 -41t-1.5 -50.5
v-1297q0 -29 1.5 -49t7.5 -41.5t16.5 -34t29 -20.5t44.5 -8h32v-49z" />
    <glyph glyph-name="summation" unicode="&#x2211;" horiz-adv-x="1015" 
d="M981 31l-25 -299h-936l-2 55l480 791l-463 802v54h891l16 -267h-45q-8 111 -34 150t-109 39h-547l416 -701l-478 -786h631q88 0 117 33.5t43 136.5z" />
    <glyph glyph-name="minus" unicode="&#x2212;" horiz-adv-x="1366" 
d="M238 709h1081v-107h-1081v107z" />
    <glyph glyph-name="uni2215" unicode="&#x2215;" horiz-adv-x="319" 
d="M-176 0h-72l1131 1356h73z" />
    <glyph glyph-name="uni2219" unicode="&#x2219;" horiz-adv-x="593" 
d="M315 678q0 43 31.5 74.5t75.5 31.5t75 -31t31 -75t-31.5 -74.5t-74.5 -30.5t-75 30.5t-32 74.5z" />
    <glyph glyph-name="radical" unicode="&#x221a;" horiz-adv-x="784" 
d="M582 1491l-154 -1516h-96l-201 695l-94 -64l-37 58l201 133l176 -641h4l137 1335h64z" />
    <glyph glyph-name="infinity" unicode="&#x221e;" horiz-adv-x="1351" 
d="M979 289q-106 0 -173 53.5t-120 151.5h-4q-120 -205 -299 -205q-117 0 -193.5 80t-76.5 204q0 126 73.5 207.5t190.5 81.5q184 0 285 -198h4q59 95 128.5 146.5t176.5 51.5q112 0 189 -79t77 -203q0 -125 -75 -208t-183 -83zM981 784q-20 0 -38.5 -3.5t-33 -7.5
t-30 -14.5t-25.5 -17t-24.5 -23t-22 -25t-22 -30.5t-20 -31l-22 -36t-22.5 -37q47 -94 107.5 -143t148.5 -49q91 0 140.5 61.5t49.5 144.5q0 92 -47 151.5t-139 59.5zM381 784q-88 0 -143.5 -57t-55.5 -152t51.5 -151.5t141.5 -56.5q45 0 84.5 22t73 64.5t50.5 70t42 74.5
q-35 77 -97 131.5t-147 54.5z" />
    <glyph glyph-name="integral" unicode="&#x222b;" horiz-adv-x="491" 
d="M463 1436q0 -23 -11.5 -42.5t-33.5 -19.5q-12 0 -21.5 3.5t-13 7t-16.5 14.5q-33 22 -54 22q-42 0 -45 -84q-1 -35 10.5 -134t16.5 -173q20 -238 20 -506q0 -306 -12 -461q-17 -267 -39 -344q-21 -75 -51.5 -113t-87.5 -38q-41 0 -74 25.5t-33 66.5q0 28 15 46t41 18
q21 0 45 -27q16 -19 43 -19q7 0 12 1.5t11.5 10t11 22.5t8 42.5t4.5 67.5q2 23 -1.5 61.5t-12.5 102t-11 84.5q-16 219 -16 450q0 174 10 424q8 309 29 432q17 78 52.5 117t84.5 39q51 0 85 -29t34 -67z" />
    <glyph glyph-name="approxequal" unicode="&#x2248;" horiz-adv-x="1366" 
d="M1264 905q-44 -106 -124.5 -169.5t-195.5 -63.5q-70 0 -141 19.5t-166 60.5q-117 55 -219 55q-89 0 -142.5 -36t-99.5 -114l-72 35q87 234 324 234q112 0 285 -74q133 -61 243 -61q81 0 135 36.5t99 112.5zM1264 496q-45 -105 -125 -168.5t-195 -63.5q-70 0 -141 19.5
t-166 60.5q-113 53 -219 53q-90 0 -143.5 -35t-98.5 -114l-72 37q87 233 324 233q112 0 285 -74q133 -61 243 -61q81 0 135 36.5t99 112.5z" />
    <glyph glyph-name="notequal" unicode="&#x2260;" horiz-adv-x="1363" 
d="M1233 342h-649l-181 -303h-116l180 303h-332v107h397l173 290h-570v107h635l191 321h118l-192 -321h346v-107h-412l-172 -290h584v-107z" />
    <glyph glyph-name="lessequal" unicode="&#x2264;" horiz-adv-x="1366" 
d="M1233 0h-1098v106h1098v-106zM1233 221l-1098 449v96l1098 448v-116l-942 -379l942 -379v-119z" />
    <glyph glyph-name="greaterequal" unicode="&#x2265;" horiz-adv-x="1366" 
d="M1233 0h-1098v106h1098v-106zM1233 670l-1098 -449v117l940 379l-940 379v116l1098 -446v-96z" />
    <glyph glyph-name="lozenge" unicode="&#x25ca;" horiz-adv-x="739" 
d="M719 715l-311 -740h-84l-301 740l301 743h86zM631 715l-264 633l-256 -633l256 -631z" />
    <glyph glyph-name="uni2014.alt" unicode="&#xe000;" horiz-adv-x="1536" 
d="M-10 559h1556v-94h-1556v94z" />
    <glyph glyph-name="one.fitted" unicode="&#xf6dc;" horiz-adv-x="917" 
d="M881 1346h57l-356 -1172q-23 -74 -23 -88q0 -15 6.5 -23.5t23 -12.5t29.5 -4.5t41 -0.5h68l-12 -45h-498l14 45h56q63 0 79 2t29 14q21 21 49 121l254 836q27 100 27 108q0 22 -12 37t-34.5 21.5t-39 8.5t-41.5 3l-59 2l14 43q235 0 328 105z" />
    <glyph glyph-name="R_p" unicode="&#xf6dd;" horiz-adv-x="2091" 
d="M1276 113l20 -47q-110 -84 -225 -84q-48 0 -86 12.5t-62 30.5t-41.5 47t-25.5 52.5t-12.5 57.5t-5 50.5t-0.5 43.5q0 51 -0.5 82.5t-2.5 69.5t-5 59.5t-9 47.5t-14.5 39.5t-21.5 29t-29 22.5t-38 14t-48.5 9t-59.5 2h-51l-121 -391q-28 -91 -28 -119q0 -31 17 -52
t43 -29.5t44.5 -11.5t34.5 -3h26l-12 -45h-549l13 45q37 0 64.5 4.5t48 10t36.5 20.5t26 27t21 39t17 46t18 58l262 862q31 105 31 127q0 43 -39 57.5t-109 14.5l15 45h354q158 0 229.5 -9t143.5 -49q70 -38 115 -102.5t45 -155.5q0 -27 -4 -54.5t-18 -64t-36.5 -68.5
t-62 -65t-92.5 -57q-62 -30 -132.5 -43t-187.5 -16v-4q69 -25 119.5 -62t76.5 -72t42 -82t20 -74.5t6 -66.5q10 -159 23 -197q16 -48 62 -55q10 -2 24 -2q51 0 131 56zM762 1313l-189 -617q22 -4 57 -1.5t77.5 4t90 13t94 26.5t88.5 44.5t74 66.5t51 93.5t19 124.5
q0 264 -362 246zM1348 412h-48l189 303q54 86 74.5 121t46 94.5t49.5 138.5l14 47h119l-68 -225l-84 -232l5 -4q131 193 253 193q74 0 126.5 -69.5t52.5 -172.5q0 -102 -38.5 -214.5t-100.5 -205t-148.5 -153t-175.5 -60.5q-112 0 -135 101h-4l-117 -387q-23 -74 -23 -88
q0 -15 6.5 -23.5t23.5 -12.5t30 -4.5t41 -0.5h45l-15 -43h-417l14 43q111 0 129 16q11 13 19 31.5t30 89.5l209 688q71 233 152 434l-5 4l-81 -141zM1571 391l-39 -133q-27 -83 -27 -127t24.5 -80.5t78.5 -36.5q66 0 125.5 58t99.5 142t70 178.5t43.5 167.5t13.5 108
q0 59 -20 94t-60 35q-34 0 -81 -30t-87 -75q-35 -42 -64.5 -101t-41.5 -94t-35 -106z" />
    <glyph glyph-name="cent.inferior" unicode="&#xf6df;" horiz-adv-x="405" 
d="M287 442l73 209h50l-72 -202q34 -3 56 -22t22 -44q0 -22 -14.5 -32.5t-32.5 -10.5q-20 0 -31 9.5t-13 21t-7.5 21t-16.5 9.5q-34 0 -67 -46t-60 -113q-21 -54 -30.5 -100.5t-3.5 -76.5t30 -30q40 0 78 33t67 94h47q-58 -153 -184 -172l-63 -180h-52l66 182
q-88 22 -88 121q0 102 73.5 200t172.5 129z" />
    <glyph glyph-name="cent.superior" unicode="&#xf6e0;" horiz-adv-x="405" 
d="M465 1087l74 209h49l-72 -202q34 -3 56 -22t22 -44q0 -22 -14.5 -32.5t-32.5 -10.5q-20 0 -31 9.5t-13 21.5t-7.5 21.5t-16.5 9.5q-63 0 -127 -160q-21 -54 -30.5 -100.5t-3.5 -76.5t30 -30q40 0 78.5 33t67.5 94h47q-8 -21 -19 -41t-32.5 -50.5t-56.5 -52.5t-77 -28
l-63 -180h-51l65 182q-88 22 -88 121q0 102 73.5 200t172.5 129z" />
    <glyph glyph-name="comma.inferior" unicode="&#xf6e1;" horiz-adv-x="319" 
d="M-31 -207v37q81 12 119 35q37 22 60.5 55.5t23.5 56.5q0 21 -20 21q-18 0 -29.5 1t-29.5 6.5t-27 19.5t-9 36q0 37 26 53.5t56 16.5q46 0 72.5 -33t26.5 -82q0 -30 -13 -63.5t-41.5 -69t-84.5 -61t-130 -29.5z" />
    <glyph glyph-name="comma.superior" unicode="&#xf6e2;" horiz-adv-x="319" 
d="M90 436v37q81 12 119 35q37 22 60.5 56t23.5 57q0 20 -21 20q-14 0 -23 0.5t-24 4t-24 9.5t-16 19t-7 31q0 37 26 53t56 16q46 0 72 -33t26 -82q0 -30 -13 -63.5t-41 -69t-84 -61t-130 -29.5z" />
    <glyph glyph-name="dollar.inferior" unicode="&#xf6e3;" horiz-adv-x="555" 
d="M152 61l104 299q-84 62 -84 148q0 62 51.5 115.5t145.5 66.5l10 29h51l-8 -25q68 -10 74 -12l14 37h51l-18 -53q40 -21 60 -45.5t20 -42.5q0 -12 -11.5 -21.5t-31.5 -9.5q-34 0 -64 41l-86 -250q27 -24 43.5 -41.5t33.5 -51.5t17 -69q0 -26 -10 -52t-32.5 -53.5t-67 -50
t-105.5 -32.5l-33 -94h-51l31 90q-43 0 -78 6l-33 -96h-51l37 108q-57 23 -81.5 48.5t-24.5 43.5q0 13 11.5 24t31.5 11q27 0 41.5 -13.5t42.5 -54.5zM289 459l67 196q-53 -17 -75.5 -50.5t-22.5 -69.5q0 -33 31 -76zM389 371l90 264q-33 27 -69 27l-82 -242zM268 16l88 263
q1 2 0 4.5t-2 4t-3.5 4t-5 3.5t-5.5 3t-5.5 3l-5 2t-3.5 2q-18 14 -31 23l-102 -299q30 -15 75 -13zM397 240l-75 -215q61 16 88.5 49t27.5 71q0 9 -1.5 18.5t-5 18t-6.5 15.5t-8 14.5t-7.5 11.5t-7 10t-5.5 7z" />
    <glyph glyph-name="dollar.superior" unicode="&#xf6e4;" horiz-adv-x="555" 
d="M299 705l104 299q-84 62 -84 147q0 62 51.5 115.5t145.5 66.5l10 29h52l-9 -25q68 -10 74 -12l14 37h52l-19 -53q40 -21 60 -45.5t20 -42.5q0 -12 -11.5 -21.5t-31.5 -9.5q-33 0 -63 41l-86 -250q27 -24 43.5 -41.5t33.5 -51.5t17 -69q0 -26 -10 -52t-32.5 -53.5t-67 -50
t-105.5 -32.5l-33 -94h-51l30 90q-42 0 -77 6l-33 -96h-51l37 108q-57 23 -82 48.5t-25 43.5q0 13 11.5 24t31.5 11q27 0 41.5 -13.5t42.5 -53.5zM436 1102l68 196q-53 -17 -75.5 -50.5t-22.5 -69.5q0 -34 30 -76zM537 1014l90 264q-33 27 -70 27l-82 -242zM416 659l88 263
q1 3 -0.5 6.5t-6.5 6.5t-8.5 5t-9 5t-6.5 3q-17 14 -31 23l-102 -299q30 -15 76 -13zM545 883l-76 -215q61 16 89 49t28 71q0 9 -1.5 18.5t-5 18t-6.5 15.5t-8 14.5t-7.5 11.5t-7 10t-5.5 7z" />
    <glyph glyph-name="hyphen.inferior" unicode="&#xf6e5;" horiz-adv-x="425" 
d="M90 276h338l-37 -61h-338z" />
    <glyph glyph-name="hyphen.superior" unicode="&#xf6e6;" horiz-adv-x="425" 
d="M211 918h338l-37 -62h-338z" />
    <glyph glyph-name="period.inferior" unicode="&#xf6e7;" horiz-adv-x="319" 
d="M80 57q0 28 24 48t56 20q33 0 56.5 -20t23.5 -48q0 -29 -23.5 -49t-56.5 -20q-32 0 -56 19.5t-24 49.5z" />
    <glyph glyph-name="period.superior" unicode="&#xf6e8;" horiz-adv-x="319" 
d="M201 700q0 28 23.5 48t56.5 20t56 -20t23 -48q0 -30 -23 -49.5t-56 -19.5q-32 0 -56 19.5t-24 49.5z" />
    <glyph glyph-name="a.superior" unicode="&#xf6e9;" horiz-adv-x="555" 
d="M590 1153h78l-117 -350q-23 -77 -23 -92q0 -25 23 -25q41 0 102 94h27q-29 -60 -75.5 -101.5t-84.5 -41.5q-34 0 -47.5 23.5t-13.5 50.5q0 24 12 59l-4 4q-26 -44 -79.5 -90.5t-106.5 -46.5q-43 0 -77 35t-34 98q0 69 34 142.5t83.5 127t106 88.5t100.5 35q31 0 52 -15.5
t25 -45.5h4zM250 750q0 -16 1 -25.5t5 -24.5t15.5 -22.5t29.5 -7.5q33 0 84.5 41t93.5 127q29 59 51.5 130.5t22.5 100.5t-14.5 45t-38.5 16q-54 0 -115 -74t-98 -163t-37 -143z" />
    <glyph glyph-name="b.superior" unicode="&#xf6ea;" horiz-adv-x="555" 
d="M274 864l160 484q19 57 19 63q0 14 -9.5 16.5t-64.5 2.5l8 26q2 0 26 1t39 2.5t41 6t48 11.5h16l-137 -412l4 -4q57 62 85 82t69 20q59 0 87.5 -46t28.5 -101q0 -90 -49 -179t-125.5 -144.5t-152.5 -55.5q-49 0 -84 28t-35 85q0 37 26 114zM317 727q0 -49 52 -49
q44 0 85 31.5t69.5 78t50.5 99t33 95.5t11 67q0 30 -13.5 51.5t-37.5 21.5q-97 0 -180 -182q-29 -64 -49.5 -129.5t-20.5 -83.5z" />
    <glyph glyph-name="d.superior" unicode="&#xf6eb;" horiz-adv-x="555" 
d="M655 774h37q-37 -63 -80 -100t-80 -37q-20 0 -33.5 6.5t-20 13.5t-10 24.5t-4 24.5t-1.5 29q-66 -59 -88 -73q-39 -25 -76 -25q-40 0 -65.5 24.5t-33 52t-7.5 56.5q0 90 50 183.5t122.5 151.5t138.5 58q24 0 37.5 -7.5t46.5 -35.5l84 256q7 21 9 32.5t-4.5 16.5t-12 5.5
t-25 0t-31.5 -0.5l8 26q95 0 148 23h20l-206 -629q-39 -121 -39 -139q0 -21 12 -21q52 0 104 84zM268 743q0 -61 47 -61q55 0 102.5 54t82.5 136q18 43 34.5 91.5t23.5 76t7 31.5q0 3 -0.5 7t-3.5 12.5t-8 15t-16.5 11.5t-26.5 5q-43 0 -89 -46t-78.5 -108.5t-53.5 -125.5
t-21 -99z" />
    <glyph glyph-name="e.superior" unicode="&#xf6ec;" horiz-adv-x="405" 
d="M467 807h31q-34 -69 -89.5 -119.5t-121.5 -50.5q-53 0 -87 34.5t-34 92.5q0 93 52 188t122.5 153t128.5 58q43 0 59.5 -24.5t16.5 -51.5q0 -33 -20.5 -66t-50.5 -57.5t-69.5 -47.5t-70 -37t-60.5 -27q-7 -3 -10 -4q-18 -45 -18 -98q0 -26 7.5 -43t20 -23t20 -8t15.5 -2
q89 0 158 133zM272 881q80 33 150 93t70 113q0 43 -41 43q-36 0 -89.5 -64.5t-89.5 -184.5z" />
    <glyph glyph-name="i.superior" unicode="&#xf6ed;" horiz-adv-x="319" 
d="M367 1427q0 22 17 38t40 16q24 0 39.5 -16t15.5 -38t-16 -37.5t-39 -15.5q-24 0 -40.5 15t-16.5 38zM416 786h30q-34 -62 -82 -105.5t-92 -43.5q-28 0 -52.5 18t-24.5 62q0 16 4.5 34t9 30t22.5 57l62 153q37 97 37 107q0 24 -23 24t-56 -32.5t-52 -67.5h-31
q40 74 85.5 107.5t80.5 33.5q33 0 52.5 -20t19.5 -49q0 -12 -3.5 -26.5t-6.5 -23.5t-13 -33.5t-14 -33.5l-62 -156q-37 -89 -37 -106q0 -19 11 -28t20 -9q47 0 115 108z" />
    <glyph glyph-name="l.superior" unicode="&#xf6ee;" horiz-adv-x="319" 
d="M395 799h29q-25 -61 -68 -111.5t-102 -50.5q-38 0 -59 23t-21 55q0 23 7 48t36 111l154 461q18 53 18 70q0 20 -11.5 23.5t-66.5 3.5l8 26q101 0 158 23h17l-209 -637q-33 -99 -33 -111q-2 -6 -2 -22q0 -15 5.5 -24t10.5 -11t10 -2q26 0 58.5 30.5t60.5 94.5z" />
    <glyph glyph-name="m.superior" unicode="&#xf6ef;" horiz-adv-x="854" 
d="M958 768h29q-28 -55 -72 -93t-88 -38q-27 0 -48 18.5t-21 53.5q0 34 30 116l60 164q29 67 29 90q0 39 -35 39q-73 0 -150 -108q-34 -47 -62 -105t-43 -99.5t-36 -107.5l-16 -53h-78l106 324q27 79 27 112q0 19 -9.5 28t-21.5 9t-25.5 -5.5t-27 -16t-25.5 -21t-24.5 -25
t-20 -23.5t-16.5 -21t-10 -13q-54 -77 -127 -288l-21 -60h-78l119 361q25 79 25 88q0 20 -15 20q-7 0 -18 -5t-35 -29t-49 -64h-29q35 65 80 102t78 37q20 0 36.5 -14t16.5 -45q0 -45 -39 -144l4 -4q39 82 103.5 144.5t120.5 62.5q32 0 52.5 -21t20.5 -59q0 -53 -26 -114
l4 -5q28 54 59.5 93.5t55 59t48.5 31t37.5 13.5t24.5 2q37 0 62.5 -22t25.5 -64q0 -24 -5.5 -45.5t-29.5 -85.5l-51 -135q-33 -85 -33 -103q0 -9 7.5 -17.5t17.5 -8.5q20 0 48 24.5t58 69.5z" />
    <glyph glyph-name="o.superior" unicode="&#xf6f0;" horiz-adv-x="491" 
d="M211 813q0 83 39 164.5t102.5 133.5t130.5 52q53 0 93 -43t40 -129q0 -138 -83 -246t-187 -108q-38 0 -65.5 16.5t-40.5 37t-20 50.5t-8 43.5t-1 28.5zM281 743q0 -28 16.5 -53.5t52.5 -25.5q50 0 91 55t62.5 128.5t32.5 129.5t11 74q0 43 -19 64.5t-49 21.5
q-45 0 -84.5 -47.5t-63 -114t-37 -129.5t-13.5 -103z" />
    <glyph glyph-name="r.superior" unicode="&#xf6f1;" horiz-adv-x="385" 
d="M244 1001h-27q24 60 65 111t85 51q30 0 42.5 -26t12.5 -58q0 -46 -29 -145l4 -4q4 14 28 64t32 63q12 21 21 34t24.5 32.5t33 29.5t35.5 10q22 0 36 -13.5t14 -31.5q0 -19 -11 -30t-28 -11q-18 0 -35 21q-12 6 -15 6q-25 0 -72.5 -91t-82 -179t-53.5 -146l-15 -43h-78
l103 318q20 61 25.5 80.5t5.5 41.5q0 37 -21 37q-20 0 -52 -40.5t-48 -80.5z" />
    <glyph glyph-name="s.superior" unicode="&#xf6f2;" horiz-adv-x="405" 
d="M506 786q0 -60 -48 -104.5t-134 -44.5q-70 0 -103 29t-33 57q0 14 9.5 27.5t27.5 13.5q19 0 27 -11t8 -24q0 -2 -3 -16t-3 -17q0 -13 20.5 -22.5t47.5 -9.5q40 0 77 23t37 73q0 24 -11.5 50t-59.5 110q-37 67 -37 104q0 59 50 98t114 39q47 0 78.5 -21.5t31.5 -45.5
q0 -14 -8.5 -23.5t-20.5 -9.5q-22 0 -28 24q-7 27 -18 38.5t-42 11.5q-36 0 -64 -18.5t-28 -47.5q0 -24 12.5 -51t51.5 -92q30 -49 39.5 -77.5t9.5 -62.5z" />
    <glyph glyph-name="t.superior" unicode="&#xf6f3;" horiz-adv-x="319" 
d="M510 1147v-27h-107l-86 -262q-45 -133 -45 -149q0 -15 8 -23t21 -8q24 0 61 40t68 103h29q-12 -27 -29 -55t-41 -59t-54.5 -50.5t-60.5 -19.5q-31 0 -51 20.5t-20 57.5q0 21 6 44.5t33 104.5l84 256h-88l8 27h90l59 180h78l-61 -180h98z" />
    <glyph glyph-name="dollar.oldstyle" unicode="&#xf724;" horiz-adv-x="681" 
d="M180 78l117 393q-94 86 -94 197q0 86 60.5 156.5t164.5 88.5l12 37h56l-11 -35q47 0 88 -14l17 49h55l-20 -71q47 -28 68.5 -60t21.5 -57q0 -20 -13.5 -33.5t-33.5 -13.5q-22 0 -38.5 15.5t-35.5 45.5l-98 -332q106 -106 106 -215q0 -84 -61.5 -155.5t-184.5 -93.5
l-37 -127h-57l37 120q-47 0 -90 9l-39 -129h-57l45 147q-47 19 -84 54t-37 69q0 19 12.5 34t32.5 15q29 0 45.5 -17.5t52.5 -76.5zM336 602l76 256q-57 -17 -85 -64t-28 -89q0 -47 37 -103zM451 489l104 345q-34 32 -84 32l-92 -311q5 -5 36 -33t36 -33zM313 25l101 337
q-18 21 -72 68l-117 -391q33 -16 88 -14zM457 315l-84 -280q42 11 71 32t41.5 45.5t17.5 43t5 34.5q0 12 -1.5 23t-5.5 22t-7 19t-9.5 18.5t-9.5 15.5t-10 15t-8 12z" />
    <glyph glyph-name="zero.oldstyle" unicode="&#xf730;" horiz-adv-x="937" 
d="M899 410q-11 -47 -37.5 -102.5t-72 -116t-101 -109.5t-131.5 -81t-156 -32q-73 0 -132 28t-95.5 75.5t-56 107t-19.5 125.5q0 136 70 271.5t192 225t256 89.5q52 0 104.5 -20.5t97 -59.5t72.5 -103t28 -143q0 -74 -19 -155zM766 516q20 103 20 150q0 74 -41.5 129
t-126.5 55q-80 0 -148 -55t-111 -135.5t-73.5 -173.5t-43.5 -167t-13 -118q0 -86 50 -138.5t122 -52.5q56 0 106 28.5t87 77.5t66.5 101.5t51 115.5t33.5 103.5t21 79.5z" />
    <glyph glyph-name="one.oldstyle" unicode="&#xf731;" horiz-adv-x="768" 
d="M330 856h422l-13 -41h-32q-52 0 -74 -8t-32.5 -25.5t-25.5 -68.5l-172 -570q-12 -37 -12 -53q0 -24 19 -36.5t48 -13t64 0.5l-12 -41h-430l12 41h39q34 0 49.5 2t33 12t28 31.5t22.5 60.5l170 566q12 40 12 53q0 33 -25 42t-106 7z" />
    <glyph glyph-name="two.oldstyle" unicode="&#xf732;" horiz-adv-x="917" 
d="M182 117h518l-57 -180h-43q2 14 2 23.5t-1 16.5t-6.5 11.5t-9.5 7t-15.5 3.5t-19 1h-24.5h-485v80q13 8 60 35.5t63 36.5t58.5 34.5t61 36.5t55.5 33.5t56.5 35.5t50 33t51 34.5t43 31t40.5 31.5q151 128 151 262q0 26 -9.5 52t-29 51t-56 41t-83.5 16q-48 0 -95 -16
t-81.5 -52t-34.5 -84q0 -34 16.5 -62.5t29 -38.5t38.5 -28q-31 -29 -51 -42t-43 -13q-27 0 -54.5 42t-27.5 93q0 99 93.5 173.5t231.5 74.5q129 0 215.5 -69t86.5 -163q0 -36 -13 -70t-28 -56t-44 -48.5t-41.5 -36t-39.5 -28.5q-51 -36 -242 -142t-287 -157v-4z" />
    <glyph glyph-name="three.oldstyle" unicode="&#xf733;" horiz-adv-x="897" 
d="M340 555l-84 -57q-26 6 -42 34t-20 50.5t-4 38.5q0 120 106.5 195t254.5 75q138 0 224.5 -62t86.5 -163q0 -38 -15 -74.5t-38 -63.5t-39 -41.5t-31 -25.5q-52 -39 -272 -166v-4q73 -3 114.5 -16.5t73.5 -45.5q40 -40 58 -91.5t18 -96.5q0 -62 -20.5 -130.5t-65.5 -138
t-108.5 -124.5t-158.5 -90t-206 -35q-130 0 -230 45.5t-100 112.5q0 22 13 44.5t43 22.5q24 0 38.5 -14t51.5 -70q70 -100 188 -100q88 0 160.5 39.5t117.5 99.5t76 134.5t43.5 139.5t12.5 119q0 64 -32.5 109t-88.5 45q-75 0 -154 -70q-32 -30 -51 -30q-10 0 -17 6t-8.5 12
t-1.5 12q0 26 39 45q203 117 276 173q145 112 165 235q4 23 4 47q0 67 -49.5 117.5t-137.5 50.5q-93 0 -163 -57t-70 -140q0 -34 9.5 -52t33.5 -44z" />
    <glyph glyph-name="four.oldstyle" unicode="&#xf734;" horiz-adv-x="917" 
d="M838 891l-254 -828h82q43 0 62 3t30 14q15 19 39 57h41l-41 -137h-232l-59 -195q-47 -159 -47 -182q0 -32 28 -39.5t103 -5.5l-12 -41h-426l12 41h41.5t31.5 2t26 4.5t19 9t17 14.5t13 22t13.5 30.5t12.5 40.5l90 299h-428v63l772 828h66zM63 63h386l186 615l-4 4z" />
    <glyph glyph-name="five.oldstyle" unicode="&#xf735;" horiz-adv-x="854" 
d="M369 856h524q-29 -67 -37.5 -82t-19.5 -24q-13 -11 -35 -14t-72 -3h-356l-131 -368l4 -5q35 27 57.5 41.5t64 28.5t87.5 14q120 0 203 -92.5t83 -253.5t-81.5 -294.5t-212.5 -207t-277 -73.5q-119 0 -210 52t-91 118q0 33 20 52t48 19q34 0 52.5 -22t61.5 -100
q19 -36 61 -57t81 -21q90 0 170 65t131.5 162t81.5 203t30 194q0 100 -45.5 157.5t-111.5 57.5q-14 0 -26.5 -1t-43 -10t-57.5 -25t-61.5 -50t-63.5 -81h-45z" />
    <glyph glyph-name="six.oldstyle" unicode="&#xf736;" horiz-adv-x="960" 
d="M356 731l4 -4q30 32 56.5 53t76.5 41.5t105 20.5q54 0 107 -23t99 -66.5t74.5 -118t28.5 -167.5q0 -92 -27.5 -173.5t-73.5 -140t-104 -101t-120 -63t-121 -20.5q-70 0 -127 25.5t-94.5 67t-63 96t-36.5 110t-11 111.5q0 134 42.5 278t116 268.5t165 224.5t199 158
t208.5 58q57 0 116 -19.5t100.5 -56.5t41.5 -80q0 -27 -15.5 -45t-43.5 -18t-49.5 21.5t-44.5 66.5q-12 25 -22.5 39.5t-38.5 29.5t-68 15q-38 0 -77 -16t-71 -39t-67 -64t-60 -74t-55.5 -87t-47.5 -85t-42.5 -87t-33 -74t-26.5 -62zM240 260q0 -113 57 -181.5t149 -68.5
q83 0 135.5 49.5t94.5 135.5q43 86 75.5 199.5t32.5 197.5q0 57 -19.5 100.5t-50 65.5t-61.5 32.5t-61 10.5q-166 0 -270 -209q-39 -82 -60.5 -174t-21.5 -158z" />
    <glyph glyph-name="seven.oldstyle" unicode="&#xf737;" horiz-adv-x="831" 
d="M776 729h-385q-46 0 -70.5 -0.5t-48.5 -7t-33.5 -11t-23.5 -24t-20 -34t-21 -52.5h-41l119 350h43q-14 -43 -14 -57q0 -9 2.5 -15.5t10 -10.5t13.5 -6.5t21 -3.5t25 -1h32h504l-594 -1108q-85 -161 -133 -203q-22 -22 -64 -22q-31 0 -44 16.5t-13 32.5q0 8 3 18.5t6 18
t10.5 21.5t10.5 19.5t12.5 20.5t10.5 17z" />
    <glyph glyph-name="eight.oldstyle" unicode="&#xf738;" horiz-adv-x="980" 
d="M692 684v-4q27 -13 45.5 -23t50.5 -35.5t52 -54t35.5 -76t15.5 -104.5q0 -113 -63 -210.5t-163 -152.5t-210 -55q-103 0 -182.5 48.5t-118.5 121.5t-39 154q0 13 1 26.5t9 50.5t22.5 69t45.5 74.5t73.5 75.5t111.5 64t154 47q-26 18 -39.5 28t-39.5 35.5t-40 50t-26 63.5
t-12 84q0 154 117.5 267t275.5 113q114 0 194 -77t80 -201q0 -74 -33 -148.5t-96 -132.5q-55 -52 -105.5 -71t-115.5 -27zM498 870q0 -87 42.5 -125t94.5 -38q65 0 119 45t90 118q33 63 50 137.5t17 135.5q0 70 -41.5 113.5t-105.5 43.5q-54 0 -101 -39.5t-76.5 -95.5
t-50.5 -119t-29.5 -109t-8.5 -67zM246 197q0 -87 62 -137t136 -50q49 0 94.5 20.5t69.5 47.5q53 58 102.5 174.5t49.5 243.5q0 85 -54.5 127.5t-127.5 42.5q-93 0 -159.5 -56.5t-107.5 -146.5q-33 -71 -49 -148t-16 -118z" />
    <glyph glyph-name="nine.oldstyle" unicode="&#xf739;" horiz-adv-x="960" 
d="M676 123l-4 4q-20 -22 -47.5 -43t-81.5 -43.5t-109 -22.5q-53 0 -107.5 25t-100 71t-74.5 119t-29 160q0 107 40 202t104 158.5t143.5 100.5t158.5 37q48 0 93.5 -13.5t89.5 -45t77 -78.5t53.5 -120t20.5 -163q0 -172 -72.5 -363t-226.5 -358q-209 -227 -428 -227
q-118 0 -186 58t-68 116q0 26 19.5 41.5t42.5 15.5q19 0 33 -7t27 -27.5t20 -36.5t22 -54q10 -25 40.5 -45t66.5 -20q248 0 483 559zM797 602q0 19 -3.5 45t-16.5 63t-33.5 67t-59 51.5t-88.5 21.5q-77 0 -140.5 -52t-101 -126t-63.5 -160.5t-35.5 -150t-9.5 -99.5
q0 -87 55 -145t137 -58q181 0 287 248q35 84 53.5 171.5t18.5 123.5z" />
    <glyph glyph-name="cent.oldstyle" unicode="&#xf7a2;" 
d="M416 586l82 274h55l-82 -266q32 -3 59 -28t27 -62q0 -28 -15.5 -44t-35.5 -16q-36 0 -49 37q-1 3 -3 22.5t-3 22.5l-146 -479q35 9 66.5 43t47 63.5t27.5 61.5h52q-7 -21 -14 -39t-26 -53t-40.5 -60.5t-57 -49t-75.5 -29.5l-72 -240h-55l73 242q-54 16 -76 62.5
t-22 101.5q0 74 28.5 151t71 135t91.5 99t92 51zM256 63l137 451q-58 -51 -105.5 -185.5t-47.5 -209.5q0 -36 16 -56z" />
    </font>
</defs>
</svg>
