<?xml version="1.0" standalone="no"?>
<!DOCTYPE svg PUBLIC "-//W3C//DTD SVG 1.1//EN" "http://www.w3.org/Graphics/SVG/1.1/DTD/svg11.dtd" >
<svg xmlns="http://www.w3.org/2000/svg" xmlns:xlink="http://www.w3.org/1999/xlink" version="1.1">
<metadata>
Created by FontForge 20170731 at Fri May 21 18:32:05 2021
 By Aleksey,,,
Font software Copyright 1994 Adobe Systems Incorporated. Typeface designs Copyright 1994 The Monotype Corporation. All rights reserved.
</metadata>
<defs>
<font id="BaskervilleMTStd-SemiBd" horiz-adv-x="598" >
  <font-face 
    font-family="Baskerville MT Std SemiBd"
    font-weight="600"
    font-stretch="normal"
    units-per-em="2048"
    panose-1="2 2 7 3 5 4 5 2 3 4"
    ascent="1397"
    descent="-651"
    x-height="819"
    cap-height="1356"
    bbox="-313 -506 2562 1835"
    underline-thickness="102"
    underline-position="-307"
    unicode-range="U+0020-FB04"
  />
<missing-glyph horiz-adv-x="1024" 
d="M25 0v1362h972v-1362h-972zM180 1266l332 -498l330 498h-662zM123 1178v-992q0 -1 82.5 123t164.5 249l83 124zM901 1178l-332 -496l332 -498v994zM842 98l-330 496l-332 -496h662z" />
    <glyph glyph-name="f_f" unicode="ff" horiz-adv-x="1366" 
d="M887 725h-416v-485q0 -48 3 -70t17.5 -42.5t45 -27t84.5 -6.5v-94h-555v94q43 0 70.5 6t43 14.5t23 29.5t9 39.5t1.5 56.5v485h-168v94h168v109q0 41 1 67t9.5 78.5t23.5 88.5t47.5 81t77 72.5t116 47t161.5 19.5q62 0 115.5 -11t85 -24.5t61.5 -36.5t41 -35t27 -32
q21 24 32.5 36t42 35t60.5 35t78.5 22.5t105.5 10.5q75 0 132 -16t87.5 -38.5t49.5 -52t24.5 -51.5t5.5 -42q0 -50 -31 -85.5t-87 -35.5q-27 0 -48 8.5t-34.5 20t-25.5 33.5t-18.5 38t-15.5 45q-25 82 -88 82q-25 0 -43.5 -7.5t-29.5 -24.5t-18 -32t-9.5 -41.5t-3 -42
t-0.5 -44.5v-277h180v-94h-180v-485q0 -32 1 -49t5.5 -37t14 -28.5t26.5 -17.5t42 -11.5t62 -2.5v-94h-553v94q35 0 59.5 3t40.5 12t25 18t13 29.5t5 36.5t1 47v485zM471 819h416v74q0 118 14 168q-54 -6 -86.5 14t-60.5 76q-18 36 -29 53.5t-30.5 40.5t-44.5 33t-58 10
q-20 0 -36 -4t-28 -9t-21 -16.5t-15 -20.5t-10 -27.5t-6.5 -30.5t-3.5 -36.5t-1 -39v-43.5v-242z" />
    <glyph glyph-name="fi" unicode="fi" horiz-adv-x="1323" 
d="M61 727v92h152v82q0 187 59 281q43 69 125.5 116t164 65.5t159.5 18.5q160 0 264.5 -64t104.5 -147q0 -49 -36.5 -81.5t-86.5 -32.5q-30 0 -55 11.5t-42.5 32t-27 37t-19.5 38.5q-14 30 -23.5 45.5t-27.5 34t-44.5 26.5t-63.5 8q-100 0 -146.5 -59.5t-46.5 -196.5v-215
h330q172 0 311 35h23v-616q0 -30 0.5 -43t3.5 -34t10.5 -30.5t21 -20t35 -14.5t51.5 -4h33v-92h-557v92q35 0 59.5 3t40.5 12.5t25 18.5t13 29t5 36t1 47v380q0 31 -9 53t-20.5 32.5t-34.5 16t-37.5 6.5t-42.5 1h-262v-489q0 -92 25.5 -119t121.5 -27v-92h-546v92
q35 0 59 3.5t39.5 13t24 18.5t12.5 29.5t5 35.5t1 46v489h-152z" />
    <glyph glyph-name="fl" unicode="fl" horiz-adv-x="1323" 
d="M471 727v-489q0 -32 1 -48t5 -36.5t13 -29t25.5 -17.5t41.5 -12t61 -3v-92h-544v92q34 0 58 3.5t39 13t23.5 19t12.5 29.5t5 35.5t1 45.5v489h-152v92h152v99q0 96 22.5 170t53.5 118q52 73 171.5 124.5t258.5 51.5q109 0 188 -26q103 0 213 26h15v-1144q0 -84 22 -115
t103 -31h30v-92h-557v92q50 0 78.5 6t43.5 25.5t18.5 43.5t3.5 71v489h-406zM471 1051v-232h406v275q-33 23 -72 102q-46 94 -141 94q-193 0 -193 -239z" />
    <glyph glyph-name="f_f_i" unicode="ffi" horiz-adv-x="1984" 
d="M469 725v-485q0 -28 0.5 -40.5t3 -32.5t8 -28t15.5 -19t26 -15.5t38.5 -7.5t53.5 -3v-94h-540v94q29 0 50.5 3.5t36.5 8t24.5 15.5t14.5 19.5t7.5 28t3 32t0.5 39.5v485h-166v94h166v96q0 113 9 176.5t44 120.5q38 63 107.5 103.5t132.5 53.5t127 13q66 0 123 -12t91 -26
t67 -38.5t44 -36t29 -32.5q70 66 158.5 105.5t230.5 39.5q97 0 173.5 -21.5t118.5 -55t63.5 -69t21.5 -69.5q0 -52 -40.5 -82t-84.5 -30q-90 0 -139 116q-15 33 -24.5 49.5t-28.5 37.5t-46.5 29.5t-66.5 8.5t-70 -10t-50.5 -24.5t-33.5 -37.5t-20 -40.5t-9.5 -44t-4 -38
t-0.5 -30.5v-252h253q288 0 388 33h24v-612v-37t2.5 -30.5t6.5 -28.5t13 -20.5t22 -17t33 -8.5t46 -4h31v-94h-553v94q35 0 59 3.5t39.5 13t24 18.5t12.5 29.5t5 35.5t1 46v364q0 71 -26 96t-101 25h-280v-485q0 -32 1 -48t5 -36.5t13 -29t26 -17.5t42 -12t62 -3v-94h-545
v94q29 0 50.5 3.5t36.5 8.5t24.5 16.5t14.5 20t7.5 28t3 31.5t0.5 38v485h-405zM469 1114v-295h405v72q0 115 19 174q-99 -11 -131 61q-28 54 -41 76t-34.5 49t-43 36t-51.5 9t-52 -8t-35 -24t-21 -31t-11 -40.5t-3.5 -39.5t-0.5 -39z" />
    <glyph glyph-name="f_f_l" unicode="ffl" horiz-adv-x="1984" 
d="M471 725v-485q0 -47 2.5 -68t16 -42.5t43.5 -28.5t83 -7v-94h-544v94q35 0 59.5 3.5t40 13.5t24 18.5t12.5 29.5t4.5 35.5t0.5 45.5v485h-168v94h168v66q0 223 43 307q16 32 42 61.5t70 60.5t113 49.5t154 18.5q238 0 352 -143q73 70 172.5 106.5t206.5 36.5
q106 0 203 -28q114 3 203 28h28v-1142v-37t2.5 -30.5t6.5 -28.5t13 -20.5t22 -17t33 -8.5t46 -4h29v-94h-553v94q52 0 81.5 7.5t43 29.5t16 42.5t2.5 66.5v485h-409v-485v-36.5t2 -29.5t5.5 -26.5t10.5 -19t18 -16t26.5 -10t37 -7t49.5 -1.5v-94h-545v94q34 0 57.5 3.5
t38.5 13.5t23.5 19t12.5 30t4.5 35t0.5 45v485h-403zM471 1077v-258h403v60q0 127 19 186q-32 -5 -57.5 2.5t-44.5 27t-28.5 33.5t-21.5 37q-19 36 -28.5 51.5t-28.5 38.5t-41.5 32t-52.5 9q-57 0 -94 -43q-17 -20 -21 -50.5t-4 -125.5zM1133 1036v-217h409v275
q-36 36 -59 92q-11 26 -19.5 40.5t-26.5 33.5t-45.5 27.5t-66.5 8.5q-32 0 -58 -6t-45 -14t-33.5 -24.5t-24 -28.5t-16 -35.5t-9.5 -36.5t-4.5 -40t-1.5 -38v-37z" />
    <glyph glyph-name=".notdef" horiz-adv-x="1024" 
d="M25 0v1362h972v-1362h-972zM180 1266l332 -498l330 498h-662zM123 1178v-992q0 -1 82.5 123t164.5 249l83 124zM901 1178l-332 -496l332 -498v994zM842 98l-330 496l-332 -496h662z" />
    <glyph glyph-name=".null" horiz-adv-x="0" 
 />
    <glyph glyph-name="nonmarkingreturn" horiz-adv-x="682" 
 />
    <glyph glyph-name="space" unicode=" " horiz-adv-x="512" 
 />
    <glyph glyph-name="exclam" unicode="!" horiz-adv-x="575" 
d="M131 123q0 66 45.5 112t110.5 46q66 0 111.5 -46.5t45.5 -111.5t-45.5 -110.5t-111.5 -45.5q-64 0 -110 45.5t-46 110.5zM332 451h-90l-78 655q-10 87 -10 135q0 75 40 111.5t91 36.5q58 0 96.5 -37t38.5 -111q0 -48 -10 -135z" />
    <glyph glyph-name="quotedbl" unicode="&#x22;" horiz-adv-x="1067" 
d="M786 750h-45l-100 362q-18 75 -18 125q0 59 40 101t99 42q64 0 102.5 -43.5t38.5 -95.5q0 -37 -24 -137zM328 750h-45l-101 362q-18 75 -18 125q0 59 40 101t99 42q64 0 102.5 -43.5t38.5 -95.5q0 -37 -24 -137z" />
    <glyph glyph-name="numbersign" unicode="#" horiz-adv-x="1366" 
d="M399 1001l82 392h166l-82 -392h375l82 392h166l-82 -392h178v-165h-213l-67 -326h280v-166h-315l-82 -389h-166l82 389h-375l-82 -389h-166l82 389h-180v166h215l68 326h-283v165h317zM905 836h-375l-67 -326h375z" />
    <glyph glyph-name="dollar" unicode="$" horiz-adv-x="1003" 
d="M428 70v497q-104 46 -172.5 92t-106 96t-52.5 100.5t-15 115.5q0 144 98.5 241t247.5 111v63h98v-61q76 -4 157 -32.5t141.5 -79.5t60.5 -109q0 -39 -28 -69.5t-64 -30.5q-17 0 -32 7.5t-23 14t-20.5 27.5t-15 26t-14.5 31q-21 46 -55.5 75.5t-106.5 41.5v-420
q75 -33 126.5 -58.5t108.5 -65t90.5 -80t56 -98t22.5 -124.5q0 -98 -47 -185.5t-141 -148t-216 -70.5v-241h-98v239q-149 6 -251.5 64t-102.5 133q0 36 27 66t69 30q20 0 36.5 -6.5t29 -21.5t20.5 -28t20 -36q25 -51 57.5 -74t94.5 -32zM428 854v373q-45 -8 -78 -27.5
t-48.5 -39t-24.5 -44t-10 -36t-1 -21.5q0 -33 14 -64t29.5 -50.5t44 -41.5t39.5 -28.5t35 -20.5zM526 520v-448q64 9 110 35t67.5 60t30.5 62t9 52q0 45 -19 83.5t-55 68t-67.5 48t-75.5 39.5z" />
    <glyph glyph-name="percent" unicode="%" horiz-adv-x="1728" 
d="M1319 -16q-34 0 -68 7.5t-73 30.5t-68.5 58.5t-49.5 98t-20 143.5q0 27 0.5 46.5t6 62t15.5 74t30.5 70t49 63.5t74.5 42.5t103 17.5t103 -17.5t74.5 -43t49 -64.5t30 -69.5t15 -71.5t6 -58t0.5 -40q0 -87 -19.5 -152.5t-48.5 -102t-68.5 -59t-73 -29.5t-68.5 -7z
M1319 45q33 0 53 18t29.5 60.5t12.5 88.5t3 126q0 170 -19 234.5t-79 64.5q-55 0 -76.5 -61.5t-21.5 -233.5q0 -162 14 -216q21 -81 84 -81zM410 631q-34 0 -68 7.5t-73 30.5t-68.5 58.5t-49.5 98t-20 143.5q0 27 0.5 46.5t6 62t15.5 74t30.5 70.5t49 64t74.5 42.5t103 17.5
t103 -18t74.5 -43t49 -64t30 -70t15 -71.5t6 -58t0.5 -40.5q0 -87 -19.5 -152.5t-48.5 -102t-68.5 -59t-73 -29.5t-68.5 -7zM410 692q33 0 53 18t29.5 60.5t12.5 88.5t3 126q0 170 -19 234.5t-79 64.5q-37 0 -58 -25t-31 -89t-10 -181q0 -164 15 -219q22 -78 84 -78z
M428 -57l725 1419h117l-725 -1419h-117z" />
    <glyph glyph-name="ampersand" unicode="&#x26;" horiz-adv-x="1536" 
d="M664 803l309 -404q141 177 141 279q0 4 -0.5 10t-6 21.5t-15.5 27t-31.5 21t-50.5 8.5v92h411v-92q-80 -18 -121 -58t-116 -165l-43 -70q-51 -81 -109 -147q47 -69 111 -126t121 -57q44 0 77.5 37t44.5 125h93q-3 -56 -20 -110.5t-49.5 -105.5t-89 -82.5t-128.5 -31.5
q-73 0 -144 38.5t-178 146.5q-100 -96 -204 -141.5t-197 -45.5q-164 0 -269.5 108.5t-105.5 254.5q0 259 309 430q-51 86 -77.5 155.5t-26.5 147.5q0 77 29 138.5t76.5 98.5t103.5 56.5t115 19.5q129 0 206.5 -80t77.5 -182q0 -87 -61 -170t-182 -147zM811 229l-352 457
q-150 -90 -150 -223q0 -75 38.5 -149t107 -123.5t145.5 -49.5q44 0 90 17.5t67.5 32t53.5 38.5zM608 881q28 21 39.5 30t40 36t42.5 49t27 57t13 71q0 64 -36.5 111t-102.5 47q-63 0 -99 -40.5t-36 -90.5q0 -117 112 -270z" />
    <glyph glyph-name="quotesingle" unicode="'" horiz-adv-x="555" 
d="M301 750h-45l-100 362q-19 79 -19 125q0 59 40 101t99 42q65 0 103.5 -43.5t38.5 -95.5q0 -33 -25 -137z" />
    <glyph glyph-name="parenleft" unicode="(" horiz-adv-x="555" 
d="M422 1380h113q-302 -409 -302 -925q0 -522 304 -955h-115q-153 195 -235.5 434.5t-82.5 503.5q0 137 24 268.5t54 221.5t82 190.5t80.5 145.5t77.5 116z" />
    <glyph glyph-name="parenright" unicode=")" horiz-adv-x="555" 
d="M133 -500h-113q302 409 302 926q0 521 -304 954h115q153 -195 235.5 -434.5t82.5 -503.5q0 -137 -24 -268.5t-54 -221.5t-82 -190.5t-80.5 -145.5t-77.5 -116z" />
    <glyph glyph-name="asterisk" unicode="*" horiz-adv-x="1110" 
d="M520 920q6 81 -24 178q-5 15 -14.5 45t-14 45t-8.5 35.5t-4 36.5q0 56 29.5 88t68.5 32q45 0 73.5 -35t28.5 -77q0 -28 -6 -54t-33 -120q-30 -103 -30 -174q99 29 188 98q93 72 164 72q47 0 74.5 -27.5t27.5 -65.5q0 -53 -48 -83.5t-122 -30.5q-116 0 -164 -4t-98 -21
q34 -55 140 -135q37 -27 55.5 -41.5t42 -38.5t33.5 -47.5t10 -50.5q0 -38 -24.5 -67t-65.5 -29q-25 0 -47 11.5t-35.5 26t-28.5 44.5t-22 48t-21 56q-22 62 -39 100t-26 52t-23 32q-50 -61 -76 -149q-13 -43 -22.5 -70t-24.5 -58.5t-30.5 -49t-38.5 -29.5t-50 -12
q-44 0 -68 28.5t-24 63.5q0 46 29 80.5t88 78.5q124 92 162 156q-74 27 -209 27q-32 0 -48.5 0.5t-48 3.5t-49.5 10t-38 19t-29.5 32.5t-9.5 48.5q0 40 28.5 66.5t67.5 26.5q33 0 70.5 -15.5t101.5 -60.5q39 -28 56.5 -39.5t49.5 -26.5t76 -30z" />
    <glyph glyph-name="plus" unicode="+" horiz-adv-x="1366" 
d="M131 754h459v458h184v-458h459v-185h-459v-458h-184v458h-459v185z" />
    <glyph glyph-name="comma" unicode="," horiz-adv-x="575" 
d="M119 -381v92q111 22 179.5 78t68.5 143q0 50 -35 50q-4 0 -8.5 -1t-12 -2t-12.5 -2q-18 -6 -49 -6q-55 0 -100.5 43.5t-45.5 108.5q0 72 48.5 115t113.5 43q34 0 69.5 -17t68 -49t53 -86.5t20.5 -122.5q0 -152 -94 -258t-264 -129z" />
    <glyph glyph-name="hyphen" unicode="-" horiz-adv-x="704" 
d="M82 311v201h541v-201h-541z" />
    <glyph glyph-name="period" unicode="." horiz-adv-x="575" 
d="M131 123q0 66 45.5 112t110.5 46q66 0 111.5 -46.5t45.5 -111.5t-45.5 -110.5t-111.5 -45.5q-64 0 -110 45.5t-46 110.5z" />
    <glyph glyph-name="slash" unicode="/" 
d="M598 1380l-418 -1413h-180l418 1413h180z" />
    <glyph glyph-name="zero" unicode="0" horiz-adv-x="1024" 
d="M512 -31q-60 0 -119 17.5t-120.5 64t-108 117.5t-76 188t-29.5 265q0 128 10.5 224.5t32 159.5t38.5 95.5t44 70.5q123 175 328 175q208 0 328 -175q26 -37 43 -70t38.5 -94.5t32.5 -152.5t11 -209q0 -208 -37.5 -327.5t-112.5 -204.5q-128 -144 -303 -144zM696 657
q0 238 -4 293q-14 222 -101 277q-34 22 -79 22q-33 0 -59 -9t-45 -31.5t-32.5 -47t-22.5 -69t-14 -82.5t-7.5 -103.5t-3 -115.5t-0.5 -134q0 -81 0.5 -130t3 -113.5t8 -103t14 -83.5t22 -70t32.5 -48.5t45 -33t59 -9.5q45 0 77.5 18t52.5 62.5t31.5 83t16 117.5t5.5 125.5
t1 144.5v40z" />
    <glyph glyph-name="one" unicode="1" horiz-adv-x="1024" 
d="M643 1346v-1125q0 -70 24 -97.5t95 -27.5h57v-96h-616v96h47q32 0 54.5 3t37 12.5t22.5 18t11.5 28t4.5 34.5t1 44v778q0 61 -10.5 87.5t-44 38t-107.5 11.5h-35v92q168 22 237.5 43t127.5 60h94z" />
    <glyph glyph-name="two" unicode="2" horiz-adv-x="1024" 
d="M889 -76h-84q10 34 1 55t-46 21h-660v94q78 74 148 148.5t147.5 173t133 190.5t92 195.5t36.5 193.5q0 124 -63.5 189t-149.5 65q-80 0 -133 -52t-53 -124q0 -53 41 -137q6 -12 0 -17.5t-39 -17.5l-65 -27q-32 -14 -39 -14q-9 0 -22.5 22.5t-24.5 64t-11 85.5
q0 136 105 225t303 89q102 0 180 -28t121 -67.5t70 -91.5t35 -91.5t8 -74.5q0 -61 -21 -125.5t-51 -117t-80.5 -115t-89.5 -104.5t-98 -101q-24 -24 -145 -136t-130 -120h629z" />
    <glyph glyph-name="three" unicode="3" horiz-adv-x="1024" 
d="M324 956l-84 -36q-26 -13 -39 -13q-24 0 -49 45t-25 97q0 27 9.5 60.5t38.5 76.5t74 77.5t125.5 58.5t184.5 24q157 0 256.5 -59.5t99.5 -176.5q0 -48 -21 -94.5t-46 -77.5t-69 -66.5t-64.5 -49t-57.5 -36.5q143 -6 215 -98q24 -30 38 -53t28 -73t14 -111
q0 -132 -73 -243t-197.5 -175t-269.5 -64q-148 0 -244 57.5t-96 147.5q0 52 31.5 81.5t70.5 29.5q26 0 45.5 -8.5t35.5 -29t25 -36t25 -49.5q25 -51 52 -73.5t75 -22.5q52 0 93.5 16t67.5 39t45 57.5t28 63t14 65t5.5 54t0.5 38.5q0 143 -27 214t-98 71q-45 0 -102 -45
q-25 -21 -35 -29t-22.5 -14t-24.5 -6q-19 0 -34 13t-15 36t14 40t45 38q70 46 109.5 74.5t79 63.5t58.5 65t30.5 67t11.5 82q0 86 -56.5 133t-132.5 47q-72 0 -128 -44.5t-56 -104.5q0 -50 35 -94q16 -20 16 -25q0 -10 -30 -25z" />
    <glyph glyph-name="four" unicode="4" horiz-adv-x="1024" 
d="M63 434v129l588 783h135v-797h183v-115h-183v-198q0 -94 25 -117t125 -23h33v-96h-617v96h35q57 0 88.5 6t46.5 25.5t18 40.5t3 68v198h-480zM170 549h373v500z" />
    <glyph glyph-name="five" unicode="5" horiz-adv-x="1024" 
d="M217 1315h614l-43 -88q-19 -40 -34 -56.5t-27 -20t-41 -3.5h-381l-8 -359q35 30 59.5 46.5t74.5 32.5t110 16q93 0 172 -38t130 -101t79 -141t28 -159q0 -88 -35.5 -172t-101 -152t-170.5 -109.5t-233 -41.5q-154 0 -240 59.5t-86 137.5q0 50 31 79t69 29q24 0 42 -11
t26.5 -23.5t23.5 -38.5q42 -75 88 -105t103 -30q44 0 79.5 13.5t57.5 33.5t38.5 52t24 58.5t12 65.5t5 60.5t0.5 53.5q0 68 -5 121.5t-18.5 104t-36 84t-59 53.5t-84.5 20q-19 0 -38.5 -5t-45.5 -18t-50.5 -43t-41.5 -73h-106z" />
    <glyph glyph-name="six" unicode="6" horiz-adv-x="1024" 
d="M354 780q110 74 215 74q69 0 133.5 -24t121.5 -72t91.5 -132.5t34.5 -193.5q0 -110 -39 -201t-101.5 -146.5t-137 -85.5t-150.5 -30q-54 0 -110 16t-118 58.5t-110 106.5t-79 170t-31 239q0 126 24 242t73 215.5t118 173t165 115t208 41.5q133 0 196.5 -49t63.5 -107
q0 -34 -25 -63t-68 -29q-25 0 -46 12.5t-30.5 23t-35.5 44.5q-53 71 -125 71q-35 0 -65 -13t-52.5 -41.5t-39.5 -54t-30 -72.5t-20.5 -72.5t-15 -79.5t-9 -67.5t-5.5 -59.5q-1 -6 -1 -9zM332 403q0 -51 3 -91t14 -88.5t29.5 -81t54 -54.5t83.5 -22q31 0 55 7t41.5 23.5
t30 33.5t20 48t12 54.5t6.5 66t2.5 70t0.5 77.5q0 36 -1.5 62.5t-6 67t-16 69t-29.5 56.5t-48 42.5t-69 14.5q-182 0 -182 -355z" />
    <glyph glyph-name="seven" unicode="7" horiz-adv-x="1024" 
d="M233 1389h95q-12 -52 -2 -62q12 -12 80 -12h559l-377 -1168q-13 -41 -23 -65t-28 -54t-44 -44.5t-59 -14.5q-47 0 -82 33t-35 84q0 17 7.5 40t15.5 39.5t19.5 38t13.5 25.5l422 869h-422q-40 0 -57.5 -1t-38.5 -5.5t-30.5 -15.5t-19.5 -28.5t-20 -48.5l-10 -30h-101z" />
    <glyph glyph-name="eight" unicode="8" horiz-adv-x="1024" 
d="M655 700q66 -4 120.5 -29.5t89.5 -62.5t58.5 -82t33.5 -87t10 -79q0 -182 -124 -286.5t-323 -104.5q-214 0 -337.5 108.5t-123.5 282.5q0 147 89 233t231 109q-139 37 -211 116t-72 194q0 139 113 236.5t299 97.5q188 0 306 -97.5t118 -242.5q0 -224 -277 -306zM686 1004
q0 125 -46 188t-122 63q-75 0 -125.5 -58.5t-50.5 -195.5q0 -16 0.5 -28t4 -40.5t9.5 -50t19 -48t30.5 -44t46 -30t64.5 -12.5q35 0 63 12.5t45.5 30.5t30 45t18.5 49t9 50t3.5 40.5t0.5 28.5zM516 651q-40 0 -71.5 -14t-51 -33t-33.5 -51t-20.5 -55.5t-9.5 -60t-3.5 -51.5
t-0.5 -42q0 -57 9.5 -105t30.5 -88t58.5 -62.5t89.5 -22.5q39 0 69.5 14t49.5 33t33 51.5t20 57t9.5 62t4 54t0.5 45.5q0 77 -16.5 132t-45 83t-58.5 40.5t-64 12.5z" />
    <glyph glyph-name="nine" unicode="9" horiz-adv-x="1024" 
d="M670 535q-79 -44 -95 -50q-60 -24 -120 -24q-45 0 -93.5 13t-100.5 45t-93 78.5t-67.5 121t-26.5 164.5q0 110 39 201t101.5 146.5t137 85.5t150.5 30q54 0 110 -16t118 -58.5t110 -106.5t79 -170t31 -239q0 -126 -24 -242t-73 -215.5t-118 -173t-165 -115t-208 -41.5
q-133 0 -196.5 49t-63.5 107q0 34 25 63t68 29q25 0 46 -12.5t30.5 -23t35.5 -44.5q53 -71 125 -71q35 0 65 13t52.5 41.5t39.5 54t30 72.5t20.5 72.5t15 79.5t9 67.5t5.5 59.5q1 6 1 9zM692 909q0 50 -3 91t-14 90t-30 81.5t-54 55t-83 22.5q-27 0 -50 -7t-39 -17.5
t-29 -31t-21.5 -37.5t-14 -47.5t-8.5 -51t-4.5 -59t-1.5 -60v-63.5v-7v-33.5t1.5 -40t4 -46t8.5 -45t14 -45.5t21.5 -39t30 -33t39.5 -20.5t51 -8.5q182 0 182 352z" />
    <glyph glyph-name="colon" unicode=":" horiz-adv-x="575" 
d="M131 694q0 66 45.5 112t110.5 46q66 0 111.5 -46.5t45.5 -111.5t-45.5 -110t-111.5 -45q-64 0 -110 45t-46 110zM131 123q0 66 45.5 112t110.5 46q66 0 111.5 -46.5t45.5 -111.5t-45.5 -110.5t-111.5 -45.5q-64 0 -110 45.5t-46 110.5z" />
    <glyph glyph-name="semicolon" unicode=";" horiz-adv-x="575" 
d="M119 -381v92q111 22 179.5 78t68.5 143q0 50 -35 50q-4 0 -8.5 -1t-12 -2t-12.5 -2q-18 -6 -49 -6q-55 0 -100.5 43.5t-45.5 108.5q0 72 48.5 115t113.5 43q34 0 69.5 -17t68 -49t53 -86.5t20.5 -122.5q0 -152 -94 -258t-264 -129zM131 694q0 66 45.5 112t110.5 46
q66 0 111.5 -46.5t45.5 -111.5t-45.5 -110t-111.5 -45q-64 0 -110 45t-46 110z" />
    <glyph glyph-name="less" unicode="&#x3c;" horiz-adv-x="1366" 
d="M1231 1206v-198l-852 -346l852 -347v-198l-1102 461v167z" />
    <glyph glyph-name="equal" unicode="=" horiz-adv-x="1366" 
d="M131 991h1102v-184h-1102v184zM131 516h1102v-184h-1102v184z" />
    <glyph glyph-name="greater" unicode="&#x3e;" horiz-adv-x="1366" 
d="M131 117v198l852 347l-852 346v198l1102 -461v-167z" />
    <glyph glyph-name="question" unicode="?" horiz-adv-x="917" 
d="M272 451v337h82q21 -29 35 -38q24 -17 64 -17q66 0 105.5 68.5t39.5 187.5q0 88 -19 151.5t-50 95t-62.5 45t-65.5 13.5q-37 0 -65 -12.5t-44.5 -35t-24 -37.5t-15.5 -38q-6 -17 -10.5 -26.5t-15 -26t-28 -25t-40.5 -8.5q-38 0 -65 29.5t-27 63.5q0 60 55 109.5
t139.5 75.5t175.5 26q99 0 180.5 -36.5t131 -95.5t76 -130t26.5 -144q0 -148 -94 -256.5t-232 -108.5q-12 0 -24 1t-23 3t-20 4t-20 5.5t-17 5.5t-16 6.5t-14 6.5t-13.5 6.5t-11.5 5.5v-211h-93zM162 123q0 66 45 112t110 46q66 0 112 -46.5t46 -111.5t-46 -110.5
t-112 -45.5q-64 0 -109.5 45.5t-45.5 110.5z" />
    <glyph glyph-name="at" unicode="@" horiz-adv-x="1812" 
d="M1151 920l244 10l-185 -629q-28 -107 -28 -158q0 -29 22.5 -53t55.5 -24q43 0 98.5 26.5t114.5 81t108.5 127t81 174.5t31.5 213q0 99 -25.5 191t-79 172t-128.5 139.5t-180 94t-228 34.5q-166 0 -310 -51.5t-248 -141t-178.5 -207t-111.5 -251.5t-37 -273
q0 -178 61.5 -327t167.5 -249.5t248.5 -156t304.5 -55.5q88 0 178.5 17.5t187 59.5t180 104t156 157.5t117.5 214.5h62q-67 -168 -172 -293q-140 -164 -326.5 -240t-384.5 -76q-248 0 -449 109t-318.5 310.5t-117.5 459.5q0 195 69.5 368.5t193.5 302.5t306.5 204t397.5 75
q146 0 267.5 -38.5t204 -103.5t139 -152t82.5 -182.5t26 -196.5q0 -134 -41.5 -261t-116.5 -228t-190 -162.5t-252 -61.5q-57 0 -98.5 17.5t-61 39.5t-30.5 51t-12 41.5t-1 22.5q0 52 29 158q-76 -134 -120 -190q-111 -140 -230 -140q-47 0 -82 22t-52.5 57.5t-25.5 71
t-8 70.5q0 118 36.5 234.5t94.5 205t127.5 158.5t137.5 106.5t122 36.5q129 0 141 -161zM1001 885q-61 0 -130.5 -120t-112.5 -265t-43 -232q0 -38 16.5 -65t42.5 -27q35 0 86 55.5t97.5 138.5t80 189.5t33.5 196.5q0 53 -21 91t-49 38z" />
    <glyph glyph-name="A" unicode="A" horiz-adv-x="1409" 
d="M391 379l-33 -88q-28 -74 -28 -107q0 -32 16 -52.5t45.5 -28t48 -9.5t45.5 -2v-92h-467v92q83 0 134 52.5t112 213.5l391 1024h95l413 -1056q17 -43 24 -60t21 -48t21.5 -42t21.5 -30.5t26 -25.5l30 -15t38 -11t46 -2v-92h-639v92q28 0 41.5 0.5t35.5 2t33 5.5t23 11.5
t17 19t5 27.5q0 29 -12 61l-64 160h-440zM608 950l-178 -473h365z" />
    <glyph glyph-name="B" unicode="B" horiz-adv-x="1343" 
d="M729 0h-680v92q65 0 105 10t59.5 33t25 48.5t5.5 68.5v856q0 60 -13.5 92t-56 50t-125.5 18v94q574 12 610 12h8q15 3 46 0.5t72.5 -3.5t89 -11.5t95 -23.5t92 -39.5t78 -60t54 -85.5t20.5 -115q0 -106 -76 -183t-249 -128q183 -33 283 -127t100 -240q0 -67 -22.5 -122
t-57.5 -91.5t-85 -64t-98.5 -42.5t-104.5 -24t-95.5 -11.5t-79.5 -2.5zM692 666h-162v-326v-14q0 -33 0.5 -49t2 -42t6 -38t12.5 -29.5t20 -25t29.5 -16.5t42 -12t55.5 -3q47 0 91 13t85 41.5t66 82.5t25 127q0 138 -71.5 214.5t-201.5 76.5zM530 1262v-486h82
q159 0 237.5 68t78.5 184q0 107 -76 170.5t-217 63.5h-105z" />
    <glyph glyph-name="C" unicode="C" horiz-adv-x="1515" 
d="M1386 526v-512h-94q-23 88 -69 154q-23 -25 -40.5 -42t-60.5 -48.5t-86.5 -51t-110.5 -35.5t-141 -16q-136 0 -260.5 51.5t-217.5 142t-148.5 221.5t-55.5 282q0 142 51.5 271t141.5 226t222.5 154t285.5 57q254 0 420 -166q25 50 43 125h90l16 -499h-96
q-40 195 -167.5 312.5t-283.5 117.5q-178 0 -288.5 -145t-110.5 -427q0 -111 16 -202.5t42 -152.5t62 -108t72 -73t76.5 -42t70 -21t58.5 -5q93 0 176.5 41t141 106t96 138.5t53.5 146.5h96z" />
    <glyph glyph-name="D" unicode="D" horiz-adv-x="1579" 
d="M51 1268v94l291 6q15 0 121.5 2t124.5 2q309 0 497 -76q182 -74 290 -248t108 -382q0 -111 -30.5 -210t-81 -170.5t-110.5 -122t-126 -79.5q-190 -84 -465 -84h-619v92q67 0 107.5 9t61 31t26.5 48.5t6 71.5v856q0 35 -3 57t-14.5 44t-33 33.5t-59 18.5t-91.5 7z
M539 1260v-953q0 -33 0.5 -48.5t2.5 -39.5t6.5 -34.5t12.5 -26t21 -22t31.5 -13.5t43.5 -9.5t58 -2.5q104 0 184.5 37t128.5 94t78.5 134.5t41.5 149t11 146.5q0 211 -81 354t-218 197q-60 24 -124.5 30.5t-196.5 6.5z" />
    <glyph glyph-name="E" unicode="E" horiz-adv-x="1343" 
d="M1268 446l-11 -446h-1208v92q66 0 106.5 9.5t60 32.5t25 48.5t5.5 69.5v852q0 34 -2.5 54.5t-13.5 43.5t-31.5 34.5t-57.5 19.5t-92 8v92h1125l18 -352h-92q-10 40 -22 71.5t-23 55.5t-27.5 42t-29 30t-34.5 20.5t-36.5 12.5t-43 6t-46 2.5t-52.5 0.5h-254v-479h138
q103 0 135.5 31t38.5 139h96v-451h-92q-3 57 -12 90t-31 51t-51 23.5t-82 5.5h-140v-319q0 -65 2 -92.5t10.5 -61t30 -44.5t57.5 -19t95 -8h109q27 0 43.5 0.5t51 7t59 18.5t57 36.5t54.5 59t42.5 89.5t30.5 124h94z" />
    <glyph glyph-name="F" unicode="F" horiz-adv-x="1216" 
d="M530 655v-403q0 -27 1.5 -42.5t6.5 -37t17.5 -33.5t32 -24t52.5 -17.5t77 -5.5h28v-92h-696v92q65 0 104.5 9.5t59 32t25.5 48.5t6 70v852q0 28 -2 46t-8 38.5t-19 32.5t-34.5 23t-54 15.5t-77.5 4.5v92h1110l10 -352h-94q-11 51 -26.5 89.5t-30.5 64t-39.5 43t-42 26
t-51 13t-53 5t-60.5 0.5h-242v-479h127q90 0 122 31.5t38 136.5h92v-451h-94q-6 107 -36.5 139.5t-125.5 32.5h-123z" />
    <glyph glyph-name="G" unicode="G" horiz-adv-x="1579" 
d="M967 627h604v-92q-87 -9 -113 -36t-26 -120v-318q-150 0 -314 -38q-82 -19 -116 -26t-94 -14.5t-117 -7.5q-135 0 -250.5 41.5t-195 111t-136 160.5t-83 189.5t-26.5 198.5q0 147 55 278.5t148 224.5t220.5 147t269.5 54q230 0 419 -159q24 46 37 118h97l10 -444h-92
q-34 157 -146 262t-268 105q-60 0 -115.5 -15t-113.5 -55t-100.5 -102.5t-69.5 -166.5t-27 -237q0 -54 3.5 -103.5t14.5 -111t28.5 -112.5t49.5 -101.5t74 -85.5t104 -56.5t138 -21.5q82 0 141.5 18t91 44.5t49.5 66.5t22.5 72.5t4.5 75.5q0 52 -4.5 78.5t-22.5 48.5
t-53 29.5t-98 7.5v92z" />
    <glyph glyph-name="H" unicode="H" horiz-adv-x="1685" 
d="M528 659v-407q0 -27 2 -44.5t8 -38t19 -33t34 -23.5t54 -16t78 -5v-92h-672v92q64 0 103 10t58 33.5t24.5 48.5t5.5 68v852q0 42 -5 66.5t-23 48.5t-58 34.5t-105 10.5v92h672v-92q-65 0 -105.5 -10t-59.5 -33.5t-24.5 -48.5t-5.5 -68v-334h629v334q0 43 -4.5 66.5
t-22.5 48t-58 35t-105 10.5v92h667v-92q-65 0 -104.5 -10.5t-57.5 -34.5t-23 -48.5t-5 -66.5v-852q0 -33 2 -52t12.5 -42.5t30 -36t56 -21t89.5 -8.5v-92h-667v92q64 0 103 10t57.5 33.5t24 48.5t5.5 68v407h-629z" />
    <glyph glyph-name="I" unicode="I" horiz-adv-x="768" 
d="M39 1264v92h688v-92q-67 0 -107.5 -9t-61 -31t-26.5 -48.5t-6 -71.5v-852q0 -35 3 -56.5t14.5 -43.5t33 -33.5t59 -19t91.5 -7.5v-92h-688v92q67 0 107.5 9t61 31t26.5 48.5t6 71.5v852q0 35 -3 57t-14.5 44t-33 33.5t-59 18.5t-91.5 7z" />
    <glyph glyph-name="J" unicode="J" horiz-adv-x="768" 
d="M33 1264v92h700v-92q-67 0 -107.5 -8.5t-61.5 -30.5t-27.5 -48.5t-6.5 -72.5v-1026q0 -89 -1.5 -125.5t-14 -93t-39.5 -109.5q-33 -63 -85 -109.5t-102 -70.5t-107.5 -38t-92.5 -17.5t-65 -3.5q-148 0 -242 55t-94 155q0 54 37 97t100 43q54 0 91.5 -33.5t37.5 -77.5
q0 -19 -6 -37q-8 -21 -8 -35q0 -57 102 -57q30 0 55 3.5t44 13.5t34 19t26 28t18.5 32.5t12.5 41t7.5 44.5t4 51.5t1.5 54.5v60v1135q0 49 -6.5 76t-29 48t-64 28.5t-111.5 7.5z" />
    <glyph glyph-name="K" unicode="K" horiz-adv-x="1622" 
d="M528 545v-293q0 -90 40.5 -125t156.5 -35v-92h-678v92q65 0 105 10t59.5 33t25 48.5t5.5 68.5v852q0 28 -1.5 46t-8 38.5t-19 32.5t-34 23t-54.5 15.5t-78 4.5v92h678v-92q-66 0 -106 -9.5t-59.5 -32t-25.5 -48t-6 -70.5v-408l422 369q42 37 63 65.5t21 61.5
q0 72 -137 72v92h619v-92q-73 -6 -113 -14.5t-92.5 -39t-96.5 -66.5t-142 -121q-11 -10 -17 -15l-142 -123l400 -570q66 -94 105 -135.5t87.5 -63t124.5 -24.5v-92h-753v92h61q78 0 106.5 9.5t28.5 33.5q0 35 -82 150l-291 411z" />
    <glyph glyph-name="L" unicode="L" horiz-adv-x="1323" 
d="M1266 453l-9 -453h-1208v92q66 0 106.5 9.5t60 32.5t25 48.5t5.5 69.5v852q0 44 -5 68.5t-24 48t-60 33.5t-108 10v92h682v-92q-66 0 -106 -9t-60.5 -31t-26.5 -48.5t-6 -71.5v-780q0 -36 0.5 -53.5t2.5 -44t7 -38t14 -28t22.5 -23t33.5 -14t47 -10t62 -2.5q36 0 56 0.5
t59 3.5t63.5 8.5t61 17.5t60.5 28.5t52.5 43t46.5 59.5t33 79t21 102h92z" />
    <glyph glyph-name="M" unicode="M" horiz-adv-x="1984" 
d="M877 0l-519 1102v-807q0 -32 0.5 -49t3 -41t7.5 -35.5t14.5 -27.5t23.5 -23t35 -14.5t49 -10t64 -2.5v-92h-502v92q32 0 57.5 2.5t45 6.5t34 13t24.5 16.5t16.5 23t10 26.5t5 33.5t2 37.5t0.5 44v768q0 66 -3 93.5t-21 58.5t-58.5 40t-112.5 9v92h496l450 -957l451 957
h485v-92q-53 0 -89.5 -7t-58 -19t-32.5 -33.5t-14.5 -43.5t-3.5 -57v-852q0 -43 5.5 -67.5t24.5 -48.5t60 -34t108 -10v-92h-680v92q65 0 105 10t59.5 33t25 48.5t5.5 68.5v850l-512 -1102h-61z" />
    <glyph glyph-name="N" unicode="N" horiz-adv-x="1556" 
d="M344 1042v-747q0 -43 1 -65t7 -49.5t18.5 -40.5t35 -26t57 -17.5t84.5 -4.5v-92h-504v92q32 0 57 3t44 6.5t33 12.5t23.5 16t16 22.5t9.5 25.5t4.5 32.5t2 36t0.5 42.5v6v692q0 41 -0.5 63.5t-3 52.5t-7.5 46t-14 36t-22.5 30.5t-33.5 21.5t-46 17t-61 10v92h395
l772 -912v619q0 39 -1.5 61t-7 49t-18 40.5t-33.5 27t-54.5 18.5t-79.5 5v92h506v-92q-33 0 -59 -2.5t-46.5 -6t-35 -12t-25 -15.5t-17 -22t-10.5 -26t-5.5 -33.5t-2 -38t-0.5 -45.5v-1075h-92z" />
    <glyph glyph-name="O" unicode="O" horiz-adv-x="1705" 
d="M96 680q0 107 29 207.5t90.5 190t148.5 157t211 106.5t271 39q127 0 235 -26t184.5 -69.5t137.5 -103.5t99 -123.5t63 -133t35 -130t10 -116.5q0 -137 -49.5 -262t-141.5 -224t-238.5 -158t-326.5 -59q-156 0 -285 43t-215 113t-145.5 163t-86 190t-26.5 196zM420 682
q0 -33 1 -60t5.5 -74t12.5 -85.5t23.5 -87t37 -86t55 -75.5t75 -63.5t100 -41t126.5 -15.5q86 0 155 26t112.5 65.5t76 97t48.5 108.5t25.5 114.5t11 99.5t1.5 77q0 73 -8 139t-26 133.5t-51 121.5t-79 96.5t-114.5 66t-153.5 23.5q-434 0 -434 -580z" />
    <glyph glyph-name="P" unicode="P" horiz-adv-x="1323" 
d="M535 606v-354q0 -45 6 -70.5t25.5 -48t60.5 -32t108 -9.5v-92h-682v92q65 0 105 10t59.5 33t25 48.5t5.5 68.5v856q0 28 -2 46t-8 38.5t-19 32.5t-34.5 23t-54 15.5t-77.5 4.5v94l387 10q171 4 260 2h9q375 -8 500 -189q55 -80 55 -190q0 -60 -15 -110t-39 -87t-61 -67
t-75.5 -49.5t-88 -34t-92.5 -22.5t-95.5 -12.5t-90 -5.5t-82.5 -1h-90zM535 1262v-545h92q37 0 64 1.5t63.5 7.5t62.5 17t54 31.5t45.5 49t28.5 72t11 97.5q0 67 -18.5 117t-50.5 78t-74 46.5t-89 22.5t-95.5 6.5t-93.5 -1.5z" />
    <glyph glyph-name="Q" unicode="Q" horiz-adv-x="1705" 
d="M1825 -209h106q-15 -29 -23.5 -44.5t-32 -49.5t-44.5 -55t-57 -48.5t-75 -43.5t-93.5 -27.5t-116.5 -11.5q-72 0 -134.5 14.5t-113.5 42.5t-79.5 48.5t-65.5 51.5q-91 79 -149 104t-111 25q-87 0 -160 -73q-42 -42 -62.5 -56t-46.5 -14q-23 0 -41 15t-18 40
q0 17 8.5 32.5t31.5 35.5t33.5 27.5t43.5 31.5q36 25 91.5 59.5t93.5 56.5l38 23q-158 2 -288 46.5t-214.5 115.5t-142 164.5t-82.5 188.5t-25 192q0 101 26.5 198t86.5 188.5t146.5 160t216 110t286.5 41.5q162 0 293.5 -46t215 -118.5t140 -167t80 -187t23.5 -183.5
q0 -98 -27 -194t-83.5 -190t-157.5 -170t-236 -116q-149 -75 -207 -123q115 -5 231 -51q171 -68 255.5 -92.5t177.5 -24.5q160 0 262 74zM420 682q0 -44 1.5 -79.5t10.5 -99.5t25 -114t48.5 -108t77.5 -96.5t115 -64.5t158 -26q85 0 154 26t112.5 65.5t76 97t49 109
t25.5 114t11 99.5t2 77q0 73 -8 139t-26 133.5t-51 121.5t-79 96.5t-114.5 66t-153.5 23.5q-434 0 -434 -580z" />
    <glyph glyph-name="R" unicode="R" horiz-adv-x="1515" 
d="M535 606v-354q0 -34 3 -55.5t14 -43.5t32 -34t58 -19.5t91 -7.5v-92h-680v92q65 0 104.5 9.5t59 31.5t25.5 48t6 71v856q0 44 -5.5 69t-24.5 48.5t-59 33t-106 9.5v94l314 10q15 0 67.5 1.5t94 2t110.5 -1.5q226 -8 328 -35q56 -15 106 -42t94 -68t69.5 -102t25.5 -134
q0 -109 -71.5 -196t-225.5 -129q26 -15 46.5 -30t45 -41.5t37.5 -41.5t45.5 -62.5t47.5 -70t62 -94.5q94 -145 142.5 -187.5t124.5 -48.5v-92h-363q-50 58 -172 256l-92 152q-35 56 -50 80.5t-39.5 53.5t-37.5 36.5t-43 17t-56 10t-77 0.5h-51zM535 1262v-545h63
q29 0 46.5 0.5t49.5 3t53.5 7t51 14.5t49.5 23.5t41.5 35t34.5 48t21.5 64t8.5 82.5q0 66 -19.5 115t-52 76.5t-75 46t-89 23t-94 7.5t-89.5 -1z" />
    <glyph glyph-name="S" unicode="S" horiz-adv-x="1173" 
d="M119 25v464h92q14 -54 31.5 -102.5t50 -106t73 -98.5t102 -68.5t134.5 -27.5q102 0 163.5 56.5t61.5 140.5q0 27 -7 51t-17.5 43t-34 39t-43.5 34.5t-59.5 35.5t-69 35t-84.5 40q-99 46 -172 96t-114.5 93t-66.5 90t-32.5 83t-7.5 76q0 67 27.5 133.5t77.5 122t130 90.5
t176 35q94 0 181 -43t149 -116q18 46 33 118h94v-378h-94q-6 21 -12.5 38.5t-21.5 51t-32.5 60t-46 58t-60.5 52.5t-78 35t-97 14q-90 0 -144.5 -47t-54.5 -123q0 -45 16 -79t66 -68.5t83 -51.5t126 -61l12 -6q61 -28 95.5 -45t87.5 -46.5t83.5 -53t67 -58t56 -69t33 -79
t13.5 -94.5q0 -48 -16 -102t-51 -110t-84.5 -100.5t-124.5 -73t-162 -28.5q-109 0 -215 47t-180 140q-32 -74 -41 -137h-92z" />
    <glyph glyph-name="T" unicode="T" horiz-adv-x="1449" 
d="M582 1245h-144q-36 0 -55 -0.5t-53 -6t-54 -15t-45.5 -29.5t-40 -48.5t-26.5 -73t-14 -101.5h-95v385h1340v-385h-95q-6 57 -19 101.5t-28.5 73t-39.5 48.5t-42.5 29.5t-47 15t-43 6t-40.5 0.5h-172v-993q0 -44 5 -68.5t24 -48t60 -33.5t108 -10v-92h-680v92
q66 0 106 9.5t59.5 32t25.5 48t6 70.5v993z" />
    <glyph glyph-name="U" unicode="U" horiz-adv-x="1536" 
d="M23 1264v92h684v-92q-53 0 -89.5 -7t-58 -18.5t-33 -33t-15 -44t-3.5 -57.5v-565q0 -179 35 -267q33 -82 114.5 -130t180.5 -48q105 0 195.5 52t125.5 133q28 66 36.5 133.5t8.5 162.5v488v40.5t-1.5 34.5t-4 31t-7.5 25.5t-12.5 22.5t-18 16.5t-25.5 14t-34 9t-43 6
t-54 1.5v92h499v-92q-28 0 -51 -1.5t-41 -7t-31.5 -9.5t-23.5 -14.5t-17.5 -17.5t-11.5 -23t-6.5 -25.5t-4 -30.5t-1.5 -33.5v-38.5v-500q0 -137 -10 -207t-50 -141q-41 -74 -106 -125.5t-136 -74.5t-126 -31.5t-107 -8.5q-66 0 -135 12.5t-142 39.5t-133.5 79t-93.5 121
q-26 54 -38.5 110t-14.5 93t-2 109l-2 565q0 29 -2 47.5t-8.5 39t-19.5 32.5t-34.5 22t-54 14.5t-77.5 4.5z" />
    <glyph glyph-name="V" unicode="V" horiz-adv-x="1556" 
d="M741 -25l-462 1082q-22 53 -33 77t-29 53t-31 39.5t-37 21.5t-51 13.5t-69 2.5v92h690v-92q-36 -1 -52 -2t-41.5 -4t-36 -7.5t-23 -12.5t-17 -20.5t-4.5 -29.5q0 -43 24 -96l312 -725l288 677q37 86 37 121q0 23 -6.5 40.5t-22 27.5t-29 16.5t-39.5 9.5t-39.5 3.5
t-43.5 1.5v92h502v-92q-36 -2 -59 -5.5t-45.5 -16t-37 -27t-33.5 -47.5t-35 -67t-42 -95l-442 -1031h-93z" />
    <glyph glyph-name="W" unicode="W" horiz-adv-x="2004" 
d="M537 -25l-314 1072q-22 76 -38 116t-39 64.5t-48 30.5t-71 6v92h587v-92q-35 0 -52.5 -1.5t-39.5 -7.5t-31.5 -21t-9.5 -40q0 -28 23 -109l198 -677l318 948h131l336 -948l170 636q18 65 18 105q0 32 -12.5 54.5t-27 33.5t-41.5 17.5t-41 7.5t-40 2v92h465v-92
q-38 -3 -61 -7.5t-44 -16.5t-32.5 -25t-25.5 -44.5t-23 -62.5t-25 -90l-282 -1043h-139l-347 975l-325 -975h-137z" />
    <glyph glyph-name="X" unicode="X" horiz-adv-x="1685" 
d="M760 549l-211 -246q-74 -84 -74 -129q0 -20 6.5 -34.5t21 -23t28 -14t38 -7.5t40 -2.5t44.5 -0.5v-92h-596v92q69 2 113.5 17t112.5 72t168 175l241 283l-327 430l-1 1l-1 1v1l-1 1l-1 1l-1 1v1l-1 1l-1 1q-81 106 -114 134q-52 44 -135 50q-22 2 -52 2v92h740v-92h-52
q-28 0 -43 -1t-34 -6t-28 -16.5t-9 -30.5q0 -26 61 -108l189 -244l215 252q17 21 24.5 31t15 27.5t7.5 33.5q0 32 -25.5 47t-93.5 15h-47v92h561v-92q-57 0 -99.5 -10.5t-88.5 -47t-67 -58t-81 -91.5l-3 -3l-3 -3l-3.5 -3.5t-2.5 -3.5l-242 -278l330 -432q60 -79 92 -117
t73.5 -70.5t82 -43t100.5 -11.5v-92h-792v92h63q135 0 135 74q0 6 -3 14.5t-6.5 15.5t-10.5 17.5t-11 16t-12 17t-10 13.5z" />
    <glyph glyph-name="Y" unicode="Y" horiz-adv-x="1449" 
d="M582 555l-340 567q-3 4 -6.5 9.5t-5.5 9t-3 4.5q-45 72 -79.5 94t-100.5 25v92h635v-92q-35 0 -54 -1t-42 -6.5t-33 -18.5t-10 -34t12.5 -48.5t54.5 -98.5l211 -357l201 318q35 57 50 89t15 62q0 23 -6 39.5t-19 26.5t-25.5 16.5t-33.5 9t-34.5 3t-36.5 0.5v92h493v-92
q-29 -2 -50 -6.5t-43 -18.5t-36.5 -27.5t-40 -47t-44.5 -62t-58 -88.5l-285 -441v-321q0 -27 1.5 -44t7.5 -38t19 -33t34 -23.5t55 -16.5t80 -5v-92h-682v92q66 0 106 9t60.5 31t26.5 48.5t6 71.5v303z" />
    <glyph glyph-name="Z" unicode="Z" horiz-adv-x="1323" 
d="M55 0v94l811 1151h-317q-70 0 -104.5 -2t-88.5 -14.5t-82.5 -37.5t-55 -75t-36.5 -123h-96l25 363h1116v-90l-811 -1155h389q33 0 49.5 0.5t49 3t51 7t47.5 14.5t47.5 24.5t41.5 36.5t38 50.5t29.5 68t23.5 87.5h92l-23 -403h-1196z" />
    <glyph glyph-name="bracketleft" unicode="[" horiz-adv-x="811" 
d="M270 -477v1833h521v-92h-129q-47 0 -76.5 -4.5t-47.5 -13t-26.5 -27t-11 -38t-2.5 -55.5v-1372q0 -30 1 -44t5.5 -33.5t14 -27.5t28 -17t46.5 -12t69 -3h129v-94h-521z" />
    <glyph glyph-name="backslash" unicode="\" 
d="M0 1380h180l418 -1413h-180z" />
    <glyph glyph-name="bracketright" unicode="]" horiz-adv-x="811" 
d="M541 1356v-1833h-521v92h130q58 0 90.5 5.5t49 24t20 40.5t3.5 67v1372q0 27 -0.5 38.5t-3 30.5t-9 26.5t-17.5 18t-29 14.5t-43.5 7t-60.5 3h-130v94h521z" />
    <glyph glyph-name="asciicircum" unicode="^" horiz-adv-x="1130" 
d="M119 637l409 719h82l406 -719h-160l-295 512l-291 -512h-151z" />
    <glyph glyph-name="underscore" unicode="_" horiz-adv-x="1024" 
d="M-12 -154h1048v-102h-1048v102z" />
    <glyph glyph-name="grave" unicode="`" horiz-adv-x="681" 
d="M492 975h-72l-295 342h258z" />
    <glyph glyph-name="a" unicode="a" horiz-adv-x="1110" 
d="M651 551v57q0 72 -34 112t-123 40q-77 0 -111 -32t-45 -97q-3 -16 -5 -25.5t-10 -26.5t-19.5 -27t-33.5 -18t-51 -8q-41 0 -73.5 24.5t-32.5 70.5q0 42 22.5 81t68.5 73.5t128.5 55.5t191.5 21q115 0 194 -22t119 -62.5t56 -85.5t16 -102v-316q0 -37 0.5 -54.5t3.5 -39
t9.5 -30t18.5 -15t30 -6.5q26 0 45.5 26.5t19.5 65.5h74q1 -114 -65 -174t-168 -60q-83 0 -139.5 39.5t-67.5 94.5q-165 -134 -336 -134q-109 0 -177.5 52t-68.5 139q0 58 24.5 106.5t68.5 86.5t116 72t155.5 61.5t198.5 56.5zM651 203v248q-83 -26 -142.5 -56t-87.5 -52.5
t-43.5 -50t-17.5 -40t-2 -31.5q0 -46 28 -74t79 -28q38 0 76.5 15.5t59 29.5t50.5 39z" />
    <glyph glyph-name="b" unicode="b" horiz-adv-x="1216" 
d="M164 -33v1108q0 36 -5.5 58t-14 36t-30 20.5t-43 9t-63.5 3.5v90l414 88v-647q23 22 42 36.5t56 36.5t87.5 34t109.5 12q82 0 152 -25.5t118.5 -68.5t83 -99.5t50.5 -118t16 -124.5q0 -129 -61.5 -232.5t-164 -160t-225.5 -56.5q-200 0 -311 148q-86 -86 -133 -148h-78z
M422 606v-407q92 -121 225 -121q53 0 92.5 24t62 60t36.5 85t18 90.5t4 86.5q0 34 -2.5 64t-9.5 68.5t-21.5 69.5t-36 58t-56.5 42t-79 15q-64 0 -125.5 -37t-107.5 -98z" />
    <glyph glyph-name="c" unicode="c" horiz-adv-x="1003" 
d="M870 242l84 -39q-121 -236 -389 -236q-74 0 -144.5 18t-132 54.5t-107.5 86.5t-72.5 119t-26.5 148q0 90 37.5 173t103 146.5t161.5 101.5t206 38q86 0 163.5 -22.5t131 -70.5t53.5 -112q0 -44 -33 -75t-76 -31q-14 0 -26.5 2t-22 8t-16.5 10.5t-13.5 15.5t-10 16.5
t-8 19t-6 18.5t-5 20.5t-4.5 18.5q-13 50 -42.5 70t-84.5 20q-30 0 -57.5 -6t-61 -26.5t-57 -54t-40 -93.5t-16.5 -140q0 -102 26.5 -181t89 -130t153.5 -51q23 0 44.5 4t38.5 9.5t34 15t29 18t25.5 21.5t21 22t17.5 22.5t14 20t11 18.5t8 13z" />
    <glyph glyph-name="d" unicode="d" horiz-adv-x="1236" 
d="M805 731v328q0 35 -1.5 57t-9.5 39t-16 25t-29 13t-39.5 6.5t-56.5 2.5v92l410 86v-1120q0 -39 0.5 -55.5t5 -39t13 -30t25.5 -16.5t41 -11.5t62 -3.5v-92q-213 -9 -387 -45q-14 30 -18 105q-128 -105 -281 -105q-118 0 -219 61t-160 166t-59 230q0 79 27 153t78 136.5
t136 100.5t191 38q59 0 106.5 -11t83.5 -33t54 -37t43 -40zM805 201v405q-22 25 -37.5 40.5t-47.5 41.5t-71 39.5t-82 13.5q-49 0 -91.5 -26.5t-69.5 -69.5q-44 -70 -44 -233q0 -167 62 -250.5t156 -83.5q66 0 124.5 33t100.5 90z" />
    <glyph glyph-name="e" unicode="e" horiz-adv-x="1044" 
d="M885 209l78 -53q-63 -101 -156.5 -145t-218.5 -44q-232 0 -369 122.5t-137 313.5q0 90 34 171.5t94 143t150.5 98t196.5 36.5q104 0 186 -35.5t131 -95.5t74 -131.5t25 -149.5h-615q0 -3 1 -29t2.5 -48t8.5 -57.5t17 -64.5t30.5 -60.5t47.5 -53t69 -35.5t93 -14
q20 0 45 4t64 15.5t79 40.5t70 71zM360 532h365q0 228 -180 228q-87 0 -134.5 -63t-50.5 -165z" />
    <glyph glyph-name="f" unicode="f" horiz-adv-x="681" 
d="M467 727v-489q0 -27 0.5 -39.5t2.5 -32t6.5 -28t13.5 -19.5t22 -15.5t32.5 -8t45.5 -3.5h37v-92h-586v92h45q79 0 101 31.5t22 114.5v489h-168v92h168v117q0 144 45 238q28 58 72 100t95.5 64t101.5 32t102 10q72 0 127.5 -15.5t86.5 -38t50.5 -51.5t26 -51t6.5 -42
q0 -54 -39.5 -88.5t-85.5 -34.5q-26 0 -47.5 9.5t-35 23.5t-24.5 35.5t-16.5 38.5t-11.5 40q-2 9 -7.5 20t-16 26.5t-29 25.5t-42.5 10t-42 -7t-28.5 -24t-17 -32t-9 -43.5t-3 -46t-0.5 -52.5v-264h203v-92h-203z" />
    <glyph glyph-name="g" unicode="g" horiz-adv-x="1110" 
d="M397 299q-268 51 -268 252q0 36 10 73.5t38 79.5t71.5 74t118.5 53t170 21q198 0 303 -92q63 90 161 90q51 0 79 -25.5t28 -60.5q0 -38 -19.5 -59t-44.5 -21q-14 0 -27 5t-17.5 8t-18.5 14q-3 2 -12 9t-15 11t-13.5 8t-12.5 4q-29 0 -49 -20q22 -28 33.5 -45t24.5 -54.5
t13 -80.5q0 -38 -9 -70t-22 -56.5t-37.5 -45t-45 -34.5t-55 -26.5t-58 -19.5t-63.5 -14.5t-60.5 -10.5t-60.5 -8q-236 -30 -236 -96q0 -29 34.5 -40t106.5 -11h152q444 0 444 -287q0 -41 -12.5 -81.5t-47.5 -85.5t-89.5 -78.5t-147.5 -56t-213 -22.5q-29 0 -51 0.5t-72 4.5
t-88 12t-85 24t-78 38.5t-52.5 58.5t-21.5 81q0 47 28.5 87t86.5 40q45 0 75 -18q-22 -35 -22 -74q0 -66 76.5 -114t230.5 -48q157 0 245.5 44.5t88.5 117.5q0 27 -9 46.5t-32 33t-49.5 21.5t-73 12t-91.5 5.5t-116 2.5q-56 1 -97 3.5t-90 9t-82.5 20.5t-63.5 35.5t-45 55
t-15 77.5q0 38 12 70t36.5 54.5t48 38t60 28t57.5 18.5t56 14zM381 567q0 -35 5.5 -67.5t21 -69.5t49.5 -59.5t84 -22.5q70 0 113.5 53t43.5 154q0 54 -13.5 99t-50.5 78.5t-93 33.5q-47 0 -80 -18.5t-49.5 -49.5t-23.5 -63t-7 -68z" />
    <glyph glyph-name="h" unicode="h" horiz-adv-x="1193" 
d="M1024 537v-299q0 -30 0.5 -44t4.5 -35t12 -30t23 -19.5t38.5 -14t56.5 -3.5v-92h-514v92q69 0 95 24t26 72v336q0 23 -0.5 37t-4 41t-11.5 44t-21.5 35.5t-36.5 28t-53 9.5q-48 0 -96.5 -26.5t-73.5 -65.5q-28 -45 -35.5 -86t-7.5 -105v-172q0 -32 0.5 -46.5t2.5 -37.5
t6.5 -32.5t13 -23t21.5 -19t32 -9.5t45 -4v-92h-524v92q53 0 83 7t43.5 28.5t16 42.5t2.5 68v839q0 40 -3.5 59.5t-17.5 37t-43.5 23.5t-80.5 7v90l403 86v-675q18 21 26.5 30t40.5 35.5t60.5 41t75 27.5t96.5 13q79 0 153 -33.5t105 -91.5q41 -73 41 -190z" />
    <glyph glyph-name="i" unicode="i" horiz-adv-x="641" 
d="M459 852v-614q0 -30 0.5 -44t4 -35t12 -30t23 -19.5t37.5 -14t56 -3.5v-92h-543v92h29q36 0 60 7.5t36.5 17t18.5 32t7 38.5t1 51v297q0 25 -0.5 36.5t-2 29t-5.5 24.5t-11 18t-18 14.5t-27.5 8.5t-37.5 6.5t-50 1.5v92zM334 1389q60 0 102.5 -43t42.5 -103t-42.5 -102.5
t-102.5 -42.5t-103 42.5t-43 102.5t43 103t103 43z" />
    <glyph glyph-name="j" unicode="j" horiz-adv-x="641" 
d="M481 852v-877q0 -66 -1.5 -102.5t-13 -91t-34.5 -94.5q-33 -57 -79 -97t-95.5 -58t-89.5 -25t-80 -7q-141 0 -208.5 51.5t-67.5 122.5q0 50 36.5 82.5t85.5 32.5q23 0 43 -8t32 -19t23 -29t16 -30.5t11 -30.5q24 -71 76 -71q21 0 36 6.5t24.5 23.5t15 35t8.5 52t3.5 63.5
t0.5 79.5v694q0 78 -29 98.5t-135 20.5v92zM369 1389q60 0 102.5 -43t42.5 -103t-42.5 -102.5t-102.5 -42.5t-103 42.5t-43 102.5t43 103t103 43z" />
    <glyph glyph-name="k" unicode="k" horiz-adv-x="1193" 
d="M432 346v-125q0 -46 6 -72.5t23 -39t34 -15t52 -2.5v-92h-518v92q88 0 116.5 28t28.5 118v852q0 70 -29.5 89t-115.5 21v92l403 88v-921l281 192q43 29 43 49q0 27 -47 27h-56v92h424v-92q-104 -10 -227 -94l-102 -72l268 -362q23 -31 39.5 -50t43 -38t50.5 -19v-92h-496
v92q88 0 88 35q0 23 -22 51l-182 240z" />
    <glyph glyph-name="l" unicode="l" horiz-adv-x="641" 
d="M451 1380v-1142q0 -30 0.5 -43t3.5 -34t10.5 -30.5t21 -20t35 -14.5t51.5 -4h29v-92h-575v92h43q36 0 60 7.5t36.5 17t18.5 32t7 38.5t1 51v852q0 72 -33.5 92t-132.5 20v92z" />
    <glyph glyph-name="m" unicode="m" horiz-adv-x="1941" 
d="M1774 547v-309q0 -30 0.5 -43t3.5 -34t10.5 -30.5t21 -20t35 -14.5t51.5 -4h35v-92h-555v92q30 0 51.5 3.5t37 8t25 15.5t15 20t8 28t3 32t0.5 39v303q0 178 -164 178q-112 0 -178 -81.5t-66 -205.5v-194q0 -31 1 -46.5t5 -36t13 -29.5t25.5 -18.5t41.5 -12.5t61 -3v-92
h-544v92q30 0 51.5 3.5t36.5 8t25 15.5t15 19.5t7.5 28t3 32t0.5 39.5v315q0 46 -15.5 80t-35 49.5t-45.5 25t-38.5 10.5t-23.5 1q-64 0 -125 -31.5t-90 -79.5q-17 -28 -25.5 -58t-9 -46t-0.5 -55v-211q0 -45 3 -67t17 -43t44.5 -28.5t83.5 -7.5v-92h-547v92q35 0 59.5 3
t40 13t24 18.5t12.5 29.5t4.5 35.5t0.5 46.5v342q0 94 -121 94h-51v92l422 86q8 -53 8 -152q72 72 150.5 112t183.5 40q241 0 320 -178q47 57 96.5 95t96 54.5t81.5 22.5t74 6q158 0 244 -75t86 -230z" />
    <glyph glyph-name="n" unicode="n" horiz-adv-x="1216" 
d="M1042 575v-337q0 -35 1 -52t8 -39t21.5 -31.5t41 -16.5t66.5 -7v-92h-518v92q26 0 45 3.5t32.5 7.5t22 15.5t13 20t6.5 29t2.5 34t0.5 42.5v8v283q0 31 -2 54t-9.5 49t-21 42.5t-37.5 27.5t-57 11q-55 0 -97 -24t-65 -64t-34.5 -85t-11.5 -93v-224q0 -79 23 -108t99 -29
v-92h-528v92q95 0 121 27t26 119v323q0 70 -27 91.5t-120 21.5v92l389 86q10 -67 8 -152q29 31 51.5 51t61 46.5t86.5 40.5t102 14q133 0 217 -71t84 -206z" />
    <glyph glyph-name="o" unicode="o" horiz-adv-x="1153" 
d="M84 410q0 90 28.5 165t76.5 125.5t113 85t135.5 50.5t146.5 16q115 0 209 -36t153 -97t91 -140t32 -167q0 -103 -39.5 -188t-106.5 -140.5t-156 -86t-189 -30.5q-92 0 -178 27.5t-157.5 80t-115 139.5t-43.5 196zM360 403q0 -39 1 -67.5t6 -67t13.5 -65.5t25 -56
t39.5 -47t57.5 -29.5t77.5 -11.5q48 0 84.5 14.5t59 43t37.5 60t21.5 77t8.5 81t2 83.5q0 83 -9 140.5t-32 105.5t-67.5 72t-111.5 24q-123 0 -168 -83.5t-45 -273.5z" />
    <glyph glyph-name="p" unicode="p" horiz-adv-x="1236" 
d="M436 78v-320q0 -82 21.5 -112.5t101.5 -30.5h55v-92h-581v92q52 0 80 5t43 23.5t18.5 42t3.5 72.5v783q0 44 -3.5 65.5t-18 39t-43 23t-80.5 5.5v92l389 86q12 -40 14 -127q65 65 136.5 96t162.5 31q99 0 180.5 -37.5t133 -99t79 -137t27.5 -154.5q0 -123 -56 -227.5
t-158.5 -167t-229.5 -62.5q-160 0 -275 111zM436 602v-395q38 -59 100.5 -94t129.5 -35q213 0 213 356q0 307 -215 307q-68 0 -128.5 -42t-99.5 -97z" />
    <glyph glyph-name="q" unicode="q" horiz-adv-x="1216" 
d="M848 702l125 150h90v-1094q0 -32 1 -48t5.5 -35.5t14 -28t26.5 -17.5t42 -11.5t62 -2.5v-92h-585v92h53q26 0 45.5 4t32.5 8.5t22 16.5t13.5 20.5t6.5 27t2.5 30.5t0.5 36v332q-129 -123 -297 -123q-182 0 -303 123.5t-121 310.5q0 91 32 172.5t89.5 143.5t143 98.5
t186.5 36.5q56 0 105 -12t79 -26.5t60 -39.5t41 -37.5t28 -34.5zM805 215v393q-85 133 -219 133q-115 0 -170.5 -84.5t-55.5 -265.5q0 -19 0.5 -34t4.5 -49.5t11 -61.5t22.5 -60t36 -55t54.5 -37.5t76 -15.5q50 0 95 17.5t74.5 43.5t46 44t24.5 32z" />
    <glyph glyph-name="r" unicode="r" horiz-adv-x="897" 
d="M449 412v-174q0 -30 0.5 -44t4.5 -35t12 -30t23 -19.5t38.5 -14t56.5 -3.5h53v-92h-621v92h52q30 0 51.5 4t35 14.5t21 20t10.5 30.5t3.5 34t0.5 43v292q0 95 -31.5 119.5t-142.5 24.5v92l390 86q6 -19 10 -41.5t7.5 -50t5 -43.5t3.5 -47t2 -35q42 89 123.5 153t167.5 64
q82 0 130 -46.5t48 -111.5q0 -59 -36.5 -92t-82.5 -33q-57 0 -100 56q-13 17 -19 23.5t-20.5 15t-30.5 8.5q-54 0 -93 -45t-55.5 -102t-16.5 -113z" />
    <glyph glyph-name="s" unicode="s" horiz-adv-x="980" 
d="M100 -27l-10 260h84q8 -29 29 -56.5t58 -55.5t100 -45t143 -17q26 0 49 2.5t65 11.5t67.5 34.5t25.5 64.5q0 44 -40.5 64.5t-156.5 50.5q-190 48 -268 85q-168 80 -168 224q0 118 108.5 187t284.5 69q162 0 287 -57l24 51h80v-232h-82q-16 64 -95 105t-208 41
q-16 0 -28.5 -0.5t-40.5 -2.5t-49.5 -8t-43.5 -14.5t-34.5 -24.5t-12.5 -36q0 -39 39.5 -58t158.5 -48q49 -12 77 -19q126 -33 173 -52q198 -84 199 -259q0 -128 -111.5 -199.5t-287.5 -71.5q-183 0 -299 62l-39 -56h-78z" />
    <glyph glyph-name="t" unicode="t" horiz-adv-x="747" 
d="M436 727v-477q0 -100 12 -128q14 -36 56 -36q27 0 50 13.5t42.5 41t26.5 39t20 37.5l86 -39q-54 -113 -125.5 -162t-169.5 -49q-53 0 -94.5 12t-68 28.5t-45.5 44.5t-28 50t-14 56t-5.5 51.5t-0.5 46.5v471h-151v92q142 0 225 75.5t102 188.5h82v-264h283v-92h-283z" />
    <glyph glyph-name="u" unicode="u" horiz-adv-x="1216" 
d="M174 289v295q0 24 -0.5 35t-2 28.5t-5 25t-10.5 19t-17 16.5t-25 10.5t-35.5 7t-47.5 1.5v92h401v-551q0 -170 131 -170q42 0 80.5 20.5t67 54t39 49t20.5 32.5v330q0 31 -1 47t-5.5 35.5t-13.5 28.5t-26 17.5t-42 11.5t-61 3v92h407v-602q0 -35 4 -53.5t18.5 -34.5
t44.5 -23t81 -8v-92q-3 0 -54.5 -3.5t-111 -7.5t-129.5 -11.5t-111 -16.5v146q-129 -148 -309 -148q-46 0 -85 8.5t-67 21t-50 34t-36 40.5t-24 46.5t-14.5 47t-7 48t-3 42t-0.5 36.5z" />
    <glyph glyph-name="v" unicode="v" horiz-adv-x="1087" 
d="M485 -23l-344 662q-32 61 -47 72t-69 16v92h489v-92q-27 -1 -40.5 -2t-30.5 -5t-24 -12.5t-7 -21.5q0 -17 20 -57l209 -406l199 400q20 45 20 61q0 15 -7 24.5t-23.5 13t-29.5 4.5t-40 1v92h303v-92q-19 0 -36 -7.5t-27.5 -15.5t-24 -29t-20 -32.5t-20.5 -40.5l-9 -18
l-301 -607h-140z" />
    <glyph glyph-name="w" unicode="w" horiz-adv-x="1665" 
d="M475 -33l-289 617q-44 94 -70 118t-93 25v92h514v-92q-18 2 -36 0.5t-33 -4.5t-24.5 -14.5t-9.5 -30.5q0 -22 19 -66l157 -338l271 545h71l275 -545l147 312q31 70 31 92q0 14 -6 23.5t-14 14.5t-26 7.5t-31 3t-40 0.5v92h352v-92q-64 0 -89.5 -23.5t-69.5 -117.5
l-295 -619h-86l-273 539l-266 -539h-86z" />
    <glyph glyph-name="x" unicode="x" horiz-adv-x="1130" 
d="M502 301l-127 -106q-24 -20 -36 -35t-12.5 -19t-0.5 -14q0 -13 8 -20.5t26 -10.5t32 -3.5t40 -0.5v-92h-389v92q51 9 108 44t162 124l127 109l-243 260q-55 59 -82.5 77t-75.5 21v92h549v-92q-26 0 -38.5 -0.5t-28 -3.5t-21.5 -10t-6 -19q0 -16 41 -57l98 -105l106 99
q8 7 20.5 18t16.5 14.5t10 10.5t7.5 12t1.5 12q0 11 -25.5 20t-69.5 9v92h369v-92q-44 0 -96 -32t-156 -124l-121 -106l285 -309q40 -43 96 -64v-92h-559v92h35q20 0 31.5 1t28.5 4t25.5 11.5t8.5 22.5q0 19 -45 64z" />
    <glyph glyph-name="y" unicode="y" horiz-adv-x="1087" 
d="M649 254l156 317q33 68 33 93q0 30 -29.5 46.5t-69.5 16.5v92h324v-92q-62 -9 -89.5 -42t-90.5 -165l-293 -608q-109 -228 -142 -283q-58 -95 -119 -118q-29 -11 -65 -11q-45 0 -79.5 28.5t-34.5 70.5q0 32 14 56.5t40.5 40t45.5 23t49 15.5q130 37 212 235q4 9 5 11
l-381 671q-27 49 -49 62.5t-61 13.5v92h485v-92h-31q-69 0 -69 -33q0 -18 28 -69z" />
    <glyph glyph-name="z" unicode="z" horiz-adv-x="1003" 
d="M78 0v74l475 653h-217q-15 0 -24 -1t-25.5 -8.5t-28.5 -21.5t-26 -43t-25 -71h-94l18 237h746v-80l-471 -647h190q28 0 42 1.5t38.5 10.5t41 26.5t37 52.5t38.5 87h96l-27 -270h-784z" />
    <glyph glyph-name="braceleft" unicode="{" horiz-adv-x="768" 
d="M104 412v51q95 18 154 75.5t59 143.5q0 42 -24.5 162.5t-24.5 167.5q0 22 6.5 51.5t21 71t44 80.5t70.5 74.5t106.5 60t145.5 30.5v-43q-76 -7 -144.5 -67t-68.5 -152q0 -41 21.5 -164t21.5 -176q0 -29 -8.5 -63.5t-31 -77.5t-56 -80t-89 -69t-125.5 -48
q130 -33 221 -130t91 -210q0 -41 -22.5 -169t-22.5 -169q0 -174 213 -225v-41q-81 3 -149 29.5t-112 65.5t-75 87.5t-44.5 94t-13.5 86.5q0 58 24.5 172t24.5 168q0 171 -213 213z" />
    <glyph glyph-name="bar" unicode="|" horiz-adv-x="1153" 
d="M483 1380h187v-1857h-187v1857z" />
    <glyph glyph-name="braceright" unicode="}" horiz-adv-x="768" 
d="M664 412q-213 -42 -213 -213q0 -54 24.5 -168t24.5 -172q0 -41 -13.5 -86.5t-44.5 -94t-75 -87.5t-112 -65.5t-149 -29.5v41q213 51 213 225q0 41 -22.5 169t-22.5 169q0 113 91 210t221 130q-70 16 -125.5 48t-89 69t-56 80t-31 77.5t-8.5 63.5q0 53 21.5 176t21.5 164
q0 92 -68.5 152t-144.5 67v43q80 -6 145.5 -30.5t106.5 -60t70.5 -74.5t44 -80.5t21 -71t6.5 -51.5q0 -47 -24.5 -167.5t-24.5 -162.5q0 -86 59 -143.5t154 -75.5v-51z" />
    <glyph glyph-name="asciitilde" unicode="~" horiz-adv-x="1366" 
d="M1169 844h64q-3 -71 -18.5 -128t-40.5 -93t-53 -61t-60 -37.5t-58 -17.5t-51 -5q-64 0 -130 20.5t-247 95.5q-143 62 -206 62q-140 0 -172 -178h-64q6 141 51 215q40 67 101 97t121 30q34 0 61.5 -4t111.5 -31.5t209 -81.5q66 -29 108.5 -43.5t60 -17t40.5 -2.5
q26 0 51.5 8t51.5 27t44.5 56t24.5 89z" />
    <glyph glyph-name="uni00A0" unicode="&#xa0;" horiz-adv-x="512" 
 />
    <glyph glyph-name="exclamdown" unicode="&#xa1;" horiz-adv-x="575" 
d="M442 766q0 -66 -45 -112t-110 -46q-66 0 -112 46.5t-46 111.5t46 110.5t112 45.5q64 0 109.5 -45.5t45.5 -110.5zM242 438h90l78 -655q10 -88 10 -135q0 -75 -40 -111.5t-91 -36.5q-58 0 -96.5 37t-38.5 111q0 48 10 135z" />
    <glyph glyph-name="cent" unicode="&#xa2;" horiz-adv-x="1003" 
d="M422 -14l-127 -361h-94l137 389q-62 28 -109.5 67.5t-74.5 78.5t-44 83.5t-22.5 80t-5.5 71.5q0 134 75 243t201 166t273 48l137 391h94l-141 -403q118 -28 167.5 -79.5t49.5 -111.5q0 -42 -32.5 -74t-80.5 -32q-27 0 -46 8.5t-29.5 26t-15 29t-9.5 32.5q-8 34 -15 53.5
t-11.5 26t-14.5 16.5l-211 -604q23 -17 36 -25.5t44 -17t70 -8.5q45 0 85 13.5t63.5 30t46.5 43.5t31 40.5t19 34.5l86 -39q-53 -106 -149.5 -172t-241.5 -66q-60 0 -141 21zM408 213l192 553q-106 3 -174 -80t-68 -246q0 -123 50 -227z" />
    <glyph glyph-name="sterling" unicode="&#xa3;" horiz-adv-x="1515" 
d="M139 182l31 135h303q15 102 52 281.5t77 290.5q81 225 222 341t327 116q135 0 215 -57.5t80 -127.5q0 -49 -35.5 -76.5t-71.5 -27.5q-24 0 -45.5 13.5t-32.5 26.5t-36 46q-23 31 -37 47t-46.5 32.5t-72.5 16.5q-104 0 -157 -98q-37 -70 -76 -265q-3 -17 -11 -55
q-39 -200 -64.5 -304.5t-62.5 -199.5h334l-35 -135h-350q-77 -174 -158 -264q7 2 34.5 10.5t52.5 13.5t51 5q36 0 66 -7t64.5 -28t47 -30.5t55.5 -43.5q114 -93 169 -123t108 -30q57 0 83.5 33.5t26.5 68.5q0 11 -22 82q-21 70 -21 86q0 45 26.5 74.5t67.5 29.5
q44 0 81.5 -35t37.5 -106q0 -98 -60.5 -187t-154.5 -140.5t-192 -51.5q-54 0 -103 13.5t-91 40.5t-63.5 43.5t-54.5 46.5q-77 69 -119.5 95.5t-80.5 26.5q-35 0 -74 -16q-62 -144 -107 -197t-100 -53q-41 0 -65.5 26t-24.5 62q0 54 51 112t156 109q55 122 110 334h-305z" />
    <glyph glyph-name="currency" unicode="&#xa4;" horiz-adv-x="956" 
d="M930 358l-76 -79l-137 133q-124 -80 -240 -80t-239 80l-138 -133l-77 79l135 129q-78 132 -78 238q0 111 78 238l-135 131l77 80l138 -134q127 78 239 78q117 0 240 -78l137 134l76 -80l-133 -131q80 -131 80 -238q0 -102 -80 -238zM764 727q0 119 -87 201t-200 82
q-119 0 -201.5 -83.5t-82.5 -199.5q0 -117 83.5 -201t200.5 -84t202 84t85 201z" />
    <glyph glyph-name="yen" unicode="&#xa5;" horiz-adv-x="1449" 
d="M582 381v174l-17 31h-397v114h328l-267 443q-40 68 -77.5 94.5t-104.5 26.5v92h635v-92q-35 0 -53.5 -1t-41 -6.5t-32.5 -18.5t-10 -34t12 -48.5t53 -98.5l211 -357l201 318q36 58 50.5 89t14.5 62q0 27 -10 46t-23 28.5t-37 14t-40 5.5t-45 1v92h493v-92
q-22 -2 -38.5 -4.5t-34 -11.5t-28 -14t-29 -25t-27.5 -30.5t-32.5 -44.5t-36 -52t-44.5 -68l-205 -314h334v-114h-407l-7 -13v-192h414v-115h-414q0 -22 0.5 -33t2 -30t5 -28t10 -23t16.5 -21t24.5 -16t34 -13t46 -7t58.5 -3v-92h-684v92q56 0 93.5 8t58.5 19.5t31.5 36.5
t13 47t2.5 63h-414v115h414z" />
    <glyph glyph-name="brokenbar" unicode="&#xa6;" horiz-adv-x="1153" 
d="M483 291h187v-768h-187v768zM483 1380h187v-768h-187v768z" />
    <glyph glyph-name="section" unicode="&#xa7;" horiz-adv-x="1067" 
d="M709 1161q-6 19 -16 37.5t-30 40t-55 34.5t-80 13q-79 0 -131.5 -41.5t-52.5 -97.5q0 -32 14.5 -61t44 -56t57.5 -46t72 -46q83 -50 139 -86.5t111 -78.5t88.5 -78.5t60.5 -79.5t38.5 -90t11.5 -101q0 -53 -12 -98t-28.5 -74t-44.5 -54t-47 -37.5t-50.5 -24t-41.5 -14
t-32 -7.5q188 -143 188 -293q0 -130 -112.5 -226t-284.5 -96q-149 0 -251.5 71.5t-102.5 170.5q0 41 25 69.5t69 28.5q26 0 45 -9t30 -26t15.5 -27t9.5 -26q44 -158 195 -158q75 0 122.5 41t47.5 97q0 58 -59 118t-240 177q-115 75 -185 138t-110.5 138t-40.5 160
q0 62 22.5 115t50.5 84t70 57t63.5 35t47.5 18q-48 43 -69.5 65t-53.5 62t-45.5 79.5t-13.5 84.5q0 122 113 219.5t288 97.5q145 0 249.5 -67.5t104.5 -167.5q0 -39 -25 -68.5t-71 -29.5q-43 0 -67.5 28.5t-40.5 85.5zM233 549q0 -59 40.5 -112.5t134.5 -125.5
q93 -73 156 -101t116 -28q61 0 106 42t45 104q0 126 -190 270q-139 104 -244 104q-63 0 -113.5 -41t-50.5 -112z" />
    <glyph glyph-name="dieresis" unicode="&#xa8;" horiz-adv-x="681" 
d="M43 1149q0 46 33.5 78.5t79.5 32.5q47 0 79.5 -33t32.5 -78q0 -46 -33 -79.5t-79 -33.5q-45 0 -79 32.5t-34 80.5zM414 1149q0 46 33 78.5t79 32.5t79.5 -33.5t33.5 -77.5q0 -46 -33 -79.5t-80 -33.5q-45 0 -78.5 32.5t-33.5 80.5z" />
    <glyph glyph-name="copyright" unicode="&#xa9;" horiz-adv-x="1449" 
d="M1061 1100v-264h-39q-10 55 -34.5 96.5t-52 63t-60.5 35t-55.5 17t-43.5 3.5q-64 0 -112.5 -26t-75 -64t-43.5 -90t-22 -95t-5 -88q0 -93 12.5 -160t53.5 -120q33 -43 83 -69t105 -26q149 0 260 140v-72q-121 -127 -317 -127q-81 0 -155.5 26t-134.5 75t-96 128.5
t-36 178.5q0 197 128 318.5t312 121.5q82 0 197 -41q32 -12 47 -12q38 0 45 51h39zM725 1380q192 0 355.5 -94t259.5 -257t96 -357q0 -144 -56.5 -275.5t-152 -226.5t-227 -151t-275.5 -56q-115 0 -223.5 36t-195.5 101.5t-152.5 152.5t-101.5 195.5t-36 223.5q0 194 96 357
t259 257t354 94zM725 1290q-168 0 -310.5 -82.5t-225.5 -225t-83 -310.5t83 -310.5t225.5 -225.5t310.5 -83t311 83t226.5 225.5t83.5 310.5t-83.5 310.5t-226.5 225t-311 82.5z" />
    <glyph glyph-name="ordfeminine" unicode="&#xaa;" horiz-adv-x="704" 
d="M399 1200v29q0 16 -3 28.5t-11 26.5t-27 21.5t-47 7.5q-35 0 -59.5 -18t-24.5 -48q0 -28 -26.5 -49.5t-65.5 -21.5q-35 0 -57.5 15.5t-22.5 43.5q0 54 67.5 99.5t209.5 45.5q131 0 193.5 -41.5t62.5 -132.5v-180q0 -49 5.5 -63.5t22.5 -14.5q31 0 31 53h70q0 -44 -15 -75
t-40.5 -46t-51.5 -21.5t-55 -6.5q-33 0 -56 5t-39 17.5t-23 20t-19 25.5q-103 -68 -207 -68q-79 0 -124.5 31.5t-45.5 83.5q0 50 30 89t111 76.5t217 67.5zM399 991v133q-88 -27 -125.5 -54.5t-37.5 -68.5q0 -25 14.5 -40t40.5 -15q47 0 108 45z" />
    <glyph glyph-name="guillemotleft" unicode="&#xab;" horiz-adv-x="1153" 
d="M893 444l197 -444h-93l-391 444l391 445h93zM356 444l197 -444h-92l-391 444l391 445h92z" />
    <glyph glyph-name="logicalnot" unicode="&#xac;" horiz-adv-x="1366" 
d="M131 991h1102v-659h-184v475h-918v184z" />
    <glyph glyph-name="uni00AD" unicode="&#xad;" horiz-adv-x="704" 
d="M82 311v201h541v-201h-541z" />
    <glyph glyph-name="registered" unicode="&#xae;" horiz-adv-x="1449" 
d="M346 1083h361q84 0 140.5 -8t78.5 -17t45 -24q33 -22 62.5 -65t29.5 -105q0 -14 -1 -27t-10.5 -42t-26.5 -52t-53.5 -47.5t-86.5 -38.5l135 -249q48 -88 104 -99v-35h-239l-205 369h-47v-199q0 -83 21.5 -107.5t99.5 -27.5v-35h-424v35q29 -1 45 2t31.5 15.5t21.5 41
t6 76.5v474q0 78 -16.5 102.5t-71.5 28.5v34zM633 1040v-346q20 -4 55 -4q60 0 110 44.5t50 133.5q0 172 -178 172h-37zM725 1380q192 0 355.5 -94t259.5 -257t96 -357q0 -144 -56.5 -275.5t-152 -226.5t-227 -151t-275.5 -56q-115 0 -223.5 36t-195.5 101.5t-152.5 152.5
t-101.5 195.5t-36 223.5q0 194 96 357t259 257t354 94zM725 1290q-168 0 -310.5 -82.5t-225.5 -225t-83 -310.5t83 -310.5t225.5 -225.5t310.5 -83t311 83t226.5 225.5t83.5 310.5t-83.5 310.5t-226.5 225t-311 82.5z" />
    <glyph glyph-name="macron" unicode="&#xaf;" horiz-adv-x="681" 
d="M61 1083v138h560v-138h-560z" />
    <glyph glyph-name="degree" unicode="&#xb0;" horiz-adv-x="768" 
d="M385 1346q143 0 246.5 -103.5t103.5 -247.5q0 -143 -103.5 -246.5t-246.5 -103.5t-246.5 103.5t-103.5 246.5q0 144 103.5 247.5t246.5 103.5zM385 1202q-88 0 -147.5 -58.5t-59.5 -148.5q0 -89 59 -148t148 -59t148 59.5t59 147.5q0 90 -58.5 148.5t-148.5 58.5z" />
    <glyph glyph-name="plusminus" unicode="&#xb1;" horiz-adv-x="1366" 
d="M131 1006h459v458h184v-458h459v-185h-459v-459h-184v459h-459v185zM131 184h1102v-184h-1102v184z" />
    <glyph glyph-name="two.superior" unicode="&#xb2;" 
d="M532 608h-73q6 28 3 33.5t-26 5.5h-393v55q31 24 63 52t83.5 80t89 101.5t66 111t28.5 114.5q0 59 -33 91t-80 32q-42 0 -70 -24.5t-28 -57.5q0 -34 20 -65q4 -4 4 -13q0 -6 -16 -12l-59 -20q-21 -7 -25 -7q-18 0 -30.5 32t-12.5 65q0 68 63.5 116t188.5 48
q60 0 107 -13.5t74.5 -34t45 -46.5t23.5 -48t6 -43q0 -48 -22.5 -93.5t-73 -96.5t-99.5 -91.5t-133 -106.5q-20 -15 -30 -23h368z" />
    <glyph glyph-name="three.superior" unicode="&#xb3;" 
d="M188 1135l-47 -19q-19 -8 -28 -8q-22 0 -39 26t-17 54q0 8 3.5 22t19.5 39t42.5 45.5t79 36t122.5 15.5q223 0 223 -125q0 -56 -37 -93.5t-102 -68.5q74 -9 118.5 -54.5t44.5 -121.5q0 -109 -97.5 -180.5t-237.5 -71.5q-99 0 -154 33.5t-55 78.5q0 30 20.5 46t52.5 16
q21 0 43.5 -13t32.5 -34q20 -40 36.5 -52t51.5 -12q57 0 91 45t34 123q0 65 -13.5 99t-47.5 34q-18 0 -58 -24q-4 -3 -12 -8.5t-10.5 -7.5t-8 -4.5t-10 -3.5t-10.5 -1q-16 0 -28.5 8.5t-12.5 24.5q0 22 43 47q104 64 126 85q36 34 36 87q0 43 -31 64.5t-69 21.5
q-43 0 -70 -23t-27 -47q0 -20 15 -40q14 -19 14 -21q0 -9 -27 -18z" />
    <glyph glyph-name="acute" unicode="&#xb4;" horiz-adv-x="681" 
d="M190 975l109 342h258l-295 -342h-72z" />
    <glyph glyph-name="mu" unicode="&#xb5;" horiz-adv-x="1067" 
d="M119 819h258v-520q0 -35 0.5 -56.5t3.5 -48t8.5 -41.5t14.5 -29t24 -20t35 -6q92 0 162 115v606h258v-530q0 -35 0.5 -50t2 -41.5t5.5 -37.5t11 -25t18.5 -19t27.5 -5q60 0 72 137h41q-2 -70 -22.5 -124t-47.5 -82.5t-62.5 -46.5t-61.5 -23t-50 -5q-144 0 -190 150
q-25 -28 -45 -47t-56.5 -46.5t-81 -42t-94.5 -14.5q-91 0 -141 53q0 -93 20 -165q35 -119 35 -154q0 -127 -112 -127q-35 0 -58.5 15t-31.5 38t-10.5 36t-2.5 24q0 29 5.5 55.5t31.5 128.5q33 130 33 369v579z" />
    <glyph glyph-name="paragraph" unicode="&#xb6;" horiz-adv-x="1044" 
d="M602 1284v-1636h-94v827q-50 2 -84.5 6t-95.5 16t-115 39.5t-96 69.5q-66 66 -93.5 153.5t-27.5 166.5q0 104 37 189.5t139 160.5q62 45 150.5 62.5t308.5 17.5h418v-43h-41q-29 0 -51.5 -5t-37 -12t-24.5 -22.5t-15.5 -28t-8 -37t-3 -40.5t-0.5 -48v-1472h-92v1636h-174
z" />
    <glyph glyph-name="periodcentered" unicode="&#xb7;" horiz-adv-x="575" 
d="M131 657q0 65 45.5 110.5t110.5 45.5q67 0 112 -46t45 -110q0 -65 -45.5 -111t-111.5 -46q-64 0 -110 45t-46 112z" />
    <glyph glyph-name="cedilla" unicode="&#xb8;" horiz-adv-x="681" 
d="M272 -176l25 162h80l-10 -72q40 -2 71.5 -15t50 -31t31 -40.5t17 -42t4.5 -37.5q0 -71 -57.5 -126.5t-164.5 -55.5q-96 0 -178 37l31 80q45 -25 98 -25q46 0 71.5 27.5t25.5 62.5q0 68 -95 76z" />
    <glyph glyph-name="one.superior" unicode="&#xb9;" 
d="M399 1346v-582q0 -35 12 -45t46 -10h45v-62h-387v62h41q44 0 54.5 11t10.5 52v397q0 43 -13 53.5t-71 10.5h-33v59q104 12 145.5 22t76.5 32h73z" />
    <glyph glyph-name="ordmasculine" unicode="&#xba;" horiz-adv-x="724" 
d="M35 1110q0 69 30 123t79 85t106 46.5t117 15.5q151 0 237 -77.5t86 -190.5q0 -122 -95.5 -195t-229.5 -73q-136 0 -233 71.5t-97 194.5zM236 1108q0 -43 4 -73t16.5 -61t39.5 -47t69 -16q39 0 65 15.5t38 46.5t16.5 63.5t4.5 79.5q0 108 -30 152.5t-99 44.5t-96.5 -45.5
t-27.5 -159.5z" />
    <glyph glyph-name="guillemotright" unicode="&#xbb;" horiz-adv-x="1153" 
d="M260 444l-197 445h93l391 -445l-391 -444h-93zM797 444l-197 445h92l391 -445l-391 -444h-92z" />
    <glyph glyph-name="onequarter" unicode="&#xbc;" horiz-adv-x="1622" 
d="M973 221v74l350 403h100v-405h109v-72h-109v-98v-6v-18.5t2 -13.5t3.5 -10.5t8 -6.5t12.5 -4.5t20 -2t27 -1t36 0.5v-61h-389v61h33q57 0 68 9t11 53v98h-282zM1067 293h188v215zM473 1346v-582q0 -36 11 -45.5t46 -9.5h45v-62h-387v62h41q45 0 55.5 11t10.5 52v397
q0 43 -13 53.5t-71 10.5h-33v59q104 12 144.5 22t76.5 32h74zM395 -59l725 1419h119l-727 -1419h-117z" />
    <glyph glyph-name="onehalf" unicode="&#xbd;" horiz-adv-x="1622" 
d="M473 1346v-582q0 -36 11 -45.5t46 -9.5h45v-62h-387v62h41q45 0 55.5 11t10.5 52v397q0 43 -13 53.5t-71 10.5h-33v59q104 12 144.5 22t76.5 32h74zM373 -59l725 1419h116l-725 -1419h-116zM1481 -39h-74q6 28 4 33q-4 6 -27 6h-393v55q31 24 63 52t83.5 80t89 101.5
t66 111t28.5 114.5q0 59 -33 91t-80 32q-42 0 -70 -24.5t-28 -57.5q0 -35 20 -66q5 -5 5 -12q0 -5 -17 -12l-59 -21q-18 -6 -25 -6q-18 0 -30.5 32t-12.5 65q0 68 63.5 115.5t188.5 47.5q74 0 128 -19.5t80 -50.5t37 -59t11 -55q0 -48 -22.5 -94t-74.5 -98t-100 -92
t-135 -108q-17 -13 -26 -20h368z" />
    <glyph glyph-name="threequarters" unicode="&#xbe;" horiz-adv-x="1622" 
d="M973 221v74l350 403h100v-405h109v-72h-109v-98v-8v-15.5t1 -12.5t3 -9.5t5.5 -7t9 -5t13.5 -3t19 -1.5t25.5 -0.5t32.5 0.5v-61h-389v61h33q57 0 68 9t11 53v98h-282zM1067 293h188v215zM262 1135l-47 -19q-19 -8 -29 -8q-22 0 -38.5 26t-16.5 54q0 8 3.5 22t19.5 39
t42 45.5t78.5 36t122.5 15.5q224 0 224 -125q0 -56 -37.5 -93t-102.5 -69q75 -9 119.5 -54.5t44.5 -121.5q0 -109 -98 -180.5t-238 -71.5q-99 0 -154 33.5t-55 78.5q0 30 21 46t53 16q21 0 43.5 -13t32.5 -34q20 -40 36.5 -52t51.5 -12q57 0 91 45t34 123q0 133 -62 133
q-17 0 -57 -24q-4 -3 -12 -8.5t-10.5 -7.5t-8 -4.5t-10 -3.5t-10.5 -1q-16 0 -28.5 8.5t-12.5 24.5q0 22 43 47q104 64 126 85q36 34 36 87q0 43 -31.5 64.5t-69.5 21.5q-43 0 -69.5 -23t-26.5 -47q0 -21 14 -40q15 -20 15 -21q0 -9 -27 -18zM395 -59l725 1419h119
l-727 -1419h-117z" />
    <glyph glyph-name="questiondown" unicode="&#xbf;" horiz-adv-x="917" 
d="M645 438v-338h-82q-15 26 -33 39q-27 17 -65 17q-67 0 -106.5 -68.5t-39.5 -187.5q0 -88 19 -151.5t50 -95t62.5 -45.5t65.5 -14q37 0 65.5 12.5t45 35t24 38t15.5 37.5q6 17 10.5 26.5t15 26t28 25t40.5 8.5q38 0 65 -29t27 -63q0 -60 -55.5 -109.5t-140 -75.5
t-175.5 -26q-99 0 -180 36.5t-130.5 95.5t-76 130t-26.5 144q0 148 93.5 256t231.5 108q71 0 160 -43v211h92zM756 766q0 -66 -45.5 -112t-110.5 -46q-66 0 -112 46.5t-46 111.5t46 110.5t112 45.5q64 0 110 -45.5t46 -110.5z" />
    <glyph glyph-name="Agrave" unicode="&#xc0;" horiz-adv-x="1409" 
d="M391 379l-33 -88q-28 -74 -28 -107q0 -32 16 -52.5t45.5 -28t48 -9.5t45.5 -2v-92h-467v92q83 0 134 52.5t112 213.5l391 1024h95l413 -1056q17 -43 24 -60t21 -48t21.5 -42t21.5 -30.5t26 -25.5l30 -15t38 -11t46 -2v-92h-639v92q28 0 41.5 0.5t35.5 2t33 5.5t23 11.5
t17 19t5 27.5q0 29 -12 61l-64 160h-440zM608 950l-178 -473h365zM856 1470h-72l-295 342h259z" />
    <glyph glyph-name="Aacute" unicode="&#xc1;" horiz-adv-x="1409" 
d="M391 379l-33 -88q-28 -74 -28 -107q0 -32 16 -52.5t45.5 -28t48 -9.5t45.5 -2v-92h-467v92q83 0 134 52.5t112 213.5l391 1024h95l413 -1056q17 -43 24 -60t21 -48t21.5 -42t21.5 -30.5t26 -25.5l30 -15t38 -11t46 -2v-92h-639v92q28 0 41.5 0.5t35.5 2t33 5.5t23 11.5
t17 19t5 27.5q0 29 -12 61l-64 160h-440zM608 950l-178 -473h365zM555 1470l109 342h258l-295 -342h-72z" />
    <glyph glyph-name="Acircumflex" unicode="&#xc2;" horiz-adv-x="1409" 
d="M391 379l-33 -88q-28 -74 -28 -107q0 -32 16 -52.5t45.5 -28t48 -9.5t45.5 -2v-92h-467v92q83 0 134 52.5t112 213.5l391 1024h95l413 -1056q17 -43 24 -60t21 -48t21.5 -42t21.5 -30.5t26 -25.5l30 -15t38 -11t46 -2v-92h-639v92q28 0 41.5 0.5t35.5 2t33 5.5t23 11.5
t17 19t5 27.5q0 29 -12 61l-64 160h-440zM608 950l-178 -473h365zM707 1673l-236 -217h-57l174 377h235l174 -377h-57z" />
    <glyph glyph-name="Atilde" unicode="&#xc3;" horiz-adv-x="1409" 
d="M391 379l-33 -88q-28 -74 -28 -107q0 -32 16 -52.5t45.5 -28t48 -9.5t45.5 -2v-92h-467v92q83 0 134 52.5t112 213.5l391 1024h95l413 -1056q17 -43 24 -60t21 -48t21.5 -42t21.5 -30.5t26 -25.5l30 -15t38 -11t46 -2v-92h-639v92q28 0 41.5 0.5t35.5 2t33 5.5t23 11.5
t17 19t5 27.5q0 29 -12 61l-64 160h-440zM608 950l-178 -473h365zM1014 1782h61q-11 -112 -73.5 -190.5t-145.5 -78.5q-63 0 -188 60q-70 33 -97 42t-59 9q-43 0 -75 -29.5t-38 -78.5h-63q10 120 76.5 194t152.5 74q73 0 187 -64q64 -33 87.5 -42t49.5 -9q53 0 85.5 34
t39.5 79z" />
    <glyph glyph-name="Adieresis" unicode="&#xc4;" horiz-adv-x="1409" 
d="M391 379l-33 -88q-28 -74 -28 -107q0 -32 16 -52.5t45.5 -28t48 -9.5t45.5 -2v-92h-467v92q83 0 134 52.5t112 213.5l391 1024h95l413 -1056q17 -43 24 -60t21 -48t21.5 -42t21.5 -30.5t26 -25.5l30 -15t38 -11t46 -2v-92h-639v92q28 0 41.5 0.5t35.5 2t33 5.5t23 11.5
t17 19t5 27.5q0 29 -12 61l-64 160h-440zM608 950l-178 -473h365zM408 1645q0 46 33 78t79 32q47 0 80 -32.5t33 -77.5q0 -46 -33.5 -79.5t-79.5 -33.5q-45 0 -78.5 32.5t-33.5 80.5zM778 1645q0 45 33.5 77.5t79.5 32.5q47 0 80 -33.5t33 -76.5q0 -46 -33 -79.5t-80 -33.5
q-45 0 -79 32.5t-34 80.5z" />
    <glyph glyph-name="Aring" unicode="&#xc5;" horiz-adv-x="1409" 
d="M391 379l-33 -88q-28 -74 -28 -107q0 -32 16 -52.5t45.5 -28t48 -9.5t45.5 -2v-92h-467v92q83 0 134 52.5t112 213.5l391 1024h95l413 -1056q17 -43 24 -60t21 -48t21.5 -42t21.5 -30.5t26 -25.5l30 -15t38 -11t46 -2v-92h-639v92q28 0 41.5 0.5t35.5 2t33 5.5t23 11.5
t17 19t5 27.5q0 29 -12 61l-64 160h-440zM608 950l-178 -473h365zM514 1645q0 80 56.5 135t134.5 55q79 0 135.5 -56t56.5 -134t-56.5 -134.5t-135.5 -56.5q-78 0 -134.5 55t-56.5 136zM588 1645q0 -50 35 -83.5t82 -33.5q49 0 83.5 34.5t34.5 82.5t-34 82t-84 34
q-47 0 -82 -33.5t-35 -82.5z" />
    <glyph glyph-name="AE" unicode="&#xc6;" horiz-adv-x="2004" 
d="M573 655l-184 -325q-63 -111 -63 -156q0 -82 135 -82v-92h-447v92q26 2 42 6t42 19.5t50.5 42.5t58.5 76.5t74 121.5l424 764q34 57 34 88q0 32 -36 43t-130 11h-32v92h1296l18 -350h-94q-8 36 -17 65t-20.5 52t-21.5 40.5t-26.5 30.5t-27.5 21.5t-32 14.5t-33 9
t-37.5 4.5t-39.5 1.5h-44h-252v-479h144q24 0 36.5 0.5t32.5 3.5t31 9.5t25 18.5t21 30t13 45t7 63h92v-449h-92q-6 105 -40.5 136.5t-127.5 31.5h-142v-323v-50t2 -41t4.5 -35.5t8.5 -27.5t14 -23.5t21 -16.5t29.5 -13t39 -7.5t49.5 -5.5t62 -1q70 0 118.5 6.5t97 26.5
t81 56.5t59 97.5t41.5 148h92l-10 -446h-1194v92q65 0 105 9t60.5 31t27 48.5t6.5 71.5v403h-351zM924 1290l-289 -524h289v524z" />
    <glyph glyph-name="Ccedilla" unicode="&#xc7;" horiz-adv-x="1515" 
d="M844 -23l-15 -73q65 -4 113.5 -24t73 -49t36 -56.5t11.5 -53.5q0 -83 -78.5 -143.5t-214.5 -60.5q-134 0 -240 43l41 88q63 -29 131 -29q59 0 94 30.5t35 69.5q0 77 -126 86l30 170q-124 9 -237.5 62t-202 140.5t-141 216t-52.5 278.5q0 142 51.5 271t141.5 226
t222.5 154t285.5 57q254 0 420 -166q25 50 43 125h90l16 -499h-96q-40 195 -167.5 312.5t-283.5 117.5q-178 0 -288.5 -145t-110.5 -427q0 -111 16 -202.5t42 -152.5t62 -108t72 -73t76.5 -42t70 -21t58.5 -5q93 0 176.5 41t141 106t96 138.5t53.5 146.5h96v-512h-94
q-22 83 -69 154q-29 -31 -53 -52.5t-72 -55t-113 -55.5t-141 -28z" />
    <glyph glyph-name="Egrave" unicode="&#xc8;" horiz-adv-x="1343" 
d="M1268 446l-11 -446h-1208v92q66 0 106.5 9.5t60 32.5t25 48.5t5.5 69.5v852q0 34 -2.5 54.5t-13.5 43.5t-31.5 34.5t-57.5 19.5t-92 8v92h1125l18 -352h-92q-10 40 -22 71.5t-23 55.5t-27.5 42t-29 30t-34.5 20.5t-36.5 12.5t-43 6t-46 2.5t-52.5 0.5h-254v-479h138
q103 0 135.5 31t38.5 139h96v-451h-92q-3 57 -12 90t-31 51t-51 23.5t-82 5.5h-140v-319q0 -65 2 -92.5t10.5 -61t30 -44.5t57.5 -19t95 -8h109q27 0 43.5 0.5t51 7t59 18.5t57 36.5t54.5 59t42.5 89.5t30.5 124h94zM823 1470h-71l-295 342h258z" />
    <glyph glyph-name="Eacute" unicode="&#xc9;" horiz-adv-x="1343" 
d="M1268 446l-11 -446h-1208v92q66 0 106.5 9.5t60 32.5t25 48.5t5.5 69.5v852q0 34 -2.5 54.5t-13.5 43.5t-31.5 34.5t-57.5 19.5t-92 8v92h1125l18 -352h-92q-10 40 -22 71.5t-23 55.5t-27.5 42t-29 30t-34.5 20.5t-36.5 12.5t-43 6t-46 2.5t-52.5 0.5h-254v-479h138
q103 0 135.5 31t38.5 139h96v-451h-92q-3 57 -12 90t-31 51t-51 23.5t-82 5.5h-140v-319q0 -65 2 -92.5t10.5 -61t30 -44.5t57.5 -19t95 -8h109q27 0 43.5 0.5t51 7t59 18.5t57 36.5t54.5 59t42.5 89.5t30.5 124h94zM625 1470l108 342h258l-295 -342h-71z" />
    <glyph glyph-name="Ecircumflex" unicode="&#xca;" horiz-adv-x="1343" 
d="M1268 446l-11 -446h-1208v92q66 0 106.5 9.5t60 32.5t25 48.5t5.5 69.5v852q0 34 -2.5 54.5t-13.5 43.5t-31.5 34.5t-57.5 19.5t-92 8v92h1125l18 -352h-92q-10 40 -22 71.5t-23 55.5t-27.5 42t-29 30t-34.5 20.5t-36.5 12.5t-43 6t-46 2.5t-52.5 0.5h-254v-479h138
q103 0 135.5 31t38.5 139h96v-451h-92q-3 57 -12 90t-31 51t-51 23.5t-82 5.5h-140v-319q0 -65 2 -92.5t10.5 -61t30 -44.5t57.5 -19t95 -8h109q27 0 43.5 0.5t51 7t59 18.5t57 36.5t54.5 59t42.5 89.5t30.5 124h94zM674 1673l-236 -217h-57l174 377h236l174 -377h-58z" />
    <glyph glyph-name="Edieresis" unicode="&#xcb;" horiz-adv-x="1343" 
d="M1268 446l-11 -446h-1208v92q66 0 106.5 9.5t60 32.5t25 48.5t5.5 69.5v852q0 34 -2.5 54.5t-13.5 43.5t-31.5 34.5t-57.5 19.5t-92 8v92h1125l18 -352h-92q-10 40 -22 71.5t-23 55.5t-27.5 42t-29 30t-34.5 20.5t-36.5 12.5t-43 6t-46 2.5t-52.5 0.5h-254v-479h138
q103 0 135.5 31t38.5 139h96v-451h-92q-3 57 -12 90t-31 51t-51 23.5t-82 5.5h-140v-319q0 -65 2 -92.5t10.5 -61t30 -44.5t57.5 -19t95 -8h109q27 0 43.5 0.5t51 7t59 18.5t57 36.5t54.5 59t42.5 89.5t30.5 124h94zM375 1645q0 46 33 78t79 32q47 0 80 -32.5t33 -77.5
q0 -46 -33.5 -79.5t-79.5 -33.5q-45 0 -78.5 32.5t-33.5 80.5zM745 1645q0 45 33.5 77.5t79.5 32.5t79.5 -33.5t33.5 -76.5q0 -46 -33 -79.5t-80 -33.5q-45 0 -79 32.5t-34 80.5z" />
    <glyph glyph-name="Igrave" unicode="&#xcc;" horiz-adv-x="768" 
d="M39 1264v92h688v-92q-67 0 -107.5 -9t-61 -31t-26.5 -48.5t-6 -71.5v-852q0 -35 3 -56.5t14.5 -43.5t33 -33.5t59 -19t91.5 -7.5v-92h-688v92q67 0 107.5 9t61 31t26.5 48.5t6 71.5v852q0 35 -3 57t-14.5 44t-33 33.5t-59 18.5t-91.5 7zM535 1470h-72l-295 342h258z" />
    <glyph glyph-name="Iacute" unicode="&#xcd;" horiz-adv-x="768" 
d="M39 1264v92h688v-92q-67 0 -107.5 -9t-61 -31t-26.5 -48.5t-6 -71.5v-852q0 -35 3 -56.5t14.5 -43.5t33 -33.5t59 -19t91.5 -7.5v-92h-688v92q67 0 107.5 9t61 31t26.5 48.5t6 71.5v852q0 35 -3 57t-14.5 44t-33 33.5t-59 18.5t-91.5 7zM233 1470l109 342h258l-295 -342
h-72z" />
    <glyph glyph-name="Icircumflex" unicode="&#xce;" horiz-adv-x="768" 
d="M39 1264v92h688v-92q-67 0 -107.5 -9t-61 -31t-26.5 -48.5t-6 -71.5v-852q0 -35 3 -56.5t14.5 -43.5t33 -33.5t59 -19t91.5 -7.5v-92h-688v92q67 0 107.5 9t61 31t26.5 48.5t6 71.5v852q0 35 -3 57t-14.5 44t-33 33.5t-59 18.5t-91.5 7zM385 1673l-235 -217h-58l174 377
h236l174 -377h-58z" />
    <glyph glyph-name="Idieresis" unicode="&#xcf;" horiz-adv-x="768" 
d="M39 1264v92h688v-92q-67 0 -107.5 -9t-61 -31t-26.5 -48.5t-6 -71.5v-852q0 -35 3 -56.5t14.5 -43.5t33 -33.5t59 -19t91.5 -7.5v-92h-688v92q67 0 107.5 9t61 31t26.5 48.5t6 71.5v852q0 35 -3 57t-14.5 44t-33 33.5t-59 18.5t-91.5 7zM86 1645q0 45 33.5 77.5
t79.5 32.5q47 0 79.5 -32.5t32.5 -77.5q0 -46 -33 -79.5t-79 -33.5q-45 0 -79 32.5t-34 80.5zM457 1645q0 46 33 78t79 32q47 0 80 -33.5t33 -76.5q0 -46 -33 -79.5t-80 -33.5q-45 0 -78.5 32.5t-33.5 80.5z" />
    <glyph glyph-name="Eth" unicode="&#xd0;" horiz-adv-x="1579" 
d="M252 735v373q0 35 -3 57t-14.5 44t-33 33.5t-59 18.5t-91.5 7v94l291 6q15 0 121.5 2t124.5 2q309 0 497 -76q182 -74 290 -248t108 -382q0 -111 -30.5 -210t-81 -170.5t-110.5 -122t-126 -79.5q-190 -84 -465 -84h-619v92q67 0 107.5 9t61 31t26.5 48.5t6 71.5v373h-176
v110h176zM539 625v-318q0 -33 0.5 -48.5t2.5 -39.5t6.5 -34.5t12.5 -26t21 -22t31.5 -13.5t43.5 -9.5t58 -2.5q104 0 184.5 37t128.5 94t78.5 134.5t41.5 149t11 146.5q0 211 -81 354t-218 197q-54 22 -125 29.5t-196 7.5v-525h315v-110h-315z" />
    <glyph glyph-name="Ntilde" unicode="&#xd1;" horiz-adv-x="1556" 
d="M344 1042v-747q0 -43 1 -65t7 -49.5t18.5 -40.5t35 -26t57 -17.5t84.5 -4.5v-92h-504v92q32 0 57 3t44 6.5t33 12.5t23.5 16t16 22.5t9.5 25.5t4.5 32.5t2 36t0.5 42.5v6v692q0 41 -0.5 63.5t-3 52.5t-7.5 46t-14 36t-22.5 30.5t-33.5 21.5t-46 17t-61 10v92h395
l772 -912v619q0 39 -1.5 61t-7 49t-18 40.5t-33.5 27t-54.5 18.5t-79.5 5v92h506v-92q-33 0 -59 -2.5t-46.5 -6t-35 -12t-25 -15.5t-17 -22t-10.5 -26t-5.5 -33.5t-2 -38t-0.5 -45.5v-1075h-92zM1087 1782h62q-11 -112 -73.5 -190.5t-145.5 -78.5q-64 0 -189 60
q-71 33 -97 42t-58 9q-43 0 -75 -29.5t-38 -78.5h-63q10 120 76.5 194t152.5 74q72 0 186 -64q64 -33 88 -42t50 -9q53 0 85 34t39 79z" />
    <glyph glyph-name="Ograve" unicode="&#xd2;" horiz-adv-x="1705" 
d="M96 680q0 107 29 207.5t90.5 190t148.5 157t211 106.5t271 39q127 0 235 -26t184.5 -69.5t137.5 -103.5t99 -123.5t63 -133t35 -130t10 -116.5q0 -137 -49.5 -262t-141.5 -224t-238.5 -158t-326.5 -59q-156 0 -285 43t-215 113t-145.5 163t-86 190t-26.5 196zM420 682
q0 -33 1 -60t5.5 -74t12.5 -85.5t23.5 -87t37 -86t55 -75.5t75 -63.5t100 -41t126.5 -15.5q86 0 155 26t112.5 65.5t76 97t48.5 108.5t25.5 114.5t11 99.5t1.5 77q0 73 -8 139t-26 133.5t-51 121.5t-79 96.5t-114.5 66t-153.5 23.5q-434 0 -434 -580zM1004 1470h-72
l-295 342h258z" />
    <glyph glyph-name="Oacute" unicode="&#xd3;" horiz-adv-x="1705" 
d="M96 680q0 107 29 207.5t90.5 190t148.5 157t211 106.5t271 39q127 0 235 -26t184.5 -69.5t137.5 -103.5t99 -123.5t63 -133t35 -130t10 -116.5q0 -137 -49.5 -262t-141.5 -224t-238.5 -158t-326.5 -59q-156 0 -285 43t-215 113t-145.5 163t-86 190t-26.5 196zM420 682
q0 -33 1 -60t5.5 -74t12.5 -85.5t23.5 -87t37 -86t55 -75.5t75 -63.5t100 -41t126.5 -15.5q86 0 155 26t112.5 65.5t76 97t48.5 108.5t25.5 114.5t11 99.5t1.5 77q0 73 -8 139t-26 133.5t-51 121.5t-79 96.5t-114.5 66t-153.5 23.5q-434 0 -434 -580zM702 1470l109 342h258
l-295 -342h-72z" />
    <glyph glyph-name="Ocircumflex" unicode="&#xd4;" horiz-adv-x="1705" 
d="M96 680q0 107 29 207.5t90.5 190t148.5 157t211 106.5t271 39q127 0 235 -26t184.5 -69.5t137.5 -103.5t99 -123.5t63 -133t35 -130t10 -116.5q0 -137 -49.5 -262t-141.5 -224t-238.5 -158t-326.5 -59q-156 0 -285 43t-215 113t-145.5 163t-86 190t-26.5 196zM420 682
q0 -33 1 -60t5.5 -74t12.5 -85.5t23.5 -87t37 -86t55 -75.5t75 -63.5t100 -41t126.5 -15.5q86 0 155 26t112.5 65.5t76 97t48.5 108.5t25.5 114.5t11 99.5t1.5 77q0 73 -8 139t-26 133.5t-51 121.5t-79 96.5t-114.5 66t-153.5 23.5q-434 0 -434 -580zM854 1673l-236 -217
h-57l174 377h236l174 -377h-58z" />
    <glyph glyph-name="Otilde" unicode="&#xd5;" horiz-adv-x="1705" 
d="M96 680q0 107 29 207.5t90.5 190t148.5 157t211 106.5t271 39q127 0 235 -26t184.5 -69.5t137.5 -103.5t99 -123.5t63 -133t35 -130t10 -116.5q0 -137 -49.5 -262t-141.5 -224t-238.5 -158t-326.5 -59q-156 0 -285 43t-215 113t-145.5 163t-86 190t-26.5 196zM420 682
q0 -33 1 -60t5.5 -74t12.5 -85.5t23.5 -87t37 -86t55 -75.5t75 -63.5t100 -41t126.5 -15.5q86 0 155 26t112.5 65.5t76 97t48.5 108.5t25.5 114.5t11 99.5t1.5 77q0 73 -8 139t-26 133.5t-51 121.5t-79 96.5t-114.5 66t-153.5 23.5q-434 0 -434 -580zM1161 1782h62
q-11 -112 -73.5 -190.5t-145.5 -78.5q-64 0 -189 60q-70 33 -97 42t-59 9q-43 0 -74.5 -29t-37.5 -79h-64q10 120 77 194t153 74q72 0 186 -64q64 -33 87.5 -42t49.5 -9q53 0 85.5 34t39.5 79z" />
    <glyph glyph-name="Odieresis" unicode="&#xd6;" horiz-adv-x="1705" 
d="M96 680q0 107 29 207.5t90.5 190t148.5 157t211 106.5t271 39q127 0 235 -26t184.5 -69.5t137.5 -103.5t99 -123.5t63 -133t35 -130t10 -116.5q0 -137 -49.5 -262t-141.5 -224t-238.5 -158t-326.5 -59q-156 0 -285 43t-215 113t-145.5 163t-86 190t-26.5 196zM420 682
q0 -33 1 -60t5.5 -74t12.5 -85.5t23.5 -87t37 -86t55 -75.5t75 -63.5t100 -41t126.5 -15.5q86 0 155 26t112.5 65.5t76 97t48.5 108.5t25.5 114.5t11 99.5t1.5 77q0 73 -8 139t-26 133.5t-51 121.5t-79 96.5t-114.5 66t-153.5 23.5q-434 0 -434 -580zM555 1645
q0 45 33.5 77.5t79.5 32.5q47 0 79.5 -32.5t32.5 -77.5q0 -46 -33 -79.5t-79 -33.5q-45 0 -79 32.5t-34 80.5zM926 1645q0 46 33 78t79 32t79.5 -33.5t33.5 -76.5q0 -46 -33 -79.5t-80 -33.5q-45 0 -78.5 32.5t-33.5 80.5z" />
    <glyph glyph-name="multiply" unicode="&#xd7;" horiz-adv-x="1366" 
d="M297 1178l387 -387l385 385l129 -129l-385 -385l387 -388l-131 -131l-387 387l-385 -385l-131 131l385 386l-385 385z" />
    <glyph glyph-name="Oslash" unicode="&#xd8;" horiz-adv-x="1705" 
d="M481 326l693 792q-114 144 -320 144q-434 0 -434 -580q0 -220 61 -356zM530 244q112 -150 326 -150q67 0 124 16t98 42t74 64.5t54.5 77t37 87t23.5 87.5t12.5 85t5.5 72.5t1 56.5q0 206 -63 354zM401 96l-104 -121l-70 60l101 117q-117 102 -174.5 247.5t-57.5 280.5
q0 107 28.5 207.5t89.5 190t148 157t211.5 106.5t272.5 39q83 0 153 -9.5t128.5 -29.5t85.5 -32t73 -36q3 -1 5 -2t4.5 -2.5t4.5 -2.5l107 120l70 -59l-103 -117q28 -25 55 -55t61.5 -81t59.5 -106.5t42.5 -132t17.5 -157.5q0 -137 -49 -262t-140.5 -224t-238.5 -158
t-328 -59q-249 0 -453 121z" />
    <glyph glyph-name="Ugrave" unicode="&#xd9;" horiz-adv-x="1536" 
d="M23 1264v92h684v-92q-53 0 -89.5 -7t-58 -18.5t-33 -33t-15 -44t-3.5 -57.5v-565q0 -179 35 -267q33 -82 114.5 -130t180.5 -48q105 0 195.5 52t125.5 133q28 66 36.5 133.5t8.5 162.5v488v40.5t-1.5 34.5t-4 31t-7.5 25.5t-12.5 22.5t-18 16.5t-25.5 14t-34 9t-43 6
t-54 1.5v92h499v-92q-28 0 -51 -1.5t-41 -7t-31.5 -9.5t-23.5 -14.5t-17.5 -17.5t-11.5 -23t-6.5 -25.5t-4 -30.5t-1.5 -33.5v-38.5v-500q0 -137 -10 -207t-50 -141q-41 -74 -106 -125.5t-136 -74.5t-126 -31.5t-107 -8.5q-66 0 -135 12.5t-142 39.5t-133.5 79t-93.5 121
q-26 54 -38.5 110t-14.5 93t-2 109l-2 565q0 29 -2 47.5t-8.5 39t-19.5 32.5t-34.5 22t-54 14.5t-77.5 4.5zM940 1470h-72l-295 342h258z" />
    <glyph glyph-name="Uacute" unicode="&#xda;" horiz-adv-x="1536" 
d="M23 1264v92h684v-92q-53 0 -89.5 -7t-58 -18.5t-33 -33t-15 -44t-3.5 -57.5v-565q0 -179 35 -267q33 -82 114.5 -130t180.5 -48q105 0 195.5 52t125.5 133q28 66 36.5 133.5t8.5 162.5v488v40.5t-1.5 34.5t-4 31t-7.5 25.5t-12.5 22.5t-18 16.5t-25.5 14t-34 9t-43 6
t-54 1.5v92h499v-92q-28 0 -51 -1.5t-41 -7t-31.5 -9.5t-23.5 -14.5t-17.5 -17.5t-11.5 -23t-6.5 -25.5t-4 -30.5t-1.5 -33.5v-38.5v-500q0 -137 -10 -207t-50 -141q-41 -74 -106 -125.5t-136 -74.5t-126 -31.5t-107 -8.5q-66 0 -135 12.5t-142 39.5t-133.5 79t-93.5 121
q-26 54 -38.5 110t-14.5 93t-2 109l-2 565q0 29 -2 47.5t-8.5 39t-19.5 32.5t-34.5 22t-54 14.5t-77.5 4.5zM700 1470l109 342h258l-295 -342h-72z" />
    <glyph glyph-name="Ucircumflex" unicode="&#xdb;" horiz-adv-x="1536" 
d="M23 1264v92h684v-92q-53 0 -89.5 -7t-58 -18.5t-33 -33t-15 -44t-3.5 -57.5v-565q0 -179 35 -267q33 -82 114.5 -130t180.5 -48q105 0 195.5 52t125.5 133q28 66 36.5 133.5t8.5 162.5v488v40.5t-1.5 34.5t-4 31t-7.5 25.5t-12.5 22.5t-18 16.5t-25.5 14t-34 9t-43 6
t-54 1.5v92h499v-92q-28 0 -51 -1.5t-41 -7t-31.5 -9.5t-23.5 -14.5t-17.5 -17.5t-11.5 -23t-6.5 -25.5t-4 -30.5t-1.5 -33.5v-38.5v-500q0 -137 -10 -207t-50 -141q-41 -74 -106 -125.5t-136 -74.5t-126 -31.5t-107 -8.5q-66 0 -135 12.5t-142 39.5t-133.5 79t-93.5 121
q-26 54 -38.5 110t-14.5 93t-2 109l-2 565q0 29 -2 47.5t-8.5 39t-19.5 32.5t-34.5 22t-54 14.5t-77.5 4.5zM791 1673l-236 -217h-57l174 377h235l174 -377h-57z" />
    <glyph glyph-name="Udieresis" unicode="&#xdc;" horiz-adv-x="1536" 
d="M23 1264v92h684v-92q-53 0 -89.5 -7t-58 -18.5t-33 -33t-15 -44t-3.5 -57.5v-565q0 -179 35 -267q33 -82 114.5 -130t180.5 -48q105 0 195.5 52t125.5 133q28 66 36.5 133.5t8.5 162.5v488v40.5t-1.5 34.5t-4 31t-7.5 25.5t-12.5 22.5t-18 16.5t-25.5 14t-34 9t-43 6
t-54 1.5v92h499v-92q-28 0 -51 -1.5t-41 -7t-31.5 -9.5t-23.5 -14.5t-17.5 -17.5t-11.5 -23t-6.5 -25.5t-4 -30.5t-1.5 -33.5v-38.5v-500q0 -137 -10 -207t-50 -141q-41 -74 -106 -125.5t-136 -74.5t-126 -31.5t-107 -8.5q-66 0 -135 12.5t-142 39.5t-133.5 79t-93.5 121
q-26 54 -38.5 110t-14.5 93t-2 109l-2 565q0 29 -2 47.5t-8.5 39t-19.5 32.5t-34.5 22t-54 14.5t-77.5 4.5zM492 1645q0 46 33 78t79 32q47 0 80 -32.5t33 -77.5q0 -46 -33.5 -79.5t-79.5 -33.5q-45 0 -78.5 32.5t-33.5 80.5zM862 1645q0 45 33.5 77.5t79.5 32.5t79 -33
t33 -77q0 -46 -32.5 -79.5t-79.5 -33.5q-45 0 -79 32.5t-34 80.5z" />
    <glyph glyph-name="Yacute" unicode="&#xdd;" horiz-adv-x="1449" 
d="M582 555l-340 567q-3 4 -6.5 9.5t-5.5 9t-3 4.5q-45 72 -79.5 94t-100.5 25v92h635v-92q-35 0 -54 -1t-42 -6.5t-33 -18.5t-10 -34t12.5 -48.5t54.5 -98.5l211 -357l201 318q35 57 50 89t15 62q0 23 -6 39.5t-19 26.5t-25.5 16.5t-33.5 9t-34.5 3t-36.5 0.5v92h493v-92
q-29 -2 -50 -6.5t-43 -18.5t-36.5 -27.5t-40 -47t-44.5 -62t-58 -88.5l-285 -441v-321q0 -27 1.5 -44t7.5 -38t19 -33t34 -23.5t55 -16.5t80 -5v-92h-682v92q66 0 106 9t60.5 31t26.5 48.5t6 71.5v303zM657 1470l109 342h258l-295 -342h-72z" />
    <glyph glyph-name="Thorn" unicode="&#xde;" horiz-adv-x="1323" 
d="M735 1356v-94q-48 0 -82.5 -4.5t-56 -16t-34.5 -23.5t-18.5 -36t-7 -43t-1.5 -54h71h20q23 -1 57 1t77 -2t90 -8.5t96 -18t95 -30.5t86.5 -46.5t71 -66t48 -89t17.5 -114.5q0 -76 -24 -137.5t-61.5 -101.5t-94.5 -70t-110.5 -45.5t-122.5 -24.5t-117.5 -11t-108.5 -2h-90
v-67q0 -45 6 -70.5t25.5 -48t60.5 -32t108 -9.5v-92h-682v92q41 0 72 4.5t52 11t35 20t21 24t10.5 31t4 32.5t0.5 37v850q0 28 -2 46t-8 38.5t-19 32.5t-34.5 23t-54 15.5t-77.5 4.5v94h682zM535 975v-545h92q36 0 63.5 1.5t63.5 8.5t63 18t54.5 32.5t45 50.5t28.5 72.5
t11 97.5q0 67 -18.5 116.5t-50.5 77t-74 45.5t-89 21.5t-95.5 5.5t-93.5 -2z" />
    <glyph glyph-name="germandbls" unicode="&#xdf;" horiz-adv-x="1236" 
d="M616 705v92q116 -1 174 69.5t58 173.5q0 26 -4 53t-17.5 63.5t-35.5 63.5t-63 46.5t-95 19.5q-41 0 -73.5 -9t-53 -21.5t-35 -36t-22 -42t-11 -50.5t-4 -50t-0.5 -51v-782q0 -35 0.5 -51t5.5 -39t15 -33.5t28.5 -19t46.5 -9.5v-92h-485v92q39 0 64 7.5t38.5 16.5t20 31.5
t7.5 39t1 51.5v632q0 59 4.5 108t17.5 103t35 96t58.5 81t85 65t118.5 41.5t156 15.5q107 0 194.5 -28t141.5 -74t82.5 -103.5t28.5 -119.5q0 -40 -13.5 -80t-42 -81t-81 -78t-123.5 -62q319 -99 319 -404q0 -93 -32 -166.5t-83 -116t-108 -64t-113 -21.5q-83 0 -137.5 46
t-54.5 107q0 27 16 41t31 14q13 0 22 -6t13 -16.5t6 -19t3 -18.5t1 -11q10 -49 65 -49q107 0 107 254q0 84 -11 148t-33 104t-46.5 66.5t-59 39t-62.5 17.5t-65 6z" />
    <glyph glyph-name="agrave" unicode="&#xe0;" horiz-adv-x="1110" 
d="M651 551v57q0 72 -34 112t-123 40q-77 0 -111 -32t-45 -97q-3 -16 -5 -25.5t-10 -26.5t-19.5 -27t-33.5 -18t-51 -8q-41 0 -73.5 24.5t-32.5 70.5q0 42 22.5 81t68.5 73.5t128.5 55.5t191.5 21q115 0 194 -22t119 -62.5t56 -85.5t16 -102v-316q0 -37 0.5 -54.5t3.5 -39
t9.5 -30t18.5 -15t30 -6.5q26 0 45.5 26.5t19.5 65.5h74q1 -114 -65 -174t-168 -60q-83 0 -139.5 39.5t-67.5 94.5q-165 -134 -336 -134q-109 0 -177.5 52t-68.5 139q0 58 24.5 106.5t68.5 86.5t116 72t155.5 61.5t198.5 56.5zM651 203v248q-83 -26 -142.5 -56t-87.5 -52.5
t-43.5 -50t-17.5 -40t-2 -31.5q0 -46 28 -74t79 -28q38 0 76.5 15.5t59 29.5t50.5 39zM645 979h-72l-294 342h258z" />
    <glyph glyph-name="aacute" unicode="&#xe1;" horiz-adv-x="1110" 
d="M651 551v57q0 72 -34 112t-123 40q-77 0 -111 -32t-45 -97q-3 -16 -5 -25.5t-10 -26.5t-19.5 -27t-33.5 -18t-51 -8q-41 0 -73.5 24.5t-32.5 70.5q0 42 22.5 81t68.5 73.5t128.5 55.5t191.5 21q115 0 194 -22t119 -62.5t56 -85.5t16 -102v-316q0 -37 0.5 -54.5t3.5 -39
t9.5 -30t18.5 -15t30 -6.5q26 0 45.5 26.5t19.5 65.5h74q1 -114 -65 -174t-168 -60q-83 0 -139.5 39.5t-67.5 94.5q-165 -134 -336 -134q-109 0 -177.5 52t-68.5 139q0 58 24.5 106.5t68.5 86.5t116 72t155.5 61.5t198.5 56.5zM651 203v248q-83 -26 -142.5 -56t-87.5 -52.5
t-43.5 -50t-17.5 -40t-2 -31.5q0 -46 28 -74t79 -28q38 0 76.5 15.5t59 29.5t50.5 39zM406 979l108 342h258l-295 -342h-71z" />
    <glyph glyph-name="acircumflex" unicode="&#xe2;" horiz-adv-x="1110" 
d="M651 551v57q0 72 -34 112t-123 40q-77 0 -111 -32t-45 -97q-3 -16 -5 -25.5t-10 -26.5t-19.5 -27t-33.5 -18t-51 -8q-41 0 -73.5 24.5t-32.5 70.5q0 42 22.5 81t68.5 73.5t128.5 55.5t191.5 21q115 0 194 -22t119 -62.5t56 -85.5t16 -102v-316q0 -37 0.5 -54.5t3.5 -39
t9.5 -30t18.5 -15t30 -6.5q26 0 45.5 26.5t19.5 65.5h74q1 -114 -65 -174t-168 -60q-83 0 -139.5 39.5t-67.5 94.5q-165 -134 -336 -134q-109 0 -177.5 52t-68.5 139q0 58 24.5 106.5t68.5 86.5t116 72t155.5 61.5t198.5 56.5zM651 203v248q-83 -26 -142.5 -56t-87.5 -52.5
t-43.5 -50t-17.5 -40t-2 -31.5q0 -46 28 -74t79 -28q38 0 76.5 15.5t59 29.5t50.5 39zM555 1182l-236 -217h-57l174 376h236l174 -376h-58z" />
    <glyph glyph-name="atilde" unicode="&#xe3;" horiz-adv-x="1110" 
d="M651 551v57q0 72 -34 112t-123 40q-77 0 -111 -32t-45 -97q-3 -16 -5 -25.5t-10 -26.5t-19.5 -27t-33.5 -18t-51 -8q-41 0 -73.5 24.5t-32.5 70.5q0 42 22.5 81t68.5 73.5t128.5 55.5t191.5 21q115 0 194 -22t119 -62.5t56 -85.5t16 -102v-316q0 -37 0.5 -54.5t3.5 -39
t9.5 -30t18.5 -15t30 -6.5q26 0 45.5 26.5t19.5 65.5h74q1 -114 -65 -174t-168 -60q-83 0 -139.5 39.5t-67.5 94.5q-165 -134 -336 -134q-109 0 -177.5 52t-68.5 139q0 58 24.5 106.5t68.5 86.5t116 72t155.5 61.5t198.5 56.5zM651 203v248q-83 -26 -142.5 -56t-87.5 -52.5
t-43.5 -50t-17.5 -40t-2 -31.5q0 -46 28 -74t79 -28q38 0 76.5 15.5t59 29.5t50.5 39zM864 1290h62q-11 -112 -73 -190t-146 -78q-66 0 -189 59q-72 34 -98 43t-58 9q-42 0 -74 -29.5t-38 -79.5h-64q10 120 77 194t153 74q73 0 186 -63q64 -33 87.5 -42t49.5 -9
q53 0 85.5 33.5t39.5 78.5z" />
    <glyph glyph-name="adieresis" unicode="&#xe4;" horiz-adv-x="1110" 
d="M651 551v57q0 72 -34 112t-123 40q-77 0 -111 -32t-45 -97q-3 -16 -5 -25.5t-10 -26.5t-19.5 -27t-33.5 -18t-51 -8q-41 0 -73.5 24.5t-32.5 70.5q0 42 22.5 81t68.5 73.5t128.5 55.5t191.5 21q115 0 194 -22t119 -62.5t56 -85.5t16 -102v-316q0 -37 0.5 -54.5t3.5 -39
t9.5 -30t18.5 -15t30 -6.5q26 0 45.5 26.5t19.5 65.5h74q1 -114 -65 -174t-168 -60q-83 0 -139.5 39.5t-67.5 94.5q-165 -134 -336 -134q-109 0 -177.5 52t-68.5 139q0 58 24.5 106.5t68.5 86.5t116 72t155.5 61.5t198.5 56.5zM651 203v248q-83 -26 -142.5 -56t-87.5 -52.5
t-43.5 -50t-17.5 -40t-2 -31.5q0 -46 28 -74t79 -28q38 0 76.5 15.5t59 29.5t50.5 39zM256 1153q0 46 33.5 78.5t79.5 32.5q47 0 79.5 -33t32.5 -78q0 -46 -33 -79.5t-79 -33.5q-45 0 -79 32.5t-34 80.5zM627 1153q0 46 33 78.5t79 32.5t79.5 -33.5t33.5 -77.5
q0 -46 -33 -79.5t-80 -33.5q-45 0 -78.5 32.5t-33.5 80.5z" />
    <glyph glyph-name="aring" unicode="&#xe5;" horiz-adv-x="1110" 
d="M651 551v57q0 72 -34 112t-123 40q-77 0 -111 -32t-45 -97q-3 -16 -5 -25.5t-10 -26.5t-19.5 -27t-33.5 -18t-51 -8q-41 0 -73.5 24.5t-32.5 70.5q0 42 22.5 81t68.5 73.5t128.5 55.5t191.5 21q115 0 194 -22t119 -62.5t56 -85.5t16 -102v-316q0 -37 0.5 -54.5t3.5 -39
t9.5 -30t18.5 -15t30 -6.5q26 0 45.5 26.5t19.5 65.5h74q1 -114 -65 -174t-168 -60q-83 0 -139.5 39.5t-67.5 94.5q-165 -134 -336 -134q-109 0 -177.5 52t-68.5 139q0 58 24.5 106.5t68.5 86.5t116 72t155.5 61.5t198.5 56.5zM651 203v248q-83 -26 -142.5 -56t-87.5 -52.5
t-43.5 -50t-17.5 -40t-2 -31.5q0 -46 28 -74t79 -28q38 0 76.5 15.5t59 29.5t50.5 39zM303 1153q0 80 56.5 135t134.5 55q79 0 135.5 -56t56.5 -134t-56.5 -134t-135.5 -56q-78 0 -134.5 55t-56.5 135zM377 1153q0 -50 35 -83.5t82 -33.5q49 0 83.5 34.5t34.5 82.5t-34 82.5
t-84 34.5q-47 0 -82 -34t-35 -83z" />
    <glyph glyph-name="ae" unicode="&#xe6;" horiz-adv-x="1515" 
d="M627 549v47q0 22 -1 37t-8.5 41.5t-21 43t-41.5 29.5t-68 13q-18 0 -33.5 -2t-27.5 -5t-22.5 -9.5t-17 -10.5t-13.5 -14t-10.5 -14.5t-8 -17t-6 -17.5t-5.5 -19t-5 -18q-31 -103 -123 -103q-45 0 -75.5 27t-30.5 68q0 96 114.5 161.5t282.5 65.5q78 0 144.5 -14t95.5 -27
t65 -33q1 1 9.5 6t13.5 8t16.5 9t20.5 10t23.5 10t27.5 10t30.5 8t34 7t37 4.5t41.5 1.5q169 0 276.5 -114t104.5 -298h-561q-1 -8 -1.5 -25.5t1.5 -53t8.5 -71t23 -75t41 -69t66 -49t94.5 -19.5q124 0 238 119l80 -52q-55 -72 -148.5 -125t-214.5 -53q-198 0 -366 166
q-216 -166 -379 -166q-27 0 -56 4.5t-63.5 19t-60.5 36t-44 60t-18 87.5q0 40 12 75t47 76t93 77t157 74.5t232 72.5zM627 180v269l-51 -18t-51 -20.5t-53 -26t-44.5 -30.5t-39.5 -37.5t-24 -44t-10 -53.5q0 -50 31 -78t82 -28q75 0 160 67zM887 532h309q0 228 -147 228
q-155 0 -162 -228z" />
    <glyph glyph-name="ccedilla" unicode="&#xe7;" horiz-adv-x="1003" 
d="M584 -33l-11 -71q95 -4 152 -58t57 -131q0 -23 -5.5 -46.5t-23 -51.5t-45 -49t-76 -35t-112.5 -14q-141 0 -258 47l45 84q81 -33 160 -33q53 0 88 28t35 66q0 30 -16 50t-42.5 27.5t-44 10t-34.5 2.5l22 182q-28 1 -71.5 13t-101 43.5t-105.5 76.5t-81.5 120t-33.5 165
t37.5 173t103 146.5t161.5 101.5t206 38q86 0 163.5 -22.5t131 -70.5t53.5 -112q0 -44 -33 -75t-76 -31q-14 0 -26.5 2t-22 8t-16.5 10.5t-13.5 15.5t-10 16.5t-8 19t-6 18.5t-5 20.5t-4.5 18.5q-13 50 -42.5 70t-84.5 20q-30 0 -57.5 -6t-61 -26.5t-57 -54t-40 -93.5
t-16.5 -140q0 -102 26.5 -181t89 -130t153.5 -51q23 0 44.5 4t38.5 9.5t34 15t29 18t25.5 21.5t21 22t17.5 22.5t14 20t11 18.5t8 13l84 -39q-60 -118 -160 -177t-210 -59z" />
    <glyph glyph-name="egrave" unicode="&#xe8;" horiz-adv-x="1044" 
d="M885 209l78 -53q-63 -101 -156.5 -145t-218.5 -44q-232 0 -369 122.5t-137 313.5q0 90 34 171.5t94 143t150.5 98t196.5 36.5q104 0 186 -35.5t131 -95.5t74 -131.5t25 -149.5h-615q0 -3 1 -29t2.5 -48t8.5 -57.5t17 -64.5t30.5 -60.5t47.5 -53t69 -35.5t93 -14
q20 0 45 4t64 15.5t79 40.5t70 71zM360 532h365q0 228 -180 228q-87 0 -134.5 -63t-50.5 -165zM674 979h-72l-295 342h258z" />
    <glyph glyph-name="eacute" unicode="&#xe9;" horiz-adv-x="1044" 
d="M885 209l78 -53q-63 -101 -156.5 -145t-218.5 -44q-232 0 -369 122.5t-137 313.5q0 90 34 171.5t94 143t150.5 98t196.5 36.5q104 0 186 -35.5t131 -95.5t74 -131.5t25 -149.5h-615q0 -3 1 -29t2.5 -48t8.5 -57.5t17 -64.5t30.5 -60.5t47.5 -53t69 -35.5t93 -14
q20 0 45 4t64 15.5t79 40.5t70 71zM360 532h365q0 228 -180 228q-87 0 -134.5 -63t-50.5 -165zM373 979l108 342h258l-295 -342h-71z" />
    <glyph glyph-name="ecircumflex" unicode="&#xea;" horiz-adv-x="1044" 
d="M885 209l78 -53q-63 -101 -156.5 -145t-218.5 -44q-232 0 -369 122.5t-137 313.5q0 90 34 171.5t94 143t150.5 98t196.5 36.5q104 0 186 -35.5t131 -95.5t74 -131.5t25 -149.5h-615q0 -3 1 -29t2.5 -48t8.5 -57.5t17 -64.5t30.5 -60.5t47.5 -53t69 -35.5t93 -14
q20 0 45 4t64 15.5t79 40.5t70 71zM360 532h365q0 228 -180 228q-87 0 -134.5 -63t-50.5 -165zM524 1182l-235 -217h-58l175 376h235l174 -376h-57z" />
    <glyph glyph-name="edieresis" unicode="&#xeb;" horiz-adv-x="1044" 
d="M885 209l78 -53q-63 -101 -156.5 -145t-218.5 -44q-232 0 -369 122.5t-137 313.5q0 90 34 171.5t94 143t150.5 98t196.5 36.5q104 0 186 -35.5t131 -95.5t74 -131.5t25 -149.5h-615q0 -3 1 -29t2.5 -48t8.5 -57.5t17 -64.5t30.5 -60.5t47.5 -53t69 -35.5t93 -14
q20 0 45 4t64 15.5t79 40.5t70 71zM360 532h365q0 228 -180 228q-87 0 -134.5 -63t-50.5 -165zM225 1153q0 46 33.5 78.5t79.5 32.5q47 0 80 -33t33 -78q0 -46 -33.5 -79.5t-79.5 -33.5q-45 0 -79 32.5t-34 80.5zM596 1153q0 46 33.5 78.5t79.5 32.5t79 -33.5t33 -77.5
q0 -46 -32.5 -79.5t-79.5 -33.5q-45 0 -79 32.5t-34 80.5z" />
    <glyph glyph-name="igrave" unicode="&#xec;" horiz-adv-x="641" 
d="M459 852v-614q0 -30 0.5 -44t4 -35t12 -30t23 -19.5t37.5 -14t56 -3.5v-92h-543v92h29q36 0 60 7.5t36.5 17t18.5 32t7 38.5t1 51v297q0 25 -0.5 36.5t-2 29t-5.5 24.5t-11 18t-18 14.5t-27.5 8.5t-37.5 6.5t-50 1.5v92zM471 979h-72l-295 342h258z" />
    <glyph glyph-name="iacute" unicode="&#xed;" horiz-adv-x="641" 
d="M459 852v-614q0 -30 0.5 -44t4 -35t12 -30t23 -19.5t37.5 -14t56 -3.5v-92h-543v92h29q36 0 60 7.5t36.5 17t18.5 32t7 38.5t1 51v297q0 25 -0.5 36.5t-2 29t-5.5 24.5t-11 18t-18 14.5t-27.5 8.5t-37.5 6.5t-50 1.5v92zM170 979l109 342h258l-295 -342h-72z" />
    <glyph glyph-name="icircumflex" unicode="&#xee;" horiz-adv-x="641" 
d="M459 852v-614q0 -30 0.5 -44t4 -35t12 -30t23 -19.5t37.5 -14t56 -3.5v-92h-543v92h29q36 0 60 7.5t36.5 17t18.5 32t7 38.5t1 51v297q0 25 -0.5 36.5t-2 29t-5.5 24.5t-11 18t-18 14.5t-27.5 8.5t-37.5 6.5t-50 1.5v92zM322 1182l-236 -217h-57l174 376h235l174 -376
h-57z" />
    <glyph glyph-name="idieresis" unicode="&#xef;" horiz-adv-x="641" 
d="M459 852v-614q0 -30 0.5 -44t4 -35t12 -30t23 -19.5t37.5 -14t56 -3.5v-92h-543v92h29q36 0 60 7.5t36.5 17t18.5 32t7 38.5t1 51v297q0 25 -0.5 36.5t-2 29t-5.5 24.5t-11 18t-18 14.5t-27.5 8.5t-37.5 6.5t-50 1.5v92zM23 1153q0 46 33 78.5t79 32.5q47 0 80 -33
t33 -78q0 -46 -33.5 -79.5t-79.5 -33.5q-45 0 -78.5 32.5t-33.5 80.5zM393 1153q0 46 33.5 78.5t79.5 32.5t79 -33.5t33 -77.5q0 -46 -32.5 -79.5t-79.5 -33.5q-45 0 -79 32.5t-34 80.5z" />
    <glyph glyph-name="eth" unicode="&#xf0;" horiz-adv-x="1153" 
d="M631 1092l-187 -138l-55 76l184 135q-68 77 -174 148l99 67q74 -35 192 -129l152 111l61 -70l-143 -104q309 -335 309 -711q0 -229 -135 -369.5t-359 -140.5q-218 0 -354.5 122t-136.5 321q0 90 29.5 165t78 125.5t112 85.5t129 50.5t130.5 15.5q114 0 207 -57
q-17 80 -48 146t-91 151zM360 403q0 -39 1 -67.5t6 -67t13.5 -65.5t25 -56t39.5 -47t57.5 -29.5t77.5 -11.5q48 0 84.5 14.5t59 43t37.5 60t21.5 77t8.5 81t2 83.5q0 83 -9 140.5t-32 105.5t-67.5 72t-111.5 24q-122 0 -167.5 -83t-45.5 -274z" />
    <glyph glyph-name="ntilde" unicode="&#xf1;" horiz-adv-x="1216" 
d="M1042 575v-337q0 -35 1 -52t8 -39t21.5 -31.5t41 -16.5t66.5 -7v-92h-518v92q26 0 45 3.5t32.5 7.5t22 15.5t13 20t6.5 29t2.5 34t0.5 42.5v8v283q0 31 -2 54t-9.5 49t-21 42.5t-37.5 27.5t-57 11q-55 0 -97 -24t-65 -64t-34.5 -85t-11.5 -93v-224q0 -79 23 -108t99 -29
v-92h-528v92q95 0 121 27t26 119v323q0 70 -27 91.5t-120 21.5v92l389 86q10 -67 8 -152q29 31 51.5 51t61 46.5t86.5 40.5t102 14q133 0 217 -71t84 -206zM918 1290h61q-11 -112 -73 -190t-146 -78q-66 0 -189 59q-73 34 -98 43t-57 9q-43 0 -75 -29.5t-38 -79.5h-63
q10 120 76.5 194t152.5 74q73 0 186 -63q64 -33 88 -42t50 -9q53 0 85.5 33.5t39.5 78.5z" />
    <glyph glyph-name="ograve" unicode="&#xf2;" horiz-adv-x="1153" 
d="M84 410q0 90 28.5 165t76.5 125.5t113 85t135.5 50.5t146.5 16q115 0 209 -36t153 -97t91 -140t32 -167q0 -103 -39.5 -188t-106.5 -140.5t-156 -86t-189 -30.5q-92 0 -178 27.5t-157.5 80t-115 139.5t-43.5 196zM360 403q0 -39 1 -67.5t6 -67t13.5 -65.5t25 -56
t39.5 -47t57.5 -29.5t77.5 -11.5q48 0 84.5 14.5t59 43t37.5 60t21.5 77t8.5 81t2 83.5q0 83 -9 140.5t-32 105.5t-67.5 72t-111.5 24q-123 0 -168 -83.5t-45 -273.5zM727 979h-72l-295 342h258z" />
    <glyph glyph-name="oacute" unicode="&#xf3;" horiz-adv-x="1153" 
d="M84 410q0 90 28.5 165t76.5 125.5t113 85t135.5 50.5t146.5 16q115 0 209 -36t153 -97t91 -140t32 -167q0 -103 -39.5 -188t-106.5 -140.5t-156 -86t-189 -30.5q-92 0 -178 27.5t-157.5 80t-115 139.5t-43.5 196zM360 403q0 -39 1 -67.5t6 -67t13.5 -65.5t25 -56
t39.5 -47t57.5 -29.5t77.5 -11.5q48 0 84.5 14.5t59 43t37.5 60t21.5 77t8.5 81t2 83.5q0 83 -9 140.5t-32 105.5t-67.5 72t-111.5 24q-123 0 -168 -83.5t-45 -273.5zM426 979l109 342h258l-295 -342h-72z" />
    <glyph glyph-name="ocircumflex" unicode="&#xf4;" horiz-adv-x="1153" 
d="M84 410q0 90 28.5 165t76.5 125.5t113 85t135.5 50.5t146.5 16q115 0 209 -36t153 -97t91 -140t32 -167q0 -103 -39.5 -188t-106.5 -140.5t-156 -86t-189 -30.5q-92 0 -178 27.5t-157.5 80t-115 139.5t-43.5 196zM360 403q0 -39 1 -67.5t6 -67t13.5 -65.5t25 -56
t39.5 -47t57.5 -29.5t77.5 -11.5q48 0 84.5 14.5t59 43t37.5 60t21.5 77t8.5 81t2 83.5q0 83 -9 140.5t-32 105.5t-67.5 72t-111.5 24q-123 0 -168 -83.5t-45 -273.5zM578 1182l-236 -217h-57l174 376h235l174 -376h-57z" />
    <glyph glyph-name="otilde" unicode="&#xf5;" horiz-adv-x="1153" 
d="M84 410q0 90 28.5 165t76.5 125.5t113 85t135.5 50.5t146.5 16q115 0 209 -36t153 -97t91 -140t32 -167q0 -103 -39.5 -188t-106.5 -140.5t-156 -86t-189 -30.5q-92 0 -178 27.5t-157.5 80t-115 139.5t-43.5 196zM360 403q0 -39 1 -67.5t6 -67t13.5 -65.5t25 -56
t39.5 -47t57.5 -29.5t77.5 -11.5q48 0 84.5 14.5t59 43t37.5 60t21.5 77t8.5 81t2 83.5q0 83 -9 140.5t-32 105.5t-67.5 72t-111.5 24q-123 0 -168 -83.5t-45 -273.5zM885 1290h61q-11 -112 -73 -190t-146 -78q-65 0 -188 59q-72 34 -98 43t-58 9q-43 0 -75 -29.5t-38 -79.5
h-63q10 120 76.5 194t152.5 74q75 0 187 -63q64 -33 87.5 -42t49.5 -9q53 0 85.5 33.5t39.5 78.5z" />
    <glyph glyph-name="odieresis" unicode="&#xf6;" horiz-adv-x="1153" 
d="M84 410q0 90 28.5 165t76.5 125.5t113 85t135.5 50.5t146.5 16q115 0 209 -36t153 -97t91 -140t32 -167q0 -103 -39.5 -188t-106.5 -140.5t-156 -86t-189 -30.5q-92 0 -178 27.5t-157.5 80t-115 139.5t-43.5 196zM360 403q0 -39 1 -67.5t6 -67t13.5 -65.5t25 -56
t39.5 -47t57.5 -29.5t77.5 -11.5q48 0 84.5 14.5t59 43t37.5 60t21.5 77t8.5 81t2 83.5q0 83 -9 140.5t-32 105.5t-67.5 72t-111.5 24q-123 0 -168 -83.5t-45 -273.5zM279 1153q0 46 33 78.5t79 32.5q47 0 80 -33t33 -78q0 -46 -33.5 -79.5t-79.5 -33.5q-45 0 -78.5 32.5
t-33.5 80.5zM649 1153q0 46 33.5 78.5t79.5 32.5t79 -33.5t33 -77.5q0 -46 -32.5 -79.5t-79.5 -33.5q-45 0 -79 32.5t-34 80.5z" />
    <glyph glyph-name="divide" unicode="&#xf7;" horiz-adv-x="1366" 
d="M131 754h1102v-185h-1102v185zM684 362q47 0 80 -33.5t33 -80.5t-33 -80t-80 -33t-81 33t-34 80t34 80.5t81 33.5zM684 1188q47 0 80 -34t33 -81t-33 -79.5t-80 -32.5q-48 0 -81.5 32.5t-33.5 79.5t34 81t81 34z" />
    <glyph glyph-name="oslash" unicode="&#xf8;" horiz-adv-x="1153" 
d="M848 793l88 102l70 -61l-82 -93q145 -131 145 -331q0 -101 -39 -185.5t-106 -140t-155.5 -86.5t-188.5 -31q-150 0 -277 68l-92 -105l-68 62l84 94q-143 120 -143 326q0 108 41.5 193.5t112 138.5t159 80.5t187.5 27.5q143 0 264 -59zM371 250l374 426q-51 84 -174 84
q-121 0 -166 -84t-45 -273q0 -73 11 -153zM780 578l-377 -428q6 -12 16.5 -24.5t30.5 -29t54 -27t76 -10.5t75 12t55 31t38 49.5t24.5 59t13.5 68.5t6 70t1 71q0 100 -13 158z" />
    <glyph glyph-name="ugrave" unicode="&#xf9;" horiz-adv-x="1216" 
d="M174 289v295q0 24 -0.5 35t-2 28.5t-5 25t-10.5 19t-17 16.5t-25 10.5t-35.5 7t-47.5 1.5v92h401v-551q0 -170 131 -170q42 0 80.5 20.5t67 54t39 49t20.5 32.5v330q0 31 -1 47t-5.5 35.5t-13.5 28.5t-26 17.5t-42 11.5t-61 3v92h407v-602q0 -35 4 -53.5t18.5 -34.5
t44.5 -23t81 -8v-92q-3 0 -54.5 -3.5t-111 -7.5t-129.5 -11.5t-111 -16.5v146q-129 -148 -309 -148q-46 0 -85 8.5t-67 21t-50 34t-36 40.5t-24 46.5t-14.5 47t-7 48t-3 42t-0.5 36.5zM760 979h-72l-295 342h258z" />
    <glyph glyph-name="uacute" unicode="&#xfa;" horiz-adv-x="1216" 
d="M174 289v295q0 24 -0.5 35t-2 28.5t-5 25t-10.5 19t-17 16.5t-25 10.5t-35.5 7t-47.5 1.5v92h401v-551q0 -170 131 -170q42 0 80.5 20.5t67 54t39 49t20.5 32.5v330q0 31 -1 47t-5.5 35.5t-13.5 28.5t-26 17.5t-42 11.5t-61 3v92h407v-602q0 -35 4 -53.5t18.5 -34.5
t44.5 -23t81 -8v-92q-3 0 -54.5 -3.5t-111 -7.5t-129.5 -11.5t-111 -16.5v146q-129 -148 -309 -148q-46 0 -85 8.5t-67 21t-50 34t-36 40.5t-24 46.5t-14.5 47t-7 48t-3 42t-0.5 36.5zM459 979l108 342h258l-295 -342h-71z" />
    <glyph glyph-name="ucircumflex" unicode="&#xfb;" horiz-adv-x="1216" 
d="M174 289v295q0 24 -0.5 35t-2 28.5t-5 25t-10.5 19t-17 16.5t-25 10.5t-35.5 7t-47.5 1.5v92h401v-551q0 -170 131 -170q42 0 80.5 20.5t67 54t39 49t20.5 32.5v330q0 31 -1 47t-5.5 35.5t-13.5 28.5t-26 17.5t-42 11.5t-61 3v92h407v-602q0 -35 4 -53.5t18.5 -34.5
t44.5 -23t81 -8v-92q-3 0 -54.5 -3.5t-111 -7.5t-129.5 -11.5t-111 -16.5v146q-129 -148 -309 -148q-46 0 -85 8.5t-67 21t-50 34t-36 40.5t-24 46.5t-14.5 47t-7 48t-3 42t-0.5 36.5zM610 1182l-235 -217h-58l175 376h235l174 -376h-57z" />
    <glyph glyph-name="udieresis" unicode="&#xfc;" horiz-adv-x="1216" 
d="M174 289v295q0 24 -0.5 35t-2 28.5t-5 25t-10.5 19t-17 16.5t-25 10.5t-35.5 7t-47.5 1.5v92h401v-551q0 -170 131 -170q42 0 80.5 20.5t67 54t39 49t20.5 32.5v330q0 31 -1 47t-5.5 35.5t-13.5 28.5t-26 17.5t-42 11.5t-61 3v92h407v-602q0 -35 4 -53.5t18.5 -34.5
t44.5 -23t81 -8v-92q-3 0 -54.5 -3.5t-111 -7.5t-129.5 -11.5t-111 -16.5v146q-129 -148 -309 -148q-46 0 -85 8.5t-67 21t-50 34t-36 40.5t-24 46.5t-14.5 47t-7 48t-3 42t-0.5 36.5zM311 1153q0 46 33.5 78.5t79.5 32.5q47 0 80 -33t33 -78q0 -46 -33.5 -79.5t-79.5 -33.5
q-45 0 -79 32.5t-34 80.5zM682 1153q0 46 33.5 78.5t79.5 32.5t79 -33.5t33 -77.5q0 -46 -32.5 -79.5t-79.5 -33.5q-45 0 -79 32.5t-34 80.5z" />
    <glyph glyph-name="yacute" unicode="&#xfd;" horiz-adv-x="1087" 
d="M649 254l156 317q33 68 33 93q0 30 -29.5 46.5t-69.5 16.5v92h324v-92q-62 -9 -89.5 -42t-90.5 -165l-293 -608q-109 -228 -142 -283q-58 -95 -119 -118q-29 -11 -65 -11q-45 0 -79.5 28.5t-34.5 70.5q0 32 14 56.5t40.5 40t45.5 23t49 15.5q130 37 212 235q4 9 5 11
l-381 671q-27 49 -49 62.5t-61 13.5v92h485v-92h-31q-69 0 -69 -33q0 -18 28 -69zM496 979l108 342h258l-295 -342h-71z" />
    <glyph glyph-name="thorn" unicode="&#xfe;" horiz-adv-x="1236" 
d="M436 78v-320q0 -24 0.5 -36t2.5 -30.5t6.5 -27t13.5 -20.5t22 -16.5t32.5 -8.5t45.5 -4h55v-92h-581v92q35 0 59.5 2.5t41 11.5t25 17.5t13 28t5.5 35.5t1 48v1348q0 52 -28.5 74t-116.5 22v92l403 86v-657q30 27 43.5 38.5t45 33t57.5 31t67 18t88 8.5q95 0 174.5 -36
t132.5 -95.5t82 -137t29 -161.5q0 -190 -126.5 -322.5t-317.5 -132.5q-67 0 -125 20t-86 39.5t-64 51.5zM436 602v-395q38 -59 100.5 -94t129.5 -35q213 0 213 356q0 65 -9.5 116t-32 96.5t-66.5 70t-107 24.5q-41 0 -79.5 -14t-67 -37t-47.5 -44.5t-34 -43.5z" />
    <glyph glyph-name="ydieresis" unicode="&#xff;" horiz-adv-x="1087" 
d="M649 254l156 317q33 68 33 93q0 30 -29.5 46.5t-69.5 16.5v92h324v-92q-62 -9 -89.5 -42t-90.5 -165l-293 -608q-109 -228 -142 -283q-58 -95 -119 -118q-29 -11 -65 -11q-45 0 -79.5 28.5t-34.5 70.5q0 32 14 56.5t40.5 40t45.5 23t49 15.5q130 37 212 235q4 9 5 11
l-381 671q-27 49 -49 62.5t-61 13.5v92h485v-92h-31q-69 0 -69 -33q0 -18 28 -69zM246 1153q0 46 33 78.5t79 32.5q47 0 80 -33t33 -78q0 -46 -33.5 -79.5t-79.5 -33.5q-45 0 -78.5 32.5t-33.5 80.5zM616 1153q0 46 33.5 78.5t79.5 32.5t79.5 -33.5t33.5 -77.5
q0 -46 -33 -79.5t-80 -33.5q-45 0 -79 32.5t-34 80.5z" />
    <glyph glyph-name="dotlessi" unicode="&#x131;" horiz-adv-x="641" 
d="M459 852v-614q0 -30 0.5 -44t4 -35t12 -30t23 -19.5t37.5 -14t56 -3.5v-92h-543v92h29q36 0 60 7.5t36.5 17t18.5 32t7 38.5t1 51v297q0 25 -0.5 36.5t-2 29t-5.5 24.5t-11 18t-18 14.5t-27.5 8.5t-37.5 6.5t-50 1.5v92z" />
    <glyph glyph-name="Lslash" unicode="&#x141;" horiz-adv-x="1323" 
d="M532 748v-424q0 -36 0.5 -53.5t2.5 -44t7 -38t14 -28t22.5 -23t33.5 -14t47 -10t62 -2.5q36 0 56 0.5t59 3.5t63.5 8.5t61 17.5t60.5 28.5t52.5 43t46.5 59.5t33 79t21 102h92l-9 -453h-1208v92q66 0 106.5 10t60 33t25 48.5t5.5 68.5v240l-193 -173v134l193 176v475
q0 44 -5 68.5t-24 48t-60 33.5t-108 10v92h682v-92q-66 0 -106 -9t-60.5 -31t-26.5 -48.5t-6 -71.5v-215l230 207v-144z" />
    <glyph glyph-name="lslash" unicode="&#x142;" horiz-adv-x="641" 
d="M193 639v451q0 72 -33.5 92t-132.5 20v92l424 86v-516l167 146v-144l-167 -145v-483q0 -30 0.5 -43t3.5 -34t10.5 -30.5t21 -20t35 -14.5t51.5 -4h29v-92h-575v92h43q36 0 60 7.5t36.5 17t18.5 32t7 38.5t1 51v258l-166 -148v144z" />
    <glyph glyph-name="OE" unicode="&#x152;" horiz-adv-x="2048" 
d="M1274 655v-344q0 -103 12 -133q18 -47 88 -60q48 -9 137 -9q29 0 45.5 0.5t47.5 3.5t50.5 8.5t48.5 17t48.5 28t43 42t38.5 58t28.5 78t20.5 99.5h90l-10 -444h-508q-242 0 -356 -6q-28 -1 -86.5 -3.5t-91.5 -2.5q-311 0 -488 94q-115 61 -194.5 161.5t-113.5 207.5
t-34 217q0 64 12.5 130t42 136t73 132.5t110.5 119t150 97.5t196 65t244 24q44 0 184 -8q144 -8 268 -8h512l21 -355h-95q-9 37 -18.5 66.5t-21 53t-21 41t-25.5 31t-26.5 22t-32 14.5t-34.5 9.5t-40.5 5t-44 1.5h-51.5h-219v-479h110q112 0 147 29.5t42 140.5h92v-449h-94
q0 41 -5 70.5t-18 48t-24.5 28.5t-38 14.5t-44 5.5t-55.5 1h-112zM987 295v805q0 80 -29 116.5t-116 36.5q-132 0 -230.5 -78.5t-148 -208.5t-49.5 -290q0 -82 13.5 -160.5t44.5 -153t76 -130t113 -89.5t150 -34q43 0 74 5.5t50 20t30 27.5t15.5 39.5t5.5 43t1 50.5z" />
    <glyph glyph-name="oe" unicode="&#x153;" horiz-adv-x="1622" 
d="M1552 440h-559q-2 -76 9 -138.5t36.5 -114t73 -80.5t113.5 -29q132 0 237 125l78 -49q-44 -75 -141 -131t-217 -56q-170 0 -308 107q-46 -28 -67.5 -39.5t-65.5 -31.5t-89.5 -28t-98.5 -8q-66 0 -131.5 16.5t-127 53t-108.5 87.5t-75.5 127t-28.5 165q0 114 42.5 201
t113 136.5t151.5 74t168 24.5q188 0 317 -109q122 109 291 109q70 0 134.5 -21.5t122 -67t93 -129t37.5 -194.5zM358 412q0 -31 0.5 -51.5t4 -60.5t10.5 -68.5t21 -63.5t33.5 -57t50 -37t69.5 -15t69.5 15t50 36.5t33.5 57.5t20.5 64.5t10 72.5t4 66.5t0.5 60.5
q0 28 -0.5 46t-4 56t-10 64t-20.5 59t-33 53.5t-49.5 35t-68.5 14.5q-43 0 -76 -16t-53 -46t-33 -63t-19 -76.5t-8 -75.5t-2 -71zM993 532h310q0 228 -154 228q-37 0 -65 -13t-44 -36.5t-26.5 -47t-14.5 -53.5t-5 -45t-1 -33z" />
    <glyph glyph-name="Scaron" unicode="&#x160;" horiz-adv-x="1173" 
d="M119 25v464h92q14 -54 31.5 -102.5t50 -106t73 -98.5t102 -68.5t134.5 -27.5q102 0 163.5 56.5t61.5 140.5q0 27 -7 51t-17.5 43t-34 39t-43.5 34.5t-59.5 35.5t-69 35t-84.5 40q-99 46 -172 96t-114.5 93t-66.5 90t-32.5 83t-7.5 76q0 67 27.5 133.5t77.5 122t130 90.5
t176 35q94 0 181 -43t149 -116q18 46 33 118h94v-378h-94q-6 21 -12.5 38.5t-21.5 51t-32.5 60t-46 58t-60.5 52.5t-78 35t-97 14q-90 0 -144.5 -47t-54.5 -123q0 -45 16 -79t66 -68.5t83 -51.5t126 -61l12 -6q61 -28 95.5 -45t87.5 -46.5t83.5 -53t67 -58t56 -69t33 -79
t13.5 -94.5q0 -48 -16 -102t-51 -110t-84.5 -100.5t-124.5 -73t-162 -28.5q-109 0 -215 47t-180 140q-32 -74 -41 -137h-92zM588 1616l233 217h58l-174 -377h-236l-174 377h57z" />
    <glyph glyph-name="scaron" unicode="&#x161;" horiz-adv-x="980" 
d="M100 -27l-10 260h84q8 -29 29 -56.5t58 -55.5t100 -45t143 -17q26 0 49 2.5t65 11.5t67.5 34.5t25.5 64.5q0 44 -40.5 64.5t-156.5 50.5q-190 48 -268 85q-168 80 -168 224q0 118 108.5 187t284.5 69q162 0 287 -57l24 51h80v-232h-82q-16 64 -95 105t-208 41
q-16 0 -28.5 -0.5t-40.5 -2.5t-49.5 -8t-43.5 -14.5t-34.5 -24.5t-12.5 -36q0 -39 39.5 -58t158.5 -48q49 -12 77 -19q126 -33 173 -52q198 -84 199 -259q0 -128 -111.5 -199.5t-287.5 -71.5q-183 0 -299 62l-39 -56h-78zM492 1124l233 217h57l-174 -376h-235l-174 376h57z
" />
    <glyph glyph-name="Ydieresis" unicode="&#x178;" horiz-adv-x="1449" 
d="M582 555l-340 567q-3 4 -6.5 9.5t-5.5 9t-3 4.5q-45 72 -79.5 94t-100.5 25v92h635v-92q-35 0 -54 -1t-42 -6.5t-33 -18.5t-10 -34t12.5 -48.5t54.5 -98.5l211 -357l201 318q35 57 50 89t15 62q0 23 -6 39.5t-19 26.5t-25.5 16.5t-33.5 9t-34.5 3t-36.5 0.5v92h493v-92
q-29 -2 -50 -6.5t-43 -18.5t-36.5 -27.5t-40 -47t-44.5 -62t-58 -88.5l-285 -441v-321q0 -27 1.5 -44t7.5 -38t19 -33t34 -23.5t55 -16.5t80 -5v-92h-682v92q66 0 106 9t60.5 31t26.5 48.5t6 71.5v303zM449 1645q0 46 33 78t79 32q47 0 80 -32.5t33 -77.5q0 -46 -33.5 -79.5
t-79.5 -33.5q-45 0 -78.5 32.5t-33.5 80.5zM819 1645q0 45 33.5 77.5t79.5 32.5t79 -33t33 -77q0 -46 -32.5 -79.5t-79.5 -33.5q-45 0 -79 32.5t-34 80.5z" />
    <glyph glyph-name="Zcaron" unicode="&#x17d;" horiz-adv-x="1323" 
d="M55 0v94l811 1151h-317q-70 0 -104.5 -2t-88.5 -14.5t-82.5 -37.5t-55 -75t-36.5 -123h-96l25 363h1116v-90l-811 -1155h389q33 0 49.5 0.5t49 3t51 7t47.5 14.5t47.5 24.5t41.5 36.5t38 50.5t29.5 68t23.5 87.5h92l-23 -403h-1196zM664 1616l233 217h57l-174 -377h-235
l-174 377h57z" />
    <glyph glyph-name="zcaron" unicode="&#x17e;" horiz-adv-x="1003" 
d="M78 0v74l475 653h-217q-15 0 -24 -1t-25.5 -8.5t-28.5 -21.5t-26 -43t-25 -71h-94l18 237h746v-80l-471 -647h190q28 0 42 1.5t38.5 10.5t41 26.5t37 52.5t38.5 87h96l-27 -270h-784zM504 1124l233 217h58l-174 -376h-236l-174 376h57z" />
    <glyph glyph-name="florin" unicode="&#x192;" horiz-adv-x="980" 
d="M668 737l-101 -499q-41 -204 -76.5 -325.5t-60 -167.5t-63.5 -95q-13 -16 -28 -31.5t-49.5 -44t-80.5 -46t-96 -17.5q-71 0 -113.5 35t-42.5 81q0 35 27 67t75 32q32 0 62.5 -18t30.5 -60q0 -14 -6.5 -32t-6.5 -22q0 -8 8.5 -15t20.5 -7q30 0 53 32t23 97q0 30 -4 97
t-4 83q0 81 8 140.5t32 179.5l109 536h-141l24 121q68 0 107.5 15.5t74 64.5t70.5 147q44 121 114 188.5t185 67.5q72 0 117 -33.5t45 -95.5q0 -47 -29 -80.5t-78 -33.5q-43 0 -65.5 28.5t-22.5 53.5q0 26 15.5 55.5t15.5 36.5q0 10 -8 16t-18 6q-38 0 -66.5 -37t-28.5 -102
q0 -31 4.5 -93t4.5 -81q0 -47 -13 -123h154l-25 -121h-153z" />
    <glyph glyph-name="circumflex" unicode="&#x2c6;" horiz-adv-x="681" 
d="M342 1178l-236 -217h-57l174 376h236l174 -376h-58z" />
    <glyph glyph-name="caron" unicode="&#x2c7;" horiz-adv-x="681" 
d="M342 1120l233 217h58l-174 -376h-236l-174 376h57z" />
    <glyph glyph-name="uni02C9" unicode="&#x2c9;" horiz-adv-x="681" 
d="M61 1083v138h560v-138h-560z" />
    <glyph glyph-name="breve" unicode="&#x2d8;" horiz-adv-x="681" 
d="M98 1303h68q6 -43 24 -75t37.5 -47t46 -23.5t39.5 -9.5t27 -1q66 0 118 40t58 116h70q7 -150 -63.5 -229t-182.5 -79q-32 0 -65 8.5t-67.5 31t-60 56t-40 88.5t-9.5 124z" />
    <glyph glyph-name="dotaccent" unicode="&#x2d9;" horiz-adv-x="681" 
d="M229 1149q0 46 33.5 78.5t79.5 32.5q47 0 79 -33t32 -78q0 -46 -32.5 -79.5t-78.5 -33.5q-47 0 -80 32t-33 81z" />
    <glyph glyph-name="ring" unicode="&#x2da;" horiz-adv-x="681" 
d="M150 1149q0 81 56 135.5t134 54.5q79 0 135.5 -56t56.5 -134t-56.5 -134.5t-135.5 -56.5q-78 0 -134 55t-56 136zM223 1149q0 -50 35 -83.5t82 -33.5q49 0 84 34.5t35 82.5t-34.5 82.5t-84.5 34.5q-47 0 -82 -34t-35 -83z" />
    <glyph glyph-name="ogonek" unicode="&#x2db;" horiz-adv-x="681" 
d="M289 16h82q-50 -41 -67 -68q-23 -35 -23 -75q0 -17 6 -40t23.5 -54.5t44.5 -56.5t76 -43t110 -19l28 -31q-28 -21 -46.5 -32.5t-58 -23t-85.5 -11.5q-107 0 -186.5 69.5t-79.5 161.5q0 38 14 72t31.5 56t46.5 43.5t44.5 30.5t39.5 21z" />
    <glyph glyph-name="tilde" unicode="&#x2dc;" horiz-adv-x="681" 
d="M649 1286h62q-11 -112 -73 -190t-146 -78q-66 0 -189 59q-70 33 -97 42t-59 9q-43 0 -74.5 -29t-37.5 -79h-64q10 120 77 194t153 74q73 0 186 -63q64 -33 87.5 -42t49.5 -9q53 0 85.5 33.5t39.5 78.5z" />
    <glyph glyph-name="hungarumlaut" unicode="&#x2dd;" horiz-adv-x="681" 
d="M170 975l106 342h261l-295 -342h-72zM502 975l108 342h258l-295 -342h-71z" />
    <glyph glyph-name="uni03A9" unicode="&#x3a9;" horiz-adv-x="1282" 
d="M1200 0h-481v313q61 42 102.5 134t57.5 188.5t16 195.5q0 268 -67 406.5t-189 138.5q-88 0 -148.5 -72t-88 -191.5t-27.5 -278.5q0 -189 51 -338.5t141 -192.5v-303h-485v350h63q0 -34 1 -53t8 -47t19.5 -43.5t38 -27t62.5 -11.5h189v68q-71 30 -133.5 79t-117 120.5
t-86.5 173t-32 220.5q0 181 64 322.5t189 224t292 82.5q125 0 230.5 -53t174 -140.5t106.5 -197.5t38 -227q0 -127 -43 -246.5t-127.5 -213.5t-194.5 -136v-76h183q37 0 62.5 11.5t38 27t19.5 43.5t8 47t1 53h65v-350z" />
    <glyph glyph-name="uni03BC" unicode="&#x3bc;" horiz-adv-x="1067" 
d="M119 819h258v-520q0 -35 0.5 -56.5t3.5 -48t8.5 -41.5t14.5 -29t24 -20t35 -6q92 0 162 115v606h258v-530q0 -35 0.5 -50t2 -41.5t5.5 -37.5t11 -25t18.5 -19t27.5 -5q60 0 72 137h41q-2 -70 -22.5 -124t-47.5 -82.5t-62.5 -46.5t-61.5 -23t-50 -5q-144 0 -190 150
q-25 -28 -45 -47t-56.5 -46.5t-81 -42t-94.5 -14.5q-91 0 -141 53q0 -93 20 -165q35 -119 35 -154q0 -127 -112 -127q-35 0 -58.5 15t-31.5 38t-10.5 36t-2.5 24q0 29 5.5 55.5t31.5 128.5q33 130 33 369v579z" />
    <glyph glyph-name="pi" unicode="&#x3c0;" horiz-adv-x="737" 
d="M715 223q-43 -248 -133 -248q-59 0 -88 66q-16 33 -24 87.5t-8.5 82t-0.5 84.5v498h-144v-347q0 -300 -53 -403q-33 -68 -92 -68q-26 0 -47 22.5t-21 61.5q0 55 56 86q40 23 50.5 100t10.5 247v301h-24q-36 0 -55 -27.5t-29 -97.5l-60 16q1 141 49.5 222t118.5 81h461
v-194h-123v-396q0 -155 12 -204q12 -60 39 -60q21 0 33 29t27 94z" />
    <glyph glyph-name="figuredash" unicode="&#x2012;" horiz-adv-x="1024" 
d="M-12 604h1048v-184h-1048v184z" />
    <glyph glyph-name="endash" unicode="&#x2013;" horiz-adv-x="1024" 
d="M-12 575h1048v-131h-1048v131z" />
    <glyph glyph-name="emdash" unicode="&#x2014;" horiz-adv-x="2048" 
d="M-12 575h2072v-131h-2072v131z" />
    <glyph glyph-name="quoteleft" unicode="&#x2018;" horiz-adv-x="575" 
d="M457 1380v-92q-111 -22 -179.5 -78t-68.5 -143q0 -49 35 -49q5 0 32.5 5t49.5 5q55 0 100 -43t45 -108q0 -72 -48.5 -115t-113.5 -43q-34 0 -69.5 16.5t-68 48.5t-53 86.5t-20.5 122.5q0 152 94.5 258t264.5 129z" />
    <glyph glyph-name="quoteright" unicode="&#x2019;" horiz-adv-x="575" 
d="M119 719v92q111 22 179.5 78t68.5 143q0 49 -35 49q-5 0 -32.5 -5t-49.5 -5q-55 0 -100.5 43.5t-45.5 108.5q0 72 48.5 114.5t113.5 42.5q34 0 69.5 -16.5t68 -48.5t53 -86.5t20.5 -122.5q0 -152 -94 -258t-264 -129z" />
    <glyph glyph-name="quotesinglbase" unicode="&#x201a;" horiz-adv-x="575" 
d="M119 -381v92q111 22 179.5 78t68.5 143q0 50 -35 50q-4 0 -8.5 -1t-12 -2t-12.5 -2q-18 -6 -49 -6q-55 0 -100.5 43.5t-45.5 108.5q0 72 48.5 115t113.5 43q34 0 69.5 -17t68 -49t53 -86.5t20.5 -122.5q0 -152 -94 -258t-264 -129z" />
    <glyph glyph-name="quotedblleft" unicode="&#x201c;" horiz-adv-x="1150" 
d="M467 1380v-92q-111 -22 -179.5 -78t-68.5 -143q0 -49 35 -49q5 0 32.5 5t49.5 5q55 0 100 -43t45 -108q0 -72 -48.5 -115t-113.5 -43q-34 0 -69.5 16.5t-67.5 48.5t-52.5 86.5t-20.5 122.5q0 152 94 258t264 129zM1032 1380v-92q-111 -22 -179.5 -78t-68.5 -143
q0 -49 35 -49q5 0 32.5 5t49.5 5q56 0 101 -43t45 -108q0 -72 -48.5 -115t-113.5 -43q-34 0 -69.5 16.5t-68 48.5t-53 86.5t-20.5 122.5q0 152 94 258t264 129z" />
    <glyph glyph-name="quotedblright" unicode="&#x201d;" horiz-adv-x="1150" 
d="M686 719v92q111 22 179.5 78t68.5 143q0 49 -35 49q-5 0 -32.5 -5t-49.5 -5q-55 0 -100 43.5t-45 108.5q0 72 48.5 114.5t113.5 42.5q34 0 69.5 -16.5t67.5 -48.5t52.5 -86.5t20.5 -122.5q0 -152 -94 -258t-264 -129zM121 719v92q111 22 179.5 78t68.5 143q0 49 -35 49
q-5 0 -32.5 -5t-49.5 -5q-55 0 -100.5 43.5t-45.5 108.5q0 72 48.5 114.5t113.5 42.5q34 0 69.5 -16.5t68 -48.5t53 -86.5t20.5 -122.5q0 -152 -94 -258t-264 -129z" />
    <glyph glyph-name="quotedblbase" unicode="&#x201e;" horiz-adv-x="1150" 
d="M684 -381v92q111 22 179.5 78t68.5 143q0 50 -35 50q-4 0 -8.5 -1t-12 -2t-12.5 -2q-18 -6 -49 -6q-55 0 -100 43.5t-45 108.5q0 72 48 115t113 43q34 0 69.5 -17t68 -49t53 -86.5t20.5 -122.5q0 -152 -94 -258t-264 -129zM119 -381v92q111 22 179.5 78t68.5 143
q0 50 -35 50q-4 0 -8.5 -1t-12 -2t-12.5 -2q-18 -6 -49 -6q-55 0 -100.5 43.5t-45.5 108.5q0 72 48.5 115t113.5 43q34 0 69.5 -17t68 -49t53 -86.5t20.5 -122.5q0 -152 -94 -258t-264 -129z" />
    <glyph glyph-name="dagger" unicode="&#x2020;" horiz-adv-x="1067" 
d="M483 -500v234q0 259 -28 504l-17 141q-4 43 -4 108q0 63 8.5 110.5t29 106.5t24.5 72q-51 -2 -148 -41q-92 -37 -162 -37q-49 0 -90 30t-41 87q0 45 32 80t103 35q65 0 162 -37q89 -35 144 -39q-5 55 -35 135q-49 129 -49 228q0 48 12.5 82.5t32.5 51t39.5 24t38.5 7.5
q49 0 84.5 -39.5t35.5 -119.5q0 -91 -47 -230q-23 -65 -28.5 -85t-6.5 -54q46 5 109 27q6 2 25 8.5t24 8.5t20 7t20.5 6.5t18 5.5t18.5 5t17 3t19 3t17.5 1.5t19.5 0.5q70 0 101.5 -36.5t31.5 -78.5q0 -52 -36.5 -83.5t-92.5 -31.5q-79 0 -201 48q-51 20 -111 28
q36 -107 50 -163t14 -119t-21 -261q-28 -261 -28 -507v-226h-105z" />
    <glyph glyph-name="daggerdbl" unicode="&#x2021;" horiz-adv-x="1110" 
d="M504 514q0 20 -14.5 84t-14.5 107q0 45 8.5 75t32.5 78q-65 -11 -149 -39q-111 -35 -154 -35q-58 0 -98.5 30.5t-40.5 82.5q0 11 2.5 23.5t11.5 30t23.5 31t41.5 23t62 9.5q38 0 141 -33q121 -37 160 -41q-4 57 -43 166q-31 85 -31 133q0 64 31.5 103.5t79.5 39.5
q45 0 80 -35t35 -100q0 -47 -27 -139q-5 -16 -16.5 -49.5t-18.5 -61t-10 -57.5q56 9 135 35q112 37 174 37q68 0 99.5 -35.5t31.5 -77.5q0 -51 -40 -84t-101 -33q-10 0 -19 0.5t-20.5 3t-17.5 3.5t-21 6t-20 6.5t-25.5 8.5t-26.5 9q-87 29 -149 39q39 -95 39 -147
q0 -35 -13 -99t-14 -98h-104zM504 362h104q1 -34 14 -97.5t13 -98.5q0 -53 -39 -148q62 10 149 39q6 2 26.5 9t25.5 8.5t20 6.5t21 6t17.5 3.5t20.5 3t19 0.5q61 0 101 -33t40 -84q0 -42 -31.5 -77t-99.5 -35q-62 0 -174 37q-79 26 -135 35q3 -30 10 -57.5t18.5 -61
t16.5 -49.5q27 -92 27 -140q0 -65 -35 -100t-80 -35q-48 0 -79.5 40t-31.5 104q0 48 31 133q39 109 43 166q-39 -4 -160 -41q-103 -33 -141 -33q-35 0 -62 9.5t-41.5 23t-23.5 31t-11.5 30t-2.5 23.5q0 52 40.5 82t98.5 30q43 0 154 -35q84 -28 149 -39q-23 48 -32 78.5
t-9 75.5q0 43 14.5 106.5t14.5 83.5z" />
    <glyph glyph-name="bullet" unicode="&#x2022;" horiz-adv-x="681" 
d="M340 913q113 0 192.5 -79t79.5 -191q0 -113 -79 -192.5t-193 -79.5q-112 0 -191 79.5t-79 192.5t79.5 191.5t190.5 78.5z" />
    <glyph glyph-name="onedotenleader" unicode="&#x2024;" horiz-adv-x="1024" 
d="M354 123q0 66 46.5 112t111.5 46t110.5 -46.5t45.5 -111.5t-46 -110.5t-110 -45.5t-111 45.5t-47 110.5z" />
    <glyph glyph-name="twodotenleader" unicode="&#x2025;" horiz-adv-x="1024" 
d="M98 123q0 66 46.5 112t111.5 46t110.5 -46.5t45.5 -111.5t-46 -110.5t-110 -45.5q-65 0 -111.5 45.5t-46.5 110.5zM612 123q0 66 45.5 112t110.5 46t111.5 -46t46.5 -112q0 -65 -46.5 -110.5t-111.5 -45.5q-64 0 -110 45.5t-46 110.5z" />
    <glyph glyph-name="ellipsis" unicode="&#x2026;" horiz-adv-x="2048" 
d="M186 123q0 66 45.5 112t110.5 46q66 0 112 -46.5t46 -111.5t-46 -110.5t-112 -45.5q-64 0 -110 45.5t-46 110.5zM1550 123q0 66 46.5 112t111.5 46t110.5 -46t45.5 -112q0 -65 -46 -110.5t-110 -45.5q-65 0 -111.5 45.5t-46.5 110.5zM868 123q0 66 45.5 112t110.5 46
q66 0 112 -46.5t46 -111.5t-46 -110.5t-112 -45.5q-64 0 -110 45.5t-46 110.5z" />
    <glyph glyph-name="perthousand" unicode="&#x2030;" horiz-adv-x="2283" 
d="M1917 -16q-34 0 -68 7.5t-73 30.5t-68.5 58.5t-49.5 98t-20 143.5q0 27 0.5 46.5t6 62t15.5 74t30.5 70t49 63.5t74.5 42.5t103 17.5t103 -17.5t74.5 -43t49 -64.5t30 -69.5t15 -71.5t6 -58t0.5 -40q0 -87 -19.5 -152.5t-48.5 -102t-68.5 -59t-73 -29.5t-68.5 -7z
M1917 45q33 0 53 18t29.5 60.5t12.5 88.5t3 126q0 170 -19 234.5t-79 64.5q-55 0 -76.5 -61.5t-21.5 -233.5q0 -162 14 -216q21 -81 84 -81zM1249 -16q-34 0 -67.5 7.5t-73 30.5t-69 58.5t-49 98t-19.5 143.5q0 376 278 376q57 0 103 -17.5t74.5 -43t49.5 -64t30.5 -70
t15 -71.5t6 -58t0.5 -40q0 -87 -19.5 -152.5t-48.5 -102t-69 -59t-73.5 -29.5t-68.5 -7zM1249 45q27 0 45 13.5t28.5 35t16.5 61.5t7.5 80t1.5 103q0 170 -19.5 234.5t-79.5 64.5q-55 0 -76.5 -61.5t-21.5 -233.5q0 -162 14 -216q21 -81 84 -81zM365 631q-34 0 -68 7.5
t-73 30.5t-68.5 58.5t-49.5 98t-20 143.5q0 27 0.5 46.5t6 62t15.5 74t30.5 70.5t49 64t74.5 42.5t103 17.5t103 -18t74.5 -43t49 -64t30 -70t15 -71.5t6 -58t0.5 -40.5q0 -87 -19.5 -152.5t-48.5 -102t-68.5 -59t-73 -29.5t-68.5 -7zM365 692q33 0 53 18t29.5 60.5
t12.5 88.5t3 126q0 170 -19 234.5t-79 64.5q-37 0 -58 -25t-31 -89t-10 -181q0 -164 15 -219q22 -78 84 -78zM379 -57l725 1419h117l-725 -1419h-117z" />
    <glyph glyph-name="guilsinglleft" unicode="&#x2039;" horiz-adv-x="618" 
d="M358 444l197 -444h-94l-391 444l391 445h94z" />
    <glyph glyph-name="guilsinglright" unicode="&#x203a;" horiz-adv-x="618" 
d="M260 444l-197 445h95l391 -445l-391 -444h-95z" />
    <glyph glyph-name="fraction" unicode="&#x2044;" horiz-adv-x="405" 
d="M-217 -57l725 1419h117l-725 -1419h-117z" />
    <glyph glyph-name="zero.superior" unicode="&#x2070;" 
d="M299 631q-34 0 -68 8t-73 31t-68.5 59t-49.5 98.5t-20 143.5q0 27 0.5 46.5t6 62t15.5 73.5t30.5 70t49 63.5t74.5 42t103 17.5t103 -17.5t74.5 -43t49.5 -64t30.5 -69.5t15 -71t6 -58t0.5 -40q0 -104 -22 -167.5t-71 -110.5q-78 -74 -186 -74zM299 692q33 0 59 29
q39 39 39 268q0 209 -30 258q-25 37 -68 37q-32 0 -59 -27q-39 -39 -39 -266q0 -211 30 -260q22 -39 68 -39z" />
    <glyph glyph-name="four.superior" unicode="&#x2074;" 
d="M23 872v72l346 402h104v-404h109v-70h-109v-98v-20.5t1.5 -16t4 -12.5t8 -8t13 -5.5t20 -2t26.5 -1.5t36 1v-62h-389v62h32q55 0 67.5 9.5t12.5 55.5v98h-282zM117 942h188v219z" />
    <glyph glyph-name="five.superior" unicode="&#x2075;" 
d="M113 1329h391l-29 -51q-20 -35 -31.5 -41t-62.5 -6h-193l-4 -156q59 35 131 35q114 0 185 -69t71 -160q0 -101 -91 -175.5t-240 -74.5q-96 0 -150.5 32.5t-54.5 73.5q0 30 21.5 46t47.5 16t38.5 -8.5t35.5 -40.5q15 -20 24 -30t27.5 -19t42.5 -9q31 0 53.5 11.5t33.5 27
t17.5 40.5t7.5 43t1 44q0 96 -23.5 143.5t-80.5 47.5q-62 0 -95 -72h-84z" />
    <glyph glyph-name="six.superior" unicode="&#x2076;" 
d="M227 1065q29 14 45 18q33 11 68 11q36 0 75 -12t76.5 -36.5t62 -69.5t24.5 -102q0 -113 -83 -178t-184 -65q-31 0 -65 7.5t-73 29t-69.5 54.5t-50.5 88.5t-20 125.5q0 174 98 292t262 118q83 0 124.5 -26.5t41.5 -59.5q0 -21 -17.5 -37.5t-47.5 -16.5q-18 0 -33.5 7.5
t-22 14t-18.5 19.5q-33 33 -68 33q-23 0 -41.5 -10t-31.5 -29.5t-21.5 -38.5t-15 -47.5t-9.5 -46t-6 -43.5zM213 858q0 -32 2.5 -55.5t11.5 -52t29.5 -43.5t52.5 -15q21 0 37 6.5t25 22.5t15 30t8 40.5t2.5 43t0.5 48.5q0 145 -90 145q-94 0 -94 -170z" />
    <glyph glyph-name="seven.superior" unicode="&#x2077;" 
d="M125 1368h80l-8 -31q0 -6 6 -7t35 -1h344l-228 -604q-8 -23 -13.5 -34t-17 -28t-29 -24.5t-40.5 -7.5q-35 0 -58.5 18.5t-23.5 46.5q0 13 5.5 25t29.5 55l242 430h-232q-50 0 -63 -10t-31 -57h-84z" />
    <glyph glyph-name="eight.superior" unicode="&#x2078;" 
d="M422 1014v-4q162 -40 162 -172q0 -94 -76.5 -150.5t-200.5 -56.5q-128 0 -205 57t-77 150q0 70 46.5 114.5t116.5 57.5v4q-65 19 -103 60.5t-38 92.5q0 75 70 127t184 52t188 -52.5t74 -128.5q0 -62 -45.5 -100t-95.5 -51zM307 1284q-40 0 -66 -28.5t-26 -92.5
q0 -123 90 -123t90 123q0 62 -24 91.5t-64 29.5zM305 979q-100 0 -100 -152q0 -62 25 -98.5t75 -36.5q98 0 98 156q0 66 -27 98.5t-71 32.5z" />
    <glyph glyph-name="nine.superior" unicode="&#x2079;" 
d="M381 913q-56 -28 -113 -28q-31 0 -67.5 10t-76.5 33t-66.5 69.5t-26.5 108.5q0 61 26 109t66.5 75.5t85.5 41.5t88 14q33 0 68 -8t73 -30.5t67.5 -55.5t48.5 -88.5t19 -125.5q0 -179 -102.5 -293t-255.5 -114q-68 0 -117 22.5t-49 65.5q0 20 17 36.5t49 16.5q38 0 71 -39
q12 -13 17.5 -18.5t19.5 -12t31 -6.5q101 0 127 217zM301 1284q-54 0 -72 -39.5t-18 -124.5q0 -25 0.5 -38.5t2.5 -37t8 -37t15 -28.5t25 -22t37 -7q94 0 94 162q0 37 -3 62.5t-11.5 53t-28 42t-49.5 14.5z" />
    <glyph glyph-name="parenleft.superior" unicode="&#x207d;" horiz-adv-x="342" 
d="M256 1479h96q-198 -248 -198 -551q0 -108 20 -203.5t57.5 -171t61 -112.5t59.5 -85h-96q-207 243 -207 562q0 100 20 189.5t57 163t63.5 115t66.5 93.5z" />
    <glyph glyph-name="parenright.superior" unicode="&#x207e;" horiz-adv-x="342" 
d="M86 356h-96q28 36 47 63.5t50.5 85.5t51 114t34.5 138.5t15 170.5q0 87 -17 170.5t-38 138t-54.5 112.5t-49 79t-39.5 51h96q31 -41 51 -69.5t53 -87.5t52.5 -113.5t35 -133t15.5 -160.5q0 -316 -207 -559z" />
    <glyph glyph-name="n.superior" unicode="&#x207f;" horiz-adv-x="768" 
d="M674 993v-196q0 -53 13.5 -66.5t74.5 -13.5v-70h-354v70q56 -1 67.5 14t11.5 74v176q0 92 -73 92q-52 0 -87.5 -39.5t-35.5 -103.5v-148q0 -41 12 -51.5t70 -13.5v-70h-363v70q65 0 79.5 12t14.5 68v188q0 44 -16 53t-78 9v65l273 53q6 -31 6 -71q28 23 46 34.5t54 23
t80 11.5q33 0 65.5 -7.5t65.5 -25t53.5 -53t20.5 -84.5z" />
    <glyph glyph-name="zero.inferior" unicode="&#x2080;" 
d="M299 -16q-34 0 -68 8t-73 31t-68.5 59t-49.5 98.5t-20 143.5q0 27 0.5 46.5t6 62t15.5 73.5t30.5 69.5t49 63t74.5 42t103 17.5t103 -17.5t74.5 -43t49.5 -63.5t30.5 -69t15 -71t6 -58t0.5 -40q0 -104 -22 -168t-71 -111q-76 -73 -186 -73zM299 45q33 0 59 29
q39 39 39 268q0 209 -30 258q-25 37 -68 37q-32 0 -59 -27q-39 -39 -39 -266q0 -211 30 -260q22 -39 68 -39z" />
    <glyph glyph-name="one.inferior" unicode="&#x2081;" 
d="M399 698v-581q0 -35 12 -45.5t46 -10.5h45v-61h-387v61h41q44 0 53.5 11t9.5 53v393q0 43 -12.5 53.5t-69.5 10.5h-33v61q106 12 146.5 22t75.5 33h73z" />
    <glyph glyph-name="two.inferior" unicode="&#x2082;" 
d="M532 -39h-73q6 27 6 29q0 7 -4.5 8.5t-24.5 1.5h-393v55q34 28 63 53.5t82 79.5t89.5 102t65 109.5t28.5 114.5q0 58 -32.5 90.5t-78.5 32.5q-43 0 -70.5 -24.5t-27.5 -59.5q0 -28 14 -53q10 -20 10 -23q0 -4 -4 -6.5t-30 -11.5l-48 -17q-12 -4 -18 -4q-18 0 -30.5 32
t-12.5 65q0 67 63.5 115t188.5 48q75 0 129 -19.5t79.5 -50.5t36.5 -59.5t11 -56.5q0 -47 -23 -93t-77 -100.5t-106 -98t-146 -116.5v-4h362z" />
    <glyph glyph-name="three.inferior" unicode="&#x2083;" 
d="M190 485l-47 -18q-19 -8 -28 -8q-22 0 -39 25.5t-17 54.5q0 20 12.5 44.5t39.5 51.5t83.5 45t131.5 18q98 0 160.5 -33.5t62.5 -95.5q0 -90 -137 -155v-4q52 -9 86.5 -30.5t48.5 -50t19 -49.5t5 -44q0 -103 -96.5 -177.5t-238.5 -74.5q-89 0 -149 31.5t-60 80.5
q0 29 22.5 45.5t50.5 16.5q23 0 40.5 -11t25.5 -21.5t20 -31.5q19 -31 30 -40t36 -9q37 0 64.5 13.5t41.5 31.5t22 44.5t9.5 43.5t1.5 37q0 133 -63 133q-26 0 -58 -26q-38 -22 -51 -23q-15 0 -28 8.5t-13 22.5q0 15 14.5 27t77.5 51q15 9 23 14q24 14 39.5 25t34 39.5
t18.5 62.5q0 43 -31 65.5t-69 22.5q-36 0 -66.5 -21.5t-30.5 -50.5q0 -28 15 -43q14 -14 14 -20q0 -8 -27 -17z" />
    <glyph glyph-name="four.inferior" unicode="&#x2084;" 
d="M23 225v72l346 401h104v-403h109v-70h-109v-98v-20.5t1.5 -16t4 -12.5t8 -8t13 -6t19.5 -2.5t26.5 -1.5t36.5 1v-61h-389v61h32q55 0 67.5 10t12.5 56v98h-282zM117 295h188v219z" />
    <glyph glyph-name="five.inferior" unicode="&#x2085;" 
d="M113 682h391l-29 -51q-20 -35 -31.5 -41t-62.5 -6h-193l-4 -156q59 35 131 35q113 0 184.5 -69.5t71.5 -160.5q0 -100 -91 -174.5t-240 -74.5q-96 0 -150.5 32.5t-54.5 73.5q0 30 21.5 46t47.5 16t38 -9t36 -41q15 -20 24 -29.5t27.5 -18.5t42.5 -9q31 0 53.5 11.5
t33.5 27t17.5 40.5t7.5 43t1 44q0 96 -23.5 143t-80.5 47q-63 0 -95 -71h-84z" />
    <glyph glyph-name="six.inferior" unicode="&#x2086;" 
d="M227 418q29 14 45 18q30 10 68 10q36 0 75 -12t76.5 -36t62 -69t24.5 -102q0 -113 -83 -178t-184 -65q-31 0 -65 7.5t-73 29t-69.5 54.5t-50.5 88.5t-20 125.5q0 174 98 291.5t262 117.5q83 0 124.5 -26.5t41.5 -59.5q0 -21 -17.5 -37t-47.5 -16q-18 0 -33.5 7.5t-22 14
t-18.5 19.5q-33 33 -68 33q-23 0 -41.5 -10t-31.5 -29.5t-21.5 -38.5t-15 -47.5t-9.5 -46t-6 -43.5zM213 211q0 -32 2.5 -55.5t11.5 -52t29.5 -43.5t52.5 -15q21 0 37 6.5t25 22.5t15 30t8 40.5t2.5 43t0.5 48.5q0 145 -90 145q-94 0 -94 -170z" />
    <glyph glyph-name="seven.inferior" unicode="&#x2087;" 
d="M123 721h80l-8 -31q0 -6 6 -7t35 -1h344l-228 -604q-8 -23 -13.5 -34t-17 -28t-29 -24.5t-40.5 -7.5q-35 0 -58.5 18.5t-23.5 46.5q0 13 5.5 25t29.5 55l241 430h-231q-50 0 -63 -10t-31 -57h-84z" />
    <glyph glyph-name="eight.inferior" unicode="&#x2088;" 
d="M422 367v-5q162 -40 162 -172q0 -94 -76.5 -150t-200.5 -56q-128 0 -205 56.5t-77 149.5q0 70 46.5 114.5t116.5 57.5v5q-65 19 -103 60.5t-38 92.5q0 74 70 126t184 52t188 -52t74 -128q0 -62 -45.5 -100t-95.5 -51zM307 637q-40 0 -66 -28.5t-26 -92.5q0 -123 90 -123
t90 123q0 62 -24 91.5t-64 29.5zM305 332q-100 0 -100 -152q0 -62 25 -98.5t75 -36.5q98 0 98 156q0 66 -27 98.5t-71 32.5z" />
    <glyph glyph-name="nine.inferior" unicode="&#x2089;" 
d="M383 266q-56 -28 -113 -28q-31 0 -67.5 10t-76.5 33t-66.5 69.5t-26.5 108.5q0 61 26 109t66.5 75t85.5 41t88 14q33 0 68 -8t73 -30t67.5 -55t48.5 -88.5t19 -125.5q0 -179 -102.5 -293t-255.5 -114q-68 0 -117 22.5t-49 65.5q0 20 17 36.5t49 16.5q38 0 71 -39
q12 -13 17.5 -18.5t19.5 -12t31 -6.5q101 0 127 217zM303 637q-54 0 -72 -39.5t-18 -124.5q0 -25 0.5 -38.5t2.5 -37t8 -37t15 -28.5t25 -22t37 -7q94 0 94 162q0 37 -3 62.5t-11.5 53t-28 42t-49.5 14.5z" />
    <glyph glyph-name="parenleft.inferior" unicode="&#x208d;" horiz-adv-x="342" 
d="M256 815h96q-198 -248 -198 -551q0 -88 15.5 -171t35 -138t52 -114.5t49.5 -84.5t46 -63h-96q-207 243 -207 561q0 100 20 189.5t57 163t63.5 115t66.5 93.5z" />
    <glyph glyph-name="parenright.inferior" unicode="&#x208e;" horiz-adv-x="342" 
d="M86 -307h-96q28 37 47 63.5t50.5 84.5t51 114t34.5 138.5t15 170.5q0 87 -17 170.5t-38 138t-54.5 112.5t-49 79t-39.5 51h96q40 -53 65.5 -92.5t63.5 -114t58 -165t20 -191.5q0 -316 -207 -559z" />
    <glyph glyph-name="colonmonetary" unicode="&#x20a1;" horiz-adv-x="1515" 
d="M510 33l-88 -297h-98l100 342q-155 97 -238.5 253.5t-83.5 342.5q0 196 92.5 359.5t255 257t359.5 89.5l35 119h100l-37 -125q78 -14 125 -33l47 158h101l-60 -201q47 -30 103 -81q26 51 43 124h90l16 -499h-96q-22 106 -68 186.5t-125 149.5l-319 -1078q36 -6 57 -6
q76 0 145.5 27t121.5 71t94.5 101t68.5 115.5t39 115.5h96v-510h-94q-23 88 -69 154q-25 -27 -44 -45.5t-67.5 -52.5t-97.5 -54t-125.5 -33t-159.5 -6l-72 -241h-100l76 256q-58 11 -123 41zM877 1272l-312 -1053q46 -57 109 -88l327 1102q-61 30 -124 39zM496 322l282 950
q-67 -9 -122 -38.5t-90.5 -68t-62.5 -91t-41.5 -101t-23 -105t-10.5 -95t-2 -79.5q0 -231 70 -372z" />
    <glyph glyph-name="Euro" unicode="&#x20ac;" horiz-adv-x="1024" 
d="M963 389q-15 -91 -41 -161.5t-69.5 -131.5t-113 -94t-161.5 -33q-84 0 -154.5 32t-120 84.5t-86.5 124.5t-58.5 146.5t-31.5 155.5h-96l14 96h72v43q0 45 2 70h-88l14 96h84q12 81 34.5 153.5t61 142t88 119.5t120 80.5t153.5 30.5q175 0 260 -108l6 72h96l4 -385h-96
q-4 16 -10 48t-9.5 50t-11 46.5t-15.5 45.5t-20 38.5t-27 34.5t-35 25t-46.5 17.5t-58.5 5.5q-112 0 -167 -98.5t-69 -317.5h479l-14 -96h-469q-2 -35 -2 -113h453l-15 -96h-436q7 -219 62 -324.5t159 -105.5q56 0 102 29.5t77 79.5t51 103t32 112z" />
    <glyph glyph-name="afii61289" unicode="&#x2113;" horiz-adv-x="555" 
d="M614 254q-28 -141 -88.5 -210t-158.5 -69q-102 0 -170 62q-40 39 -61 103t-21 126v115q-6 -12 -21 -32t-34 -43.5t-25 -31.5l-45 66q106 127 125 158v481q0 87 17.5 169.5t52 153t93 113.5t132.5 43q176 0 176 -203q0 -221 -119 -469q-63 -123 -96 -165v-345
q0 -170 67 -170q57 0 97 175zM506 1243h-2q0 125 -62 125q-71 0 -71 -258v-332q2 7 22 50.5t29 68.5q36 81 60 182t24 164z" />
    <glyph glyph-name="trademark" unicode="&#x2122;" horiz-adv-x="1941" 
d="M-8 1356h737v-215h-33q-4 91 -48 128.5t-136 37.5h-37v-559q0 -77 18.5 -101t79.5 -24v-35h-430v35q25 0 41 2t27 9.5t17 14t8.5 24t3 30t0.5 41.5v8v555h-33q-46 0 -80.5 -11.5t-53 -27t-30 -40.5t-15 -43t-5.5 -44h-31v215zM834 1356h350l219 -471l217 471h330v-37
q-64 0 -80.5 -26t-16.5 -101v-449q0 -68 19 -94t78 -26v-35h-439v35q70 0 89.5 20t19.5 100v490l-303 -645h-25l-301 643v-483q0 -28 0.5 -41t3.5 -31t9.5 -25t18.5 -15t31 -10.5t46 -2.5v-35h-266v35q69 0 86.5 23.5t17.5 103.5v444q0 82 -17 104t-87 21v37z" />
    <glyph glyph-name="Omega" unicode="&#x2126;" horiz-adv-x="1282" 
d="M1200 0h-481v313q61 42 102.5 134t57.5 188.5t16 195.5q0 268 -67 406.5t-189 138.5q-88 0 -148.5 -72t-88 -191.5t-27.5 -278.5q0 -189 51 -338.5t141 -192.5v-303h-485v350h63q0 -34 1 -53t8 -47t19.5 -43.5t38 -27t62.5 -11.5h189v68q-71 30 -133.5 79t-117 120.5
t-86.5 173t-32 220.5q0 181 64 322.5t189 224t292 82.5q125 0 230.5 -53t174 -140.5t106.5 -197.5t38 -227q0 -127 -43 -246.5t-127.5 -213.5t-194.5 -136v-76h183q37 0 62.5 11.5t38 27t19.5 43.5t8 47t1 53h65v-350z" />
    <glyph glyph-name="estimated" unicode="&#x212e;" horiz-adv-x="1169" 
d="M1090 508h-789v-371q111 -114 281 -114q117 0 220 61.5t169 179.5l51 -28q-92 -133 -194.5 -197t-245.5 -64q-114 0 -208.5 41t-157.5 113t-97.5 169.5t-34.5 209.5q0 150 58.5 270.5t172 192t263.5 71.5q155 0 269.5 -70.5t174.5 -189.5t68 -274zM860 559v313
q-117 123 -285 123q-161 0 -274 -116v-320h559z" />
    <glyph glyph-name="onethird" unicode="&#x2153;" horiz-adv-x="1622" 
d="M1141 485l-47 -18q-19 -8 -29 -8q-22 0 -38.5 25.5t-16.5 54.5q0 20 12 44t39.5 51t83.5 44.5t131 17.5q99 0 161 -32.5t62 -94.5q0 -90 -137 -155v-4q52 -9 86.5 -30.5t49 -50t19.5 -50t5 -43.5q0 -103 -96.5 -177.5t-239.5 -74.5q-89 0 -149 31.5t-60 80.5
q0 29 23 45.5t51 16.5q23 0 40.5 -11t25.5 -21.5t20 -31.5q19 -31 30 -40t35 -9q37 0 64.5 13.5t41.5 31.5t22 44.5t9.5 43.5t1.5 37q0 133 -63 133q-24 0 -57 -26q-33 -23 -52 -23q-15 0 -28 8.5t-13 22.5q0 15 14.5 27t77.5 51q15 9 23 14q24 14 39.5 25t34 39.5
t18.5 62.5q0 43 -31 64.5t-69 21.5q-36 0 -66 -21t-30 -49q0 -29 14 -43t14 -20q0 -9 -26 -17zM373 -59l725 1419h116l-725 -1419h-116zM473 1346v-582q0 -35 11.5 -45t45.5 -10h45v-62h-387v62h41q44 0 54 11t10 52v393q0 43 -12.5 53.5t-69.5 10.5h-33v61q104 12 145 22.5
t76 33.5h74z" />
    <glyph glyph-name="twothirds" unicode="&#x2154;" horiz-adv-x="1622" 
d="M1141 485l-47 -18q-19 -8 -29 -8q-22 0 -38.5 25.5t-16.5 54.5q0 20 12 44t39.5 51t83.5 44.5t131 17.5q99 0 161 -32.5t62 -94.5q0 -90 -137 -155v-4q52 -9 86.5 -30.5t49 -50t19.5 -50t5 -43.5q0 -103 -96.5 -177.5t-239.5 -74.5q-89 0 -149 31.5t-60 80.5
q0 29 23 45.5t51 16.5q23 0 40.5 -11t25.5 -21.5t20 -31.5q19 -31 30 -40t35 -9q37 0 64.5 13.5t41.5 31.5t22 44.5t9.5 43.5t1.5 37q0 133 -63 133q-24 0 -57 -26q-33 -23 -52 -23q-15 0 -28 8.5t-13 22.5q0 15 14.5 27t77.5 51q15 9 23 14q24 14 39.5 25t34 39.5
t18.5 62.5q0 43 -31 64.5t-69 21.5q-36 0 -66 -21t-30 -49q0 -29 14 -43t14 -20q0 -9 -26 -17zM401 -59l725 1419h119l-727 -1419h-117zM606 608h-74q2 7 3.5 14t2.5 10t1 5q0 7 -4.5 8.5t-24.5 1.5h-393v55q327 268 327 457q0 58 -32 90.5t-78 32.5q-43 0 -70.5 -24.5
t-27.5 -59.5q0 -28 14 -53q10 -20 10 -23q0 -4 -4 -6t-31 -12l-47 -17q-12 -4 -18 -4q-18 0 -30.5 32t-12.5 65q0 67 63.5 115t188.5 48q75 0 129 -19.5t79.5 -50.5t36.5 -59.5t11 -56.5q0 -38 -18.5 -77.5t-43.5 -72.5t-78 -81t-94 -80.5t-119 -93.5v-4h363z" />
    <glyph glyph-name="oneeighth" unicode="&#x215b;" horiz-adv-x="1622" 
d="M1372 367v-5q162 -40 162 -172q0 -94 -76.5 -150t-200.5 -56q-128 0 -205 56.5t-77 149.5q0 69 47 114t117 58v5q-66 19 -104 60.5t-38 92.5q0 74 70 125t184 51t188 -51t74 -127q0 -62 -45.5 -100t-95.5 -51zM1257 635q-40 0 -66 -27.5t-26 -91.5q0 -123 90 -123
q91 0 91 123q0 62 -24.5 90.5t-64.5 28.5zM1255 332q-100 0 -100 -152q0 -62 25 -98.5t75 -36.5q99 0 99 156q0 66 -27.5 98.5t-71.5 32.5zM473 1346v-582q0 -35 11.5 -45t45.5 -10h45v-62h-387v62h41q44 0 54 11t10 52v393q0 43 -12.5 53.5t-69.5 10.5h-33v61
q104 12 145 22.5t76 33.5h74zM373 -59l725 1419h116l-725 -1419h-116z" />
    <glyph glyph-name="threeeighths" unicode="&#x215c;" horiz-adv-x="1622" 
d="M1372 367v-5q162 -40 162 -172q0 -94 -76.5 -150t-200.5 -56q-128 0 -205 56.5t-77 149.5q0 69 47 114t117 58v5q-66 19 -104 60.5t-38 92.5q0 74 70 125t184 51t188 -51t74 -127q0 -62 -45.5 -100t-95.5 -51zM1257 635q-40 0 -66 -27.5t-26 -91.5q0 -123 90 -123
q91 0 91 123q0 62 -24.5 90.5t-64.5 28.5zM1255 332q-100 0 -100 -152q0 -62 25 -98.5t75 -36.5q99 0 99 156q0 66 -27.5 98.5t-71.5 32.5zM264 1133l-47 -19q-19 -8 -29 -8q-22 0 -38.5 25.5t-16.5 54.5q0 20 12 44t39.5 51t83.5 44.5t131 17.5q99 0 161.5 -32t62.5 -94
q0 -52 -42 -91t-96 -65v-4q52 -9 86.5 -30.5t49 -50t19.5 -50t5 -43.5q0 -103 -96.5 -177.5t-239.5 -74.5q-89 0 -149 31.5t-60 80.5q0 29 23 45.5t51 16.5q23 0 40.5 -11t25.5 -21.5t20 -31.5q19 -31 30 -40t36 -9q37 0 64.5 13.5t41.5 31.5t22 44.5t9.5 43.5t1.5 37
q0 133 -64 133q-25 0 -57 -26q-38 -22 -51 -23q-15 0 -28 8.5t-13 22.5q0 15 14.5 27t77.5 51q15 9 23 14q24 14 39.5 25t34 39.5t18.5 62.5q0 48 -31 67t-70 19t-67.5 -20t-28.5 -50q0 -29 14 -43q15 -15 15 -20q0 -7 -27 -16zM373 -59l725 1419h116l-725 -1419h-116z" />
    <glyph glyph-name="fiveeighths" unicode="&#x215d;" horiz-adv-x="1622" 
d="M1372 367v-5q162 -40 162 -172q0 -94 -76.5 -150t-200.5 -56q-128 0 -205 56.5t-77 149.5q0 69 47 114t117 58v5q-66 19 -104 60.5t-38 92.5q0 74 70 125t184 51t188 -51t74 -127q0 -62 -45.5 -100t-95.5 -51zM1257 635q-40 0 -66 -27.5t-26 -91.5q0 -123 90 -123
q91 0 91 123q0 62 -24.5 90.5t-64.5 28.5zM1255 332q-100 0 -100 -152q0 -62 25 -98.5t75 -36.5q99 0 99 156q0 66 -27.5 98.5t-71.5 32.5zM373 -59l725 1419h116l-725 -1419h-116zM186 1329h392l-29 -51q-20 -35 -31.5 -41t-62.5 -6h-193l-2 -152q55 31 129 31
q114 0 185 -69t71 -160q0 -100 -91.5 -175t-240.5 -75q-96 0 -150 32.5t-54 73.5q0 30 21.5 46t47.5 16t38.5 -8.5t35.5 -40.5q15 -20 24 -30t27.5 -19t42.5 -9q31 0 53.5 11.5t33.5 27t17.5 40.5t7.5 43t1 44q0 96 -23.5 143.5t-81.5 47.5q-61 0 -94 -72h-84z" />
    <glyph glyph-name="seveneighths" unicode="&#x215e;" horiz-adv-x="1622" 
d="M1372 367v-5q162 -40 162 -172q0 -94 -76.5 -150t-200.5 -56q-128 0 -205 56.5t-77 149.5q0 69 47 114t117 58v5q-66 19 -104 60.5t-38 92.5q0 74 70 125t184 51t188 -51t74 -127q0 -62 -45.5 -100t-95.5 -51zM1257 635q-40 0 -66 -27.5t-26 -91.5q0 -123 90 -123
q91 0 91 123q0 62 -24.5 90.5t-64.5 28.5zM1255 332q-100 0 -100 -152q0 -62 25 -98.5t75 -36.5q99 0 99 156q0 66 -27.5 98.5t-71.5 32.5zM199 1374h80q-3 -10 -5 -17t-3 -9.5t-1 -4.5q0 -6 6 -7t35 -1h344l-227 -606q-8 -23 -13.5 -34t-17 -28t-29 -24.5t-40.5 -7.5
q-35 0 -58.5 18.5t-23.5 46.5q0 13 5.5 25t29.5 55l241 432h-231q-50 0 -63 -10t-31 -57h-84zM336 -59l725 1419h117l-725 -1419h-117z" />
    <glyph glyph-name="partialdiff" unicode="&#x2202;" horiz-adv-x="884" 
d="M827 999q0 -115 -30.5 -281t-71.5 -276q-104 -265 -188.5 -367t-206.5 -102q-143 0 -216 110t-73 292q0 113 29 217t82 184.5t132.5 129t174.5 48.5q51 0 92.5 -17t67 -45t40.5 -55.5t23 -56.5h2q4 59 4 160q0 63 -11.5 126t-35.5 122.5t-68.5 97t-103.5 37.5
q-137 0 -236 -133l-34 43q21 39 41.5 70.5t52.5 66.5t67 58.5t84 39t105 15.5q69 0 120 -26t81 -67.5t47.5 -107t23.5 -131t6 -152.5zM672 672q-5 27 -10.5 46.5t-17.5 47.5t-27 46t-40 31t-57 13q-65 0 -119 -74.5t-84 -198.5t-30 -268q0 -117 40 -177t97 -60q47 0 89 54.5
t72.5 144t52 189t34.5 206.5z" />
    <glyph glyph-name="Delta" unicode="&#x2206;" horiz-adv-x="980" 
d="M940 0h-891l336 1458h225zM666 98l-236 1004l-250 -1004h486z" />
    <glyph glyph-name="product" unicode="&#x220f;" horiz-adv-x="1175" 
d="M1110 -268h-442v65h22q24 0 39 13t22 39.5t9 51.5t2 62v1374h-352v-1374q0 -37 2 -62.5t8.5 -51.5t20.5 -39t36 -13h25v-65h-436v65h22q23 0 37.5 13.5t21 39t9 51t2.5 62.5v1239q0 38 -2 64t-9 51.5t-21 38t-36 12.5h-24v66h1044v-66h-23q-24 0 -38.5 -12.5t-21 -39
t-8 -50t-1.5 -64.5v-1239q0 -38 2 -63.5t8.5 -51t20.5 -38.5t36 -13h25v-65z" />
    <glyph glyph-name="summation" unicode="&#x2211;" horiz-adv-x="851" 
d="M829 104l-20 -372h-776l-2 75l352 734l-340 819v74h743l15 -314h-62q-9 131 -28.5 173t-79.5 42h-359l279 -655l-363 -746h461q63 0 84.5 37t32.5 142z" />
    <glyph glyph-name="minus" unicode="&#x2212;" horiz-adv-x="1366" 
d="M131 754h1102v-185h-1102v185z" />
    <glyph glyph-name="uni2215" unicode="&#x2215;" horiz-adv-x="405" 
d="M-217 -57l725 1419h117l-725 -1419h-117z" />
    <glyph glyph-name="uni2219" unicode="&#x2219;" horiz-adv-x="575" 
d="M131 657q0 65 45.5 110.5t110.5 45.5q67 0 112 -46t45 -110q0 -65 -45.5 -111t-111.5 -46q-64 0 -110 45t-46 112z" />
    <glyph glyph-name="radical" unicode="&#x221a;" horiz-adv-x="559" 
d="M479 1491l-135 -1516h-115l-163 662l-58 -45l-47 63l191 142l133 -611h4l117 1305h73z" />
    <glyph glyph-name="infinity" unicode="&#x221e;" horiz-adv-x="1173" 
d="M844 317q-88 0 -144 39t-102 119h-2q-103 -158 -264 -158q-106 0 -176 72t-70 180q0 113 67.5 186.5t174.5 73.5q155 0 239 -155h2q51 76 114 115.5t155 39.5q103 0 172 -71t69 -183q0 -110 -67.5 -184t-167.5 -74zM848 741q-17 0 -32.5 -3t-28 -7t-25 -13t-21.5 -15.5
t-20 -20.5t-17 -22t-16 -25.5t-14.5 -25.5t-15.5 -28t-15 -28q69 -150 201 -150q72 0 111.5 50.5t39.5 119.5q0 74 -36.5 121t-110.5 47zM330 741q-68 0 -114 -45.5t-46 -122.5q0 -76 41 -123t115 -47q35 0 65.5 17t55 49t38.5 56t33 61q1 3 2 4.5t2 3.5l2 4
q-70 143 -194 143z" />
    <glyph glyph-name="integral" unicode="&#x222b;" horiz-adv-x="456" 
d="M442 1419q0 -80 -55 -80q-39 0 -59 29q-23 23 -47 23q-33 0 -33 -48q-1 -41 21 -144.5t28 -149.5q16 -82 29.5 -234t13.5 -262q0 -342 -21 -502q-2 -14 -8 -59t-8 -63t-7.5 -55t-9.5 -58t-10 -47t-12 -45q-24 -75 -55 -115.5t-86 -40.5q-44 0 -79.5 30t-35.5 78
q0 35 18.5 59.5t53.5 24.5q17 0 27 -7.5t24 -28.5q10 -15 39 -15q9 0 14.5 3.5t11.5 23.5t7 57q1 22 -10 71.5t-27 117.5t-23 112q-30 192 -30 455q0 213 16 409q6 102 19.5 222.5t25.5 177.5q21 84 60.5 128t84.5 44q58 0 90.5 -32.5t32.5 -78.5z" />
    <glyph glyph-name="approxequal" unicode="&#x2248;" horiz-adv-x="1366" 
d="M1335 995q-135 -329 -383 -329q-74 0 -143 16.5t-188 60.5q-147 56 -218 56q-93 0 -153.5 -36t-108.5 -136l-110 51q65 159 155.5 242.5t229.5 83.5q124 0 299 -66q100 -39 151.5 -52.5t106.5 -13.5q89 0 147 41.5t105 133.5zM1335 629q-135 -328 -383 -328
q-75 0 -144.5 16.5t-186.5 61.5q-144 55 -218 55q-93 0 -153.5 -36.5t-108.5 -139.5l-110 55q65 159 155.5 242.5t229.5 83.5q53 0 114 -12t93.5 -22.5t91.5 -31.5q95 -38 148 -51.5t110 -13.5q89 0 147.5 41t104.5 133z" />
    <glyph glyph-name="notequal" unicode="&#x2260;" horiz-adv-x="1368" 
d="M1255 397h-637l-204 -315h-195l207 315h-315v172h426l110 164h-536v172h643l200 303h195l-201 -303h307v-172h-415l-111 -164h526v-172z" />
    <glyph glyph-name="lessequal" unicode="&#x2264;" horiz-adv-x="1366" 
d="M1255 0h-1144v172h1144v-172zM1255 295l-1144 397v185l1144 399v-180l-895 -310l895 -311v-180z" />
    <glyph glyph-name="greaterequal" unicode="&#x2265;" horiz-adv-x="1366" 
d="M1255 0h-1144v172h1144v-172zM1255 692l-1144 -399v180l895 309l-895 312v180l1144 -397v-185z" />
    <glyph glyph-name="lozenge" unicode="&#x25ca;" horiz-adv-x="520" 
d="M549 715l-254 -740h-74l-250 740l250 743h74zM449 715l-189 579l-186 -579l186 -578z" />
    <glyph glyph-name="uni2014.alt" unicode="&#xe000;" horiz-adv-x="1536" 
d="M-12 604h1560v-184h-1560v184z" />
    <glyph glyph-name="one.fitted" unicode="&#xf6dc;" horiz-adv-x="854" 
d="M86 1155v109q117 0 226.5 29.5t183.5 82.5h106v-1110v-44.5t2 -34t5 -28t10 -19.5t16.5 -15.5t24.5 -8.5t34 -6t45 -1h29v-109h-670v109h35q36 0 59 2.5t39.5 11.5t24.5 17.5t12.5 31.5t5 41.5t0.5 58.5v713q0 41 -1 63t-6.5 44.5t-14.5 32t-27.5 18t-43.5 10.5t-64 2
h-31z" />
    <glyph glyph-name="R_p" unicode="&#xf6dd;" horiz-adv-x="2646" 
d="M537 1260v-543h61q33 0 52.5 0.5t56.5 3.5t60.5 10.5t55.5 20t52.5 33t40 48.5t29 69t9.5 91q0 66 -19 115.5t-51.5 77t-75 46t-89 22.5t-93.5 7t-89 -1zM537 606v-354q0 -44 5 -68t23.5 -47.5t59.5 -33t108 -9.5v-94h-680v94q65 0 104.5 9t59 31t25.5 48t6 70v856
q0 44 -5.5 69t-24.5 48.5t-59 33t-106 9.5v92l314 12q412 16 600 -33q56 -15 106 -42t94 -68.5t69.5 -102.5t25.5 -135q0 -108 -72 -194.5t-225 -128.5q26 -15 46.5 -30t45 -41.5t37.5 -41.5t45.5 -62.5t47.5 -70t62 -94.5q94 -144 142.5 -186t124.5 -48v-94h-363
q-27 31 -95 136t-139 220t-85 136q-24 35 -35.5 49.5t-30.5 31.5t-41.5 21.5t-55 8t-85.5 3.5h-49zM1845 78v-318q0 -24 0.5 -36t2.5 -30.5t6.5 -27t13.5 -20.5t22 -16.5t32.5 -8.5t45.5 -4h55v-94h-581v94q52 0 81 6.5t43.5 26.5t17.5 42t3 68v820q0 52 -28.5 74t-116.5 22
v92l389 84q12 -55 14 -127q127 127 299 127q127 0 224 -61.5t145.5 -158t48.5 -208.5q0 -189 -126 -323t-316 -134q-164 0 -275 111zM1845 600v-395q37 -58 99 -93.5t129 -35.5q213 0 213 354q0 50 -5 91.5t-19 83.5t-37 70t-61.5 46t-90.5 18q-77 0 -135 -43t-93 -96z" />
    <glyph glyph-name="cent.inferior" unicode="&#xf6df;" 
d="M260 -12l-74 -183h-77l79 203q-73 39 -111 82t-38 117q0 95 91 167.5t237 69.5l79 201h80l-86 -209q127 -35 127 -100q0 -25 -22.5 -43.5t-55.5 -18.5q-49 0 -63 35q-1 4 -16 49l-117 -288q19 -21 76 -21q19 0 35.5 3t29.5 9.5t22 12t17.5 16t12.5 16t11.5 17.5t8.5 14
l69 -26q-36 -72 -95.5 -101.5t-143.5 -29.5q-40 0 -76 8zM242 137l102 252q-20 -5 -30 -8t-30 -14.5t-30.5 -27t-19.5 -45t-9 -69.5q0 -39 17 -88z" />
    <glyph glyph-name="cent.superior" unicode="&#xf6e0;" 
d="M260 651l-74 -182h-77l79 203q-73 39 -111 81.5t-38 116.5q0 95 91 168t237 70l79 201h80l-86 -209q127 -35 127 -101q0 -25 -22.5 -43t-55.5 -18q-49 0 -63 35q-1 4 -16 49l-117 -289q18 -20 76 -20q19 0 35.5 3t29.5 9.5t22 12t17.5 16t12.5 16t11.5 17.5t8.5 14
l69 -27q-36 -72 -95.5 -101.5t-143.5 -29.5q-40 0 -76 8zM242 801l102 252q-20 -5 -30 -8t-30 -14.5t-30.5 -27t-19.5 -45t-9 -69.5q0 -39 17 -88z" />
    <glyph glyph-name="comma.inferior" unicode="&#xf6e1;" horiz-adv-x="362" 
d="M61 -236v66q67 10 113.5 42t46.5 85q0 20 -12 20l-8 -1q-8 -1 -13 -1q-16 -4 -20 -4q-53 0 -84 30t-31 67q0 42 34 71t81 29q59 0 102 -46.5t43 -121.5q0 -11 -0.5 -20.5t-5.5 -33t-13.5 -42.5t-27.5 -44t-44.5 -42.5t-67 -32.5t-93.5 -21z" />
    <glyph glyph-name="comma.superior" unicode="&#xf6e2;" horiz-adv-x="362" 
d="M61 428v66q67 10 113.5 42t46.5 85q0 20 -12 20l-8 -1q-8 -1 -13 -1q-16 -4 -20 -4q-53 0 -84 29.5t-31 66.5q0 42 34 71t81 29q60 0 102.5 -46t42.5 -121q0 -11 -0.5 -20.5t-5.5 -33t-13.5 -42.5t-27.5 -44t-44.5 -42.5t-67 -32.5t-93.5 -21z" />
    <glyph glyph-name="dollar.inferior" unicode="&#xf6e3;" 
d="M242 47v244q-38 16 -58.5 25.5t-53 29t-49.5 38.5t-30.5 48.5t-13.5 63.5q0 72 53.5 123.5t151.5 64.5v33h82v-31q81 -8 146 -43t65 -76q0 -24 -20.5 -40.5t-45.5 -16.5q-48 0 -72 59q-22 43 -73 54v-205q38 -15 57.5 -23.5t53 -25t51.5 -31.5t38 -36t28.5 -47t8.5 -56
q0 -73 -61 -135.5t-176 -75.5v-125h-82v123q-99 6 -154 37.5t-55 66.5q0 24 19 40.5t48 16.5q21 0 36.5 -9.5t21 -16.5t14.5 -23q14 -25 28 -35t42 -16zM242 453v170q-30 -6 -51 -28.5t-21 -51.5q0 -52 72 -90zM324 256v-209q44 8 74 35t30 65q0 27 -17.5 50t-37.5 35
t-49 24z" />
    <glyph glyph-name="dollar.superior" unicode="&#xf6e4;" 
d="M242 711v243q-38 16 -58.5 25.5t-53 29t-49.5 38.5t-30.5 48.5t-13.5 63.5q0 72 53.5 124t151.5 65v32h82v-30q81 -8 146 -43t65 -76q0 -24 -20.5 -40.5t-45.5 -16.5q-48 0 -72 59q-22 42 -73 53v-205q38 -15 57.5 -23.5t53 -25t51.5 -31.5t38 -36t28.5 -47t8.5 -56
q0 -73 -61 -135.5t-176 -75.5v-125h-82v123q-99 6 -154 38t-55 67q0 24 19 40.5t48 16.5q21 0 36.5 -9.5t21 -16.5t14.5 -23q14 -25 28 -35t42 -16zM242 1116v170q-30 -6 -51 -28.5t-21 -51.5q0 -52 72 -90zM324 920v-209q44 8 74 35t30 65q0 27 -17.5 50t-37.5 35t-49 24z
" />
    <glyph glyph-name="hyphen.inferior" unicode="&#xf6e5;" horiz-adv-x="448" 
d="M39 172v131h371v-131h-371z" />
    <glyph glyph-name="hyphen.superior" unicode="&#xf6e6;" horiz-adv-x="448" 
d="M39 836v131h371v-131h-371z" />
    <glyph glyph-name="period.inferior" unicode="&#xf6e7;" horiz-adv-x="362" 
d="M70 68q0 41 32.5 69.5t77.5 28.5q47 0 80 -29t33 -69q0 -41 -33 -71t-80 -30q-44 0 -77 30t-33 71z" />
    <glyph glyph-name="period.superior" unicode="&#xf6e8;" horiz-adv-x="362" 
d="M70 731q0 41 32.5 69.5t77.5 28.5q47 0 80 -29t33 -69q0 -41 -33 -70.5t-80 -29.5q-45 0 -77.5 29.5t-32.5 70.5z" />
    <glyph glyph-name="a.superior" unicode="&#xf6e9;" horiz-adv-x="704" 
d="M401 983v29q0 45 -20.5 63.5t-67.5 18.5q-44 0 -63 -16t-25 -54q-12 -66 -88 -66q-32 0 -56 16.5t-24 45.5q0 59 73 101t204 42q254 0 254 -149v-209q0 -25 1 -39t8 -27.5t21 -13.5q31 0 31 53h70q3 -95 -68 -129q-41 -20 -94 -20q-43 0 -72 11.5t-39.5 23t-25.5 34.5
q-101 -69 -207 -69q-70 0 -120 30.5t-50 85.5q0 40 21.5 74t54 57.5t83.5 45t95 34.5t104 27zM401 770v139q-81 -27 -122 -55.5t-41 -73.5q0 -55 55 -55q52 0 108 45z" />
    <glyph glyph-name="b.superior" unicode="&#xf6ea;" horiz-adv-x="768" 
d="M86 629v665q0 46 -15.5 56t-82.5 12v61l288 58v-371q5 2 24.5 12.5t38 19t49.5 16t63 7.5q137 0 209.5 -77.5t72.5 -186.5q0 -119 -89 -195.5t-212 -76.5q-40 0 -73 7t-60 23.5t-36 24t-32 27.5q-8 -9 -73 -82h-72zM276 1012v-240q33 -33 61.5 -49t68.5 -16
q124 0 124 198q0 180 -114 180q-72 0 -140 -73z" />
    <glyph glyph-name="d.superior" unicode="&#xf6eb;" horiz-adv-x="788" 
d="M502 1110v172q0 54 -14.5 64.5t-81.5 13.5v65l282 56v-670q0 -63 12.5 -73.5t83.5 -10.5v-70q-154 -5 -266 -30q-11 18 -16 53q-44 -27 -79.5 -39t-86.5 -12q-123 0 -209 81t-86 195q0 105 78 182.5t211 77.5q45 0 81.5 -9.5t52.5 -19t38 -26.5zM502 774v238
q-38 38 -67.5 56.5t-72.5 18.5q-120 0 -120 -182q0 -13 1 -24.5t4 -38t11.5 -47t21.5 -42.5t36.5 -34t54.5 -12q42 0 70.5 16.5t60.5 50.5z" />
    <glyph glyph-name="e.superior" unicode="&#xf6ec;" horiz-adv-x="661" 
d="M559 786l66 -41q-77 -116 -254 -116q-145 0 -239.5 72t-94.5 192q0 115 89 192.5t226 77.5q131 0 206 -73t73 -183h-391q1 -31 2.5 -49.5t10 -51t23.5 -51t45.5 -33.5t73.5 -15q105 0 164 79zM240 977h206q-1 21 -1.5 30t-6 29.5t-15 30t-29.5 18.5t-48 9
q-26 0 -45.5 -8.5t-29.5 -19t-17.5 -30t-9 -29.5z" />
    <glyph glyph-name="i.superior" unicode="&#xf6ed;" horiz-adv-x="405" 
d="M305 1163v-366q0 -53 13.5 -66.5t72.5 -13.5v-70h-371v70h31q25 0 39 4t20.5 16.5t7.5 23.5t1 36v174q0 30 -1.5 41.5t-12 21.5t-28.5 11.5t-57 1.5v65zM113 1386q0 39 30 66t74 27q43 0 72.5 -27.5t29.5 -65.5q0 -37 -30 -63.5t-72 -26.5q-43 0 -73.5 26.5t-30.5 63.5z
" />
    <glyph glyph-name="l.superior" unicode="&#xf6ee;" horiz-adv-x="405" 
d="M299 1475v-678q0 -25 1 -36t7.5 -23.5t20.5 -16.5t39 -4h30v-70h-391v70h39q25 0 39 4t20.5 16.5t7.5 23.5t1 36v499q0 43 -19 52.5t-88 9.5v65z" />
    <glyph glyph-name="m.superior" unicode="&#xf6ef;" horiz-adv-x="1236" 
d="M1143 979v-182q0 -26 1 -36.5t7 -23t20 -16.5t39 -4h35v-70h-379v70q61 0 75.5 13t14.5 67v178q0 19 -2 31t-9.5 30t-28.5 27.5t-54 9.5q-61 0 -103 -42t-42 -120v-114q0 -55 15 -67.5t81 -12.5v-70h-373v70q61 0 75.5 13.5t14.5 66.5v186q0 31 -10.5 51.5t-28 27.5
t-28 9t-23.5 2q-147 0 -147 -153v-123q0 -55 14.5 -67.5t79.5 -12.5v-70h-373v70q63 0 77.5 13t14.5 67v200q0 34 -23.5 42t-86.5 8v65l291 51q3 -17 6 -73q93 73 201 73q62 0 107.5 -17.5t62.5 -34t36 -42.5q36 32 58 48t66.5 31t99.5 15q219 0 219 -184z" />
    <glyph glyph-name="o.superior" unicode="&#xf6f0;" horiz-adv-x="724" 
d="M35 895q0 69 29.5 122.5t78.5 84t106 46t118 15.5q150 0 236.5 -77t86.5 -189q0 -122 -95.5 -195t-229.5 -73q-136 0 -233 71t-97 195zM236 893q0 -44 4 -74t16.5 -60t39.5 -45.5t69 -15.5q39 0 65 15t38 45.5t16.5 62.5t4.5 78q0 109 -30.5 152t-98.5 43
q-69 0 -96.5 -44.5t-27.5 -156.5z" />
    <glyph glyph-name="r.superior" unicode="&#xf6f1;" horiz-adv-x="575" 
d="M299 899v-102q0 -50 12 -65t64 -15h45v-70h-420v70h43q47 0 58.5 17t11.5 63v172q0 38 -5.5 52.5t-29 21t-78.5 4.5v65l270 51q13 -45 17 -100q22 27 38.5 43.5t56 36.5t83.5 20q54 0 89.5 -28.5t35.5 -69.5q0 -35 -26 -57.5t-62 -22.5q-37 0 -64 27l-12 12
q-16 17 -20.5 20t-12.5 3q-33 0 -63.5 -38t-30.5 -110z" />
    <glyph glyph-name="s.superior" unicode="&#xf6f2;" horiz-adv-x="618" 
d="M49 633l-6 162h74q25 -47 55 -68q53 -33 147 -33q119 0 119 62q0 23 -17 32t-77 24q-4 1 -6.5 1.5t-6.5 1.5t-7 2q-7 2 -20 5q-45 11 -67.5 17.5t-60.5 19t-58 25t-42 30.5t-31.5 41.5t-9.5 52.5q0 68 72.5 111.5t189.5 43.5q103 0 178 -30l12 26h72v-143h-72
q-23 38 -51 55q-52 27 -139 27q-119 0 -119 -49q0 -19 22 -28t93 -26q155 -38 203 -61q88 -42 95 -123q1 -8 1 -16q0 -81 -77.5 -123.5t-190.5 -42.5q-101 0 -185 33l-22 -29h-68z" />
    <glyph glyph-name="t.superior" unicode="&#xf6f3;" horiz-adv-x="491" 
d="M295 1075v-274q0 -33 2 -49t10.5 -28.5t26.5 -12.5q28 0 49 28.5t29 53.5l73 -31q-7 -18 -19 -36.5t-34 -42.5t-59 -39t-82 -15q-56 0 -101 22.5t-63 55.5q-18 29 -18 98v270h-97v70q96 -1 148 41t63 112h72v-153h182v-70h-182z" />
    <glyph glyph-name="dollar.oldstyle" unicode="&#xf724;" horiz-adv-x="681" 
d="M276 76v319q-84 34 -155 99q-25 24 -39.5 41.5t-29.5 55.5t-15 83q0 110 69.5 179.5t169.5 80.5v45h93v-43q96 -11 170.5 -57.5t74.5 -104.5q0 -35 -22.5 -58.5t-52.5 -23.5q-48 0 -72 53q-12 32 -20 46t-27 28.5t-51 22.5v-267q11 -6 63 -31t55 -26q158 -93 158 -244
q0 -9 -0.5 -19t-6 -37t-15 -51t-30 -54.5t-48.5 -54t-74 -43.5t-102 -29v-168h-93v166q-114 8 -178.5 51.5t-64.5 93.5q0 32 21.5 56t54.5 24q23 0 41 -12.5t25 -23.5t20 -34q19 -34 36 -46t45 -17zM276 621v221q-88 -25 -88 -101q0 -65 88 -120zM369 350v-274
q35 8 60.5 23.5t37.5 31t18.5 34.5t7.5 27t1 15q0 27 -10.5 49.5t-32.5 40.5t-38 28t-44 25z" />
    <glyph glyph-name="zero.oldstyle" unicode="&#xf730;" horiz-adv-x="1067" 
d="M78 446q0 121 59.5 225.5t163.5 167t227 62.5q136 0 243 -67t162.5 -172.5t55.5 -225.5q0 -195 -133 -329t-326 -134q-81 0 -159.5 30t-144.5 86t-107 149t-41 208zM344 440q0 -96 11.5 -166.5t29 -109t44 -61t50.5 -29t56 -6.5t54 5t49.5 27.5t44.5 62t28.5 115
t11.5 181.5q0 190 -50 269t-143 79q-100 0 -141 -92q-45 -105 -45 -275z" />
    <glyph glyph-name="one.oldstyle" unicode="&#xf731;" horiz-adv-x="1067" 
d="M817 870v-94q-40 -1 -59 -2.5t-42 -7.5t-32 -18.5t-15.5 -34.5t-6.5 -56v-454q0 -37 9 -59t33.5 -32.5t45.5 -13t67 -4.5v-94h-567v94q91 3 122 21t31 90v469q0 27 -7 45t-15.5 28t-33 16t-40.5 8t-57 5v94h567z" />
    <glyph glyph-name="two.oldstyle" unicode="&#xf732;" horiz-adv-x="1067" 
d="M958 170l-40 -250h-87q5 17 5 45q0 10 -1.5 16t-12 12.5t-31.5 6.5h-668v90q557 288 557 541q0 63 -54 110t-137 47t-142.5 -42t-59.5 -105q0 -26 9 -62t19 -55q11 -17 11 -20q0 -10 -13 -17l-114 -49q-2 -1 -7 -3t-8.5 -3.5t-5.5 -1.5q-7 0 -20 22.5t-24 58.5t-11 67
q0 59 31 116t87.5 103t144.5 74t192 28q168 0 268 -73.5t100 -178.5q0 -31 -5.5 -59t-20 -55t-29 -50t-42 -48t-49 -44t-61 -44t-67 -41.5t-77 -43t-80.5 -43t-89 -45.5v-4h532z" />
    <glyph glyph-name="three.oldstyle" unicode="&#xf733;" horiz-adv-x="1067" 
d="M336 508l-103 -45q-13 -8 -22 -8q-25 0 -51.5 43.5t-26.5 93.5q0 120 123 214.5t322 94.5q152 0 252 -64t100 -167q0 -49 -19.5 -95t-44.5 -77.5t-65 -63.5t-65 -47t-60 -35v-4q109 -13 172 -63q121 -100 121 -267q0 -134 -76 -244.5t-201.5 -172.5t-271.5 -62
q-157 0 -246.5 61t-89.5 144q0 44 28 76.5t72 32.5q21 0 39 -7t28 -13.5t23.5 -26.5t18 -28t18.5 -36l14 -28t18 -27t27 -28t35.5 -17.5t49.5 -8.5q42 0 87 20t72 50q80 88 80 272q0 135 -25 201t-91 66q-55 0 -129 -62q-25 -22 -34.5 -27.5t-25.5 -5.5q-24 0 -38.5 14
t-14.5 34q0 30 22.5 50.5t124.5 86.5q32 21 50 33.5t51.5 42.5t52 57t34 69t15.5 87q0 84 -56 131t-124 47q-66 0 -127.5 -41.5t-61.5 -110.5q0 -37 23 -78q1 -1 8 -10.5t12 -17t5 -11.5t-5.5 -8t-14 -9t-9.5 -5z" />
    <glyph glyph-name="four.oldstyle" unicode="&#xf734;" horiz-adv-x="1067" 
d="M989 117v-117h-178v-254q0 -22 3 -37t20 -32.5t49 -26.5q9 -2 55 -2.5t51 -1.5v-95h-620v95q41 0 62.5 0.5t47.5 4t38 10.5t24 19.5t16 31.5t4 46v242h-481v129l588 784h143v-796h178zM190 117h371v495h-4z" />
    <glyph glyph-name="five.oldstyle" unicode="&#xf735;" horiz-adv-x="1067" 
d="M324 213h-109l18 655h615l-57 -125q-13 -31 -26.5 -39t-49.5 -8h-391l-9 -344q101 97 236 97q177 0 297.5 -125.5t120.5 -309.5q0 -206 -153.5 -341.5t-381.5 -135.5q-161 0 -248.5 61.5t-87.5 129.5q0 50 31 81t72 31q56 0 82 -51q20 -38 33.5 -59t37.5 -47.5t55.5 -39
t71.5 -12.5q45 0 80.5 13t57.5 31.5t38 49.5t24 56t12 63t4.5 58t0.5 53q0 128 -10.5 194.5t-36.5 114.5q-25 38 -68.5 64t-82.5 26q-14 0 -29.5 -3t-44 -14.5t-56 -43.5t-46.5 -80z" />
    <glyph glyph-name="six.oldstyle" unicode="&#xf736;" horiz-adv-x="1067" 
d="M377 770q40 40 95.5 60t109.5 20q73 0 143 -29t126.5 -81.5t91 -134.5t34.5 -179q0 -123 -58 -228t-158 -166t-218 -61q-64 0 -126.5 20t-122 65t-104.5 110t-72.5 163t-27.5 216q0 219 71.5 398t209.5 286.5t319 107.5q108 0 180 -45.5t72 -115.5q0 -38 -27 -65.5
t-59 -27.5q-27 0 -48.5 11t-32.5 23t-32 40q-29 38 -64 58t-63 20q-204 0 -239 -465zM711 403q0 163 -31 242q-15 40 -54.5 71.5t-90.5 31.5q-179 0 -179 -328q0 -37 0.5 -61.5t4.5 -65.5t10.5 -68.5t20 -60t32.5 -52t48.5 -33t66.5 -13.5q34 0 61 11.5t45 29.5t30.5 47
t19.5 56t10.5 64.5t4.5 64.5t1 64z" />
    <glyph glyph-name="seven.oldstyle" unicode="&#xf737;" horiz-adv-x="1067" 
d="M250 950h98q-12 -28 -12 -45q0 -18 13 -27t23 -9.5t31 -0.5h578l-352 -1075q-21 -64 -32 -95.5t-28 -69t-33 -53.5t-38.5 -27t-51.5 -11q-46 0 -81 30.5t-35 86.5q0 44 26 98l453 901h-434q-26 0 -38 -0.5t-30.5 -2.5t-27 -7t-20.5 -14t-19.5 -23t-16 -34t-16.5 -48h-103
z" />
    <glyph glyph-name="eight.oldstyle" unicode="&#xf738;" horiz-adv-x="1067" 
d="M680 696v-4q309 -65 309 -340q0 -170 -119 -277.5t-329 -107.5q-214 0 -338.5 107.5t-124.5 279.5q0 136 79 221.5t224 116.5v4q-54 19 -96 42t-83.5 58.5t-64 87.5t-22.5 117q0 68 25.5 125.5t68 96.5t97.5 66t113 39.5t116 12.5q111 0 206 -39t155 -118t60 -183
q0 -58 -22 -108t-51.5 -81t-71.5 -57t-70.5 -37.5t-60.5 -21.5zM365 997q0 -21 1 -37.5t5 -51t15.5 -60.5t29 -53t48.5 -41.5t71 -14.5q49 0 83.5 21t53.5 57.5t27 78t8 91.5q0 23 -0.5 38.5t-4 45t-10 50.5t-19.5 46.5t-31.5 41.5t-47.5 27t-66 11q-80 0 -121.5 -65.5
t-41.5 -184.5zM344 354q0 -293 188 -293q191 0 191 301q0 24 -1 42t-5.5 56t-17 66t-32 57.5t-53.5 45.5t-79 16q-191 0 -191 -291z" />
    <glyph glyph-name="nine.oldstyle" unicode="&#xf739;" horiz-adv-x="1067" 
d="M690 100q-40 -40 -95.5 -60t-109.5 -20q-73 0 -143 29t-126.5 81.5t-91 134.5t-34.5 179q0 123 58 228t158 166t218 61q64 0 126.5 -20t122 -65t104.5 -109.5t72.5 -162.5t27.5 -216q0 -130 -26.5 -249t-78 -216.5t-123.5 -169.5t-167.5 -112t-204.5 -40q-108 0 -180 46
t-72 116q0 38 27 65t59 27q27 0 48.5 -11t32.5 -23t32 -40q29 -38 64 -57.5t63 -19.5q34 0 63 14t50.5 34t40 53.5t30.5 62t22 71t15 68.5t9.5 66t5.5 51.5t3 37.5zM356 467q0 -163 31 -242q15 -40 54.5 -71t90.5 -31q179 0 179 328q0 37 -0.5 61.5t-4.5 65.5t-10.5 68.5
t-20 60t-32.5 52t-48.5 33t-66.5 13.5q-40 0 -70 -14.5t-48 -42.5t-29.5 -57.5t-16.5 -73t-6.5 -75t-1.5 -75.5z" />
    <glyph glyph-name="cent.oldstyle" unicode="&#xf7a2;" horiz-adv-x="681" 
d="M293 -12l-86 -246h-90l96 274q-22 12 -37 21t-43 33t-45.5 50.5t-32 70.5t-14.5 94q0 140 109.5 236t271.5 89l94 271h90l-98 -283q28 -9 46 -16.5t45 -23.5t41.5 -41.5t14.5 -57.5q0 -34 -26 -60t-66 -26q-27 0 -46.5 15t-27.5 38q-9 46 -18 68l-135 -388q37 -26 90 -26
q36 0 65 11.5t49 33.5t29.5 35.5t20.5 34.5l80 -37q-92 -183 -289 -183q-29 0 -88 13zM274 190l119 338q-139 -20 -139 -217q0 -53 20 -121z" />
    </font>
</defs>
</svg>
