<?xml version="1.0" standalone="no"?>
<!DOCTYPE svg PUBLIC "-//W3C//DTD SVG 1.1//EN" "http://www.w3.org/Graphics/SVG/1.1/DTD/svg11.dtd" >
<svg xmlns="http://www.w3.org/2000/svg" xmlns:xlink="http://www.w3.org/1999/xlink" version="1.1">
<metadata>
Created by FontForge 20170731 at Fri May 21 14:23:31 2021
 By Aleksey,,,
Copyright (c) 2013 Textaxis. v 1.0 by In~igo Jerez. Barcelona. All rights reserved.
</metadata>
<defs>
<font id="Eina03-Bold" horiz-adv-x="1191" >
  <font-face 
    font-family="Eina 03 Bold"
    font-weight="700"
    font-stretch="normal"
    units-per-em="2048"
    panose-1="2 0 0 0 0 0 0 0 0 0"
    ascent="1577"
    descent="-471"
    x-height="1073"
    cap-height="1454"
    bbox="-117 -545 2591 2247"
    underline-thickness="102"
    underline-position="-307"
    unicode-range="U+0020-FB02"
  />
<missing-glyph horiz-adv-x="532" 
 />
    <glyph glyph-name="fi" unicode="fi" horiz-adv-x="1251" 
d="M477 1073h166v-229h-166v-844h-291v844h-153v229h153v86q0 187 98 282t267 95l86 -4v-250q-12 2 -45 2q-56 0 -85.5 -27.5t-29.5 -91.5v-92zM942 1212q-77 0 -126.5 49t-49.5 125q0 77 50 127t126 50t126 -50t50 -127q0 -76 -49.5 -125t-126.5 -49zM797 0v1073h290v-1073
h-290z" />
    <glyph glyph-name="fl" unicode="fl" horiz-adv-x="1222" 
d="M477 1073h166v-229h-166v-844h-291v844h-153v229h153v86q0 187 98 282t267 95l86 -4v-250q-12 2 -45 2q-56 0 -85.5 -27.5t-29.5 -91.5v-92zM1090 0h-291v1536h291v-1536z" />
    <glyph glyph-name=".notdef" horiz-adv-x="532" 
 />
    <glyph glyph-name=".null" horiz-adv-x="0" 
 />
    <glyph glyph-name="nonmarkingreturn" horiz-adv-x="682" 
 />
    <glyph glyph-name="space" unicode=" " horiz-adv-x="532" 
 />
    <glyph glyph-name="exclam" unicode="!" horiz-adv-x="577" 
d="M168 446l-51 1008h344l-51 -1008h-242zM289 -16q-80 0 -132.5 50.5t-52.5 131.5q0 79 52.5 131.5t132.5 52.5q81 0 132.5 -52t51.5 -132q0 -82 -51 -132t-133 -50z" />
    <glyph glyph-name="quotedbl" unicode="&#x22;" horiz-adv-x="909" 
d="M387 1454v-668h-274v668h274zM797 1454v-668h-275v668h275z" />
    <glyph glyph-name="numbersign" unicode="#" horiz-adv-x="1261" 
d="M1200 1053l-45 -213h-184l-47 -226h184l-45 -213h-184l-84 -401h-220l84 401h-178l-84 -401h-219l84 401h-201l45 213h201l47 226h-200l45 213h200l86 401h220l-87 -401h179l86 401h219l-86 -401h184zM573 840l-47 -226h179l47 226h-179z" />
    <glyph glyph-name="dollar" unicode="$" 
d="M690 -256h-147v227q-154 9 -263.5 78.5t-160.5 175t-51 234.5h294q2 -81 48 -139.5t133 -75.5v364l-109 31q-161 45 -244.5 155t-83.5 263q0 172 123 288.5t314 135.5v229h147v-229q203 -24 317.5 -156t114.5 -326h-295q-2 69 -35 124.5t-102 78.5v-332l58 -14
q374 -104 374 -453q0 -169 -117 -285.5t-315 -142.5v-231zM403 1067q0 -21 2.5 -37.5t11 -30t13.5 -21.5t22.5 -19.5t24 -15t32.5 -16t34 -16.5v299q-61 -11 -100.5 -49t-39.5 -94zM819 403q0 115 -129 164v-319q129 34 129 155z" />
    <glyph glyph-name="percent" unicode="%" horiz-adv-x="1972" 
d="M479 0l803 1454h211l-803 -1454h-211zM381 1001q0 -99 13.5 -155.5t37.5 -77t64 -20.5q60 0 87 53.5t27 199.5t-27 201t-87 55t-87.5 -55t-27.5 -201zM156 1001q0 140 33.5 241.5t111.5 162.5t195 61t195 -61t111.5 -162.5t33.5 -241.5q0 -104 -19.5 -186.5t-59.5 -145
t-106 -96.5t-155 -34t-155 34t-106 96.5t-59.5 145t-19.5 186.5zM1362 451q0 -146 27.5 -200t87.5 -54t87 54t27 200t-27 201t-87 55t-87.5 -55t-27.5 -201zM1137 451q0 104 19.5 187t59.5 146t106 97t155 34t155 -34t106 -97t59.5 -146t19.5 -187q0 -140 -33.5 -241
t-111.5 -161.5t-195 -60.5t-195 60.5t-111.5 161.5t-33.5 241z" />
    <glyph glyph-name="ampersand" unicode="&#x26;" horiz-adv-x="1382" 
d="M215 1106q0 74 27.5 141.5t79.5 121t134.5 85t184.5 31.5t184.5 -31.5t134.5 -85t79.5 -121t27.5 -141.5q0 -246 -301 -381l231 -254q41 93 41 211q0 29 -2 58.5t-4 43.5l-2 15h264q6 -58 6 -113q0 -239 -120 -416l247 -270h-352l-78 86q-174 -117 -401 -117
q-152 0 -271.5 51.5t-188 149t-68.5 225.5q0 289 278 412q-131 142 -131 299zM604 223q124 0 219 53l-307 340q-90 -40 -129 -86t-39 -114q0 -83 67.5 -138t188.5 -55zM483 1106q0 -71 95 -174l16 -19l59 27q146 64 146 166q0 62 -44 104.5t-114 42.5q-71 0 -114.5 -42
t-43.5 -105z" />
    <glyph glyph-name="quotesingle" unicode="'" horiz-adv-x="499" 
d="M387 1454v-668h-274v668h274z" />
    <glyph glyph-name="parenleft" unicode="(" horiz-adv-x="747" 
d="M481 598q0 -506 221 -938h-292q-109 180 -167.5 425t-58.5 513t58.5 513t167.5 425h292q-221 -432 -221 -938z" />
    <glyph glyph-name="parenright" unicode=")" horiz-adv-x="747" 
d="M266 598q0 506 -221 938h293q109 -180 167 -424.5t58 -513.5t-58 -513.5t-167 -424.5h-293q221 432 221 938z" />
    <glyph glyph-name="asterisk" unicode="*" horiz-adv-x="794" 
d="M772 1145l-225 -74l137 -190l-149 -111l-140 193l-139 -193l-150 109l142 192l-225 74l57 176l225 -74v238h184v-238l226 74z" />
    <glyph glyph-name="plus" unicode="+" 
d="M459 1073h274v-399h400v-275h-400v-399h-274v399h-400v275h400v399z" />
    <glyph glyph-name="comma" unicode="," horiz-adv-x="532" 
d="M135 330h322l-178 -621h-261z" />
    <glyph glyph-name="hyphen" unicode="-" horiz-adv-x="841" 
d="M752 674v-275h-662v275h662z" />
    <glyph glyph-name="period" unicode="." horiz-adv-x="532" 
d="M266 -16q-86 0 -141 54t-55 140q0 85 55 141t141 56q85 0 141 -56t56 -141q0 -86 -56 -140t-141 -54z" />
    <glyph glyph-name="slash" unicode="/" horiz-adv-x="974" 
d="M45 0l592 1454h293l-592 -1454h-293z" />
    <glyph glyph-name="zero" unicode="0" 
d="M596 -31q-130 0 -231.5 56.5t-166 158t-97.5 239t-33 304.5t33 304.5t97.5 239t166 158t231.5 56.5t231.5 -56.5t166 -158t97.5 -239t33 -304.5t-33 -304.5t-97.5 -239t-166 -158t-231.5 -56.5zM596 1202q-115 0 -170 -114.5t-55 -360.5t55 -360.5t170 -114.5t170 114.5
t55 360.5t-55 360.5t-170 114.5z" />
    <glyph glyph-name="one" unicode="1" 
d="M1092 246v-246h-918v246h309v913h-303v195l361 100h241v-1208h310z" />
    <glyph glyph-name="two" unicode="2" 
d="M1106 0h-1002v246l570 553q62 59 85 111.5t23 119.5q0 81 -54.5 130.5t-141.5 49.5q-96 0 -146.5 -55.5t-50.5 -144.5q0 -24 1.5 -44t3.5 -28l1 -8h-295q-6 35 -6 84q0 210 136.5 340.5t355.5 130.5q226 0 360.5 -125.5t134.5 -323.5q0 -143 -53 -248t-186 -223
l-330 -291h594v-274z" />
    <glyph glyph-name="three" unicode="3" 
d="M459 621v247h135q105 0 158 46t53 124t-51 128.5t-146 50.5q-101 0 -153 -60.5t-52 -144.5h-290q0 202 138 337.5t357 135.5q222 0 354 -118t132 -310q0 -101 -49 -181.5t-148 -123.5q213 -81 213 -324q0 -194 -144.5 -326.5t-369.5 -132.5q-224 0 -365.5 129.5
t-148.5 343.5h291q5 -92 61.5 -148t161.5 -56q99 0 158 53t59 137q0 89 -54.5 141t-168.5 52h-131z" />
    <glyph glyph-name="four" unicode="4" 
d="M1126 557v-260h-139v-297h-274v297h-680v221l641 936h313v-897h139zM713 1065h-2l-349 -508h351v508z" />
    <glyph glyph-name="five" unicode="5" 
d="M123 604l121 850h792v-274h-567l-41 -287q34 34 97.5 59t133.5 25q100 0 180 -30t131.5 -79t85.5 -115t48 -133t14 -139q0 -224 -144 -368t-378 -144q-217 0 -354 120t-152 319h301q13 -69 66.5 -117.5t138.5 -48.5q102 0 162.5 65t60.5 174t-60.5 174.5t-162.5 65.5
q-41 0 -77 -12t-58 -29.5t-38.5 -34.5t-22.5 -29l-7 -12h-270z" />
    <glyph glyph-name="six" unicode="6" 
d="M608 -31q-158 0 -279 72.5t-184 193t-63 267.5q0 216 123 447.5t362 504.5h361q-295 -318 -426 -539q70 39 170 39q141 0 246.5 -65.5t158.5 -173.5t53 -242q0 -139 -65.5 -254t-185.5 -182.5t-271 -67.5zM827 473q0 107 -61 174.5t-158 67.5t-158 -67.5t-61 -174.5
t61 -174.5t158 -67.5t158 67.5t61 174.5z" />
    <glyph glyph-name="seven" unicode="7" 
d="M1120 1454v-266q-189 -246 -294 -543t-152 -645h-309q106 700 419 1184h-417v-180h-295v450h1048z" />
    <glyph glyph-name="eight" unicode="8" 
d="M596 -31q-233 0 -368.5 117t-135.5 309q0 106 49 203.5t144 153.5q-78 52 -118 135.5t-40 177.5q0 185 126.5 302.5t342.5 117.5t344.5 -119.5t128.5 -304.5q0 -95 -41 -176.5t-121 -132.5q95 -57 144 -154t49 -203q0 -192 -135.5 -309t-368.5 -117zM596 606
q-94 0 -149.5 -53t-55.5 -135q0 -77 53.5 -133t151.5 -56t151.5 56t53.5 133q0 82 -55.5 135t-149.5 53zM596 874q90 0 142.5 49.5t52.5 129.5q0 69 -51 122.5t-144 53.5t-141.5 -51.5t-48.5 -120.5q0 -81 50.5 -132t139.5 -51z" />
    <glyph glyph-name="nine" unicode="9" 
d="M584 1485q158 0 279 -72.5t184 -193t63 -267.5q0 -216 -123 -447.5t-362 -504.5h-361q296 323 426 537q-70 -37 -170 -37q-141 0 -247 65.5t-159 174t-53 241.5q0 104 38.5 196.5t106.5 160.5t166.5 107.5t211.5 39.5zM365 981q0 -107 61 -174.5t158 -67.5t158 67.5
t61 174.5t-61 174.5t-158 67.5t-158 -67.5t-61 -174.5z" />
    <glyph glyph-name="colon" unicode=":" horiz-adv-x="532" 
d="M266 -16q-86 0 -141 54t-55 140q0 85 55 141t141 56q85 0 141 -56t56 -141q0 -86 -56 -140t-141 -54zM266 698q-86 0 -141 54.5t-55 140.5q0 85 55 141t141 56q85 0 141 -56t56 -141q0 -86 -56 -140.5t-141 -54.5z" />
    <glyph glyph-name="semicolon" unicode=";" horiz-adv-x="538" 
d="M266 698q-86 0 -141 54.5t-55 140.5q0 85 55 141t141 56q85 0 141 -56t56 -141q0 -86 -56 -140.5t-141 -54.5zM135 330h322l-178 -621h-261z" />
    <glyph glyph-name="less" unicode="&#x3c;" 
d="M1081 309v-286l-970 376v230l970 377v-287l-608 -205z" />
    <glyph glyph-name="equal" unicode="=" 
d="M1133 455v-275h-1074v275h1074zM1133 893v-275h-1074v275h1074z" />
    <glyph glyph-name="greater" unicode="&#x3e;" 
d="M111 23v286l608 205l-608 205v287l970 -377v-230z" />
    <glyph glyph-name="question" unicode="?" horiz-adv-x="1089" 
d="M68 1051q0 189 131 311.5t346 122.5q225 0 351 -120.5t126 -309.5q0 -68 -20 -128t-51.5 -104t-70 -82.5t-77 -70.5t-70 -62t-51.5 -64t-20 -69l4 -41h-287q-4 27 -4 45q0 89 36.5 163t88 123t103 92t88 91t36.5 99q0 80 -49.5 126t-130.5 46q-83 0 -135 -50.5
t-52 -130.5q0 -24 3 -51t7 -42l3 -15h-291q-14 53 -14 121zM532 -16q-82 0 -133 50t-51 132q0 80 51.5 132t132.5 52q80 0 132.5 -52.5t52.5 -131.5q0 -81 -52.5 -131.5t-132.5 -50.5z" />
    <glyph glyph-name="at" unicode="@" horiz-adv-x="1675" 
d="M985 569q0 66 -31 105t-96 39q-85 0 -134.5 -67.5t-49.5 -176.5q0 -73 37.5 -111.5t99.5 -38.5q83 0 128.5 73.5t45.5 176.5zM1262 92h239q-106 -157 -280 -247.5t-373 -90.5q-233 0 -408 97t-266.5 267.5t-91.5 391.5q0 164 60 309t163.5 247.5t247.5 162t307 59.5
q326 0 529.5 -179.5t203.5 -465.5q0 -100 -25.5 -184.5t-67.5 -142t-97.5 -98.5t-114.5 -60t-119 -19q-133 0 -190 92q-40 -49 -97.5 -70.5t-111.5 -21.5q-142 0 -226.5 88.5t-84.5 239.5q0 116 40.5 213.5t123.5 160t192 62.5q154 0 223 -98l17 69h188l-92 -456
q-4 -16 -4 -27q0 -32 17.5 -53t47.5 -21q79 0 135 88.5t56 227.5q0 155 -73.5 263.5t-195 159t-280.5 50.5q-252 0 -407.5 -165.5t-155.5 -426.5q0 -271 154.5 -424t416.5 -153q111 0 221 43.5t179 111.5z" />
    <glyph glyph-name="A" unicode="A" horiz-adv-x="1400" 
d="M309 0h-313l547 1454h315l547 -1454h-322l-88 250h-598zM698 1085h-4l-200 -567h405z" />
    <glyph glyph-name="B" unicode="B" horiz-adv-x="1361" 
d="M795 0h-641v1454h614q239 0 361 -111.5t122 -287.5q0 -113 -53.5 -196.5t-148.5 -125.5q103 -39 163 -123t60 -198q0 -192 -122.5 -302t-354.5 -110zM786 600h-342v-332h342q93 0 139 43.5t46 122.5q0 77 -46.5 121.5t-138.5 44.5zM766 1186h-322v-316h322
q87 0 135.5 40.5t48.5 117.5q0 70 -45.5 114t-138.5 44z" />
    <glyph glyph-name="C" unicode="C" horiz-adv-x="1593" 
d="M86 729q0 168 55.5 310t153 239.5t232 152t290.5 54.5q275 0 469.5 -154t235.5 -416h-320q-32 135 -134.5 210t-250.5 75q-197 0 -306.5 -126.5t-109.5 -344.5t109.5 -344.5t306.5 -126.5q148 0 250.5 75t134.5 210h320q-41 -262 -235.5 -416t-469.5 -154
q-156 0 -290.5 54.5t-232 152t-153 239.5t-55.5 310z" />
    <glyph glyph-name="D" unicode="D" horiz-adv-x="1527" 
d="M676 0h-522v1454h522q182 0 328 -54t241.5 -151t146 -230t50.5 -292t-50.5 -292t-146 -230t-241.5 -151t-328 -54zM1126 727q0 212 -114 332.5t-344 120.5h-215v-906h215q230 0 344 120.5t114 332.5z" />
    <glyph glyph-name="E" unicode="E" horiz-adv-x="1302" 
d="M1200 274v-274h-1046v1454h1046v-274h-747v-306h716v-274h-716v-326h747z" />
    <glyph glyph-name="F" unicode="F" horiz-adv-x="1177" 
d="M453 0h-299v1454h964v-274h-665v-306h634v-274h-634v-600z" />
    <glyph glyph-name="G" unicode="G" horiz-adv-x="1638" 
d="M926 537v268h624q2 -31 2 -76q0 -167 -56 -309t-153 -238.5t-230 -150.5t-284 -54q-216 0 -384.5 92.5t-263.5 264t-95 395.5q0 167 57.5 309.5t157 240t236 152t292.5 54.5q265 0 459.5 -150t245.5 -395h-322q-33 120 -137.5 190t-245.5 70q-199 0 -313.5 -127.5
t-114.5 -343.5t116 -345.5t312 -129.5q149 0 257.5 76t146.5 207h-307z" />
    <glyph glyph-name="H" unicode="H" horiz-adv-x="1513" 
d="M1360 1454v-1454h-299v600h-608v-600h-299v1454h299v-580h608v580h299z" />
    <glyph glyph-name="I" unicode="I" horiz-adv-x="606" 
d="M453 1454v-1454h-299v1454h299z" />
    <glyph glyph-name="J" unicode="J" horiz-adv-x="1187" 
d="M756 469v985h299v-977q0 -229 -137.5 -366.5t-368.5 -137.5q-228 0 -366 125t-138 346q0 27 1.5 52t3.5 36l1 11h299q-6 -38 -6 -99q0 -97 55 -151.5t150 -54.5q99 0 153 62.5t54 168.5z" />
    <glyph glyph-name="K" unicode="K" horiz-adv-x="1419" 
d="M1456 0h-369l-413 625l-221 -242v-383h-299v1454h299v-692q109 113 591 692h390l-553 -604z" />
    <glyph glyph-name="L" unicode="L" horiz-adv-x="1120" 
d="M1098 274v-274h-944v1454h299v-1180h645z" />
    <glyph glyph-name="M" unicode="M" horiz-adv-x="1708" 
d="M428 1454l426 -563l426 563h274v-1454h-286v991l-410 -526h-8l-410 526v-991h-286v1454h274z" />
    <glyph glyph-name="N" unicode="N" horiz-adv-x="1533" 
d="M444 961v-961h-290v1454h301l635 -960v960h290v-1454h-301z" />
    <glyph glyph-name="O" unicode="O" horiz-adv-x="1683" 
d="M1597 727q0 -216 -96.5 -389t-269 -271t-389.5 -98q-162 0 -303 57.5t-240.5 157.5t-156 241t-56.5 302t56.5 302t156 241t240.5 157.5t303 57.5q217 0 389.5 -98t269 -271t96.5 -389zM1282 727q0 214 -122.5 343.5t-317.5 129.5t-318 -130t-123 -343t123 -343t318 -130
t317.5 129.5t122.5 343.5z" />
    <glyph glyph-name="P" unicode="P" horiz-adv-x="1316" 
d="M453 825h323q99 0 148 47t49 129t-49 130.5t-148 48.5h-323v-355zM453 551v-551h-299v1454h622q128 0 224.5 -34.5t155 -97t87.5 -143t29 -178.5q0 -200 -126.5 -325t-369.5 -125h-323z" />
    <glyph glyph-name="Q" unicode="Q" horiz-adv-x="1683" 
d="M1597 727q0 -168 -60.5 -312t-170.5 -247l303 -422h-340l-196 274q-136 -51 -291 -51q-162 0 -303 57.5t-240.5 157.5t-156 241t-56.5 302t56.5 302t156 241t240.5 157.5t303 57.5q217 0 389.5 -98t269 -271t96.5 -389zM1282 727q0 214 -122.5 343.5t-317.5 129.5
t-318 -130t-123 -343t123 -343t318 -130t317.5 129.5t122.5 343.5z" />
    <glyph glyph-name="R" unicode="R" horiz-adv-x="1380" 
d="M1358 0h-346l-273 551h-286v-551h-299v1454h659q232 0 358.5 -125t126.5 -330q0 -147 -66 -255t-192 -160zM999 999q0 82 -47.5 131.5t-138.5 49.5h-360v-355h360q92 0 139 46t47 128z" />
    <glyph glyph-name="S" unicode="S" horiz-adv-x="1300" 
d="M649 238q120 0 188 44.5t68 123.5q0 46 -26.5 78.5t-71.5 51.5t-103.5 34t-123 30t-129 33.5t-123 50.5t-103.5 76t-71.5 114.5t-26.5 161.5q0 124 61.5 225t183.5 162.5t285 61.5q124 0 226.5 -39t169.5 -106t104.5 -154.5t40.5 -186.5h-293q-5 98 -71.5 159t-180.5 61
q-104 0 -167.5 -46t-63.5 -118q0 -46 27 -79t72.5 -52.5t104.5 -34.5t124 -30t130 -34t124 -51.5t104.5 -77t72.5 -116t27 -164.5q0 -196 -158.5 -320.5t-416.5 -124.5q-117 0 -212 28t-158 75t-106 111t-63 132.5t-22 143.5h295q6 -97 77.5 -160t204.5 -63z" />
    <glyph glyph-name="T" unicode="T" horiz-adv-x="1118" 
d="M1108 1454v-280h-399v-1174h-299v1174h-400v280h1098z" />
    <glyph glyph-name="U" unicode="U" horiz-adv-x="1531" 
d="M766 -31q-126 0 -236 39t-195.5 114.5t-135 197.5t-49.5 278v856h299v-864q0 -160 79 -252t238 -92t238 92t79 252v864h299v-856q0 -156 -49.5 -278t-135 -197.5t-195.5 -114.5t-236 -39z" />
    <glyph glyph-name="V" unicode="V" horiz-adv-x="1425" 
d="M1090 1454h327l-551 -1454h-307l-551 1454h336l371 -1057h4z" />
    <glyph glyph-name="W" unicode="W" horiz-adv-x="2150" 
d="M1073 1028l-295 -1028h-315l-447 1454h336l271 -1028h4l291 1028h323l291 -1028h4l270 1028h328l-446 -1454h-316l-295 1028h-4z" />
    <glyph glyph-name="X" unicode="X" horiz-adv-x="1421" 
d="M711 979l338 475h364l-528 -715l557 -739h-375l-354 502l-359 -502h-374l557 739l-535 715h371z" />
    <glyph glyph-name="Y" unicode="Y" horiz-adv-x="1306" 
d="M993 1454h346l-536 -946v-508h-299v508l-537 946h346l338 -641h4z" />
    <glyph glyph-name="Z" unicode="Z" horiz-adv-x="1368" 
d="M1270 1454v-262l-791 -918h799v-274h-1188v262l791 918h-783v274h1172z" />
    <glyph glyph-name="bracketleft" unicode="[" horiz-adv-x="690" 
d="M645 -72v-268h-502v1876h502v-268h-229v-1340h229z" />
    <glyph glyph-name="backslash" unicode="\" horiz-adv-x="974" 
d="M338 1454l592 -1454h-293l-592 1454h293z" />
    <glyph glyph-name="bracketright" unicode="]" horiz-adv-x="690" 
d="M45 -340v268h229v1340h-229v268h502v-1876h-502z" />
    <glyph glyph-name="asciicircum" unicode="^" 
d="M1087 522h-286l-205 555l-205 -555h-287l377 930h230z" />
    <glyph glyph-name="underscore" unicode="_" horiz-adv-x="1024" 
d="M1024 -174v-275h-1024v275h1024z" />
    <glyph glyph-name="grave" unicode="`" horiz-adv-x="735" 
d="M154 1556h301l125 -350h-263z" />
    <glyph glyph-name="a" unicode="a" horiz-adv-x="1300" 
d="M899 1073h268v-1073h-268v131q-52 -74 -139.5 -115t-200.5 -41q-151 0 -264.5 76t-171 202.5t-57.5 283.5t57.5 283t171 202t264.5 76q113 0 200.5 -41t139.5 -115v131zM885 537q0 133 -72 219t-192 86t-192.5 -86t-72.5 -219t72.5 -219.5t192.5 -86.5q119 0 191.5 86.5
t72.5 219.5z" />
    <glyph glyph-name="b" unicode="b" horiz-adv-x="1300" 
d="M424 958q45 61 127.5 100.5t189.5 39.5q151 0 265 -76t171.5 -202t57.5 -283q0 -117 -34 -219t-96 -178.5t-156 -120.5t-208 -44q-113 0 -200.5 41t-139.5 115v-131h-268v1536h291v-578zM416 537q0 -133 72.5 -219.5t191.5 -86.5t191.5 86.5t72.5 219.5t-72 219t-192 86
t-192 -86t-72 -219z" />
    <glyph glyph-name="c" unicode="c" horiz-adv-x="1165" 
d="M66 537q0 240 153 400.5t385 160.5q96 0 179 -26t140 -68.5t99.5 -98t65 -112t28.5 -113.5h-299q-17 70 -76.5 115t-138.5 45q-115 0 -180.5 -83t-65.5 -220t65.5 -220.5t180.5 -83.5q79 0 138.5 45t76.5 115h299q-6 -57 -28.5 -113.5t-65 -112t-99.5 -98t-140 -68.5
t-179 -26q-232 0 -385 161t-153 401z" />
    <glyph glyph-name="d" unicode="d" horiz-adv-x="1300" 
d="M877 958v578h290v-1536h-268v131q-52 -74 -139.5 -115t-200.5 -41q-151 0 -264.5 76t-171 202.5t-57.5 283.5t57.5 283t171 202t264.5 76q107 0 190 -40t128 -100zM885 537q0 133 -72 219t-192 86t-192.5 -86t-72.5 -219t72.5 -219.5t192.5 -86.5q119 0 191.5 86.5
t72.5 219.5z" />
    <glyph glyph-name="e" unicode="e" horiz-adv-x="1200" 
d="M1133 453h-779q15 -110 83 -169t177 -59q69 0 125.5 30t81.5 87h293q-48 -165 -186 -266t-322 -101q-238 0 -389 158t-151 406q0 157 67.5 284.5t191 201t279.5 73.5q155 0 277.5 -73.5t189 -200.5t66.5 -285zM602 864q-98 0 -161.5 -54t-82.5 -148h488q-15 92 -79.5 147
t-164.5 55z" />
    <glyph glyph-name="f" unicode="f" horiz-adv-x="667" 
d="M465 1073h166v-229h-166v-844h-291v844h-154v229h154v86q0 187 98 282t267 95l86 -4v-250q-12 2 -45 2q-56 0 -85.5 -27.5t-29.5 -91.5v-92z" />
    <glyph glyph-name="g" unicode="g" horiz-adv-x="1282" 
d="M891 942v131h268v-1032q0 -216 -138.5 -353t-379.5 -137q-96 0 -177 24.5t-136 64.5t-95.5 92t-60.5 105t-25 106h291q11 -57 60 -99.5t147 -42.5q108 0 165.5 56t57.5 153v150q-45 -61 -125.5 -100.5t-187.5 -39.5q-146 0 -258.5 72.5t-171.5 194.5t-59 272t59 272
t171.5 194.5t258.5 72.5q112 0 198 -40.5t138 -115.5zM877 559q0 126 -72 204.5t-189 78.5t-188.5 -78.5t-71.5 -204.5t71.5 -204.5t188.5 -78.5t189 78.5t72 204.5z" />
    <glyph glyph-name="h" unicode="h" horiz-adv-x="1239" 
d="M424 1536v-561q43 57 119 90t178 33q190 0 292.5 -116t102.5 -312v-670h-291v637q0 99 -44.5 155t-137.5 56q-105 0 -162 -62.5t-57 -173.5v-612h-291v1536h291z" />
    <glyph glyph-name="i" unicode="i" horiz-adv-x="557" 
d="M279 1212q-77 0 -127 49t-50 125t50 126.5t127 50.5q76 0 126 -50t50 -127q0 -76 -49.5 -125t-126.5 -49zM133 0v1073h291v-1073h-291z" />
    <glyph glyph-name="j" unicode="j" horiz-adv-x="557" 
d="M279 1212q-77 0 -127 49t-50 125t50 126.5t127 50.5q76 0 126 -50t50 -127q0 -76 -49.5 -125t-126.5 -49zM133 -426v1499h291v-1499h-291z" />
    <glyph glyph-name="k" unicode="k" horiz-adv-x="1167" 
d="M815 1073h365l-402 -457l430 -616h-344l-278 424l-162 -184v-240h-291v1536h291v-950z" />
    <glyph glyph-name="l" unicode="l" horiz-adv-x="557" 
d="M424 0h-291v1536h291v-1536z" />
    <glyph glyph-name="m" unicode="m" horiz-adv-x="1890" 
d="M1096 610v-610h-291v637q0 211 -172 211q-100 0 -154.5 -61.5t-54.5 -170.5v-616h-291v1073h268v-131q38 72 118 114t192 42q212 0 311 -152q71 79 156 115.5t200 36.5q188 0 288.5 -117t100.5 -311v-670h-290v637q0 211 -172 211q-102 0 -155.5 -62t-53.5 -176z" />
    <glyph glyph-name="n" unicode="n" horiz-adv-x="1239" 
d="M401 1073v-131q38 72 121 114t199 42q190 0 292.5 -116t102.5 -312v-670h-291v637q0 99 -44.5 155t-137.5 56q-104 0 -161.5 -62.5t-57.5 -171.5v-614h-291v1073h268z" />
    <glyph glyph-name="o" unicode="o" horiz-adv-x="1257" 
d="M629 -25q-167 0 -297 77t-198 204.5t-68 280.5t68 280t198 204t297 77t297 -77t198 -204t68 -280t-68 -280.5t-198 -204.5t-297 -77zM356 537q0 -141 77 -223.5t196 -82.5t195.5 82.5t76.5 223.5t-76.5 223t-195.5 82t-196 -82t-77 -223z" />
    <glyph glyph-name="p" unicode="p" horiz-adv-x="1300" 
d="M424 115v-541h-291v1499h268v-131q52 74 139.5 115t200.5 41q151 0 265 -76t171.5 -202t57.5 -283q0 -117 -34 -219t-96 -178.5t-156 -120.5t-208 -44q-107 0 -189.5 39.5t-127.5 100.5zM416 537q0 -133 72.5 -219.5t191.5 -86.5t191.5 86.5t72.5 219.5t-72 219t-192 86
t-192 -86t-72 -219z" />
    <glyph glyph-name="q" unicode="q" horiz-adv-x="1300" 
d="M877 115q-45 -60 -128 -100t-190 -40q-151 0 -264.5 76t-171 202.5t-57.5 283.5t57.5 283t171 202t264.5 76q113 0 200.5 -41t139.5 -115v131h268v-1499h-290v541zM885 537q0 133 -72 219t-192 86t-192.5 -86t-72.5 -219t72.5 -219.5t192.5 -86.5q119 0 191.5 86.5
t72.5 219.5z" />
    <glyph glyph-name="r" unicode="r" horiz-adv-x="763" 
d="M739 1081v-272q-30 6 -57 6q-130 0 -194 -67.5t-64 -212.5v-535h-291v1073h268v-139q92 149 304 149z" />
    <glyph glyph-name="s" unicode="s" horiz-adv-x="1026" 
d="M514 -25q-122 0 -212 29.5t-142 82.5t-78.5 117t-32.5 144h295q3 -59 48 -99t130 -40q81 0 124.5 26.5t43.5 71.5q0 36 -33 58t-85.5 33t-116 21.5t-127 30.5t-116 51.5t-85.5 93t-33 148.5q0 150 118.5 252.5t311.5 102.5q93 0 168.5 -23t124 -59t82 -85t48.5 -97.5
t18 -98.5h-281q-5 55 -46.5 92t-115.5 37q-69 0 -108 -29t-39 -75q0 -29 20.5 -48t54.5 -29.5t79 -18.5t94 -17t98 -22t94 -36.5t79 -57t54.5 -88t20.5 -124.5q0 -150 -121.5 -247t-333.5 -97z" />
    <glyph glyph-name="t" unicode="t" horiz-adv-x="638" 
d="M461 844v-844h-291v844h-145v229h145v266h291v-266h157v-229h-157z" />
    <glyph glyph-name="u" unicode="u" horiz-adv-x="1220" 
d="M610 -25q-242 0 -364.5 115t-122.5 369v614h291v-618q0 -219 196 -219q197 0 197 219v618h291v-614q0 -254 -123 -369t-365 -115z" />
    <glyph glyph-name="v" unicode="v" horiz-adv-x="1130" 
d="M567 350l262 723h301l-430 -1073h-270l-430 1073h307z" />
    <glyph glyph-name="w" unicode="w" horiz-adv-x="1759" 
d="M1100 0l-217 664h-4l-220 -664h-272l-375 1073h301l215 -706l222 706h262l223 -711l217 711h295l-375 -1073h-272z" />
    <glyph glyph-name="x" unicode="x" horiz-adv-x="1105" 
d="M1116 1073l-399 -528l411 -545h-350l-225 326l-225 -326h-351l412 545l-399 528h350l213 -307l213 307h350z" />
    <glyph glyph-name="y" unicode="y" horiz-adv-x="1130" 
d="M244 -426l180 444l-424 1055h309l258 -717l260 717h303l-600 -1499h-286z" />
    <glyph glyph-name="z" unicode="z" horiz-adv-x="1116" 
d="M1006 834l-539 -582h547v-252h-912v240l537 581h-528v252h895v-239z" />
    <glyph glyph-name="braceleft" unicode="{" horiz-adv-x="729" 
d="M596 -340q-197 0 -287 96t-90 289v315q0 113 -104 113h-33v250h33q104 0 104 113v315q0 193 90 289t287 96l88 -4v-268q-35 4 -70 4q-69 0 -95.5 -30.5t-26.5 -100.5v-306q0 -160 -103 -233q103 -76 103 -233v-306q0 -70 26.5 -100.5t95.5 -30.5l70 4v-268q-37 -4 -88 -4
z" />
    <glyph glyph-name="bar" unicode="|" horiz-adv-x="606" 
d="M449 0h-291v1536h291v-1536z" />
    <glyph glyph-name="braceright" unicode="}" horiz-adv-x="729" 
d="M133 -340l-88 4v268q35 -4 70 -4q69 0 96 30.5t27 100.5v306q0 155 100 233q-100 75 -100 233v306q0 70 -27 100.5t-96 30.5l-70 -4v268q37 4 88 4q197 0 287 -96t90 -289v-315q0 -113 104 -113h33v-250h-33q-104 0 -104 -113v-315q0 -193 -90 -289t-287 -96z" />
    <glyph glyph-name="asciitilde" unicode="~" 
d="M797 346q-77 0 -149 23.5t-135.5 47t-119.5 23.5q-36 0 -64 -10t-43.5 -24.5t-25.5 -29t-13 -24.5l-3 -10l-207 125q3 10 10.5 26t36.5 57.5t65.5 73t102.5 57.5t143 26q67 0 127 -15t97 -32.5t85.5 -32.5t94.5 -15q36 0 64 10t43.5 25t25.5 29.5t13 24.5l3 10l207 -125
q-3 -10 -10.5 -26t-36.5 -57.5t-65.5 -73t-102.5 -57.5t-143 -26z" />
    <glyph glyph-name="exclamdown" unicode="&#xa1;" horiz-adv-x="577" 
d="M168 635h242l51 -1008h-344zM289 1098q80 0 132 -51t52 -132q0 -79 -52.5 -131.5t-131.5 -52.5q-81 0 -133 52t-52 132q0 82 51.5 132.5t133.5 50.5z" />
    <glyph glyph-name="cent" unicode="&#xa2;" 
d="M522 -25v213q-197 28 -320.5 177.5t-123.5 361.5q0 211 124 361t320 178v213h148v-211q98 -12 178.5 -54.5t130.5 -103t79.5 -125t37.5 -129.5h-299q-12 47 -46.5 83.5t-80.5 51.5v-530q47 15 81 51t46 86h299q-6 -52 -25 -104.5t-55 -104.5t-83.5 -93.5t-115.5 -71
t-147 -38.5v-211h-148zM369 727q0 -103 40 -172t113 -94v530q-73 -25 -113 -94.5t-40 -169.5z" />
    <glyph glyph-name="sterling" unicode="&#xa3;" 
d="M1028 326l162 -185q-30 -36 -59.5 -62.5t-75 -53.5t-107.5 -41.5t-137 -14.5q-77 0 -157.5 23t-156 46t-141.5 23q-33 0 -65.5 -10.5t-54.5 -25.5t-39.5 -30t-26.5 -25l-8 -11l-166 176q3 5 8.5 12.5t25.5 30t43.5 42.5t63.5 43t84 38q92 52 92 158q0 43 -18 90h-195v194
h107q-64 146 -64 293q0 198 135 323.5t361 125.5q220 0 355.5 -126.5t135.5 -336.5q0 -22 -1.5 -43t-2.5 -31l-2 -10h-295q7 27 7 80q0 89 -50.5 145t-146.5 56q-88 0 -144.5 -53t-56.5 -142q0 -33 4 -62.5t14.5 -63t16 -49t23.5 -57t22 -49.5h318v-194h-265q0 -7 1 -22.5
t1 -22.5q0 -117 -53 -191q40 -9 103.5 -30.5t117 -34t109.5 -12.5q108 0 178 90z" />
    <glyph glyph-name="currency" unicode="&#xa4;" horiz-adv-x="1228" 
d="M221 516q0 96 41 176l-153 156l194 194l160 -161q71 30 153 30q77 0 150 -28l160 159l194 -194l-151 -152q43 -88 43 -180q0 -81 -31 -154l139 -137l-194 -194l-133 131q-80 -41 -177 -41q-101 0 -180 43l-133 -133l-194 194l141 142q-29 76 -29 149zM436 516
q0 -74 53 -127t127 -53q73 0 126 53t53 127q0 73 -52.5 125.5t-126.5 52.5t-127 -52.5t-53 -125.5z" />
    <glyph glyph-name="yen" unicode="&#xa5;" 
d="M25 1454h315l254 -508h4l254 508h315l-362 -678h203v-205h-263v-122h263v-205h-263v-244h-299v244h-266v205h266v122h-266v205h205z" />
    <glyph glyph-name="brokenbar" unicode="&#xa6;" horiz-adv-x="589" 
d="M158 1534h274v-666h-274v666zM158 666h274v-666h-274v666z" />
    <glyph glyph-name="section" unicode="&#xa7;" horiz-adv-x="1150" 
d="M57 588q0 53 14.5 100t35 78t48 56.5t47.5 38.5t40 22q-78 93 -78 243q0 71 28.5 135t82.5 114t139.5 80t191.5 30q97 0 174.5 -24.5t123.5 -61.5t77.5 -87.5t44.5 -96t16 -93.5h-280q-5 50 -46.5 87.5t-125.5 37.5q-67 0 -105.5 -33.5t-38.5 -80.5q0 -85 91 -125
l235 -105q165 -72 245.5 -164t80.5 -229q0 -54 -14.5 -101.5t-35 -78t-48 -56.5t-47.5 -39t-40 -22q78 -93 78 -242q0 -71 -29 -135t-83 -114t-139.5 -79.5t-190.5 -29.5q-97 0 -174.5 24.5t-123.5 61.5t-77.5 87.5t-44.5 95.5t-16 93h280q5 -50 46.5 -87.5t125.5 -37.5
q67 0 105.5 34t38.5 81q0 85 -91 125l-235 105q-165 72 -245.5 164t-80.5 229zM676 643l-246 107q-104 -38 -104 -136q0 -54 34 -87t121 -72l242 -109q106 39 106 137q0 55 -34 89t-119 71z" />
    <glyph glyph-name="dieresis" unicode="&#xa8;" horiz-adv-x="901" 
d="M264 1235q-67 0 -110 42.5t-43 108.5q0 68 43 111t110 43q66 0 110 -43.5t44 -110.5q0 -66 -44 -108.5t-110 -42.5zM637 1235q-67 0 -110.5 42.5t-43.5 108.5q0 68 43.5 111t110.5 43q66 0 110 -43.5t44 -110.5q0 -66 -44 -108.5t-110 -42.5z" />
    <glyph glyph-name="copyright" unicode="&#xa9;" horiz-adv-x="1585" 
d="M47 729q0 212 97.5 385t271 272t387.5 99t387.5 -99t271 -272t97.5 -385t-97.5 -385t-271 -272t-387.5 -99t-387.5 99t-271 272t-97.5 385zM268 729q0 -244 148 -399.5t387 -155.5t386.5 155.5t147.5 399.5t-147.5 399.5t-386.5 155.5t-387 -155.5t-148 -399.5zM422 729
q0 171 109 286t274 115q86 0 155.5 -28t112 -73t66.5 -95.5t30 -102.5h-217q-11 50 -51.5 80.5t-95.5 30.5q-83 0 -127.5 -57t-44.5 -156t44.5 -156t127.5 -57q56 0 96.5 30t50.5 81h217q-6 -52 -30 -102.5t-66.5 -95.5t-112 -73t-155.5 -28q-165 0 -274 115t-109 286z" />
    <glyph glyph-name="ordfeminine" unicode="&#xaa;" horiz-adv-x="843" 
d="M334 657q-132 0 -199 64.5t-67 169.5q0 112 82.5 172.5t242.5 81.5l142 18v11q0 40 -29.5 64t-81.5 24q-53 0 -82.5 -27.5t-36.5 -65.5h-225q3 50 23.5 97t59.5 90t108 69.5t157 26.5q165 0 246.5 -78t81.5 -215v-338q0 -33 5 -69t10 -56l5 -20h-209q-12 35 -18 65
q-74 -84 -215 -84zM287 897q0 -68 96 -68q68 0 110 44t42 114v19l-91 -15q-88 -14 -122.5 -37t-34.5 -57z" />
    <glyph glyph-name="guillemotleft" unicode="&#xab;" horiz-adv-x="1204" 
d="M90 537l221 442h287l-225 -442l225 -443h-287zM606 537l221 442h287l-225 -442l225 -443h-287z" />
    <glyph glyph-name="logicalnot" unicode="&#xac;" 
d="M59 674h1074v-602h-275v327h-799v275z" />
    <glyph glyph-name="registered" unicode="&#xae;" horiz-adv-x="1155" 
d="M588 403q-154 0 -278 71t-193.5 194.5t-69.5 275.5t69.5 275.5t193.5 194.5t278 71t278 -71t193 -194.5t69 -275.5t-69 -275.5t-193 -194.5t-278 -71zM588 565q162 0 263 107t101 272q0 164 -101.5 271.5t-262.5 107.5q-163 0 -265 -107.5t-102 -271.5q0 -166 102 -272.5
t265 -106.5zM825 678h-170l-67 145h-53v-145h-152v530h205q113 0 172 -51t59 -141q0 -111 -88 -162zM602 1067h-67v-102h67q62 0 62 51t-62 51z" />
    <glyph glyph-name="macron" unicode="&#xaf;" horiz-adv-x="854" 
d="M809 1475v-222h-764v222h764z" />
    <glyph glyph-name="degree" unicode="&#xb0;" horiz-adv-x="786" 
d="M45 1137q0 146 100 247t248 101t248 -101t100 -247t-100 -247.5t-248 -101.5t-248 101.5t-100 247.5zM250 1137q0 -63 39.5 -105.5t103.5 -42.5q65 0 104.5 42.5t39.5 105.5t-39.5 105t-104.5 42t-104 -42t-39 -105z" />
    <glyph glyph-name="plusminus" unicode="&#xb1;" 
d="M459 1073h274v-225h400v-275h-400v-225h-274v225h-400v275h400v225zM1133 274v-274h-1074v274h1074z" />
    <glyph glyph-name="twosuperior" unicode="&#xb2;" horiz-adv-x="802" 
d="M717 893h-631v172l342 291q40 34 55 65t15 72q0 42 -25 70t-74 28q-46 0 -73 -26.5t-27 -75.5l4 -49h-221q-2 22 -2 51q0 135 92 222t227 87q142 0 233 -85t91 -208q0 -98 -35.5 -164.5t-122.5 -132.5l-141 -108h293v-209z" />
    <glyph glyph-name="threesuperior" unicode="&#xb3;" horiz-adv-x="796" 
d="M295 1239v184h90q51 0 79 25t28 68q0 32 -26 55.5t-67 23.5q-50 0 -76 -28.5t-26 -75.5h-217q0 130 86 219.5t233 89.5q148 0 228 -71t80 -191q0 -62 -27.5 -115t-83.5 -82q61 -27 91 -79t30 -119q0 -116 -94.5 -193.5t-231.5 -77.5q-140 0 -222 78.5t-87 210.5h215
q6 -84 94 -84q39 0 62.5 22t23.5 54q0 43 -23 64.5t-79 21.5h-80z" />
    <glyph glyph-name="acute" unicode="&#xb4;" horiz-adv-x="735" 
d="M279 1556h301l-164 -350h-262z" />
    <glyph glyph-name="mu" unicode="&#xb5;" horiz-adv-x="1220" 
d="M610 -25q-62 0 -123 12.5t-94 32.5v-405h-270v1458h291v-618q0 -219 196 -219q197 0 197 219v618h291v-614q0 -254 -123 -369t-365 -115z" />
    <glyph glyph-name="paragraph" unicode="&#xb6;" horiz-adv-x="1413" 
d="M549 -406v934q-121 0 -214.5 35.5t-151 99.5t-86.5 146.5t-29 181.5q0 200 129.5 331.5t351.5 131.5h706v-1860h-278v1580h-150v-1580h-278z" />
    <glyph glyph-name="periodcentered" unicode="&#xb7;" horiz-adv-x="532" 
d="M266 342q-86 0 -141 54.5t-55 140.5q0 85 55 140.5t141 55.5q85 0 141 -55.5t56 -140.5q0 -86 -56 -140.5t-141 -54.5z" />
    <glyph glyph-name="cedilla" unicode="&#xb8;" horiz-adv-x="514" 
d="M39 -442l76 125q5 -5 14.5 -12t39.5 -19t62 -12q37 0 60.5 17t23.5 52q0 31 -20.5 49.5t-61.5 18.5q-16 0 -31.5 -5.5t-22.5 -10.5l-7 -5l-90 51l59 222h135l-32 -123q8 4 45 4q83 0 136.5 -54.5t53.5 -140.5q0 -105 -65.5 -164t-165.5 -59q-65 0 -117.5 16.5t-72.5 33.5
z" />
    <glyph glyph-name="onesuperior" unicode="&#xb9;" horiz-adv-x="598" 
d="M451 1780v-887h-224v666h-170v159l205 62h189z" />
    <glyph glyph-name="ordmasculine" unicode="&#xba;" horiz-adv-x="880" 
d="M440 657q-173 0 -284 116.5t-111 281.5t111 281t284 116q114 0 205.5 -54.5t141 -145t49.5 -197.5q0 -165 -112.5 -281.5t-283.5 -116.5zM440 1245q-73 0 -120.5 -53t-47.5 -137q0 -83 48 -137t120 -54q70 0 118 54.5t48 136.5q0 83 -48 136.5t-118 53.5z" />
    <glyph glyph-name="guillemotright" unicode="&#xbb;" horiz-adv-x="1204" 
d="M893 979l221 -442l-221 -443h-287l225 443l-225 442h287zM377 979l221 -442l-221 -443h-287l225 443l-225 442h287z" />
    <glyph glyph-name="onequarter" unicode="&#xbc;" horiz-adv-x="1669" 
d="M238 557v666h-170v159l204 62h189v-887h-223zM297 0l803 1454h211l-803 -1454h-211zM872 174v182l388 533h221v-529h80v-186h-80v-174h-201v174h-408zM1085 360h195v269z" />
    <glyph glyph-name="onehalf" unicode="&#xbd;" horiz-adv-x="1761" 
d="M238 557v666h-170v159l204 62h189v-887h-223zM297 0l803 1454h211l-803 -1454h-211zM1016 0v172l342 291q40 33 54.5 64.5t14.5 72.5q0 42 -24.5 70t-73.5 28q-46 0 -73 -26.5t-27 -75.5l4 -49h-221q-2 22 -2 51q0 135 92 222t227 87q142 0 233 -85t91 -208
q0 -98 -35 -163.5t-123 -133.5l-141 -108h293v-209h-631z" />
    <glyph glyph-name="threequarters" unicode="&#xbe;" horiz-adv-x="1814" 
d="M111 825h215q6 -84 94 -84q39 0 62.5 22t23.5 54q0 43 -23.5 64.5t-79.5 21.5h-79v184h90q51 0 78.5 24t27.5 67q0 32 -25.5 55.5t-66.5 23.5q-50 0 -76 -28.5t-26 -75.5h-217q0 130 86 219.5t233 89.5q148 0 227.5 -71t79.5 -191q0 -136 -110 -194q120 -53 120 -199
q0 -116 -93.5 -193t-231.5 -77q-140 0 -222 78t-87 210zM442 0l803 1454h211l-803 -1454h-211zM1018 174v182l387 533h221v-529h80v-186h-80v-174h-201v174h-407zM1231 360h194v269z" />
    <glyph glyph-name="questiondown" unicode="&#xbf;" horiz-adv-x="1089" 
d="M1022 33q0 -189 -131 -311.5t-346 -122.5q-225 0 -351 120.5t-126 309.5q0 68 20 128t51.5 103.5t70 82t77 70.5t70 62t51.5 64t20 69l-4 41h287q4 -27 4 -45q0 -65 -19.5 -122.5t-50.5 -98.5t-69 -77.5t-75.5 -68t-68.5 -61.5t-50.5 -65.5t-19.5 -73.5q0 -80 50 -126
t131 -46q83 0 134.5 50t51.5 130q0 24 -3 51t-6 42l-3 16h291q14 -53 14 -121zM557 1100q82 0 133 -50t51 -132q0 -80 -51.5 -132.5t-132.5 -52.5q-79 0 -131.5 52.5t-52.5 132.5q0 81 52 131.5t132 50.5z" />
    <glyph glyph-name="Agrave" unicode="&#xc0;" horiz-adv-x="1409" 
d="M313 0h-313l547 1454h315l547 -1454h-322l-88 250h-598zM702 1085h-4l-200 -567h405zM412 1927h301l125 -350h-263z" />
    <glyph glyph-name="Aacute" unicode="&#xc1;" horiz-adv-x="1409" 
d="M313 0h-313l547 1454h315l547 -1454h-322l-88 250h-598zM702 1085h-4l-200 -567h405zM705 1927h301l-164 -350h-262z" />
    <glyph glyph-name="Acircumflex" unicode="&#xc2;" horiz-adv-x="1409" 
d="M313 0h-313l547 1454h315l547 -1454h-322l-88 250h-598zM702 1085h-4l-200 -567h405zM381 1765l330 170l329 -170v-229l-329 162l-330 -162v229z" />
    <glyph glyph-name="Atilde" unicode="&#xc3;" horiz-adv-x="1409" 
d="M313 0h-313l547 1454h315l547 -1454h-322l-88 250h-598zM702 1085h-4l-200 -567h405zM834 1569q-68 0 -158 38t-133 38q-32 0 -50.5 -18.5t-21.5 -49.5h-172q5 120 72.5 195t187.5 75q68 0 158 -37.5t133 -37.5q63 0 70 67h172q-5 -120 -72 -195t-186 -75z" />
    <glyph glyph-name="Adieresis" unicode="&#xc4;" horiz-adv-x="1409" 
d="M313 0h-313l547 1454h315l547 -1454h-322l-88 250h-598zM702 1085h-4l-200 -567h405zM518 1556q-67 0 -110 43t-43 109q0 68 43 111t110 43q66 0 110 -43.5t44 -110.5q0 -66 -44 -109t-110 -43zM891 1556q-67 0 -110.5 43t-43.5 109q0 68 43.5 111t110.5 43
q66 0 109.5 -43.5t43.5 -110.5q0 -66 -43.5 -109t-109.5 -43z" />
    <glyph glyph-name="Aring" unicode="&#xc5;" horiz-adv-x="1409" 
d="M313 0h-313l547 1454h315l547 -1454h-322l-88 250h-598zM702 1085h-4l-200 -567h405zM610 1761q0 -44 27 -73t72 -29t71.5 29t26.5 73t-26.5 73.5t-71.5 29.5t-72 -29.5t-27 -73.5zM453 1761q0 107 72 180.5t184 73.5t184 -73.5t72 -180.5t-72 -180.5t-184 -73.5
t-184 73.5t-72 180.5z" />
    <glyph glyph-name="AE" unicode="&#xc6;" horiz-adv-x="2023" 
d="M289 0h-334l762 1454h1204v-274h-747v-306h716v-274h-716v-326h747v-274h-1047v250h-460zM870 1153l-321 -635h325v635h-4z" />
    <glyph glyph-name="Ccedilla" unicode="&#xc7;" horiz-adv-x="1593" 
d="M645 -442l76 125q5 -5 14.5 -12t40 -19t62.5 -12q37 0 60.5 17t23.5 52q0 31 -20.5 49.5t-61.5 18.5q-16 0 -31.5 -5.5t-22.5 -10.5l-8 -5l-90 51l45 170q-140 14 -259 74t-205 156.5t-134.5 231t-48.5 290.5q0 168 55.5 310t153 239.5t232 152t290.5 54.5
q275 0 469.5 -154t235.5 -416h-320q-32 135 -134.5 210t-250.5 75q-197 0 -306.5 -126.5t-109.5 -344.5t109.5 -344.5t306.5 -126.5q148 0 250.5 75t134.5 210h320q-26 -166 -117.5 -292t-229.5 -196t-307 -80l-18 -69q8 4 45 4q83 0 136.5 -54.5t53.5 -140.5
q0 -105 -65.5 -164t-165.5 -59q-65 0 -117.5 16.5t-72.5 33.5z" />
    <glyph glyph-name="Egrave" unicode="&#xc8;" horiz-adv-x="1302" 
d="M1200 274v-274h-1046v1454h1046v-274h-747v-306h716v-274h-716v-326h747zM399 1927h301l125 -350h-262z" />
    <glyph glyph-name="Eacute" unicode="&#xc9;" horiz-adv-x="1302" 
d="M1200 274v-274h-1046v1454h1046v-274h-747v-306h716v-274h-716v-326h747zM664 1927h301l-164 -350h-262z" />
    <glyph glyph-name="Ecircumflex" unicode="&#xca;" horiz-adv-x="1302" 
d="M1200 274v-274h-1046v1454h1046v-274h-747v-306h716v-274h-716v-326h747zM354 1765l330 170l330 -170v-229l-330 162l-330 -162v229z" />
    <glyph glyph-name="Edieresis" unicode="&#xcb;" horiz-adv-x="1302" 
d="M1200 274v-274h-1046v1454h1046v-274h-747v-306h716v-274h-716v-326h747zM494 1556q-67 0 -110.5 43t-43.5 109q0 68 43 111t111 43q66 0 109.5 -43.5t43.5 -110.5q0 -66 -43.5 -109t-109.5 -43zM866 1556q-67 0 -110 43t-43 109q0 68 43 111t110 43q66 0 110 -43.5
t44 -110.5q0 -66 -44 -109t-110 -43z" />
    <glyph glyph-name="Igrave" unicode="&#xcc;" horiz-adv-x="606" 
d="M453 1454v-1454h-299v1454h299zM10 1927h301l125 -350h-262z" />
    <glyph glyph-name="Iacute" unicode="&#xcd;" horiz-adv-x="606" 
d="M453 1454v-1454h-299v1454h299zM297 1927h301l-164 -350h-262z" />
    <glyph glyph-name="Icircumflex" unicode="&#xce;" horiz-adv-x="606" 
d="M453 1454v-1454h-299v1454h299zM-27 1765l330 170l330 -170v-229l-330 162l-330 -162v229z" />
    <glyph glyph-name="Idieresis" unicode="&#xcf;" horiz-adv-x="606" 
d="M453 1454v-1454h-299v1454h299zM115 1556q-67 0 -110.5 43t-43.5 109q0 68 43.5 111t110.5 43q66 0 109.5 -43.5t43.5 -110.5q0 -66 -43.5 -109t-109.5 -43zM487 1556q-67 0 -110 43t-43 109q0 68 43 111t110 43q66 0 110 -43.5t44 -110.5q0 -66 -44 -109t-110 -43z" />
    <glyph glyph-name="Eth" unicode="&#xd0;" horiz-adv-x="1527" 
d="M676 0h-522v590h-144v274h144v590h522q182 0 328 -54t241.5 -151t146 -230t50.5 -292t-50.5 -292t-146 -230t-241.5 -151t-328 -54zM1126 727q0 211 -113.5 329t-344.5 118h-215v-310h354v-274h-354v-309h215q231 0 344.5 117.5t113.5 328.5z" />
    <glyph glyph-name="Ntilde" unicode="&#xd1;" horiz-adv-x="1533" 
d="M444 961v-961h-290v1454h301l635 -960v960h290v-1454h-301zM913 1569q-68 0 -157.5 38t-132.5 38q-32 0 -50.5 -18.5t-21.5 -49.5h-172q5 120 72.5 195t187.5 75q68 0 158 -37.5t133 -37.5q62 0 69 67h172q-5 -120 -72 -195t-186 -75z" />
    <glyph glyph-name="Ograve" unicode="&#xd2;" horiz-adv-x="1683" 
d="M1597 727q0 -216 -96.5 -389t-269 -271t-389.5 -98q-162 0 -303 57.5t-240.5 157.5t-156 241t-56.5 302t56.5 302t156 241t240.5 157.5t303 57.5q217 0 389.5 -98t269 -271t96.5 -389zM1282 727q0 214 -122.5 343.5t-317.5 129.5t-318 -130t-123 -343t123 -343t318 -130
t317.5 129.5t122.5 343.5zM575 1927h302l124 -350h-262z" />
    <glyph glyph-name="Oacute" unicode="&#xd3;" horiz-adv-x="1683" 
d="M1597 727q0 -216 -96.5 -389t-269 -271t-389.5 -98q-162 0 -303 57.5t-240.5 157.5t-156 241t-56.5 302t56.5 302t156 241t240.5 157.5t303 57.5q217 0 389.5 -98t269 -271t96.5 -389zM1282 727q0 214 -122.5 343.5t-317.5 129.5t-318 -130t-123 -343t123 -343t318 -130
t317.5 129.5t122.5 343.5zM823 1927h301l-163 -350h-263z" />
    <glyph glyph-name="Ocircumflex" unicode="&#xd4;" horiz-adv-x="1683" 
d="M1597 727q0 -216 -96.5 -389t-269 -271t-389.5 -98q-162 0 -303 57.5t-240.5 157.5t-156 241t-56.5 302t56.5 302t156 241t240.5 157.5t303 57.5q217 0 389.5 -98t269 -271t96.5 -389zM1282 727q0 214 -122.5 343.5t-317.5 129.5t-318 -130t-123 -343t123 -343t318 -130
t317.5 129.5t122.5 343.5zM516 1767l330 170l330 -170v-229l-330 162l-330 -162v229z" />
    <glyph glyph-name="Otilde" unicode="&#xd5;" horiz-adv-x="1683" 
d="M1597 727q0 -216 -96.5 -389t-269 -271t-389.5 -98q-162 0 -303 57.5t-240.5 157.5t-156 241t-56.5 302t56.5 302t156 241t240.5 157.5t303 57.5q217 0 389.5 -98t269 -271t96.5 -389zM1282 727q0 214 -122.5 343.5t-317.5 129.5t-318 -130t-123 -343t123 -343t318 -130
t317.5 129.5t122.5 343.5zM979 1569q-68 0 -158 38t-133 38q-32 0 -50.5 -18.5t-21.5 -49.5h-172q5 120 73 195t188 75q68 0 157.5 -37.5t132.5 -37.5q63 0 70 67h172q-5 -120 -72 -195t-186 -75z" />
    <glyph glyph-name="Odieresis" unicode="&#xd6;" horiz-adv-x="1683" 
d="M1597 727q0 -216 -96.5 -389t-269 -271t-389.5 -98q-162 0 -303 57.5t-240.5 157.5t-156 241t-56.5 302t56.5 302t156 241t240.5 157.5t303 57.5q217 0 389.5 -98t269 -271t96.5 -389zM1282 727q0 214 -122.5 343.5t-317.5 129.5t-318 -130t-123 -343t123 -343t318 -130
t317.5 129.5t122.5 343.5zM657 1556q-67 0 -110 43t-43 109q0 68 43 111t110 43q66 0 110 -43.5t44 -110.5q0 -66 -44 -109t-110 -43zM1030 1556q-67 0 -110 43t-43 109q0 68 43 111t110 43q66 0 110 -43.5t44 -110.5q0 -66 -44 -109t-110 -43z" />
    <glyph glyph-name="multiply" unicode="&#xd7;" 
d="M90 848l195 194l311 -311l311 311l195 -194l-311 -311l311 -312l-195 -194l-311 311l-311 -311l-195 194l311 312z" />
    <glyph glyph-name="Oslash" unicode="&#xd8;" horiz-adv-x="1683" 
d="M1597 727q0 -216 -96.5 -389t-269 -271t-389.5 -98q-254 0 -443 131l-159 -178l-125 115l155 176q-184 209 -184 514q0 161 56.5 302t156 241t240.5 157.5t303 57.5q247 0 440 -131l160 178l127 -117l-158 -176q89 -100 137.5 -231t48.5 -281zM1282 727q0 158 -76 281
l-610 -686q103 -68 246 -68q195 0 317.5 129.5t122.5 343.5zM401 727q0 -165 76 -283l608 686q-106 70 -243 70q-195 0 -318 -130t-123 -343z" />
    <glyph glyph-name="Ugrave" unicode="&#xd9;" horiz-adv-x="1519" 
d="M760 -31q-126 0 -236 39t-196 114.5t-135.5 197.5t-49.5 278v856h299v-864q0 -160 79.5 -252t238.5 -92t238 92t79 252v864h299v-856q0 -156 -49.5 -278t-135 -197.5t-195.5 -114.5t-236 -39zM483 1927h301l125 -350h-262z" />
    <glyph glyph-name="Uacute" unicode="&#xda;" horiz-adv-x="1519" 
d="M760 -31q-126 0 -236 39t-196 114.5t-135.5 197.5t-49.5 278v856h299v-864q0 -160 79.5 -252t238.5 -92t238 92t79 252v864h299v-856q0 -156 -49.5 -278t-135 -197.5t-195.5 -114.5t-236 -39zM743 1929h301l-163 -350h-263z" />
    <glyph glyph-name="Ucircumflex" unicode="&#xdb;" horiz-adv-x="1519" 
d="M760 -31q-126 0 -236 39t-196 114.5t-135.5 197.5t-49.5 278v856h299v-864q0 -160 79.5 -252t238.5 -92t238 92t79 252v864h299v-856q0 -156 -49.5 -278t-135 -197.5t-195.5 -114.5t-236 -39zM428 1765l330 170l329 -170v-229l-329 162l-330 -162v229z" />
    <glyph glyph-name="Udieresis" unicode="&#xdc;" horiz-adv-x="1519" 
d="M760 -31q-126 0 -236 39t-196 114.5t-135.5 197.5t-49.5 278v856h299v-864q0 -160 79.5 -252t238.5 -92t238 92t79 252v864h299v-856q0 -156 -49.5 -278t-135 -197.5t-195.5 -114.5t-236 -39zM578 1556q-67 0 -110.5 43t-43.5 109q0 68 43 111t111 43q66 0 109.5 -43.5
t43.5 -110.5q0 -66 -43.5 -109t-109.5 -43zM950 1556q-67 0 -110 43t-43 109q0 68 43 111t110 43q66 0 110 -43.5t44 -110.5q0 -66 -44 -109t-110 -43z" />
    <glyph glyph-name="Yacute" unicode="&#xdd;" horiz-adv-x="1306" 
d="M993 1454h346l-536 -946v-508h-299v508l-537 946h346l338 -641h4zM635 1927h301l-164 -350h-262z" />
    <glyph glyph-name="Thorn" unicode="&#xde;" horiz-adv-x="1316" 
d="M453 373v-373h-299v1454h299v-176h323q128 0 224.5 -34.5t155 -97t87.5 -143t29 -178.5q0 -97 -30.5 -178t-90 -143t-155.5 -96.5t-220 -34.5h-323zM453 653h323q100 0 148.5 45.5t48.5 126.5t-48.5 126.5t-148.5 45.5h-323v-344z" />
    <glyph glyph-name="germandbls" unicode="&#xdf;" horiz-adv-x="1267" 
d="M1210 322q0 -154 -109 -249.5t-272 -95.5q-78 0 -142 19t-106.5 51t-72.5 75.5t-43 90.5t-14 98h266q0 -38 30.5 -65t79.5 -27q44 0 72.5 24.5t28.5 71.5q0 37 -23.5 62.5t-77.5 58.5l-30 19q-162 98 -162 243q0 52 17.5 99.5t56.5 111.5l12 21q3 4 11 18l10 17.5t8 14.5
t7.5 15.5t5 13.5t4.5 15.5t2 15t1 17.5q0 61 -41.5 105t-114.5 44q-190 0 -190 -229v-977h-291v934q0 257 124.5 398t360.5 141q193 0 315 -114.5t122 -283.5q0 -25 -2 -46.5t-8 -43t-10.5 -35t-16 -35.5t-16.5 -31t-20.5 -34.5t-20.5 -34.5l-13 -20q-24 -41 -24 -66
q0 -37 39 -61l30 -19q104 -63 160.5 -138.5t56.5 -188.5z" />
    <glyph glyph-name="agrave" unicode="&#xe0;" horiz-adv-x="1300" 
d="M899 1073h268v-1073h-268v131q-52 -74 -139.5 -115t-200.5 -41q-151 0 -264.5 76t-171 202.5t-57.5 283.5t57.5 283t171 202t264.5 76q113 0 200.5 -41t139.5 -115v131zM885 537q0 133 -72 219t-192 86t-192.5 -86t-72.5 -219t72.5 -219.5t192.5 -86.5q119 0 191.5 86.5
t72.5 219.5zM348 1556h301l125 -350h-262z" />
    <glyph glyph-name="aacute" unicode="&#xe1;" horiz-adv-x="1300" 
d="M899 1073h268v-1073h-268v131q-52 -74 -139.5 -115t-200.5 -41q-151 0 -264.5 76t-171 202.5t-57.5 283.5t57.5 283t171 202t264.5 76q113 0 200.5 -41t139.5 -115v131zM885 537q0 133 -72 219t-192 86t-192.5 -86t-72.5 -219t72.5 -219.5t192.5 -86.5q119 0 191.5 86.5
t72.5 219.5zM573 1556h301l-163 -350h-262z" />
    <glyph glyph-name="acircumflex" unicode="&#xe2;" horiz-adv-x="1300" 
d="M899 1073h268v-1073h-268v131q-52 -74 -139.5 -115t-200.5 -41q-151 0 -264.5 76t-171 202.5t-57.5 283.5t57.5 283t171 202t264.5 76q113 0 200.5 -41t139.5 -115v131zM885 537q0 133 -72 219t-192 86t-192.5 -86t-72.5 -219t72.5 -219.5t192.5 -86.5q119 0 191.5 86.5
t72.5 219.5zM309 1376l330 170l330 -170v-229l-330 162l-330 -162v229z" />
    <glyph glyph-name="atilde" unicode="&#xe3;" horiz-adv-x="1300" 
d="M899 1073h268v-1073h-268v131q-52 -74 -139.5 -115t-200.5 -41q-151 0 -264.5 76t-171 202.5t-57.5 283.5t57.5 283t171 202t264.5 76q113 0 200.5 -41t139.5 -115v131zM885 537q0 133 -72 219t-192 86t-192.5 -86t-72.5 -219t72.5 -219.5t192.5 -86.5q119 0 191.5 86.5
t72.5 219.5zM756 1229q-68 0 -158 38t-133 38q-32 0 -50.5 -18.5t-21.5 -49.5h-172q5 120 72.5 195t187.5 75q68 0 158 -37.5t133 -37.5q63 0 70 67h172q-5 -120 -72 -195t-186 -75z" />
    <glyph glyph-name="adieresis" unicode="&#xe4;" horiz-adv-x="1300" 
d="M899 1073h268v-1073h-268v131q-52 -74 -139.5 -115t-200.5 -41q-151 0 -264.5 76t-171 202.5t-57.5 283.5t57.5 283t171 202t264.5 76q113 0 200.5 -41t139.5 -115v131zM885 537q0 133 -72 219t-192 86t-192.5 -86t-72.5 -219t72.5 -219.5t192.5 -86.5q119 0 191.5 86.5
t72.5 219.5zM444 1235q-67 0 -110 42.5t-43 108.5q0 68 43 111t110 43q66 0 110 -43.5t44 -110.5q0 -66 -44 -108.5t-110 -42.5zM817 1235q-67 0 -110 42.5t-43 108.5q0 68 43 111t110 43q66 0 110 -43.5t44 -110.5q0 -66 -44 -108.5t-110 -42.5z" />
    <glyph glyph-name="aring" unicode="&#xe5;" horiz-adv-x="1300" 
d="M899 1073h268v-1073h-268v131q-52 -74 -139.5 -115t-200.5 -41q-151 0 -264.5 76t-171 202.5t-57.5 283.5t57.5 283t171 202t264.5 76q113 0 200.5 -41t139.5 -115v131zM885 537q0 133 -72 219t-192 86t-192.5 -86t-72.5 -219t72.5 -219.5t192.5 -86.5q119 0 191.5 86.5
t72.5 219.5zM516 1423q0 -44 26.5 -73t71.5 -29t72 29t27 73t-27 73.5t-72 29.5t-71.5 -29.5t-26.5 -73.5zM358 1423q0 107 72 180.5t184 73.5t184 -73.5t72 -180.5t-72 -180.5t-184 -73.5t-184 73.5t-72 180.5z" />
    <glyph glyph-name="ae" unicode="&#xe6;" horiz-adv-x="1906" 
d="M475 -25q-195 0 -296 92t-101 236q0 141 101.5 226t314.5 118l278 43v10q0 77 -50.5 117.5t-141.5 40.5q-88 0 -135.5 -36t-55.5 -95h-287q6 74 35.5 137.5t84.5 117.5t148.5 85t215.5 31q251 0 372 -127q146 127 353 127q155 0 277.5 -73.5t188.5 -200.5t66 -285l-4 -86
h-778q15 -110 83 -169t177 -59q69 0 125.5 30t81.5 87h293q-48 -165 -186 -266t-322 -101q-129 0 -236 49t-180 138q-127 -187 -422 -187zM520 201q124 0 188 64.5t64 174.5v43l-250 -43q-89 -16 -126.5 -48t-37.5 -79q0 -57 38 -84.5t124 -27.5zM1309 864q-98 0 -161.5 -54
t-82.5 -148h487q-15 92 -79 147t-164 55z" />
    <glyph glyph-name="ccedilla" unicode="&#xe7;" horiz-adv-x="1165" 
d="M434 -434l70 112q5 -5 14.5 -12t40 -19t62.5 -12q36 0 60 19.5t24 54.5q0 32 -21 53t-61 21q-16 0 -31.5 -5.5t-23.5 -10.5l-7 -5l-84 52l41 168q-200 29 -326 183t-126 372q0 240 153 400.5t385 160.5q96 0 179 -26t140 -68.5t99.5 -98t65 -112t28.5 -113.5h-299
q-17 70 -76.5 115t-138.5 45q-115 0 -180.5 -83t-65.5 -220t65.5 -220.5t180.5 -83.5q79 0 138.5 45t76.5 115h299q-8 -68 -39.5 -135.5t-86.5 -128.5t-143 -102.5t-196 -49.5l-18 -77q8 4 45 4q82 0 131 -54t49 -135q0 -96 -62.5 -155.5t-158.5 -59.5q-41 0 -77 7t-58 16.5
t-38.5 19t-23.5 16.5z" />
    <glyph glyph-name="egrave" unicode="&#xe8;" horiz-adv-x="1200" 
d="M1133 453h-779q15 -110 83 -169t177 -59q69 0 125.5 30t81.5 87h293q-48 -165 -186 -266t-322 -101q-238 0 -389 158t-151 406q0 157 67.5 284.5t191 201t279.5 73.5q155 0 277.5 -73.5t189 -200.5t66.5 -285zM602 864q-98 0 -161.5 -54t-82.5 -148h488q-15 92 -79.5 147
t-164.5 55zM317 1556h301l125 -350h-262z" />
    <glyph glyph-name="eacute" unicode="&#xe9;" horiz-adv-x="1200" 
d="M1133 453h-779q15 -110 83 -169t177 -59q69 0 125.5 30t81.5 87h293q-48 -165 -186 -266t-322 -101q-238 0 -389 158t-151 406q0 157 67.5 284.5t191 201t279.5 73.5q155 0 277.5 -73.5t189 -200.5t66.5 -285zM602 864q-98 0 -161.5 -54t-82.5 -148h488q-15 92 -79.5 147
t-164.5 55zM582 1556h301l-164 -350h-262z" />
    <glyph glyph-name="ecircumflex" unicode="&#xea;" horiz-adv-x="1200" 
d="M1133 453h-779q15 -110 83 -169t177 -59q69 0 125.5 30t81.5 87h293q-48 -165 -186 -266t-322 -101q-238 0 -389 158t-151 406q0 157 67.5 284.5t191 201t279.5 73.5q155 0 277.5 -73.5t189 -200.5t66.5 -285zM602 864q-98 0 -161.5 -54t-82.5 -148h488q-15 92 -79.5 147
t-164.5 55zM279 1376l329 170l330 -170v-229l-330 162l-329 -162v229z" />
    <glyph glyph-name="edieresis" unicode="&#xeb;" horiz-adv-x="1200" 
d="M1133 453h-779q15 -110 83 -169t177 -59q69 0 125.5 30t81.5 87h293q-48 -165 -186 -266t-322 -101q-238 0 -389 158t-151 406q0 157 67.5 284.5t191 201t279.5 73.5q155 0 277.5 -73.5t189 -200.5t66.5 -285zM602 864q-98 0 -161.5 -54t-82.5 -148h488q-15 92 -79.5 147
t-164.5 55zM416 1235q-67 0 -110.5 42.5t-43.5 108.5q0 68 43 111t111 43q66 0 109.5 -43.5t43.5 -110.5q0 -66 -43.5 -108.5t-109.5 -42.5zM788 1235q-67 0 -110 42.5t-43 108.5q0 68 43 111t110 43q66 0 110 -43.5t44 -110.5q0 -66 -44 -108.5t-110 -42.5z" />
    <glyph glyph-name="igrave" unicode="&#xec;" horiz-adv-x="557" 
d="M-8 1556h301l125 -350h-262zM424 1073v-1073h-291v1073h291z" />
    <glyph glyph-name="iacute" unicode="&#xed;" horiz-adv-x="557" 
d="M274 1556h301l-163 -350h-262zM424 1073v-1073h-291v1073h291z" />
    <glyph glyph-name="icircumflex" unicode="&#xee;" horiz-adv-x="557" 
d="M424 1073v-1073h-291v1073h291zM-51 1376l330 170l329 -170v-229l-329 162l-330 -162v229z" />
    <glyph glyph-name="idieresis" unicode="&#xef;" horiz-adv-x="557" 
d="M94 1235q-67 0 -110 42.5t-43 108.5q0 68 43 111t110 43q66 0 110 -43.5t44 -110.5q0 -66 -44 -108.5t-110 -42.5zM467 1235q-67 0 -110.5 42.5t-43.5 108.5q0 68 43.5 111t110.5 43q66 0 110 -43.5t44 -110.5q0 -66 -44 -108.5t-110 -42.5zM424 1073v-1073h-291v1073
h291z" />
    <glyph glyph-name="eth" unicode="&#xf0;" horiz-adv-x="1249" 
d="M418 1126l-80 119l188 94q-84 54 -192 111l182 141q124 -63 232 -143l223 113l80 -119l-187 -94q320 -314 320 -777q0 -169 -70 -304.5t-198 -213.5t-291 -78q-162 0 -291 77t-198.5 205t-69.5 280q0 156 61.5 283t180 202.5t272.5 75.5q65 0 123 -14t83 -28l25 -14
q-55 102 -162 199zM356 537q0 -133 76.5 -219.5t192.5 -86.5t192 86.5t76 219.5t-76 219t-192 86t-192.5 -86t-76.5 -219z" />
    <glyph glyph-name="ntilde" unicode="&#xf1;" horiz-adv-x="1239" 
d="M401 1073v-131q38 72 121 114t199 42q190 0 292.5 -116t102.5 -312v-670h-291v637q0 99 -44.5 155t-137.5 56q-104 0 -161.5 -62.5t-57.5 -171.5v-614h-291v1073h268zM760 1229q-68 0 -158 38t-133 38q-32 0 -50.5 -18.5t-21.5 -49.5h-172q5 120 72.5 195t187.5 75
q68 0 158 -37.5t133 -37.5q63 0 70 67h172q-5 -120 -72 -195t-186 -75z" />
    <glyph glyph-name="ograve" unicode="&#xf2;" horiz-adv-x="1257" 
d="M629 -25q-167 0 -297 77t-198 204.5t-68 280.5t68 280t198 204t297 77t297 -77t198 -204t68 -280t-68 -280.5t-198 -204.5t-297 -77zM356 537q0 -141 77 -223.5t196 -82.5t195.5 82.5t76.5 223.5t-76.5 223t-195.5 82t-196 -82t-77 -223zM326 1556h301l125 -350h-263z
" />
    <glyph glyph-name="oacute" unicode="&#xf3;" horiz-adv-x="1257" 
d="M629 -25q-167 0 -297 77t-198 204.5t-68 280.5t68 280t198 204t297 77t297 -77t198 -204t68 -280t-68 -280.5t-198 -204.5t-297 -77zM356 537q0 -141 77 -223.5t196 -82.5t195.5 82.5t76.5 223.5t-76.5 223t-195.5 82t-196 -82t-77 -223zM606 1556h301l-164 -350h-262z
" />
    <glyph glyph-name="ocircumflex" unicode="&#xf4;" horiz-adv-x="1257" 
d="M629 -25q-167 0 -297 77t-198 204.5t-68 280.5t68 280t198 204t297 77t297 -77t198 -204t68 -280t-68 -280.5t-198 -204.5t-297 -77zM356 537q0 -141 77 -223.5t196 -82.5t195.5 82.5t76.5 223.5t-76.5 223t-195.5 82t-196 -82t-77 -223zM299 1376l330 170l329 -170v-229
l-329 162l-330 -162v229z" />
    <glyph glyph-name="otilde" unicode="&#xf5;" horiz-adv-x="1257" 
d="M629 -25q-167 0 -297 77t-198 204.5t-68 280.5t68 280t198 204t297 77t297 -77t198 -204t68 -280t-68 -280.5t-198 -204.5t-297 -77zM356 537q0 -141 77 -223.5t196 -82.5t195.5 82.5t76.5 223.5t-76.5 223t-195.5 82t-196 -82t-77 -223zM758 1229q-68 0 -158 38t-133 38
q-32 0 -50.5 -18.5t-21.5 -49.5h-172q5 120 72.5 195t187.5 75q68 0 158 -37.5t133 -37.5q63 0 70 67h172q-5 -120 -72 -195t-186 -75z" />
    <glyph glyph-name="odieresis" unicode="&#xf6;" horiz-adv-x="1257" 
d="M629 -25q-167 0 -297 77t-198 204.5t-68 280.5t68 280t198 204t297 77t297 -77t198 -204t68 -280t-68 -280.5t-198 -204.5t-297 -77zM356 537q0 -141 77 -223.5t196 -82.5t195.5 82.5t76.5 223.5t-76.5 223t-195.5 82t-196 -82t-77 -223zM442 1235q-67 0 -110 42.5
t-43 108.5q0 68 43 111t110 43q66 0 110 -43.5t44 -110.5q0 -66 -44 -108.5t-110 -42.5zM815 1235q-67 0 -110 42.5t-43 108.5q0 68 43 111t110 43q66 0 110 -43.5t44 -110.5q0 -66 -44 -108.5t-110 -42.5z" />
    <glyph glyph-name="divide" unicode="&#xf7;" 
d="M596 -16q-77 0 -126.5 49t-49.5 125t50 126t126 50t126 -50t50 -126t-49.5 -125t-126.5 -49zM596 739q-77 0 -126.5 49t-49.5 125q0 77 50 127t126 50t126 -50t50 -127q0 -76 -49.5 -125t-126.5 -49zM1133 674v-275h-1074v275h1074z" />
    <glyph glyph-name="oslash" unicode="&#xf8;" horiz-adv-x="1257" 
d="M629 -25q-184 0 -326 95l-113 -129l-102 92l113 127q-135 153 -135 377q0 153 68 280t198 204t297 77q177 0 315 -88l111 125l102 -93l-106 -122q68 -75 104.5 -174.5t36.5 -208.5q0 -153 -68 -280.5t-198 -204.5t-297 -77zM901 537q0 98 -39 168l-381 -433
q65 -41 148 -41q119 0 195.5 82.5t76.5 223.5zM356 537q0 -89 33 -160l377 428q-58 37 -137 37q-119 0 -196 -82t-77 -223z" />
    <glyph glyph-name="ugrave" unicode="&#xf9;" horiz-adv-x="1220" 
d="M610 -25q-242 0 -364.5 115t-122.5 369v614h291v-618q0 -219 196 -219q197 0 197 219v618h291v-614q0 -254 -123 -369t-365 -115zM328 1556h301l125 -350h-262z" />
    <glyph glyph-name="uacute" unicode="&#xfa;" horiz-adv-x="1220" 
d="M610 -25q-242 0 -364.5 115t-122.5 369v614h291v-618q0 -219 196 -219q197 0 197 219v618h291v-614q0 -254 -123 -369t-365 -115zM596 1556h301l-164 -350h-262z" />
    <glyph glyph-name="ucircumflex" unicode="&#xfb;" horiz-adv-x="1220" 
d="M610 -25q-242 0 -364.5 115t-122.5 369v614h291v-618q0 -219 196 -219q197 0 197 219v618h291v-614q0 -254 -123 -369t-365 -115zM276 1376l330 170l330 -170v-229l-330 162l-330 -162v229z" />
    <glyph glyph-name="udieresis" unicode="&#xfc;" horiz-adv-x="1220" 
d="M610 -25q-242 0 -364.5 115t-122.5 369v614h291v-618q0 -219 196 -219q197 0 197 219v618h291v-614q0 -254 -123 -369t-365 -115zM424 1235q-67 0 -110.5 42.5t-43.5 108.5q0 68 43 111t111 43q66 0 110 -43.5t44 -110.5q0 -66 -44 -108.5t-110 -42.5zM797 1235
q-67 0 -110.5 42.5t-43.5 108.5q0 68 43.5 111t110.5 43q66 0 109.5 -43.5t43.5 -110.5q0 -66 -43.5 -108.5t-109.5 -42.5z" />
    <glyph glyph-name="yacute" unicode="&#xfd;" horiz-adv-x="1130" 
d="M244 -426l180 444l-424 1055h309l258 -717l260 717h303l-600 -1499h-286zM565 1556h301l-164 -350h-262z" />
    <glyph glyph-name="thorn" unicode="&#xfe;" horiz-adv-x="1290" 
d="M424 88v-514h-291v1962h291v-553q109 115 303 115q154 0 268.5 -74.5t172 -200.5t57.5 -286q0 -157 -57.5 -283.5t-172 -202.5t-268.5 -76q-178 0 -303 113zM424 549q0 -138 65 -227t187 -89q118 0 188 87t70 217t-70 216.5t-188 86.5q-115 0 -183.5 -83t-68.5 -208z" />
    <glyph glyph-name="ydieresis" unicode="&#xff;" horiz-adv-x="1130" 
d="M244 -426l180 444l-424 1055h309l258 -717l260 717h303l-600 -1499h-286zM383 1235q-67 0 -110.5 42.5t-43.5 108.5q0 68 43.5 111t110.5 43q66 0 110 -43.5t44 -110.5q0 -66 -44 -108.5t-110 -42.5zM756 1235q-67 0 -110.5 42.5t-43.5 108.5q0 68 43 111t111 43
q66 0 109.5 -43.5t43.5 -110.5q0 -66 -43.5 -108.5t-109.5 -42.5z" />
    <glyph glyph-name="Amacron" unicode="&#x100;" horiz-adv-x="1409" 
d="M313 0h-313l547 1454h315l547 -1454h-322l-88 250h-598zM702 1085h-4l-200 -567h405zM1083 1798v-221h-764v221h764z" />
    <glyph glyph-name="amacron" unicode="&#x101;" horiz-adv-x="1300" 
d="M899 1073h268v-1073h-268v131q-52 -74 -139.5 -115t-200.5 -41q-151 0 -264.5 76t-171 202.5t-57.5 283.5t57.5 283t171 202t264.5 76q113 0 200.5 -41t139.5 -115v131zM885 537q0 133 -72 219t-192 86t-192.5 -86t-72.5 -219t72.5 -219.5t192.5 -86.5q119 0 191.5 86.5
t72.5 219.5zM1012 1475v-222h-764v222h764z" />
    <glyph glyph-name="Abreve" unicode="&#x102;" horiz-adv-x="1409" 
d="M313 0h-313l547 1454h315l547 -1454h-322l-88 250h-598zM702 1085h-4l-200 -567h405zM705 1718q137 0 137 152h202q0 -158 -90.5 -246t-248.5 -88t-249 88t-91 246h202q0 -76 35.5 -114t102.5 -38z" />
    <glyph glyph-name="abreve" unicode="&#x103;" horiz-adv-x="1300" 
d="M899 1073h268v-1073h-268v131q-52 -74 -139.5 -115t-200.5 -41q-151 0 -264.5 76t-171 202.5t-57.5 283.5t57.5 283t171 202t264.5 76q113 0 200.5 -41t139.5 -115v131zM885 537q0 133 -72 219t-192 86t-192.5 -86t-72.5 -219t72.5 -219.5t192.5 -86.5q119 0 191.5 86.5
t72.5 219.5zM616 1380q67 0 102.5 38t35.5 114h202q0 -158 -91 -246t-249 -88t-249 88t-91 246h203q0 -152 137 -152z" />
    <glyph glyph-name="Aogonek" unicode="&#x104;" horiz-adv-x="1409" 
d="M1300 -236l64 -147q-60 -43 -154 -43q-101 0 -164 66.5t-63 169.5q0 142 88 237l-72 203h-598l-88 -250h-313l547 1454h315l547 -1454h-129q-102 -73 -102 -176q0 -32 18.5 -53t52.5 -21q30 0 51 14zM702 1085h-4l-200 -567h405z" />
    <glyph glyph-name="aogonek" unicode="&#x105;" horiz-adv-x="1300" 
d="M1128 -236l64 -147q-60 -43 -154 -43q-101 0 -164 66.5t-63 169.5q0 142 88 237v84q-52 -74 -139.5 -115t-200.5 -41q-151 0 -264.5 76t-171 202.5t-57.5 283.5t57.5 283t171 202t264.5 76q113 0 200.5 -41t139.5 -115v131h268v-1073h-59q-102 -73 -102 -176
q0 -32 18.5 -53t52.5 -21q30 0 51 14zM885 537q0 133 -72 219t-192 86t-192.5 -86t-72.5 -219t72.5 -219.5t192.5 -86.5q119 0 191.5 86.5t72.5 219.5z" />
    <glyph glyph-name="Cacute" unicode="&#x106;" horiz-adv-x="1593" 
d="M86 729q0 168 55.5 310t153 239.5t232 152t290.5 54.5q275 0 469.5 -154t235.5 -416h-320q-32 135 -134.5 210t-250.5 75q-197 0 -306.5 -126.5t-109.5 -344.5t109.5 -344.5t306.5 -126.5q148 0 250.5 75t134.5 210h320q-41 -262 -235.5 -416t-469.5 -154
q-156 0 -290.5 54.5t-232 152t-153 239.5t-55.5 310zM791 1927h301l-164 -350h-262z" />
    <glyph glyph-name="cacute" unicode="&#x107;" horiz-adv-x="1165" 
d="M66 537q0 240 153 400.5t385 160.5q96 0 179 -26t140 -68.5t99.5 -98t65 -112t28.5 -113.5h-299q-17 70 -76.5 115t-138.5 45q-115 0 -180.5 -83t-65.5 -220t65.5 -220.5t180.5 -83.5q79 0 138.5 45t76.5 115h299q-6 -57 -28.5 -113.5t-65 -112t-99.5 -98t-140 -68.5
t-179 -26q-232 0 -385 161t-153 401zM573 1556h301l-163 -350h-262z" />
    <glyph glyph-name="Ccircumflex" unicode="&#x108;" horiz-adv-x="1593" 
d="M86 729q0 168 55.5 310t153 239.5t232 152t290.5 54.5q275 0 469.5 -154t235.5 -416h-320q-32 135 -134.5 210t-250.5 75q-197 0 -306.5 -126.5t-109.5 -344.5t109.5 -344.5t306.5 -126.5q148 0 250.5 75t134.5 210h320q-41 -262 -235.5 -416t-469.5 -154
q-156 0 -290.5 54.5t-232 152t-153 239.5t-55.5 310zM467 1757l330 170l329 -170v-229l-329 162l-330 -162v229z" />
    <glyph glyph-name="ccircumflex" unicode="&#x109;" horiz-adv-x="1165" 
d="M66 537q0 240 153 400.5t385 160.5q96 0 179 -26t140 -68.5t99.5 -98t65 -112t28.5 -113.5h-299q-17 70 -76.5 115t-138.5 45q-115 0 -180.5 -83t-65.5 -220t65.5 -220.5t180.5 -83.5q79 0 138.5 45t76.5 115h299q-6 -57 -28.5 -113.5t-65 -112t-99.5 -98t-140 -68.5
t-179 -26q-232 0 -385 161t-153 401zM279 1376l329 170l330 -170v-229l-330 162l-329 -162v229z" />
    <glyph glyph-name="Cdotaccent" unicode="&#x10a;" horiz-adv-x="1593" 
d="M86 729q0 168 55.5 310t153 239.5t232 152t290.5 54.5q275 0 469.5 -154t235.5 -416h-320q-32 135 -134.5 210t-250.5 75q-197 0 -306.5 -126.5t-109.5 -344.5t109.5 -344.5t306.5 -126.5q148 0 250.5 75t134.5 210h320q-41 -262 -235.5 -416t-469.5 -154
q-156 0 -290.5 54.5t-232 152t-153 239.5t-55.5 310zM817 1556q-77 0 -126.5 49.5t-49.5 125.5q0 77 49.5 126.5t126.5 49.5t126.5 -49.5t49.5 -126.5q0 -76 -49.5 -125.5t-126.5 -49.5z" />
    <glyph glyph-name="cdotaccent" unicode="&#x10b;" horiz-adv-x="1165" 
d="M66 537q0 240 153 400.5t385 160.5q96 0 179 -26t140 -68.5t99.5 -98t65 -112t28.5 -113.5h-299q-17 70 -76.5 115t-138.5 45q-115 0 -180.5 -83t-65.5 -220t65.5 -220.5t180.5 -83.5q79 0 138.5 45t76.5 115h299q-6 -57 -28.5 -113.5t-65 -112t-99.5 -98t-140 -68.5
t-179 -26q-232 0 -385 161t-153 401zM606 1212q-77 0 -126.5 49t-49.5 125q0 77 50 127t126 50t126 -50t50 -127q0 -76 -49.5 -125t-126.5 -49z" />
    <glyph glyph-name="Ccaron" unicode="&#x10c;" horiz-adv-x="1593" 
d="M86 729q0 168 55.5 310t153 239.5t232 152t290.5 54.5q275 0 469.5 -154t235.5 -416h-320q-32 135 -134.5 210t-250.5 75q-197 0 -306.5 -126.5t-109.5 -344.5t109.5 -344.5t306.5 -126.5q148 0 250.5 75t134.5 210h320q-41 -262 -235.5 -416t-469.5 -154
q-156 0 -290.5 54.5t-232 152t-153 239.5t-55.5 310zM815 1536l-330 170v229l330 -161l330 161v-229z" />
    <glyph glyph-name="ccaron" unicode="&#x10d;" horiz-adv-x="1165" 
d="M66 537q0 240 153 400.5t385 160.5q96 0 179 -26t140 -68.5t99.5 -98t65 -112t28.5 -113.5h-299q-17 70 -76.5 115t-138.5 45q-115 0 -180.5 -83t-65.5 -220t65.5 -220.5t180.5 -83.5q79 0 138.5 45t76.5 115h299q-6 -57 -28.5 -113.5t-65 -112t-99.5 -98t-140 -68.5
t-179 -26q-232 0 -385 161t-153 401zM602 1147l-330 170v229l330 -162l330 162v-229z" />
    <glyph glyph-name="Dcaron" unicode="&#x10e;" horiz-adv-x="1527" 
d="M676 0h-522v1454h522q182 0 328 -54t241.5 -151t146 -230t50.5 -292t-50.5 -292t-146 -230t-241.5 -151t-328 -54zM1126 727q0 212 -114 332.5t-344 120.5h-215v-906h215q230 0 344 120.5t114 332.5zM682 1536l-330 170v229l330 -161l330 161v-229z" />
    <glyph glyph-name="dcaron" unicode="&#x10f;" horiz-adv-x="1300" 
d="M877 958v578h290v-1536h-268v131q-52 -74 -139.5 -115t-200.5 -41q-151 0 -264.5 76t-171 202.5t-57.5 283.5t57.5 283t171 202t264.5 76q107 0 190 -40t128 -100zM885 537q0 133 -72 219t-192 86t-192.5 -86t-72.5 -219t72.5 -219.5t192.5 -86.5q119 0 191.5 86.5
t72.5 219.5zM1350 1536h245q7 -31 7 -88q0 -53 -13 -101.5t-34 -84t-46.5 -66t-51 -50.5t-46.5 -34.5t-34 -20.5l-13 -6l-141 168l15 7.5t33 22.5t42.5 38t33.5 53.5t15 69.5q0 23 -3 46t-6 34z" />
    <glyph glyph-name="Dcroat" unicode="&#x110;" horiz-adv-x="1527" 
d="M676 0h-522v590h-144v274h144v590h522q182 0 328 -54t241.5 -151t146 -230t50.5 -292t-50.5 -292t-146 -230t-241.5 -151t-328 -54zM1126 727q0 211 -113.5 329t-344.5 118h-215v-310h354v-274h-354v-309h215q231 0 344.5 117.5t113.5 328.5z" />
    <glyph glyph-name="dcroat" unicode="&#x111;" horiz-adv-x="1300" 
d="M877 958v228h-283v225h283v125h290v-125h133v-225h-133v-1186h-268v131q-52 -74 -139.5 -115t-200.5 -41q-151 0 -264.5 76t-171 202.5t-57.5 283.5t57.5 283t171 202t264.5 76q107 0 190 -40t128 -100zM885 537q0 133 -72 219t-192 86t-192.5 -86t-72.5 -219
t72.5 -219.5t192.5 -86.5q119 0 191.5 86.5t72.5 219.5z" />
    <glyph glyph-name="Emacron" unicode="&#x112;" horiz-adv-x="1302" 
d="M1200 274v-274h-1046v1454h1046v-274h-747v-306h716v-274h-716v-326h747zM1061 1798v-221h-764v221h764z" />
    <glyph glyph-name="emacron" unicode="&#x113;" horiz-adv-x="1200" 
d="M1133 453h-779q15 -110 83 -169t177 -59q69 0 125.5 30t81.5 87h293q-48 -165 -186 -266t-322 -101q-238 0 -389 158t-151 406q0 157 67.5 284.5t191 201t279.5 73.5q155 0 277.5 -73.5t189 -200.5t66.5 -285zM602 864q-98 0 -161.5 -54t-82.5 -148h488q-15 92 -79.5 147
t-164.5 55zM991 1475v-222h-764v222h764z" />
    <glyph glyph-name="Ebreve" unicode="&#x114;" horiz-adv-x="1302" 
d="M1200 274v-274h-1046v1454h1046v-274h-747v-306h716v-274h-716v-326h747zM672 1718q137 0 137 152h203q0 -158 -91 -246t-249 -88t-249 88t-91 246h203q0 -152 137 -152z" />
    <glyph glyph-name="ebreve" unicode="&#x115;" horiz-adv-x="1200" 
d="M1133 453h-779q15 -110 83 -169t177 -59q69 0 125.5 30t81.5 87h293q-48 -165 -186 -266t-322 -101q-238 0 -389 158t-151 406q0 157 67.5 284.5t191 201t279.5 73.5q155 0 277.5 -73.5t189 -200.5t66.5 -285zM602 864q-98 0 -161.5 -54t-82.5 -148h488q-15 92 -79.5 147
t-164.5 55zM600 1380q137 0 137 152h203q0 -158 -91 -246t-249 -88t-249 88t-91 246h203q0 -152 137 -152z" />
    <glyph glyph-name="Edotaccent" unicode="&#x116;" horiz-adv-x="1302" 
d="M1200 274v-274h-1046v1454h1046v-274h-747v-306h716v-274h-716v-326h747zM684 1559q-77 0 -126.5 49t-49.5 125q0 77 50 126.5t126 49.5t126 -49.5t50 -126.5q0 -76 -49.5 -125t-126.5 -49z" />
    <glyph glyph-name="edotaccent" unicode="&#x117;" horiz-adv-x="1200" 
d="M1133 453h-779q15 -110 83 -169t177 -59q69 0 125.5 30t81.5 87h293q-48 -165 -186 -266t-322 -101q-238 0 -389 158t-151 406q0 157 67.5 284.5t191 201t279.5 73.5q155 0 277.5 -73.5t189 -200.5t66.5 -285zM602 864q-98 0 -161.5 -54t-82.5 -148h488q-15 92 -79.5 147
t-164.5 55zM600 1212q-77 0 -126.5 49t-49.5 125q0 77 50 127t126 50t126 -50t50 -127q0 -76 -49.5 -125t-126.5 -49z" />
    <glyph glyph-name="Eogonek" unicode="&#x118;" horiz-adv-x="1302" 
d="M1108 -236l63 -147q-60 -43 -153 -43q-101 0 -164 66.5t-63 169.5q0 112 51 190h-688v1454h1046v-274h-747v-306h716v-274h-716v-326h747v-274h-113q-102 -73 -102 -176q0 -32 19 -53t53 -21q30 0 51 14z" />
    <glyph glyph-name="eogonek" unicode="&#x119;" horiz-adv-x="1200" 
d="M758 -236l63 -147q-60 -43 -153 -43q-102 0 -165 67t-63 169q0 103 43 178q-189 39 -303 188t-114 363q0 157 67.5 284.5t191 201t279.5 73.5q155 0 277.5 -73.5t189 -200.5t66.5 -285l-4 -86h-779q15 -110 83 -169t177 -59q69 0 125.5 30t81.5 87h293
q-40 -137 -144.5 -231.5t-248.5 -122.5q-86 -72 -86 -164q0 -32 19 -53t53 -21q30 0 51 14zM602 864q-98 0 -161.5 -54t-82.5 -148h488q-15 92 -79.5 147t-164.5 55z" />
    <glyph glyph-name="Ecaron" unicode="&#x11a;" horiz-adv-x="1302" 
d="M1200 274v-274h-1046v1454h1046v-274h-747v-306h716v-274h-716v-326h747zM672 1536l-330 170v229l330 -161l329 161v-229z" />
    <glyph glyph-name="ecaron" unicode="&#x11b;" horiz-adv-x="1200" 
d="M1133 453h-779q15 -110 83 -169t177 -59q69 0 125.5 30t81.5 87h293q-48 -165 -186 -266t-322 -101q-238 0 -389 158t-151 406q0 157 67.5 284.5t191 201t279.5 73.5q155 0 277.5 -73.5t189 -200.5t66.5 -285zM602 864q-98 0 -161.5 -54t-82.5 -148h488q-15 92 -79.5 147
t-164.5 55zM600 1147l-330 170v229l330 -162l330 162v-229z" />
    <glyph glyph-name="Gcircumflex" unicode="&#x11c;" horiz-adv-x="1638" 
d="M926 537v268h624q2 -31 2 -76q0 -167 -56 -309t-153 -238.5t-230 -150.5t-284 -54q-216 0 -384.5 92.5t-263.5 264t-95 395.5q0 167 57.5 309.5t157 240t236 152t292.5 54.5q265 0 459.5 -150t245.5 -395h-322q-33 120 -137.5 190t-245.5 70q-199 0 -313.5 -127.5
t-114.5 -343.5t116 -345.5t312 -129.5q149 0 257.5 76t146.5 207h-307zM489 1765l330 170l330 -170v-229l-330 162l-330 -162v229z" />
    <glyph glyph-name="gcircumflex" unicode="&#x11d;" horiz-adv-x="1282" 
d="M891 942v131h268v-1032q0 -216 -138.5 -353t-379.5 -137q-96 0 -177 24.5t-136 64.5t-95.5 92t-60.5 105t-25 106h291q11 -57 60 -99.5t147 -42.5q108 0 165.5 56t57.5 153v150q-45 -61 -125.5 -100.5t-187.5 -39.5q-146 0 -258.5 72.5t-171.5 194.5t-59 272t59 272
t171.5 194.5t258.5 72.5q112 0 198 -40.5t138 -115.5zM877 559q0 126 -72 204.5t-189 78.5t-188.5 -78.5t-71.5 -204.5t71.5 -204.5t188.5 -78.5t189 78.5t72 204.5zM328 1376l329 170l330 -170v-229l-330 162l-329 -162v229z" />
    <glyph glyph-name="Gbreve" unicode="&#x11e;" horiz-adv-x="1638" 
d="M926 537v268h624q2 -31 2 -76q0 -167 -56 -309t-153 -238.5t-230 -150.5t-284 -54q-216 0 -384.5 92.5t-263.5 264t-95 395.5q0 167 57.5 309.5t157 240t236 152t292.5 54.5q265 0 459.5 -150t245.5 -395h-322q-33 120 -137.5 190t-245.5 70q-199 0 -313.5 -127.5
t-114.5 -343.5t116 -345.5t312 -129.5q149 0 257.5 76t146.5 207h-307zM815 1720q137 0 137 152h203q0 -158 -91 -246t-249 -88t-249 88t-91 246h203q0 -152 137 -152z" />
    <glyph glyph-name="gbreve" unicode="&#x11f;" horiz-adv-x="1282" 
d="M891 942v131h268v-1032q0 -216 -138.5 -353t-379.5 -137q-96 0 -177 24.5t-136 64.5t-95.5 92t-60.5 105t-25 106h291q11 -57 60 -99.5t147 -42.5q108 0 165.5 56t57.5 153v150q-45 -61 -125.5 -100.5t-187.5 -39.5q-146 0 -258.5 72.5t-171.5 194.5t-59 272t59 272
t171.5 194.5t258.5 72.5q112 0 198 -40.5t138 -115.5zM877 559q0 126 -72 204.5t-189 78.5t-188.5 -78.5t-71.5 -204.5t71.5 -204.5t188.5 -78.5t189 78.5t72 204.5zM676 1380q137 0 137 152h203q0 -158 -91 -246t-249 -88t-249 88t-91 246h203q0 -152 137 -152z" />
    <glyph glyph-name="Gdotaccent" unicode="&#x120;" horiz-adv-x="1638" 
d="M926 537v268h624q2 -31 2 -76q0 -167 -56 -309t-153 -238.5t-230 -150.5t-284 -54q-216 0 -384.5 92.5t-263.5 264t-95 395.5q0 167 57.5 309.5t157 240t236 152t292.5 54.5q265 0 459.5 -150t245.5 -395h-322q-33 120 -137.5 190t-245.5 70q-199 0 -313.5 -127.5
t-114.5 -343.5t116 -345.5t312 -129.5q149 0 257.5 76t146.5 207h-307zM819 1556q-77 0 -126.5 49.5t-49.5 125.5q0 77 49.5 126.5t126.5 49.5t126.5 -49.5t49.5 -126.5q0 -76 -49.5 -125.5t-126.5 -49.5z" />
    <glyph glyph-name="gdotaccent" unicode="&#x121;" horiz-adv-x="1282" 
d="M891 942v131h268v-1032q0 -216 -138.5 -353t-379.5 -137q-96 0 -177 24.5t-136 64.5t-95.5 92t-60.5 105t-25 106h291q11 -57 60 -99.5t147 -42.5q108 0 165.5 56t57.5 153v150q-45 -61 -125.5 -100.5t-187.5 -39.5q-146 0 -258.5 72.5t-171.5 194.5t-59 272t59 272
t171.5 194.5t258.5 72.5q112 0 198 -40.5t138 -115.5zM877 559q0 126 -72 204.5t-189 78.5t-188.5 -78.5t-71.5 -204.5t71.5 -204.5t188.5 -78.5t189 78.5t72 204.5zM674 1212q-77 0 -126.5 49t-49.5 125q0 77 50 127t126 50t126 -50t50 -127q0 -76 -49.5 -125t-126.5 -49z
" />
    <glyph glyph-name="Gcommaaccent" unicode="&#x122;" horiz-adv-x="1638" 
d="M926 537v268h624q2 -31 2 -76q0 -167 -56 -309t-153 -238.5t-230 -150.5t-284 -54q-216 0 -384.5 92.5t-263.5 264t-95 395.5q0 167 57.5 309.5t157 240t236 152t292.5 54.5q265 0 459.5 -150t245.5 -395h-322q-33 120 -137.5 190t-245.5 70q-199 0 -313.5 -127.5
t-114.5 -343.5t116 -345.5t312 -129.5q149 0 257.5 76t146.5 207h-307zM700 -94h246q6 -31 6 -88q0 -73 -24.5 -137t-59 -103.5t-69.5 -69t-59 -41.5l-25 -12l-142 168q6 3 15.5 7.5t33.5 22.5t42.5 38t33.5 53.5t15 69.5q0 23 -3.5 46t-6.5 34z" />
    <glyph glyph-name="gcommaaccent" unicode="&#x123;" horiz-adv-x="1282" 
d="M891 942v131h268v-1032q0 -216 -138.5 -353t-379.5 -137q-96 0 -177 24.5t-136 64.5t-95.5 92t-60.5 105t-25 106h291q11 -57 60 -99.5t147 -42.5q108 0 165.5 56t57.5 153v150q-45 -61 -125.5 -100.5t-187.5 -39.5q-146 0 -258.5 72.5t-171.5 194.5t-59 272t59 272
t171.5 194.5t258.5 72.5q112 0 198 -40.5t138 -115.5zM877 559q0 126 -72 204.5t-189 78.5t-188.5 -78.5t-71.5 -204.5t71.5 -204.5t188.5 -78.5t189 78.5t72 204.5zM776 1251h-246q-6 31 -6 88q0 53 13 101.5t34 84t46.5 66t51 50.5t46.5 34.5t34 20.5l13 6l141 -168
l-15 -7.5t-33 -22.5t-42.5 -38t-33.5 -53.5t-15 -69.5q0 -23 3 -46t6 -35z" />
    <glyph glyph-name="Hcircumflex" unicode="&#x124;" horiz-adv-x="1513" 
d="M1360 1454v-1454h-299v600h-608v-600h-299v1454h299v-580h608v580h299zM426 1765l330 170l329 -170v-229l-329 162l-330 -162v229z" />
    <glyph glyph-name="hcircumflex" unicode="&#x125;" horiz-adv-x="1239" 
d="M424 1536v-561q43 57 119 90t178 33q190 0 292.5 -116t102.5 -312v-670h-291v637q0 99 -44.5 155t-137.5 56q-105 0 -162 -62.5t-57 -173.5v-612h-291v1536h291zM-45 1757l330 170l329 -170v-229l-329 162l-330 -162v229z" />
    <glyph glyph-name="Hbar" unicode="&#x126;" horiz-adv-x="1513" 
d="M1360 1454v-194h123v-222h-123v-1038h-299v600h-608v-600h-299v1038h-123v222h123v194h299v-194h608v194h299zM453 874h608v164h-608v-164z" />
    <glyph glyph-name="hbar" unicode="&#x127;" horiz-adv-x="1239" 
d="M424 1536v-125h283v-225h-283v-211q43 57 119 90t178 33q190 0 292.5 -116t102.5 -312v-670h-291v637q0 99 -44.5 155t-137.5 56q-105 0 -162 -62.5t-57 -173.5v-612h-291v1186h-133v225h133v125h291z" />
    <glyph glyph-name="Itilde" unicode="&#x128;" horiz-adv-x="606" 
d="M453 1454v-1454h-299v1454h299zM442 1569q-68 0 -157.5 38t-132.5 38q-32 0 -50.5 -18.5t-21.5 -49.5h-172q5 120 72.5 195t187.5 75q68 0 158 -37.5t133 -37.5q62 0 69 67h172q-5 -120 -72 -195t-186 -75z" />
    <glyph glyph-name="itilde" unicode="&#x129;" horiz-adv-x="557" 
d="M418 1229q-68 0 -158 38t-133 38q-32 0 -50.5 -18.5t-21.5 -49.5h-172q5 120 72.5 195t187.5 75q68 0 158 -37.5t133 -37.5q63 0 70 67h172q-5 -120 -72 -195t-186 -75zM424 1073v-1073h-291v1073h291z" />
    <glyph glyph-name="Imacron" unicode="&#x12a;" horiz-adv-x="606" 
d="M453 1454v-1454h-299v1454h299zM686 1798v-221h-764v221h764z" />
    <glyph glyph-name="imacron" unicode="&#x12b;" horiz-adv-x="557" 
d="M662 1475v-222h-764v222h764zM424 1073v-1073h-291v1073h291z" />
    <glyph glyph-name="Ibreve" unicode="&#x12c;" horiz-adv-x="606" 
d="M453 1454v-1454h-299v1454h299zM303 1720q137 0 137 152h203q0 -158 -91 -246t-249 -88t-249 88t-91 246h203q0 -152 137 -152z" />
    <glyph glyph-name="ibreve" unicode="&#x12d;" horiz-adv-x="557" 
d="M279 1380q137 0 137 152h202q0 -158 -90.5 -246t-248.5 -88t-249 88t-91 246h202q0 -76 35.5 -114t102.5 -38zM424 1073v-1073h-291v1073h291z" />
    <glyph glyph-name="Iogonek" unicode="&#x12e;" horiz-adv-x="606" 
d="M360 -236l64 -147q-60 -43 -154 -43q-101 0 -164 66.5t-63 169.5q0 158 111 262v1382h299v-1454h-113q-102 -73 -102 -176q0 -32 18.5 -53t52.5 -21q30 0 51 14z" />
    <glyph glyph-name="iogonek" unicode="&#x12f;" horiz-adv-x="557" 
d="M393 -236l64 -147q-60 -43 -154 -43q-101 0 -164 66.5t-63 169.5q0 114 57 198v1065h291v-1073h-51q-103 -74 -103 -176q0 -32 19 -53t53 -21q30 0 51 14zM279 1212q-77 0 -127 49t-50 125t50 126.5t127 50.5q76 0 126 -50t50 -127q0 -76 -49.5 -125t-126.5 -49z" />
    <glyph glyph-name="Idotaccent" unicode="&#x130;" horiz-adv-x="606" 
d="M453 1454v-1454h-299v1454h299zM303 1556q-77 0 -126.5 49.5t-49.5 125.5q0 77 49.5 126.5t126.5 49.5t126.5 -49.5t49.5 -126.5q0 -76 -49.5 -125.5t-126.5 -49.5z" />
    <glyph glyph-name="dotlessi" unicode="&#x131;" horiz-adv-x="557" 
d="M424 1073v-1073h-291v1073h291z" />
    <glyph glyph-name="Jcircumflex" unicode="&#x134;" horiz-adv-x="1187" 
d="M756 469v985h299v-977q0 -229 -137.5 -366.5t-368.5 -137.5q-228 0 -366 125t-138 346q0 27 1.5 52t3.5 36l1 11h299q-6 -38 -6 -99q0 -97 55 -151.5t150 -54.5q99 0 153 62.5t54 168.5zM580 1763l329 170l330 -170v-229l-330 162l-329 -162v229z" />
    <glyph glyph-name="jcircumflex" unicode="&#x135;" horiz-adv-x="557" 
d="M-51 1376l330 170l329 -170v-229l-329 162l-330 -162v229zM133 -426v1499h291v-1499h-291z" />
    <glyph glyph-name="Kcommaaccent" unicode="&#x136;" horiz-adv-x="1419" 
d="M1456 0h-369l-413 625l-221 -242v-383h-299v1454h299v-692q109 113 591 692h390l-553 -604zM625 -94h245q7 -31 7 -88q0 -53 -13 -101.5t-34 -84t-46.5 -66t-51 -50.5t-46.5 -34.5t-34 -20.5l-13 -6l-141 168l15 7.5t33 22.5t42.5 38t33.5 53.5t15 69.5q0 23 -3 46t-6 34
z" />
    <glyph glyph-name="kcommaaccent" unicode="&#x137;" horiz-adv-x="1167" 
d="M815 1073h365l-402 -457l430 -616h-344l-278 424l-162 -184v-240h-291v1536h291v-950zM520 -94h246q6 -31 6 -88q0 -73 -24.5 -137t-59 -103.5t-69.5 -69t-59 -41.5l-25 -12l-142 168l15 7.5t33 22.5t42.5 38t33.5 53.5t15 69.5q0 23 -3 46t-6 34z" />
    <glyph glyph-name="Lacute" unicode="&#x139;" horiz-adv-x="1120" 
d="M1098 274v-274h-944v1454h299v-1180h645zM291 1927h301l-164 -350h-262z" />
    <glyph glyph-name="lacute" unicode="&#x13a;" horiz-adv-x="557" 
d="M424 0h-291v1536h291v-1536zM274 2009h301l-163 -350h-262z" />
    <glyph glyph-name="Lcommaaccent" unicode="&#x13b;" horiz-adv-x="1120" 
d="M1098 274v-274h-944v1454h299v-1180h645zM526 -94h246q6 -31 6 -88q0 -73 -24.5 -137t-59 -103.5t-69.5 -69t-59 -41.5l-25 -12l-142 168q6 3 15.5 7.5t33.5 22.5t42.5 38t33.5 53.5t15 69.5q0 23 -3.5 46t-6.5 34z" />
    <glyph glyph-name="lcommaaccent" unicode="&#x13c;" horiz-adv-x="557" 
d="M424 0h-291v1536h291v-1536zM152 -94h245q6 -31 6 -88q0 -73 -24.5 -137t-59 -103.5t-69.5 -69t-60 -41.5l-24 -12l-141 168l15 7.5t33 22.5t42.5 38t33.5 53.5t15 69.5q0 23 -3 46t-6 34z" />
    <glyph glyph-name="Lcaron" unicode="&#x13d;" horiz-adv-x="1120" 
d="M1098 274v-274h-944v1454h299v-1180h645zM700 1454h246q6 -31 6 -88q0 -73 -24.5 -137t-59 -103.5t-69.5 -68.5t-59 -41l-25 -12l-142 167q6 3 15.5 7.5t33.5 22.5t42.5 38t33.5 53.5t15 69.5q0 23 -3.5 46t-6.5 34z" />
    <glyph glyph-name="lcaron" unicode="&#x13e;" horiz-adv-x="557" 
d="M424 0h-291v1536h291v-1536zM608 1536h246q6 -31 6 -88q0 -73 -24.5 -137t-59 -103.5t-69.5 -69t-59 -41.5l-25 -12l-142 168q6 3 15.5 7.5t33.5 22.5t42.5 38t33.5 53.5t15 69.5q0 23 -3.5 46t-6.5 34z" />
    <glyph glyph-name="Lslash" unicode="&#x141;" horiz-adv-x="1120" 
d="M1098 274v-274h-944v492l-144 -37v247l144 37v715h299v-635l180 47v-248l-180 -47v-297h645z" />
    <glyph glyph-name="lslash" unicode="&#x142;" horiz-adv-x="557" 
d="M424 0h-291v496l-145 -41v239l145 41v801h291v-719l145 41v-240l-145 -40v-578z" />
    <glyph glyph-name="Nacute" unicode="&#x143;" horiz-adv-x="1533" 
d="M444 961v-961h-290v1454h301l635 -960v960h290v-1454h-301zM762 1927h301l-164 -350h-262z" />
    <glyph glyph-name="nacute" unicode="&#x144;" horiz-adv-x="1239" 
d="M401 1073v-131q38 72 121 114t199 42q190 0 292.5 -116t102.5 -312v-670h-291v637q0 99 -44.5 155t-137.5 56q-104 0 -161.5 -62.5t-57.5 -171.5v-614h-291v1073h268zM600 1556h301l-164 -350h-262z" />
    <glyph glyph-name="Ncommaaccent" unicode="&#x145;" horiz-adv-x="1533" 
d="M444 961v-961h-290v1454h301l635 -960v960h290v-1454h-301zM653 -94h246q6 -31 6 -88q0 -53 -13 -101.5t-34 -84t-46 -66t-50.5 -50.5t-46.5 -34.5t-34 -20.5l-13 -6l-142 168q6 3 15.5 7.5t33.5 22.5t42.5 38t33.5 53.5t15 69.5q0 23 -3 46t-7 34z" />
    <glyph glyph-name="ncommaaccent" unicode="&#x146;" horiz-adv-x="1239" 
d="M401 1073v-131q38 72 121 114t199 42q190 0 292.5 -116t102.5 -312v-670h-291v637q0 99 -44.5 155t-137.5 56q-104 0 -161.5 -62.5t-57.5 -171.5v-614h-291v1073h268zM514 -94h246q6 -31 6 -88q0 -53 -13 -101.5t-34 -84t-46.5 -66t-51 -50.5t-46.5 -34.5t-34 -20.5
l-13 -6l-141 168l15 7.5t33 22.5t42.5 38t33.5 53.5t15 69.5q0 23 -3 46t-6 34z" />
    <glyph glyph-name="Ncaron" unicode="&#x147;" horiz-adv-x="1533" 
d="M444 961v-961h-290v1454h301l635 -960v960h290v-1454h-301zM766 1534l-330 170v229l330 -161l330 161v-229z" />
    <glyph glyph-name="ncaron" unicode="&#x148;" horiz-adv-x="1239" 
d="M401 1073v-131q38 72 121 114t199 42q190 0 292.5 -116t102.5 -312v-670h-291v637q0 99 -44.5 155t-137.5 56q-104 0 -161.5 -62.5t-57.5 -171.5v-614h-291v1073h268zM618 1147l-329 170v229l329 -162l330 162v-229z" />
    <glyph glyph-name="Eng" unicode="&#x14a;" horiz-adv-x="1533" 
d="M1090 4l-646 957v-961h-290v1454h301l635 -942v942h290v-1362q0 -102 -23.5 -190t-71 -161.5t-126.5 -125.5t-184 -74l-109 228q115 29 169.5 79t54.5 156z" />
    <glyph glyph-name="eng" unicode="&#x14b;" horiz-adv-x="1239" 
d="M825 90v547q0 99 -44.5 155t-137.5 56q-104 0 -161.5 -62.5t-57.5 -171.5v-614h-291v1073h268v-131q38 72 121 114t199 42q190 0 292.5 -116t102.5 -312v-516q0 -102 -23.5 -190t-71 -161.5t-126.5 -125.5t-184 -74l-109 227q109 28 166 89.5t57 170.5z" />
    <glyph glyph-name="Omacron" unicode="&#x14c;" horiz-adv-x="1683" 
d="M1597 727q0 -216 -96.5 -389t-269 -271t-389.5 -98q-162 0 -303 57.5t-240.5 157.5t-156 241t-56.5 302t56.5 302t156 241t240.5 157.5t303 57.5q217 0 389.5 -98t269 -271t96.5 -389zM1282 727q0 214 -122.5 343.5t-317.5 129.5t-318 -130t-123 -343t123 -343t318 -130
t317.5 129.5t122.5 343.5zM1223 1798v-221h-764v221h764z" />
    <glyph glyph-name="omacron" unicode="&#x14d;" horiz-adv-x="1257" 
d="M629 -25q-167 0 -297 77t-198 204.5t-68 280.5t68 280t198 204t297 77t297 -77t198 -204t68 -280t-68 -280.5t-198 -204.5t-297 -77zM356 537q0 -141 77 -223.5t196 -82.5t195.5 82.5t76.5 223.5t-76.5 223t-195.5 82t-196 -82t-77 -223zM1010 1475v-222h-764v222h764z
" />
    <glyph glyph-name="Obreve" unicode="&#x14e;" horiz-adv-x="1683" 
d="M1597 727q0 -216 -96.5 -389t-269 -271t-389.5 -98q-162 0 -303 57.5t-240.5 157.5t-156 241t-56.5 302t56.5 302t156 241t240.5 157.5t303 57.5q217 0 389.5 -98t269 -271t96.5 -389zM1282 727q0 214 -122.5 343.5t-317.5 129.5t-318 -130t-123 -343t123 -343t318 -130
t317.5 129.5t122.5 343.5zM842 1718q137 0 137 152h203q0 -158 -91 -246t-249 -88t-249 88t-91 246h203q0 -152 137 -152z" />
    <glyph glyph-name="obreve" unicode="&#x14f;" horiz-adv-x="1257" 
d="M629 -25q-167 0 -297 77t-198 204.5t-68 280.5t68 280t198 204t297 77t297 -77t198 -204t68 -280t-68 -280.5t-198 -204.5t-297 -77zM356 537q0 -141 77 -223.5t196 -82.5t195.5 82.5t76.5 223.5t-76.5 223t-195.5 82t-196 -82t-77 -223zM629 1380q137 0 137 152h203
q0 -158 -91 -246t-249 -88t-249 88t-91 246h203q0 -152 137 -152z" />
    <glyph glyph-name="Ohungarumlaut" unicode="&#x150;" horiz-adv-x="1683" 
d="M1597 727q0 -216 -96.5 -389t-269 -271t-389.5 -98q-162 0 -303 57.5t-240.5 157.5t-156 241t-56.5 302t56.5 302t156 241t240.5 157.5t303 57.5q217 0 389.5 -98t269 -271t96.5 -389zM1282 727q0 214 -122.5 343.5t-317.5 129.5t-318 -130t-123 -343t123 -343t318 -130
t317.5 129.5t122.5 343.5zM647 1929h301l-184 -350h-242zM1026 1929h301l-184 -350h-242z" />
    <glyph glyph-name="ohungarumlaut" unicode="&#x151;" horiz-adv-x="1257" 
d="M629 -25q-167 0 -297 77t-198 204.5t-68 280.5t68 280t198 204t297 77t297 -77t198 -204t68 -280t-68 -280.5t-198 -204.5t-297 -77zM356 537q0 -141 77 -223.5t196 -82.5t195.5 82.5t76.5 223.5t-76.5 223t-195.5 82t-196 -82t-77 -223zM412 1536h301l-185 -350h-241z
M791 1536h301l-185 -350h-241z" />
    <glyph glyph-name="OE" unicode="&#x152;" horiz-adv-x="2418" 
d="M2316 274v-274h-1046v117q-178 -148 -434 -148q-156 0 -293.5 54t-238.5 151.5t-159.5 240.5t-58.5 312t58.5 312t159.5 240.5t238.5 151.5t293.5 54q257 0 434 -150v119h1046v-274h-747v-306h717v-274h-717v-326h747zM836 1208q-198 0 -316.5 -130t-118.5 -351
t118.5 -351t316.5 -130t316 129.5t118 351.5t-118 351.5t-316 129.5z" />
    <glyph glyph-name="oe" unicode="&#x153;" horiz-adv-x="2035" 
d="M629 -25q-167 0 -297 77t-198 204.5t-68 280.5t68 280t198 204t297 77q253 0 413 -170q74 80 176 125t222 45q155 0 277.5 -73.5t188.5 -200.5t66 -285l-4 -86h-778q15 -110 83 -169t177 -59q69 0 125.5 30t81.5 87h293q-48 -165 -186 -266t-322 -101q-248 0 -400 168
q-158 -168 -413 -168zM1194 662h487q-15 92 -79 147t-164 55q-98 0 -161.5 -54t-82.5 -148zM629 231q119 0 195.5 82.5t76.5 223.5t-76.5 223t-195.5 82t-196 -82t-77 -223t77 -223.5t196 -82.5z" />
    <glyph glyph-name="Racute" unicode="&#x154;" horiz-adv-x="1380" 
d="M1358 0h-346l-273 551h-286v-551h-299v1454h659q232 0 358.5 -125t126.5 -330q0 -147 -66 -255t-192 -160zM999 999q0 82 -47.5 131.5t-138.5 49.5h-360v-355h360q92 0 139 46t47 128zM664 1927h301l-164 -350h-262z" />
    <glyph glyph-name="racute" unicode="&#x155;" horiz-adv-x="763" 
d="M739 1081v-272q-30 6 -57 6q-130 0 -194 -67.5t-64 -212.5v-535h-291v1073h268v-139q92 149 304 149zM385 1556h301l-164 -350h-262z" />
    <glyph glyph-name="Rcommaaccent" unicode="&#x156;" horiz-adv-x="1380" 
d="M1358 0h-346l-273 551h-286v-551h-299v1454h659q232 0 358.5 -125t126.5 -330q0 -147 -66 -255t-192 -160zM999 999q0 82 -47.5 131.5t-138.5 49.5h-360v-355h360q92 0 139 46t47 128zM606 -94h246q6 -31 6 -88q0 -73 -24.5 -137t-59 -103.5t-69.5 -69t-59 -41.5l-25 -12
l-142 168l15 7.5t33 22.5t42.5 38t33.5 53.5t15 69.5q0 23 -3 46t-6 34z" />
    <glyph glyph-name="rcommaaccent" unicode="&#x157;" horiz-adv-x="763" 
d="M739 1081v-272q-30 6 -57 6q-130 0 -194 -67.5t-64 -212.5v-535h-291v1073h268v-139q92 149 304 149zM152 -94h245q6 -31 6 -88q0 -73 -24.5 -137t-59 -103.5t-69.5 -69t-60 -41.5l-24 -12l-141 168l15 7.5t33 22.5t42.5 38t33.5 53.5t15 69.5q0 23 -3 46t-6 34z" />
    <glyph glyph-name="Rcaron" unicode="&#x158;" horiz-adv-x="1380" 
d="M1358 0h-346l-273 551h-286v-551h-299v1454h659q232 0 358.5 -125t126.5 -330q0 -147 -66 -255t-192 -160zM999 999q0 82 -47.5 131.5t-138.5 49.5h-360v-355h360q92 0 139 46t47 128zM686 1538l-330 170v229l330 -161l330 161v-229z" />
    <glyph glyph-name="rcaron" unicode="&#x159;" horiz-adv-x="763" 
d="M739 1081v-272q-30 6 -57 6q-130 0 -194 -67.5t-64 -212.5v-535h-291v1073h268v-139q92 149 304 149zM424 1147l-330 170v229l330 -162l330 162v-229z" />
    <glyph glyph-name="Sacute" unicode="&#x15a;" horiz-adv-x="1316" 
d="M649 238q120 0 188 44.5t68 123.5q0 46 -26.5 78.5t-71.5 51.5t-103.5 34t-123 30t-129 33.5t-123 50.5t-103.5 76t-71.5 114.5t-26.5 161.5q0 124 61.5 225t183.5 162.5t285 61.5q124 0 226.5 -39t169.5 -106t104.5 -154.5t40.5 -186.5h-293q-5 98 -71.5 159t-180.5 61
q-104 0 -167.5 -46t-63.5 -118q0 -46 27 -79t72.5 -52.5t104.5 -34.5t124 -30t130 -34t124 -51.5t104.5 -77t72.5 -116t27 -164.5q0 -196 -158.5 -320.5t-416.5 -124.5q-117 0 -212 28t-158 75t-106 111t-63 132.5t-22 143.5h295q6 -97 77.5 -160t204.5 -63zM639 1929h301
l-164 -350h-262z" />
    <glyph glyph-name="sacute" unicode="&#x15b;" horiz-adv-x="1026" 
d="M514 -25q-122 0 -212 29.5t-142 82.5t-78.5 117t-32.5 144h295q3 -59 48 -99t130 -40q81 0 124.5 26.5t43.5 71.5q0 36 -33 58t-85.5 33t-116 21.5t-127 30.5t-116 51.5t-85.5 93t-33 148.5q0 150 118.5 252.5t311.5 102.5q93 0 168.5 -23t124 -59t82 -85t48.5 -97.5
t18 -98.5h-281q-5 55 -46.5 92t-115.5 37q-69 0 -108 -29t-39 -75q0 -29 20.5 -48t54.5 -29.5t79 -18.5t94 -17t98 -22t94 -36.5t79 -57t54.5 -88t20.5 -124.5q0 -150 -121.5 -247t-333.5 -97zM508 1556h301l-164 -350h-262z" />
    <glyph glyph-name="Scircumflex" unicode="&#x15c;" horiz-adv-x="1316" 
d="M649 238q120 0 188 44.5t68 123.5q0 46 -26.5 78.5t-71.5 51.5t-103.5 34t-123 30t-129 33.5t-123 50.5t-103.5 76t-71.5 114.5t-26.5 161.5q0 124 61.5 225t183.5 162.5t285 61.5q124 0 226.5 -39t169.5 -106t104.5 -154.5t40.5 -186.5h-293q-5 98 -71.5 159t-180.5 61
q-104 0 -167.5 -46t-63.5 -118q0 -46 27 -79t72.5 -52.5t104.5 -34.5t124 -30t130 -34t124 -51.5t104.5 -77t72.5 -116t27 -164.5q0 -196 -158.5 -320.5t-416.5 -124.5q-117 0 -212 28t-158 75t-106 111t-63 132.5t-22 143.5h295q6 -97 77.5 -160t204.5 -63zM332 1767
l330 170l329 -170v-229l-329 162l-330 -162v229z" />
    <glyph glyph-name="scircumflex" unicode="&#x15d;" horiz-adv-x="1026" 
d="M514 -25q-122 0 -212 29.5t-142 82.5t-78.5 117t-32.5 144h295q3 -59 48 -99t130 -40q81 0 124.5 26.5t43.5 71.5q0 36 -33 58t-85.5 33t-116 21.5t-127 30.5t-116 51.5t-85.5 93t-33 148.5q0 150 118.5 252.5t311.5 102.5q93 0 168.5 -23t124 -59t82 -85t48.5 -97.5
t18 -98.5h-281q-5 55 -46.5 92t-115.5 37q-69 0 -108 -29t-39 -75q0 -29 20.5 -48t54.5 -29.5t79 -18.5t94 -17t98 -22t94 -36.5t79 -57t54.5 -88t20.5 -124.5q0 -150 -121.5 -247t-333.5 -97zM207 1376l330 170l329 -170v-229l-329 162l-330 -162v229z" />
    <glyph glyph-name="Scedilla" unicode="&#x15e;" horiz-adv-x="1316" 
d="M500 -442l75 125q5 -5 14.5 -12t40 -19t62.5 -12q37 0 60.5 17t23.5 52q0 31 -20.5 49.5t-61.5 18.5q-16 0 -31.5 -5.5t-22.5 -10.5l-7 -5l-90 51l43 166q-133 6 -234 50.5t-159.5 114.5t-88 151t-32.5 172h295q6 -97 77.5 -160t204.5 -63q120 0 188 44.5t68 123.5
q0 46 -26.5 78.5t-71.5 51.5t-103.5 34t-123 30t-129 33.5t-123 50.5t-103.5 76t-71.5 114.5t-26.5 161.5q0 124 61.5 225t183.5 162.5t285 61.5q124 0 226.5 -39t169.5 -106t104.5 -154.5t40.5 -186.5h-293q-5 98 -71.5 159t-180.5 61q-104 0 -167.5 -46t-63.5 -118
q0 -46 27 -79t72.5 -52.5t104.5 -34.5t124 -30t130 -34t124 -51.5t104.5 -77t72.5 -116t27 -164.5q0 -179 -132 -299t-353 -142l-18 -69q8 4 45 4q83 0 136.5 -54.5t53.5 -140.5q0 -105 -65.5 -164t-165.5 -59q-65 0 -117.5 16.5t-71.5 33.5z" />
    <glyph glyph-name="scedilla" unicode="&#x15f;" horiz-adv-x="1026" 
d="M369 -442l75 125q5 -5 14.5 -12t40 -19t62.5 -12q37 0 60.5 17t23.5 52q0 31 -20.5 49.5t-61.5 18.5q-16 0 -31.5 -5.5t-22.5 -10.5l-7 -5l-90 51l45 170q-106 7 -185 38.5t-125 83.5t-69.5 113.5t-28.5 135.5h295q3 -59 48 -99t130 -40q81 0 124.5 26.5t43.5 71.5
q0 36 -33 58t-85.5 33t-116 21.5t-127 30.5t-116 51.5t-85.5 93t-33 148.5q0 150 118.5 252.5t311.5 102.5q93 0 168.5 -23t124 -59t82 -85t48.5 -97.5t18 -98.5h-281q-5 55 -46.5 92t-115.5 37q-69 0 -108 -29t-39 -75q0 -29 20.5 -48t54.5 -29.5t79 -18.5t94 -17t98 -22
t94 -36.5t79 -57t54.5 -88t20.5 -124.5q0 -134 -100 -227.5t-277 -111.5l-19 -74q8 4 45 4q84 0 137.5 -54.5t53.5 -140.5q0 -105 -65.5 -164t-165.5 -59q-65 0 -117.5 16.5t-72.5 33.5z" />
    <glyph glyph-name="Scaron" unicode="&#x160;" horiz-adv-x="1316" 
d="M649 238q120 0 188 44.5t68 123.5q0 46 -26.5 78.5t-71.5 51.5t-103.5 34t-123 30t-129 33.5t-123 50.5t-103.5 76t-71.5 114.5t-26.5 161.5q0 124 61.5 225t183.5 162.5t285 61.5q124 0 226.5 -39t169.5 -106t104.5 -154.5t40.5 -186.5h-293q-5 98 -71.5 159t-180.5 61
q-104 0 -167.5 -46t-63.5 -118q0 -46 27 -79t72.5 -52.5t104.5 -34.5t124 -30t130 -34t124 -51.5t104.5 -77t72.5 -116t27 -164.5q0 -196 -158.5 -320.5t-416.5 -124.5q-117 0 -212 28t-158 75t-106 111t-63 132.5t-22 143.5h295q6 -97 77.5 -160t204.5 -63zM655 1536
l-329 170v229l329 -161l330 161v-229z" />
    <glyph glyph-name="scaron" unicode="&#x161;" horiz-adv-x="1026" 
d="M514 -25q-122 0 -212 29.5t-142 82.5t-78.5 117t-32.5 144h295q3 -59 48 -99t130 -40q81 0 124.5 26.5t43.5 71.5q0 36 -33 58t-85.5 33t-116 21.5t-127 30.5t-116 51.5t-85.5 93t-33 148.5q0 150 118.5 252.5t311.5 102.5q93 0 168.5 -23t124 -59t82 -85t48.5 -97.5
t18 -98.5h-281q-5 55 -46.5 92t-115.5 37q-69 0 -108 -29t-39 -75q0 -29 20.5 -48t54.5 -29.5t79 -18.5t94 -17t98 -22t94 -36.5t79 -57t54.5 -88t20.5 -124.5q0 -150 -121.5 -247t-333.5 -97zM532 1147l-329 170v229l329 -162l330 162v-229z" />
    <glyph glyph-name="Tcommaaccent" unicode="&#x162;" horiz-adv-x="1118" 
d="M1108 1454v-280h-399v-1174h-299v1174h-400v280h1098zM434 -94h246q6 -31 6 -88q0 -73 -24.5 -137t-59 -103.5t-69.5 -69t-59 -41.5l-25 -12l-142 168l15 7.5t33 22.5t42.5 38t33.5 53.5t15 69.5q0 23 -3 46t-6 34z" />
    <glyph glyph-name="tcommaaccent" unicode="&#x163;" horiz-adv-x="638" 
d="M461 844v-844h-291v844h-145v229h145v266h291v-266h157v-229h-157zM256 -94h246q6 -31 6 -88q0 -53 -13 -101.5t-34 -84t-46.5 -66t-51 -50.5t-46.5 -34.5t-34 -20.5l-13 -6l-141 168l15 7.5t33 22.5t42.5 38t33.5 53.5t15 69.5q0 23 -3 46t-6 34z" />
    <glyph glyph-name="Tcaron" unicode="&#x164;" horiz-adv-x="1118" 
d="M1108 1454v-280h-399v-1174h-299v1174h-400v280h1098zM559 1538l-330 170v229l330 -161l330 161v-229z" />
    <glyph glyph-name="tcaron" unicode="&#x165;" horiz-adv-x="638" 
d="M461 844v-844h-291v844h-145v229h145v266h291v-266h157v-229h-157zM618 1536h232q6 -29 6 -78q0 -64 -23 -120t-56 -90.5t-65.5 -60t-55.5 -35.5l-23 -11l-135 147q5 2 14 6.5t32 19.5t40.5 32.5t32 46.5t14.5 61q0 20 -3.5 40.5t-6.5 31.5z" />
    <glyph glyph-name="Tbar" unicode="&#x166;" horiz-adv-x="1118" 
d="M1108 1454v-280h-399v-330h231v-221h-231v-623h-299v623h-234v221h234v330h-400v280h1098z" />
    <glyph glyph-name="tbar" unicode="&#x167;" horiz-adv-x="638" 
d="M461 844v-137h151v-226h-151v-481h-291v481h-113v226h113v137h-145v229h145v266h291v-266h157v-229h-157z" />
    <glyph glyph-name="Utilde" unicode="&#x168;" horiz-adv-x="1519" 
d="M760 -31q-126 0 -236 39t-196 114.5t-135.5 197.5t-49.5 278v856h299v-864q0 -160 79.5 -252t238.5 -92t238 92t79 252v864h299v-856q0 -156 -49.5 -278t-135 -197.5t-195.5 -114.5t-236 -39zM897 1569q-68 0 -158 38t-133 38q-64 0 -71 -68h-173q5 120 73 195t188 75
q68 0 157.5 -37.5t132.5 -37.5q63 0 70 67h172q-5 -120 -72 -195t-186 -75z" />
    <glyph glyph-name="utilde" unicode="&#x169;" horiz-adv-x="1220" 
d="M610 -25q-242 0 -364.5 115t-122.5 369v614h291v-618q0 -219 196 -219q197 0 197 219v618h291v-614q0 -254 -123 -369t-365 -115zM760 1229q-68 0 -158 38t-133 38q-32 0 -50.5 -18.5t-21.5 -49.5h-172q5 120 72.5 195t187.5 75q68 0 158 -37.5t133 -37.5q63 0 70 67h172
q-5 -120 -72 -195t-186 -75z" />
    <glyph glyph-name="Umacron" unicode="&#x16a;" horiz-adv-x="1519" 
d="M760 -31q-126 0 -236 39t-196 114.5t-135.5 197.5t-49.5 278v856h299v-864q0 -160 79.5 -252t238.5 -92t238 92t79 252v864h299v-856q0 -156 -49.5 -278t-135 -197.5t-195.5 -114.5t-236 -39zM1141 1798v-221h-764v221h764z" />
    <glyph glyph-name="umacron" unicode="&#x16b;" horiz-adv-x="1220" 
d="M610 -25q-242 0 -364.5 115t-122.5 369v614h291v-618q0 -219 196 -219q197 0 197 219v618h291v-614q0 -254 -123 -369t-365 -115zM997 1475v-222h-764v222h764z" />
    <glyph glyph-name="Ubreve" unicode="&#x16c;" horiz-adv-x="1519" 
d="M760 -31q-126 0 -236 39t-196 114.5t-135.5 197.5t-49.5 278v856h299v-864q0 -160 79.5 -252t238.5 -92t238 92t79 252v864h299v-856q0 -156 -49.5 -278t-135 -197.5t-195.5 -114.5t-236 -39zM760 1720q137 0 137 152h203q0 -158 -91 -246t-249 -88t-249 88t-91 246h203
q0 -152 137 -152z" />
    <glyph glyph-name="ubreve" unicode="&#x16d;" horiz-adv-x="1220" 
d="M610 -25q-242 0 -364.5 115t-122.5 369v614h291v-618q0 -219 196 -219q197 0 197 219v618h291v-614q0 -254 -123 -369t-365 -115zM614 1380q67 0 102.5 38t35.5 114h202q0 -158 -91 -246t-249 -88t-249 88t-91 246h203q0 -152 137 -152z" />
    <glyph glyph-name="Uring" unicode="&#x16e;" horiz-adv-x="1519" 
d="M760 -31q-126 0 -236 39t-196 114.5t-135.5 197.5t-49.5 278v856h299v-864q0 -160 79.5 -252t238.5 -92t238 92t79 252v864h299v-856q0 -156 -49.5 -278t-135 -197.5t-195.5 -114.5t-236 -39zM662 1761q0 -44 26.5 -73t71.5 -29t71.5 29t26.5 73t-26.5 73.5t-71.5 29.5
t-71.5 -29.5t-26.5 -73.5zM504 1761q0 107 72 180.5t184 73.5t184 -73.5t72 -180.5t-72 -180.5t-184 -73.5t-184 73.5t-72 180.5z" />
    <glyph glyph-name="uring" unicode="&#x16f;" horiz-adv-x="1220" 
d="M610 -25q-242 0 -364.5 115t-122.5 369v614h291v-618q0 -219 196 -219q197 0 197 219v618h291v-614q0 -254 -123 -369t-365 -115zM516 1423q0 -44 26.5 -73t71.5 -29t72 29t27 73t-27 73.5t-72 29.5t-71.5 -29.5t-26.5 -73.5zM358 1423q0 107 72 180.5t184 73.5
t184 -73.5t72 -180.5t-72 -180.5t-184 -73.5t-184 73.5t-72 180.5z" />
    <glyph glyph-name="Uhungarumlaut" unicode="&#x170;" horiz-adv-x="1519" 
d="M760 -31q-126 0 -236 39t-196 114.5t-135.5 197.5t-49.5 278v856h299v-864q0 -160 79.5 -252t238.5 -92t238 92t79 252v864h299v-856q0 -156 -49.5 -278t-135 -197.5t-195.5 -114.5t-236 -39zM553 1927h301l-184 -350h-242zM932 1927h301l-184 -350h-242z" />
    <glyph glyph-name="uhungarumlaut" unicode="&#x171;" horiz-adv-x="1220" 
d="M610 -25q-242 0 -364.5 115t-122.5 369v614h291v-618q0 -219 196 -219q197 0 197 219v618h291v-614q0 -254 -123 -369t-365 -115zM383 1536h301l-184 -350h-242zM762 1536h301l-184 -350h-242z" />
    <glyph glyph-name="Uogonek" unicode="&#x172;" horiz-adv-x="1519" 
d="M905 -236l64 -147q-60 -43 -154 -43q-101 0 -164 66.5t-63 169.5q0 98 39 172q-104 18 -190 64.5t-152.5 121t-104 185t-37.5 245.5v856h299v-864q0 -160 79.5 -252t238.5 -92t238 92t79 252v864h299v-856q0 -141 -40.5 -255t-112.5 -189.5t-165 -120.5t-204 -58
q-72 -64 -72 -151q0 -32 19 -53t53 -21q30 0 51 14z" />
    <glyph glyph-name="uogonek" unicode="&#x173;" horiz-adv-x="1220" 
d="M801 -236l63 -147q-60 -43 -153 -43q-102 0 -165 67t-63 169q0 98 39 170q-199 19 -299 133.5t-100 345.5v614h291v-618q0 -219 196 -219q197 0 197 219v618h291v-614q0 -209 -83 -322.5t-247 -146.5q-90 -70 -90 -166q0 -32 19 -53t53 -21q30 0 51 14z" />
    <glyph glyph-name="Wcircumflex" unicode="&#x174;" horiz-adv-x="2142" 
d="M1069 1028l-295 -1028h-315l-447 1454h336l270 -1028h5l290 1028h324l291 -1028h4l270 1028h328l-447 -1454h-315l-295 1028h-4zM741 1765l330 170l330 -170v-229l-330 162l-330 -162v229z" />
    <glyph glyph-name="wcircumflex" unicode="&#x175;" horiz-adv-x="1734" 
d="M1087 0l-217 664h-4l-219 -664h-272l-375 1073h301l215 -706l221 706h262l224 -711l217 711h295l-375 -1073h-273zM537 1376l329 170l330 -170v-229l-330 162l-329 -162v229z" />
    <glyph glyph-name="Ycircumflex" unicode="&#x176;" horiz-adv-x="1306" 
d="M993 1454h346l-536 -946v-508h-299v508l-537 946h346l338 -641h4zM324 1765l329 170l330 -170v-229l-330 162l-329 -162v229z" />
    <glyph glyph-name="ycircumflex" unicode="&#x177;" horiz-adv-x="1130" 
d="M244 -426l180 444l-424 1055h309l258 -717l260 717h303l-600 -1499h-286zM236 1376l329 170l330 -170v-229l-330 162l-329 -162v229z" />
    <glyph glyph-name="Ydieresis" unicode="&#x178;" horiz-adv-x="1306" 
d="M993 1454h346l-536 -946v-508h-299v508l-537 946h346l338 -641h4zM467 1556q-67 0 -110.5 43t-43.5 109q0 68 43.5 111t110.5 43q66 0 110 -43.5t44 -110.5q0 -66 -44 -109t-110 -43zM840 1556q-67 0 -110.5 43t-43.5 109q0 68 43 111t111 43q66 0 109.5 -43.5
t43.5 -110.5q0 -66 -43.5 -109t-109.5 -43z" />
    <glyph glyph-name="Zacute" unicode="&#x179;" horiz-adv-x="1368" 
d="M1270 1454v-262l-791 -918h799v-274h-1188v262l791 918h-783v274h1172zM657 1927h301l-163 -350h-263z" />
    <glyph glyph-name="zacute" unicode="&#x17a;" horiz-adv-x="1116" 
d="M1006 834l-539 -582h547v-252h-912v240l537 581h-528v252h895v-239zM541 1556h301l-164 -350h-262z" />
    <glyph glyph-name="Zdotaccent" unicode="&#x17b;" horiz-adv-x="1368" 
d="M1270 1454v-262l-791 -918h799v-274h-1188v262l791 918h-783v274h1172zM684 1556q-77 0 -126.5 49.5t-49.5 125.5q0 77 50 126.5t126 49.5t126 -49.5t50 -126.5q0 -76 -49.5 -125.5t-126.5 -49.5z" />
    <glyph glyph-name="zdotaccent" unicode="&#x17c;" horiz-adv-x="1116" 
d="M1006 834l-539 -582h547v-252h-912v240l537 581h-528v252h895v-239zM557 1212q-77 0 -126.5 49t-49.5 125q0 77 50 127t126 50t126 -50t50 -127q0 -76 -49.5 -125t-126.5 -49z" />
    <glyph glyph-name="Zcaron" unicode="&#x17d;" horiz-adv-x="1368" 
d="M1270 1454v-262l-791 -918h799v-274h-1188v262l791 918h-783v274h1172zM682 1536l-330 170v229l330 -161l330 161v-229z" />
    <glyph glyph-name="zcaron" unicode="&#x17e;" horiz-adv-x="1116" 
d="M1006 834l-539 -582h547v-252h-912v240l537 581h-528v252h895v-239zM561 1147l-330 170v229l330 -162l330 162v-229z" />
    <glyph glyph-name="florin" unicode="&#x192;" 
d="M715 662l-133 -678q-32 -162 -130.5 -247t-256.5 -85q-44 0 -92 11t-73 21l-26 11l94 237q41 -22 88 -22q94 0 113 104l125 648h-152l47 251h154l59 291q32 162 131 247t257 85q44 0 91.5 -11t72.5 -21l26 -11l-94 -238q-41 23 -88 23q-94 0 -113 -104l-51 -261h149
l-47 -251h-151z" />
    <glyph glyph-name="Aringacute" unicode="&#x1fa;" horiz-adv-x="1409" 
d="M313 0h-313l547 1454h315l547 -1454h-322l-88 250h-598zM453 1761q0 85 46 150t124 90l88 246h237l-121 -258q64 -33 101 -93.5t37 -134.5q0 -107 -72 -180.5t-184 -73.5t-184 73.5t-72 180.5zM702 1085h-4l-200 -567h405zM610 1761q0 -44 27 -73t72 -29t71.5 29t26.5 73
t-26.5 73.5t-71.5 29.5t-72 -29.5t-27 -73.5z" />
    <glyph glyph-name="aringacute" unicode="&#x1fb;" horiz-adv-x="1300" 
d="M379 1423q0 85 46 150t124 90l88 246h237l-120 -258q64 -33 100.5 -93.5t36.5 -134.5q0 -107 -72 -180.5t-184 -73.5t-184 73.5t-72 180.5zM537 1423q0 -44 26.5 -73t71.5 -29t71.5 29t26.5 73t-26.5 73.5t-71.5 29.5t-71.5 -29.5t-26.5 -73.5zM899 1073h268v-1073h-268
v131q-52 -74 -139.5 -115t-200.5 -41q-151 0 -264.5 76t-171 202.5t-57.5 283.5t57.5 283t171 202t264.5 76q113 0 200.5 -41t139.5 -115v131zM885 537q0 133 -72 219t-192 86t-192.5 -86t-72.5 -219t72.5 -219.5t192.5 -86.5q119 0 191.5 86.5t72.5 219.5z" />
    <glyph glyph-name="AEacute" unicode="&#x1fc;" horiz-adv-x="2023" 
d="M289 0h-334l762 1454h1204v-274h-747v-306h716v-274h-716v-326h747v-274h-1047v250h-460zM870 1153l-321 -635h325v635h-4zM1161 1927h301l-164 -350h-262z" />
    <glyph glyph-name="aeacute" unicode="&#x1fd;" horiz-adv-x="1906" 
d="M475 -25q-195 0 -296 92t-101 236q0 141 101.5 226t314.5 118l278 43v10q0 77 -50.5 117.5t-141.5 40.5q-88 0 -135.5 -36t-55.5 -95h-287q6 74 35.5 137.5t84.5 117.5t148.5 85t215.5 31q251 0 372 -127q146 127 353 127q155 0 277.5 -73.5t188.5 -200.5t66 -285l-4 -86
h-778q15 -110 83 -169t177 -59q69 0 125.5 30t81.5 87h293q-48 -165 -186 -266t-322 -101q-129 0 -236 49t-180 138q-127 -187 -422 -187zM520 201q124 0 188 64.5t64 174.5v43l-250 -43q-89 -16 -126.5 -48t-37.5 -79q0 -57 38 -84.5t124 -27.5zM1309 864q-98 0 -161.5 -54
t-82.5 -148h487q-15 92 -79 147t-164 55zM946 1556h301l-164 -350h-262z" />
    <glyph glyph-name="Oslashacute" unicode="&#x1fe;" horiz-adv-x="1683" 
d="M838 1929h301l-164 -350h-262zM1597 727q0 -216 -96.5 -389t-269 -271t-389.5 -98q-254 0 -443 131l-159 -178l-125 115l155 176q-184 209 -184 514q0 161 56.5 302t156 241t240.5 157.5t303 57.5q247 0 440 -131l160 178l127 -117l-158 -176q89 -100 137.5 -231
t48.5 -281zM1282 727q0 158 -76 281l-610 -686q103 -68 246 -68q195 0 317.5 129.5t122.5 343.5zM401 727q0 -165 76 -283l608 686q-106 70 -243 70q-195 0 -318 -130t-123 -343z" />
    <glyph glyph-name="oslashacute" unicode="&#x1ff;" horiz-adv-x="1257" 
d="M606 1556h301l-164 -350h-262zM629 -25q-184 0 -326 95l-113 -129l-102 92l113 127q-135 153 -135 377q0 153 68 280t198 204t297 77q177 0 315 -88l111 125l102 -93l-106 -122q68 -75 104.5 -174.5t36.5 -208.5q0 -153 -68 -280.5t-198 -204.5t-297 -77zM901 537
q0 98 -39 168l-381 -433q65 -41 148 -41q119 0 195.5 82.5t76.5 223.5zM356 537q0 -89 33 -160l377 428q-58 37 -137 37q-119 0 -196 -82t-77 -223z" />
    <glyph glyph-name="Scommaaccent" unicode="&#x218;" horiz-adv-x="1316" 
d="M649 238q120 0 188 44.5t68 123.5q0 46 -26.5 78.5t-71.5 51.5t-103.5 34t-123 30t-129 33.5t-123 50.5t-103.5 76t-71.5 114.5t-26.5 161.5q0 124 61.5 225t183.5 162.5t285 61.5q124 0 226.5 -39t169.5 -106t104.5 -154.5t40.5 -186.5h-293q-5 98 -71.5 159t-180.5 61
q-104 0 -167.5 -46t-63.5 -118q0 -46 27 -79t72.5 -52.5t104.5 -34.5t124 -30t130 -34t124 -51.5t104.5 -77t72.5 -116t27 -164.5q0 -196 -158.5 -320.5t-416.5 -124.5q-117 0 -212 28t-158 75t-106 111t-63 132.5t-22 143.5h295q6 -97 77.5 -160t204.5 -63zM553 -94h246
q6 -31 6 -88q0 -53 -13 -101.5t-34 -84t-46.5 -66t-51 -50.5t-46.5 -34.5t-34 -20.5l-13 -6l-141 168l15 7.5t33 22.5t42.5 38t33.5 53.5t15 69.5q0 23 -3 46t-6 34z" />
    <glyph glyph-name="scommaaccent" unicode="&#x219;" horiz-adv-x="1026" 
d="M514 -25q-122 0 -212 29.5t-142 82.5t-78.5 117t-32.5 144h295q3 -59 48 -99t130 -40q81 0 124.5 26.5t43.5 71.5q0 36 -33 58t-85.5 33t-116 21.5t-127 30.5t-116 51.5t-85.5 93t-33 148.5q0 150 118.5 252.5t311.5 102.5q93 0 168.5 -23t124 -59t82 -85t48.5 -97.5
t18 -98.5h-281q-5 55 -46.5 92t-115.5 37q-69 0 -108 -29t-39 -75q0 -29 20.5 -48t54.5 -29.5t79 -18.5t94 -17t98 -22t94 -36.5t79 -57t54.5 -88t20.5 -124.5q0 -150 -121.5 -247t-333.5 -97zM412 -94h245q7 -31 7 -88q0 -53 -13 -101.5t-34 -84t-46.5 -66t-51 -50.5
t-46.5 -34.5t-34 -20.5l-13 -6l-141 168l15 7.5t33 22.5t42.5 38t33.5 53.5t15 69.5q0 23 -3 46t-6 34z" />
    <glyph glyph-name="circumflex" unicode="&#x2c6;" horiz-adv-x="1003" 
d="M176 1376l330 170l330 -170v-229l-330 162l-330 -162v229z" />
    <glyph glyph-name="caron" unicode="&#x2c7;" horiz-adv-x="1003" 
d="M506 1147l-330 170v229l330 -162l330 162v-229z" />
    <glyph glyph-name="breve" unicode="&#x2d8;" horiz-adv-x="815" 
d="M408 1380q137 0 137 152h203q0 -158 -91 -246t-249 -88t-249 88t-91 246h202q0 -76 35.5 -114t102.5 -38z" />
    <glyph glyph-name="dotaccent" unicode="&#x2d9;" horiz-adv-x="557" 
d="M279 1212q-77 0 -127 49t-50 125t50 126.5t127 50.5q76 0 126 -50t50 -127q0 -76 -49.5 -125t-126.5 -49z" />
    <glyph glyph-name="ring" unicode="&#x2da;" horiz-adv-x="634" 
d="M225 1423q0 -44 27 -73t72 -29t71.5 29t26.5 73t-26.5 73.5t-71.5 29.5t-72 -29.5t-27 -73.5zM68 1423q0 107 72 180.5t184 73.5t184 -73.5t72 -180.5t-72 -180.5t-184 -73.5t-184 73.5t-72 180.5z" />
    <glyph glyph-name="ogonek" unicode="&#x2db;" horiz-adv-x="516" 
d="M385 -236l64 -147q-60 -43 -154 -43q-101 0 -164 66.5t-63 169.5q0 208 192 323l121 -123q-119 -79 -119 -186q0 -32 19 -53t53 -21q30 0 51 14z" />
    <glyph glyph-name="tilde" unicode="&#x2dc;" horiz-adv-x="882" 
d="M580 1229q-68 0 -158 38t-133 38q-32 0 -50.5 -18.5t-21.5 -49.5h-172q5 120 72.5 195t187.5 75q68 0 158 -37.5t133 -37.5q63 0 70 67h172q-5 -120 -72 -195t-186 -75z" />
    <glyph glyph-name="hungarumlaut" unicode="&#x2dd;" horiz-adv-x="940" 
d="M193 1536h301l-185 -350h-241zM571 1536h301l-184 -350h-242z" />
    <glyph glyph-name="pi" unicode="&#x3c0;" horiz-adv-x="1554" 
d="M47 729q0 212 97.5 385t271 272t387.5 99t387.5 -99t271 -272t97.5 -385t-97.5 -385t-271 -272t-387.5 -99t-387.5 99t-271 272t-97.5 385zM268 729q0 -244 148 -399.5t387 -155.5t386.5 155.5t147.5 399.5t-147.5 399.5t-386.5 155.5t-387 -155.5t-148 -399.5zM514 332
v772h356q150 0 229 -80t79 -203q0 -120 -81 -200t-227 -80h-143v-209h-213zM727 727h131q107 0 107 94t-107 94h-131v-188z" />
    <glyph glyph-name="Wgrave" unicode="&#x1e80;" horiz-adv-x="2142" 
d="M1069 1028l-295 -1028h-315l-447 1454h336l270 -1028h5l290 1028h324l291 -1028h4l270 1028h328l-447 -1454h-315l-295 1028h-4zM784 1927h301l125 -350h-262z" />
    <glyph glyph-name="wgrave" unicode="&#x1e81;" horiz-adv-x="1734" 
d="M1087 0l-217 664h-4l-219 -664h-272l-375 1073h301l215 -706l221 706h262l224 -711l217 711h295l-375 -1073h-273zM571 1556h301l125 -350h-262z" />
    <glyph glyph-name="Wacute" unicode="&#x1e82;" horiz-adv-x="2142" 
d="M1069 1028l-295 -1028h-315l-447 1454h336l270 -1028h5l290 1028h324l291 -1028h4l270 1028h328l-447 -1454h-315l-295 1028h-4zM1071 1927h301l-164 -350h-262z" />
    <glyph glyph-name="wacute" unicode="&#x1e83;" horiz-adv-x="1734" 
d="M1087 0l-217 664h-4l-219 -664h-272l-375 1073h301l215 -706l221 706h262l224 -711l217 711h295l-375 -1073h-273zM864 1556h301l-164 -350h-262z" />
    <glyph glyph-name="Wdieresis" unicode="&#x1e84;" horiz-adv-x="2142" 
d="M1069 1028l-295 -1028h-315l-447 1454h336l270 -1028h5l290 1028h324l291 -1028h4l270 1028h328l-447 -1454h-315l-295 1028h-4zM885 1556q-67 0 -110.5 43t-43.5 109q0 68 43.5 111t110.5 43q66 0 109.5 -43.5t43.5 -110.5q0 -66 -43.5 -109t-109.5 -43zM1257 1556
q-67 0 -110 43t-43 109q0 68 43 111t110 43q66 0 110 -43.5t44 -110.5q0 -66 -44 -109t-110 -43z" />
    <glyph glyph-name="wdieresis" unicode="&#x1e85;" horiz-adv-x="1734" 
d="M1087 0l-217 664h-4l-219 -664h-272l-375 1073h301l215 -706l221 706h262l224 -711l217 711h295l-375 -1073h-273zM680 1235q-67 0 -110.5 42.5t-43.5 108.5q0 68 43 111t111 43q66 0 110 -43.5t44 -110.5q0 -66 -44 -108.5t-110 -42.5zM1053 1235q-67 0 -110.5 42.5
t-43.5 108.5q0 68 43.5 111t110.5 43q66 0 109.5 -43.5t43.5 -110.5q0 -66 -43.5 -108.5t-109.5 -42.5z" />
    <glyph glyph-name="Ygrave" unicode="&#x1ef2;" horiz-adv-x="1306" 
d="M993 1454h346l-536 -946v-508h-299v508l-537 946h346l338 -641h4zM373 1927h301l125 -350h-262z" />
    <glyph glyph-name="ygrave" unicode="&#x1ef3;" horiz-adv-x="1130" 
d="M244 -426l180 444l-424 1055h309l258 -717l260 717h303l-600 -1499h-286zM291 1556h301l125 -350h-262z" />
    <glyph glyph-name="endash" unicode="&#x2013;" horiz-adv-x="1024" 
d="M1024 674v-275h-1024v275h1024z" />
    <glyph glyph-name="emdash" unicode="&#x2014;" horiz-adv-x="2048" 
d="M2048 674v-275h-2048v275h2048z" />
    <glyph glyph-name="quoteleft" unicode="&#x2018;" horiz-adv-x="526" 
d="M342 872h-297l197 582h239z" />
    <glyph glyph-name="quoteright" unicode="&#x2019;" horiz-adv-x="526" 
d="M184 1454h297l-196 -582h-240z" />
    <glyph glyph-name="quotesinglbase" unicode="&#x201a;" horiz-adv-x="526" 
d="M184 330h297l-196 -582h-240z" />
    <glyph glyph-name="quotedblleft" unicode="&#x201c;" horiz-adv-x="952" 
d="M768 872h-297l197 582h239zM342 872h-297l197 582h239z" />
    <glyph glyph-name="quotedblright" unicode="&#x201d;" horiz-adv-x="952" 
d="M184 1454h297l-196 -582h-240zM610 1454h297l-196 -582h-240z" />
    <glyph glyph-name="quotedblbase" unicode="&#x201e;" horiz-adv-x="952" 
d="M184 330h297l-196 -582h-240zM610 330h297l-196 -582h-240z" />
    <glyph glyph-name="dagger" unicode="&#x2020;" horiz-adv-x="1103" 
d="M696 -164h-290v977h-336v260h336v381h290v-381h338v-260h-338v-977z" />
    <glyph glyph-name="daggerdbl" unicode="&#x2021;" horiz-adv-x="1103" 
d="M406 1454h290v-381h338v-260h-338v-336h338v-260h-338v-381h-290v381h-336v260h336v336h-336v260h336v381z" />
    <glyph glyph-name="bullet" unicode="&#x2022;" horiz-adv-x="1058" 
d="M227 731q0 126 87.5 214.5t213.5 88.5t214.5 -88.5t88.5 -214.5t-88.5 -213.5t-214.5 -87.5t-213.5 87.5t-87.5 213.5z" />
    <glyph glyph-name="ellipsis" unicode="&#x2026;" horiz-adv-x="1572" 
d="M254 -16q-82 0 -133 50t-51 132q0 80 51.5 132t132.5 52q80 0 132 -52t52 -132q0 -81 -52 -131.5t-132 -50.5zM786 -16q-82 0 -133 50t-51 132q0 80 51.5 132t132.5 52q80 0 132.5 -52.5t52.5 -131.5q0 -81 -52.5 -131.5t-132.5 -50.5zM1319 -16q-82 0 -133 50t-51 132
q0 80 51.5 132t132.5 52q79 0 131.5 -52t52.5 -132q0 -81 -52 -131.5t-132 -50.5z" />
    <glyph glyph-name="perthousand" unicode="&#x2030;" horiz-adv-x="2746" 
d="M479 0l803 1454h211l-803 -1454h-211zM381 1001q0 -99 13.5 -155.5t37.5 -77t64 -20.5q60 0 87 53.5t27 199.5t-27 201t-87 55t-87.5 -55t-27.5 -201zM156 1001q0 140 33.5 241.5t111.5 162.5t195 61t195 -61t111.5 -162.5t33.5 -241.5q0 -104 -19.5 -186.5t-59.5 -145
t-106 -96.5t-155 -34t-155 34t-106 96.5t-59.5 145t-19.5 186.5zM1362 451q0 -146 27.5 -200t87.5 -54t87 54t27 200t-27 201t-87 55t-87.5 -55t-27.5 -201zM1137 451q0 104 19.5 187t59.5 146t106 97t155 34t155 -34t106 -97t59.5 -146t19.5 -187q0 -140 -33.5 -241
t-111.5 -161.5t-195 -60.5t-195 60.5t-111.5 161.5t-33.5 241zM2136 451q0 -146 27.5 -200t87.5 -54t87 54t27 200t-27 201t-87 55t-87.5 -55t-27.5 -201zM1911 451q0 104 19.5 187t59.5 146t106 97t155 34t155 -34t106 -97t59.5 -146t19.5 -187q0 -140 -33.5 -241
t-111.5 -161.5t-195 -60.5t-195 60.5t-111.5 161.5t-33.5 241z" />
    <glyph glyph-name="guilsinglleft" unicode="&#x2039;" horiz-adv-x="688" 
d="M90 537l221 442h287l-225 -442l225 -443h-287z" />
    <glyph glyph-name="guilsinglright" unicode="&#x203a;" horiz-adv-x="688" 
d="M377 979l221 -442l-221 -443h-287l225 443l-225 442h287z" />
    <glyph glyph-name="fraction" unicode="&#x2044;" horiz-adv-x="833" 
d="M-90 0l803 1454h211l-803 -1454h-211z" />
    <glyph glyph-name="zerosuperior" unicode="&#x2070;" horiz-adv-x="831" 
d="M301 1335q0 -146 27.5 -200t87.5 -54t87 54t27 200t-27 201t-87 55t-87.5 -55t-27.5 -201zM76 1335q0 140 33.5 241.5t111.5 162.5t195 61t195 -61t111.5 -162.5t33.5 -241.5t-33.5 -241t-111.5 -161.5t-195 -60.5t-195 60.5t-111.5 161.5t-33.5 241z" />
    <glyph glyph-name="foursuperior" unicode="&#x2074;" horiz-adv-x="815" 
d="M762 1253v-186h-115v-174h-201v174h-389v182l369 531h221v-527h115zM446 1513l-180 -260h180v260z" />
    <glyph glyph-name="fivesuperior" unicode="&#x2075;" horiz-adv-x="819" 
d="M80 1174h225q4 -42 28 -71.5t73 -29.5q54 0 82 30.5t28 86.5q0 53 -28.5 84t-81.5 31q-24 0 -43 -7t-29 -17.5t-16.5 -21t-8.5 -17.5l-2 -7h-207l76 545h510v-209h-338l-14 -98q43 22 106 22q79 0 139 -27t94 -72.5t50 -97t16 -108.5q0 -142 -93 -230t-245 -88
q-137 0 -223.5 83t-97.5 219z" />
    <glyph glyph-name="sixsuperior" unicode="&#x2076;" horiz-adv-x="800" 
d="M352 1780h281q-175 -186 -234 -281q14 2 45 2q141 0 220 -87.5t79 -221.5q0 -137 -91 -228.5t-240 -91.5q-155 0 -245.5 96t-90.5 242q0 248 276 570zM516 1192q0 54 -29 87.5t-75 33.5q-47 0 -77 -33.5t-30 -87.5q0 -53 30 -86t77 -33q46 0 75 33.5t29 85.5z" />
    <glyph glyph-name="sevensuperior" unicode="&#x2077;" horiz-adv-x="739" 
d="M698 1780v-197q-117 -163 -176.5 -324.5t-87.5 -365.5h-229q50 391 244 678h-179v-101h-217v310h645z" />
    <glyph glyph-name="eightsuperior" unicode="&#x2078;" horiz-adv-x="794" 
d="M397 1063q49 0 75 24.5t26 63.5q0 38 -26.5 64t-74.5 26t-74 -26t-26 -64q0 -39 25.5 -63.5t74.5 -24.5zM397 1442q45 0 70 23t25 61q0 33 -25 56.5t-70 23.5t-69.5 -23.5t-24.5 -56.5q0 -38 24.5 -61t69.5 -23zM397 870q-149 0 -235 73.5t-86 195.5q0 141 102 209
q-84 75 -84 184q0 118 83 192t220 74t220 -74t83 -192q0 -109 -84 -184q103 -69 103 -209q0 -121 -86.5 -195t-235.5 -74z" />
    <glyph glyph-name="ninesuperior" unicode="&#x2079;" horiz-adv-x="800" 
d="M449 893h-281q172 183 233 281q-21 -3 -45 -3q-141 0 -220 87.5t-79 222.5q0 137 91.5 228t240.5 91q155 0 245.5 -96t90.5 -242q0 -247 -276 -569zM285 1481q0 -54 29 -87.5t75 -33.5q47 0 77 33.5t30 87.5q0 52 -30 85t-77 33q-46 0 -75 -33t-29 -85z" />
    <glyph glyph-name="zeroinferior" unicode="&#x2080;" horiz-adv-x="831" 
d="M301 117q0 -146 27.5 -200t87.5 -54t87 54t27 200t-27 201t-87 55t-87.5 -55t-27.5 -201zM76 117q0 140 33.5 241.5t111.5 162.5t195 61t195 -61t111.5 -162.5t33.5 -241.5t-33.5 -241t-111.5 -161.5t-195 -60.5t-195 60.5t-111.5 161.5t-33.5 241z" />
    <glyph glyph-name="oneinferior" unicode="&#x2081;" horiz-adv-x="598" 
d="M451 563v-887h-224v666h-170v160l205 61h189z" />
    <glyph glyph-name="twoinferior" unicode="&#x2082;" horiz-adv-x="802" 
d="M717 -326h-631v172l342 291q40 34 55 65t15 72q0 42 -25 70.5t-74 28.5q-46 0 -73 -27t-27 -76l4 -49h-221q-2 22 -2 51q0 135 92 222.5t227 87.5q142 0 233 -85t91 -208q0 -98 -35.5 -164.5t-122.5 -132.5l-141 -109h293v-209z" />
    <glyph glyph-name="threeinferior" unicode="&#x2083;" horiz-adv-x="796" 
d="M295 20v185h90q51 0 79 24.5t28 67.5q0 32 -26 56t-67 24q-49 0 -75.5 -29t-26.5 -76h-217q0 130 86 220t233 90t227.5 -71.5t80.5 -191.5q0 -62 -27.5 -114.5t-83.5 -81.5q61 -27 91 -79.5t30 -119.5q0 -116 -94 -193t-232 -77q-140 0 -222 78.5t-87 210.5h215
q6 -84 94 -84q39 0 62.5 21.5t23.5 53.5q0 43 -23 64.5t-79 21.5h-80z" />
    <glyph glyph-name="fourinferior" unicode="&#x2084;" horiz-adv-x="815" 
d="M762 35v-187h-115v-174h-201v174h-389v183l369 530h221v-526h115zM446 295l-180 -260h180v260z" />
    <glyph glyph-name="fiveinferior" unicode="&#x2085;" horiz-adv-x="819" 
d="M80 -45h225q4 -42 28 -71t73 -29q54 0 82 30t28 86q0 53 -28.5 84t-81.5 31q-24 0 -43 -7t-29 -17.5t-16.5 -21t-8.5 -17.5l-2 -7h-207l76 545h510v-209h-338l-14 -98q43 22 106 22q79 0 139 -27t94 -72.5t50 -97t16 -108.5q0 -141 -93 -229t-245 -88q-137 0 -223.5 82.5
t-97.5 218.5z" />
    <glyph glyph-name="sixinferior" unicode="&#x2086;" horiz-adv-x="800" 
d="M352 561h281q-177 -188 -234 -280q14 2 45 2q141 0 220 -87.5t79 -222.5q0 -137 -91 -228t-240 -91q-155 0 -245.5 96t-90.5 242q0 247 276 569zM516 -27q0 54 -29 87.5t-75 33.5q-47 0 -77 -33.5t-30 -87.5q0 -52 30 -85t77 -33q46 0 75 33t29 85z" />
    <glyph glyph-name="seveninferior" unicode="&#x2087;" horiz-adv-x="739" 
d="M698 561v-196q-117 -162 -176.5 -324.5t-87.5 -366.5h-229q50 391 244 678h-179v-100h-217v309h645z" />
    <glyph glyph-name="eightinferior" unicode="&#x2088;" horiz-adv-x="794" 
d="M397 -154q49 0 75 24.5t26 63.5q0 38 -26.5 64.5t-74.5 26.5t-74 -26.5t-26 -64.5q0 -39 25.5 -63.5t74.5 -24.5zM397 225q45 0 70 23t25 61q0 33 -25 56.5t-70 23.5t-69.5 -23.5t-24.5 -56.5q0 -38 24.5 -61t69.5 -23zM397 -346q-149 0 -235 73.5t-86 194.5
q0 141 102 209q-84 75 -84 184q0 118 83 192.5t220 74.5t220 -74.5t83 -192.5q0 -109 -84 -184q103 -69 103 -209q0 -121 -86.5 -194.5t-235.5 -73.5z" />
    <glyph glyph-name="nineinferior" unicode="&#x2089;" horiz-adv-x="800" 
d="M449 -326h-281q172 183 233 281q-14 -2 -45 -2q-141 0 -220 87.5t-79 221.5q0 137 91.5 228.5t240.5 91.5q155 0 245.5 -96t90.5 -242q0 -248 -276 -570zM285 262q0 -54 29 -87.5t75 -33.5q47 0 77 33.5t30 87.5q0 53 -30 86t-77 33q-46 0 -75 -33.5t-29 -85.5z" />
    <glyph glyph-name="Euro" unicode="&#x20ac;" 
d="M100 463v205h107q-2 38 -2 61l2 59h-107v205h133q60 241 225.5 366.5t401.5 125.5q64 0 125.5 -7.5t90.5 -15.5l30 -8v-270q-103 35 -246 35q-245 0 -321 -226h374v-205h-409q-2 -36 -2 -59q0 -43 2 -61h409v-205h-374q75 -223 321 -223q64 0 125.5 8.5t90.5 17.5l30 8
v-270q-103 -31 -246 -31q-236 0 -400.5 124.5t-223.5 365.5h-136z" />
    <glyph glyph-name="trademark" unicode="&#x2122;" horiz-adv-x="1728" 
d="M1225 1157l231 297h205v-840h-215v527l-217 -273h-8l-217 273v-527h-216v840h205zM702 1454v-207h-229v-633h-221v633h-229v207h679z" />
    <glyph glyph-name="minus" unicode="&#x2212;" 
d="M1133 674v-275h-1074v275h1074z" />
    <glyph glyph-name="approxequal" unicode="&#x2248;" 
d="M37 657q3 10 10.5 26t36.5 57.5t65.5 73t102.5 57.5t143 26q67 0 127 -14.5t97 -32.5t85.5 -32.5t94.5 -14.5q36 0 64 10t43.5 24.5t25.5 29t13 24.5l3 10l207 -125q-3 -10 -10.5 -26t-36.5 -57t-65.5 -72.5t-102.5 -57.5t-143 -26t-149 23.5t-135.5 47t-119.5 23.5
q-36 0 -64 -10t-43.5 -24.5t-25.5 -29.5t-13 -25l-3 -10zM37 221q3 10 10.5 26t36.5 57.5t65.5 73t102.5 57.5t143 26q67 0 127 -14.5t97 -32.5t85.5 -32.5t94.5 -14.5q36 0 64 10t43.5 24.5t25.5 29t13 24.5l3 10l207 -125q-3 -10 -10.5 -26t-36.5 -57.5t-65.5 -73
t-102.5 -57.5t-143 -26q-61 0 -120.5 15t-98.5 32.5t-89.5 32.5t-95.5 15q-36 0 -64 -10t-43.5 -24.5t-25.5 -29.5t-13 -25l-3 -10z" />
    <glyph glyph-name="notequal" unicode="&#x2260;" 
d="M1133 455v-275h-517l-67 -180h-311l67 180h-246v275h349l61 163h-410v275h514l68 180h311l-67 -180h248v-275h-353l-61 -163h414z" />
    <glyph glyph-name="lessequal" unicode="&#x2264;" 
d="M432 0l-391 537l391 536h344l-309 -399h686v-275h-686l309 -399h-344z" />
    <glyph glyph-name="greaterequal" unicode="&#x2265;" 
d="M1153 537l-391 -537h-344l309 399h-686v275h686l-309 399h344z" />
    <glyph glyph-name="hyphen.cap" horiz-adv-x="841" 
d="M752 877v-275h-662v275h662z" />
    <glyph glyph-name="exclamdown.cap" horiz-adv-x="577" 
d="M168 1006h242l51 -1008h-344zM289 1468q80 0 132 -50.5t52 -131.5q0 -80 -52.5 -132t-131.5 -52q-81 0 -133 52t-52 132q0 81 51.5 131.5t133.5 50.5z" />
    <glyph glyph-name="questiondown.cap" horiz-adv-x="1089" 
d="M1022 403q0 -189 -131 -311.5t-346 -122.5q-225 0 -351 120.5t-126 309.5q0 68 20 128t51.5 104t70 82.5t77 70.5t70 62t51.5 64t20 69l-4 41h287q4 -27 4 -45q0 -65 -19.5 -122.5t-50.5 -98.5t-69 -77.5t-75.5 -68t-68.5 -61.5t-50.5 -65.5t-19.5 -73.5q0 -80 50 -126
t131 -46q83 0 134.5 50t51.5 130q0 24 -3 51t-6 42l-3 15h291q14 -53 14 -121zM557 1470q82 0 133 -50t51 -132q0 -80 -51.5 -132t-132.5 -52q-79 0 -131.5 52t-52.5 132q0 81 52 131.5t132 50.5z" />
    <glyph glyph-name="endash.cap" horiz-adv-x="1024" 
d="M1024 877v-275h-1024v275h1024z" />
    <glyph glyph-name="emdash.cap" horiz-adv-x="2048" 
d="M2048 877v-275h-2048v275h2048z" />
    <glyph glyph-name="periodcentered.cap" horiz-adv-x="532" 
d="M266 547q-86 0 -141 54t-55 140q0 85 55 141t141 56q85 0 141 -56t56 -141q0 -86 -56 -140t-141 -54z" />
    <glyph glyph-name="parenleft.cap" horiz-adv-x="747" 
d="M481 727q0 -506 221 -938h-292q-109 180 -167.5 425t-58.5 513t58.5 513t167.5 425h292q-221 -432 -221 -938z" />
    <glyph glyph-name="parenright.cap" horiz-adv-x="747" 
d="M266 727q0 506 -221 938h293q109 -180 167 -424.5t58 -513.5t-58 -513.5t-167 -424.5h-293q221 432 221 938z" />
    <glyph glyph-name="bracketleft.cap" horiz-adv-x="690" 
d="M645 55v-268h-502v1876h502v-268h-229v-1340h229z" />
    <glyph glyph-name="bracketright.cap" horiz-adv-x="690" 
d="M45 -213v268h229v1340h-229v268h502v-1876h-502z" />
    <glyph glyph-name="braceleft.cap" horiz-adv-x="729" 
d="M596 -213q-197 0 -287 96t-90 289v315q0 113 -104 113h-33v250h33q104 0 104 113v315q0 193 90 289t287 96l88 -4v-268q-35 4 -70 4q-69 0 -95.5 -30.5t-26.5 -100.5v-306q0 -160 -103 -233q103 -76 103 -233v-306q0 -70 26.5 -100.5t95.5 -30.5l70 4v-268q-37 -4 -88 -4
z" />
    <glyph glyph-name="braceright.cap" horiz-adv-x="729" 
d="M133 -213l-88 4v268q35 -4 70 -4q69 0 96 30.5t27 100.5v306q0 155 100 233q-100 75 -100 233v306q0 70 -27 100.5t-96 30.5l-70 -4v268q37 4 88 4q197 0 287 -96t90 -289v-315q0 -113 104 -113h33v-250h-33q-104 0 -104 -113v-315q0 -193 -90 -289t-287 -96z" />
    <glyph glyph-name="at.cap" horiz-adv-x="1675" 
d="M985 774q0 66 -31 105t-96 39q-85 0 -134.5 -67.5t-49.5 -176.5q0 -73 37.5 -111.5t99.5 -38.5q83 0 128.5 73.5t45.5 176.5zM1262 297h239q-106 -157 -280 -247.5t-373 -90.5q-233 0 -408 97t-266.5 267.5t-91.5 391.5q0 164 60 309t163.5 247.5t247.5 162t307 59.5
q326 0 529.5 -179.5t203.5 -465.5q0 -100 -25.5 -184.5t-67.5 -142t-97.5 -98.5t-114.5 -60t-119 -19q-133 0 -190 92q-40 -49 -97.5 -70.5t-111.5 -21.5q-142 0 -226.5 88.5t-84.5 239.5q0 116 40.5 213.5t123.5 160t192 62.5q154 0 223 -98l17 69h188l-92 -456
q-4 -16 -4 -27q0 -32 17.5 -53t47.5 -21q79 0 135 88.5t56 227.5q0 155 -73.5 263.5t-195 159t-280.5 50.5q-252 0 -407.5 -165.5t-155.5 -426.5q0 -271 154.5 -424.5t416.5 -153.5q111 0 221 44t179 112z" />
    <glyph glyph-name="zero.slash" 
d="M596 -31q-130 0 -231.5 56.5t-166 158t-97.5 239t-33 304.5t33 304.5t97.5 239t166 158t231.5 56.5t231.5 -56.5t166 -158t97.5 -239t33 -304.5t-33 -304.5t-97.5 -239t-166 -158t-231.5 -56.5zM596 1202q-115 0 -170 -114.5t-55 -360.5q0 -159 20 -256l289 711
q-36 20 -84 20zM596 252q115 0 170 114.5t55 360.5q0 152 -20 246l-287 -705q33 -16 82 -16z" />
    <glyph glyph-name="commaaccentcomb" horiz-adv-x="509" 
d="M193 -94h245q6 -31 6 -88q0 -73 -24.5 -137t-59 -103.5t-69.5 -69t-59 -41.5l-25 -12l-141 168l15 7.5t33 22.5t42.5 38t33.5 53.5t15 69.5q0 23 -3 46t-6 34z" />
    <glyph glyph-name="zero.onum" horiz-adv-x="1310" 
d="M375 557q0 -144 77.5 -230.5t202.5 -86.5t203 86.5t78 230.5t-78 230.5t-203 86.5t-202.5 -86.5t-77.5 -230.5zM74 557q0 117 41.5 222.5t115 185.5t184 127t240.5 47q173 0 307.5 -81t204.5 -213t70 -288t-70 -288t-204.5 -213t-307.5 -81q-130 0 -240.5 47t-184 127
t-115 185.5t-41.5 222.5z" />
    <glyph glyph-name="one.onum" horiz-adv-x="763" 
d="M559 0h-295v819h-182v195l237 100h240v-1114z" />
    <glyph glyph-name="two.onum" horiz-adv-x="1095" 
d="M403 666h-294q-7 28 -7 59q0 184 122 299t325 115q87 0 164.5 -23.5t140 -69t99 -121.5t36.5 -173q0 -70 -21.5 -129.5t-66 -111t-92.5 -91t-121 -88.5l-110 -74h450v-258h-919v219l344 244q133 94 186 150t53 126q0 61 -38 100.5t-111 39.5t-109.5 -42t-36.5 -108
q0 -17 1.5 -33t3.5 -23z" />
    <glyph glyph-name="three.onum" horiz-adv-x="1146" 
d="M436 317v254h137q89 0 135 39t46 105t-43.5 108.5t-124.5 42.5q-88 0 -132 -55t-44 -133h-291q0 129 57.5 233t165 165t244.5 61q210 0 334 -111t124 -293q0 -89 -41 -163t-122 -117q176 -80 176 -299q0 -184 -134.5 -309.5t-347.5 -125.5t-346 126t-139 335h291
q5 -86 53.5 -137t140.5 -51q85 0 136 45t51 117q0 76 -47 119.5t-146 43.5h-133z" />
    <glyph glyph-name="four.onum" horiz-adv-x="1118" 
d="M1067 309v-258h-129v-305h-274v305h-633v215l600 848h307v-805h129zM365 309h299v422h-2z" />
    <glyph glyph-name="five.onum" horiz-adv-x="1138" 
d="M119 326l112 788h742v-258h-518l-35 -240q69 62 203 62q92 0 167 -27.5t124 -73t82 -106.5t47 -124t14 -130q0 -206 -137 -339.5t-355 -133.5q-201 0 -330.5 113t-144.5 299h289q13 -64 62.5 -109t123.5 -45q93 0 145 57.5t52 157.5q0 99 -52 158t-145 59
q-43 0 -78 -13.5t-55 -35t-28.5 -34t-14.5 -25.5h-270z" />
    <glyph glyph-name="six.onum" horiz-adv-x="1155" 
d="M520 1370h359q-265 -281 -373 -471q53 23 141 23q136 0 237.5 -63t152 -167t50.5 -233q0 -206 -139.5 -345t-361.5 -139q-228 0 -366 146t-138 366q0 382 438 883zM793 459q0 97 -56 158t-151 61q-93 0 -150 -61.5t-57 -157.5q0 -98 57 -159.5t150 -61.5q95 0 151 61.5
t56 159.5z" />
    <glyph glyph-name="seven.onum" horiz-adv-x="1038" 
d="M989 1114v-266q-165 -261 -249.5 -521t-127.5 -581h-303q87 625 361 1098h-334v-180h-295v450h948z" />
    <glyph glyph-name="eight.onum" horiz-adv-x="1126" 
d="M563 233q88 0 134 49t46 117q0 73 -48 119.5t-132 46.5t-132 -46.5t-48 -119.5q0 -68 46 -117t134 -49zM563 825q78 0 122 43.5t44 114.5q0 59 -42 104.5t-124 45.5t-124 -45.5t-42 -104.5q0 -71 44 -114.5t122 -43.5zM563 -25q-219 0 -346 110.5t-127 293.5
q0 97 41.5 184.5t126.5 141.5q-65 52 -100 128t-35 160q0 172 119 284t321 112t321.5 -112t119.5 -284q0 -84 -35.5 -160t-100.5 -128q85 -54 126.5 -141.5t41.5 -184.5q0 -183 -127 -293.5t-346 -110.5z" />
    <glyph glyph-name="nine.onum" horiz-adv-x="1138" 
d="M635 -256h-359q265 281 373 471q-51 -22 -141 -22q-136 0 -237.5 63t-152 166.5t-50.5 232.5q0 206 139.5 345t361.5 139q228 0 366 -146t138 -366q0 -382 -438 -883zM362 655q0 -97 56 -158t151 -61q93 0 150 61.5t57 157.5q0 98 -57 160t-150 62q-95 0 -151 -62
t-56 -160z" />
    <glyph glyph-name="zero.pnum" 
d="M596 -31q-130 0 -231.5 56.5t-166 158t-97.5 239t-33 304.5t33 304.5t97.5 239t166 158t231.5 56.5t231.5 -56.5t166 -158t97.5 -239t33 -304.5t-33 -304.5t-97.5 -239t-166 -158t-231.5 -56.5zM596 1202q-115 0 -170 -114.5t-55 -360.5t55 -360.5t170 -114.5t170 114.5
t55 360.5t-55 360.5t-170 114.5z" />
    <glyph glyph-name="one.pnum" horiz-adv-x="837" 
d="M602 1454v-1454h-299v1159h-221v195l278 100h242z" />
    <glyph glyph-name="two.pnum" horiz-adv-x="1155" 
d="M1085 0h-1001v246l569 553q62 59 85.5 112t23.5 119q0 81 -55 130.5t-142 49.5q-96 0 -146 -55.5t-50 -144.5q0 -24 1.5 -44t3.5 -28l1 -8h-295q-6 35 -6 84q0 210 136 340.5t355 130.5q226 0 361 -125.5t135 -323.5q0 -143 -53.5 -248t-186.5 -223l-329 -291h593v-274z
" />
    <glyph glyph-name="three.pnum" horiz-adv-x="1163" 
d="M444 621v247h136q105 0 158 46t53 124t-51 128.5t-146 50.5q-101 0 -153 -60.5t-52 -144.5h-291q0 201 138.5 337t357.5 136q222 0 353.5 -118t131.5 -310q0 -102 -48.5 -182t-147.5 -123q213 -81 213 -324q0 -194 -144.5 -326.5t-369.5 -132.5q-224 0 -365.5 129.5
t-148.5 343.5h290q5 -92 62 -148t162 -56q99 0 158 53t59 137q0 88 -54.5 140.5t-169.5 52.5h-131z" />
    <glyph glyph-name="four.pnum" horiz-adv-x="1206" 
d="M1139 557v-260h-140v-297h-274v297h-680v221l641 936h313v-897h140zM725 1065h-2l-348 -508h350v508z" />
    <glyph glyph-name="five.pnum" horiz-adv-x="1185" 
d="M115 604l121 850h792v-274h-567l-41 -287q34 34 97.5 59t133.5 25q100 0 180 -30t131.5 -79t85.5 -115t48 -133t14 -139q0 -224 -144 -368t-378 -144q-217 0 -354 120t-152 319h301q13 -69 66.5 -117.5t138.5 -48.5q102 0 162.5 65t60.5 174t-60.5 174.5t-162.5 65.5
q-41 0 -77 -12t-58 -29.5t-38.5 -34.5t-22.5 -29l-7 -12h-270z" />
    <glyph glyph-name="six.pnum" horiz-adv-x="1155" 
d="M588 -31q-158 0 -279.5 72.5t-184.5 193t-63 267.5q0 216 123.5 447t362.5 505h360q-295 -318 -426 -539q70 39 170 39q141 0 247 -65.5t159 -174t53 -241.5q0 -139 -65.5 -254t-185.5 -182.5t-271 -67.5zM807 473q0 107 -61 174.5t-158 67.5t-158 -67.5t-61 -174.5
t61 -174.5t158 -67.5t158 67.5t61 174.5z" />
    <glyph glyph-name="seven.pnum" horiz-adv-x="1044" 
d="M1018 1454v-266q-78 -136 -135.5 -260.5t-95 -229.5t-66 -226t-45.5 -223.5t-35 -248.5h-309q44 346 129 625t237 559h-362v-180h-295v450h977z" />
    <glyph glyph-name="eight.pnum" horiz-adv-x="1171" 
d="M586 -31q-233 0 -368.5 117t-135.5 309q0 107 48.5 204t143.5 153q-78 52 -117.5 135.5t-39.5 177.5q0 185 126.5 302.5t342.5 117.5t344.5 -119.5t128.5 -304.5q0 -95 -41 -176.5t-121 -132.5q95 -57 144 -154t49 -203q0 -192 -135.5 -309t-368.5 -117zM586 606
q-94 0 -149.5 -53t-55.5 -135q0 -77 53.5 -133t151.5 -56t151.5 56t53.5 133q0 82 -55.5 135t-149.5 53zM586 874q90 0 142 49t52 130q0 69 -50.5 122.5t-143.5 53.5t-142 -51.5t-49 -120.5q0 -81 51 -132t140 -51z" />
    <glyph glyph-name="nine.pnum" horiz-adv-x="1155" 
d="M567 1485q158 0 279.5 -72.5t184.5 -193t63 -267.5q0 -216 -123.5 -447t-362.5 -505h-360q296 323 426 537q-70 -37 -170 -37q-141 0 -247 65.5t-159 174t-53 241.5q0 139 65.5 254t185.5 182.5t271 67.5zM348 981q0 -107 61 -174.5t158 -67.5t158 67.5t61 174.5
t-61 174.5t-158 67.5t-158 -67.5t-61 -174.5z" />
    <glyph glyph-name="zero.dnom" horiz-adv-x="831" 
d="M301 440q0 -146 27.5 -200t87.5 -54t87 54t27 200t-27 201t-87 55t-87.5 -55t-27.5 -201zM76 440q0 140 33.5 241.5t111.5 162.5t195 61t195 -61t111.5 -162.5t33.5 -241.5t-33.5 -241t-111.5 -161.5t-195 -60.5t-195 60.5t-111.5 161.5t-33.5 241z" />
    <glyph glyph-name="one.dnom" horiz-adv-x="598" 
d="M451 887v-887h-224v666h-170v159l205 62h189z" />
    <glyph glyph-name="two.dnom" horiz-adv-x="802" 
d="M717 0h-631v172l342 291q40 34 55 65t15 72q0 42 -25 70t-74 28q-46 0 -73 -26.5t-27 -75.5l4 -49h-221q-2 22 -2 51q0 135 92 222t227 87q142 0 233 -85t91 -208q0 -98 -35.5 -164.5t-122.5 -132.5l-141 -108h293v-209z" />
    <glyph glyph-name="three.dnom" horiz-adv-x="796" 
d="M295 344v184h90q51 0 79 25t28 68q0 32 -26 55.5t-67 23.5q-50 0 -76 -28.5t-26 -75.5h-217q0 130 86 219.5t233 89.5q148 0 228 -71t80 -191q0 -62 -27.5 -115t-83.5 -82q61 -27 91 -79t30 -119q0 -116 -94.5 -193.5t-231.5 -77.5q-140 0 -222 78.5t-87 210.5h215
q6 -84 94 -84q39 0 62.5 22t23.5 54q0 43 -23 64.5t-79 21.5h-80z" />
    <glyph glyph-name="four.dnom" horiz-adv-x="815" 
d="M762 360v-186h-115v-174h-201v174h-389v182l369 531h221v-527h115zM446 621l-180 -261h180v261z" />
    <glyph glyph-name="five.dnom" horiz-adv-x="819" 
d="M80 279h225q4 -42 28 -71.5t73 -29.5q54 0 82 30.5t28 86.5q0 53 -28.5 84t-81.5 31q-24 0 -43 -7t-29 -17.5t-16.5 -21t-8.5 -17.5l-2 -7h-207l76 545h510v-209h-338l-14 -98q43 22 106 22q79 0 139 -27t94 -72.5t50 -97t16 -108.5q0 -142 -93 -230t-245 -88
q-137 0 -223.5 83t-97.5 219z" />
    <glyph glyph-name="six.dnom" horiz-adv-x="800" 
d="M352 885h281q-175 -186 -234 -281q14 2 45 2q141 0 220 -87.5t79 -221.5q0 -137 -91 -228.5t-240 -91.5q-155 0 -245.5 96t-90.5 242q0 248 276 570zM516 297q0 54 -29 87.5t-75 33.5q-47 0 -77 -33.5t-30 -87.5q0 -53 30 -86t77 -33q46 0 75 33.5t29 85.5z" />
    <glyph glyph-name="seven.dnom" horiz-adv-x="739" 
d="M698 887v-197q-117 -163 -176.5 -324.5t-87.5 -365.5h-229q50 391 244 678h-179v-100h-217v309h645z" />
    <glyph glyph-name="eight.dnom" horiz-adv-x="794" 
d="M397 170q49 0 75 24.5t26 63.5q0 38 -26.5 64t-74.5 26t-74 -26t-26 -64q0 -39 25.5 -63.5t74.5 -24.5zM397 549q45 0 70 23t25 61q0 33 -25 56.5t-70 23.5t-69.5 -23.5t-24.5 -56.5q0 -38 24.5 -61t69.5 -23zM397 -23q-149 0 -235 73.5t-86 195.5q0 141 102 209
q-84 75 -84 184q0 118 83 192t220 74t220 -74t83 -192q0 -109 -84 -184q103 -69 103 -209q0 -121 -86.5 -195t-235.5 -74z" />
    <glyph glyph-name="nine.dnom" horiz-adv-x="800" 
d="M449 0h-281q172 183 233 281q-14 -2 -45 -2q-141 0 -220 87.5t-79 221.5q0 137 91.5 228t240.5 91q155 0 245.5 -96t90.5 -242q0 -247 -276 -569zM285 588q0 -54 29 -87.5t75 -33.5q47 0 77 33.5t30 87.5q0 53 -30 86t-77 33q-46 0 -75 -33.5t-29 -85.5z" />
    <glyph glyph-name="zero.numerator" horiz-adv-x="831" 
d="M301 1008q0 -146 27.5 -200t87.5 -54t87 54t27 200t-27 201t-87 55t-87.5 -55t-27.5 -201zM76 1008q0 140 33.5 241.5t111.5 162.5t195 61t195 -61t111.5 -162.5t33.5 -241.5t-33.5 -241t-111.5 -161.5t-195 -60.5t-195 60.5t-111.5 161.5t-33.5 241z" />
    <glyph glyph-name="one.numerator" horiz-adv-x="598" 
d="M451 1454v-887h-224v666h-170v160l205 61h189z" />
    <glyph glyph-name="two.numerator" horiz-adv-x="802" 
d="M717 567h-631v172l342 291q40 34 55 65t15 72q0 42 -25 70.5t-74 28.5q-46 0 -73 -27t-27 -76l4 -49h-221q-2 22 -2 51q0 135 92 222.5t227 87.5q142 0 233 -85t91 -208q0 -98 -35.5 -164.5t-122.5 -132.5l-141 -109h293v-209z" />
    <glyph glyph-name="three.numerator" horiz-adv-x="796" 
d="M295 911v185h90q51 0 79 24.5t28 67.5q0 32 -26 56t-67 24q-49 0 -75.5 -29t-26.5 -76h-217q0 130 86 220t233 90t227.5 -71.5t80.5 -191.5q0 -62 -27.5 -114.5t-83.5 -81.5q61 -27 91 -79.5t30 -119.5q0 -116 -94 -193t-232 -77q-140 0 -222 78.5t-87 210.5h215
q6 -84 94 -84q39 0 62.5 21.5t23.5 53.5q0 43 -23 64.5t-79 21.5h-80z" />
    <glyph glyph-name="four.numerator" horiz-adv-x="815" 
d="M762 928v-187h-115v-174h-201v174h-389v183l369 530h221v-526h115zM446 1188l-180 -260h180v260z" />
    <glyph glyph-name="five.numerator" horiz-adv-x="819" 
d="M80 848h225q4 -42 28 -71t73 -29q54 0 82 30t28 86q0 53 -28.5 84t-81.5 31q-24 0 -43 -7t-29 -17.5t-16.5 -21t-8.5 -17.5l-2 -7h-207l76 545h510v-209h-338l-14 -98q43 22 106 22q79 0 139 -27t94 -72.5t50 -97t16 -108.5q0 -141 -93 -229t-245 -88q-137 0 -223.5 82.5
t-97.5 218.5z" />
    <glyph glyph-name="six.numerator" horiz-adv-x="800" 
d="M352 1454h281q-177 -188 -234 -280q14 2 45 2q141 0 220 -87.5t79 -222.5q0 -137 -91 -228t-240 -91q-155 0 -245.5 96t-90.5 242q0 247 276 569zM516 866q0 54 -29 87.5t-75 33.5q-47 0 -77 -33.5t-30 -87.5q0 -52 30 -85t77 -33q46 0 75 33t29 85z" />
    <glyph glyph-name="seven.numerator" horiz-adv-x="739" 
d="M698 1454v-197q-117 -163 -176.5 -324.5t-87.5 -365.5h-229q50 391 244 678h-179v-100h-217v309h645z" />
    <glyph glyph-name="eight.numerator" horiz-adv-x="794" 
d="M397 737q49 0 75 24.5t26 63.5q0 38 -26.5 64t-74.5 26t-74 -26t-26 -64q0 -39 25.5 -63.5t74.5 -24.5zM397 1116q45 0 70 23t25 61q0 33 -25 56.5t-70 23.5t-69.5 -23.5t-24.5 -56.5q0 -38 24.5 -61t69.5 -23zM397 545q-149 0 -235 73.5t-86 194.5q0 141 102 209
q-84 75 -84 184q0 118 83 192.5t220 74.5t220 -74.5t83 -192.5q0 -109 -84 -184q103 -69 103 -209q0 -121 -86.5 -194.5t-235.5 -73.5z" />
    <glyph glyph-name="nine.numerator" horiz-adv-x="800" 
d="M449 567h-281q172 183 233 281q-14 -2 -45 -2q-141 0 -220 87.5t-79 221.5q0 137 91.5 228.5t240.5 91.5q155 0 245.5 -96t90.5 -242q0 -248 -276 -570zM285 1155q0 -54 29 -87.5t75 -33.5q47 0 77 33.5t30 87.5q0 53 -30 86t-77 33q-46 0 -75 -33.5t-29 -85.5z" />
    <glyph glyph-name="Euro.oldstyle" horiz-adv-x="1204" 
d="M109 406v215h135q-2 20 -2 61v59h-133v215h167q62 211 215 322t367 111q62 0 121.5 -8.5t88.5 -16.5l28 -8v-277q-107 37 -238 37q-195 0 -270 -160h332v-215h-377q-2 -20 -2 -59q0 -43 2 -61h377v-215h-330q71 -158 268 -158q56 0 115.5 9t90.5 19l32 9v-275
q-99 -35 -238 -35q-215 0 -367.5 110t-214.5 321h-167z" />
    <glyph glyph-name="dollar.oldstyle" horiz-adv-x="1214" 
d="M547 -256v252q-208 21 -322 150t-114 303h290q0 -68 34 -124t112 -75v309l-58 16q-175 51 -258.5 155t-83.5 247q0 150 107.5 260t292.5 131v209h147v-209q184 -24 287.5 -151.5t103.5 -303.5h-290q0 52 -24.5 104t-76.5 77v-275l27 -8q188 -58 276 -155t88 -269
q0 -153 -106.5 -262t-284.5 -129v-252h-147zM438 985q0 -45 23.5 -74.5t85.5 -50.5v248q-52 -12 -80.5 -45t-28.5 -78zM791 387q0 85 -97 127v-258q47 19 72 55.5t25 75.5z" />
    <glyph glyph-name="cent.oldstyle" horiz-adv-x="1185" 
d="M524 -27v228q-179 26 -291 161.5t-112 325.5q0 189 112.5 325t290.5 161v237h142v-237q70 -9 131 -37t103 -66.5t74 -86.5t48.5 -96t21.5 -95h-280q-10 40 -36.5 70.5t-61.5 45.5v-444q77 33 98 119h278q-6 -60 -32 -121t-70.5 -116.5t-115.5 -95t-158 -50.5v-228h-142z
M395 688q0 -87 33.5 -146t95.5 -81v452q-61 -22 -95 -81t-34 -144z" />
    <glyph glyph-name="sterling.oldstyle" horiz-adv-x="1222" 
d="M160 504v196h92q-53 132 -53 265q0 186 127.5 305t339.5 119q205 0 334.5 -121t129.5 -318q0 -19 -2 -40t-4 -32l-2 -12h-291q9 31 9 80q0 79 -45 128.5t-129 49.5q-78 0 -127.5 -47t-49.5 -125q0 -56 16 -110.5t54 -141.5h297v-196h-244q2 -17 2 -35q0 -102 -47 -168
q34 -8 92.5 -28t107 -32t95.5 -12t92 25.5t66 50.5l22 25l162 -174q-4 -8 -13 -20.5t-42.5 -45t-73.5 -57.5t-107 -45.5t-143 -20.5q-81 0 -152.5 21.5t-137 43t-132.5 21.5q-30 0 -59 -10.5t-49.5 -25t-37 -29t-24.5 -24.5l-8 -11l-164 174q3 5 8.5 13t25 30t42 42t59.5 42
t78 35q82 46 82 141q0 40 -14 74h-182z" />
    <glyph glyph-name="florin.oldstyle" horiz-adv-x="948" 
d="M618 621l-126 -637q-32 -162 -131 -247t-257 -85q-44 0 -91.5 11t-72.5 21l-26 11l94 237q41 -22 88 -22q94 0 113 104l119 607h-152l47 251h154l39 187q34 163 131.5 247.5t255.5 84.5q44 0 91.5 -10.5t73.5 -21.5l25 -11l-94 -238q-41 23 -88 23q-94 0 -113 -105
l-30 -156h149l-47 -251h-152z" />
    <glyph glyph-name="yen.oldstyle" horiz-adv-x="1077" 
d="M8 1391h316l213 -488h4l213 488h315l-321 -658h202v-198h-262v-123h262v-199h-262v-213h-299v213h-266v199h266v123h-266v198h205z" />
    <glyph glyph-name="zero.onumtab" horiz-adv-x="1130" 
d="M1063 557q0 -167 -60 -298.5t-174 -207.5t-264 -76q-226 0 -361.5 163.5t-135.5 418.5t135.5 418.5t361.5 163.5q150 0 264 -76t174 -207.5t60 -298.5zM369 557q0 -154 50.5 -235.5t145.5 -81.5t146 81.5t51 235.5t-51 235.5t-146 81.5t-145.5 -81.5t-50.5 -235.5z" />
    <glyph glyph-name="one.onumtab" horiz-adv-x="1130" 
d="M1057 246v-246h-918v246h310v573h-304v195l361 100h242v-868h309z" />
    <glyph glyph-name="two.onumtab" horiz-adv-x="1130" 
d="M410 666h-295q-6 28 -6 59q0 184 121.5 299t324.5 115q87 0 164.5 -23.5t140 -69t99 -121.5t36.5 -173q0 -70 -21.5 -129.5t-66 -111t-92.5 -91t-121 -88.5l-110 -74h450v-258h-919v219l344 244q133 94 186 150t53 126q0 61 -38 100.5t-111 39.5t-109.5 -42t-36.5 -108
q0 -17 1.5 -33t3.5 -23z" />
    <glyph glyph-name="three.onumtab" horiz-adv-x="1130" 
d="M428 317v254h137q89 0 134.5 39t45.5 105t-43 108.5t-124 42.5q-89 0 -133 -55.5t-44 -132.5h-290q0 129 57.5 233t165 165t244.5 61q210 0 334 -111t124 -293q0 -89 -41.5 -163t-122.5 -117q177 -81 177 -299q0 -184 -134.5 -309.5t-347.5 -125.5t-346 126t-139 335h291
q5 -86 53.5 -137t140.5 -51q85 0 136 45t51 117q0 76 -47 119.5t-146 43.5h-133z" />
    <glyph glyph-name="four.onumtab" horiz-adv-x="1130" 
d="M1122 309v-258h-172v-305h-274v305h-633v215l600 848h307v-805h172zM377 309h299v422h-2z" />
    <glyph glyph-name="five.onumtab" horiz-adv-x="1130" 
d="M115 326l112 788h744v-258h-520l-35 -240q69 62 202 62q92 0 167 -27.5t124 -73t82.5 -106.5t47.5 -124t14 -130q0 -206 -137 -339.5t-355 -133.5q-201 0 -330.5 113t-144.5 299h289q13 -64 62.5 -109t123.5 -45q93 0 145 57.5t52 157.5q0 99 -52 158t-145 59
q-43 0 -78 -13.5t-55 -35t-28.5 -34t-14.5 -25.5h-270z" />
    <glyph glyph-name="six.onumtab" horiz-adv-x="1130" 
d="M504 1370h358q-265 -281 -373 -471q53 23 142 23q136 0 237.5 -63t152 -167t50.5 -233q0 -206 -140 -345t-362 -139q-152 0 -267.5 68.5t-175.5 184t-60 259.5q0 382 438 883zM776 459q0 97 -56 158t-151 61q-93 0 -150 -61.5t-57 -157.5q0 -98 57 -159.5t150 -61.5
q95 0 151 61.5t56 159.5z" />
    <glyph glyph-name="seven.onumtab" horiz-adv-x="1130" 
d="M1081 1114v-266q-183 -238 -280 -498t-154 -604h-303q98 625 399 1098h-397v-180h-295v450h1030z" />
    <glyph glyph-name="eight.onumtab" horiz-adv-x="1019" 
d="M510 233q88 0 134 49t46 117q0 73 -48 119.5t-132 46.5t-132 -46.5t-48 -119.5q0 -68 46 -117t134 -49zM510 825q78 0 122 43.5t44 114.5q0 59 -42 104.5t-124 45.5t-124 -45.5t-42 -104.5q0 -71 44 -114.5t122 -43.5zM510 -25q-219 0 -346 110.5t-127 293.5
q0 97 41.5 184.5t126.5 141.5q-65 52 -100 128t-35 160q0 172 119 284t321 112t321 -112t119 -284q0 -84 -35 -160t-100 -128q85 -54 126.5 -141.5t41.5 -184.5q0 -183 -127 -293.5t-346 -110.5z" />
    <glyph glyph-name="nine.onumtab" horiz-adv-x="1130" 
d="M629 -256h-359q265 281 373 471q-51 -22 -141 -22q-136 0 -238 63t-152.5 166.5t-50.5 232.5q0 206 140 345t362 139q228 0 366 -146t138 -366q0 -382 -438 -883zM356 655q0 -97 56 -158t151 -61q93 0 150 61.5t57 157.5q0 98 -57 160t-150 62q-95 0 -151 -62t-56 -160z
" />
    </font>
</defs>
</svg>
