<?xml version="1.0" standalone="no"?>
<!DOCTYPE svg PUBLIC "-//W3C//DTD SVG 1.1//EN" "http://www.w3.org/Graphics/SVG/1.1/DTD/svg11.dtd" >
<svg xmlns="http://www.w3.org/2000/svg" xmlns:xlink="http://www.w3.org/1999/xlink" version="1.1">
<metadata>
Created by FontForge 20170731 at Fri May 21 14:23:31 2021
 By Aleksey,,,
Copyright (c) 2013 Textaxis. v 1.0 by In~igo Jerez. Barcelona. All rights reserved.
</metadata>
<defs>
<font id="Eina03-Light" horiz-adv-x="1191" >
  <font-face 
    font-family="Eina 03 Light"
    font-weight="300"
    font-stretch="normal"
    units-per-em="2048"
    panose-1="2 0 0 0 0 0 0 0 0 0"
    ascent="1577"
    descent="-471"
    x-height="1032"
    cap-height="1454"
    bbox="-139 -506 2484 2265"
    underline-thickness="102"
    underline-position="-307"
    unicode-range="U+0020-FB02"
  />
<missing-glyph horiz-adv-x="532" 
 />
    <glyph glyph-name="fi" unicode="fi" horiz-adv-x="1157" 
d="M592 1530v-90q-35 6 -64 6q-100 0 -145 -48.5t-45 -152.5v-213h260v-88h-260v-944h-96v944h-217v88h217v211q0 138 73 215.5t211 77.5zM883 1329q-35 0 -57.5 22t-22.5 56q0 35 22.5 57.5t57.5 22.5q34 0 57 -22.5t23 -57.5q0 -34 -23 -56t-57 -22zM834 0v1032h96v-1032
h-96z" />
    <glyph glyph-name="fl" unicode="fl" horiz-adv-x="1124" 
d="M592 1530v-90q-35 6 -64 6q-100 0 -145 -48.5t-45 -152.5v-213h260v-88h-260v-944h-96v944h-217v88h217v211q0 138 73 215.5t211 77.5zM930 0h-96v1536h96v-1536z" />
    <glyph glyph-name=".notdef" horiz-adv-x="532" 
 />
    <glyph glyph-name=".null" horiz-adv-x="0" 
 />
    <glyph glyph-name="nonmarkingreturn" horiz-adv-x="682" 
 />
    <glyph glyph-name="space" unicode=" " horiz-adv-x="532" 
 />
    <glyph glyph-name="exclam" unicode="!" horiz-adv-x="483" 
d="M201 299l-17 1155h113l-16 -1155h-80zM242 -16q-37 0 -60.5 23.5t-23.5 58.5q0 37 23.5 60.5t60.5 23.5q36 0 60 -24t24 -60q0 -35 -24.5 -58.5t-59.5 -23.5z" />
    <glyph glyph-name="quotedbl" unicode="&#x22;" horiz-adv-x="796" 
d="M283 1454v-586h-99v586h99zM612 1454v-586h-98v586h98z" />
    <glyph glyph-name="numbersign" unicode="#" horiz-adv-x="1261" 
d="M1165 997l-18 -90h-236l-75 -366h235l-18 -90h-238l-94 -451h-94l94 451h-301l-94 -451h-95l95 451h-230l19 90h231l76 366h-232l19 90h233l97 457h94l-96 -457h301l96 457h94l-96 -457h233zM516 907l-76 -366h301l76 366h-301z" />
    <glyph glyph-name="dollar" unicode="$" 
d="M666 -252h-86v223q-102 3 -183 28.5t-134.5 64.5t-92 94.5t-58 112.5t-28.5 124h100q24 -158 122.5 -243t273.5 -89v639l-29 9q-207 55 -304 152.5t-97 244.5q0 71 26 134.5t77 116t135 86t192 38.5v225h86v-225q106 -6 188 -41.5t133 -95t79.5 -131.5t37.5 -158h-100
q-18 142 -105.5 231.5t-232.5 102.5v-611l18 -4q230 -64 327 -158t97 -247q0 -163 -114 -273.5t-328 -124.5v-225zM250 1112q0 -116 71.5 -185t258.5 -122v586q-167 -7 -248.5 -81.5t-81.5 -197.5zM1008 360q0 120 -73.5 192t-268.5 126v-612q162 12 252 91.5t90 202.5z" />
    <glyph glyph-name="percent" unicode="%" horiz-adv-x="1910" 
d="M504 0l803 1454h100l-803 -1454h-100zM250 1006q0 -185 56 -280t159 -95t159 95t56 280t-56 279.5t-159 94.5t-159 -94.5t-56 -279.5zM156 1006q0 220 80 340t229 120t229 -120t80 -340t-80 -340.5t-229 -120.5t-229 120.5t-80 340.5zM1231 449q0 -185 56 -280t159 -95
t159 95t56 280t-56 279.5t-159 94.5t-159 -94.5t-56 -279.5zM1137 449q0 220 80 340t229 120t229 -120t80 -340t-80 -340.5t-229 -120.5t-229 120.5t-80 340.5z" />
    <glyph glyph-name="ampersand" unicode="&#x26;" horiz-adv-x="1376" 
d="M252 1128q0 150 103 253.5t268 103.5t268.5 -95t103.5 -235q0 -139 -89.5 -238.5t-303.5 -173.5l436 -436q109 154 109 375q0 35 -2.5 69.5t-4.5 52.5l-3 17h102q10 -61 10 -135q0 -253 -141 -448l240 -238h-140l-161 162q-190 -193 -480 -193q-224 0 -344.5 110
t-120.5 281q0 273 334 412q-101 102 -142.5 187.5t-41.5 168.5zM567 61q113 0 221 43.5t189 126.5l-471 474q-151 -62 -225 -142t-74 -205q0 -139 96 -218t264 -79zM356 1135q0 -77 33.5 -146t128.5 -164l14 -14l62 25q172 66 234.5 135t62.5 184q0 111 -77 174.5t-191 63.5
q-120 0 -193.5 -69t-73.5 -189z" />
    <glyph glyph-name="quotesingle" unicode="'" horiz-adv-x="466" 
d="M283 1454v-586h-99v586h99z" />
    <glyph glyph-name="parenleft" unicode="(" horiz-adv-x="610" 
d="M285 598q0 -526 243 -938h-98q-118 187 -182 430.5t-64 507.5t64 507.5t182 430.5h98q-243 -412 -243 -938z" />
    <glyph glyph-name="parenright" unicode=")" horiz-adv-x="610" 
d="M326 598q0 524 -244 938h98q118 -187 182 -430.5t64 -507.5t-64 -507.5t-182 -430.5h-98q244 414 244 938z" />
    <glyph glyph-name="asterisk" unicode="*" horiz-adv-x="796" 
d="M729 1210l-260 -82l162 -219l-74 -53l-160 221l-157 -221l-74 55l162 219l-260 82l28 86l258 -86l-2 273h92l-2 -275l258 86z" />
    <glyph glyph-name="plus" unicode="+" 
d="M549 1032h96v-469h477v-96h-477v-467h-96v467h-479v96h479v469z" />
    <glyph glyph-name="comma" unicode="," horiz-adv-x="413" 
d="M172 147h121l-139 -348h-86z" />
    <glyph glyph-name="hyphen" unicode="-" horiz-adv-x="800" 
d="M711 561v-90h-621v90h621z" />
    <glyph glyph-name="period" unicode="." horiz-adv-x="413" 
d="M207 -16q-37 0 -60.5 23.5t-23.5 58.5q0 37 23.5 60.5t60.5 23.5q36 0 60 -24t24 -60q0 -35 -24.5 -58.5t-59.5 -23.5z" />
    <glyph glyph-name="slash" unicode="/" horiz-adv-x="788" 
d="M45 0l592 1454h106l-591 -1454h-107z" />
    <glyph glyph-name="zero" unicode="0" 
d="M596 -31q-237 0 -369.5 201.5t-132.5 556.5t132.5 556.5t369.5 201.5t369.5 -201.5t132.5 -556.5t-132.5 -556.5t-369.5 -201.5zM596 1393q-184 0 -290.5 -171.5t-106.5 -494.5t106.5 -494.5t290.5 -171.5t290.5 171.5t106.5 494.5t-106.5 494.5t-290.5 171.5z" />
    <glyph glyph-name="one" unicode="1" 
d="M1038 94v-94h-809v94h355v1264h-334v72l358 24h76v-1360h354z" />
    <glyph glyph-name="two" unicode="2" 
d="M1067 0h-952v88l585 528q107 97 166.5 196.5t59.5 217.5q0 167 -92.5 265t-258.5 98q-175 0 -260.5 -103.5t-85.5 -279.5l2 -29h-104q-2 19 -2 33q0 215 118 343t332 128q221 0 338 -123t117 -326q0 -138 -66 -255t-204 -240l-500 -445h807v-96z" />
    <glyph glyph-name="three" unicode="3" 
d="M438 696v97h121q183 0 281 82.5t98 207.5q0 143 -91 226.5t-265 83.5q-79 0 -142 -24.5t-102.5 -67t-62.5 -94.5t-29 -111h-105q18 167 137 278t306 111q215 0 336.5 -110.5t121.5 -291.5q0 -113 -64.5 -203t-189.5 -130q140 -37 208.5 -130t68.5 -219
q0 -195 -123.5 -313.5t-347.5 -118.5q-217 0 -339 118t-142 314h104q18 -150 114 -245t263 -95t267 86t100 254q0 147 -105 221t-283 74h-135z" />
    <glyph glyph-name="four" unicode="4" 
d="M1114 471v-94h-207v-377h-100v377h-746v94l742 983h104v-983h207zM807 1298h-4l-625 -827h629v827z" />
    <glyph glyph-name="five" unicode="5" 
d="M160 627l114 827h738v-96h-658l-73 -549q4 5 12.5 14t39 31.5t65 40t91.5 31.5t119 14q206 0 335.5 -134t129.5 -335q0 -210 -134.5 -356t-340.5 -146q-207 0 -332 114t-147 304h102q11 -66 37 -122t69.5 -103t113 -74t157.5 -27q163 0 267 114t104 296
q0 168 -99.5 272.5t-273.5 104.5q-127 0 -220.5 -68t-127.5 -153h-88z" />
    <glyph glyph-name="six" unicode="6" 
d="M608 -31q-148 0 -259.5 67.5t-168.5 181t-57 253.5q0 131 38 259t96 229t139 198.5t154.5 165.5t156.5 131h143q-118 -86 -223.5 -185t-204.5 -231t-148 -260q18 27 44.5 52t68 52t101.5 43.5t130 16.5q141 0 252 -67.5t169.5 -178t58.5 -241.5q0 -130 -61 -240.5
t-174.5 -178t-254.5 -67.5zM991 455q0 176 -107.5 285.5t-275.5 109.5t-275.5 -109.5t-107.5 -285.5t107.5 -285t275.5 -109t275.5 109t107.5 285z" />
    <glyph glyph-name="seven" unicode="7" 
d="M1090 1454v-88q-251 -316 -382.5 -631t-185.5 -735h-108q59 421 190.5 746t351.5 612h-761v-180h-101v276h996z" />
    <glyph glyph-name="eight" unicode="8" 
d="M596 61q180 0 279.5 89t99.5 237q0 149 -99.5 233.5t-279.5 84.5t-279.5 -84.5t-99.5 -233.5q0 -148 99.5 -237t279.5 -89zM596 793q162 0 252 85t90 220q0 133 -89 214t-253 81t-253 -81t-89 -214q0 -135 90 -220t252 -85zM596 -31q-116 0 -209.5 33t-152.5 90.5
t-90 132.5t-31 162q0 122 66.5 222t187.5 145q-106 52 -159.5 143.5t-53.5 200.5q0 78 28.5 147t82 123t139 85.5t192.5 31.5t192.5 -31.5t139 -85.5t82 -123t28.5 -147q0 -109 -53.5 -200.5t-159.5 -143.5q121 -45 187.5 -145t66.5 -222q0 -87 -31 -162t-90 -132.5
t-152.5 -90.5t-209.5 -33z" />
    <glyph glyph-name="nine" unicode="9" 
d="M586 1485q148 0 259.5 -67.5t168.5 -181t57 -253.5q0 -131 -38 -259t-96 -229t-139 -198.5t-154.5 -165.5t-156.5 -131h-143q118 86 223.5 185t204.5 231t148 260q-18 -27 -44.5 -52t-68 -52t-102 -43.5t-130.5 -16.5q-106 0 -197 39.5t-152 106.5t-95.5 155.5
t-34.5 185.5q0 130 61 240.5t174.5 178t254.5 67.5zM203 999q0 -176 107.5 -285.5t275.5 -109.5t275.5 109.5t107.5 285.5t-107.5 285t-275.5 109t-275.5 -109t-107.5 -285z" />
    <glyph glyph-name="colon" unicode=":" horiz-adv-x="413" 
d="M207 -16q-37 0 -60.5 23.5t-23.5 58.5q0 37 23.5 60.5t60.5 23.5q36 0 60 -24t24 -60q0 -35 -24.5 -58.5t-59.5 -23.5zM207 883q-37 0 -60.5 23.5t-23.5 58.5q0 37 23.5 60.5t60.5 23.5q36 0 60 -24t24 -60q0 -35 -24.5 -58.5t-59.5 -23.5z" />
    <glyph glyph-name="semicolon" unicode=";" horiz-adv-x="413" 
d="M207 883q-37 0 -60.5 23.5t-23.5 58.5q0 37 23.5 60.5t60.5 23.5q36 0 60 -24t24 -60q0 -35 -24.5 -58.5t-59.5 -23.5zM172 147h121l-139 -348h-86z" />
    <glyph glyph-name="less" unicode="&#x3c;" 
d="M1081 172v-104l-970 403v90l970 404v-105l-848 -344z" />
    <glyph glyph-name="equal" unicode="=" 
d="M1122 358v-96h-1052v96h1052zM1122 768v-96h-1052v96h1052z" />
    <glyph glyph-name="greater" unicode="&#x3e;" 
d="M111 68v104l847 344l-847 344v105l970 -404v-90z" />
    <glyph glyph-name="question" unicode="?" horiz-adv-x="1064" 
d="M90 1057q0 117 51.5 214t151.5 155.5t231 58.5q199 0 313.5 -113.5t114.5 -286.5q0 -75 -22 -140.5t-57.5 -113t-78 -90.5t-85.5 -81.5t-78.5 -77t-57.5 -86t-22 -99.5q0 -18 2.5 -42.5t4.5 -40.5l3 -15h-96q-10 57 -10 98q0 61 21.5 115t56.5 95t76.5 81t83.5 80.5
t77 84t56.5 102t21.5 124.5q0 143 -87 228.5t-237 85.5t-239.5 -93t-89.5 -247l4 -82h-105q-4 49 -4 86zM520 -16q-37 0 -60.5 23.5t-23.5 58.5q0 37 23.5 60.5t60.5 23.5q36 0 60 -24t24 -60q0 -35 -24.5 -58.5t-59.5 -23.5z" />
    <glyph glyph-name="at" unicode="@" horiz-adv-x="1695" 
d="M1042 569q0 111 -46.5 177.5t-143.5 66.5q-121 0 -191.5 -96t-70.5 -252q0 -132 54 -189t153 -57q74 0 131 52.5t85.5 131.5t28.5 166zM1362 47h104q-98 -139 -258 -218t-350 -79q-175 0 -316.5 56t-235 156.5t-143.5 239t-50 304.5q0 126 33.5 242.5t99.5 214t158 169.5
t215.5 112t265.5 40q159 0 290 -47.5t220.5 -132t138.5 -203t49 -258.5q0 -224 -115 -366t-268 -142q-74 0 -116 39.5t-52 97.5q-88 -137 -254 -137q-133 0 -211 88t-78 240q0 116 41 214t124 160t192 62q81 0 145 -37.5t94 -109.5l25 118h96l-90 -452q-6 -35 -6 -66
q0 -61 27 -94t77 -33q87 0 151.5 58.5t95 149.5t30.5 200q0 261 -164.5 413t-441.5 152q-157 0 -286.5 -55t-213.5 -149.5t-130 -220t-46 -267.5q0 -314 173.5 -493t475.5 -179q169 0 301 62.5t203 150.5z" />
    <glyph glyph-name="A" unicode="A" horiz-adv-x="1368" 
d="M121 0h-109l617 1454h110l617 -1454h-113l-156 371h-811zM684 1335h-4l-365 -868h732z" />
    <glyph glyph-name="B" unicode="B" horiz-adv-x="1386" 
d="M748 0h-523v1454h514q241 0 358 -102.5t117 -280.5q0 -119 -62.5 -208t-174.5 -124q126 -33 200 -125t74 -221q0 -194 -131.5 -293.5t-371.5 -99.5zM760 690h-434v-594h432q183 0 288 72t105 225q0 151 -104.5 224t-286.5 73zM748 1358h-422v-572h422q176 0 271 66
t95 219q0 287 -366 287z" />
    <glyph glyph-name="C" unicode="C" horiz-adv-x="1601" 
d="M113 727q0 159 49.5 297.5t140 240.5t226 161t298.5 59q262 0 444.5 -146t237.5 -387h-104q-47 201 -204 321t-374 120q-271 0 -440.5 -185.5t-169.5 -480.5t169.5 -480.5t440.5 -185.5q217 0 374 120t204 321h104q-55 -241 -237.5 -387t-444.5 -146q-163 0 -298.5 59
t-226 161t-140 240.5t-49.5 297.5z" />
    <glyph glyph-name="D" unicode="D" horiz-adv-x="1574" 
d="M659 0h-434v1454h434q192 0 344.5 -52.5t252.5 -148.5t153 -229.5t53 -296.5t-53 -296.5t-153 -229.5t-252.5 -148.5t-344.5 -52.5zM1358 727q0 298 -180.5 464.5t-526.5 166.5h-325v-1262h325q346 0 526.5 166.5t180.5 464.5z" />
    <glyph glyph-name="E" unicode="E" horiz-adv-x="1302" 
d="M1180 96v-96h-955v1454h955v-96h-854v-572h804v-96h-804v-594h854z" />
    <glyph glyph-name="F" unicode="F" horiz-adv-x="1200" 
d="M326 0h-101v1454h914v-96h-813v-572h764v-96h-764v-690z" />
    <glyph glyph-name="G" unicode="G" horiz-adv-x="1677" 
d="M913 766h650q2 -19 2 -39q0 -213 -86.5 -384t-252 -272.5t-382.5 -101.5q-163 0 -301 59t-231.5 161t-146 241t-52.5 297t52.5 297t147 241t232.5 161t301 59q258 0 442.5 -135.5t241.5 -368.5h-105q-52 193 -209 302.5t-370 109.5q-179 0 -322.5 -84t-225 -236.5
t-81.5 -345.5q0 -194 81 -346t224 -236t322 -84q260 0 430.5 166t189.5 443h-551v96z" />
    <glyph glyph-name="H" unicode="H" horiz-adv-x="1581" 
d="M1356 1454v-1454h-101v690h-929v-690h-101v1454h101v-668h929v668h101z" />
    <glyph glyph-name="I" unicode="I" horiz-adv-x="550" 
d="M326 1454v-1454h-101v1454h101z" />
    <glyph glyph-name="J" unicode="J" horiz-adv-x="1224" 
d="M920 449v1005h100v-1003q0 -219 -121 -348.5t-334 -129.5q-211 0 -331.5 125t-120.5 336l4 86h102q-4 -33 -4 -86q0 -161 91.5 -264.5t258.5 -103.5q168 0 261.5 99.5t93.5 283.5z" />
    <glyph glyph-name="K" unicode="K" horiz-adv-x="1447" 
d="M1425 0h-129l-622 780l-348 -334v-446h-101v1454h101v-885q158 153 915 885h139l-635 -606z" />
    <glyph glyph-name="L" unicode="L" horiz-adv-x="1103" 
d="M1081 96v-96h-856v1454h101v-1358h755z" />
    <glyph glyph-name="M" unicode="M" horiz-adv-x="1748" 
d="M313 1454l561 -717l562 717h88v-1454h-101v1276l-544 -694h-9l-544 694v-1276h-101v1454h88z" />
    <glyph glyph-name="N" unicode="N" horiz-adv-x="1581" 
d="M326 1298v-1298h-101v1454h111l919 -1300v1300h101v-1454h-111z" />
    <glyph glyph-name="O" unicode="O" horiz-adv-x="1699" 
d="M1587 727q0 -209 -89.5 -381t-259 -274.5t-388.5 -102.5t-388.5 102.5t-259 274.5t-89.5 381t89.5 381t259 274.5t388.5 102.5t388.5 -102.5t259 -274.5t89.5 -381zM1483 727q0 193 -82.5 345.5t-226.5 236.5t-324 84t-324 -84t-226.5 -236.5t-82.5 -345.5t82.5 -345.5
t226.5 -236.5t324 -84t324 84t226.5 236.5t82.5 345.5z" />
    <glyph glyph-name="P" unicode="P" horiz-adv-x="1320" 
d="M326 731h452q175 0 261.5 81t86.5 232t-86.5 232.5t-261.5 81.5h-452v-627zM326 635v-635h-101v1454h545q122 0 212.5 -31.5t144 -88.5t79 -129.5t25.5 -160.5t-25.5 -160t-79 -129t-144 -88.5t-212.5 -31.5h-444z" />
    <glyph glyph-name="Q" unicode="Q" horiz-adv-x="1699" 
d="M1587 727q0 -190 -76.5 -351.5t-214.5 -264.5l273 -381h-121l-234 327q-166 -88 -364 -88q-219 0 -388.5 102.5t-259 274.5t-89.5 381t89.5 381t259 274.5t388.5 102.5t388.5 -102.5t259 -274.5t89.5 -381zM1483 727q0 193 -82.5 345.5t-226.5 236.5t-324 84t-324 -84
t-226.5 -236.5t-82.5 -345.5t82.5 -345.5t226.5 -236.5t324 -84t324 84t226.5 236.5t82.5 345.5z" />
    <glyph glyph-name="R" unicode="R" horiz-adv-x="1376" 
d="M1286 0h-123l-366 664h-471v-664h-101v1454h578q121 0 212 -31t144.5 -86.5t79 -125t25.5 -152.5q0 -155 -88.5 -260t-270.5 -129zM1159 1059q0 139 -87.5 219t-260.5 80h-485v-598h485q174 0 261 78.5t87 220.5z" />
    <glyph glyph-name="S" unicode="S" horiz-adv-x="1284" 
d="M631 63q197 0 313.5 81t116.5 229q0 75 -30.5 129.5t-82 86t-118.5 53.5t-141.5 38t-148.5 33t-141 45t-118.5 68.5t-82 108.5t-30.5 159q0 73 29.5 141.5t86 125t150 90.5t211.5 34q232 0 366.5 -131t139.5 -334h-100q-4 171 -115.5 272t-290.5 101q-175 0 -276 -82
t-101 -217q0 -64 26.5 -114.5t55 -79t99.5 -56t106.5 -36.5t128.5 -30t141.5 -34t124 -45t113.5 -69.5t68 -102.5t30 -150q0 -181 -143.5 -293.5t-386.5 -112.5q-136 0 -239.5 36t-166.5 100.5t-96 146.5t-37 180h101q13 -182 130 -276.5t308 -94.5z" />
    <glyph glyph-name="T" unicode="T" horiz-adv-x="1116" 
d="M1096 1454v-96h-488v-1358h-100v1358h-488v96h1076z" />
    <glyph glyph-name="U" unicode="U" horiz-adv-x="1499" 
d="M750 -31q-263 0 -414.5 162t-151.5 471v852h101v-870q0 -239 123 -381t342 -142q218 0 341 142t123 381v870h101v-852q0 -310 -151 -471.5t-414 -161.5z" />
    <glyph glyph-name="V" unicode="V" horiz-adv-x="1351" 
d="M1219 1454h108l-596 -1454h-110l-596 1454h112l539 -1333h4z" />
    <glyph glyph-name="W" unicode="W" horiz-adv-x="2105" 
d="M1051 1331l-422 -1331h-115l-473 1454h113l415 -1331h4l422 1331h119l420 -1333h4l418 1333h108l-475 -1456h-114l-420 1333h-4z" />
    <glyph glyph-name="X" unicode="X" horiz-adv-x="1370" 
d="M684 813l516 641h127l-582 -717l603 -737h-136l-528 659l-530 -659h-131l598 737l-582 717h131z" />
    <glyph glyph-name="Y" unicode="Y" horiz-adv-x="1245" 
d="M1116 1454h117l-561 -934v-520h-101v520l-559 934h109l500 -827h4z" />
    <glyph glyph-name="Z" unicode="Z" horiz-adv-x="1298" 
d="M1200 1454v-84l-981 -1274h989v-96h-1118v84l981 1274h-973v96h1102z" />
    <glyph glyph-name="bracketleft" unicode="[" horiz-adv-x="591" 
d="M547 -250v-90h-389v1876h389v-90h-293v-1696h293z" />
    <glyph glyph-name="backslash" unicode="\" horiz-adv-x="788" 
d="M152 1454l591 -1454h-106l-592 1454h107z" />
    <glyph glyph-name="bracketright" unicode="]" horiz-adv-x="591" 
d="M45 -340v90h293v1696h-293v90h389v-1876h-389z" />
    <glyph glyph-name="asciicircum" unicode="^" 
d="M1044 483h-104l-344 848l-344 -848h-105l404 971h90z" />
    <glyph glyph-name="underscore" unicode="_" horiz-adv-x="1024" 
d="M1024 -205v-90h-1024v90h1024z" />
    <glyph glyph-name="grave" unicode="`" horiz-adv-x="708" 
d="M231 1554h111l139 -348h-92z" />
    <glyph glyph-name="a" unicode="a" horiz-adv-x="1308" 
d="M1018 1032h96v-1032h-96v213q-57 -113 -161.5 -175.5t-252.5 -62.5q-95 0 -175.5 29.5t-138 80.5t-98 119.5t-60 147.5t-19.5 164t19.5 164t60 147.5t98 119.5t138 80.5t175.5 29.5q147 0 251.5 -63t162.5 -175v213zM1022 516q0 195 -107 324t-294 129
q-188 0 -299 -129.5t-111 -323.5t111 -323.5t299 -129.5q187 0 294 129t107 324z" />
    <glyph glyph-name="b" unicode="b" horiz-adv-x="1308" 
d="M291 819q58 112 162.5 175t251.5 63q95 0 175.5 -29.5t138 -80.5t98 -119.5t60 -147.5t19.5 -164t-19.5 -164t-60 -147.5t-98 -119.5t-138 -80.5t-175.5 -29.5q-148 0 -252.5 62.5t-161.5 175.5v-213h-96v1536h96v-717zM287 516q0 -195 107 -324t294 -129
q188 0 299 129.5t111 323.5t-111 323.5t-299 129.5q-187 0 -294 -129t-107 -324z" />
    <glyph glyph-name="c" unicode="c" horiz-adv-x="1187" 
d="M113 516q0 104 34.5 200.5t97.5 172.5t160 122t213 46q191 0 316 -108.5t164 -278.5h-99q-38 141 -135 220t-246 79q-179 0 -293 -128.5t-114 -324.5t114 -324.5t293 -128.5q149 0 246 79t135 220h99q-39 -170 -164 -278.5t-316 -108.5q-116 0 -213 46t-160 122
t-97.5 172.5t-34.5 200.5z" />
    <glyph glyph-name="d" unicode="d" horiz-adv-x="1308" 
d="M1018 819v717h96v-1536h-96v213q-57 -113 -161.5 -175.5t-252.5 -62.5q-95 0 -175.5 29.5t-138 80.5t-98 119.5t-60 147.5t-19.5 164t19.5 164t60 147.5t98 119.5t138 80.5t175.5 29.5q147 0 251.5 -63t162.5 -175zM1022 516q0 195 -107 324t-294 129q-188 0 -299 -129.5
t-111 -323.5t111 -323.5t299 -129.5q187 0 294 129t107 324z" />
    <glyph glyph-name="e" unicode="e" horiz-adv-x="1218" 
d="M1106 489h-895q8 -183 117.5 -303t287.5 -120q134 0 232.5 71t136.5 185h105q-48 -153 -172 -250t-302 -97q-121 0 -218 44.5t-158.5 120.5t-94 172.5t-32.5 203.5q0 106 35 203.5t98.5 172.5t159.5 120t210 45q149 0 262.5 -71t171.5 -188.5t58 -262.5zM616 965
q-165 0 -273.5 -109t-127.5 -278h795q-14 174 -120 280.5t-274 106.5z" />
    <glyph glyph-name="f" unicode="f" horiz-adv-x="626" 
d="M592 1530v-90q-35 6 -64 6q-100 0 -145 -48.5t-45 -152.5v-213h260v-88h-260v-944h-96v944h-217v88h217v211q0 138 73 215.5t211 77.5z" />
    <glyph glyph-name="g" unicode="g" horiz-adv-x="1298" 
d="M1018 821v211h96v-977q0 -107 -29.5 -197.5t-86.5 -159.5t-150 -108t-213 -39q-102 0 -186 27t-139.5 73t-91 99.5t-52.5 114.5h104q36 -107 135.5 -166t233.5 -59q176 0 277.5 106t101.5 274v211q-59 -111 -163.5 -173t-250.5 -62q-115 0 -210 44t-155 118.5t-93 169
t-33 198.5q0 83 20.5 160.5t61.5 145t99 117.5t137.5 79t172.5 29q146 0 250.5 -62.5t163.5 -173.5zM1022 526q0 123 -47 223t-139.5 160t-214.5 60q-184 0 -297 -127.5t-113 -315.5q0 -122 49 -222t143.5 -160t217.5 -60q122 0 214.5 60t139.5 159.5t47 222.5z" />
    <glyph glyph-name="h" unicode="h" horiz-adv-x="1220" 
d="M291 1536v-664q14 26 39.5 54.5t67 59.5t106 51t139.5 20q188 0 290.5 -108.5t102.5 -282.5v-666h-96v637q0 160 -76.5 247t-228.5 87q-147 0 -245.5 -92.5t-98.5 -260.5v-618h-96v1536h96z" />
    <glyph glyph-name="i" unicode="i" horiz-adv-x="487" 
d="M244 1329q-35 0 -57.5 22t-22.5 56q0 35 22.5 57.5t57.5 22.5q34 0 57 -22.5t23 -57.5q0 -34 -23 -56t-57 -22zM195 0v1032h96v-1032h-96z" />
    <glyph glyph-name="j" unicode="j" horiz-adv-x="487" 
d="M244 1329q-35 0 -57.5 22t-22.5 56q0 35 22.5 57.5t57.5 22.5q34 0 57 -22.5t23 -57.5q0 -34 -23 -56t-57 -22zM291 1032v-1413h-96v1413h96z" />
    <glyph glyph-name="k" unicode="k" horiz-adv-x="1122" 
d="M928 1032h137l-442 -420l477 -612h-125l-424 545l-260 -246v-299h-96v1536h96v-1114z" />
    <glyph glyph-name="l" unicode="l" horiz-adv-x="485" 
d="M291 0h-96v1536h96v-1536z" />
    <glyph glyph-name="m" unicode="m" horiz-adv-x="1908" 
d="M1008 608v-608h-97v637q0 157 -73 245.5t-220 88.5q-140 0 -233.5 -94t-93.5 -254v-623h-96v1032h96v-168q101 193 336 193q130 0 219 -58.5t129 -158.5q41 87 138 152t233 65q122 0 209 -54.5t128 -141.5t41 -195v-666h-96v637q0 154 -72.5 244t-218.5 90
q-138 0 -233.5 -94.5t-95.5 -268.5z" />
    <glyph glyph-name="n" unicode="n" horiz-adv-x="1220" 
d="M291 1032v-168q11 21 27 43t47 50t68 49.5t92.5 36t117.5 14.5q188 0 290.5 -108.5t102.5 -282.5v-666h-96v637q0 160 -76.5 247t-228.5 87q-147 0 -245.5 -91t-98.5 -257v-623h-96v1032h96z" />
    <glyph glyph-name="o" unicode="o" horiz-adv-x="1265" 
d="M633 -25q-118 0 -217.5 45t-164.5 120t-101.5 172.5t-36.5 203.5t36.5 203.5t101.5 172.5t164.5 120t217.5 45t217.5 -45t164.5 -120t101.5 -172.5t36.5 -203.5t-36.5 -203.5t-101.5 -172.5t-164.5 -120t-217.5 -45zM211 516q0 -192 116.5 -322.5t305.5 -130.5
t305.5 130.5t116.5 322.5t-116.5 322.5t-305.5 130.5t-305.5 -130.5t-116.5 -322.5z" />
    <glyph glyph-name="p" unicode="p" horiz-adv-x="1308" 
d="M291 213v-639h-96v1458h96v-213q58 112 162.5 175t251.5 63q95 0 175.5 -29.5t138 -80.5t98 -119.5t60 -147.5t19.5 -164t-19.5 -164t-60 -147.5t-98 -119.5t-138 -80.5t-175.5 -29.5q-148 0 -252.5 62.5t-161.5 175.5zM287 516q0 -195 107 -324t294 -129
q188 0 299 129.5t111 323.5t-111 323.5t-299 129.5q-187 0 -294 -129t-107 -324z" />
    <glyph glyph-name="q" unicode="q" horiz-adv-x="1308" 
d="M1018 213q-57 -113 -161.5 -175.5t-252.5 -62.5q-95 0 -175.5 29.5t-138 80.5t-98 119.5t-60 147.5t-19.5 164t19.5 164t60 147.5t98 119.5t138 80.5t175.5 29.5q147 0 251.5 -63t162.5 -175v213h96v-1458h-96v639zM1022 516q0 195 -107 324t-294 129q-188 0 -299 -129.5
t-111 -323.5t111 -323.5t299 -129.5q187 0 294 129t107 324z" />
    <glyph glyph-name="r" unicode="r" horiz-adv-x="704" 
d="M668 1040v-92q-23 2 -50 2q-142 0 -234.5 -89t-92.5 -251v-610h-96v1032h94v-170q36 70 124 125t220 55z" />
    <glyph glyph-name="s" unicode="s" horiz-adv-x="1038" 
d="M520 -25q-99 0 -179 28t-131 76t-79 109t-33 131h97q9 -115 98 -184t227 -69q142 0 221.5 55.5t79.5 148.5q0 51 -22.5 88t-60.5 57.5t-87 34.5t-103.5 24.5t-108.5 22t-103 30.5t-87 47.5t-60.5 77t-22.5 114.5q0 119 102.5 205t272.5 86t268.5 -91.5t108.5 -228.5h-97
q-10 100 -82 165t-198 65q-132 0 -205.5 -56t-73.5 -143q0 -65 36.5 -106.5t94.5 -60.5t128 -31t140 -28.5t128 -43.5t94.5 -84.5t36.5 -143.5q0 -129 -111 -212t-289 -83z" />
    <glyph glyph-name="t" unicode="t" horiz-adv-x="591" 
d="M336 944v-944h-96v944h-217v88h217v307h96v-307h239v-88h-239z" />
    <glyph glyph-name="u" unicode="u" horiz-adv-x="1200" 
d="M600 -25q-193 0 -304.5 110t-111.5 282v665h97v-637q0 -158 82.5 -246t236.5 -88t237 88t83 246v637h96v-665q0 -172 -111.5 -282t-304.5 -110z" />
    <glyph glyph-name="v" unicode="v" horiz-adv-x="1077" 
d="M539 106l391 926h102l-442 -1032h-107l-438 1032h107z" />
    <glyph glyph-name="w" unicode="w" horiz-adv-x="1671" 
d="M1139 0l-301 924h-2l-308 -924h-110l-357 1032h109l301 -923l309 923h115l303 -923l307 923h105l-361 -1032h-110z" />
    <glyph glyph-name="x" unicode="x" horiz-adv-x="1105" 
d="M1030 1032l-420 -508l434 -524h-126l-367 449l-367 -449h-123l431 520l-420 512h125l356 -436l356 436h121z" />
    <glyph glyph-name="y" unicode="y" horiz-adv-x="1077" 
d="M305 -426l180 422l-440 1036h107l387 -926l391 926h102l-624 -1458h-103z" />
    <glyph glyph-name="z" unicode="z" horiz-adv-x="1064" 
d="M954 956l-723 -868h732v-88h-861v76l723 868h-714v88h843v-76z" />
    <glyph glyph-name="braceleft" unicode="{" horiz-adv-x="614" 
d="M465 -340q-110 0 -167.5 66.5t-57.5 179.5v536q0 111 -105 111h-53v90h53q105 0 105 111v536q0 113 57.5 179.5t167.5 66.5q30 0 56 -2.5t37 -5.5l11 -2v-90q-43 10 -98 10q-72 0 -103.5 -36t-31.5 -107v-533q0 -131 -76 -172q76 -44 76 -172v-532q0 -71 31.5 -107.5
t103.5 -36.5q24 0 48.5 2.5t36.5 5.5l13 2v-90q-36 -10 -104 -10z" />
    <glyph glyph-name="bar" unicode="|" horiz-adv-x="546" 
d="M322 0h-97v1536h97v-1536z" />
    <glyph glyph-name="braceright" unicode="}" horiz-adv-x="614" 
d="M150 -340q-30 0 -56.5 2.5t-37.5 5.5l-11 2v90q43 -10 98 -10q72 0 104 36.5t32 107.5v532q0 130 75 172q-75 39 -75 172v533q0 70 -32 106.5t-104 36.5q-24 0 -48.5 -2.5t-36.5 -5.5l-13 -2v90q37 10 105 10q110 0 167.5 -66.5t57.5 -179.5v-536q0 -111 104 -111h53v-90
h-53q-104 0 -104 -111v-536q0 -113 -57.5 -179.5t-167.5 -66.5z" />
    <glyph glyph-name="asciitilde" unicode="~" 
d="M807 418q-70 0 -145 23.5t-146.5 47t-132.5 23.5q-37 0 -70.5 -10t-54.5 -24t-36.5 -28t-21.5 -24l-7 -10l-78 61q3 6 9 15t29 32.5t51 41.5t76.5 33t104.5 15q70 0 145 -23.5t146.5 -47t132.5 -23.5q37 0 70.5 10t54.5 24t36.5 28t21.5 24l7 10l78 -61q-3 -6 -9 -15
t-29 -32.5t-51 -41.5t-76.5 -33t-104.5 -15z" />
    <glyph glyph-name="exclamdown" unicode="&#xa1;" horiz-adv-x="483" 
d="M201 733h80l16 -1155h-113zM242 1049q35 0 59.5 -23.5t24.5 -58.5q0 -36 -24 -60t-60 -24q-37 0 -60.5 23.5t-23.5 60.5q0 35 23.5 58.5t60.5 23.5z" />
    <glyph glyph-name="cent" unicode="&#xa2;" 
d="M565 -37v225q-141 11 -248.5 91t-161 197.5t-53.5 250.5t53.5 250.5t161 197.5t248.5 91v225h86v-225q173 -12 286 -118.5t150 -266.5h-98q-34 130 -120.5 207.5t-217.5 89.5v-902q131 10 217.5 88t120.5 209h98q-37 -160 -150 -266.5t-286 -118.5v-225h-86zM201 727
q0 -185 101 -310.5t263 -140.5v902q-162 -17 -263 -142.5t-101 -308.5z" />
    <glyph glyph-name="sterling" unicode="&#xa3;" 
d="M1057 209l69 -49q-4 -8 -12.5 -21t-39 -45.5t-67.5 -58t-99.5 -46t-133.5 -20.5q-62 0 -124.5 16t-106 35.5t-102.5 35.5t-113 16q-53 0 -105 -23t-78 -46l-26 -23l-53 65q51 53 137 88q151 112 151 316q0 70 -28 149h-250v96h205q-4 9 -21 41t-24 46.5t-21 45.5t-21 53
t-15 53t-11.5 62.5t-3.5 65.5q0 187 115.5 305.5t334.5 118.5q216 0 335.5 -124.5t119.5 -338.5l-2 -39h-100q2 21 2 35q0 172 -89 273.5t-266 101.5q-178 0 -264 -94t-86 -250q0 -45 6.5 -85t21.5 -79t26.5 -63.5t34.5 -67t32 -60.5h426v-96h-383q23 -74 23 -149
q0 -175 -101 -287q59 0 119 -16t102.5 -34.5t104 -34.5t123.5 -16q52 0 97.5 15t73.5 37t49 44t29 37z" />
    <glyph glyph-name="currency" unicode="&#xa4;" horiz-adv-x="1228" 
d="M236 516q0 134 79 232l-149 151l67 68l150 -152q101 82 233 82q131 0 232 -82l149 150l70 -68l-149 -149q79 -106 79 -232q0 -130 -79 -233l147 -148l-68 -67l-149 147q-103 -80 -232 -80q-125 0 -233 80l-150 -149l-67 69l149 150q-79 98 -79 231zM326 516
q0 -120 85 -205.5t205 -85.5t205.5 85.5t85.5 205.5t-85.5 205.5t-205.5 85.5t-205 -85.5t-85 -205.5z" />
    <glyph glyph-name="yen" unicode="&#xa5;" 
d="M88 1454h109l397 -663h4l389 663h117l-459 -754h303v-90h-303v-190h303v-90h-303v-330h-100v330h-301v90h301v190h-301v90h299z" />
    <glyph glyph-name="brokenbar" unicode="&#xa6;" horiz-adv-x="546" 
d="M225 616h97v-616h-97v616zM225 1534h97v-616h-97v616z" />
    <glyph glyph-name="section" unicode="&#xa7;" horiz-adv-x="1157" 
d="M129 610q0 102 59 185t164 125q-133 100 -133 258q0 137 101 222t266 85q83 0 149.5 -22.5t107 -57t69 -81.5t40.5 -89.5t17 -87.5h-95q-14 112 -85.5 180t-202.5 68q-135 0 -203 -59.5t-68 -149.5q0 -87 59.5 -153t186.5 -118l84 -34q200 -82 291.5 -171t91.5 -223
q0 -103 -59.5 -185t-165.5 -126q135 -97 135 -256q0 -137 -101 -222t-266 -85q-83 0 -149.5 22.5t-107 57t-69 81.5t-40.5 89.5t-17 87.5h95q14 -112 85.5 -180t202.5 -68q133 0 202 59t69 150q0 87 -59.5 152.5t-186.5 117.5l-84 35q-200 82 -291.5 170.5t-91.5 222.5z
M600 799l-162 69q-96 -27 -156.5 -95.5t-60.5 -160.5q0 -38 11 -71t35 -61.5t50 -50.5t69.5 -46.5t79 -41.5t91.5 -42l160 -70q96 25 157.5 94.5t61.5 161.5q0 57 -23 102t-73 83t-102.5 65.5t-137.5 63.5z" />
    <glyph glyph-name="dieresis" unicode="&#xa8;" horiz-adv-x="765" 
d="M244 1309q-35 0 -57.5 21.5t-22.5 55.5q0 35 22.5 57.5t57.5 22.5q34 0 57 -22.5t23 -57.5q0 -33 -23 -55t-57 -22zM522 1309q-35 0 -57.5 21.5t-22.5 55.5q0 35 22.5 57.5t57.5 22.5q34 0 57 -22.5t23 -57.5q0 -33 -23 -55t-57 -22z" />
    <glyph glyph-name="copyright" unicode="&#xa9;" horiz-adv-x="1646" 
d="M68 729q0 159 55.5 298.5t153.5 240.5t239.5 159t306.5 58q220 0 393.5 -99.5t268 -271.5t94.5 -385t-94.5 -385t-268 -271.5t-393.5 -99.5q-165 0 -306.5 58t-239.5 159t-153.5 240.5t-55.5 298.5zM162 729q0 -194 82 -347t233 -239t346 -86t346.5 86t233.5 239t82 347
t-82 347t-233.5 239t-346.5 86t-346 -86t-233 -239t-82 -347zM442 729q0 171 107 286t272 115q86 0 156.5 -28t114.5 -73t69 -95.5t31 -102.5h-96q-7 37 -24 71.5t-48 68t-83 53.5t-118 20q-131 0 -205.5 -88t-74.5 -227t74.5 -227t205.5 -88q66 0 118 20t83 53.5t48 68
t24 71.5h96q-6 -52 -31 -102.5t-69 -95.5t-114.5 -73t-156.5 -28q-165 0 -272 115t-107 286z" />
    <glyph glyph-name="ordfeminine" unicode="&#xaa;" horiz-adv-x="843" 
d="M352 657q-131 0 -197.5 57.5t-66.5 159.5q0 110 88.5 167t253.5 79l205 27v27q0 196 -211 196q-196 0 -225 -176h-93q7 49 25.5 91.5t54 81.5t97.5 62t145 23q162 0 230.5 -76t68.5 -217v-338q0 -33 3.5 -69t7.5 -56l3 -20h-94q-8 43 -8 106q-44 -60 -118.5 -92.5
t-168.5 -32.5zM182 872q0 -133 185 -133q137 0 202.5 80t65.5 205v39l-154 -19q-152 -19 -225.5 -59.5t-73.5 -112.5z" />
    <glyph glyph-name="guillemotleft" unicode="&#xab;" horiz-adv-x="964" 
d="M143 516l226 430h110l-225 -430l225 -430h-110zM487 516l224 430h110l-225 -430l225 -430h-110z" />
    <glyph glyph-name="logicalnot" unicode="&#xac;" 
d="M70 563h1052v-471h-96v375h-956v96z" />
    <glyph glyph-name="registered" unicode="&#xae;" horiz-adv-x="1216" 
d="M608 403q-159 0 -283.5 74t-190.5 196.5t-66 270.5t66 270.5t190.5 196.5t283.5 74t283.5 -74t191 -196.5t66.5 -270.5t-66.5 -270.5t-191 -196.5t-283.5 -74zM608 483q206 0 329.5 127t123.5 334t-123.5 334t-329.5 127t-329 -127t-123 -334t123 -334t329 -127zM842 678
h-101l-88 176q-19 -2 -37 -2h-110v-174h-86v530h196q107 0 162.5 -48t55.5 -130q0 -113 -97 -156zM631 1126h-125v-192h125q55 0 84.5 25.5t29.5 70.5t-29.5 70.5t-84.5 25.5z" />
    <glyph glyph-name="macron" unicode="&#xaf;" horiz-adv-x="800" 
d="M711 1411v-90h-621v90h621z" />
    <glyph glyph-name="degree" unicode="&#xb0;" horiz-adv-x="786" 
d="M59 1155q0 137 96 233.5t236 96.5t235 -96t95 -234t-95 -235t-235 -97t-236 97t-96 235zM158 1155q0 -105 63.5 -175.5t169.5 -70.5t169 70.5t63 175.5q0 103 -63 173.5t-169 70.5t-169.5 -70.5t-63.5 -173.5z" />
    <glyph glyph-name="plusminus" unicode="&#xb1;" 
d="M549 1032h96v-366h477v-97h-477v-364h-96v364h-479v97h479v366zM1122 96v-96h-1052v96h1052z" />
    <glyph glyph-name="twosuperior" unicode="&#xb2;" horiz-adv-x="784" 
d="M692 899h-588v72l351 315q65 58 95 109.5t30 124.5q0 90 -49 143t-138 53q-95 0 -143.5 -57.5t-48.5 -157.5l2 -26h-94q-3 14 -3 28q0 135 76.5 216t210.5 81q136 0 208.5 -77t72.5 -201q0 -87 -41.5 -158.5t-124.5 -144.5l-264 -234h448v-86z" />
    <glyph glyph-name="threesuperior" unicode="&#xb3;" horiz-adv-x="790" 
d="M283 1309v80h102q98 0 145.5 44.5t47.5 116.5q0 79 -48 122.5t-145 43.5q-85 0 -130.5 -47.5t-55.5 -126.5h-93q12 116 86.5 187t194.5 71q137 0 210 -67.5t73 -182.5q0 -63 -33.5 -116t-97.5 -80q69 -24 107 -80.5t38 -124.5q0 -123 -77.5 -196.5t-217.5 -73.5
q-132 0 -209 75.5t-88 204.5h90q8 -91 62 -143.5t145 -52.5t147 47.5t56 138.5q0 79 -48 119.5t-159 40.5h-102z" />
    <glyph glyph-name="acute" unicode="&#xb4;" horiz-adv-x="708" 
d="M367 1554h110l-158 -348h-92z" />
    <glyph glyph-name="mu" unicode="&#xb5;" horiz-adv-x="1200" 
d="M600 -25q-211 0 -324 129q0 -46 2.5 -153t2.5 -162v-174h-97v1417h97v-637q0 -158 82.5 -246t236.5 -88t237 88t83 246v637h96v-665q0 -172 -111.5 -282t-304.5 -110z" />
    <glyph glyph-name="paragraph" unicode="&#xb6;" horiz-adv-x="1202" 
d="M594 -406v975q-121 0 -214.5 34.5t-151 95.5t-86.5 140t-29 173q0 191 129.5 316.5t351.5 125.5h383v-1860h-96v1770h-191v-1770h-96z" />
    <glyph glyph-name="periodcentered" unicode="&#xb7;" horiz-adv-x="413" 
d="M207 440q-37 0 -60.5 23.5t-23.5 58.5q0 37 23.5 60.5t60.5 23.5q36 0 60 -24t24 -60q0 -35 -24.5 -58.5t-59.5 -23.5z" />
    <glyph glyph-name="cedilla" unicode="&#xb8;" horiz-adv-x="569" 
d="M119 -432l43 70q4 -5 13 -11.5t37 -18t58 -11.5q55 0 87 28.5t32 79.5q0 48 -28.5 77.5t-84.5 29.5q-31 0 -56 -11t-34 -23l-10 -11l-55 30l94 232h78l-64 -156q23 12 66 12q85 0 134.5 -51t49.5 -129q0 -83 -59 -135.5t-154 -52.5q-42 0 -78.5 12.5t-52.5 25.5z" />
    <glyph glyph-name="onesuperior" unicode="&#xb9;" horiz-adv-x="550" 
d="M340 1780v-883h-92v797h-193v73l221 13h64z" />
    <glyph glyph-name="ordmasculine" unicode="&#xba;" horiz-adv-x="901" 
d="M451 657q-169 0 -279.5 112t-110.5 286t110.5 285.5t279.5 111.5t279 -111.5t110 -285.5t-110 -286t-279 -112zM451 1366q-139 0 -217 -86.5t-78 -224.5t78 -225t217 -87t216.5 87t77.5 225t-77.5 224.5t-216.5 86.5z" />
    <glyph glyph-name="guillemotright" unicode="&#xbb;" horiz-adv-x="964" 
d="M596 946l223 -430l-223 -430h-111l226 430l-226 430h111zM254 946l223 -430l-223 -430h-111l226 430l-226 430h111z" />
    <glyph glyph-name="onequarter" unicode="&#xbc;" horiz-adv-x="1593" 
d="M258 571v797h-192v74l221 12h63v-883h-92zM301 0l803 1454h100l-803 -1454h-100zM813 219v76l426 588h96v-578h127v-86h-127v-219h-92v219h-430zM924 305h319v440z" />
    <glyph glyph-name="onehalf" unicode="&#xbd;" horiz-adv-x="1705" 
d="M258 571v797h-192v74l221 12h63v-883h-92zM301 0l803 1454h100l-803 -1454h-100zM987 0v72l350 315q65 59 95 110.5t30 123.5q0 90 -48 143t-138 53q-96 0 -144.5 -57.5t-48.5 -157.5l2 -27h-94q-2 15 -2 29q0 135 76.5 216t210.5 81q136 0 208 -77t72 -201
q0 -87 -41 -159t-124 -145l-265 -233h449v-86h-588z" />
    <glyph glyph-name="threequarters" unicode="&#xbe;" horiz-adv-x="1759" 
d="M131 821h90q8 -91 62 -143.5t145 -52.5t147 47.5t56 138.5q0 79 -48 119.5t-159 40.5h-102v80h102q98 0 145 44.5t47 116.5q0 79 -47.5 122.5t-144.5 43.5q-85 0 -130.5 -47.5t-55.5 -126.5h-93q12 116 86.5 187t194.5 71q137 0 210 -67.5t73 -182.5q0 -63 -33.5 -116
t-97.5 -80q69 -24 107 -80.5t38 -124.5q0 -123 -77.5 -196.5t-217.5 -73.5q-132 0 -209 75.5t-88 204.5zM467 0l803 1454h100l-803 -1454h-100zM979 219v76l426 588h96v-578h127v-86h-127v-219h-92v219h-430zM1090 305h319v440z" />
    <glyph glyph-name="questiondown" unicode="&#xbf;" horiz-adv-x="1056" 
d="M975 -25q0 -117 -51.5 -214t-151.5 -155.5t-231 -58.5q-199 0 -313.5 113.5t-114.5 286.5q0 75 22 140.5t57.5 113t78.5 90.5t85.5 81.5t78 77t57.5 86t22 99.5q0 18 -2.5 42.5t-5.5 40.5l-2 15h96q10 -57 10 -98q0 -61 -21.5 -115t-56.5 -95t-76.5 -81t-83.5 -80.5
t-77 -84t-56.5 -102t-21.5 -124.5q0 -143 87 -228t237 -85t239.5 93t89.5 247l-4 81h105q4 -49 4 -86zM545 1049q37 0 60.5 -23.5t23.5 -58.5q0 -37 -23.5 -60.5t-60.5 -23.5q-36 0 -60 24t-24 60q0 35 24.5 58.5t59.5 23.5z" />
    <glyph glyph-name="Agrave" unicode="&#xc0;" horiz-adv-x="1368" 
d="M121 0h-109l617 1454h110l617 -1454h-113l-156 371h-811zM684 1335h-4l-365 -868h732zM479 1925h111l139 -348h-92z" />
    <glyph glyph-name="Aacute" unicode="&#xc1;" horiz-adv-x="1368" 
d="M121 0h-109l617 1454h110l617 -1454h-113l-156 371h-811zM684 1335h-4l-365 -868h732zM784 1925h111l-158 -348h-92z" />
    <glyph glyph-name="Acircumflex" unicode="&#xc2;" horiz-adv-x="1368" 
d="M121 0h-109l617 1454h110l617 -1454h-113l-156 371h-811zM684 1335h-4l-365 -868h732zM424 1679l258 133l258 -133v-102l-258 131l-258 -131v102z" />
    <glyph glyph-name="Atilde" unicode="&#xc3;" horiz-adv-x="1368" 
d="M121 0h-109l617 1454h110l617 -1454h-113l-156 371h-811zM684 1335h-4l-365 -868h732zM811 1630q-58 0 -138 41t-124 41q-41 0 -62 -17.5t-30 -58.5h-92q10 81 60 124.5t128 43.5q58 0 138 -41t124 -41q41 0 62 17.5t30 58.5h92q-10 -81 -60 -124.5t-128 -43.5z" />
    <glyph glyph-name="Adieresis" unicode="&#xc4;" horiz-adv-x="1368" 
d="M121 0h-109l617 1454h110l617 -1454h-113l-156 371h-811zM684 1335h-4l-365 -868h732zM543 1577q-35 0 -57.5 22t-22.5 56q0 35 22.5 57.5t57.5 22.5q34 0 57 -22.5t23 -57.5q0 -34 -23 -56t-57 -22zM821 1577q-35 0 -57.5 22t-22.5 56q0 35 22.5 57.5t57.5 22.5
q34 0 57 -22.5t23 -57.5q0 -34 -23 -56t-57 -22z" />
    <glyph glyph-name="Aring" unicode="&#xc5;" horiz-adv-x="1368" 
d="M121 0h-109l617 1454h110l617 -1454h-113l-156 371h-811zM684 1335h-4l-365 -868h732zM555 1761q0 -59 35 -98t96 -39q60 0 95.5 39t35.5 98q0 58 -35.5 97.5t-95.5 39.5q-61 0 -96 -39.5t-35 -97.5zM467 1761q0 92 61 154.5t158 62.5t157 -62t60 -155t-60 -155t-157 -62
t-158 62.5t-61 154.5z" />
    <glyph glyph-name="AE" unicode="&#xc6;" horiz-adv-x="2019" 
d="M72 0h-117l917 1454h1024v-96h-854v-572h805v-96h-805v-594h854v-96h-954v371h-639zM924 1358l-559 -891h577v891h-18z" />
    <glyph glyph-name="Ccedilla" unicode="&#xc7;" horiz-adv-x="1601" 
d="M688 -432l43 70q5 -5 13.5 -11.5t37 -18t58.5 -11.5q54 0 86 28.5t32 79.5q0 48 -28 77.5t-84 29.5q-20 0 -37.5 -4.5t-28.5 -11t-19.5 -13.5t-12.5 -11l-3 -5l-55 30l70 174q-148 11 -270.5 74.5t-204.5 164t-127 233.5t-45 284q0 159 49.5 297.5t140 240.5t226 161
t298.5 59q262 0 444.5 -146t237.5 -387h-104q-47 201 -204 321t-374 120q-271 0 -440.5 -185.5t-169.5 -480.5t169.5 -480.5t440.5 -185.5q217 0 374 120t204 321h104q-55 -240 -234 -385t-437 -148l-39 -96q22 12 65 12q85 0 135 -51t50 -129q0 -83 -59 -135.5t-154 -52.5
q-42 0 -79 12.5t-53 25.5z" />
    <glyph glyph-name="Egrave" unicode="&#xc8;" horiz-adv-x="1302" 
d="M1180 96v-96h-955v1454h955v-96h-854v-572h804v-96h-804v-594h854zM512 1925h111l139 -348h-92z" />
    <glyph glyph-name="Eacute" unicode="&#xc9;" horiz-adv-x="1302" 
d="M1180 96v-96h-955v1454h955v-96h-854v-572h804v-96h-804v-594h854zM778 1925h111l-158 -348h-92z" />
    <glyph glyph-name="Ecircumflex" unicode="&#xca;" horiz-adv-x="1302" 
d="M1180 96v-96h-955v1454h955v-96h-854v-572h804v-96h-804v-594h854zM455 1679l258 133l258 -133v-102l-258 131l-258 -131v102z" />
    <glyph glyph-name="Edieresis" unicode="&#xcb;" horiz-adv-x="1302" 
d="M1180 96v-96h-955v1454h955v-96h-854v-572h804v-96h-804v-594h854zM549 1577q-35 0 -57.5 22t-22.5 56q0 35 22.5 57.5t57.5 22.5q34 0 57 -22.5t23 -57.5q0 -34 -23 -56t-57 -22zM827 1577q-35 0 -57 22t-22 56q0 35 22 57.5t57 22.5q34 0 57 -22.5t23 -57.5
q0 -34 -23 -56t-57 -22z" />
    <glyph glyph-name="Igrave" unicode="&#xcc;" horiz-adv-x="550" 
d="M326 1454v-1454h-101v1454h101zM76 1925h110l140 -348h-93z" />
    <glyph glyph-name="Iacute" unicode="&#xcd;" horiz-adv-x="550" 
d="M326 1454v-1454h-101v1454h101zM371 1925h110l-157 -348h-93z" />
    <glyph glyph-name="Icircumflex" unicode="&#xce;" horiz-adv-x="550" 
d="M326 1454v-1454h-101v1454h101zM16 1704l258 133l258 -133v-102l-258 131l-258 -131v102z" />
    <glyph glyph-name="Idieresis" unicode="&#xcf;" horiz-adv-x="550" 
d="M326 1454v-1454h-101v1454h101zM137 1577q-35 0 -57.5 22t-22.5 56q0 35 22.5 57.5t57.5 22.5q34 0 57 -22.5t23 -57.5q0 -34 -23 -56t-57 -22zM416 1577q-35 0 -57.5 22t-22.5 56q0 35 22.5 57.5t57.5 22.5q34 0 57 -22.5t23 -57.5q0 -34 -23 -56t-57 -22z" />
    <glyph glyph-name="Eth" unicode="&#xd0;" horiz-adv-x="1574" 
d="M637 0h-412v682h-176v90h176v682h412q387 0 606 -195t219 -532t-219 -532t-606 -195zM1358 727q0 298 -187 464.5t-542 166.5h-303v-586h381v-90h-381v-586h303q355 0 542 166.5t187 464.5z" />
    <glyph glyph-name="Ntilde" unicode="&#xd1;" horiz-adv-x="1581" 
d="M326 1298v-1298h-101v1454h111l919 -1300v1300h101v-1454h-111zM932 1571q-58 0 -138 41t-124 41q-41 0 -62 -17.5t-30 -58.5h-93q10 81 60.5 124.5t128.5 43.5q58 0 138 -41t124 -41q41 0 62 17.5t30 58.5h92q-10 -81 -60 -124.5t-128 -43.5z" />
    <glyph glyph-name="Ograve" unicode="&#xd2;" horiz-adv-x="1699" 
d="M1587 727q0 -209 -89.5 -381t-259 -274.5t-388.5 -102.5t-388.5 102.5t-259 274.5t-89.5 381t89.5 381t259 274.5t388.5 102.5t388.5 -102.5t259 -274.5t89.5 -381zM1483 727q0 193 -82.5 345.5t-226.5 236.5t-324 84t-324 -84t-226.5 -236.5t-82.5 -345.5t82.5 -345.5
t226.5 -236.5t324 -84t324 84t226.5 236.5t82.5 345.5zM651 1925h111l139 -348h-92z" />
    <glyph glyph-name="Oacute" unicode="&#xd3;" horiz-adv-x="1699" 
d="M1587 727q0 -209 -89.5 -381t-259 -274.5t-388.5 -102.5t-388.5 102.5t-259 274.5t-89.5 381t89.5 381t259 274.5t388.5 102.5t388.5 -102.5t259 -274.5t89.5 -381zM1483 727q0 193 -82.5 345.5t-226.5 236.5t-324 84t-324 -84t-226.5 -236.5t-82.5 -345.5t82.5 -345.5
t226.5 -236.5t324 -84t324 84t226.5 236.5t82.5 345.5zM940 1925h111l-158 -348h-92z" />
    <glyph glyph-name="Ocircumflex" unicode="&#xd4;" horiz-adv-x="1699" 
d="M1587 727q0 -209 -89.5 -381t-259 -274.5t-388.5 -102.5t-388.5 102.5t-259 274.5t-89.5 381t89.5 381t259 274.5t388.5 102.5t388.5 -102.5t259 -274.5t89.5 -381zM1483 727q0 193 -82.5 345.5t-226.5 236.5t-324 84t-324 -84t-226.5 -236.5t-82.5 -345.5t82.5 -345.5
t226.5 -236.5t324 -84t324 84t226.5 236.5t82.5 345.5zM588 1722l258 133l258 -133v-102l-258 131l-258 -131v102z" />
    <glyph glyph-name="Otilde" unicode="&#xd5;" horiz-adv-x="1699" 
d="M1587 727q0 -209 -89.5 -381t-259 -274.5t-388.5 -102.5t-388.5 102.5t-259 274.5t-89.5 381t89.5 381t259 274.5t388.5 102.5t388.5 -102.5t259 -274.5t89.5 -381zM1483 727q0 193 -82.5 345.5t-226.5 236.5t-324 84t-324 -84t-226.5 -236.5t-82.5 -345.5t82.5 -345.5
t226.5 -236.5t324 -84t324 84t226.5 236.5t82.5 345.5zM981 1630q-58 0 -138 41t-124 41q-41 0 -62 -17.5t-30 -58.5h-92q10 81 60 124.5t128 43.5q58 0 138 -41t124 -41q41 0 62 17.5t30 58.5h92q-10 -81 -60 -124.5t-128 -43.5z" />
    <glyph glyph-name="Odieresis" unicode="&#xd6;" horiz-adv-x="1699" 
d="M1587 727q0 -209 -89.5 -381t-259 -274.5t-388.5 -102.5t-388.5 102.5t-259 274.5t-89.5 381t89.5 381t259 274.5t388.5 102.5t388.5 -102.5t259 -274.5t89.5 -381zM1483 727q0 193 -82.5 345.5t-226.5 236.5t-324 84t-324 -84t-226.5 -236.5t-82.5 -345.5t82.5 -345.5
t226.5 -236.5t324 -84t324 84t226.5 236.5t82.5 345.5zM719 1630q-35 0 -57.5 22t-22.5 56q0 35 22.5 57.5t57.5 22.5q34 0 57 -22.5t23 -57.5q0 -34 -23 -56t-57 -22zM997 1630q-35 0 -57 22t-22 56q0 35 22 57.5t57 22.5q34 0 57 -22.5t23 -57.5q0 -34 -23 -56t-57 -22z
" />
    <glyph glyph-name="multiply" unicode="&#xd7;" 
d="M145 899l68 68l383 -383l381 381l67 -68l-380 -381l380 -381l-67 -67l-381 381l-383 -383l-68 67l383 383z" />
    <glyph glyph-name="Oslash" unicode="&#xd8;" horiz-adv-x="1699" 
d="M1587 727q0 -209 -89.5 -381t-259 -274.5t-388.5 -102.5q-264 0 -453 146l-157 -193l-64 53l158 195q-106 103 -163.5 247.5t-57.5 309.5q0 209 89.5 381t259 274.5t388.5 102.5q255 0 440 -139l152 186l65 -55l-151 -185q111 -105 171 -251.5t60 -313.5zM1483 727
q0 148 -49.5 272.5t-139.5 214.5l-835 -1024q167 -129 391 -129q180 0 324 84t226.5 236.5t82.5 345.5zM217 727q0 -295 178 -479l834 1022q-164 123 -379 123q-180 0 -324 -84t-226.5 -236.5t-82.5 -345.5z" />
    <glyph glyph-name="Ugrave" unicode="&#xd9;" horiz-adv-x="1499" 
d="M750 -31q-263 0 -414.5 162t-151.5 471v852h101v-870q0 -239 123 -381t342 -142q218 0 341 142t123 381v870h101v-852q0 -310 -151 -471.5t-414 -161.5zM543 1925h110l140 -348h-93z" />
    <glyph glyph-name="Uacute" unicode="&#xda;" horiz-adv-x="1499" 
d="M750 -31q-263 0 -414.5 162t-151.5 471v852h101v-870q0 -239 123 -381t342 -142q218 0 341 142t123 381v870h101v-852q0 -310 -151 -471.5t-414 -161.5zM817 1927h111l-158 -348h-92z" />
    <glyph glyph-name="Ucircumflex" unicode="&#xdb;" horiz-adv-x="1499" 
d="M750 -31q-263 0 -414.5 162t-151.5 471v852h101v-870q0 -239 123 -381t342 -142q218 0 341 142t123 381v870h101v-852q0 -310 -151 -471.5t-414 -161.5zM487 1704l258 133l259 -133v-102l-259 131l-258 -131v102z" />
    <glyph glyph-name="Udieresis" unicode="&#xdc;" horiz-adv-x="1499" 
d="M750 -31q-263 0 -414.5 162t-151.5 471v852h101v-870q0 -239 123 -381t342 -142q218 0 341 142t123 381v870h101v-852q0 -310 -151 -471.5t-414 -161.5zM610 1577q-35 0 -57.5 22t-22.5 56q0 35 22.5 57.5t57.5 22.5q34 0 57 -22.5t23 -57.5q0 -34 -23 -56t-57 -22z
M889 1577q-35 0 -57.5 22t-22.5 56q0 35 22.5 57.5t57.5 22.5q34 0 57 -22.5t23 -57.5q0 -34 -23 -56t-57 -22z" />
    <glyph glyph-name="Yacute" unicode="&#xdd;" horiz-adv-x="1245" 
d="M1116 1454h117l-561 -934v-520h-101v520l-559 934h109l500 -827h4zM709 1925h110l-157 -348h-93z" />
    <glyph glyph-name="Thorn" unicode="&#xde;" horiz-adv-x="1320" 
d="M326 408v-408h-101v1454h101v-227h444q122 0 212.5 -31.5t144 -88.5t79 -129.5t25.5 -160.5t-25.5 -160t-79 -129t-144 -88.5t-212.5 -31.5h-444zM326 504h452q175 0 261.5 81t86.5 232t-86.5 232t-261.5 81h-452v-626z" />
    <glyph glyph-name="germandbls" unicode="&#xdf;" horiz-adv-x="1249" 
d="M1130 299q0 -150 -93 -236t-246 -86q-92 0 -164.5 28.5t-115 75t-65.5 99t-26 107.5h104q5 -95 75.5 -157t191.5 -62q115 0 178 61t63 170q0 60 -27.5 108t-84.5 95l-60 51q-58 50 -87.5 96.5t-29.5 114.5q0 33 10 66.5t19.5 53t30.5 56.5l18 33q45 83 45 157
q0 124 -76 189t-210 65q-140 0 -214.5 -88.5t-74.5 -246.5v-1049h-96v1042q0 198 105.5 314.5t279.5 116.5q176 0 278.5 -94.5t102.5 -248.5q0 -98 -62 -204l-18 -33q-43 -77 -43 -127q0 -43 18 -69.5t74 -75.5l59 -52q141 -120 141 -270z" />
    <glyph glyph-name="agrave" unicode="&#xe0;" horiz-adv-x="1308" 
d="M1018 1032h96v-1032h-96v213q-57 -113 -161.5 -175.5t-252.5 -62.5q-95 0 -175.5 29.5t-138 80.5t-98 119.5t-60 147.5t-19.5 164t19.5 164t60 147.5t98 119.5t138 80.5t175.5 29.5q147 0 251.5 -63t162.5 -175v213zM1022 516q0 195 -107 324t-294 129
q-188 0 -299 -129.5t-111 -323.5t111 -323.5t299 -129.5q187 0 294 129t107 324zM461 1554h110l140 -348h-93z" />
    <glyph glyph-name="aacute" unicode="&#xe1;" horiz-adv-x="1308" 
d="M1018 1032h96v-1032h-96v213q-57 -113 -161.5 -175.5t-252.5 -62.5q-95 0 -175.5 29.5t-138 80.5t-98 119.5t-60 147.5t-19.5 164t19.5 164t60 147.5t98 119.5t138 80.5t175.5 29.5q147 0 251.5 -63t162.5 -175v213zM1022 516q0 195 -107 324t-294 129
q-188 0 -299 -129.5t-111 -323.5t111 -323.5t299 -129.5q187 0 294 129t107 324zM719 1554h110l-157 -348h-92z" />
    <glyph glyph-name="acircumflex" unicode="&#xe2;" horiz-adv-x="1308" 
d="M1018 1032h96v-1032h-96v213q-57 -113 -161.5 -175.5t-252.5 -62.5q-95 0 -175.5 29.5t-138 80.5t-98 119.5t-60 147.5t-19.5 164t19.5 164t60 147.5t98 119.5t138 80.5t175.5 29.5q147 0 251.5 -63t162.5 -175v213zM1022 516q0 195 -107 324t-294 129
q-188 0 -299 -129.5t-111 -323.5t111 -323.5t299 -129.5q187 0 294 129t107 324zM369 1356l258 133l258 -133v-103l-258 131l-258 -131v103z" />
    <glyph glyph-name="atilde" unicode="&#xe3;" horiz-adv-x="1308" 
d="M1018 1032h96v-1032h-96v213q-57 -113 -161.5 -175.5t-252.5 -62.5q-95 0 -175.5 29.5t-138 80.5t-98 119.5t-60 147.5t-19.5 164t19.5 164t60 147.5t98 119.5t138 80.5t175.5 29.5q147 0 251.5 -63t162.5 -175v213zM1022 516q0 195 -107 324t-294 129
q-188 0 -299 -129.5t-111 -323.5t111 -323.5t299 -129.5q187 0 294 129t107 324zM750 1290q-58 0 -138.5 41t-124.5 41q-41 0 -62 -17.5t-30 -58.5h-92q10 81 60.5 124.5t128.5 43.5q58 0 138 -41t124 -41q41 0 62 17.5t30 58.5h92q-10 -81 -60 -124.5t-128 -43.5z" />
    <glyph glyph-name="adieresis" unicode="&#xe4;" horiz-adv-x="1308" 
d="M1018 1032h96v-1032h-96v213q-57 -113 -161.5 -175.5t-252.5 -62.5q-95 0 -175.5 29.5t-138 80.5t-98 119.5t-60 147.5t-19.5 164t19.5 164t60 147.5t98 119.5t138 80.5t175.5 29.5q147 0 251.5 -63t162.5 -175v213zM1022 516q0 195 -107 324t-294 129
q-188 0 -299 -129.5t-111 -323.5t111 -323.5t299 -129.5q187 0 294 129t107 324zM492 1309q-35 0 -57.5 21.5t-22.5 55.5q0 35 22.5 57.5t57.5 22.5q34 0 56.5 -22.5t22.5 -57.5q0 -34 -22.5 -55.5t-56.5 -21.5zM770 1309q-35 0 -57.5 21.5t-22.5 55.5q0 35 22.5 57.5
t57.5 22.5q34 0 57 -22.5t23 -57.5q0 -33 -23 -55t-57 -22z" />
    <glyph glyph-name="aring" unicode="&#xe5;" horiz-adv-x="1308" 
d="M1018 1032h96v-1032h-96v213q-57 -113 -161.5 -175.5t-252.5 -62.5q-95 0 -175.5 29.5t-138 80.5t-98 119.5t-60 147.5t-19.5 164t19.5 164t60 147.5t98 119.5t138 80.5t175.5 29.5q147 0 251.5 -63t162.5 -175v213zM1022 516q0 195 -107 324t-294 129
q-188 0 -299 -129.5t-111 -323.5t111 -323.5t299 -129.5q187 0 294 129t107 324zM496 1423q0 -59 35 -98t96 -39q60 0 95.5 39t35.5 98q0 58 -36 98t-95 40q-61 0 -96 -40t-35 -98zM408 1423q0 92 61 154.5t158 62.5t157 -62t60 -155t-60 -155t-157 -62t-158 62.5t-61 154.5
z" />
    <glyph glyph-name="ae" unicode="&#xe6;" horiz-adv-x="2000" 
d="M481 -25q-176 0 -270 81t-94 225q0 124 95.5 203.5t289.5 103.5l395 49v35q0 299 -330 299q-279 0 -327 -234h-97q25 148 130 234t298 86q165 0 265 -65t137 -181q66 112 175.5 179t250.5 67q112 0 205.5 -41t155.5 -112t96 -166t34 -203l-2 -46h-895q8 -182 118 -302.5
t288 -120.5q134 0 232 71t136 185h105q-48 -153 -171.5 -250t-301.5 -97q-162 0 -276.5 76.5t-174.5 204.5q-47 -130 -172 -205.5t-295 -75.5zM481 61q99 0 180.5 31t131 81t76 110.5t26.5 122.5v145l-377 -47q-162 -21 -232.5 -76.5t-70.5 -148.5q0 -51 17 -90t43.5 -63
t62.5 -39t71 -20.5t72 -5.5zM1399 965q-165 0 -274 -109t-128 -278h795q-14 174 -119.5 280.5t-273.5 106.5z" />
    <glyph glyph-name="ccedilla" unicode="&#xe7;" horiz-adv-x="1187" 
d="M496 -432l43 70q4 -5 13 -11.5t37 -18t58 -11.5q55 0 87 28.5t32 79.5q0 48 -28.5 77.5t-84.5 29.5q-31 0 -56 -11t-35 -23l-9 -11l-55 30l73 180q-85 7 -159 40t-128 85t-93 118t-58.5 141.5t-19.5 154.5q0 104 34.5 200.5t97.5 172.5t160 122t213 46q191 0 316 -108.5
t164 -278.5h-99q-38 141 -135 220t-246 79q-179 0 -293 -128.5t-114 -324.5t114 -324.5t293 -128.5q149 0 246 79t135 220h99q-37 -163 -154 -269.5t-297 -115.5l-41 -104q23 12 66 12q85 0 134.5 -51t49.5 -129q0 -83 -59 -135.5t-154 -52.5q-42 0 -78.5 12.5t-52.5 25.5z
" />
    <glyph glyph-name="egrave" unicode="&#xe8;" horiz-adv-x="1218" 
d="M1106 489h-895q8 -183 117.5 -303t287.5 -120q134 0 232.5 71t136.5 185h105q-48 -153 -172 -250t-302 -97q-121 0 -218 44.5t-158.5 120.5t-94 172.5t-32.5 203.5q0 106 35 203.5t98.5 172.5t159.5 120t210 45q149 0 262.5 -71t171.5 -188.5t58 -262.5zM616 965
q-165 0 -273.5 -109t-127.5 -278h795q-14 174 -120 280.5t-274 106.5zM440 1554h111l139 -348h-92z" />
    <glyph glyph-name="eacute" unicode="&#xe9;" horiz-adv-x="1218" 
d="M1106 489h-895q8 -183 117.5 -303t287.5 -120q134 0 232.5 71t136.5 185h105q-48 -153 -172 -250t-302 -97q-121 0 -218 44.5t-158.5 120.5t-94 172.5t-32.5 203.5q0 106 35 203.5t98.5 172.5t159.5 120t210 45q149 0 262.5 -71t171.5 -188.5t58 -262.5zM616 965
q-165 0 -273.5 -109t-127.5 -278h795q-14 174 -120 280.5t-274 106.5zM711 1554h110l-157 -348h-93z" />
    <glyph glyph-name="ecircumflex" unicode="&#xea;" horiz-adv-x="1218" 
d="M1106 489h-895q8 -183 117.5 -303t287.5 -120q134 0 232.5 71t136.5 185h105q-48 -153 -172 -250t-302 -97q-121 0 -218 44.5t-158.5 120.5t-94 172.5t-32.5 203.5q0 106 35 203.5t98.5 172.5t159.5 120t210 45q149 0 262.5 -71t171.5 -188.5t58 -262.5zM616 965
q-165 0 -273.5 -109t-127.5 -278h795q-14 174 -120 280.5t-274 106.5zM373 1356l258 133l258 -133v-103l-258 131l-258 -131v103z" />
    <glyph glyph-name="edieresis" unicode="&#xeb;" horiz-adv-x="1218" 
d="M1106 489h-895q8 -183 117.5 -303t287.5 -120q134 0 232.5 71t136.5 185h105q-48 -153 -172 -250t-302 -97q-121 0 -218 44.5t-158.5 120.5t-94 172.5t-32.5 203.5q0 106 35 203.5t98.5 172.5t159.5 120t210 45q149 0 262.5 -71t171.5 -188.5t58 -262.5zM616 965
q-165 0 -273.5 -109t-127.5 -278h795q-14 174 -120 280.5t-274 106.5zM481 1309q-35 0 -57.5 21.5t-22.5 55.5q0 35 22.5 57.5t57.5 22.5q34 0 57 -22.5t23 -57.5q0 -33 -23 -55t-57 -22zM760 1309q-35 0 -57.5 21.5t-22.5 55.5q0 35 22.5 57.5t57.5 22.5q34 0 57 -22.5
t23 -57.5q0 -33 -23 -55t-57 -22z" />
    <glyph glyph-name="igrave" unicode="&#xec;" horiz-adv-x="487" 
d="M47 1554h111l139 -348h-92zM291 1032v-1032h-96v1032h96z" />
    <glyph glyph-name="iacute" unicode="&#xed;" horiz-adv-x="487" 
d="M338 1554h111l-158 -348h-92zM291 1032v-1032h-96v1032h96z" />
    <glyph glyph-name="icircumflex" unicode="&#xee;" horiz-adv-x="487" 
d="M291 1032v-1032h-96v1032h96zM-14 1356l258 133l258 -133v-103l-258 131l-258 -131v103z" />
    <glyph glyph-name="idieresis" unicode="&#xef;" horiz-adv-x="487" 
d="M104 1309q-35 0 -57 21.5t-22 55.5q0 35 22 57.5t57 22.5q34 0 57 -22.5t23 -57.5q0 -33 -23 -55t-57 -22zM383 1309q-35 0 -57.5 21.5t-22.5 55.5q0 35 22.5 57.5t57.5 22.5q34 0 57 -22.5t23 -57.5q0 -33 -23 -55t-57 -22zM291 1032v-1032h-96v1032h96z" />
    <glyph glyph-name="eth" unicode="&#xf0;" horiz-adv-x="1259" 
d="M422 1210l-41 74l244 121q-27 20 -58 39.5t-48.5 29.5t-50.5 27.5t-38 20.5l49 69q134 -70 230 -143l225 113l41 -74l-197 -98q177 -160 273 -373t96 -469q0 -115 -36 -218.5t-101 -182.5t-164 -125t-217 -46t-217 45t-163.5 120.5t-100 172.5t-35.5 203t35.5 203
t100 172.5t163.5 120.5t217 45q123 0 228.5 -55t170.5 -146q-114 301 -332 492zM211 516q0 -126 50 -228t146 -163.5t222 -61.5t222 61.5t146 163.5t50 228t-50 228t-146 163.5t-222 61.5t-222 -61.5t-146 -163.5t-50 -228z" />
    <glyph glyph-name="ntilde" unicode="&#xf1;" horiz-adv-x="1220" 
d="M291 1032v-168q11 21 27 43t47 50t68 49.5t92.5 36t117.5 14.5q188 0 290.5 -108.5t102.5 -282.5v-666h-96v637q0 160 -76.5 247t-228.5 87q-147 0 -245.5 -91t-98.5 -257v-623h-96v1032h96zM737 1290q-58 0 -138 41t-124 41q-41 0 -62 -17.5t-30 -58.5h-92
q10 81 60 124.5t128 43.5q58 0 138 -41t124 -41q41 0 62.5 17.5t30.5 58.5h92q-10 -81 -60.5 -124.5t-128.5 -43.5z" />
    <glyph glyph-name="ograve" unicode="&#xf2;" horiz-adv-x="1265" 
d="M633 -25q-118 0 -217.5 45t-164.5 120t-101.5 172.5t-36.5 203.5t36.5 203.5t101.5 172.5t164.5 120t217.5 45t217.5 -45t164.5 -120t101.5 -172.5t36.5 -203.5t-36.5 -203.5t-101.5 -172.5t-164.5 -120t-217.5 -45zM211 516q0 -192 116.5 -322.5t305.5 -130.5
t305.5 130.5t116.5 322.5t-116.5 322.5t-305.5 130.5t-305.5 -130.5t-116.5 -322.5zM467 1554h111l139 -348h-92z" />
    <glyph glyph-name="oacute" unicode="&#xf3;" horiz-adv-x="1265" 
d="M633 -25q-118 0 -217.5 45t-164.5 120t-101.5 172.5t-36.5 203.5t36.5 203.5t101.5 172.5t164.5 120t217.5 45t217.5 -45t164.5 -120t101.5 -172.5t36.5 -203.5t-36.5 -203.5t-101.5 -172.5t-164.5 -120t-217.5 -45zM211 516q0 -192 116.5 -322.5t305.5 -130.5
t305.5 130.5t116.5 322.5t-116.5 322.5t-305.5 130.5t-305.5 -130.5t-116.5 -322.5zM739 1554h111l-158 -348h-92z" />
    <glyph glyph-name="ocircumflex" unicode="&#xf4;" horiz-adv-x="1265" 
d="M633 -25q-118 0 -217.5 45t-164.5 120t-101.5 172.5t-36.5 203.5t36.5 203.5t101.5 172.5t164.5 120t217.5 45t217.5 -45t164.5 -120t101.5 -172.5t36.5 -203.5t-36.5 -203.5t-101.5 -172.5t-164.5 -120t-217.5 -45zM211 516q0 -192 116.5 -322.5t305.5 -130.5
t305.5 130.5t116.5 322.5t-116.5 322.5t-305.5 130.5t-305.5 -130.5t-116.5 -322.5zM401 1356l258 133l259 -133v-103l-259 131l-258 -131v103z" />
    <glyph glyph-name="otilde" unicode="&#xf5;" horiz-adv-x="1265" 
d="M633 -25q-118 0 -217.5 45t-164.5 120t-101.5 172.5t-36.5 203.5t36.5 203.5t101.5 172.5t164.5 120t217.5 45t217.5 -45t164.5 -120t101.5 -172.5t36.5 -203.5t-36.5 -203.5t-101.5 -172.5t-164.5 -120t-217.5 -45zM211 516q0 -192 116.5 -322.5t305.5 -130.5
t305.5 130.5t116.5 322.5t-116.5 322.5t-305.5 130.5t-305.5 -130.5t-116.5 -322.5zM762 1290q-58 0 -138 41t-124 41q-41 0 -62 -17.5t-30 -58.5h-93q10 81 60.5 124.5t128.5 43.5q58 0 138 -41t124 -41q41 0 62 17.5t30 58.5h92q-10 -81 -60 -124.5t-128 -43.5z" />
    <glyph glyph-name="odieresis" unicode="&#xf6;" horiz-adv-x="1265" 
d="M633 -25q-118 0 -217.5 45t-164.5 120t-101.5 172.5t-36.5 203.5t36.5 203.5t101.5 172.5t164.5 120t217.5 45t217.5 -45t164.5 -120t101.5 -172.5t36.5 -203.5t-36.5 -203.5t-101.5 -172.5t-164.5 -120t-217.5 -45zM211 516q0 -192 116.5 -322.5t305.5 -130.5
t305.5 130.5t116.5 322.5t-116.5 322.5t-305.5 130.5t-305.5 -130.5t-116.5 -322.5zM494 1309q-35 0 -57.5 21.5t-22.5 55.5q0 35 22.5 57.5t57.5 22.5q34 0 56.5 -22.5t22.5 -57.5q0 -34 -22.5 -55.5t-56.5 -21.5zM772 1309q-35 0 -57.5 21.5t-22.5 55.5q0 35 22.5 57.5
t57.5 22.5q34 0 57 -22.5t23 -57.5q0 -33 -23 -55t-57 -22z" />
    <glyph glyph-name="divide" unicode="&#xf7;" 
d="M596 106q-37 0 -60.5 23.5t-23.5 58.5q0 37 23.5 60.5t60.5 23.5q36 0 60 -24t24 -60q0 -35 -24.5 -58.5t-59.5 -23.5zM596 760q-37 0 -60.5 23.5t-23.5 58.5q0 37 23.5 60.5t60.5 23.5q36 0 60 -24t24 -60q0 -35 -24.5 -58.5t-59.5 -23.5zM1122 563v-96h-1052v96h1052z
" />
    <glyph glyph-name="oslash" unicode="&#xf8;" horiz-adv-x="1265" 
d="M633 -25q-173 0 -305 95l-107 -129l-61 51l108 131q-75 75 -115 177.5t-40 215.5q0 106 36.5 203.5t101.5 172.5t164.5 120t217.5 45q181 0 317 -107l135 164l62 -51l-137 -166q69 -74 106 -174t37 -207q0 -106 -36.5 -203.5t-101.5 -172.5t-164.5 -120t-217.5 -45z
M1055 516q0 180 -105 307l-565 -684q105 -76 248 -76q189 0 305.5 130.5t116.5 322.5zM211 516q0 -194 115 -321l567 686q-112 88 -260 88q-189 0 -305.5 -130.5t-116.5 -322.5z" />
    <glyph glyph-name="ugrave" unicode="&#xf9;" horiz-adv-x="1200" 
d="M600 -25q-193 0 -304.5 110t-111.5 282v665h97v-637q0 -158 82.5 -246t236.5 -88t237 88t83 246v637h96v-665q0 -172 -111.5 -282t-304.5 -110zM387 1554h111l139 -348h-92z" />
    <glyph glyph-name="uacute" unicode="&#xfa;" horiz-adv-x="1200" 
d="M600 -25q-193 0 -304.5 110t-111.5 282v665h97v-637q0 -158 82.5 -246t236.5 -88t237 88t83 246v637h96v-665q0 -172 -111.5 -282t-304.5 -110zM668 1554h110l-157 -348h-93z" />
    <glyph glyph-name="ucircumflex" unicode="&#xfb;" horiz-adv-x="1200" 
d="M600 -25q-193 0 -304.5 110t-111.5 282v665h97v-637q0 -158 82.5 -246t236.5 -88t237 88t83 246v637h96v-665q0 -172 -111.5 -282t-304.5 -110zM326 1356l258 133l258 -133v-103l-258 131l-258 -131v103z" />
    <glyph glyph-name="udieresis" unicode="&#xfc;" horiz-adv-x="1200" 
d="M600 -25q-193 0 -304.5 110t-111.5 282v665h97v-637q0 -158 82.5 -246t236.5 -88t237 88t83 246v637h96v-665q0 -172 -111.5 -282t-304.5 -110zM440 1309q-35 0 -57.5 21.5t-22.5 55.5q0 35 22.5 57.5t57.5 22.5q34 0 57 -22.5t23 -57.5q0 -33 -23 -55t-57 -22zM719 1309
q-35 0 -57.5 21.5t-22.5 55.5q0 35 22.5 57.5t57.5 22.5q34 0 57 -22.5t23 -57.5q0 -33 -23 -55t-57 -22z" />
    <glyph glyph-name="yacute" unicode="&#xfd;" horiz-adv-x="1077" 
d="M305 -426l180 422l-440 1036h107l387 -926l391 926h102l-624 -1458h-103zM633 1554h110l-157 -348h-92z" />
    <glyph glyph-name="thorn" unicode="&#xfe;" horiz-adv-x="1308" 
d="M291 213v-639h-96v1960h96v-715q58 112 162.5 175t251.5 63q95 0 175.5 -29.5t138 -80.5t98 -119.5t60 -147.5t19.5 -164t-19.5 -164t-60 -147.5t-98 -119.5t-138 -80.5t-175.5 -29.5q-148 0 -252.5 62.5t-161.5 175.5zM287 516q0 -127 45 -228.5t137.5 -163t218.5 -61.5
q188 0 299 129.5t111 323.5t-111 323.5t-299 129.5q-187 0 -294 -129t-107 -324z" />
    <glyph glyph-name="ydieresis" unicode="&#xff;" horiz-adv-x="1077" 
d="M305 -426l180 422l-440 1036h107l387 -926l391 926h102l-624 -1458h-103zM401 1309q-35 0 -57 21.5t-22 55.5q0 35 22 57.5t57 22.5q34 0 57 -22.5t23 -57.5q0 -33 -23 -55t-57 -22zM680 1309q-35 0 -57.5 21.5t-22.5 55.5q0 35 22.5 57.5t57.5 22.5q34 0 57 -22.5
t23 -57.5q0 -33 -23 -55t-57 -22z" />
    <glyph glyph-name="Amacron" unicode="&#x100;" horiz-adv-x="1368" 
d="M121 0h-109l617 1454h110l617 -1454h-113l-156 371h-811zM684 1335h-4l-365 -868h732zM993 1667v-90h-620v90h620z" />
    <glyph glyph-name="amacron" unicode="&#x101;" horiz-adv-x="1308" 
d="M1018 1032h96v-1032h-96v213q-57 -113 -161.5 -175.5t-252.5 -62.5q-95 0 -175.5 29.5t-138 80.5t-98 119.5t-60 147.5t-19.5 164t19.5 164t60 147.5t98 119.5t138 80.5t175.5 29.5q147 0 251.5 -63t162.5 -175v213zM1022 516q0 195 -107 324t-294 129
q-188 0 -299 -129.5t-111 -323.5t111 -323.5t299 -129.5q187 0 294 129t107 324zM946 1411v-90h-620v90h620z" />
    <glyph glyph-name="Abreve" unicode="&#x102;" horiz-adv-x="1368" 
d="M121 0h-109l617 1454h110l617 -1454h-113l-156 371h-811zM684 1335h-4l-365 -868h732zM682 1661q78 0 125 42.5t47 117.5h90q0 -116 -72 -180t-190 -64t-190 64t-72 180h90q0 -75 47 -117.5t125 -42.5z" />
    <glyph glyph-name="abreve" unicode="&#x103;" horiz-adv-x="1308" 
d="M1018 1032h96v-1032h-96v213q-57 -113 -161.5 -175.5t-252.5 -62.5q-95 0 -175.5 29.5t-138 80.5t-98 119.5t-60 147.5t-19.5 164t19.5 164t60 147.5t98 119.5t138 80.5t175.5 29.5q147 0 251.5 -63t162.5 -175v213zM1022 516q0 195 -107 324t-294 129
q-188 0 -299 -129.5t-111 -323.5t111 -323.5t299 -129.5q187 0 294 129t107 324zM625 1311q78 0 125 42t47 117h90q0 -116 -71.5 -179.5t-190.5 -63.5t-191 63.5t-72 179.5h91q0 -75 47 -117t125 -42z" />
    <glyph glyph-name="Aogonek" unicode="&#x104;" horiz-adv-x="1368" 
d="M1393 -270l49 -62q-2 -3 -6 -8.5t-20 -20t-34 -25t-49.5 -19.5t-66.5 -9q-95 0 -142 60t-47 143q0 75 39 142.5t111 109.5l-140 330h-811l-155 -371h-109l617 1454h110l617 -1454h-23q-79 -29 -120.5 -87t-41.5 -122q0 -51 28 -86t81 -35q33 0 61 15t40 30zM684 1335h-4
l-365 -868h732z" />
    <glyph glyph-name="aogonek" unicode="&#x105;" horiz-adv-x="1308" 
d="M1149 -268l49 -62q-2 -3 -6 -8.5t-20 -20t-34 -25t-49.5 -19.5t-66.5 -9q-95 0 -141.5 60t-46.5 143q0 85 47 155.5t137 112.5v154q-57 -113 -161.5 -175.5t-252.5 -62.5q-95 0 -175.5 29.5t-138 80.5t-98 119.5t-60 147.5t-19.5 164t19.5 164t60 147.5t98 119.5
t138 80.5t175.5 29.5q147 0 251.5 -63t162.5 -175v213h96v-1032h-31q-76 -29 -115.5 -86t-39.5 -121q0 -51 28 -86t80 -35q33 0 61 15t40 30zM1022 516q0 195 -107 324t-294 129q-188 0 -299 -129.5t-111 -323.5t111 -323.5t299 -129.5q187 0 294 129t107 324z" />
    <glyph glyph-name="Cacute" unicode="&#x106;" horiz-adv-x="1601" 
d="M113 727q0 159 49.5 297.5t140 240.5t226 161t298.5 59q262 0 444.5 -146t237.5 -387h-104q-47 201 -204 321t-374 120q-271 0 -440.5 -185.5t-169.5 -480.5t169.5 -480.5t440.5 -185.5q217 0 374 120t204 321h104q-55 -241 -237.5 -387t-444.5 -146q-163 0 -298.5 59
t-226 161t-140 240.5t-49.5 297.5zM913 1925h111l-158 -348h-92z" />
    <glyph glyph-name="cacute" unicode="&#x107;" horiz-adv-x="1187" 
d="M113 516q0 104 34.5 200.5t97.5 172.5t160 122t213 46q191 0 316 -108.5t164 -278.5h-99q-38 141 -135 220t-246 79q-179 0 -293 -128.5t-114 -324.5t114 -324.5t293 -128.5q149 0 246 79t135 220h99q-39 -170 -164 -278.5t-316 -108.5q-116 0 -213 46t-160 122
t-97.5 172.5t-34.5 200.5zM713 1554h110l-157 -348h-93z" />
    <glyph glyph-name="Ccircumflex" unicode="&#x108;" horiz-adv-x="1601" 
d="M113 727q0 159 49.5 297.5t140 240.5t226 161t298.5 59q262 0 444.5 -146t237.5 -387h-104q-47 201 -204 321t-374 120q-271 0 -440.5 -185.5t-169.5 -480.5t169.5 -480.5t440.5 -185.5q217 0 374 120t204 321h104q-55 -241 -237.5 -387t-444.5 -146q-163 0 -298.5 59
t-226 161t-140 240.5t-49.5 297.5zM565 1704l258 133l258 -133v-102l-258 131l-258 -131v102z" />
    <glyph glyph-name="ccircumflex" unicode="&#x109;" horiz-adv-x="1187" 
d="M113 516q0 104 34.5 200.5t97.5 172.5t160 122t213 46q191 0 316 -108.5t164 -278.5h-99q-38 141 -135 220t-246 79q-179 0 -293 -128.5t-114 -324.5t114 -324.5t293 -128.5q149 0 246 79t135 220h99q-39 -170 -164 -278.5t-316 -108.5q-116 0 -213 46t-160 122
t-97.5 172.5t-34.5 200.5zM362 1356l259 133l258 -133v-103l-258 131l-259 -131v103z" />
    <glyph glyph-name="Cdotaccent" unicode="&#x10a;" horiz-adv-x="1601" 
d="M113 727q0 159 49.5 297.5t140 240.5t226 161t298.5 59q262 0 444.5 -146t237.5 -387h-104q-47 201 -204 321t-374 120q-271 0 -440.5 -185.5t-169.5 -480.5t169.5 -480.5t440.5 -185.5q217 0 374 120t204 321h104q-55 -241 -237.5 -387t-444.5 -146q-163 0 -298.5 59
t-226 161t-140 240.5t-49.5 297.5zM819 1597q-35 0 -57.5 22t-22.5 56q0 35 22.5 57.5t57.5 22.5q34 0 57 -22.5t23 -57.5q0 -34 -23 -56t-57 -22z" />
    <glyph glyph-name="cdotaccent" unicode="&#x10b;" horiz-adv-x="1187" 
d="M113 516q0 104 34.5 200.5t97.5 172.5t160 122t213 46q191 0 316 -108.5t164 -278.5h-99q-38 141 -135 220t-246 79q-179 0 -293 -128.5t-114 -324.5t114 -324.5t293 -128.5q149 0 246 79t135 220h99q-39 -170 -164 -278.5t-316 -108.5q-116 0 -213 46t-160 122
t-97.5 172.5t-34.5 200.5zM594 1309q-35 0 -57.5 21.5t-22.5 55.5q0 35 22.5 57.5t57.5 22.5q34 0 57 -22.5t23 -57.5q0 -33 -23 -55t-57 -22z" />
    <glyph glyph-name="Ccaron" unicode="&#x10c;" horiz-adv-x="1601" 
d="M113 727q0 159 49.5 297.5t140 240.5t226 161t298.5 59q262 0 444.5 -146t237.5 -387h-104q-47 201 -204 321t-374 120q-271 0 -440.5 -185.5t-169.5 -480.5t169.5 -480.5t440.5 -185.5q217 0 374 120t204 321h104q-55 -241 -237.5 -387t-444.5 -146q-163 0 -298.5 59
t-226 161t-140 240.5t-49.5 297.5zM834 1581l-259 133v103l259 -131l258 131v-103z" />
    <glyph glyph-name="ccaron" unicode="&#x10d;" horiz-adv-x="1187" 
d="M113 516q0 104 34.5 200.5t97.5 172.5t160 122t213 46q191 0 316 -108.5t164 -278.5h-99q-38 141 -135 220t-246 79q-179 0 -293 -128.5t-114 -324.5t114 -324.5t293 -128.5q149 0 246 79t135 220h99q-39 -170 -164 -278.5t-316 -108.5q-116 0 -213 46t-160 122
t-97.5 172.5t-34.5 200.5zM623 1233l-258 133v102l258 -131l258 131v-102z" />
    <glyph glyph-name="Dcaron" unicode="&#x10e;" horiz-adv-x="1574" 
d="M659 0h-434v1454h434q192 0 344.5 -52.5t252.5 -148.5t153 -229.5t53 -296.5t-53 -296.5t-153 -229.5t-252.5 -148.5t-344.5 -52.5zM1358 727q0 298 -180.5 464.5t-526.5 166.5h-325v-1262h325q346 0 526.5 166.5t180.5 464.5zM715 1581l-258 133v103l258 -131l258 131
v-103z" />
    <glyph glyph-name="dcaron" unicode="&#x10f;" horiz-adv-x="1308" 
d="M1018 819v717h96v-1536h-96v213q-57 -113 -161.5 -175.5t-252.5 -62.5q-95 0 -175.5 29.5t-138 80.5t-98 119.5t-60 147.5t-19.5 164t19.5 164t60 147.5t98 119.5t138 80.5t175.5 29.5q147 0 251.5 -63t162.5 -175zM1022 516q0 195 -107 324t-294 129q-188 0 -299 -129.5
t-111 -323.5t111 -323.5t299 -129.5q187 0 294 129t107 324zM1239 1499l74 55q3 -3 8.5 -8t19 -22t23.5 -36t18.5 -49t8.5 -61q0 -49 -12.5 -93.5t-29.5 -73t-34.5 -49.5t-30.5 -30l-12 -10l-58 70q3 2 9 6.5t20.5 21.5t25.5 36t20 51t9 67t-15 66t-29.5 46.5t-14.5 12.5z
" />
    <glyph glyph-name="Dcroat" unicode="&#x110;" horiz-adv-x="1574" 
d="M637 0h-412v682h-176v90h176v682h412q387 0 606 -195t219 -532t-219 -532t-606 -195zM1358 727q0 298 -187 464.5t-542 166.5h-303v-586h381v-90h-381v-586h303q355 0 542 166.5t187 464.5z" />
    <glyph glyph-name="dcroat" unicode="&#x111;" horiz-adv-x="1308" 
d="M1018 819v391h-359v90h359v236h96v-236h166v-90h-166v-1210h-96v213q-57 -113 -161.5 -175.5t-252.5 -62.5q-95 0 -175.5 29.5t-138 80.5t-98 119.5t-60 147.5t-19.5 164t19.5 164t60 147.5t98 119.5t138 80.5t175.5 29.5q147 0 251.5 -63t162.5 -175zM1022 516
q0 195 -107 324t-294 129q-188 0 -299 -129.5t-111 -323.5t111 -323.5t299 -129.5q187 0 294 129t107 324z" />
    <glyph glyph-name="Emacron" unicode="&#x112;" horiz-adv-x="1302" 
d="M1180 96v-96h-955v1454h955v-96h-854v-572h804v-96h-804v-594h854zM1012 1667v-90h-621v90h621z" />
    <glyph glyph-name="emacron" unicode="&#x113;" horiz-adv-x="1218" 
d="M1106 489h-895q8 -183 117.5 -303t287.5 -120q134 0 232.5 71t136.5 185h105q-48 -153 -172 -250t-302 -97q-121 0 -218 44.5t-158.5 120.5t-94 172.5t-32.5 203.5q0 106 35 203.5t98.5 172.5t159.5 120t210 45q149 0 262.5 -71t171.5 -188.5t58 -262.5zM616 965
q-165 0 -273.5 -109t-127.5 -278h795q-14 174 -120 280.5t-274 106.5zM930 1411v-90h-621v90h621z" />
    <glyph glyph-name="Ebreve" unicode="&#x114;" horiz-adv-x="1302" 
d="M1180 96v-96h-955v1454h955v-96h-854v-572h804v-96h-804v-594h854zM692 1661q78 0 125 42.5t47 117.5h90q0 -116 -72 -180t-190 -64t-190 64t-72 180h90q0 -75 47 -117.5t125 -42.5z" />
    <glyph glyph-name="ebreve" unicode="&#x115;" horiz-adv-x="1218" 
d="M1106 489h-895q8 -183 117.5 -303t287.5 -120q134 0 232.5 71t136.5 185h105q-48 -153 -172 -250t-302 -97q-121 0 -218 44.5t-158.5 120.5t-94 172.5t-32.5 203.5q0 106 35 203.5t98.5 172.5t159.5 120t210 45q149 0 262.5 -71t171.5 -188.5t58 -262.5zM616 965
q-165 0 -273.5 -109t-127.5 -278h795q-14 174 -120 280.5t-274 106.5zM616 1311q78 0 125 42t47 117h91q0 -116 -72 -179.5t-191 -63.5t-190.5 63.5t-71.5 179.5h90q0 -75 47 -117t125 -42z" />
    <glyph glyph-name="Edotaccent" unicode="&#x116;" horiz-adv-x="1302" 
d="M1180 96v-96h-955v1454h955v-96h-854v-572h804v-96h-804v-594h854zM705 1597q-35 0 -57.5 22t-22.5 56q0 35 22.5 57.5t57.5 22.5q34 0 56.5 -22.5t22.5 -57.5q0 -34 -22.5 -56t-56.5 -22z" />
    <glyph glyph-name="edotaccent" unicode="&#x117;" horiz-adv-x="1218" 
d="M1106 489h-895q8 -183 117.5 -303t287.5 -120q134 0 232.5 71t136.5 185h105q-48 -153 -172 -250t-302 -97q-121 0 -218 44.5t-158.5 120.5t-94 172.5t-32.5 203.5q0 106 35 203.5t98.5 172.5t159.5 120t210 45q149 0 262.5 -71t171.5 -188.5t58 -262.5zM616 965
q-165 0 -273.5 -109t-127.5 -278h795q-14 174 -120 280.5t-274 106.5zM618 1309q-35 0 -57 21.5t-22 55.5q0 35 22 57.5t57 22.5q34 0 57 -22.5t23 -57.5q0 -33 -23 -55t-57 -22z" />
    <glyph glyph-name="Eogonek" unicode="&#x118;" horiz-adv-x="1302" 
d="M1114 -268l49 -62q-2 -3 -6 -8.5t-20 -20t-34 -25t-49.5 -19.5t-66.5 -9q-95 0 -141.5 60t-46.5 143q0 123 92 209h-666v1454h955v-96h-854v-572h804v-96h-804v-594h854v-96h-131q-76 -29 -116 -86t-40 -121q0 -51 28 -86t80 -35q33 0 61 15t40 30z" />
    <glyph glyph-name="eogonek" unicode="&#x119;" horiz-adv-x="1218" 
d="M801 -276l49 -62q-2 -3 -6 -8.5t-20 -20t-34 -25t-49.5 -19.5t-66.5 -9q-95 0 -142 60t-47 143q0 113 78 194q-108 10 -195 58t-142 122t-84 166t-29 193q0 106 35 203.5t98.5 172.5t159.5 120t210 45q149 0 262.5 -71t171.5 -188.5t58 -262.5l-2 -46h-895
q8 -183 117.5 -303t287.5 -120q134 0 232.5 71t136.5 185h105q-41 -128 -137 -218.5t-234 -117.5q-69 -31 -104 -85.5t-35 -115.5q0 -51 28 -86t80 -35q33 0 61 15t40 30zM616 965q-165 0 -273.5 -109t-127.5 -278h795q-14 174 -120 280.5t-274 106.5z" />
    <glyph glyph-name="Ecaron" unicode="&#x11a;" horiz-adv-x="1302" 
d="M1180 96v-96h-955v1454h955v-96h-854v-572h804v-96h-804v-594h854zM702 1581l-258 133v103l258 -131l259 131v-103z" />
    <glyph glyph-name="ecaron" unicode="&#x11b;" horiz-adv-x="1218" 
d="M1106 489h-895q8 -183 117.5 -303t287.5 -120q134 0 232.5 71t136.5 185h105q-48 -153 -172 -250t-302 -97q-121 0 -218 44.5t-158.5 120.5t-94 172.5t-32.5 203.5q0 106 35 203.5t98.5 172.5t159.5 120t210 45q149 0 262.5 -71t171.5 -188.5t58 -262.5zM616 965
q-165 0 -273.5 -109t-127.5 -278h795q-14 174 -120 280.5t-274 106.5zM618 1233l-258 133v102l258 -131l259 131v-102z" />
    <glyph glyph-name="Gcircumflex" unicode="&#x11c;" horiz-adv-x="1677" 
d="M913 766h650q2 -19 2 -39q0 -213 -86.5 -384t-252 -272.5t-382.5 -101.5q-163 0 -301 59t-231.5 161t-146 241t-52.5 297t52.5 297t147 241t232.5 161t301 59q258 0 442.5 -135.5t241.5 -368.5h-105q-52 193 -209 302.5t-370 109.5q-179 0 -322.5 -84t-225 -236.5
t-81.5 -345.5q0 -194 81 -346t224 -236t322 -84q260 0 430.5 166t189.5 443h-551v96zM565 1704l258 133l258 -133v-102l-258 131l-258 -131v102z" />
    <glyph glyph-name="gcircumflex" unicode="&#x11d;" horiz-adv-x="1298" 
d="M1018 821v211h96v-977q0 -107 -29.5 -197.5t-86.5 -159.5t-150 -108t-213 -39q-102 0 -186 27t-139.5 73t-91 99.5t-52.5 114.5h104q36 -107 135.5 -166t233.5 -59q176 0 277.5 106t101.5 274v211q-59 -111 -163.5 -173t-250.5 -62q-115 0 -210 44t-155 118.5t-93 169
t-33 198.5q0 83 20.5 160.5t61.5 145t99 117.5t137.5 79t172.5 29q146 0 250.5 -62.5t163.5 -173.5zM1022 526q0 123 -47 223t-139.5 160t-214.5 60q-184 0 -297 -127.5t-113 -315.5q0 -122 49 -222t143.5 -160t217.5 -60q122 0 214.5 60t139.5 159.5t47 222.5zM379 1356
l258 133l258 -133v-103l-258 131l-258 -131v103z" />
    <glyph glyph-name="Gbreve" unicode="&#x11e;" horiz-adv-x="1677" 
d="M913 766h650q2 -19 2 -39q0 -213 -86.5 -384t-252 -272.5t-382.5 -101.5q-163 0 -301 59t-231.5 161t-146 241t-52.5 297t52.5 297t147 241t232.5 161t301 59q258 0 442.5 -135.5t241.5 -368.5h-105q-52 193 -209 302.5t-370 109.5q-179 0 -322.5 -84t-225 -236.5
t-81.5 -345.5q0 -194 81 -346t224 -236t322 -84q260 0 430.5 166t189.5 443h-551v96zM827 1661q78 0 125 42.5t47 117.5h91q0 -116 -72 -180t-191 -64q-118 0 -190 64t-72 180h90q0 -75 47 -117.5t125 -42.5z" />
    <glyph glyph-name="gbreve" unicode="&#x11f;" horiz-adv-x="1298" 
d="M1018 821v211h96v-977q0 -107 -29.5 -197.5t-86.5 -159.5t-150 -108t-213 -39q-102 0 -186 27t-139.5 73t-91 99.5t-52.5 114.5h104q36 -107 135.5 -166t233.5 -59q176 0 277.5 106t101.5 274v211q-59 -111 -163.5 -173t-250.5 -62q-115 0 -210 44t-155 118.5t-93 169
t-33 198.5q0 83 20.5 160.5t61.5 145t99 117.5t137.5 79t172.5 29q146 0 250.5 -62.5t163.5 -173.5zM1022 526q0 123 -47 223t-139.5 160t-214.5 60q-184 0 -297 -127.5t-113 -315.5q0 -122 49 -222t143.5 -160t217.5 -60q122 0 214.5 60t139.5 159.5t47 222.5zM637 1311
q78 0 125 42t47 117h90q0 -116 -71.5 -179.5t-190.5 -63.5t-190.5 63.5t-71.5 179.5h90q0 -75 47 -117t125 -42z" />
    <glyph glyph-name="Gdotaccent" unicode="&#x120;" horiz-adv-x="1677" 
d="M913 766h650q2 -19 2 -39q0 -213 -86.5 -384t-252 -272.5t-382.5 -101.5q-163 0 -301 59t-231.5 161t-146 241t-52.5 297t52.5 297t147 241t232.5 161t301 59q258 0 442.5 -135.5t241.5 -368.5h-105q-52 193 -209 302.5t-370 109.5q-179 0 -322.5 -84t-225 -236.5
t-81.5 -345.5q0 -194 81 -346t224 -236t322 -84q260 0 430.5 166t189.5 443h-551v96zM831 1597q-35 0 -57 22t-22 56q0 35 22 57.5t57 22.5q34 0 57 -22.5t23 -57.5q0 -34 -23 -56t-57 -22z" />
    <glyph glyph-name="gdotaccent" unicode="&#x121;" horiz-adv-x="1298" 
d="M1018 821v211h96v-977q0 -107 -29.5 -197.5t-86.5 -159.5t-150 -108t-213 -39q-102 0 -186 27t-139.5 73t-91 99.5t-52.5 114.5h104q36 -107 135.5 -166t233.5 -59q176 0 277.5 106t101.5 274v211q-59 -111 -163.5 -173t-250.5 -62q-115 0 -210 44t-155 118.5t-93 169
t-33 198.5q0 83 20.5 160.5t61.5 145t99 117.5t137.5 79t172.5 29q146 0 250.5 -62.5t163.5 -173.5zM1022 526q0 123 -47 223t-139.5 160t-214.5 60q-184 0 -297 -127.5t-113 -315.5q0 -122 49 -222t143.5 -160t217.5 -60q122 0 214.5 60t139.5 159.5t47 222.5zM635 1309
q-35 0 -57.5 21.5t-22.5 55.5q0 35 22.5 57.5t57.5 22.5q34 0 57 -22.5t23 -57.5q0 -33 -23 -55t-57 -22z" />
    <glyph glyph-name="Gcommaaccent" unicode="&#x122;" horiz-adv-x="1677" 
d="M913 766h650q2 -19 2 -39q0 -213 -86.5 -384t-252 -272.5t-382.5 -101.5q-163 0 -301 59t-231.5 161t-146 241t-52.5 297t52.5 297t147 241t232.5 161t301 59q258 0 442.5 -135.5t241.5 -368.5h-105q-52 193 -209 302.5t-370 109.5q-179 0 -322.5 -84t-225 -236.5
t-81.5 -345.5q0 -194 81 -346t224 -236t322 -84q260 0 430.5 166t189.5 443h-551v96zM743 -129l74 55q3 -3 8.5 -8t19 -22t23.5 -36t18.5 -49t8.5 -61q0 -49 -12.5 -93.5t-29.5 -73t-34.5 -49.5t-30.5 -30l-12 -10l-57 70q3 2 9 6.5t20.5 21.5t25.5 36t20 51t9 67t-15 66
t-30 46.5t-15 12.5z" />
    <glyph glyph-name="gcommaaccent" unicode="&#x123;" horiz-adv-x="1298" 
d="M1018 821v211h96v-977q0 -107 -29.5 -197.5t-86.5 -159.5t-150 -108t-213 -39q-102 0 -186 27t-139.5 73t-91 99.5t-52.5 114.5h104q36 -107 135.5 -166t233.5 -59q176 0 277.5 106t101.5 274v211q-59 -111 -163.5 -173t-250.5 -62q-115 0 -210 44t-155 118.5t-93 169
t-33 198.5q0 83 20.5 160.5t61.5 145t99 117.5t137.5 79t172.5 29q146 0 250.5 -62.5t163.5 -173.5zM1022 526q0 123 -47 223t-139.5 160t-214.5 60q-184 0 -297 -127.5t-113 -315.5q0 -122 49 -222t143.5 -160t217.5 -60q122 0 214.5 60t139.5 159.5t47 222.5zM715 1251
l-74 -55q-3 3 -8.5 8t-19 22t-23.5 36t-18.5 49t-8.5 61q0 49 12.5 93.5t29.5 73t34.5 49.5t30.5 30l12 10l57 -69q-3 -2 -9 -7t-20.5 -21.5t-25.5 -36t-20 -51.5t-9 -67t15 -66t30 -46.5t15 -12.5z" />
    <glyph glyph-name="Hcircumflex" unicode="&#x124;" horiz-adv-x="1581" 
d="M1356 1454v-1454h-101v690h-929v-690h-101v1454h101v-668h929v668h101zM530 1679l258 133l259 -133v-102l-259 131l-258 -131v102z" />
    <glyph glyph-name="hcircumflex" unicode="&#x125;" horiz-adv-x="1220" 
d="M291 1536v-664q14 26 39.5 54.5t67 59.5t106 51t139.5 20q188 0 290.5 -108.5t102.5 -282.5v-666h-96v637q0 160 -76.5 247t-228.5 87q-147 0 -245.5 -92.5t-98.5 -260.5v-618h-96v1536h96zM-14 1679l258 133l258 -133v-102l-258 131l-258 -131v102z" />
    <glyph glyph-name="Hbar" unicode="&#x126;" horiz-adv-x="1581" 
d="M1356 1454v-326h123v-96h-123v-1032h-101v690h-929v-690h-101v1032h-123v96h123v326h101v-326h929v326h101zM326 786h929v246h-929v-246z" />
    <glyph glyph-name="hbar" unicode="&#x127;" horiz-adv-x="1220" 
d="M291 1536v-236h358v-90h-358v-338q14 26 39.5 54.5t67 59.5t106 51t139.5 20q188 0 290.5 -108.5t102.5 -282.5v-666h-96v637q0 160 -76.5 247t-228.5 87q-147 0 -245.5 -92.5t-98.5 -260.5v-618h-96v1210h-166v90h166v236h96z" />
    <glyph glyph-name="Itilde" unicode="&#x128;" horiz-adv-x="550" 
d="M326 1454v-1454h-101v1454h101zM408 1571q-58 0 -138.5 41t-124.5 41q-41 0 -62 -17.5t-30 -58.5h-92q10 81 60.5 124.5t128.5 43.5q58 0 138 -41t124 -41q41 0 62 17.5t30 58.5h92q-10 -81 -60 -124.5t-128 -43.5z" />
    <glyph glyph-name="itilde" unicode="&#x129;" horiz-adv-x="487" 
d="M373 1290q-58 0 -138 41t-124 41q-41 0 -62.5 -17.5t-30.5 -58.5h-92q10 81 60.5 124.5t128.5 43.5q58 0 138 -41t124 -41q41 0 62 17.5t30 58.5h92q-10 -81 -60 -124.5t-128 -43.5zM291 1032v-1032h-96v1032h96z" />
    <glyph glyph-name="Imacron" unicode="&#x12a;" horiz-adv-x="550" 
d="M326 1454v-1454h-101v1454h101zM586 1667v-90h-621v90h621z" />
    <glyph glyph-name="imacron" unicode="&#x12b;" horiz-adv-x="487" 
d="M555 1411v-90h-621v90h621zM291 1032v-1032h-96v1032h96z" />
    <glyph glyph-name="Ibreve" unicode="&#x12c;" horiz-adv-x="550" 
d="M326 1454v-1454h-101v1454h101zM276 1661q78 0 125.5 42.5t47.5 117.5h90q0 -116 -72 -180t-191 -64q-118 0 -190 64t-72 180h90q0 -75 47 -117.5t125 -42.5z" />
    <glyph glyph-name="ibreve" unicode="&#x12d;" horiz-adv-x="487" 
d="M244 1311q78 0 125 42t47 117h90q0 -116 -71.5 -179.5t-190.5 -63.5t-190.5 63.5t-71.5 179.5h90q0 -75 47 -117t125 -42zM291 1032v-1032h-96v1032h96z" />
    <glyph glyph-name="Iogonek" unicode="&#x12e;" horiz-adv-x="550" 
d="M365 -268l49 -62q-2 -3 -6 -8.5t-20 -20t-34 -25t-49.5 -19.5t-66.5 -9q-95 0 -142 60t-47 143q0 84 44.5 154t131.5 112v1397h101v-1454h-27q-76 -29 -116 -86t-40 -121q0 -51 28 -86t81 -35q33 0 61 15t40 30z" />
    <glyph glyph-name="iogonek" unicode="&#x12f;" horiz-adv-x="487" 
d="M344 -268l49 -62q-2 -3 -6 -8.5t-20 -20t-34 -25t-49.5 -19.5t-66.5 -9q-95 0 -141.5 60t-46.5 143q0 80 42.5 149t123.5 111v981h96v-1032h-12q-76 -29 -116 -86t-40 -121q0 -51 28 -86t80 -35q33 0 61 15t40 30zM244 1329q-35 0 -57.5 22t-22.5 56q0 35 22.5 57.5
t57.5 22.5q34 0 57 -22.5t23 -57.5q0 -34 -23 -56t-57 -22z" />
    <glyph glyph-name="Idotaccent" unicode="&#x130;" horiz-adv-x="550" 
d="M326 1454v-1454h-101v1454h101zM274 1597q-35 0 -57 22t-22 56q0 35 22 57.5t57 22.5q34 0 57 -22.5t23 -57.5q0 -34 -23 -56t-57 -22z" />
    <glyph glyph-name="dotlessi" unicode="&#x131;" horiz-adv-x="487" 
d="M291 1032v-1032h-96v1032h96z" />
    <glyph glyph-name="Jcircumflex" unicode="&#x134;" horiz-adv-x="1224" 
d="M920 449v1005h100v-1003q0 -219 -121 -348.5t-334 -129.5q-211 0 -331.5 125t-120.5 336l4 86h102q-4 -33 -4 -86q0 -161 91.5 -264.5t258.5 -103.5q168 0 261.5 99.5t93.5 283.5zM715 1704l258 133l258 -133v-102l-258 131l-258 -131v102z" />
    <glyph glyph-name="jcircumflex" unicode="&#x135;" horiz-adv-x="487" 
d="M-18 1356l258 133l258 -133v-103l-258 131l-258 -131v103zM291 1032v-1413h-96v1413h96z" />
    <glyph glyph-name="Kcommaaccent" unicode="&#x136;" horiz-adv-x="1447" 
d="M1425 0h-129l-622 780l-348 -334v-446h-101v1454h101v-885q158 153 915 885h139l-635 -606zM672 -129l73 55q3 -3 8.5 -8t19 -22t23.5 -36t18.5 -49t8.5 -61q0 -49 -12 -93.5t-29.5 -73t-35 -49.5t-29.5 -30l-12 -10l-58 70q3 2 9 6.5t20.5 21.5t25.5 36t20 51t9 67
t-14.5 66t-29.5 46.5t-15 12.5z" />
    <glyph glyph-name="kcommaaccent" unicode="&#x137;" horiz-adv-x="1122" 
d="M928 1032h137l-442 -420l477 -612h-125l-424 545l-260 -246v-299h-96v1536h96v-1114zM547 -129l74 55q3 -3 8.5 -8t18.5 -22t23 -36t18.5 -49t8.5 -61q0 -49 -12 -93.5t-29.5 -73t-35 -49.5t-29.5 -30l-12 -10l-58 70q3 2 9 6.5t20.5 21.5t25.5 36t20 51t9 67t-15 66
t-29.5 46.5t-14.5 12.5z" />
    <glyph glyph-name="Lacute" unicode="&#x139;" horiz-adv-x="1103" 
d="M1081 96v-96h-856v1454h101v-1358h755zM365 1925h110l-158 -348h-92z" />
    <glyph glyph-name="lacute" unicode="&#x13a;" horiz-adv-x="485" 
d="M291 0h-96v1536h96v-1536zM330 2007h110l-157 -348h-93z" />
    <glyph glyph-name="Lcommaaccent" unicode="&#x13b;" horiz-adv-x="1103" 
d="M1081 96v-96h-856v1454h101v-1358h755zM608 -129l74 55q3 -3 8.5 -8t19 -22t23.5 -36t18.5 -49t8.5 -61q0 -49 -12.5 -93.5t-30 -73t-34.5 -49.5t-29 -30l-13 -10l-57 70q3 2 9 6.5t20.5 21.5t25.5 36t20 51t9 67t-15 66t-30 46.5t-15 12.5z" />
    <glyph glyph-name="lcommaaccent" unicode="&#x13c;" horiz-adv-x="485" 
d="M291 0h-96v1536h96v-1536zM178 -129l74 55q3 -3 8.5 -8t19 -22t23.5 -36t18.5 -49t8.5 -61q0 -49 -12.5 -93.5t-30 -73t-34.5 -49.5t-29 -30l-13 -10l-57 70q3 2 9 6.5t20.5 21.5t25.5 36t20 51t9 67t-15 66t-30 46.5t-15 12.5z" />
    <glyph glyph-name="Lcaron" unicode="&#x13d;" horiz-adv-x="1103" 
d="M1081 96v-96h-856v1454h101v-1358h755zM606 1442l74 55q3 -3 8.5 -8t19 -22t23.5 -36t18.5 -49t8.5 -61q0 -49 -12.5 -93.5t-30 -73t-34.5 -49.5t-29 -31l-13 -9l-57 70q3 2 9 6.5t20.5 21.5t25.5 36t20 51t9 67t-15 66t-30 46.5t-15 12.5z" />
    <glyph glyph-name="lcaron" unicode="&#x13e;" horiz-adv-x="485" 
d="M291 0h-96v1536h96v-1536zM414 1499l73 55q3 -3 8.5 -8t19 -22t23.5 -36t18.5 -49t8.5 -61q0 -49 -12.5 -93.5t-30 -73t-34.5 -49.5t-30 -30l-12 -10l-57 70q3 2 9 6.5t20.5 21.5t25.5 36t20 51t9 67t-14.5 66t-29.5 46.5t-15 12.5z" />
    <glyph glyph-name="Lslash" unicode="&#x141;" horiz-adv-x="1103" 
d="M1081 96v-96h-856v598l-194 -55v90l194 55v766h101v-737l280 80v-90l-280 -80v-531h755z" />
    <glyph glyph-name="lslash" unicode="&#x142;" horiz-adv-x="485" 
d="M291 0h-96v592l-175 -49v90l175 49v854h96v-825l174 49v-90l-174 -49v-621z" />
    <glyph glyph-name="Nacute" unicode="&#x143;" horiz-adv-x="1581" 
d="M326 1298v-1298h-101v1454h111l919 -1300v1300h101v-1454h-111zM883 1925h110l-157 -348h-93z" />
    <glyph glyph-name="nacute" unicode="&#x144;" horiz-adv-x="1220" 
d="M291 1032v-168q11 21 27 43t47 50t68 49.5t92.5 36t117.5 14.5q188 0 290.5 -108.5t102.5 -282.5v-666h-96v637q0 160 -76.5 247t-228.5 87q-147 0 -245.5 -91t-98.5 -257v-623h-96v1032h96zM684 1554h111l-158 -348h-92z" />
    <glyph glyph-name="Ncommaaccent" unicode="&#x145;" horiz-adv-x="1581" 
d="M326 1298v-1298h-101v1454h111l919 -1300v1300h101v-1454h-111zM727 -129l74 55q3 -3 8.5 -8t19 -22t23.5 -36t18.5 -49t8.5 -61q0 -49 -12.5 -93.5t-29.5 -73t-34.5 -49.5t-30.5 -30l-12 -10l-58 70q3 2 9 6.5t20.5 21.5t25.5 36t20 51t9 67t-15 66t-29.5 46.5
t-14.5 12.5z" />
    <glyph glyph-name="ncommaaccent" unicode="&#x146;" horiz-adv-x="1220" 
d="M291 1032v-168q11 21 27 43t47 50t68 49.5t92.5 36t117.5 14.5q188 0 290.5 -108.5t102.5 -282.5v-666h-96v637q0 160 -76.5 247t-228.5 87q-147 0 -245.5 -91t-98.5 -257v-623h-96v1032h96zM557 -129l74 55q3 -3 8.5 -8t19 -22t23.5 -36t18.5 -49t8.5 -61
q0 -49 -12.5 -93.5t-29.5 -73t-34.5 -49.5t-30.5 -30l-12 -10l-58 70q3 2 9 6.5t20.5 21.5t25.5 36t20 51t9 67t-15 66t-29.5 46.5t-14.5 12.5z" />
    <glyph glyph-name="Ncaron" unicode="&#x147;" horiz-adv-x="1581" 
d="M326 1298v-1298h-101v1454h111l919 -1300v1300h101v-1454h-111zM799 1577l-258 133v102l258 -131l258 131v-102z" />
    <glyph glyph-name="ncaron" unicode="&#x148;" horiz-adv-x="1220" 
d="M291 1032v-168q11 21 27 43t47 50t68 49.5t92.5 36t117.5 14.5q188 0 290.5 -108.5t102.5 -282.5v-666h-96v637q0 160 -76.5 247t-228.5 87q-147 0 -245.5 -91t-98.5 -257v-623h-96v1032h96zM610 1233l-258 133v102l258 -131l258 131v-102z" />
    <glyph glyph-name="Eng" unicode="&#x14a;" horiz-adv-x="1581" 
d="M1253 4l-927 1290v-1294h-101v1454h111l919 -1280v1280h101v-1407q0 -204 -93.5 -327t-281.5 -146l-16 92q149 22 214 104t74 234z" />
    <glyph glyph-name="eng" unicode="&#x14b;" horiz-adv-x="1220" 
d="M940 55v582q0 160 -76.5 247t-228.5 87q-147 0 -245.5 -91t-98.5 -257v-623h-96v1032h96v-168q11 21 27 43t47 50t68 49.5t92.5 36t117.5 14.5q188 0 290.5 -108.5t102.5 -282.5v-590q0 -181 -80 -299t-237 -154l-23 84q244 62 244 348z" />
    <glyph glyph-name="Omacron" unicode="&#x14c;" horiz-adv-x="1699" 
d="M1587 727q0 -209 -89.5 -381t-259 -274.5t-388.5 -102.5t-388.5 102.5t-259 274.5t-89.5 381t89.5 381t259 274.5t388.5 102.5t388.5 -102.5t259 -274.5t89.5 -381zM1483 727q0 193 -82.5 345.5t-226.5 236.5t-324 84t-324 -84t-226.5 -236.5t-82.5 -345.5t82.5 -345.5
t226.5 -236.5t324 -84t324 84t226.5 236.5t82.5 345.5zM1161 1669v-90h-620v90h620z" />
    <glyph glyph-name="omacron" unicode="&#x14d;" horiz-adv-x="1265" 
d="M633 -25q-118 0 -217.5 45t-164.5 120t-101.5 172.5t-36.5 203.5t36.5 203.5t101.5 172.5t164.5 120t217.5 45t217.5 -45t164.5 -120t101.5 -172.5t36.5 -203.5t-36.5 -203.5t-101.5 -172.5t-164.5 -120t-217.5 -45zM211 516q0 -192 116.5 -322.5t305.5 -130.5
t305.5 130.5t116.5 322.5t-116.5 322.5t-305.5 130.5t-305.5 -130.5t-116.5 -322.5zM948 1411v-90h-620v90h620z" />
    <glyph glyph-name="Obreve" unicode="&#x14e;" horiz-adv-x="1699" 
d="M1587 727q0 -209 -89.5 -381t-259 -274.5t-388.5 -102.5t-388.5 102.5t-259 274.5t-89.5 381t89.5 381t259 274.5t388.5 102.5t388.5 -102.5t259 -274.5t89.5 -381zM1483 727q0 193 -82.5 345.5t-226.5 236.5t-324 84t-324 -84t-226.5 -236.5t-82.5 -345.5t82.5 -345.5
t226.5 -236.5t324 -84t324 84t226.5 236.5t82.5 345.5zM850 1661q78 0 125 42.5t47 117.5h90q0 -116 -72 -180t-190 -64t-190 64t-72 180h90q0 -75 47 -117.5t125 -42.5z" />
    <glyph glyph-name="obreve" unicode="&#x14f;" horiz-adv-x="1265" 
d="M633 -25q-118 0 -217.5 45t-164.5 120t-101.5 172.5t-36.5 203.5t36.5 203.5t101.5 172.5t164.5 120t217.5 45t217.5 -45t164.5 -120t101.5 -172.5t36.5 -203.5t-36.5 -203.5t-101.5 -172.5t-164.5 -120t-217.5 -45zM211 516q0 -192 116.5 -322.5t305.5 -130.5
t305.5 130.5t116.5 322.5t-116.5 322.5t-305.5 130.5t-305.5 -130.5t-116.5 -322.5zM633 1311q78 0 125 42t47 117h90q0 -116 -71.5 -179.5t-190.5 -63.5t-190.5 63.5t-71.5 179.5h90q0 -75 47 -117t125 -42z" />
    <glyph glyph-name="Ohungarumlaut" unicode="&#x150;" horiz-adv-x="1699" 
d="M1587 727q0 -209 -89.5 -381t-259 -274.5t-388.5 -102.5t-388.5 102.5t-259 274.5t-89.5 381t89.5 381t259 274.5t388.5 102.5t388.5 -102.5t259 -274.5t89.5 -381zM1483 727q0 193 -82.5 345.5t-226.5 236.5t-324 84t-324 -84t-226.5 -236.5t-82.5 -345.5t82.5 -345.5
t226.5 -236.5t324 -84t324 84t226.5 236.5t82.5 345.5zM778 1925h121l-172 -348h-86zM1061 1925h121l-172 -348h-86z" />
    <glyph glyph-name="ohungarumlaut" unicode="&#x151;" horiz-adv-x="1265" 
d="M633 -25q-118 0 -217.5 45t-164.5 120t-101.5 172.5t-36.5 203.5t36.5 203.5t101.5 172.5t164.5 120t217.5 45t217.5 -45t164.5 -120t101.5 -172.5t36.5 -203.5t-36.5 -203.5t-101.5 -172.5t-164.5 -120t-217.5 -45zM211 516q0 -192 116.5 -322.5t305.5 -130.5
t305.5 130.5t116.5 322.5t-116.5 322.5t-305.5 130.5t-305.5 -130.5t-116.5 -322.5zM563 1534h121l-172 -348h-86zM846 1534h121l-172 -348h-86z" />
    <glyph glyph-name="OE" unicode="&#x152;" horiz-adv-x="2560" 
d="M2437 96v-96h-954v334q-89 -172 -253 -268.5t-380 -96.5q-161 0 -299.5 60t-234 162t-149.5 241t-54 295t54 295t149.5 241t234 162t299.5 60q216 0 379.5 -97.5t253.5 -269.5v336h954v-96h-854v-572h805v-96h-805v-594h854zM850 1393q-180 0 -324 -84t-226.5 -236.5
t-82.5 -345.5t82.5 -345.5t226.5 -236.5t324 -84t324 84t226.5 236.5t82.5 345.5t-82.5 345.5t-226.5 236.5t-324 84z" />
    <glyph glyph-name="oe" unicode="&#x153;" horiz-adv-x="2156" 
d="M633 -25q-118 0 -217.5 45t-164.5 120t-101.5 172.5t-36.5 203.5t36.5 203.5t101.5 172.5t164.5 120t217.5 45q163 0 284.5 -82t182.5 -217q60 135 178 217t276 82q149 0 262.5 -71t171.5 -188.5t58 -262.5l-2 -46h-895q8 -183 117.5 -303t287.5 -120q134 0 232.5 71
t136.5 185h105q-48 -153 -172 -250t-302 -97q-166 0 -281.5 80t-174.5 215q-61 -133 -182.5 -214t-282.5 -81zM1153 578h795q-14 174 -120 280.5t-274 106.5q-165 0 -273.5 -109t-127.5 -278zM633 63q189 0 305.5 130.5t116.5 322.5t-116.5 322.5t-305.5 130.5
t-305.5 -130.5t-116.5 -322.5t116.5 -322.5t305.5 -130.5z" />
    <glyph glyph-name="Racute" unicode="&#x154;" horiz-adv-x="1376" 
d="M1286 0h-123l-366 664h-471v-664h-101v1454h578q121 0 212 -31t144.5 -86.5t79 -125t25.5 -152.5q0 -155 -88.5 -260t-270.5 -129zM1159 1059q0 139 -87.5 219t-260.5 80h-485v-598h485q174 0 261 78.5t87 220.5zM760 1925h110l-157 -348h-92z" />
    <glyph glyph-name="racute" unicode="&#x155;" horiz-adv-x="704" 
d="M668 1040v-92q-23 2 -50 2q-142 0 -234.5 -89t-92.5 -251v-610h-96v1032h94v-170q36 70 124 125t220 55zM469 1554h111l-158 -348h-92z" />
    <glyph glyph-name="Rcommaaccent" unicode="&#x156;" horiz-adv-x="1376" 
d="M1286 0h-123l-366 664h-471v-664h-101v1454h578q121 0 212 -31t144.5 -86.5t79 -125t25.5 -152.5q0 -155 -88.5 -260t-270.5 -129zM1159 1059q0 139 -87.5 219t-260.5 80h-485v-598h485q174 0 261 78.5t87 220.5zM637 -129l74 55q3 -3 8.5 -8t18.5 -22t23 -36t18.5 -49
t8.5 -61q0 -49 -12 -93.5t-29.5 -73t-35 -49.5t-29.5 -30l-12 -10l-58 70q3 2 9 6.5t20.5 21.5t25.5 36t20 51t9 67t-15 66t-29.5 46.5t-14.5 12.5z" />
    <glyph glyph-name="rcommaaccent" unicode="&#x157;" horiz-adv-x="704" 
d="M668 1040v-92q-23 2 -50 2q-142 0 -234.5 -89t-92.5 -251v-610h-96v1032h94v-170q36 70 124 125t220 55zM178 -129l74 55q3 -3 8.5 -8t19 -22t23.5 -36t18.5 -49t8.5 -61q0 -49 -12.5 -93.5t-30 -73t-34.5 -49.5t-29 -30l-13 -10l-57 70q3 2 9 6.5t20.5 21.5t25.5 36
t20 51t9 67t-15 66t-30 46.5t-15 12.5z" />
    <glyph glyph-name="Rcaron" unicode="&#x158;" horiz-adv-x="1376" 
d="M1286 0h-123l-366 664h-471v-664h-101v1454h578q121 0 212 -31t144.5 -86.5t79 -125t25.5 -152.5q0 -155 -88.5 -260t-270.5 -129zM1159 1059q0 139 -87.5 219t-260.5 80h-485v-598h485q174 0 261 78.5t87 220.5zM684 1577l-258 133v102l258 -131l258 131v-102z" />
    <glyph glyph-name="rcaron" unicode="&#x159;" horiz-adv-x="704" 
d="M668 1040v-92q-23 2 -50 2q-142 0 -234.5 -89t-92.5 -251v-610h-96v1032h94v-170q36 70 124 125t220 55zM412 1233l-258 133v102l258 -131l258 131v-102z" />
    <glyph glyph-name="Sacute" unicode="&#x15a;" horiz-adv-x="1284" 
d="M631 63q197 0 313.5 81t116.5 229q0 75 -30.5 129.5t-82 86t-118.5 53.5t-141.5 38t-148.5 33t-141 45t-118.5 68.5t-82 108.5t-30.5 159q0 73 29.5 141.5t86 125t150 90.5t211.5 34q232 0 366.5 -131t139.5 -334h-100q-4 171 -115.5 272t-290.5 101q-175 0 -276 -82
t-101 -217q0 -64 26.5 -114.5t55 -79t99.5 -56t106.5 -36.5t128.5 -30t141.5 -34t124 -45t113.5 -69.5t68 -102.5t30 -150q0 -181 -143.5 -293.5t-386.5 -112.5q-136 0 -239.5 36t-166.5 100.5t-96 146.5t-37 180h101q13 -182 130 -276.5t308 -94.5zM737 1925h111l-158 -348
h-92z" />
    <glyph glyph-name="sacute" unicode="&#x15b;" horiz-adv-x="1038" 
d="M520 -25q-99 0 -179 28t-131 76t-79 109t-33 131h97q9 -115 98 -184t227 -69q142 0 221.5 55.5t79.5 148.5q0 51 -22.5 88t-60.5 57.5t-87 34.5t-103.5 24.5t-108.5 22t-103 30.5t-87 47.5t-60.5 77t-22.5 114.5q0 119 102.5 205t272.5 86t268.5 -91.5t108.5 -228.5h-97
q-10 100 -82 165t-198 65q-132 0 -205.5 -56t-73.5 -143q0 -65 36.5 -106.5t94.5 -60.5t128 -31t140 -28.5t128 -43.5t94.5 -84.5t36.5 -143.5q0 -129 -111 -212t-289 -83zM616 1554h111l-158 -348h-92z" />
    <glyph glyph-name="Scircumflex" unicode="&#x15c;" horiz-adv-x="1284" 
d="M631 63q197 0 313.5 81t116.5 229q0 75 -30.5 129.5t-82 86t-118.5 53.5t-141.5 38t-148.5 33t-141 45t-118.5 68.5t-82 108.5t-30.5 159q0 73 29.5 141.5t86 125t150 90.5t211.5 34q232 0 366.5 -131t139.5 -334h-100q-4 171 -115.5 272t-290.5 101q-175 0 -276 -82
t-101 -217q0 -64 26.5 -114.5t55 -79t99.5 -56t106.5 -36.5t128.5 -30t141.5 -34t124 -45t113.5 -69.5t68 -102.5t30 -150q0 -181 -143.5 -293.5t-386.5 -112.5q-136 0 -239.5 36t-166.5 100.5t-96 146.5t-37 180h101q13 -182 130 -276.5t308 -94.5zM399 1677l258 133
l258 -133v-102l-258 131l-258 -131v102z" />
    <glyph glyph-name="scircumflex" unicode="&#x15d;" horiz-adv-x="1038" 
d="M520 -25q-99 0 -179 28t-131 76t-79 109t-33 131h97q9 -115 98 -184t227 -69q142 0 221.5 55.5t79.5 148.5q0 51 -22.5 88t-60.5 57.5t-87 34.5t-103.5 24.5t-108.5 22t-103 30.5t-87 47.5t-60.5 77t-22.5 114.5q0 119 102.5 205t272.5 86t268.5 -91.5t108.5 -228.5h-97
q-10 100 -82 165t-198 65q-132 0 -205.5 -56t-73.5 -143q0 -65 36.5 -106.5t94.5 -60.5t128 -31t140 -28.5t128 -43.5t94.5 -84.5t36.5 -143.5q0 -129 -111 -212t-289 -83zM285 1356l258 133l258 -133v-103l-258 131l-258 -131v103z" />
    <glyph glyph-name="Scedilla" unicode="&#x15e;" horiz-adv-x="1284" 
d="M518 -432l43 70q5 -5 13.5 -11.5t37 -18t58.5 -11.5q54 0 86 28.5t32 79.5q0 48 -28 77.5t-84 29.5q-20 0 -37.5 -4.5t-28.5 -11t-19.5 -13.5t-12.5 -11l-3 -5l-55 30l70 176q-125 5 -220.5 43t-154 101t-89 142.5t-34.5 174.5h101q13 -182 130 -276.5t308 -94.5
q197 0 313.5 81t116.5 229q0 75 -30.5 129.5t-82 86t-118.5 53.5t-141.5 38t-148.5 33t-141 45t-118.5 68.5t-82 108.5t-30.5 159q0 73 29.5 141.5t86 125t150 90.5t211.5 34q232 0 366.5 -131t139.5 -334h-100q-4 171 -115.5 272t-290.5 101q-175 0 -276 -82t-101 -217
q0 -64 26.5 -114.5t55 -79t99.5 -56t106.5 -36.5t128.5 -30t141.5 -34t124 -45t113.5 -69.5t68 -102.5t30 -150q0 -173 -133 -284t-360 -120l-39 -100q22 12 65 12q85 0 135 -51t50 -129q0 -83 -59 -135.5t-154 -52.5q-42 0 -79 12.5t-53 25.5z" />
    <glyph glyph-name="scedilla" unicode="&#x15f;" horiz-adv-x="1038" 
d="M393 -432l43 70q5 -5 13.5 -11.5t37 -18t58.5 -11.5q55 0 87 28.5t32 79.5q0 48 -28.5 77.5t-84.5 29.5q-31 0 -56 -11t-35 -23l-9 -11l-56 30l74 180q-172 14 -267.5 109.5t-103.5 232.5h97q9 -115 98 -184t227 -69q142 0 221.5 55.5t79.5 148.5q0 51 -22.5 88
t-60.5 57.5t-87 34.5t-103.5 24.5t-108.5 22t-103 30.5t-87 47.5t-60.5 77t-22.5 114.5q0 119 102.5 205t272.5 86t268.5 -91.5t108.5 -228.5h-97q-10 100 -82 165t-198 65q-132 0 -205.5 -56t-73.5 -143q0 -65 36.5 -106.5t94.5 -60.5t128 -31t140 -28.5t128 -43.5
t94.5 -84.5t36.5 -143.5q0 -124 -103.5 -206.5t-271.5 -88.5l-41 -102q22 12 65 12q85 0 135 -51t50 -129q0 -83 -59 -135.5t-154 -52.5q-42 0 -79 12.5t-53 25.5z" />
    <glyph glyph-name="Scaron" unicode="&#x160;" horiz-adv-x="1284" 
d="M631 63q197 0 313.5 81t116.5 229q0 75 -30.5 129.5t-82 86t-118.5 53.5t-141.5 38t-148.5 33t-141 45t-118.5 68.5t-82 108.5t-30.5 159q0 73 29.5 141.5t86 125t150 90.5t211.5 34q232 0 366.5 -131t139.5 -334h-100q-4 171 -115.5 272t-290.5 101q-175 0 -276 -82
t-101 -217q0 -64 26.5 -114.5t55 -79t99.5 -56t106.5 -36.5t128.5 -30t141.5 -34t124 -45t113.5 -69.5t68 -102.5t30 -150q0 -181 -143.5 -293.5t-386.5 -112.5q-136 0 -239.5 36t-166.5 100.5t-96 146.5t-37 180h101q13 -182 130 -276.5t308 -94.5zM651 1577l-258 133v102
l258 -131l258 131v-102z" />
    <glyph glyph-name="scaron" unicode="&#x161;" horiz-adv-x="1038" 
d="M520 -25q-99 0 -179 28t-131 76t-79 109t-33 131h97q9 -115 98 -184t227 -69q142 0 221.5 55.5t79.5 148.5q0 51 -22.5 88t-60.5 57.5t-87 34.5t-103.5 24.5t-108.5 22t-103 30.5t-87 47.5t-60.5 77t-22.5 114.5q0 119 102.5 205t272.5 86t268.5 -91.5t108.5 -228.5h-97
q-10 100 -82 165t-198 65q-132 0 -205.5 -56t-73.5 -143q0 -65 36.5 -106.5t94.5 -60.5t128 -31t140 -28.5t128 -43.5t94.5 -84.5t36.5 -143.5q0 -129 -111 -212t-289 -83zM537 1233l-258 133v102l258 -131l258 131v-102z" />
    <glyph glyph-name="Tcommaaccent" unicode="&#x162;" horiz-adv-x="1116" 
d="M1096 1454v-96h-488v-1358h-100v1358h-488v96h1076zM494 -129l73 55q3 -3 8.5 -8t19 -22t23.5 -36t18.5 -49t8.5 -61q0 -49 -12.5 -93.5t-29.5 -73t-34.5 -49.5t-30.5 -30l-12 -10l-57 70q3 2 9 6.5t20.5 21.5t25.5 36t20 51t9 67t-14.5 66t-29.5 46.5t-15 12.5z" />
    <glyph glyph-name="tcommaaccent" unicode="&#x163;" horiz-adv-x="591" 
d="M336 944v-944h-96v944h-217v88h217v307h96v-307h239v-88h-239zM227 -129l74 55q3 -3 8.5 -8t19 -22t23.5 -36t18.5 -49t8.5 -61q0 -49 -12.5 -93.5t-30 -73t-34.5 -49.5t-30 -30l-12 -10l-57 70q3 2 9 6.5t20.5 21.5t25.5 36t20 51t9 67t-15 66t-30 46.5t-15 12.5z" />
    <glyph glyph-name="Tcaron" unicode="&#x164;" horiz-adv-x="1116" 
d="M1096 1454v-96h-488v-1358h-100v1358h-488v96h1076zM557 1575l-258 133v102l258 -131l258 131v-102z" />
    <glyph glyph-name="tcaron" unicode="&#x165;" horiz-adv-x="591" 
d="M336 944v-944h-96v944h-217v88h217v307h96v-307h239v-88h-239zM489 1499l74 55q3 -3 8.5 -8t19 -22t23.5 -36t18.5 -49t8.5 -61q0 -49 -12.5 -93.5t-29.5 -73t-34.5 -49.5t-30.5 -30l-12 -10l-57 70q3 2 9 6.5t20.5 21.5t25.5 36t20 51t9 67t-15 66t-30 46.5t-15 12.5z
" />
    <glyph glyph-name="Tbar" unicode="&#x166;" horiz-adv-x="1116" 
d="M1096 1454v-96h-488v-572h307v-96h-307v-690h-100v690h-307v96h307v572h-488v96h1076z" />
    <glyph glyph-name="tbar" unicode="&#x167;" horiz-adv-x="591" 
d="M336 944v-289h186v-90h-186v-565h-96v565h-164v90h164v289h-217v88h217v307h96v-307h239v-88h-239z" />
    <glyph glyph-name="Utilde" unicode="&#x168;" horiz-adv-x="1499" 
d="M750 -31q-263 0 -414.5 162t-151.5 471v852h101v-870q0 -239 123 -381t342 -142q218 0 341 142t123 381v870h101v-852q0 -310 -151 -471.5t-414 -161.5zM879 1571q-58 0 -138.5 41t-124.5 41q-41 0 -62 -17.5t-30 -58.5h-92q10 81 60.5 124.5t128.5 43.5q58 0 138 -41
t124 -41q41 0 62 17.5t30 58.5h92q-10 -81 -60 -124.5t-128 -43.5z" />
    <glyph glyph-name="utilde" unicode="&#x169;" horiz-adv-x="1200" 
d="M600 -25q-193 0 -304.5 110t-111.5 282v665h97v-637q0 -158 82.5 -246t236.5 -88t237 88t83 246v637h96v-665q0 -172 -111.5 -282t-304.5 -110zM733 1290q-58 0 -138 41t-124 41q-41 0 -62 -17.5t-30 -58.5h-92q10 81 60 124.5t128 43.5q58 0 138 -41t124 -41
q41 0 62 17.5t30 58.5h93q-10 -81 -60.5 -124.5t-128.5 -43.5z" />
    <glyph glyph-name="Umacron" unicode="&#x16a;" horiz-adv-x="1499" 
d="M750 -31q-263 0 -414.5 162t-151.5 471v852h101v-870q0 -239 123 -381t342 -142q218 0 341 142t123 381v870h101v-852q0 -310 -151 -471.5t-414 -161.5zM1061 1667v-90h-621v90h621z" />
    <glyph glyph-name="umacron" unicode="&#x16b;" horiz-adv-x="1200" 
d="M600 -25q-193 0 -304.5 110t-111.5 282v665h97v-637q0 -158 82.5 -246t236.5 -88t237 88t83 246v637h96v-665q0 -172 -111.5 -282t-304.5 -110zM913 1411v-90h-620v90h620z" />
    <glyph glyph-name="Ubreve" unicode="&#x16c;" horiz-adv-x="1499" 
d="M750 -31q-263 0 -414.5 162t-151.5 471v852h101v-870q0 -239 123 -381t342 -142q218 0 341 142t123 381v870h101v-852q0 -310 -151 -471.5t-414 -161.5zM750 1661q78 0 125 42.5t47 117.5h90q0 -116 -72 -180t-190 -64q-119 0 -191 64t-72 180h91q0 -75 47 -117.5
t125 -42.5z" />
    <glyph glyph-name="ubreve" unicode="&#x16d;" horiz-adv-x="1200" 
d="M600 -25q-193 0 -304.5 110t-111.5 282v665h97v-637q0 -158 82.5 -246t236.5 -88t237 88t83 246v637h96v-665q0 -172 -111.5 -282t-304.5 -110zM604 1311q78 0 125 42t47 117h90q0 -116 -71.5 -179.5t-190.5 -63.5t-190.5 63.5t-71.5 179.5h90q0 -75 47 -117t125 -42z
" />
    <glyph glyph-name="Uring" unicode="&#x16e;" horiz-adv-x="1499" 
d="M750 -31q-263 0 -414.5 162t-151.5 471v852h101v-870q0 -239 123 -381t342 -142q218 0 341 142t123 381v870h101v-852q0 -310 -151 -471.5t-414 -161.5zM633 1761q0 -59 35 -98t96 -39q60 0 95.5 39t35.5 98q0 58 -35.5 97.5t-95.5 39.5q-61 0 -96 -39.5t-35 -97.5z
M545 1761q0 92 61 154.5t158 62.5t157 -62t60 -155t-60 -155t-157 -62t-158 62.5t-61 154.5z" />
    <glyph glyph-name="uring" unicode="&#x16f;" horiz-adv-x="1200" 
d="M600 -25q-193 0 -304.5 110t-111.5 282v665h97v-637q0 -158 82.5 -246t236.5 -88t237 88t83 246v637h96v-665q0 -172 -111.5 -282t-304.5 -110zM473 1423q0 -59 35 -98t96 -39q60 0 95.5 39t35.5 98q0 58 -36 98t-95 40q-61 0 -96 -40t-35 -98zM385 1423q0 92 61 154.5
t158 62.5t157 -62t60 -155t-60 -155t-157 -62t-158 62.5t-61 154.5z" />
    <glyph glyph-name="Uhungarumlaut" unicode="&#x170;" horiz-adv-x="1499" 
d="M750 -31q-263 0 -414.5 162t-151.5 471v852h101v-870q0 -239 123 -381t342 -142q218 0 341 142t123 381v870h101v-852q0 -310 -151 -471.5t-414 -161.5zM680 1925h121l-172 -348h-86zM963 1925h120l-172 -348h-86z" />
    <glyph glyph-name="uhungarumlaut" unicode="&#x171;" horiz-adv-x="1200" 
d="M600 -25q-193 0 -304.5 110t-111.5 282v665h97v-637q0 -158 82.5 -246t236.5 -88t237 88t83 246v637h96v-665q0 -172 -111.5 -282t-304.5 -110zM543 1534h121l-172 -348h-86zM825 1534h121l-172 -348h-86z" />
    <glyph glyph-name="Uogonek" unicode="&#x172;" horiz-adv-x="1499" 
d="M911 -289l50 -61q-2 -3 -6.5 -8.5t-20 -20t-34 -25t-50 -19.5t-66.5 -9q-95 0 -141.5 60t-46.5 143q0 115 84 202q-233 21 -364.5 181t-131.5 448v852h101v-870q0 -239 123 -381t342 -142q218 0 341 142t123 381v870h101v-852q0 -285 -129 -445t-357 -184
q-69 -31 -104 -85t-35 -115q0 -51 28 -86t81 -35q33 0 61 15t40 29z" />
    <glyph glyph-name="uogonek" unicode="&#x173;" horiz-adv-x="1200" 
d="M827 -268l50 -62q-2 -3 -6.5 -8.5t-20 -20t-34 -25t-50 -19.5t-66.5 -9q-95 0 -141.5 60t-46.5 143q0 104 68 184q-185 6 -290.5 115t-105.5 277v665h97v-637q0 -158 82.5 -246t236.5 -88t237 88t83 246v637h96v-665q0 -129 -64.5 -226t-183.5 -139q-79 -28 -120.5 -86
t-41.5 -123q0 -51 28 -86t81 -35q33 0 61 15t40 30z" />
    <glyph glyph-name="Wcircumflex" unicode="&#x174;" horiz-adv-x="2105" 
d="M1051 1331l-422 -1331h-115l-473 1454h113l415 -1331h4l422 1331h119l420 -1333h4l418 1333h108l-475 -1456h-114l-420 1333h-4zM795 1679l258 133l258 -133v-102l-258 131l-258 -131v102z" />
    <glyph glyph-name="wcircumflex" unicode="&#x175;" horiz-adv-x="1671" 
d="M1139 0l-301 924h-2l-308 -924h-110l-357 1032h109l301 -923l309 923h115l303 -923l307 923h105l-361 -1032h-110zM578 1356l258 133l258 -133v-103l-258 131l-258 -131v103z" />
    <glyph glyph-name="Ycircumflex" unicode="&#x176;" horiz-adv-x="1245" 
d="M1116 1454h117l-561 -934v-520h-101v520l-559 934h109l500 -827h4zM365 1677l258 133l258 -133v-102l-258 131l-258 -131v102z" />
    <glyph glyph-name="ycircumflex" unicode="&#x177;" horiz-adv-x="1077" 
d="M305 -426l180 422l-440 1036h107l387 -926l391 926h102l-624 -1458h-103zM281 1356l258 133l258 -133v-103l-258 131l-258 -131v103z" />
    <glyph glyph-name="Ydieresis" unicode="&#x178;" horiz-adv-x="1245" 
d="M1116 1454h117l-561 -934v-520h-101v520l-559 934h109l500 -827h4zM479 1563q-35 0 -57.5 21.5t-22.5 55.5q0 35 22.5 57.5t57.5 22.5q34 0 57 -22.5t23 -57.5q0 -33 -23 -55t-57 -22zM758 1563q-35 0 -57.5 21.5t-22.5 55.5q0 35 22.5 57.5t57.5 22.5q34 0 57 -22.5
t23 -57.5q0 -33 -23 -55t-57 -22z" />
    <glyph glyph-name="Zacute" unicode="&#x179;" horiz-adv-x="1343" 
d="M1223 1454v-84l-981 -1274h989v-96h-1118v84l981 1274h-973v96h1102zM745 1923h111l-158 -348h-92z" />
    <glyph glyph-name="zacute" unicode="&#x17a;" horiz-adv-x="1064" 
d="M954 956l-723 -868h732v-88h-861v76l723 868h-714v88h843v-76zM596 1554h111l-158 -348h-92z" />
    <glyph glyph-name="Zdotaccent" unicode="&#x17b;" horiz-adv-x="1343" 
d="M1223 1454v-84l-981 -1274h989v-96h-1118v84l981 1274h-973v96h1102zM672 1597q-35 0 -57.5 22t-22.5 56q0 35 22.5 57.5t57.5 22.5q34 0 57 -22.5t23 -57.5q0 -34 -23 -56t-57 -22z" />
    <glyph glyph-name="zdotaccent" unicode="&#x17c;" horiz-adv-x="1064" 
d="M954 956l-723 -868h732v-88h-861v76l723 868h-714v88h843v-76zM532 1309q-35 0 -57 21.5t-22 55.5q0 35 22 57.5t57 22.5q34 0 57 -22.5t23 -57.5q0 -33 -23 -55t-57 -22z" />
    <glyph glyph-name="Zcaron" unicode="&#x17d;" horiz-adv-x="1343" 
d="M1223 1454v-84l-981 -1274h989v-96h-1118v84l981 1274h-973v96h1102zM680 1581l-258 133v103l258 -131l258 131v-103z" />
    <glyph glyph-name="zcaron" unicode="&#x17e;" horiz-adv-x="1064" 
d="M954 956l-723 -868h732v-88h-861v76l723 868h-714v88h843v-76zM522 1233l-258 133v102l258 -131l258 131v-102z" />
    <glyph glyph-name="florin" unicode="&#x192;" 
d="M680 780l-154 -790q-35 -177 -115 -257.5t-210 -80.5q-56 0 -104 18.5t-67 37.5l-20 18l51 69q6 -6 17 -15.5t49 -25.5t80 -16q91 0 142.5 59.5t80.5 206.5l152 776h-244l16 90h244l66 328q35 177 115 257.5t210 80.5q56 0 104 -18.5t67 -37.5l20 -18l-52 -69
q-6 6 -17 15.5t-48.5 25.5t-79.5 16q-91 0 -142.5 -59.5t-80.5 -206.5l-62 -314h250l-16 -90h-252z" />
    <glyph glyph-name="Aringacute" unicode="&#x1fa;" horiz-adv-x="1368" 
d="M121 0h-109l617 1454h110l617 -1454h-113l-156 371h-811zM467 1761q0 79 46 137.5t122 73.5l115 293h118l-133 -291q76 -15 122 -74.5t46 -138.5q0 -93 -60 -155t-157 -62t-158 62.5t-61 154.5zM684 1335h-4l-365 -868h732zM555 1761q0 -59 35 -98t96 -39q60 0 95.5 39
t35.5 98q0 58 -35.5 97.5t-95.5 39.5q-61 0 -96 -39.5t-35 -97.5z" />
    <glyph glyph-name="aringacute" unicode="&#x1fb;" horiz-adv-x="1308" 
d="M410 1423q0 77 44.5 135.5t118.5 75.5l117 295h119l-135 -293q78 -15 125 -74t47 -139q0 -93 -60 -155t-157 -62t-158 62.5t-61 154.5zM498 1423q0 -59 35 -98t96 -39q60 0 95.5 39t35.5 98q0 58 -36 98t-95 40q-61 0 -96 -40t-35 -98zM1018 1032h96v-1032h-96v213
q-57 -113 -161.5 -175.5t-252.5 -62.5q-95 0 -175.5 29.5t-138 80.5t-98 119.5t-60 147.5t-19.5 164t19.5 164t60 147.5t98 119.5t138 80.5t175.5 29.5q147 0 251.5 -63t162.5 -175v213zM1022 516q0 195 -107 324t-294 129q-188 0 -299 -129.5t-111 -323.5t111 -323.5
t299 -129.5q187 0 294 129t107 324z" />
    <glyph glyph-name="AEacute" unicode="&#x1fc;" horiz-adv-x="2019" 
d="M72 0h-117l917 1454h1024v-96h-854v-572h805v-96h-805v-594h854v-96h-954v371h-639zM924 1358l-559 -891h577v891h-18zM1184 1925h110l-157 -348h-93z" />
    <glyph glyph-name="aeacute" unicode="&#x1fd;" horiz-adv-x="2000" 
d="M481 -25q-176 0 -270 81t-94 225q0 124 95.5 203.5t289.5 103.5l395 49v35q0 299 -330 299q-279 0 -327 -234h-97q25 148 130 234t298 86q165 0 265 -65t137 -181q66 112 175.5 179t250.5 67q112 0 205.5 -41t155.5 -112t96 -166t34 -203l-2 -46h-895q8 -182 118 -302.5
t288 -120.5q134 0 232 71t136 185h105q-48 -153 -171.5 -250t-301.5 -97q-162 0 -276.5 76.5t-174.5 204.5q-47 -130 -172 -205.5t-295 -75.5zM481 61q99 0 180.5 31t131 81t76 110.5t26.5 122.5v145l-377 -47q-162 -21 -232.5 -76.5t-70.5 -148.5q0 -51 17 -90t43.5 -63
t62.5 -39t71 -20.5t72 -5.5zM1399 965q-165 0 -274 -109t-128 -278h795q-14 174 -119.5 280.5t-273.5 106.5zM1059 1554h110l-157 -348h-92z" />
    <glyph glyph-name="Oslashacute" unicode="&#x1fe;" horiz-adv-x="1699" 
d="M918 1925h110l-158 -348h-92zM1587 727q0 -209 -89.5 -381t-259 -274.5t-388.5 -102.5q-264 0 -453 146l-157 -193l-64 53l158 195q-106 103 -163.5 247.5t-57.5 309.5q0 209 89.5 381t259 274.5t388.5 102.5q255 0 440 -139l152 186l65 -55l-151 -185
q111 -105 171 -251.5t60 -313.5zM1483 727q0 148 -49.5 272.5t-139.5 214.5l-835 -1024q167 -129 391 -129q180 0 324 84t226.5 236.5t82.5 345.5zM217 727q0 -295 178 -479l834 1022q-164 123 -379 123q-180 0 -324 -84t-226.5 -236.5t-82.5 -345.5z" />
    <glyph glyph-name="oslashacute" unicode="&#x1ff;" horiz-adv-x="1265" 
d="M711 1554h110l-157 -348h-93zM633 -25q-173 0 -305 95l-107 -129l-61 51l108 131q-75 75 -115 177.5t-40 215.5q0 106 36.5 203.5t101.5 172.5t164.5 120t217.5 45q181 0 317 -107l135 164l62 -51l-137 -166q69 -74 106 -174t37 -207q0 -106 -36.5 -203.5t-101.5 -172.5
t-164.5 -120t-217.5 -45zM1055 516q0 180 -105 307l-565 -684q105 -76 248 -76q189 0 305.5 130.5t116.5 322.5zM211 516q0 -194 115 -321l567 686q-112 88 -260 88q-189 0 -305.5 -130.5t-116.5 -322.5z" />
    <glyph glyph-name="Scommaaccent" unicode="&#x218;" horiz-adv-x="1284" 
d="M631 63q197 0 313.5 81t116.5 229q0 75 -30.5 129.5t-82 86t-118.5 53.5t-141.5 38t-148.5 33t-141 45t-118.5 68.5t-82 108.5t-30.5 159q0 73 29.5 141.5t86 125t150 90.5t211.5 34q232 0 366.5 -131t139.5 -334h-100q-4 171 -115.5 272t-290.5 101q-175 0 -276 -82
t-101 -217q0 -64 26.5 -114.5t55 -79t99.5 -56t106.5 -36.5t128.5 -30t141.5 -34t124 -45t113.5 -69.5t68 -102.5t30 -150q0 -181 -143.5 -293.5t-386.5 -112.5q-136 0 -239.5 36t-166.5 100.5t-96 146.5t-37 180h101q13 -182 130 -276.5t308 -94.5zM565 -129l74 55
q3 -3 8.5 -8t19 -22t23.5 -36t18.5 -49t8.5 -61q0 -49 -12.5 -93.5t-29.5 -73t-34.5 -49.5t-30.5 -30l-12 -10l-57 70q3 2 9 6.5t20.5 21.5t25.5 36t20 51t9 67t-15 66t-30 46.5t-15 12.5z" />
    <glyph glyph-name="scommaaccent" unicode="&#x219;" horiz-adv-x="1038" 
d="M520 -25q-99 0 -179 28t-131 76t-79 109t-33 131h97q9 -115 98 -184t227 -69q142 0 221.5 55.5t79.5 148.5q0 51 -22.5 88t-60.5 58t-87.5 35.5t-104 25t-108.5 22t-103.5 31.5t-87.5 48.5t-60.5 77t-22.5 114.5q0 118 101.5 202.5t271.5 84.5q171 0 271 -91.5
t110 -228.5h-97q-10 99 -84 164.5t-200 65.5q-132 0 -204.5 -54.5t-72.5 -140.5q0 -65 36.5 -107t94.5 -61t128.5 -31.5t141 -29.5t128.5 -44.5t94.5 -85t36.5 -143.5q0 -129 -111 -212t-289 -83zM489 -129l74 55q3 -3 8.5 -8t19 -22t23.5 -36t18.5 -49t8.5 -61
q0 -49 -12.5 -93.5t-29.5 -73t-34.5 -49.5t-30.5 -30l-12 -10l-57 70q3 2 9 6.5t20.5 21.5t25.5 36t20 51t9 67t-15 66t-30 46.5t-15 12.5z" />
    <glyph glyph-name="circumflex" unicode="&#x2c6;" horiz-adv-x="806" 
d="M145 1356l258 133l259 -133v-103l-259 131l-258 -131v103z" />
    <glyph glyph-name="caron" unicode="&#x2c7;" horiz-adv-x="806" 
d="M403 1233l-258 133v102l258 -131l259 131v-102z" />
    <glyph glyph-name="breve" unicode="&#x2d8;" horiz-adv-x="749" 
d="M375 1311q78 0 125 42t47 117h90q0 -116 -71.5 -179.5t-190.5 -63.5t-190.5 63.5t-71.5 179.5h90q0 -75 47 -117t125 -42z" />
    <glyph glyph-name="dotaccent" unicode="&#x2d9;" horiz-adv-x="487" 
d="M244 1309q-35 0 -57.5 21.5t-22.5 55.5q0 35 22.5 57.5t57.5 22.5q34 0 57 -22.5t23 -57.5q0 -33 -23 -55t-57 -22z" />
    <glyph glyph-name="ring" unicode="&#x2da;" horiz-adv-x="616" 
d="M178 1423q0 -59 35 -98t96 -39q60 0 95.5 39t35.5 98q0 58 -36 98t-95 40q-61 0 -96 -40t-35 -98zM90 1423q0 92 61 154.5t158 62.5t157 -62t60 -155t-60 -155t-157 -62t-158 62.5t-61 154.5z" />
    <glyph glyph-name="ogonek" unicode="&#x2db;" horiz-adv-x="569" 
d="M418 -268l49 -62q-2 -3 -6 -8.5t-20 -20t-34 -25t-49.5 -19.5t-66.5 -9q-95 0 -142 60t-47 143q0 92 55.5 168t159.5 115l41 -72q-79 -29 -120 -87t-41 -122q0 -51 28 -86t80 -35q33 0 61 15t40 30z" />
    <glyph glyph-name="tilde" unicode="&#x2dc;" horiz-adv-x="856" 
d="M557 1290q-58 0 -138 41t-124 41q-41 0 -62 -17.5t-30 -58.5h-92q10 81 60 124.5t128 43.5q58 0 138 -41t124 -41q41 0 62 17.5t30 58.5h92q-10 -81 -60 -124.5t-128 -43.5z" />
    <glyph glyph-name="hungarumlaut" unicode="&#x2dd;" horiz-adv-x="811" 
d="M272 1534h121l-172 -348h-86zM555 1534h121l-172 -348h-86z" />
    <glyph glyph-name="pi" unicode="&#x3c0;" horiz-adv-x="1646" 
d="M68 729q0 159 55.5 298.5t153.5 240.5t239.5 159t306.5 58q220 0 393.5 -99.5t268 -271.5t94.5 -385t-94.5 -385t-268 -271.5t-393.5 -99.5q-165 0 -306.5 58t-239.5 159t-153.5 240.5t-55.5 298.5zM162 729q0 -194 82 -347t233 -239t346 -86t346.5 86t233.5 239t82 347
t-82 347t-233.5 239t-346.5 86t-346 -86t-233 -239t-82 -347zM555 332v772h315q152 0 230 -71t78 -191t-78 -191t-230 -71h-217v-248h-98zM653 672h217q209 0 209 170t-209 170h-217v-340z" />
    <glyph glyph-name="Wgrave" unicode="&#x1e80;" horiz-adv-x="2105" 
d="M1051 1331l-422 -1331h-115l-473 1454h113l415 -1331h4l422 1331h119l420 -1333h4l418 1333h108l-475 -1456h-114l-420 1333h-4zM848 1925h110l140 -348h-92z" />
    <glyph glyph-name="wgrave" unicode="&#x1e81;" horiz-adv-x="1671" 
d="M1139 0l-301 924h-2l-308 -924h-110l-357 1032h109l301 -923l309 923h115l303 -923l307 923h105l-361 -1032h-110zM629 1554h110l140 -348h-93z" />
    <glyph glyph-name="Wacute" unicode="&#x1e82;" horiz-adv-x="2105" 
d="M1051 1331l-422 -1331h-115l-473 1454h113l415 -1331h4l422 1331h119l420 -1333h4l418 1333h108l-475 -1456h-114l-420 1333h-4zM1145 1925h110l-157 -348h-92z" />
    <glyph glyph-name="wacute" unicode="&#x1e83;" horiz-adv-x="1671" 
d="M1139 0l-301 924h-2l-308 -924h-110l-357 1032h109l301 -923l309 923h115l303 -923l307 923h105l-361 -1032h-110zM918 1554h110l-158 -348h-92z" />
    <glyph glyph-name="Wdieresis" unicode="&#x1e84;" horiz-adv-x="2105" 
d="M1051 1331l-422 -1331h-115l-473 1454h113l415 -1331h4l422 1331h119l420 -1333h4l418 1333h108l-475 -1456h-114l-420 1333h-4zM913 1577q-35 0 -57 22t-22 56q0 35 22 57.5t57 22.5q34 0 57 -22.5t23 -57.5q0 -34 -23 -56t-57 -22zM1192 1577q-35 0 -57.5 22t-22.5 56
q0 35 22.5 57.5t57.5 22.5q34 0 57 -22.5t23 -57.5q0 -34 -23 -56t-57 -22z" />
    <glyph glyph-name="wdieresis" unicode="&#x1e85;" horiz-adv-x="1671" 
d="M1139 0l-301 924h-2l-308 -924h-110l-357 1032h109l301 -923l309 923h115l303 -923l307 923h105l-361 -1032h-110zM696 1309q-35 0 -57.5 21.5t-22.5 55.5q0 35 22.5 57.5t57.5 22.5q34 0 57 -22.5t23 -57.5q0 -33 -23 -55t-57 -22zM975 1309q-35 0 -57.5 21.5
t-22.5 55.5q0 35 22.5 57.5t57.5 22.5q34 0 57 -22.5t23 -57.5q0 -33 -23 -55t-57 -22z" />
    <glyph glyph-name="Ygrave" unicode="&#x1ef2;" horiz-adv-x="1245" 
d="M1116 1454h117l-561 -934v-520h-101v520l-559 934h109l500 -827h4zM434 1925h111l139 -348h-92z" />
    <glyph glyph-name="ygrave" unicode="&#x1ef3;" horiz-adv-x="1077" 
d="M305 -426l180 422l-440 1036h107l387 -926l391 926h102l-624 -1458h-103zM344 1554h111l139 -348h-92z" />
    <glyph glyph-name="endash" unicode="&#x2013;" horiz-adv-x="1024" 
d="M1024 561v-90h-1024v90h1024z" />
    <glyph glyph-name="emdash" unicode="&#x2014;" horiz-adv-x="2048" 
d="M2048 561v-90h-2048v90h2048z" />
    <glyph glyph-name="quoteleft" unicode="&#x2018;" horiz-adv-x="411" 
d="M223 1106h-121l121 348h86z" />
    <glyph glyph-name="quoteright" unicode="&#x2019;" horiz-adv-x="411" 
d="M188 1454h121l-121 -348h-86z" />
    <glyph glyph-name="quotesinglbase" unicode="&#x201a;" horiz-adv-x="411" 
d="M188 147h121l-121 -348h-86z" />
    <glyph glyph-name="quotedblleft" unicode="&#x201c;" horiz-adv-x="688" 
d="M500 1106h-121l121 348h86zM223 1106h-121l121 348h86z" />
    <glyph glyph-name="quotedblright" unicode="&#x201d;" horiz-adv-x="688" 
d="M188 1454h121l-121 -348h-86zM465 1454h121l-121 -348h-86z" />
    <glyph glyph-name="quotedblbase" unicode="&#x201e;" horiz-adv-x="688" 
d="M188 150h121l-121 -349h-86zM465 150h121l-121 -349h-86z" />
    <glyph glyph-name="dagger" unicode="&#x2020;" horiz-adv-x="1067" 
d="M582 -164h-97v1106h-372v90h372v422h97v-422h372v-90h-372v-1106z" />
    <glyph glyph-name="daggerdbl" unicode="&#x2021;" horiz-adv-x="1067" 
d="M485 1454h97v-422h372v-90h-372v-594h372v-90h-372v-422h-97v422h-372v90h372v594h-372v90h372v422z" />
    <glyph glyph-name="bullet" unicode="&#x2022;" horiz-adv-x="1058" 
d="M227 731q0 126 87.5 214.5t213.5 88.5t214.5 -88.5t88.5 -214.5t-88.5 -213.5t-214.5 -87.5t-213.5 87.5t-87.5 213.5z" />
    <glyph glyph-name="ellipsis" unicode="&#x2026;" horiz-adv-x="1241" 
d="M207 -16q-37 0 -60.5 23.5t-23.5 58.5q0 37 23.5 60.5t60.5 23.5q36 0 60 -24t24 -60q0 -35 -24.5 -58.5t-59.5 -23.5zM621 -16q-37 0 -60.5 23.5t-23.5 58.5q0 37 23.5 60.5t60.5 23.5q36 0 60 -24t24 -60q0 -35 -24.5 -58.5t-59.5 -23.5zM1034 -16q-37 0 -60.5 23.5
t-23.5 58.5q0 37 23.5 60.5t60.5 23.5q36 0 60 -24t24 -60q0 -35 -24.5 -58.5t-59.5 -23.5z" />
    <glyph glyph-name="perthousand" unicode="&#x2030;" horiz-adv-x="2639" 
d="M504 0l803 1454h100l-803 -1454h-100zM250 1006q0 -185 56 -280t159 -95t159 95t56 280t-56 279.5t-159 94.5t-159 -94.5t-56 -279.5zM156 1006q0 220 80 340t229 120t229 -120t80 -340t-80 -340.5t-229 -120.5t-229 120.5t-80 340.5zM1231 449q0 -185 56 -280t159 -95
t159 95t56 280t-56 279.5t-159 94.5t-159 -94.5t-56 -279.5zM1137 449q0 220 80 340t229 120t229 -120t80 -340t-80 -340.5t-229 -120.5t-229 120.5t-80 340.5zM1960 449q0 -185 56 -280t159 -95t159 95t56 280t-56 279.5t-159 94.5t-159 -94.5t-56 -279.5zM1866 449
q0 220 80 340t229 120t229 -120t80 -340t-80 -340.5t-229 -120.5t-229 120.5t-80 340.5z" />
    <glyph glyph-name="guilsinglleft" unicode="&#x2039;" horiz-adv-x="622" 
d="M143 526l226 430h110l-225 -430l225 -430h-110z" />
    <glyph glyph-name="guilsinglright" unicode="&#x203a;" horiz-adv-x="624" 
d="M254 956l225 -430l-225 -430h-111l226 430l-226 430h111z" />
    <glyph glyph-name="fraction" unicode="&#x2044;" horiz-adv-x="768" 
d="M-68 0l803 1454h101l-803 -1454h-101z" />
    <glyph glyph-name="zerosuperior" unicode="&#x2070;" horiz-adv-x="798" 
d="M184 1339q0 -185 56 -279.5t159 -94.5t159 94.5t56 279.5t-56 280t-159 95t-159 -95t-56 -280zM90 1339q0 220 80 340.5t229 120.5t229.5 -120.5t80.5 -340.5t-80.5 -340t-229.5 -120t-229 120t-80 340z" />
    <glyph glyph-name="foursuperior" unicode="&#x2074;" horiz-adv-x="798" 
d="M725 1202v-86h-127v-219h-92v219h-430v76l426 588h96v-578h127zM506 1642l-320 -440h320v440z" />
    <glyph glyph-name="fivesuperior" unicode="&#x2075;" horiz-adv-x="798" 
d="M117 1147h94q8 -81 58.5 -132.5t148.5 -51.5q91 0 145.5 59.5t54.5 163.5q0 94 -53 151.5t-147 57.5q-83 0 -132 -37t-65 -88h-90l72 510h471v-86h-391l-39 -273q24 24 72 41t106 17q127 0 209 -84t82 -209q0 -130 -84 -218.5t-211 -88.5q-129 0 -208 72.5t-93 195.5z
" />
    <glyph glyph-name="sixsuperior" unicode="&#x2076;" horiz-adv-x="798" 
d="M451 1780h139q-112 -84 -196 -168.5t-142 -186.5q7 6 20 16t55.5 26t86.5 16q133 0 216 -88.5t83 -214.5t-85.5 -213.5t-217.5 -87.5q-139 0 -221.5 88.5t-82.5 222.5q0 95 32 186.5t87 167t109 131t117 105.5zM618 1180q0 96 -59 156.5t-149 60.5q-94 0 -151.5 -60
t-57.5 -157t57.5 -157t151.5 -60q90 0 149 60.5t59 156.5z" />
    <glyph glyph-name="sevensuperior" unicode="&#x2077;" horiz-adv-x="661" 
d="M629 1780v-72q-145 -185 -231.5 -376.5t-133.5 -434.5h-96q95 469 340 797h-363v-109h-92v195h576z" />
    <glyph glyph-name="eightsuperior" unicode="&#x2078;" horiz-adv-x="798" 
d="M397 961q104 0 157.5 48.5t53.5 129.5t-56.5 126.5t-154.5 45.5q-96 0 -152.5 -45.5t-56.5 -126.5t54 -129.5t155 -48.5zM397 1393q90 0 139.5 45t49.5 118t-49 117.5t-140 44.5q-90 0 -138 -44.5t-48 -117.5t49 -118t137 -45zM397 879q-148 0 -223.5 73t-75.5 187
q0 70 34.5 127.5t98.5 89.5q-108 62 -108 200q0 104 71 174t203 70t204.5 -70t72.5 -174q0 -60 -28.5 -113.5t-82.5 -86.5q135 -63 135 -217q0 -114 -76 -187t-225 -73z" />
    <glyph glyph-name="ninesuperior" unicode="&#x2079;" horiz-adv-x="798" 
d="M348 897h-139q235 176 338 356q-7 -6 -20 -15.5t-55.5 -25.5t-86.5 -16q-133 0 -216 88.5t-83 214.5t85.5 213.5t217.5 87.5q139 0 221 -88.5t82 -222.5q0 -95 -32 -187t-86.5 -167.5t-108.5 -131.5t-117 -106zM180 1499q0 -96 59.5 -156.5t149.5 -60.5q94 0 151.5 60
t57.5 157t-57.5 157t-151.5 60q-90 0 -149.5 -60.5t-59.5 -156.5z" />
    <glyph glyph-name="zeroinferior" unicode="&#x2080;" horiz-adv-x="798" 
d="M184 115q0 -185 56 -280t159 -95t159 95t56 280t-56 279.5t-159 94.5t-159 -94.5t-56 -279.5zM90 115q0 220 80 340t229 120t229.5 -120t80.5 -340t-80.5 -340.5t-229.5 -120.5t-229 120.5t-80 340.5z" />
    <glyph glyph-name="oneinferior" unicode="&#x2081;" horiz-adv-x="550" 
d="M340 555v-883h-92v797h-193v74l221 12h64z" />
    <glyph glyph-name="twoinferior" unicode="&#x2082;" horiz-adv-x="784" 
d="M692 -328h-588v72l351 315q65 58 95 109.5t30 124.5q0 90 -49 143t-138 53q-95 0 -143.5 -57.5t-48.5 -157.5l2 -26h-94q-3 14 -3 28q0 135 76.5 216t210.5 81q136 0 208.5 -77t72.5 -201q0 -87 -41.5 -158.5t-124.5 -144.5l-264 -234h448v-86z" />
    <glyph glyph-name="threeinferior" unicode="&#x2083;" horiz-adv-x="790" 
d="M283 84v80h102q98 0 145.5 45t47.5 117q0 79 -48 122.5t-145 43.5q-85 0 -130.5 -48t-55.5 -127h-93q12 116 86.5 187t194.5 71q137 0 210 -67t73 -182q0 -63 -33.5 -116.5t-97.5 -80.5q69 -24 107 -80.5t38 -124.5q0 -123 -77.5 -196.5t-217.5 -73.5q-132 0 -209 75.5
t-88 204.5h90q8 -91 62 -143.5t145 -52.5t147 47.5t56 138.5q0 79 -48 119.5t-159 40.5h-102z" />
    <glyph glyph-name="fourinferior" unicode="&#x2084;" horiz-adv-x="798" 
d="M725 -23v-86h-127v-219h-92v219h-430v76l426 588h96v-578h127zM506 418l-320 -441h320v441z" />
    <glyph glyph-name="fiveinferior" unicode="&#x2085;" horiz-adv-x="798" 
d="M117 -78h94q8 -81 58.5 -132.5t148.5 -51.5q91 0 145.5 59.5t54.5 163.5q0 94 -53 151.5t-147 57.5q-83 0 -132 -37t-65 -88h-90l72 510h471v-86h-391l-39 -272q24 24 72 40.5t106 16.5q127 0 209 -84t82 -209q0 -130 -84 -218.5t-211 -88.5q-129 0 -208 72.5t-93 195.5z
" />
    <glyph glyph-name="sixinferior" unicode="&#x2086;" horiz-adv-x="798" 
d="M451 555h139q-112 -84 -196 -168t-142 -186q7 6 20 15.5t55.5 25.5t86.5 16q133 0 216 -88.5t83 -214.5t-85.5 -213.5t-217.5 -87.5q-139 0 -221.5 88.5t-82.5 222.5q0 95 32 186.5t87 167t109 131t117 105.5zM618 -45q0 96 -59 156.5t-149 60.5q-94 0 -151.5 -60
t-57.5 -157t57.5 -157t151.5 -60q90 0 149 60.5t59 156.5z" />
    <glyph glyph-name="seveninferior" unicode="&#x2087;" horiz-adv-x="661" 
d="M629 555v-72q-145 -185 -231.5 -376.5t-133.5 -434.5h-96q95 469 340 797h-363v-109h-92v195h576z" />
    <glyph glyph-name="eightinferior" unicode="&#x2088;" horiz-adv-x="798" 
d="M397 -264q104 0 157.5 48.5t53.5 129.5t-56.5 126.5t-154.5 45.5q-96 0 -152.5 -45.5t-56.5 -126.5t54 -129.5t155 -48.5zM397 168q90 0 139.5 45.5t49.5 118.5t-49 117.5t-140 44.5q-90 0 -138 -44.5t-48 -117.5t49 -118.5t137 -45.5zM397 -346q-148 0 -223.5 73
t-75.5 187q0 70 34.5 127.5t98.5 89.5q-108 62 -108 201q0 104 71 173.5t203 69.5t204.5 -69.5t72.5 -173.5q0 -61 -28.5 -114.5t-82.5 -86.5q135 -63 135 -217q0 -114 -76 -187t-225 -73z" />
    <glyph glyph-name="nineinferior" unicode="&#x2089;" horiz-adv-x="798" 
d="M348 -328h-139q234 175 338 357q-7 -6 -20 -16t-55.5 -26t-86.5 -16q-133 0 -216 88.5t-83 214.5t85.5 213.5t217.5 87.5q139 0 221 -88.5t82 -222.5q0 -95 -32 -187t-86.5 -167.5t-108.5 -131.5t-117 -106zM180 274q0 -96 59.5 -156.5t149.5 -60.5q94 0 151.5 60
t57.5 157t-57.5 157.5t-151.5 60.5q-90 0 -149.5 -61t-59.5 -157z" />
    <glyph glyph-name="Euro" unicode="&#x20ac;" 
d="M86 537v90h147q-2 33 -2 100q0 17 5 104h-150v91h160q40 264 191.5 413.5t412.5 149.5q81 0 151 -16t99 -32l30 -16v-102q-13 8 -36 20.5t-96 33t-148 20.5q-227 0 -348 -125.5t-154 -345.5h486v-91h-494q-4 -70 -4 -104q0 -67 2 -100h496v-90h-486q70 -476 502 -476
q75 0 145 18.5t103 36.5l32 19v-102q-4 -3 -11.5 -7t-34.5 -15t-57 -19.5t-78 -15.5t-99 -7q-263 0 -414.5 150.5t-191.5 417.5h-158z" />
    <glyph glyph-name="trademark" unicode="&#x2122;" horiz-adv-x="1796" 
d="M1225 1059l309 395h82v-840h-92v689l-295 -377h-8l-295 377v-689h-92v840h81zM719 1454v-86h-270v-754h-89v754h-270v86h629z" />
    <glyph glyph-name="minus" unicode="&#x2212;" 
d="M1122 563v-96h-1052v96h1052z" />
    <glyph glyph-name="approxequal" unicode="&#x2248;" 
d="M115 641q3 6 9 15t29 32.5t51 41.5t76.5 33t104.5 15q70 0 145 -23.5t146.5 -47t132.5 -23.5q37 0 70.5 10t54.5 24t36.5 28t21.5 24l7 10l78 -61q-3 -6 -9 -15t-29 -32.5t-51 -41.5t-76.5 -33t-104.5 -15q-70 0 -145 23.5t-146.5 47t-132.5 23.5q-37 0 -70.5 -10
t-54.5 -24t-36.5 -28t-21.5 -24l-7 -10zM115 313q3 6 9 15t29 33t51 42t76.5 33t104.5 15q70 0 145 -23.5t146.5 -47.5t132.5 -24q37 0 70.5 10t54.5 24t36.5 28.5t21.5 24.5l7 10l78 -62q-3 -6 -9 -15t-29 -32.5t-51 -41.5t-76.5 -33t-104.5 -15q-70 0 -145 23.5t-146.5 47
t-132.5 23.5q-37 0 -70.5 -10t-54.5 -24t-36.5 -28t-21.5 -24l-7 -10z" />
    <glyph glyph-name="notequal" unicode="&#x2260;" 
d="M1122 358v-96h-604l-133 -262h-106l133 262h-342v96h391l160 314h-551v96h600l135 264h106l-135 -264h346v-96h-395l-160 -314h555z" />
    <glyph glyph-name="lessequal" unicode="&#x2264;" 
d="M424 0l-383 516l383 516h115l-344 -471h956v-90h-956l344 -471h-115z" />
    <glyph glyph-name="greaterequal" unicode="&#x2265;" 
d="M1151 516l-383 -516h-115l344 471h-956v90h956l-344 471h115z" />
    <glyph glyph-name="hyphen.cap" horiz-adv-x="800" 
d="M711 782v-90h-621v90h621z" />
    <glyph glyph-name="exclamdown.cap" horiz-adv-x="483" 
d="M201 1155h80l16 -1155h-113zM242 1470q36 0 60 -23t24 -58q0 -36 -24 -60t-60 -24q-37 0 -60.5 23.5t-23.5 60.5q0 35 23.5 58t60.5 23z" />
    <glyph glyph-name="questiondown.cap" horiz-adv-x="1056" 
d="M975 397q0 -117 -51.5 -214t-151.5 -155.5t-231 -58.5q-199 0 -313.5 113.5t-114.5 286.5q0 75 22 140.5t57.5 113t78.5 90.5t85.5 81.5t78 77t57.5 86t22 99.5q0 18 -2.5 42.5t-5.5 40.5l-2 15h96q10 -57 10 -98q0 -61 -21.5 -115t-56.5 -95t-76.5 -81t-83.5 -80.5
t-77 -84t-56.5 -102t-21.5 -124.5q0 -143 87 -228.5t237 -85.5t239.5 93t89.5 247l-4 82h105q4 -49 4 -86zM545 1470q37 0 60.5 -23t23.5 -58q0 -37 -23.5 -60.5t-60.5 -23.5q-36 0 -60 24t-24 60q0 35 24 58t60 23z" />
    <glyph glyph-name="endash.cap" horiz-adv-x="1024" 
d="M1024 782v-90h-1024v90h1024z" />
    <glyph glyph-name="emdash.cap" horiz-adv-x="2048" 
d="M2048 782v-90h-2048v90h2048z" />
    <glyph glyph-name="periodcentered.cap" horiz-adv-x="413" 
d="M207 655q-37 0 -60.5 23.5t-23.5 58.5q0 37 23.5 60.5t60.5 23.5q36 0 60 -24t24 -60q0 -35 -24.5 -58.5t-59.5 -23.5z" />
    <glyph glyph-name="parenleft.cap" horiz-adv-x="610" 
d="M285 727q0 -526 243 -938h-98q-118 187 -182 430.5t-64 507.5t64 507.5t182 430.5h98q-243 -412 -243 -938z" />
    <glyph glyph-name="parenright.cap" horiz-adv-x="610" 
d="M326 727q0 524 -244 938h98q118 -187 182 -430.5t64 -507.5t-64 -507.5t-182 -430.5h-98q244 414 244 938z" />
    <glyph glyph-name="bracketleft.cap" horiz-adv-x="591" 
d="M547 -121v-90h-389v1876h389v-90h-293v-1696h293z" />
    <glyph glyph-name="bracketright.cap" horiz-adv-x="591" 
d="M45 -211v90h293v1696h-293v90h389v-1876h-389z" />
    <glyph glyph-name="braceleft.cap" horiz-adv-x="614" 
d="M465 -211q-110 0 -167.5 66.5t-57.5 179.5v536q0 111 -105 111h-53v90h53q105 0 105 111v536q0 113 57.5 179.5t167.5 66.5q30 0 56 -2.5t37 -4.5l11 -3v-90q-43 10 -98 10q-72 0 -103.5 -36t-31.5 -107v-533q0 -131 -76 -172q76 -44 76 -172v-532q0 -71 31.5 -107.5
t103.5 -36.5q24 0 48.5 2.5t36.5 4.5l13 3v-90q-36 -10 -104 -10z" />
    <glyph glyph-name="braceright.cap" horiz-adv-x="614" 
d="M150 -211q-30 0 -56.5 2.5t-37.5 4.5l-11 3v90q43 -10 98 -10q72 0 104 36.5t32 107.5v532q0 130 75 172q-75 39 -75 172v533q0 70 -32 106.5t-104 36.5q-24 0 -48.5 -2.5t-36.5 -4.5l-13 -3v90q37 10 105 10q110 0 167.5 -66.5t57.5 -179.5v-536q0 -111 104 -111h53v-90
h-53q-104 0 -104 -111v-536q0 -113 -57.5 -179.5t-167.5 -66.5z" />
    <glyph glyph-name="at.cap" horiz-adv-x="1695" 
d="M1042 778q0 111 -46.5 177.5t-143.5 66.5q-121 0 -191.5 -96t-70.5 -252q0 -132 54 -189t153 -57q74 0 131 52.5t85.5 131.5t28.5 166zM1362 256h104q-98 -139 -258 -218t-350 -79q-175 0 -316.5 56t-235 156.5t-143.5 239t-50 304.5q0 126 33.5 242.5t99.5 214
t158 169.5t215.5 112t265.5 40q159 0 290 -47.5t220.5 -132t138.5 -203t49 -258.5q0 -224 -115 -366t-268 -142q-74 0 -116 39.5t-52 97.5q-88 -137 -254 -137q-133 0 -211 88t-78 240q0 116 41 214t124 160t192 62q81 0 145 -37.5t94 -109.5l25 118h96l-90 -452
q-6 -35 -6 -66q0 -61 27 -94t77 -33q87 0 151.5 58.5t95 149.5t30.5 200q0 261 -164.5 413t-441.5 152q-157 0 -286.5 -55t-213.5 -149.5t-130 -220t-46 -267.5q0 -314 173.5 -493t475.5 -179q169 0 301 62.5t203 150.5z" />
    <glyph glyph-name="zero.slash" 
d="M596 -31q-237 0 -369.5 201.5t-132.5 556.5t132.5 556.5t369.5 201.5t369.5 -201.5t132.5 -556.5t-132.5 -556.5t-369.5 -201.5zM596 1393q-184 0 -290.5 -171.5t-106.5 -494.5q0 -353 129 -528l460 1132q-83 62 -192 62zM596 61q184 0 290.5 171.5t106.5 494.5
q0 353 -131 530l-463 -1132q85 -64 197 -64z" />
    <glyph glyph-name="commaaccentcomb" horiz-adv-x="397" 
d="M135 -129l74 55q3 -3 8.5 -8t19 -22t23.5 -36t18.5 -49t8.5 -61q0 -49 -12.5 -93.5t-30 -73t-34.5 -49.5t-30 -30l-12 -10l-57 70q3 2 9 6.5t20.5 21.5t25.5 36t20 51t9 67t-15 66t-30 46.5t-15 12.5z" />
    <glyph glyph-name="zero.onum" horiz-adv-x="1306" 
d="M215 537q0 -201 119 -335t319 -134t319.5 134t119.5 335t-119.5 335t-319.5 134t-319 -134t-119 -335zM113 537q0 155 66.5 282.5t191 203t282.5 75.5t282.5 -75.5t191.5 -203t67 -282.5t-67 -283t-191.5 -203.5t-282.5 -75.5t-282.5 75.5t-191 203.5t-66.5 283z" />
    <glyph glyph-name="one.onum" horiz-adv-x="698" 
d="M412 0h-97v977h-233v72l258 24h72v-1073z" />
    <glyph glyph-name="two.onum" horiz-adv-x="1054" 
d="M236 657h-103q-2 19 -2 33q0 191 104.5 299.5t292.5 108.5q184 0 283.5 -99.5t99.5 -250.5q0 -63 -20 -120.5t-51.5 -104t-85.5 -96.5t-106.5 -89t-129.5 -90l-235 -156h690v-92h-850v88l344 236q96 67 148 107.5t102.5 93.5t71 106t20.5 117q0 115 -75.5 186.5
t-205.5 71.5q-136 0 -215.5 -82t-79.5 -238z" />
    <glyph glyph-name="three.onum" horiz-adv-x="1075" 
d="M387 391v92h117q156 0 239.5 75t83.5 185q0 122 -75.5 191.5t-223.5 69.5q-132 0 -208.5 -73.5t-86.5 -182.5h-104q17 165 125 258.5t276 93.5q190 0 296 -98.5t106 -258.5q0 -95 -55 -178t-156 -123q120 -35 175.5 -117t55.5 -192q0 -173 -111 -280t-309 -107
q-94 0 -172.5 31t-131.5 85t-85 124.5t-41 152.5h105q15 -124 101.5 -212.5t223.5 -88.5q144 0 230 74.5t86 220.5q0 127 -89.5 192.5t-242.5 65.5h-129z" />
    <glyph glyph-name="four.onum" horiz-adv-x="1073" 
d="M1032 188v-92h-207v-317h-96v317h-668v92l664 883h100v-883h207zM176 188h553v732h-4z" />
    <glyph glyph-name="five.onum" horiz-adv-x="1085" 
d="M162 340l104 733h660v-92h-576l-65 -455q36 36 110.5 68.5t177.5 32.5q186 0 305 -121t119 -305q0 -189 -124 -320t-310 -131q-183 0 -300 105.5t-136 273.5h102q21 -122 105 -203.5t229 -81.5q144 0 238 98t94 259q0 148 -90.5 241t-241.5 93q-110 0 -195.5 -60.5
t-113.5 -134.5h-92z" />
    <glyph glyph-name="six.onum" horiz-adv-x="1093" 
d="M631 1292h149q-171 -129 -295 -264.5t-194 -304.5q43 50 114.5 84.5t167.5 34.5q191 0 311 -127.5t120 -313.5q0 -115 -54.5 -213.5t-156.5 -158.5t-228 -60q-132 0 -231.5 60.5t-151 161.5t-51.5 227q0 113 31.5 225t81 202.5t117.5 177.5t133 150t137 119zM901 401
q0 160 -93.5 254.5t-242.5 94.5q-150 0 -241 -96t-91 -253q0 -153 92.5 -247.5t239.5 -94.5t241.5 94.5t94.5 247.5z" />
    <glyph glyph-name="seven.onum" horiz-adv-x="886" 
d="M37 1073h821v-84q-196 -264 -302 -557.5t-153 -650.5h-104q58 366 164.5 662t277.5 534h-604v-180h-100v276z" />
    <glyph glyph-name="eight.onum" horiz-adv-x="1110" 
d="M555 59q164 0 247 73t83 204q0 129 -90 207t-240 78t-240 -78t-90 -207q0 -131 82.5 -204t247.5 -73zM555 707q142 0 219.5 73.5t77.5 190.5q0 118 -77 190t-220 72t-220 -72t-77 -190q0 -117 77.5 -190.5t219.5 -73.5zM555 -31q-213 0 -322.5 101.5t-109.5 265.5
q0 108 58 199t163 131q-88 43 -137 127.5t-49 177.5q0 71 25.5 134t74 112t125.5 77.5t172 28.5q187 0 291 -102t104 -250q0 -94 -48.5 -178t-137.5 -127q101 -39 162 -132t61 -198q0 -164 -109.5 -265.5t-322.5 -101.5z" />
    <glyph glyph-name="nine.onum" horiz-adv-x="1093" 
d="M463 -225h-150q172 130 296 265t194 304q-43 -50 -115 -84.5t-168 -34.5q-191 0 -310.5 127.5t-119.5 313.5q0 116 54.5 214t156 158t227.5 60q132 0 232 -60.5t151.5 -161.5t51.5 -227q0 -113 -31.5 -225t-81 -202.5t-117.5 -177.5t-133 -150t-137 -119zM193 666
q0 -160 93 -254.5t242 -94.5q150 0 241 96t91 253q0 153 -92.5 247.5t-239.5 94.5t-241 -94.5t-94 -247.5z" />
    <glyph glyph-name="zero.pnum" 
d="M596 -31q-237 0 -369.5 201.5t-132.5 556.5t132.5 556.5t369.5 201.5t369.5 -201.5t132.5 -556.5t-132.5 -556.5t-369.5 -201.5zM596 1393q-184 0 -290.5 -171.5t-106.5 -494.5t106.5 -494.5t290.5 -171.5t290.5 171.5t106.5 494.5t-106.5 494.5t-290.5 171.5z" />
    <glyph glyph-name="one.pnum" horiz-adv-x="753" 
d="M446 1454v-1454h-100v1358h-252v72l277 24h75z" />
    <glyph glyph-name="two.pnum" horiz-adv-x="1112" 
d="M1032 0h-952v88l586 528q107 97 166 196t59 218q0 167 -92 265t-258 98q-175 0 -260.5 -103.5t-85.5 -279.5l2 -29h-105q-2 19 -2 33q0 215 118.5 343t332.5 128q221 0 337.5 -123t116.5 -326q0 -138 -66 -255t-204 -240l-500 -445h807v-96z" />
    <glyph glyph-name="three.pnum" horiz-adv-x="1134" 
d="M406 696v97h120q183 0 281 82.5t98 207.5q0 143 -91 226.5t-265 83.5q-79 0 -142 -24.5t-102.5 -67t-62.5 -94.5t-29 -111h-104q18 167 136.5 278t305.5 111q216 0 337.5 -110.5t121.5 -291.5q0 -113 -64.5 -203t-189.5 -130q140 -37 208 -130t68 -219
q0 -195 -123.5 -313.5t-347.5 -118.5q-217 0 -339 118t-142 314h104q18 -150 114 -245t263 -95t267 86t100 254q0 147 -104.5 221t-282.5 74h-135z" />
    <glyph glyph-name="four.pnum" horiz-adv-x="1177" 
d="M1120 471v-94h-207v-377h-100v377h-745v94l741 983h104v-983h207zM813 1298h-4l-625 -827h629v827z" />
    <glyph glyph-name="five.pnum" horiz-adv-x="1159" 
d="M154 627l114 827h738v-96h-658l-74 -549q4 5 12.5 14t39 31.5t65.5 40t92 31.5t119 14q206 0 335.5 -134t129.5 -335q0 -210 -134.5 -356t-340.5 -146q-207 0 -332 114t-147 304h102q11 -66 37 -122t69.5 -103t113 -74t157.5 -27q163 0 267 114t104 296
q0 168 -99.5 272.5t-273.5 104.5q-127 0 -220.5 -68t-127.5 -153h-88z" />
    <glyph glyph-name="six.pnum" horiz-adv-x="1148" 
d="M588 -31q-148 0 -259.5 67.5t-169 181t-57.5 253.5q0 131 38 259t96 229t139 198.5t154.5 165.5t156.5 131h143q-185 -135 -344 -312t-231 -364q18 27 44.5 52t68 52t101.5 43.5t130 16.5q106 0 197 -39.5t152 -106.5t95.5 -155.5t34.5 -185.5q0 -130 -60.5 -240.5
t-174 -178t-254.5 -67.5zM971 455q0 176 -107.5 285.5t-275.5 109.5t-275.5 -109.5t-107.5 -285.5t107.5 -285t275.5 -109t275.5 109t107.5 285z" />
    <glyph glyph-name="seven.pnum" horiz-adv-x="987" 
d="M956 1454v-88q-239 -315 -357 -638t-163 -728h-108q55 402 175.5 737t327.5 621h-688v-180h-100v276h913z" />
    <glyph glyph-name="eight.pnum" horiz-adv-x="1150" 
d="M575 61q180 0 279.5 89t99.5 237q0 149 -99.5 233.5t-279.5 84.5t-279 -84.5t-99 -233.5q0 -148 99.5 -237t278.5 -89zM575 793q162 0 252.5 85t90.5 220q0 133 -89.5 214t-253.5 81t-253 -81t-89 -214q0 -135 90 -220t252 -85zM575 -31q-116 0 -209.5 33t-152.5 90.5
t-90 132.5t-31 162q0 122 66.5 222t187.5 145q-106 52 -159.5 143.5t-53.5 200.5q0 78 28.5 147t82 123t139 85.5t192.5 31.5t192.5 -31.5t139.5 -85.5t82.5 -123t28.5 -147q0 -109 -53.5 -200.5t-159.5 -143.5q121 -45 187.5 -145t66.5 -222q0 -180 -127 -299t-357 -119z
" />
    <glyph glyph-name="nine.pnum" horiz-adv-x="1148" 
d="M561 1485q148 0 259.5 -67.5t169 -181t57.5 -253.5q0 -131 -38 -259t-96 -229t-139 -198.5t-154.5 -165.5t-156.5 -131h-144q118 86 223.5 185t204.5 231t148 260q-18 -27 -44.5 -52t-68 -52t-101.5 -43.5t-130 -16.5q-106 0 -197 39.5t-152 106.5t-95.5 155.5
t-34.5 185.5q0 130 60.5 240.5t174 178t254.5 67.5zM178 999q0 -176 107.5 -285.5t275.5 -109.5t275.5 109.5t107.5 285.5t-107.5 285t-275.5 109t-275.5 -109t-107.5 -285z" />
    <glyph glyph-name="zero.dnom" horiz-adv-x="798" 
d="M184 442q0 -185 56 -279.5t159 -94.5t159 94.5t56 279.5t-56 280t-159 95t-159 -95t-56 -280zM90 442q0 220 80 340.5t229 120.5t229.5 -120.5t80.5 -340.5t-80.5 -340t-229.5 -120t-229 120t-80 340z" />
    <glyph glyph-name="one.dnom" horiz-adv-x="550" 
d="M340 883v-883h-92v797h-193v73l221 13h64z" />
    <glyph glyph-name="two.dnom" horiz-adv-x="784" 
d="M692 0h-588v72l351 315q65 58 95 109.5t30 124.5q0 90 -49 143t-138 53q-95 0 -143.5 -57.5t-48.5 -157.5l2 -27h-94q-3 15 -3 29q0 135 76.5 216t210.5 81q136 0 208.5 -77t72.5 -201q0 -87 -41.5 -159t-124.5 -145l-264 -233h448v-86z" />
    <glyph glyph-name="three.dnom" horiz-adv-x="790" 
d="M283 412v80h102q98 0 145.5 44.5t47.5 116.5q0 79 -48 122.5t-145 43.5q-85 0 -130.5 -47.5t-55.5 -126.5h-93q12 116 86.5 187t194.5 71q137 0 210 -67.5t73 -182.5q0 -63 -33.5 -116t-97.5 -80q69 -24 107 -80.5t38 -124.5q0 -123 -77.5 -196.5t-217.5 -73.5
q-132 0 -209 75.5t-88 204.5h90q8 -91 62 -143.5t145 -52.5t147 47.5t56 138.5q0 79 -48 119.5t-159 40.5h-102z" />
    <glyph glyph-name="four.dnom" horiz-adv-x="798" 
d="M725 305v-86h-127v-219h-92v219h-430v76l426 588h96v-578h127zM506 745l-320 -440h320v440z" />
    <glyph glyph-name="five.dnom" horiz-adv-x="798" 
d="M117 246h94q8 -81 58.5 -133t148.5 -52q91 0 145.5 60t54.5 164q0 94 -53 151.5t-147 57.5q-83 0 -132 -37t-65 -88h-90l72 510h471v-86h-391l-39 -273q24 24 72 41t106 17q127 0 209 -84t82 -209q0 -130 -84 -219t-211 -89q-129 0 -208 73t-93 196z" />
    <glyph glyph-name="six.dnom" horiz-adv-x="798" 
d="M451 879h139q-112 -84 -196 -168.5t-142 -186.5q7 6 20 16t55.5 26t86.5 16q133 0 216 -88.5t83 -214.5t-85.5 -214t-217.5 -88q-139 0 -221.5 89t-82.5 223q0 95 32 186.5t87 167t109 131t117 105.5zM618 279q0 96 -59 156.5t-149 60.5q-94 0 -151.5 -60t-57.5 -157
t57.5 -157.5t151.5 -60.5q90 0 149 61t59 157z" />
    <glyph glyph-name="seven.dnom" horiz-adv-x="661" 
d="M629 883v-72q-145 -185 -231.5 -376.5t-133.5 -434.5h-96q95 469 340 797h-363v-109h-92v195h576z" />
    <glyph glyph-name="eight.dnom" horiz-adv-x="798" 
d="M397 63q104 0 157.5 49t53.5 130t-56.5 126.5t-154.5 45.5q-96 0 -152.5 -45.5t-56.5 -126.5t54 -130t155 -49zM397 496q90 0 139.5 45t49.5 118t-49 117.5t-140 44.5q-90 0 -138 -44.5t-48 -117.5t49 -118t137 -45zM397 -18q-148 0 -223.5 73t-75.5 187q0 70 34.5 127.5
t98.5 89.5q-108 62 -108 200q0 104 71 174t203 70t204.5 -70t72.5 -174q0 -60 -28.5 -113.5t-82.5 -86.5q135 -63 135 -217q0 -114 -76 -187t-225 -73z" />
    <glyph glyph-name="nine.dnom" horiz-adv-x="798" 
d="M348 0h-139q235 176 338 356q-7 -6 -20 -15.5t-55.5 -25.5t-86.5 -16q-133 0 -216 88.5t-83 214.5t85.5 213.5t217.5 87.5q139 0 221 -88.5t82 -222.5q0 -95 -32 -187t-86.5 -167.5t-108.5 -131.5t-117 -106zM180 602q0 -96 59.5 -156.5t149.5 -60.5q94 0 151.5 60
t57.5 157t-57.5 157t-151.5 60q-90 0 -149.5 -60.5t-59.5 -156.5z" />
    <glyph glyph-name="zero.numerator" horiz-adv-x="798" 
d="M184 1014q0 -185 56 -280t159 -95t159 95t56 280t-56 280t-159 95t-159 -95t-56 -280zM90 1014q0 220 80 340.5t229 120.5t229.5 -120.5t80.5 -340.5t-80.5 -340.5t-229.5 -120.5t-229 120.5t-80 340.5z" />
    <glyph glyph-name="one.numerator" horiz-adv-x="550" 
d="M340 1454v-883h-92v797h-193v74l221 12h64z" />
    <glyph glyph-name="two.numerator" horiz-adv-x="784" 
d="M692 571h-588v72l351 315q65 58 95 109.5t30 124.5q0 90 -49 143.5t-138 53.5q-95 0 -143.5 -57.5t-48.5 -157.5l2 -27h-94q-3 15 -3 29q0 135 76.5 216t210.5 81q136 0 208.5 -77.5t72.5 -201.5q0 -87 -41.5 -158.5t-124.5 -144.5l-264 -234h448v-86z" />
    <glyph glyph-name="three.numerator" horiz-adv-x="790" 
d="M283 983v80h102q98 0 145.5 45t47.5 117q0 79 -48 122.5t-145 43.5q-85 0 -130.5 -47.5t-55.5 -126.5h-93q12 116 86.5 187t194.5 71q137 0 210 -67.5t73 -182.5q0 -63 -33.5 -116.5t-97.5 -80.5q69 -24 107 -80.5t38 -124.5q0 -123 -77.5 -196.5t-217.5 -73.5
q-132 0 -209 76t-88 205h90q8 -91 62 -144t145 -53t147 47.5t56 138.5q0 79 -48 119.5t-159 40.5h-102z" />
    <glyph glyph-name="four.numerator" horiz-adv-x="798" 
d="M725 877v-86h-127v-220h-92v220h-430v75l426 588h96v-577h127zM506 1317l-320 -440h320v440z" />
    <glyph glyph-name="five.numerator" horiz-adv-x="798" 
d="M117 821h94q8 -81 58.5 -132.5t148.5 -51.5q91 0 145.5 59.5t54.5 163.5q0 94 -53 151.5t-147 57.5q-83 0 -132 -37t-65 -88h-90l72 510h471v-86h-391l-39 -272q24 24 72 40.5t106 16.5q127 0 209 -84t82 -209q0 -130 -84 -218.5t-211 -88.5q-129 0 -208 72.5t-93 195.5z
" />
    <glyph glyph-name="six.numerator" horiz-adv-x="798" 
d="M451 1454h139q-112 -84 -196 -168t-142 -186q7 6 20 15.5t55.5 25.5t86.5 16q133 0 216 -88.5t83 -214.5t-85.5 -213.5t-217.5 -87.5q-139 0 -221.5 88.5t-82.5 222.5q0 95 32 186.5t87 167t109 131t117 105.5zM618 854q0 96 -59 156.5t-149 60.5q-94 0 -151.5 -60
t-57.5 -157t57.5 -157t151.5 -60q90 0 149 60.5t59 156.5z" />
    <glyph glyph-name="seven.numerator" horiz-adv-x="661" 
d="M629 1454v-72q-145 -185 -231.5 -376.5t-133.5 -434.5h-96q95 469 340 797h-363v-108h-92v194h576z" />
    <glyph glyph-name="eight.numerator" horiz-adv-x="798" 
d="M397 635q104 0 157.5 48.5t53.5 129.5t-56.5 126.5t-154.5 45.5q-96 0 -152.5 -45.5t-56.5 -126.5t54 -129.5t155 -48.5zM397 1067q90 0 139.5 45.5t49.5 118.5t-49 117.5t-140 44.5q-90 0 -138 -44.5t-48 -117.5t49 -118.5t137 -45.5zM397 553q-148 0 -223.5 73
t-75.5 187q0 70 34.5 127.5t98.5 89.5q-108 62 -108 201q0 104 71 174t203 70t204.5 -70t72.5 -174q0 -61 -28.5 -114.5t-82.5 -86.5q135 -63 135 -217q0 -114 -76 -187t-225 -73z" />
    <glyph glyph-name="nine.numerator" horiz-adv-x="798" 
d="M348 571h-139q234 175 338 357q-7 -6 -20 -16t-55.5 -26t-86.5 -16q-133 0 -216 89t-83 215t85.5 213.5t217.5 87.5q139 0 221 -89t82 -223q0 -95 -32 -187t-86.5 -167.5t-108.5 -131.5t-117 -106zM180 1174q0 -96 59.5 -157t149.5 -61q94 0 151.5 60.5t57.5 157.5
t-57.5 157t-151.5 60q-90 0 -149.5 -60.5t-59.5 -156.5z" />
    <glyph glyph-name="Euro.oldstyle" horiz-adv-x="1142" 
d="M111 455v90h149q-4 33 -4 100q0 35 4 105h-149v90h161q19 102 59 186t103 152.5t158 106.5t213 38q51 0 97.5 -6.5t76.5 -15.5t53 -18.5t33 -16.5l10 -6v-103q-11 8 -33 20.5t-92 33t-145 20.5q-97 0 -173 -29t-127 -83t-82.5 -123t-47.5 -156h483v-90h-493
q-5 -44 -5 -105q0 -59 5 -100h493v-90h-483q16 -88 47.5 -157.5t82.5 -124.5t127 -84.5t173 -29.5q75 0 142.5 18.5t97.5 36.5l30 19v-102q-4 -3 -11 -7t-32 -15t-53.5 -19.5t-75.5 -15.5t-98 -7q-119 0 -214 38.5t-158 108t-102.5 154t-58.5 187.5h-161z" />
    <glyph glyph-name="dollar.oldstyle" horiz-adv-x="1202" 
d="M580 -254v223q-119 4 -209.5 38t-145 91t-84 125t-35.5 148h101q12 -138 109 -221.5t264 -90.5v559l-33 9q-207 44 -289 128t-82 226t101.5 239t302.5 103v225h86v-227q86 -7 154 -32.5t111.5 -61.5t74.5 -84.5t46 -94.5t23 -98h-98q-52 252 -311 277v-527l28 -6
q114 -26 191.5 -63t119.5 -86.5t59 -103.5t17 -124q0 -135 -102.5 -234t-312.5 -112v-225h-86zM276 983q0 -109 69.5 -168t234.5 -96v512q-157 -6 -230.5 -72.5t-73.5 -175.5zM979 317q0 107 -70.5 176t-242.5 107v-539q158 10 235.5 78.5t77.5 177.5z" />
    <glyph glyph-name="cent.oldstyle" 
d="M567 -43v184q-198 17 -315 164t-117 340t117 340t315 164v184h86v-184q161 -13 268 -113t140 -254h-98q-31 118 -112.5 192.5t-197.5 86.5v-832q117 12 198 86t112 193h98q-33 -154 -140 -254.5t-268 -112.5v-184h-86zM236 645q0 -170 91.5 -285.5t239.5 -130.5v832
q-149 -17 -240 -132.5t-91 -283.5z" />
    <glyph glyph-name="sterling.oldstyle" horiz-adv-x="1136" 
d="M143 520v96h179q-34 68 -50 104.5t-32.5 98.5t-16.5 121q0 168 104.5 275.5t301.5 107.5q194 0 301.5 -113t107.5 -305l-2 -39h-98q2 19 2 35q0 152 -77 241t-234 89q-158 0 -234 -82.5t-76 -218.5q0 -69 26.5 -140t82.5 -174h379v-96h-338q18 -67 18 -127
q0 -152 -86 -248q76 -2 193.5 -45t198.5 -43q45 0 85 13.5t65 33t44 39.5t27 33l8 14l70 -49q-4 -7 -11.5 -19t-36.5 -42t-62.5 -52.5t-90.5 -41.5t-121 -19q-70 0 -139.5 22.5t-134.5 45t-123 22.5q-47 0 -94.5 -21t-70.5 -42l-24 -21l-49 66q47 51 125 82q133 107 133 272
q0 55 -26 127h-224z" />
    <glyph glyph-name="florin.oldstyle" horiz-adv-x="911" 
d="M496 678l-136 -688q-35 -177 -115 -257.5t-210 -80.5q-107 0 -174 57l49 74q56 -45 131 -45q91 0 142.5 59.5t80.5 206.5l133 674h-243l16 90h244l43 215q35 177 115 257.5t210 80.5q107 0 174 -57l-49 -74q-56 45 -131 45q-91 0 -142.5 -59.5t-80.5 -206.5l-39 -201h250
l-16 -90h-252z" />
    <glyph glyph-name="yen.oldstyle" horiz-adv-x="1038" 
d="M51 1323h111l354 -592h4l348 592h119l-416 -678h271v-90h-275v-164h275v-88h-275v-303h-98v303h-272v88h272v164h-272v90h266z" />
    <glyph glyph-name="zero.onumtab" horiz-adv-x="1130" 
d="M209 537q0 -133 38 -237t120 -168t198 -64q88 0 157 36.5t112 101t65.5 148.5t22.5 183t-22.5 183t-65.5 148.5t-112 101t-157 36.5q-116 0 -198 -64t-120 -168t-38 -237zM106 537q0 158 51 283.5t156.5 201.5t251.5 76t251.5 -76t156.5 -201.5t51 -283.5t-51 -283.5
t-156.5 -202t-251.5 -76.5t-251.5 76.5t-156.5 202t-51 283.5z" />
    <glyph glyph-name="one.onumtab" horiz-adv-x="1130" 
d="M1014 94v-94h-850v94h375v883h-334v72l358 24h76v-979h375z" />
    <glyph glyph-name="two.onumtab" horiz-adv-x="1130" 
d="M268 657h-102q-2 19 -2 33q0 191 104.5 299.5t292.5 108.5q184 0 283.5 -99.5t99.5 -250.5q0 -63 -20 -120.5t-51.5 -104t-85.5 -96.5t-106.5 -89t-129.5 -90l-236 -156h691v-92h-850v88l344 236q96 67 148 107.5t102.5 93.5t71 106t20.5 117q0 115 -75.5 186.5
t-205.5 71.5q-136 0 -215.5 -82t-79.5 -238z" />
    <glyph glyph-name="three.onumtab" horiz-adv-x="1130" 
d="M418 391v92h117q156 0 239.5 75t83.5 185q0 122 -75.5 191.5t-223.5 69.5q-132 0 -208.5 -73.5t-86.5 -182.5h-104q17 165 125 258.5t276 93.5q190 0 296 -98.5t106 -258.5q0 -95 -55 -178t-156 -123q120 -35 175.5 -117t55.5 -192q0 -173 -111 -280t-309 -107
q-94 0 -172.5 31t-131.5 85t-85 124.5t-41 152.5h105q15 -124 101.5 -212.5t223.5 -88.5q144 0 230 74.5t86 220.5q0 127 -89.5 192.5t-242.5 65.5h-129z" />
    <glyph glyph-name="four.onumtab" horiz-adv-x="1130" 
d="M1075 188v-92h-248v-317h-96v317h-668v92l664 883h100v-883h248zM178 188h553v732h-4z" />
    <glyph glyph-name="five.onumtab" horiz-adv-x="1130" 
d="M168 340l104 733h660v-92h-576l-65 -455q36 36 111 68.5t178 32.5q186 0 305 -121t119 -305q0 -189 -124.5 -320t-310.5 -131q-183 0 -300 105.5t-136 273.5h103q21 -122 104.5 -203.5t228.5 -81.5q144 0 238 98t94 259q0 148 -90.5 241t-241.5 93q-110 0 -195.5 -60.5
t-113.5 -134.5h-92z" />
    <glyph glyph-name="six.onumtab" horiz-adv-x="1130" 
d="M625 1292h149q-171 -129 -295 -264.5t-194 -304.5q43 50 114.5 84.5t167.5 34.5q191 0 310.5 -127.5t119.5 -313.5q0 -116 -54.5 -214t-156 -158t-227.5 -60q-132 0 -231.5 60.5t-151 161.5t-51.5 227q0 113 31.5 225t81 202.5t117.5 177.5t133 150t137 119zM895 401
q0 160 -93.5 254.5t-242.5 94.5q-150 0 -241 -96t-91 -253q0 -153 92.5 -247.5t239.5 -94.5t241.5 94.5t94.5 247.5z" />
    <glyph glyph-name="seven.onumtab" horiz-adv-x="1130" 
d="M82 1073h965v-84q-227 -281 -355 -574t-172 -634h-104q111 702 510 1196h-744v-180h-100v276z" />
    <glyph glyph-name="eight.onumtab" horiz-adv-x="1130" 
d="M565 59q163 0 246.5 76.5t83.5 208.5q0 128 -89.5 202.5t-240.5 74.5t-240 -74t-89 -203q0 -132 82.5 -208.5t246.5 -76.5zM565 707q142 0 219.5 73.5t77.5 190.5q0 118 -77 190t-220 72t-220 -72t-77 -190q0 -117 77.5 -190.5t219.5 -73.5zM565 -31q-108 0 -192 29
t-135.5 81t-78 119t-26.5 146q0 107 57.5 194.5t163.5 127.5q-88 43 -137 127.5t-49 177.5q0 71 25.5 134t74 112t125.5 77.5t172 28.5t172 -28.5t125 -77.5t73.5 -112t25.5 -134q0 -93 -49 -177.5t-138 -127.5q105 -40 164 -127.5t59 -194.5q0 -79 -26.5 -146t-78 -119
t-135.5 -81t-192 -29z" />
    <glyph glyph-name="nine.onumtab" horiz-adv-x="1130" 
d="M496 -225h-150q172 130 296 265t194 304q-43 -50 -115 -84.5t-168 -34.5q-191 0 -310.5 127.5t-119.5 313.5q0 116 54.5 214t156 158t227.5 60q132 0 231.5 -60.5t151 -161.5t51.5 -227q0 -113 -31.5 -225t-80.5 -203t-117 -177.5t-133 -149.5t-137 -119zM225 666
q0 -160 93.5 -254.5t242.5 -94.5q150 0 241 96t91 253q0 153 -92.5 247.5t-239.5 94.5t-241.5 -94.5t-94.5 -247.5z" />
    </font>
</defs>
</svg>
