<?xml version="1.0" standalone="no"?>
<!DOCTYPE svg PUBLIC "-//W3C//DTD SVG 1.1//EN" "http://www.w3.org/Graphics/SVG/1.1/DTD/svg11.dtd" >
<svg xmlns="http://www.w3.org/2000/svg" xmlns:xlink="http://www.w3.org/1999/xlink" version="1.1">
<metadata>
Created by FontForge 20170731 at Fri May 21 18:30:07 2021
 By Aleksey,,,
(c) 1985, 1987, 1989, 1990, 1993, 1997, 1998, 1999, 2002 Adobe Systems Incorporated. All rights reserved.
</metadata>
<defs>
<font id="TimesLTStd-Roman" horiz-adv-x="1024" >
  <font-face 
    font-family="Times LT Std"
    font-weight="400"
    font-stretch="normal"
    units-per-em="2048"
    panose-1="2 2 6 3 5 4 5 2 3 4"
    ascent="1399"
    descent="-649"
    x-height="922"
    cap-height="1356"
    bbox="-344 -446 2048 1839"
    underline-thickness="102"
    underline-position="-307"
    unicode-range="U+0020-FB02"
  />
<missing-glyph 
d="M0 0v1434h1024v-1434h-1024zM512 809l348 522h-696zM573 717l349 -522v1044zM164 102h696l-348 523zM102 1239v-1044l349 522z" />
    <glyph glyph-name="f_i" unicode="fi" horiz-adv-x="1138" 
d="M63 856v66h142q8 230 120.5 353.5t325.5 123.5q110 0 184 -37t74 -111q0 -31 -21 -53t-50 -22q-30 0 -53 17.5t-40 43t-35.5 51t-50 43t-73.5 17.5q-66 0 -117.5 -40t-73.5 -91q-12 -29 -17.5 -73t-5.5 -98t1 -124h321q119 0 232 20l8 -6q-4 -132 -4 -201v-536
q0 -100 27.5 -131t109.5 -37v-31h-451v31q35 2 58.5 6t39.5 14t24.5 20t13 32t5.5 41t1 55v540q0 62 -12.5 83t-61.5 28q-81 6 -309 6v-676q0 -30 1.5 -47t9 -38.5t22 -33t41.5 -20t67 -10.5v-31h-450v31q55 1 81.5 11.5t41 45t14.5 105.5v663h-140z" />
    <glyph glyph-name="f_l" unicode="fl" horiz-adv-x="1138" 
d="M66 856v66h145q0 90 15.5 164t38.5 122.5t55.5 85t63.5 56t66 31.5t58.5 15t46.5 3q56 0 100 -12.5t73.5 -25.5t49.5 -13q16 0 76.5 25t71.5 26l10 -4v-1229q0 -76 23 -103.5t108 -31.5v-31h-440v31q34 3 52.5 7t41 17.5t33 42.5t10.5 74v684h-385v-694q0 -41 9.5 -66.5
t32 -38.5t43.5 -17.5t60 -8.5v-31h-458v31q25 2 35.5 3t29 4.5t25.5 8.5t18.5 14t15.5 21.5t9 31.5t6.5 43.5t1.5 57.5v641h-141zM764 922v288q-14 -14 -31 -14q-35 0 -59.5 15t-39 37t-28 43.5t-36.5 36.5t-56 15q-51 0 -82 -40t-40.5 -101.5t-13 -136t0.5 -143.5h385z" />
    <glyph glyph-name=".notdef" 
d="M0 0v1434h1024v-1434h-1024zM512 809l348 522h-696zM573 717l349 -522v1044zM164 102h696l-348 523zM102 1239v-1044l349 522z" />
    <glyph glyph-name=".null" horiz-adv-x="0" 
 />
    <glyph glyph-name="nonmarkingreturn" horiz-adv-x="682" 
 />
    <glyph glyph-name="space" unicode=" " horiz-adv-x="512" 
 />
    <glyph glyph-name="exclam" unicode="!" horiz-adv-x="681" 
d="M387 360h-27l-18 222q-5 60 -40.5 319.5t-35.5 310.5q0 71 25 121.5t82 50.5q134 0 106 -239zM375 -18q-40 0 -74.5 25.5t-34.5 78.5q0 47 32 79t77 32q47 0 79.5 -33t32.5 -78q0 -51 -34.5 -77.5t-77.5 -26.5z" />
    <glyph glyph-name="quotedbl" unicode="&#x22;" horiz-adv-x="835" 
d="M612 883h-43q-65 367 -65 417q0 39 27 61.5t61 22.5q32 0 59 -22.5t27 -61.5q0 -44 -66 -417zM266 883h-43q-65 367 -65 417q0 39 27 61.5t61 22.5q32 0 59 -22.5t27 -61.5q0 -44 -66 -417z" />
    <glyph glyph-name="numbersign" unicode="#" 
d="M965 555v-113h-224l-63 -442h-119l64 442h-275l-67 -442h-119l67 442h-219v113h238l43 274h-225v113h241l64 414h118l-63 -414h272l62 414h119l-62 -414h199v-113h-215l-41 -274h205zM682 829h-272l-43 -274h274z" />
    <glyph glyph-name="dollar" unicode="$" 
d="M870 1024h-30q-48 252 -299 281v-504q188 -108 248 -154q106 -82 134 -182q13 -48 13 -109q0 -303 -395 -356v-178h-70v178q-218 0 -381 104v267h31q68 -314 350 -314v578q-57 32 -92.5 53.5t-83.5 54t-77 62.5t-57.5 68t-41.5 81.5t-13 92.5q0 56 21 108t63.5 96.5
t114.5 73.5t166 35v129h70v-129q71 -9 112.5 -16t108.5 -31.5t108 -61.5v-227zM469 834v471q-56 -9 -98 -31t-62.5 -45.5t-33 -53.5t-15 -48t-2.5 -37q0 -39 14 -73t46.5 -66.5t64 -56t86.5 -60.5zM541 600v-543q21 4 35 7t40.5 12t45 19.5t41.5 30.5t37 44t24 60t10 79
q0 42 -13 79t-30.5 62.5t-53 55t-61.5 46.5t-75 48z" />
    <glyph glyph-name="percent" unicode="%" horiz-adv-x="1705" 
d="M1358 760q28 0 52 -3t58 -16t56.5 -35.5t39.5 -66.5t17 -104q0 -86 -30 -179.5t-81.5 -173t-130.5 -131t-168 -51.5q-68 0 -118.5 23.5t-78.5 64.5t-41 89t-13 104q0 108 61.5 219t165 185.5t211.5 74.5zM1384 694q-56 0 -108 -41.5t-87 -102t-62 -128.5t-39.5 -122.5
t-12.5 -82.5q0 -156 131 -156q64 0 125 47t103 117t68 149.5t26 145.5q0 75 -41 124.5t-103 49.5zM1298 1384l-788 -1411h-98l714 1274l-4 4q-30 -17 -53 -27.5t-66.5 -20t-95.5 -9.5q-83 0 -135 20q14 -51 14 -92q0 -82 -29.5 -173t-81.5 -171.5t-134 -133t-176 -52.5
q-37 0 -76.5 15t-77.5 45.5t-62 87.5t-24 130q0 77 35.5 162.5t93.5 157.5t141 119t170 47q44 0 76 -9t45 -18t35 -29q21 -18 37 -27.5t53 -18.5t86 -9q61 0 111.5 11.5t91.5 36.5t63 42t56 49h79zM408 662q80 0 156.5 69.5t123.5 179.5t47 222q0 37 -18 96q-43 11 -70.5 24
t-35 21.5t-15.5 14t-21 5.5q-64 0 -134.5 -85t-115 -198t-44.5 -198q0 -81 32 -116t95 -35z" />
    <glyph glyph-name="ampersand" unicode="&#x26;" horiz-adv-x="1593" 
d="M575 1141q0 -121 82 -289q240 127 240 295q0 75 -47.5 123.5t-114.5 48.5q-69 0 -114.5 -44t-45.5 -134zM1456 872v-43q-36 -5 -54.5 -9t-46 -16t-49.5 -35t-42 -60l-54 -95q-59 -103 -84.5 -141.5t-119.5 -165.5q10 -15 35 -42t65 -62t95 -59.5t108 -24.5q50 0 88 16
t58 35t50 57l31 -22q-2 -7 -12 -27.5t-35.5 -57t-59 -68.5t-87.5 -55.5t-115 -23.5q-58 0 -113.5 19t-103 53.5t-73 57.5t-58.5 57q-36 -31 -56.5 -48t-68 -47.5t-89.5 -47.5t-106.5 -30.5t-134.5 -13.5q-42 0 -83.5 7.5t-89 29t-83 56t-59 93.5t-23.5 136q0 246 322 432
l77 45q-30 82 -40.5 114t-20.5 81t-10 96q0 57 20.5 112.5t58 103t99 76.5t135.5 29q118 0 198.5 -66t80.5 -179q0 -42 -11.5 -80t-28 -67t-45 -57.5t-52.5 -47t-61 -40t-60.5 -33t-59.5 -28.5q119 -237 270 -421q35 47 56 76.5t57.5 87.5t55 110t18.5 96q0 53 -31.5 71
t-99.5 23v43h442zM274 369q0 -119 78 -204t187 -85q130 0 288 133q-148 177 -311 489q-29 -19 -43 -28t-44.5 -32t-47.5 -40t-40 -45t-35.5 -54t-22 -61.5t-9.5 -72.5z" />
    <glyph glyph-name="quotesingle" unicode="'" horiz-adv-x="368" 
d="M207 883h-43q-66 373 -66 417q0 39 27 61.5t61 22.5q32 0 59 -22.5t27 -61.5q0 -50 -65 -417z" />
    <glyph glyph-name="parenleft" unicode="(" horiz-adv-x="681" 
d="M604 1384l19 -32q-43 -35 -68 -56t-67 -64.5t-67 -82.5t-56.5 -102t-49 -131.5t-29.5 -162.5t-12 -202q0 -64 1 -104.5t7.5 -121.5t19 -140t38 -139t61.5 -141.5t93 -125t129 -109.5l-25 -32q-84 45 -176.5 136.5t-155.5 184.5q-85 124 -126.5 252.5t-41.5 325.5
q0 262 133.5 483.5t372.5 363.5z" />
    <glyph glyph-name="parenright" unicode=")" horiz-adv-x="681" 
d="M78 -362l-19 32q43 35 68 56t67 64.5t67 82.5t56.5 102t49 131.5t29.5 162.5t12 202q0 64 -1 104.5t-7.5 121.5t-19 140t-38 139t-61.5 141.5t-93 125t-129 109.5l25 32q84 -45 176.5 -136.5t155.5 -184.5q85 -124 126.5 -252.5t41.5 -325.5q0 -262 -133.5 -483.5
t-372.5 -363.5z" />
    <glyph glyph-name="asterisk" unicode="*" 
d="M141 784q0 44 30 66t73 28t111 27.5t124 59.5l-22 14q-44 28 -106.5 45.5t-105 24t-73.5 29t-31 63.5q0 19 16 44t52 25q26 0 45.5 -12t39 -34t41.5 -48t64 -59.5t95 -61.5v27q0 71 -13 122.5t-26 88.5t-13 72q0 23 7 39t15.5 23.5t21.5 11.5t18.5 4.5t13.5 0.5
q35 0 52.5 -26t17.5 -53q0 -21 -28 -111.5t-28 -149.5v-53l15 8q44 25 86 65t67 71.5t54 55t55 23.5q25 0 49.5 -17.5t24.5 -55.5q0 -37 -13.5 -55.5t-44 -26t-67 -13.5t-94.5 -26.5t-115 -56.5l16 -11q53 -33 118.5 -51.5t105.5 -23t68 -24.5t28 -62q0 -35 -21.5 -54.5
t-52.5 -19.5q-25 0 -49 16.5t-46.5 43t-46 54t-55.5 55.5t-67 42l-15 6v-14q0 -69 9 -122t20 -77.5t20 -48.5t9 -43q0 -32 -22 -59t-58 -27q-28 0 -50 22t-22 58q0 23 18 73.5t32 110t6 113.5l-2 14q-79 -54 -98.5 -69.5t-57.5 -57.5q-54 -60 -72.5 -74t-52.5 -14
q-35 0 -52.5 21t-17.5 44z" />
    <glyph glyph-name="plus" unicode="+" horiz-adv-x="1155" 
d="M510 586v450h135v-450h449v-135h-449v-451h-135v451h-449v135h449z" />
    <glyph glyph-name="comma" unicode="," horiz-adv-x="512" 
d="M170 -289l-18 39q48 30 82.5 64t52 63t25 51t7.5 39q0 13 -8.5 21t-19.5 8q-3 0 -19 -4q-12 -4 -30 -4q-50 0 -88.5 23.5t-38.5 78.5q0 60 36.5 89.5t81.5 29.5q17 0 35.5 -4t43 -17t43 -33t31.5 -57.5t13 -85.5q0 -51 -27 -105t-65 -93.5t-75 -67t-62 -35.5z" />
    <glyph glyph-name="hyphen" unicode="-" horiz-adv-x="681" 
d="M80 526h504v-129h-504v129z" />
    <glyph glyph-name="period" unicode="." horiz-adv-x="512" 
d="M256 -23q-39 0 -76 29t-37 82q0 49 33.5 83t79.5 34t80.5 -35t34.5 -82q0 -52 -38 -81.5t-77 -29.5z" />
    <glyph glyph-name="slash" unicode="/" horiz-adv-x="569" 
d="M588 1384l-467 -1413h-139l469 1413h137z" />
    <glyph glyph-name="zero" unicode="0" 
d="M512 1331q-47 0 -86.5 -21.5t-66 -62t-47 -86t-32 -106t-19 -109t-10.5 -108.5t-4 -91t-1 -69q0 -653 266 -653t266 653q0 38 -1 69t-4 91t-10.5 108.5t-19 109t-32 106t-47 86t-66 62t-86.5 21.5zM512 1384q78 0 144 -26.5t112.5 -70.5t83.5 -104.5t59.5 -124.5
t37.5 -134.5t20.5 -130t5.5 -115.5q0 -68 -8.5 -139t-27.5 -153.5t-54.5 -154.5t-84.5 -131.5t-123.5 -94t-164.5 -34.5t-164.5 34.5t-123.5 94t-84.5 131.5t-54.5 154.5t-27.5 153.5t-8.5 139q0 56 5.5 115.5t20.5 130t37.5 134.5t59.5 124.5t83.5 104.5t112.5 70.5
t144 26.5z" />
    <glyph glyph-name="one" unicode="1" 
d="M242 0v31q33 1 49 2t41 4.5t37 10t27.5 17.5t22.5 27.5t12 41t5 56.5v928q0 23 -1 34.5t-7 28.5t-21 25t-40 8q-19 0 -36.5 -5.5t-103.5 -39.5v29l369 186l16 -4v-1228q0 -73 39.5 -97t155.5 -24v-31h-565z" />
    <glyph glyph-name="two" unicode="2" 
d="M973 281l-113 -281h-799v25l365 387q132 141 199 276t67 252q0 35 -7 70.5t-27 77t-51 72.5t-85 52t-123 21q-39 0 -73 -9.5t-58.5 -23t-48 -38t-37.5 -43.5t-31 -51.5t-24.5 -50t-20.5 -50.5l-43 10q22 111 67.5 193t106 127t125.5 66t136 21q70 0 136.5 -26t118.5 -72
t83.5 -116.5t31.5 -153.5q0 -76 -26 -152.5t-74 -146.5t-81 -109.5t-81 -91.5l-344 -360h490q44 0 68 6.5t55.5 36t70.5 92.5z" />
    <glyph glyph-name="three" unicode="3" 
d="M313 676l-2 26q340 108 340 347q0 86 -59 149.5t-166 63.5q-53 0 -100.5 -18.5t-77.5 -40.5t-59 -58.5t-40 -54.5t-26 -46l-31 9q29 96 77 164t104.5 102.5t110 49.5t110.5 15q75 0 134 -21t92.5 -51.5t55.5 -70t29.5 -72t7.5 -61.5q0 -84 -45 -153t-145 -134
q28 -12 42.5 -18.5t46 -25t50.5 -36t45 -48.5t40.5 -64.5t25 -82t10.5 -104.5q0 -142 -75 -250t-203.5 -164.5t-289.5 -56.5q-27 0 -57.5 4t-73 14.5t-69.5 36t-27 62.5q0 38 24.5 55t55.5 17t68.5 -18t68 -39.5t73 -39.5t83.5 -18q55 0 101 18t77.5 48.5t53.5 71t32 85.5
t10 92q0 24 -6.5 55.5t-21.5 72.5t-48 80t-79 63q-56 30 -109.5 39t-157.5 6z" />
    <glyph glyph-name="four" unicode="4" 
d="M967 473v-131h-209v-342h-158v342h-575v131l643 911h90v-911h209zM598 473v696h-4l-488 -696h492z" />
    <glyph glyph-name="five" unicode="5" 
d="M371 1194l-86 -174q82 -15 130.5 -26t120.5 -34.5t127.5 -61t98.5 -89.5q67 -81 88.5 -147t21.5 -201q0 -101 -40.5 -191t-111.5 -156t-174 -104.5t-222 -38.5q-120 0 -189 33.5t-69 89.5q0 13 1.5 22t8 24.5t24.5 24.5t47 9q44 0 86 -20t70 -43.5t66 -43.5t75 -20
q52 0 101 22.5t91 65.5t67.5 115t25.5 162q0 94 -40 169.5t-101.5 122t-142 79t-154 45.5t-146.5 16q-9 0 -12.5 8t0.5 18l223 486h428q36 0 55 12.5t40 40.5l18 -14l-78 -183q-3 -8 -10.5 -12.5t-14.5 -5t-22 -0.5h-401z" />
    <glyph glyph-name="six" unicode="6" 
d="M913 1401l5 -33q-132 -21 -242.5 -80t-184 -140.5t-119.5 -174t-61 -189.5q95 57 143 75t128 18q167 0 271.5 -115t104.5 -316q0 -52 -10 -108t-39.5 -123.5t-76 -120t-127.5 -88t-185 -35.5q-93 0 -173 38t-142.5 112.5t-98.5 196.5t-36 278q0 155 62.5 299t172 253.5
t268.5 178t340 74.5zM496 782q-127 0 -195 -65q-41 -41 -41 -193q0 -244 83 -369.5t208 -125.5q101 0 162 85.5t61 252.5q0 85 -13.5 155t-43.5 130.5t-86.5 95t-134.5 34.5z" />
    <glyph glyph-name="seven" unicode="7" 
d="M920 1356v-33l-435 -1339h-133l406 1220h-445q-28 0 -52 -4.5t-41 -9.5t-35 -19t-28.5 -22.5t-27.5 -32t-25 -35t-28 -43.5l-35 17l88 211l33 90h758z" />
    <glyph glyph-name="eight" unicode="8" 
d="M434 639q-34 -27 -55 -48t-50 -60.5t-44 -92.5t-15 -119q0 -123 70 -206.5t190 -83.5q99 0 162.5 62t63.5 167q0 29 -3 52.5t-15 48t-21 42t-34.5 42.5t-42 41t-57.5 47t-66.5 49t-82.5 59zM115 299q0 38 6 70.5t14 58t28.5 53.5t35.5 46t50.5 48.5t58.5 48.5t73 56
q-46 41 -61.5 54.5t-50 46t-45.5 46t-33.5 41t-29.5 45t-17.5 44.5t-13.5 53t-3 57q0 74 35 136t91 100.5t122.5 59.5t134.5 21q167 0 262.5 -83.5t95.5 -206.5q0 -39 -10 -75t-24 -63t-39.5 -54t-45.5 -44.5t-53 -38.5t-51 -31.5t-51 -27.5q100 -72 164.5 -133.5t97 -116.5
t44 -100.5t11.5 -102.5q0 -30 -7 -62t-22.5 -71.5t-46.5 -74.5t-74 -64.5t-109.5 -46.5t-147.5 -17q-92 0 -167.5 28.5t-123 75.5t-73 105t-25.5 119zM279 1120q0 -45 21 -91t46.5 -78t67.5 -67t64.5 -50.5t56.5 -36.5q32 21 51 34.5t49.5 43t47.5 58.5t30.5 74t13.5 97
q0 93 -59 158t-170 65q-107 0 -163 -62t-56 -145z" />
    <glyph glyph-name="nine" unicode="9" 
d="M121 -45l-6 41q102 17 190 57t148 87.5t110.5 110t79 112t51 106t29.5 80t12 45.5l-4 4q-134 -113 -301 -113q-79 0 -143.5 26.5t-105.5 68t-69 96t-39.5 108.5t-11.5 107q0 137 51.5 248.5t151 178t228.5 66.5q192 0 320 -160t128 -413q0 -164 -55.5 -312.5t-158 -265.5
t-259 -191.5t-346.5 -86.5zM741 727v80q0 520 -272 520q-62 0 -106.5 -31.5t-68 -85.5t-34 -113.5t-10.5 -127.5q0 -52 6 -101.5t24 -104.5t46 -96t76 -67.5t110 -26.5q48 0 105 22t92 50q32 24 32 82z" />
    <glyph glyph-name="colon" unicode=":" horiz-adv-x="569" 
d="M279 713q-39 0 -76 28.5t-37 81.5q0 49 33.5 83t79.5 34t80 -35t34 -82q0 -52 -37.5 -81t-76.5 -29zM279 -23q-39 0 -76 29t-37 82q0 49 33.5 83t79.5 34t80 -35t34 -82q0 -52 -37.5 -81.5t-76.5 -29.5z" />
    <glyph glyph-name="semicolon" unicode=";" horiz-adv-x="569" 
d="M219 -289l-18 39q62 40 102.5 86t53 76.5t12.5 54.5q0 13 -9 21t-20 8q-2 0 -18 -4q-12 -4 -31 -4q-55 0 -91 24.5t-36 77.5q0 32 10.5 55.5t25 35.5t33.5 18.5t30.5 8t21.5 1.5q16 0 34 -3.5t42 -16.5t43 -33t32 -57.5t13 -86.5q0 -50 -26 -103t-64 -92.5t-75.5 -67.5
t-64.5 -38zM279 713q-39 0 -76 28.5t-37 81.5q0 49 33.5 83t79.5 34t80 -35t34 -82q0 -52 -37.5 -81t-76.5 -29z" />
    <glyph glyph-name="less" unicode="&#x3c;" horiz-adv-x="1155" 
d="M1098 123v-139l-1041 471v127l1041 471v-140l-871 -395z" />
    <glyph glyph-name="equal" unicode="=" horiz-adv-x="1155" 
d="M1094 791v-136h-1033v136h1033zM1094 381v-135h-1033v135h1033z" />
    <glyph glyph-name="greater" unicode="&#x3e;" horiz-adv-x="1155" 
d="M57 123l871 395l-871 395v140l1041 -471v-127l-1041 -471v139z" />
    <glyph glyph-name="question" unicode="?" horiz-adv-x="909" 
d="M500 336h-35q0 78 21.5 163.5t39.5 127.5l58 131q29 64 52 155t23 150q0 48 -13.5 93t-39.5 83t-70.5 61t-101.5 23q-67 0 -128.5 -38t-61.5 -87q0 -22 19.5 -45.5t39 -50.5t19.5 -58t-20.5 -57t-59.5 -26q-103 0 -103 129q0 74 32 132.5t82.5 92.5t107 51.5t112.5 17.5
q85 0 174 -36t127 -82q42 -52 58 -98t16 -124q0 -70 -48.5 -161t-105.5 -158q-91 -105 -132 -184t-62 -205zM485 -16q-40 0 -74 25.5t-34 78.5q0 47 31.5 79t76.5 32q47 0 80 -33t33 -78q0 -51 -35 -77.5t-78 -26.5z" />
    <glyph glyph-name="at" unicode="@" horiz-adv-x="1886" 
d="M1171 817q0 133 -88 133q-38 0 -85 -27.5t-91.5 -76t-74 -126t-29.5 -165.5t35.5 -130t93.5 -42q73 0 146.5 116.5t92.5 317.5zM1409 150l25 -62q-122 -56 -221 -86.5t-207 -30.5q-154 0 -284.5 44t-217.5 114.5t-149 160t-89.5 180t-27.5 175.5q0 162 60 301.5
t161.5 234.5t238 149t287.5 54q186 0 340 -78t243 -217t89 -309q0 -80 -26 -164.5t-72.5 -157t-121 -119t-161.5 -46.5q-47 0 -85 18.5t-58 44t-30 48t-9 34.5h-4q-25 -40 -91 -87.5t-145 -55.5q-21 -1 -43 3t-51 19.5t-50.5 41.5t-37 75t-15.5 115q0 45 15 106t48 129
t79 124.5t114.5 94t147.5 37.5q14 0 26.5 -2t22 -4t19.5 -8t15.5 -8.5t14 -12.5t11.5 -12.5t10.5 -14.5t8.5 -13.5t9 -16.5l8 -14l21 78h141l-133 -520q-3 -17 -3.5 -34.5t3.5 -42t23 -40t51 -15.5q59 0 111 40.5t85 103t51.5 135t18.5 139.5q0 71 -25 146t-75.5 146
t-119.5 127t-165.5 90t-204.5 34q-119 0 -222.5 -45.5t-182.5 -131t-124.5 -219.5t-45.5 -300q0 -110 43.5 -213.5t119.5 -183.5t188.5 -128.5t242.5 -48.5q86 0 163 15.5t122.5 32.5t119.5 51z" />
    <glyph glyph-name="A" unicode="A" horiz-adv-x="1478" 
d="M1446 39v-39h-522v39q29 0 45 1t37.5 5t32.5 12t19.5 23t8.5 37q0 35 -39 129l-84 196h-536l-95 -239q-16 -43 -16 -78q0 -21 7 -36.5t20 -24.5t25.5 -14.5t31.5 -7.5t29 -2.5t26 -0.5v-39h-405v39q65 4 104 45q45 49 150 291l426 1005h41l510 -1163q49 -111 82 -142
t102 -36zM442 526h473l-237 564z" />
    <glyph glyph-name="B" unicode="B" horiz-adv-x="1366" 
d="M35 1317v39h573q45 0 86.5 -2.5t97.5 -11t102.5 -22.5t94.5 -40.5t81 -62t54 -89t21 -118.5q0 -47 -11 -86.5t-26.5 -67t-42 -51t-47 -36.5t-53 -25.5t-49 -17t-44.5 -11.5v-4q56 -12 104 -30t93 -47.5t76.5 -67.5t50 -90.5t18.5 -115.5q0 -21 -3.5 -45t-15.5 -60.5
t-32 -69.5t-58 -67.5t-88.5 -60t-127 -41.5t-170.5 -16h-684v39q66 2 103.5 9.5t59 30t27.5 54.5t6 90v910q0 113 -34.5 145.5t-161.5 38.5zM440 668v-508q0 -55 31 -69.5t125 -14.5q35 0 64.5 1.5t70.5 8.5t73 19t66 34t57 52t37.5 75.5t14.5 102.5q0 204 -207 268
q-58 17 -126 24t-206 7zM440 1219v-471l195 2q19 0 35 0.5t49 5.5t59 14t57 27.5t52 43.5t35 65.5t14 90.5q0 70 -24 123t-59.5 82.5t-86 48t-95 24t-93.5 5.5q-24 0 -55 -1t-38 -1q-28 0 -36.5 -15.5t-8.5 -43.5z" />
    <glyph glyph-name="C" unicode="C" horiz-adv-x="1366" 
d="M1270 924h-47q-41 171 -155.5 275t-295.5 104q-80 0 -162.5 -32t-144.5 -93q-75 -73 -122.5 -189t-47.5 -315q0 -126 27.5 -230t74.5 -174t112 -118t137 -69.5t151 -21.5q72 0 140 17t113 37t93.5 55t67.5 52t49 46l36 -37q-1 -3 -11 -16t-34 -37.5t-55.5 -50.5
t-79 -54.5t-101 -50.5t-125.5 -36.5t-149 -14.5q-102 0 -198 24t-185 78.5t-155.5 134.5t-106 201t-39.5 269q0 134 38.5 249.5t105.5 198t155.5 141.5t190 88t207.5 29q80 0 159.5 -17t132.5 -33.5t68 -16.5q78 0 94 67h43z" />
    <glyph glyph-name="D" unicode="D" horiz-adv-x="1478" 
d="M33 0v39q61 3 94.5 11.5t53.5 30.5t26 53.5t6 88.5v910q0 61 -5 92t-26.5 52t-53 28t-95.5 12v39h553q186 0 335.5 -42.5t257.5 -126t166 -214t58 -299.5q0 -62 -10.5 -123.5t-36.5 -129t-65.5 -127t-103 -114.5t-143 -94t-190 -62.5t-240.5 -23.5h-581zM422 1200v-1040
q0 -52 24.5 -68t98.5 -16q45 0 77.5 1.5t104 13t124.5 32t119 65t108.5 105.5t72 159t29.5 220q0 293 -191 465q-81 72 -185 107.5t-286 35.5q-34 0 -55 -6t-29 -19.5t-10 -24t-2 -30.5z" />
    <glyph glyph-name="E" unicode="E" horiz-adv-x="1251" 
d="M1223 346l-93 -346h-1105v39q44 3 69.5 7.5t49 15.5t35 30.5t18 51t6.5 79.5v910q0 60 -8.5 95.5t-33.5 54t-52.5 24.5t-83.5 10v39h1087l6 -293h-51q-23 136 -81.5 175.5t-229.5 39.5h-277q-20 0 -29 -1t-20 -7.5t-14.5 -21t-3.5 -40.5v-454h315q46 0 78.5 4t56 14.5
t37.5 23.5t24.5 38t16 49t12.5 65h47v-475h-47q-13 86 -33 124.5t-62 54t-130 16.5l-315 4v-508q0 -64 39 -75t266 -11q192 0 286.5 56.5t161.5 211.5h58z" />
    <glyph glyph-name="F" unicode="F" horiz-adv-x="1138" 
d="M981 473h-47q-9 65 -22.5 102.5t-42 58.5t-63 27t-97.5 7l-297 4v-449q0 -59 8 -93t31.5 -54t56 -27.5t90.5 -9.5v-39h-573v39q115 6 146.5 43t31.5 164v887q0 60 -8.5 95.5t-33.5 54t-52.5 24.5t-83.5 10v39h1087l6 -293h-51q-23 136 -81.5 175.5t-229.5 39.5h-279
q-39 0 -52 -13t-13 -57v-454h297q124 0 167 38.5t58 155.5h47v-475z" />
    <glyph glyph-name="G" unicode="G" horiz-adv-x="1478" 
d="M1452 725v-37q-29 -3 -42.5 -4.5t-34 -7.5t-29.5 -16t-19.5 -26.5t-14 -42t-3.5 -61.5v-411q0 -16 -75.5 -50.5t-197.5 -66t-225 -31.5q-165 0 -318.5 53.5t-256.5 165.5q-89 97 -129.5 207.5t-40.5 300.5q0 103 30.5 203t91.5 187t144 153.5t195 104.5t239 38
q90 0 167 -17t126.5 -33.5t73.5 -16.5q12 0 29.5 4t39.5 20.5t27 42.5h45l16 -432h-47q-19 52 -40 94t-59 92.5t-83 84t-114.5 57t-151.5 23.5q-44 0 -89 -8.5t-94.5 -29.5t-93.5 -53.5t-85 -84t-70 -117t-46.5 -157t-17.5 -198.5q0 -276 145.5 -439t384.5 -163
q110 0 195.5 34t85.5 87v332q0 26 -1 46t-5 37t-6.5 29.5t-11.5 22.5t-13.5 16t-19.5 11.5t-22.5 8t-28.5 5t-32.5 3.5t-39.5 3v37h522z" />
    <glyph glyph-name="H" unicode="H" horiz-adv-x="1478" 
d="M39 0v39q52 2 84.5 10.5t52.5 20.5t29 40t11.5 55.5t2.5 80.5v887q0 60 -6 92t-28 52.5t-53 27.5t-93 12v39h569v-39q-62 -5 -94.5 -13t-53.5 -29.5t-26.5 -52.5t-5.5 -89v-398h621v398q0 59 -6 91.5t-28 53t-53.5 27.5t-93.5 12v39h570v-39q-117 -9 -149 -42t-32 -142
v-910q0 -55 5.5 -85t25 -53t54.5 -32.5t96 -13.5v-39h-570v39q44 2 73.5 7t50 16.5t31.5 24.5t17 39.5t7.5 51t1.5 68.5v399h-621v-422q0 -55 5.5 -85t24.5 -53t54 -32.5t96 -13.5v-39h-569z" />
    <glyph glyph-name="I" unicode="I" horiz-adv-x="681" 
d="M37 0v39q67 2 104.5 9.5t59.5 30t28.5 54.5t6.5 90v910q0 60 -6.5 92t-30 53.5t-59 28.5t-103.5 10v39h608v-39q-42 -2 -67.5 -4.5t-51 -9.5t-38.5 -18.5t-24.5 -32t-15.5 -49.5t-4 -70v-910q0 -61 9 -96t35.5 -54.5t60.5 -25.5t96 -8v-39h-608z" />
    <glyph glyph-name="J" unicode="J" horiz-adv-x="796" 
d="M569 1133v-758q0 -81 -16.5 -147t-41.5 -107t-60.5 -71.5t-66 -45t-67.5 -22.5t-55 -9.5t-37 -1.5q-111 0 -159 52q-46 52 -46 98q0 33 27 66.5t68 33.5q39 0 63 -17.5t33.5 -43t16.5 -51t19.5 -43t33.5 -17.5q39 0 59 30t20 105v949q0 58 -6 89t-27.5 53t-56.5 30
t-100 12v39h588v-39q-64 -4 -97.5 -11t-56 -28t-29 -53t-6.5 -92z" />
    <glyph glyph-name="K" unicode="K" horiz-adv-x="1478" 
d="M846 1317v39h536v-39q-101 -8 -155 -33.5t-156 -126.5l-389 -385l477 -512q61 -68 92 -99.5t73 -65.5t78 -45.5t79 -10.5v-39h-625v39q90 3 116.5 11t26.5 40q0 41 -91.5 151t-174.5 193l-217 215l-53 -43v-383q0 -57 6 -88.5t26.5 -53.5t55 -30.5t96.5 -11.5v-39h-577
v39q119 6 151.5 43t32.5 164v887q0 60 -8 94.5t-33 53.5t-54.5 25.5t-88.5 10.5v39h581v-39q-64 -4 -97.5 -11t-56 -28t-28.5 -53t-6 -92v-420q360 323 441 406t81 134q0 39 -28.5 50t-110.5 14z" />
    <glyph glyph-name="L" unicode="L" horiz-adv-x="1251" 
d="M602 1356v-39q-59 -3 -89.5 -9t-56.5 -25t-35 -54t-9 -96v-969q0 -59 35.5 -71.5t170.5 -12.5q68 0 108 1t91.5 4.5t81.5 11t67.5 21t62 33.5t52 49t49.5 67.5t44 88.5h51l-99 -356h-1101v39q44 3 69.5 7.5t49 15.5t35 30.5t18 51t6.5 79.5v910q0 60 -8.5 95.5t-33.5 54
t-52.5 24.5t-83.5 10v39h577z" />
    <glyph glyph-name="M" unicode="M" horiz-adv-x="1820" 
d="M1767 1356v-39q-56 -4 -83.5 -10t-52.5 -24.5t-33.5 -54t-8.5 -95.5v-910q0 -48 6.5 -79.5t18 -51t35 -30.5t49 -15.5t69.5 -7.5v-39h-573v39q120 6 153 43.5t33 163.5v919h-4l-520 -1165h-29l-510 1118h-4v-817q0 -107 18 -161.5t57.5 -76t117.5 -24.5v-39h-481v39
q63 4 97.5 14t59.5 38.5t33 76.5t8 133v832q0 41 -3.5 69t-13.5 48t-22.5 32t-37 19.5t-50 10.5t-67.5 5v39h405l473 -1034l453 1034h407z" />
    <glyph glyph-name="N" unicode="N" horiz-adv-x="1478" 
d="M1448 1356v-39q-31 -3 -46 -5.5t-38.5 -7.5t-34.5 -12.5t-26.5 -20.5t-22.5 -31.5t-14.5 -44.5t-10 -60.5t-2.5 -79.5v-1078h-34l-902 1123h-4v-799q0 -107 18 -161.5t57.5 -76t117.5 -24.5v-39h-481v39q63 4 97.5 14t59.5 38.5t33 76.5t8 133v903q-61 74 -97.5 93.5
t-100.5 19.5v39h350l784 -985h4v684q0 59 -4.5 100.5t-16 70t-24.5 45t-39 26.5t-49 13.5t-63 6.5v39h481z" />
    <glyph glyph-name="O" unicode="O" horiz-adv-x="1478" 
d="M739 -29q-139 0 -261 49.5t-212.5 139t-143 223t-52.5 293.5q0 170 57 308t152 223.5t213 131t247 45.5t247 -45.5t213.5 -131t152.5 -223.5t57 -308q0 -160 -52.5 -293.5t-143.5 -223t-213 -139t-261 -49.5zM739 45q88 0 164.5 36.5t138.5 110t98 198.5t36 288
q0 135 -25.5 244.5t-68 180.5t-99.5 119t-118 68.5t-126 20.5t-125.5 -20.5t-118 -68.5t-99.5 -119t-67.5 -180.5t-25.5 -244.5q0 -131 23.5 -238.5t64.5 -179.5t97 -121.5t118.5 -71.5t132.5 -22z" />
    <glyph glyph-name="P" unicode="P" horiz-adv-x="1138" 
d="M33 1317v39h540q109 0 203.5 -21.5t170.5 -65t119.5 -116t43.5 -166.5q0 -56 -13 -104t-37.5 -83.5t-38.5 -52t-36 -36.5q-66 -63 -169.5 -92t-264.5 -29q-63 0 -137 6v-373q0 -112 36.5 -146.5t155.5 -37.5v-39h-573v39q37 3 63.5 8.5t45.5 11.5t31 21t18.5 26t9.5 37.5
t3.5 44.5t0.5 58v887q0 109 -30 141.5t-142 42.5zM414 1210v-532q58 -6 123 -6q19 0 32 0.5t42 3t50.5 8t52 16t53 25.5t46.5 39t39 54t25 72.5t10 92.5q0 53 -12.5 97t-36 73.5t-50 52t-62.5 36t-64.5 22t-65 11.5t-55.5 4t-43 1q-51 0 -67.5 -11t-16.5 -59z" />
    <glyph glyph-name="Q" unicode="Q" horiz-adv-x="1478" 
d="M1436 -326v-36q-43 -3 -97 -3q-220 0 -403 60t-297 190l-96 113q-62 17 -122.5 48t-125.5 87.5t-113.5 129.5t-80 180.5t-31.5 232.5q0 170 57 307.5t152 223.5t213.5 131.5t246.5 45.5q129 0 247 -45.5t213.5 -131t152.5 -223.5t57 -308q0 -109 -24 -205.5t-66 -168.5
t-95.5 -130t-114.5 -96t-120.5 -60.5t-116.5 -29.5q12 -24 70.5 -83.5t91.5 -86.5q82 -65 177 -102t225 -40zM739 1311q-65 0 -125.5 -20.5t-118 -68.5t-99.5 -119.5t-67.5 -181t-25.5 -245.5q0 -131 23.5 -237.5t64.5 -179t97 -121.5t118.5 -71t132.5 -22q88 0 164.5 36.5
t138.5 109.5t98 197.5t36 287.5q0 136 -25.5 245.5t-68 181t-99.5 119.5t-118 68.5t-126 20.5z" />
    <glyph glyph-name="R" unicode="R" horiz-adv-x="1366" 
d="M1350 39v-39h-330l-488 631l-114 -4v-404q0 -56 5.5 -86t25 -53.5t55 -32.5t98.5 -12v-39h-567v39q51 3 82 11.5t50.5 20.5t28 39.5t11 55t2.5 80.5v887q0 59 -6 91t-28 52.5t-51.5 27.5t-88.5 13v39h565q44 0 86.5 -3t96 -13t99 -26t90.5 -43.5t77 -64t51.5 -90.5
t19.5 -119q0 -56 -16 -104t-38.5 -80.5t-59.5 -59.5t-66 -42.5t-72 -28.5t-63.5 -18t-54.5 -11l421 -518q74 -91 179 -96zM418 1206v-504q40 0 62.5 1t66.5 4t72 8t68.5 16t67 25.5t56 37.5t46.5 51.5t28.5 68t11.5 87.5q0 56 -15.5 101t-39 73.5t-58 49.5t-65 31t-68.5 16
t-59.5 7t-46.5 1q-80 0 -103.5 -14.5t-23.5 -59.5z" />
    <glyph glyph-name="S" unicode="S" horiz-adv-x="1138" 
d="M915 1384l46 -436h-52q-14 65 -45 126t-77.5 112.5t-114 82.5t-144.5 31q-83 0 -144.5 -50t-61.5 -140q0 -49 23.5 -93t63 -79.5t91 -69.5t108 -66.5t113 -67t108 -75.5t91 -86t63 -104.5t23.5 -126.5q0 -53 -16.5 -105.5t-52 -100.5t-85.5 -84.5t-122 -58.5t-157 -22
q-68 0 -133.5 17.5t-113 35t-70.5 17.5q-30 0 -46.5 -20.5t-16.5 -47.5h-46l-61 435h47q13 -33 21 -51.5t30.5 -61.5t43.5 -71t56 -65.5t72 -59.5t88.5 -38t108.5 -16q116 0 181 68t65 159q0 49 -10 82.5t-44 76t-101 91t-179 113.5q-66 38 -106.5 64.5t-86 64.5t-70 75
t-41 87.5t-16.5 109.5q0 84 32 152t85 110t118 64t136 22q70 0 169 -34.5t116 -34.5q59 0 71 69h43z" />
    <glyph glyph-name="T" unicode="T" horiz-adv-x="1251" 
d="M926 39v-39h-598v39q40 2 69 6.5t50.5 11t34.5 20t21 26t11.5 38t4.5 46.5t1 59v1024h-110q-71 0 -116.5 -6t-82 -21.5t-59 -46.5t-38.5 -74.5t-30 -113.5h-49l12 348h1155l12 -348h-49q-13 70 -29 114t-38.5 75t-59 46t-81.5 21t-117 6h-111v-1047q0 -74 13.5 -109.5
t55 -53.5t128.5 -21z" />
    <glyph glyph-name="U" unicode="U" horiz-adv-x="1478" 
d="M1444 1356v-39q-43 -4 -69.5 -9.5t-50.5 -17.5t-36.5 -29t-21.5 -46t-12 -66.5t-3 -93.5v-535q0 -51 -1.5 -83t-11.5 -96t-28.5 -107t-57.5 -97t-93.5 -87t-141.5 -56t-196 -23q-82 0 -151 14.5t-118 36.5t-88.5 57.5t-64 68.5t-42 78t-26 77t-13 76t-5 64t-0.5 51v639
q0 60 -6 92t-28 53t-54.5 28t-95.5 11v39h579v-39q-64 -5 -98 -13t-55 -29.5t-27 -52.5t-6 -89v-656q0 -41 1 -65.5t7.5 -73.5t19 -81t39 -72.5t63 -65t95 -41.5t131.5 -17q116 0 203 43.5t133 118.5q47 78 47 279v553q0 83 -9 132.5t-34 77.5t-58 38.5t-91 13.5v39h475z
" />
    <glyph glyph-name="V" unicode="V" horiz-adv-x="1478" 
d="M1427 1356v-39q-74 -5 -108 -39.5t-80 -151.5l-455 -1149h-30l-504 1125q-42 94 -73.5 138.5t-61.5 59.5t-82 17v39h545v-39q-95 -5 -124.5 -17.5t-29.5 -58.5q0 -33 84 -219l309 -692l301 751q0 1 5.5 14.5t10.5 28.5t10.5 33.5t9 36t3.5 29.5q0 24 -8.5 41.5t-20.5 27
t-34.5 15t-39.5 7t-46 3.5v39h419z" />
    <glyph glyph-name="W" unicode="W" horiz-adv-x="1933" 
d="M1909 1356v-39q-74 -12 -107 -38t-55 -87q-109 -293 -154.5 -418t-130.5 -369.5t-141 -427.5h-31q-90 267 -327 867l-316 -867h-31q-71 212 -197 562t-198 538q-54 140 -91.5 186.5t-119.5 53.5v39h502v-39q-73 -3 -103 -17.5t-30 -52.5q0 -31 22 -90l295 -770l219 578
l-67 168q-26 65 -45 100.5t-44 54.5t-48.5 23.5t-69.5 5.5v39h547v-39q-31 0 -52.5 -2t-49 -9t-42 -24t-14.5 -43q0 -12 5 -29.5t10.5 -32t18.5 -45.5t21 -53l271 -698l256 694q33 89 33 148q0 23 -8.5 40t-20.5 26t-33.5 15.5t-37 8.5t-42.5 4v39h406z" />
    <glyph glyph-name="X" unicode="X" horiz-adv-x="1478" 
d="M1425 1356v-39q-40 -3 -61 -6t-51.5 -14t-55.5 -30.5t-60 -54.5t-77 -88l-299 -372l393 -562q60 -85 104.5 -114.5t123.5 -36.5v-39h-608v39q100 6 125 17q32 14 32 53q0 24 -34.5 84t-69.5 110l-195 287l-243 -303q-107 -132 -107 -172q0 -24 12 -39t37.5 -22.5t47 -10
t59.5 -4.5v-39h-478v39q30 2 49 5t42.5 15.5t38 23t44.5 43.5t52 59.5t71 86.5l322 396l-223 327q-39 58 -70.5 101.5t-59.5 77t-47.5 56t-42 38t-36.5 24t-36.5 14t-36.5 7.5t-42 4v39h619v-39q-38 -1 -57.5 -2t-42 -4.5t-32.5 -10.5t-17 -19t-7 -30q0 -31 36.5 -95
t137.5 -208l86 -121l231 283q62 78 74 104q8 19 8 35q0 22 -11 36.5t-35.5 20.5t-43.5 8t-53 3v39h487z" />
    <glyph glyph-name="Y" unicode="Y" horiz-adv-x="1478" 
d="M1440 1356v-39q-36 -4 -57.5 -10t-57 -27.5t-76.5 -70t-92 -126.5l-303 -462v-398q0 -59 6.5 -91t30 -54.5t63.5 -30t111 -8.5v-39h-627v39q44 1 75 5t54 10t37 19.5t22.5 26t12.5 38.5t5 47t1 61v356l-268 393q-53 78 -90.5 130t-68.5 88t-50.5 55t-42.5 30t-37.5 14
t-42.5 5v39h573v-39q-35 -1 -52 -2.5t-39 -5.5t-31 -10t-16 -17.5t-7 -28.5q0 -35 35 -88l303 -454l293 463q29 48 29 75q0 22 -12.5 37t-36 21t-44 8t-49.5 2v39h449z" />
    <glyph glyph-name="Z" unicode="Z" horiz-adv-x="1251" 
d="M1176 360h47l-49 -360h-1156v31l895 1247h-452q-61 0 -109.5 -9t-81 -19.5t-58.5 -35.5t-39.5 -40.5t-26 -52.5t-16.5 -52.5t-12 -58.5q-1 -3 -1 -4h-54l41 350h1078v-31l-885 -1247h526q40 0 74 3.5t61.5 12t50 17t41.5 24t33 27.5t26.5 34t20.5 36.5t17.5 41t14.5 41.5
t14 45z" />
    <glyph glyph-name="bracketleft" unicode="[" horiz-adv-x="681" 
d="M612 1305h-184q-32 0 -52.5 -9t-28 -26.5t-9.5 -28t-2 -27.5v-1376q0 -106 100 -106h176v-51h-432v1675h432v-51z" />
    <glyph glyph-name="backslash" unicode="\" horiz-adv-x="569" 
d="M-18 1384h137l469 -1413h-139z" />
    <glyph glyph-name="bracketright" unicode="]" horiz-adv-x="681" 
d="M70 -268h184q32 0 52.5 9t28 26t9.5 28t2 27v1376q0 107 -100 107h-176v51h432v-1675h-432v51z" />
    <glyph glyph-name="asciicircum" unicode="^" horiz-adv-x="960" 
d="M188 608h-139l371 748h123l370 -748h-139l-293 592z" />
    <glyph glyph-name="underscore" unicode="_" 
d="M1024 -256h-1024v102h1024v-102z" />
    <glyph glyph-name="grave" unicode="`" horiz-adv-x="681" 
d="M496 1038h-82l-316 199q-59 38 -59 88q0 3 0.5 8.5t4.5 16t10 18.5t19 14.5t31 6.5q26 0 40 -7t51 -41z" />
    <glyph glyph-name="a" unicode="a" horiz-adv-x="909" 
d="M588 252v297q-88 -29 -152.5 -62.5t-98 -62t-53 -61t-24 -54t-4.5 -47.5v-4q0 -71 38.5 -115.5t96.5 -44.5q30 0 68.5 13t58.5 24q45 22 57.5 45t12.5 72zM905 135v-53q-88 -102 -182 -102q-13 0 -22.5 1t-26 5t-28.5 13.5t-25 25t-21 42.5t-10 62q-167 -149 -297 -149
q-89 0 -153 57.5t-64 155.5q0 126 101 208q78 64 286 148q38 15 121 47l1 1h1l2 1v125q0 52 -15.5 88t-41.5 52.5t-50 23t-51 6.5q-55 0 -100 -27.5t-45 -72.5q0 -17 5 -45t5 -35q0 -34 -27 -61t-65 -27q-43 0 -65.5 29.5t-22.5 60.5q0 33 19.5 70.5t57.5 73.5t105.5 59.5
t151.5 23.5q49 0 90.5 -7.5t71 -19t53 -31.5t38.5 -37.5t25.5 -45.5t15.5 -47t7.5 -49.5t3 -46.5t0.5 -44v-399q0 -20 0.5 -30t2 -26.5t5 -25.5t10 -19t17 -14t24.5 -4q42 0 92 39z" />
    <glyph glyph-name="b" unicode="b" 
d="M313 659v-516q0 -33 40 -57t82.5 -32.5t74.5 -8.5q67 0 118 26t78.5 63.5t44.5 90.5t22 96.5t5 90.5q0 74 -15 143t-45 128t-81.5 94.5t-118.5 35.5q-39 0 -81.5 -13t-81 -50t-42.5 -91zM141 111v1063q0 29 -1.5 43t-9.5 31t-27 23.5t-52 6.5t-45 -2v33q197 54 297 90
l10 -4v-619h4q12 47 92.5 106.5t184.5 59.5q89 0 160.5 -40t115 -106t66 -145t22.5 -164q0 -59 -15 -123.5t-52 -134t-92 -124t-143.5 -90t-196.5 -35.5q-54 0 -127 16t-132 48t-59 67z" />
    <glyph glyph-name="c" unicode="c" horiz-adv-x="909" 
d="M815 319l29 -18q-81 -170 -181 -245.5t-229 -75.5q-51 0 -103 16t-102.5 52t-90 87.5t-63.5 129.5t-24 171q0 121 40.5 220t106.5 160t146.5 93.5t165.5 32.5q54 0 115.5 -18.5t101.5 -44.5q42 -30 65 -71t23 -73q0 -37 -25 -62t-69 -28q-37 -3 -63.5 26t-36.5 68l-13 45
q-8 29 -13 42t-19 29t-38.5 22t-64.5 6q-26 0 -57 -8.5t-68.5 -33.5t-67.5 -63.5t-50.5 -106t-20.5 -153.5q0 -173 90.5 -282t222.5 -109q53 0 97 14.5t79.5 43.5t61 59t55.5 75z" />
    <glyph glyph-name="d" unicode="d" 
d="M696 209v471q-10 98 -71.5 151.5t-139.5 53.5q-46 0 -89 -21t-81 -63.5t-61 -118.5t-23 -176q0 -110 25 -193.5t66.5 -131.5t90 -71.5t101.5 -23.5q66 0 118 34.5t64 88.5zM1006 119v-33q-46 -17 -145 -51.5t-156 -54.5l-9 6v125h-4q-88 -131 -264 -131q-21 0 -46 3
t-62.5 15t-72 30.5t-70.5 54t-62 81.5t-43 117t-17 157q0 99 34.5 191.5t91.5 161t135.5 110t162.5 41.5q64 0 114 -21t103 -67v320q0 29 -1.5 43t-9.5 31t-27 23.5t-52 6.5t-49 -2v33q189 50 301 90l10 -4v-1162q0 -39 2.5 -56t15 -35t41.5 -22.5t79 -0.5z" />
    <glyph glyph-name="e" unicode="e" horiz-adv-x="909" 
d="M836 336l32 -14q-8 -27 -24 -60.5t-53 -86t-82.5 -94t-118.5 -71.5t-156 -30q-173 0 -278 121.5t-105 336.5q0 109 28 197.5t71.5 144t100.5 93.5t111.5 53.5t106.5 15.5q153 0 248 -91t112 -284h-636q7 -104 30.5 -184.5t55.5 -129t74 -79.5t81.5 -42t83.5 -11
q52 0 99 16t78 36.5t61.5 54.5t45 55t34.5 53zM199 633h422q-4 28 -7 44.5t-10 44.5t-15.5 45.5t-23.5 38.5t-33.5 33t-46 20.5t-61.5 8.5q-90 0 -145.5 -53t-79.5 -182z" />
    <glyph glyph-name="f" unicode="f" horiz-adv-x="681" 
d="M633 922v-66h-250v-643q0 -33 0.5 -49.5t4 -40t11 -34t20.5 -24t34 -19t50.5 -10t69.5 -5.5v-31h-532v31q37 2 60 4.5t44 10t32 19.5t19.5 32t11.5 48t3 68v643h-168v66h168q0 29 0.5 47.5t4 58.5t9.5 69t18.5 70.5t30.5 71t46.5 62t64 52.5t85.5 33t110 13q86 0 145 -36
t59 -89q0 -41 -27 -63.5t-61 -22.5q-29 0 -53 24t-39 52.5t-41.5 52.5t-58.5 24t-56 -12t-36.5 -29.5t-19.5 -44t-9 -48t-2 -48.5v-237h252z" />
    <glyph glyph-name="g" unicode="g" 
d="M201 -184q0 -57 74 -101.5t233 -44.5q174 0 276.5 57t102.5 142q0 23 -7 39t-25.5 27t-35.5 17t-52 9.5t-60 5t-72 2.5q-158 5 -212 9t-122 18q-40 -49 -56 -69.5t-30 -51t-14 -59.5zM311 700q0 -65 11 -123t35 -109t67 -81.5t100 -30.5q48 0 81 23t46.5 60t18 63t4.5 51
q0 22 -4.5 56.5t-18.5 84.5t-36 91t-61 70.5t-89 29.5q-63 0 -108.5 -45t-45.5 -140zM963 795h-170q14 -32 20 -49t12 -54.5t6 -85.5q0 -63 -23 -115.5t-58.5 -86t-80 -57t-85.5 -33t-78 -9.5q-14 0 -60.5 5t-50.5 5q-31 -3 -77 -51t-46 -78q0 -50 160 -55l264 -12
q62 -3 109.5 -21.5t73 -43t41 -56t20 -54.5t4.5 -44q0 -66 -37 -124t-94.5 -98t-128.5 -68.5t-139 -42t-125 -13.5q-155 0 -259 57.5t-104 140.5q0 63 54 123.5t147 126.5q-28 14 -41 21t-32 21t-27 30.5t-8 36.5q0 17 3.5 28t19 35t54.5 63t105 97q-91 40 -141 108.5
t-50 157.5q0 87 32.5 155.5t86 107.5t113 59t121.5 20q50 0 88.5 -10t109.5 -37q56 -21 113 -21h158v-79z" />
    <glyph glyph-name="h" unicode="h" 
d="M997 31v-31h-434v31q35 4 53.5 7.5t38 14t28 29t14 49.5t5.5 78v405q0 217 -157 217q-112 0 -223 -129v-493q0 -47 5.5 -78t14 -49.5t28 -29t38 -14t53.5 -7.5v-31h-443v31q61 8 85.5 20.5t35.5 46.5t11 111v965q0 29 -2 43t-10 31t-27 23.5t-52 6.5t-39 -2v33
q219 64 291 90l11 -6v-619h4q119 168 295 168q253 0 253 -326v-407q0 -39 1.5 -64t8 -44.5t13.5 -30t23.5 -18.5t32 -12t44.5 -9z" />
    <glyph glyph-name="i" unicode="i" horiz-adv-x="569" 
d="M33 0v31q54 3 80 8t47.5 23.5t28 52t6.5 94.5v475q0 43 -6 70t-18.5 37.5t-22 13t-25.5 2.5q-28 0 -82 -8v30q96 32 317 113l9 -6v-727q0 -46 2.5 -70.5t10 -47.5t24.5 -33.5t44 -17.5t70 -9v-31h-485zM160 1294q0 36 26.5 70.5t75.5 34.5q45 0 76 -31t31 -74
q0 -44 -30.5 -74t-76.5 -30q-50 0 -76 34t-26 70z" />
    <glyph glyph-name="j" unicode="j" horiz-adv-x="569" 
d="M223 -92v776q0 43 -6 70t-18 37.5t-21.5 13t-25.5 2.5q-24 0 -86 -8v32q164 51 319 111l10 -6v-936q0 -75 -10.5 -139t-36 -121.5t-64.5 -98t-99.5 -64t-137.5 -23.5q-78 0 -134 30t-56 84q0 34 25.5 56t56.5 22q24 0 45 -12.5t36 -31t29.5 -36.5t33 -30.5t38.5 -12.5
q19 0 33.5 4.5t25.5 17t18.5 23.5t12 35t7 40.5t4 50t1.5 53.5v61zM188 1294q0 36 27 70.5t76 34.5q45 0 75.5 -31t30.5 -74q0 -44 -30 -74t-76 -30q-50 0 -76.5 34t-26.5 70z" />
    <glyph glyph-name="k" unicode="k" 
d="M14 0v31q42 7 59.5 10.5t40.5 11t29.5 14t14.5 21.5t9 32.5t1 47.5v987q0 73 -17 99t-75 26q-30 0 -62 -4v33q237 64 318 90l8 -4v-852l4 -4q37 31 136 120.5t141 124.5q47 44 47 70q0 19 -21.5 29t-81.5 10v29h418v-31q-42 0 -62.5 -2t-59.5 -14.5t-77.5 -39
t-99.5 -76.5t-143 -126l-60 -55l314 -398q37 -46 72.5 -77t67 -45.5t52.5 -19.5t47 -7v-31h-446v31h39q43 0 43 32q0 4 -2 9t-6.5 11.5t-8.5 12.5t-12 16.5t-14 18.5l-283 377h-4v-371q0 -58 28 -79.5t85 -24.5l41 -2v-31h-480z" />
    <glyph glyph-name="l" unicode="l" horiz-adv-x="569" 
d="M43 0v31q93 6 125.5 35t32.5 112v977q0 73 -17 99t-75 26q-20 0 -70 -4v33q200 50 326 90l8 -4v-1223q0 -45 6.5 -71.5t26 -41.5t45.5 -20.5t75 -7.5v-31h-483z" />
    <glyph glyph-name="m" unicode="m" horiz-adv-x="1593" 
d="M176 174v518q0 46 -6 74.5t-18.5 40t-22 14t-25.5 2.5q-33 0 -65 -8v35q163 46 287 92l14 -4v-154q52 40 70.5 53.5t59 40.5t63.5 36.5t56.5 18.5t65.5 9q92 0 145.5 -49t73.5 -123q21 24 48.5 48.5t70.5 55t98.5 49.5t112.5 19q242 0 242 -364v-422q0 -20 0.5 -29.5
t5 -28t13 -28.5t26 -20.5t43.5 -14.5l53 -4v-31h-448v31q32 4 46 6t33.5 8t27 14.5t15.5 24.5t10.5 38.5t2.5 55.5v432q0 40 -1.5 64.5t-9.5 59t-23 54t-44.5 34t-71.5 14.5q-147 0 -227 -125v-516q0 -45 8 -76.5t19 -48t33 -25.5t39 -11t48 -3v-31h-458v31q34 2 50.5 4.5
t37 10.5t29.5 23t15.5 41.5t6.5 65.5v445q0 107 -32.5 161t-108.5 54q-40 0 -78.5 -11.5t-66 -28t-49 -34.5t-32 -30.5t-10.5 -16.5v-578q0 -36 10.5 -58t33.5 -32t42 -12.5t53 -3.5v-31h-454v31q31 1 47 2.5t38 9.5t32 22t18 41.5t8 67.5z" />
    <glyph glyph-name="n" unicode="n" 
d="M164 184v508q0 46 -6 74.5t-18.5 40t-22 14t-25.5 2.5q-43 0 -59 -8v35q165 48 282 92l15 -4v-162q48 45 74 67.5t65.5 49.5t77.5 38t82 11q31 0 61 -7.5t63.5 -28.5t58 -54t40.5 -89t16 -128v-469q0 -73 25.5 -101t99.5 -34v-31h-426v31q35 3 53.5 8t38.5 21.5t28.5 51
t8.5 91.5v428q0 99 -35 148.5t-122 49.5q-84 0 -203 -116v-576q0 -53 29 -77.5t106 -28.5v-31h-434v31q74 5 100.5 35t26.5 118z" />
    <glyph glyph-name="o" unicode="o" 
d="M502 942q205 0 333 -128t128 -347q0 -63 -17 -129t-54 -130.5t-89 -115t-128.5 -81.5t-166.5 -31q-196 0 -322.5 139t-126.5 348q0 127 52.5 234.5t155 174t235.5 66.5zM537 37q43 0 82.5 17.5t76.5 57t59.5 116t22.5 180.5q0 129 -33.5 236t-101 174t-158.5 67
q-103 0 -172 -83.5t-69 -236.5q0 -53 6.5 -114t26.5 -137t50.5 -135.5t85 -100.5t124.5 -41z" />
    <glyph glyph-name="p" unicode="p" 
d="M154 -268v958q0 68 -13.5 92.5t-64.5 24.5q-40 0 -58 -2v33q164 52 295 104l13 -4v-150l4 -4q119 158 295 158q141 0 239.5 -121t98.5 -319q0 -91 -28 -181.5t-80 -167.5t-136.5 -125t-186.5 -48q-62 0 -109 19.5t-97 68.5v-322q0 -97 34 -125.5t146 -28.5v-36h-496v34
q50 4 79.5 13.5t43.5 29.5t17.5 40.5t3.5 58.5zM326 684v-504q0 -40 65 -87.5t144 -47.5q17 0 35.5 3t44 13.5t48 27t46 47t40 70.5t27 100.5t10.5 133.5q0 16 -1 36t-7 59t-15.5 74t-29.5 75t-46 68.5t-68 47.5t-93 19q-61 0 -126.5 -40t-73.5 -95z" />
    <glyph glyph-name="q" unicode="q" 
d="M737 870l111 66l14 6l8 -8v-1223q0 -36 6 -58t25.5 -35t37.5 -19t60 -15v-28h-483v34q110 4 146 39t36 117v381h-10q-29 -50 -122 -98.5t-181 -48.5q-145 0 -240.5 116.5t-95.5 337.5q0 139 60.5 256t165.5 184.5t231 67.5q50 0 91 -10t65.5 -22t74.5 -40zM698 260v422
q0 26 -1.5 44t-12 51t-29 54t-58.5 37.5t-95 16.5q-126 0 -201.5 -107t-75.5 -291q0 -99 26.5 -183t87.5 -142t148 -58q53 0 103 19q39 14 61 27.5t32 32.5t12 32.5t3 44.5z" />
    <glyph glyph-name="r" unicode="r" horiz-adv-x="681" 
d="M156 172v512q0 43 -6 70t-18.5 37.5t-22 13t-25.5 2.5q-34 0 -70 -8v32q165 55 303 111l11 -4v-182h4q69 104 125 145t118 41q52 0 81.5 -30t29.5 -81q0 -39 -21 -64.5t-57 -25.5q-31 0 -55.5 18t-45 36t-40.5 18q-38 0 -88.5 -60t-50.5 -108v-461q0 -41 9 -69.5
t21.5 -44t38 -24.5t46.5 -11.5t59 -3.5v-31h-492v31q35 6 50.5 9.5t37 10.5t29 15t16 22.5t11 34.5t2.5 49z" />
    <glyph glyph-name="s" unicode="s" horiz-adv-x="796" 
d="M645 643h-31q-16 75 -41 127t-56 78t-62 36.5t-68 10.5q-77 0 -116.5 -42.5t-39.5 -90.5q0 -94 88 -146l222 -131q88 -53 130 -104.5t42 -136.5q0 -64 -27.5 -116t-72 -83.5t-95.5 -48t-102 -16.5q-49 0 -130.5 18.5t-107.5 17.5q-18 0 -27 -5t-18 -19h-27v319h33
q6 -27 9 -39t11 -40.5t15 -43.5t19.5 -40.5t25 -40t32 -32.5t41 -27t50 -16t61.5 -7q40 0 75 12t63 47t28 90q0 93 -106 152l-119 67q-57 32 -92.5 57t-73.5 61.5t-56 81t-18 99.5q0 97 74.5 173.5t212.5 76.5q52 0 115 -20.5t74 -20.5q17 0 34 23h23z" />
    <glyph glyph-name="t" unicode="t" horiz-adv-x="569" 
d="M522 922v-66h-207v-586q0 -27 1 -44.5t6.5 -47t15.5 -47t31 -31.5t51 -14q23 0 43 6.5t37 20.5t24 21.5t21 23.5l26 -23q-37 -67 -103.5 -111t-135.5 -44q-87 0 -138 58.5t-51 201.5v616h-108q-8 4 -8 14q0 11 12 21t36 26.5t42 34.5q38 38 69 76t48 62t67 96q7 0 10 -4
t3.5 -8.5t0.5 -14.5v-237h207z" />
    <glyph glyph-name="u" unicode="u" 
d="M981 102v-28q-115 -30 -285 -92l-4 4v170l-88 -88q-88 -88 -215 -88q-28 0 -58 6.5t-64 25t-60.5 47t-44 77t-17.5 110.5v516q0 35 -8 60t-18 38t-30.5 20.5t-33 9t-37.5 3.5v29h299v-668q0 -12 3 -28t13 -39.5t25.5 -42.5t45 -32.5t67.5 -13.5q88 0 178 74q33 29 33 104
v482q0 36 -4 55t-18.5 38t-45.5 27t-84 9v35h324v-703q0 -27 1.5 -41.5t8 -32t19.5 -26t37.5 -13.5t60.5 -4z" />
    <glyph glyph-name="v" unicode="v" 
d="M977 922v-31q-50 -4 -71.5 -32.5t-61.5 -127.5l-262 -657q-2 -4 -5 -11q-36 -87 -48 -91q-2 -1 -3 -1q-13 0 -21.5 15t-33.5 82q-48 125 -159 387.5t-160 359.5q-37 72 -113 76v31h401v-31q-30 -2 -47.5 -6t-32 -18t-14.5 -38q0 -20 19 -71l208 -525q25 70 83.5 214
t95 243.5t36.5 132.5t-27 49.5t-69 18.5v31h285z" />
    <glyph glyph-name="w" unicode="w" horiz-adv-x="1478" 
d="M1169 922h252v-31q-31 -10 -45 -30t-39 -81l-282 -708q-27 -65 -37 -83t-21 -18t-18 13t-31 75l-186 484l-230 -492q-3 -7 -10 -19q-28 -57 -37 -60q-2 -1 -4 -1q-10 0 -20 17.5t-33 72.5l-276 701q-32 77 -52 101.5t-57 27.5v31h369v-31q-21 -2 -35 -5t-29.5 -10
t-23 -21t-7.5 -34q0 -32 31 -117t90 -233t94 -244l187 408q-29 89 -48 136.5t-40.5 74.5t-39.5 34t-54 11v31h415v-31q-27 -4 -39 -6t-31 -8t-27 -13t-14.5 -19.5t-6.5 -29.5q0 -9 1.5 -18t3 -16t6 -20t7.5 -21t11 -29t14 -35l163 -438l185 454q35 78 35 131q0 14 -5.5 25
t-12 17.5t-20.5 11.5t-24 7.5t-29 6.5v31z" />
    <glyph glyph-name="x" unicode="x" 
d="M618 150l-165 253l-162 -251q-41 -62 -41 -84q1 -13 8.5 -21t21.5 -11.5t24 -4t28 -0.5v-31h-297v31q25 3 38 6t31.5 13t37 30t42.5 55l234 338l-193 295q-25 38 -44.5 61t-33.5 36.5t-31.5 19t-29.5 6.5t-37 0v31h424v-31q-88 0 -88 -47q0 -35 123 -221
q96 138 116.5 171t20.5 50q0 20 -15 31t-28.5 13t-38.5 3v31h324v-31q-58 -1 -103.5 -31.5t-62.5 -58.5l-170 -246l262 -401q28 -42 53 -68.5t48.5 -37t35.5 -13.5t31 -4v-31h-412v31q49 2 65.5 12t16.5 41q0 25 -33 66z" />
    <glyph glyph-name="y" unicode="y" 
d="M973 922v-31q-21 -3 -32.5 -6.5t-32 -25t-34.5 -60.5l-315 -836q-82 -216 -159.5 -312.5t-188.5 -96.5q-71 0 -110.5 36.5t-39.5 81.5q0 6 1 14t7 22.5t15.5 25.5t29.5 19.5t46 8.5q31 0 83 -18t62 -18q37 0 74 44t61 101.5t39 106t15 63.5q0 14 -23.5 67t-60.5 128
t-43 88l-234 503q-27 55 -104 66v29h422v-31q-25 -1 -39.5 -2.5t-36.5 -7t-32.5 -18.5t-10.5 -32q0 -26 20 -73l236 -518l160 454q47 129 47 140q0 60 -99 57v31h277z" />
    <glyph glyph-name="z" unicode="z" horiz-adv-x="909" 
d="M856 276l-29 -276h-772v31l545 829h-283q-32 0 -56 -5t-41 -11t-29.5 -20.5t-19 -25.5t-12.5 -34.5t-8 -38t-6 -45.5h-36l6 242h710v-31l-551 -830h283q80 0 126.5 9.5t73.5 44.5t36 63t25 104q1 2 1 3z" />
    <glyph glyph-name="braceleft" unicode="{" horiz-adv-x="983" 
d="M379 -84v363q0 102 -36 153.5t-138 79.5q102 27 138 78t36 153v365q0 89 22 147t69 87.5t104 40t143 10.5v-23q-105 -24 -146 -83t-41 -169v-344q0 -59 -6.5 -97.5t-26 -73t-57 -56t-96.5 -35.5v-4q59 -13 96.5 -34t57 -55.5t26 -73t6.5 -97.5v-344q0 -110 41 -169
t146 -83v-23q-86 0 -143 10.5t-104 40.5t-69 88t-22 148z" />
    <glyph glyph-name="bar" unicode="|" horiz-adv-x="409" 
d="M137 -29v1413h135v-1413h-135z" />
    <glyph glyph-name="braceright" unicode="}" horiz-adv-x="983" 
d="M604 1106v-363q0 -102 36 -153t138 -78q-102 -28 -138 -79.5t-36 -153.5v-365q0 -89 -22 -147t-69 -87.5t-104 -40t-143 -10.5v23q105 24 146 83t41 169v344q0 59 6.5 97.5t26 73t57 56t96.5 35.5v4q-59 13 -96.5 34t-57 55.5t-26 73t-6.5 97.5v344q0 110 -41 169
t-146 83v23q86 0 143 -10.5t104 -40.5t69 -88t22 -148z" />
    <glyph glyph-name="asciitilde" unicode="~" horiz-adv-x="1107" 
d="M954 662l74 -103q-23 -32 -38.5 -52t-41 -46.5t-49.5 -41t-57 -25.5t-70 -11q-84 0 -209 68q-127 71 -235 71q-105 0 -172 -147l-74 102q92 176 256 176q82 0 227 -65q14 -6 44.5 -20t47.5 -21t40.5 -16t42 -13t34.5 -4q29 0 55 11.5t49.5 36.5t38 45t37.5 55z" />
    <glyph glyph-name="uni00A0" unicode="&#xa0;" horiz-adv-x="512" 
 />
    <glyph glyph-name="exclamdown" unicode="&#xa1;" horiz-adv-x="681" 
d="M295 578h27l18 -222q5 -60 40.5 -319.5t35.5 -310.5q0 -71 -25 -121.5t-82 -50.5q-134 0 -106 239zM307 956q43 0 78 -26.5t35 -77.5q0 -45 -33 -78t-80 -33q-45 0 -76.5 32t-31.5 79q0 53 34 78.5t74 25.5z" />
    <glyph glyph-name="cent" unicode="&#xa2;" 
d="M825 1186l-96 -277q66 -22 110 -71t44 -101q0 -39 -24.5 -65.5t-59.5 -26.5q-43 0 -70 24.5t-53 82.5l-207 -596q70 -25 117 -25q94 0 163.5 48t141.5 157l27 -17q-75 -166 -171 -251.5t-225 -85.5q-43 0 -110 18l-101 -283h-69l104 308q-62 31 -108.5 80t-70 94.5
t-38 98t-17.5 84t-3 58.5q0 120 40 218t105.5 158.5t144 93t160.5 32.5q40 0 105 -10l90 254h71zM406 201l235 661q-51 19 -98 19q-34 0 -69.5 -10t-73.5 -35t-67 -63t-48 -100.5t-19 -140.5q0 -217 140 -331z" />
    <glyph glyph-name="sterling" unicode="&#xa3;" 
d="M705 764v-92h-250l2 -56q3 -91 -3 -139.5t-46 -249.5q158 -71 307 -71q64 0 116 21t77 45.5t47.5 45.5t35.5 21t13 -10q0 -23 -29 -85.5t-80 -111.5q-99 -96 -240 -96q-70 0 -137.5 32.5t-152.5 92.5q-35 -42 -57.5 -64.5t-62 -42.5t-83.5 -20q-55 0 -96 32t-41 93
q0 74 52 115.5t138 41.5q38 0 90 -10q6 18 6 35q0 65 -43 381h-221v92h219q-14 75 -14 137q0 121 32 215.5t87.5 152t126 86.5t153.5 29q122 0 194.5 -57t72.5 -133q0 -50 -30 -79.5t-71 -29.5q-24 0 -40 8.5t-24.5 19.5t-12.5 33t-4.5 36t-0.5 41q0 106 -114 106
q-50 0 -88 -22.5t-57.5 -54t-31.5 -73.5t-15 -71t-3 -57q0 -95 23 -287h256zM160 41q63 0 97 44.5t34 72.5q0 12 -39 23.5t-78 11.5q-44 0 -70 -19.5t-26 -58.5q0 -32 24 -53t58 -21z" />
    <glyph glyph-name="currency" unicode="&#xa4;" 
d="M514 985q-127 0 -215 -91t-88 -216q0 -127 87.5 -219t215.5 -92q127 0 213 91.5t86 219.5q0 125 -86 216t-213 91zM-45 221l201 197q-84 112 -84 260q0 73 23.5 141t60.5 115l-201 201l102 98l197 -197q116 80 260 80q75 0 142.5 -22t113.5 -58l201 197l98 -98l-197 -201
q80 -107 80 -256q0 -144 -80 -260l197 -197l-98 -102l-201 200q-46 -37 -114 -60t-142 -23q-149 0 -260 83l-197 -200z" />
    <glyph glyph-name="yen" unicode="&#xa5;" 
d="M727 39v-39h-500v39q55 2 86.5 11.5t48.5 36t22 61t5 98.5v127h-356v82h356v155l-14 29h-342v82h295l-195 354q-78 141 -123.5 191t-118.5 51v39h498v-39q-133 3 -133 -62q0 -38 27 -90l241 -452l230 450q28 54 28 90q0 35 -38 52t-95 12v39h400v-39q-74 -14 -132 -65.5
t-110 -153.5l-189 -377h300v-82h-340l-15 -29v-155h355v-82h-355v-150q0 -76 17.5 -116t50.5 -53.5t96 -14.5z" />
    <glyph glyph-name="brokenbar" unicode="&#xa6;" horiz-adv-x="409" 
d="M137 -29v566h135v-566h-135zM137 819v565h135v-565h-135z" />
    <glyph glyph-name="section" unicode="&#xa7;" 
d="M143 578q0 118 76.5 191t200.5 58l4 4q-54 45 -81 70t-59 64t-45.5 80t-13.5 90q0 62 24 111t65.5 78.5t92.5 44.5t109 15q102 0 179 -56t77 -142q0 -49 -26.5 -80t-77.5 -31q-52 0 -74.5 29t-22.5 59q0 23 11 43.5t24 32t24 21.5t11 14q0 29 -35.5 48t-103.5 19
q-43 0 -76.5 -15.5t-51 -39t-26 -46t-8.5 -42.5q0 -35 17.5 -76t52.5 -71l280 -232q182 -152 182 -313q0 -111 -70.5 -186t-195.5 -64l-4 -4q107 -91 148 -152.5t41 -144.5q0 -106 -75.5 -182t-215.5 -76q-122 0 -204.5 58.5t-82.5 146.5q0 52 33.5 81t77.5 29
q47 0 72.5 -26.5t25.5 -57.5q0 -24 -11 -44t-24 -30.5t-24 -21.5t-11 -20q0 -10 8.5 -21.5t25 -23t47.5 -19.5t71 -8q77 0 124.5 43.5t47.5 118.5q0 28 -7 48.5t-22.5 44t-57.5 60t-94.5 78.5t-150.5 117q-101 78 -151 163.5t-50 164.5zM393 784q-54 0 -97.5 -34t-43.5 -101
q0 -39 16.5 -75.5t32.5 -56t45 -48.5q76 -76 143.5 -123t131.5 -47q60 0 102.5 39t42.5 104q0 58 -69.5 140.5t-159 142t-144.5 59.5z" />
    <glyph glyph-name="dieresis" unicode="&#xa8;" horiz-adv-x="681" 
d="M37 1174q0 35 26 68.5t72 33.5q41 0 72 -30.5t31 -71.5q0 -42 -30.5 -72.5t-72.5 -30.5q-48 0 -73 33t-25 70zM444 1174q0 35 26.5 68.5t72.5 33.5q41 0 71.5 -30.5t30.5 -71.5q0 -42 -30.5 -72.5t-71.5 -30.5q-48 0 -73.5 33t-25.5 70z" />
    <glyph glyph-name="copyright" unicode="&#xa9;" horiz-adv-x="1556" 
d="M782 1384q192 0 352.5 -95t252.5 -257.5t92 -355.5q0 -144 -54.5 -274.5t-147 -225t-222 -150t-273.5 -55.5q-146 0 -277 55.5t-224.5 150t-148 225t-54.5 274.5q0 193 92.5 355.5t254.5 257.5t357 95zM782 1298q-163 0 -300 -86.5t-214.5 -229t-77.5 -306.5
q0 -162 78 -304.5t215 -228.5t299 -86q158 0 293.5 86t213 228.5t77.5 304.5q0 123 -45.5 237t-123 198.5t-186.5 135.5t-229 51zM1087 506h33l-33 -144q0 -16 -11 -22.5t-42 -15.5q-114 -35 -215 -35q-91 0 -167 23t-136 70.5t-93.5 127t-33.5 184.5q0 53 16 106.5
t51.5 106t86 93t126 65.5t165.5 25q22 0 41 -1t37.5 -4t29.5 -4.5t29.5 -7t24 -7t26 -8t22.5 -7.5q43 -11 43 -41v-144h-34q-7 75 -61.5 129t-164.5 54q-137 0 -207.5 -95t-72.5 -252q-2 -170 70.5 -271t222.5 -101q170 0 247 176z" />
    <glyph glyph-name="ordfeminine" unicode="&#xaa;" horiz-adv-x="565" 
d="M324 971v157q-187 -61 -187 -129q0 -44 22.5 -70t59.5 -26q36 0 82 23q18 16 23 45zM553 905v-37q-57 -61 -119 -61q-11 0 -18.5 0.5t-21 5.5t-23 13.5t-18.5 26.5t-13 44q-36 -36 -85.5 -63t-98.5 -27q-59 0 -103.5 36t-44.5 101q0 30 8.5 54.5t31.5 46.5t43 36.5
t65.5 34t73.5 30.5t92 34v61q0 39 -19 62.5t-53 23.5q-33 0 -63.5 -14t-30.5 -31q0 -10 3 -26t3 -19q0 -21 -18 -37t-48 -16q-29 0 -46 19.5t-17 43.5q0 55 57.5 96t165.5 41q57 0 98.5 -14.5t63 -34.5t33.5 -49.5t15 -50.5t3 -47v-236q0 -41 4 -56t23 -15q29 0 57 24z" />
    <glyph glyph-name="guillemotleft" unicode="&#xab;" 
d="M86 465l64 55q156 131 335 307q19 19 23 22t10 3q21 0 21 -23q0 -6 -11.5 -26t-33 -50t-44 -61.5t-52.5 -70.5t-50 -65.5t-44 -58t-28 -36.5q22 -30 84.5 -106.5t85.5 -106.5q95 -126 95 -158q0 -10 -7 -16t-16 -6q-7 0 -42 34.5t-99.5 98t-118.5 110.5q-4 3 -50.5 44
t-84 74.5t-37.5 35.5zM479 465l64 55q163 137 336 307l7 7q14 14 17 16t8 2q21 0 21 -23q0 -24 -262 -368q22 -30 85 -106.5t85 -106.5q94 -124 94 -158q0 -10 -7 -16t-16 -6q-7 0 -42 34.5t-99.5 98t-118.5 110.5q-4 3 -50.5 44t-84 74.5t-37.5 35.5z" />
    <glyph glyph-name="logicalnot" unicode="&#xac;" horiz-adv-x="1155" 
d="M958 221v434h-897v136h1033v-570h-136z" />
    <glyph glyph-name="uni00AD" unicode="&#xad;" horiz-adv-x="681" 
d="M80 526h504v-129h-504v129z" />
    <glyph glyph-name="registered" unicode="&#xae;" horiz-adv-x="1556" 
d="M449 1034v31h362q99 0 167.5 -47.5t68.5 -138.5q0 -77 -45 -134t-117 -81l116 -162q83 -116 156 -174v-17h-131q-19 0 -38 15t-41 47.5t-43 68t-57 94t-69 107.5h-98v-203v-37.5t4 -24t7 -17t18 -8.5t27.5 -7t43.5 -4v-31h-331v31q31 3 43.5 4t27.5 7t18 8.5t7 17t4 24
v37.5v494q0 30 0.5 39.5t-4.5 24.5t-7 17.5t-18.5 8t-27 6.5t-43.5 4zM680 1026v-344h88q72 0 106.5 50t34.5 136q0 83 -40 120.5t-105 37.5h-84zM1479 676q0 -144 -54.5 -274.5t-147 -225t-222 -150t-273.5 -55.5q-146 0 -277 55.5t-224.5 150t-148 225t-54.5 274.5
q0 193 92.5 355.5t254.5 257.5t357 95q192 0 352.5 -95t252.5 -257.5t92 -355.5zM1366 676q0 123 -45.5 237t-123 198.5t-186.5 135.5t-229 51q-163 0 -300 -86.5t-214.5 -229t-77.5 -306.5q0 -162 78 -304.5t215 -228.5t299 -86q158 0 293.5 86t213 228.5t77.5 304.5z" />
    <glyph glyph-name="macron" unicode="&#xaf;" horiz-adv-x="681" 
d="M23 1231h636v-111h-636v111z" />
    <glyph glyph-name="degree" unicode="&#xb0;" horiz-adv-x="819" 
d="M410 868q88 0 150.5 67t62.5 157t-62.5 156.5t-150.5 66.5t-150.5 -66.5t-62.5 -156.5t62.5 -157t150.5 -67zM410 799q-123 0 -208 85t-85 208t85 207.5t208 84.5t207.5 -84.5t84.5 -207.5t-84.5 -208t-207.5 -85z" />
    <glyph glyph-name="plusminus" unicode="&#xb1;" horiz-adv-x="1155" 
d="M61 0v135h1033v-135h-1033zM510 713v323h135v-323h449v-135h-449v-328h-135v328h-449v135h449z" />
    <glyph glyph-name="twosuperior" unicode="&#xb2;" horiz-adv-x="614" 
d="M606 727l-76 -174h-518v47l201 219q166 187 166 279q0 55 -39 106t-109 51q-119 0 -178 -143l-51 29q41 136 115 189.5t196 53.5q106 0 180 -60.5t74 -160.5q0 -47 -17 -94t-48.5 -89t-53 -65.5t-53.5 -54.5l-176 -174h248q41 2 61.5 11.5t42.5 43.5z" />
    <glyph glyph-name="threesuperior" unicode="&#xb3;" horiz-adv-x="614" 
d="M193 942l-3 59q197 60 197 166q0 44 -28.5 73.5t-88.5 29.5q-33 0 -58.5 -8t-49 -29t-31.5 -31t-30 -40q-5 -6 -7 -9l-51 37q33 71 81.5 116.5t94 61.5t94.5 16q61 0 108 -17t72 -43.5t37.5 -53.5t12.5 -51q0 -88 -123 -172q176 -65 176 -242q0 -41 -22 -84.5t-67.5 -86
t-129 -70t-191.5 -27.5q-18 0 -38 3t-50 12t-48.5 32t-18.5 57q0 28 19.5 51t51.5 23q29 0 86 -40t93 -40q43 0 74.5 13.5t46.5 35.5t21.5 43t6.5 43q0 79 -50 126.5t-140 51.5z" />
    <glyph glyph-name="acute" unicode="&#xb4;" horiz-adv-x="681" 
d="M272 1038h-82l302 303q33 33 49 40.5t41 7.5q30 0 46.5 -16.5t18.5 -28t2 -21.5q0 -49 -61 -86z" />
    <glyph glyph-name="mu" unicode="&#xb5;" horiz-adv-x="1044" 
d="M881 922v-734q0 -27 1 -42t6.5 -40.5t20 -38t37.5 -12.5q42 0 103 58v-17q-50 -68 -95.5 -92t-105.5 -24q-73 0 -107 52.5t-34 125.5h-5q-45 -79 -119 -128.5t-151 -49.5q-162 0 -239 143l-5 -4q5 -61 39.5 -197.5t34.5 -202.5q0 -79 -21 -122t-73 -43t-73 43t-21 122
q0 61 24.5 194.5t24.5 197.5v811h180v-627q0 -87 45.5 -138t134.5 -51q71 0 133 42.5t84 87.5v686h181z" />
    <glyph glyph-name="paragraph" unicode="&#xb6;" horiz-adv-x="927" 
d="M487 1311v-1626h-315v45q52 2 84.5 10.5t52.5 20.5t29 40t11.5 55.5t2.5 80.5v622q-200 0 -298.5 107t-98.5 305q0 204 99.5 294.5t328.5 90.5h539v-39q-117 -9 -149 -42t-32 -142v-1219q0 -55 5.5 -85t25 -53t54.5 -32.5t96 -13.5v-45h-316v1626h-119zM352 604v707
q-65 -4 -107.5 -19.5t-74 -53t-45.5 -103t-14 -166.5q0 -189 62 -273t179 -92z" />
    <glyph glyph-name="periodcentered" unicode="&#xb7;" horiz-adv-x="512" 
d="M256 408q-39 0 -76 28.5t-37 81.5q0 49 33.5 83t79.5 34t80.5 -35t34.5 -82q0 -52 -38 -81t-77 -29z" />
    <glyph glyph-name="cedilla" unicode="&#xb8;" horiz-adv-x="681" 
d="M201 -203l84 203h71l-51 -133q27 6 57 6q80 0 126.5 -37.5t46.5 -105.5q0 -70 -63 -120t-185 -50q-98 0 -181 32l29 64q23 -9 67.5 -17t59.5 -8q119 0 119 93q0 71 -92 71q-54 0 -74 -8z" />
    <glyph glyph-name="onesuperior" unicode="&#xb9;" horiz-adv-x="614" 
d="M508 602v-49h-391v49q24 2 35 3t28 5t24.5 10.5t14 18.5t6.5 29v526q0 57 -14 57q-19 0 -90 -26v47l241 112l29 -6v-702q0 -42 26.5 -56.5t90.5 -17.5z" />
    <glyph glyph-name="ordmasculine" unicode="&#xba;" horiz-adv-x="634" 
d="M322 1384q132 0 216.5 -75t84.5 -199q0 -52 -19 -103.5t-56 -97t-100 -74t-143 -28.5q-127 0 -210 82t-83 201q0 126 83 210t227 84zM311 1317q-65 0 -107 -38.5t-42 -104.5q0 -40 6.5 -84.5t22 -96.5t50 -85.5t83.5 -33.5q61 0 105 38t44 126q0 121 -43.5 200t-118.5 79
z" />
    <glyph glyph-name="guillemotright" unicode="&#xbb;" 
d="M938 455l-64 -56q-156 -131 -335 -307q-18 -18 -22.5 -21t-10.5 -3q-21 0 -21 22q0 24 263 369q-22 30 -84.5 106.5t-85.5 106.5q-95 126 -95 157q0 10 7 16.5t16 6.5q7 0 42 -34.5t99.5 -98.5t118.5 -111q5 -4 51 -44.5t83.5 -73.5t37.5 -35zM545 455l-64 -56
q-163 -137 -336 -307q-19 -19 -22.5 -21.5t-9.5 -2.5q-21 0 -21 22q0 25 262 369q-23 30 -85.5 106t-84.5 107q-94 124 -94 157q0 10 7 16.5t16 6.5q7 0 42 -34.5t99.5 -98.5t118.5 -111q5 -4 51 -44.5t83.5 -73.5t37.5 -35z" />
    <glyph glyph-name="onequarter" unicode="&#xbc;" horiz-adv-x="1536" 
d="M1470 301v-117h-112v-184h-144v184h-368v101l416 544h96v-528h112zM1214 301v361h-4l-272 -361h276zM1305 1384l-922 -1413h-100l927 1413h95zM467 602v-49h-391v49q24 2 35 3t28 5t24.5 10.5t14 18.5t6.5 29v526q0 57 -14 57q-19 0 -90 -26v47l242 112l28 -6v-702
q0 -42 26.5 -56.5t90.5 -17.5z" />
    <glyph glyph-name="onehalf" unicode="&#xbd;" horiz-adv-x="1536" 
d="M1229 1384l-922 -1413h-100l928 1413h94zM455 602v-49h-392v49q24 2 35 3t28 5t25 10.5t14.5 18.5t6.5 29v526q0 57 -14 57q-19 0 -90 -26v47l241 112l29 -6v-702q0 -42 26.5 -56.5t90.5 -17.5zM1528 174l-76 -174h-518v47l201 219q165 186 165 279q0 55 -38.5 106
t-108.5 51q-119 0 -178 -143l-51 29q41 136 115 189.5t196 53.5q106 0 180 -60.5t74 -160.5q0 -47 -17 -94t-48.5 -89t-53 -65.5t-53.5 -54.5l-176 -174h248q41 2 61.5 11.5t42.5 43.5z" />
    <glyph glyph-name="threequarters" unicode="&#xbe;" horiz-adv-x="1536" 
d="M1470 301v-117h-112v-184h-144v184h-368v101l416 544h96v-528h112zM1214 301v361h-4l-272 -361h276zM1305 1384l-922 -1413h-100l927 1413h95zM193 942l-3 59q197 60 197 166q0 44 -28.5 73.5t-88.5 29.5q-33 0 -58.5 -8t-49 -29t-31.5 -31t-30 -40q-5 -6 -7 -9l-51 37
q33 71 81.5 116.5t94 61.5t94.5 16q61 0 108 -17t72 -43.5t37.5 -53.5t12.5 -51q0 -88 -123 -172q176 -65 176 -242q0 -41 -22 -84.5t-67.5 -86t-129 -70t-191.5 -27.5q-18 0 -38 3t-50 12t-48.5 32t-18.5 57q0 28 19.5 51t51.5 23q29 0 86 -40t93 -40q43 0 74.5 13.5
t46.5 35.5t21.5 43t6.5 43q0 79 -50 126.5t-140 51.5z" />
    <glyph glyph-name="questiondown" unicode="&#xbf;" horiz-adv-x="909" 
d="M410 602h34q0 -78 -21.5 -163.5t-39.5 -127.5l-57 -131q-29 -65 -52.5 -155.5t-23.5 -149.5q0 -48 13.5 -93t39.5 -83t70.5 -61t101.5 -23q68 0 129.5 38t61.5 87q0 22 -19.5 45.5t-39 50.5t-19.5 58t20.5 57t59.5 26q102 0 102 -129q0 -74 -32 -132.5t-82.5 -92.5
t-107 -51.5t-112.5 -17.5q-85 0 -174 36t-127 82q-42 52 -58 98t-16 124q0 70 48.5 161t105.5 158q91 106 132.5 185t62.5 204zM424 954q43 0 78 -26.5t35 -77.5q0 -45 -33 -78t-80 -33q-45 0 -77 32t-32 79q0 53 34.5 78.5t74.5 25.5z" />
    <glyph glyph-name="Agrave" unicode="&#xc0;" horiz-adv-x="1478" 
d="M1446 39v-39h-522v39q29 0 45 1t37.5 5t32.5 12t19.5 23t8.5 37q0 35 -39 129l-84 196h-536l-95 -239q-16 -43 -16 -78q0 -21 7 -36.5t20 -24.5t25.5 -14.5t31.5 -7.5t29 -2.5t26 -0.5v-39h-405v39q65 4 104 45q45 49 150 291l426 1005h41l510 -1163q49 -111 82 -142
t102 -36zM442 526h473l-237 564zM895 1473h-82l-315 198q-60 38 -60 88q0 8 2.5 19.5t19 28t44.5 16.5q26 0 39.5 -6.5t50.5 -40.5z" />
    <glyph glyph-name="Aacute" unicode="&#xc1;" horiz-adv-x="1478" 
d="M1446 39v-39h-522v39q29 0 45 1t37.5 5t32.5 12t19.5 23t8.5 37q0 35 -39 129l-84 196h-536l-95 -239q-16 -43 -16 -78q0 -21 7 -36.5t20 -24.5t25.5 -14.5t31.5 -7.5t29 -2.5t26 -0.5v-39h-405v39q65 4 104 45q45 49 150 291l426 1005h41l510 -1163q49 -111 82 -142
t102 -36zM442 526h473l-237 564zM672 1473h-82l301 303q32 32 48.5 39.5t41.5 7.5q23 0 38 -8.5t21 -22t7.5 -21.5t1.5 -14q0 -49 -62 -86z" />
    <glyph glyph-name="Acircumflex" unicode="&#xc2;" horiz-adv-x="1478" 
d="M1446 39v-39h-522v39q29 0 45 1t37.5 5t32.5 12t19.5 23t8.5 37q0 35 -39 129l-84 196h-536l-95 -239q-16 -43 -16 -78q0 -21 7 -36.5t20 -24.5t25.5 -14.5t31.5 -7.5t29 -2.5t26 -0.5v-39h-405v39q65 4 104 45q45 49 150 291l426 1005h41l510 -1163q49 -111 82 -142
t102 -36zM442 526h473l-237 564zM1059 1473h-70l-250 210l-247 -210h-70l254 342h127z" />
    <glyph glyph-name="Atilde" unicode="&#xc3;" horiz-adv-x="1478" 
d="M1446 39v-39h-522v39q29 0 45 1t37.5 5t32.5 12t19.5 23t8.5 37q0 35 -39 129l-84 196h-536l-95 -239q-16 -43 -16 -78q0 -21 7 -36.5t20 -24.5t25.5 -14.5t31.5 -7.5t29 -2.5t26 -0.5v-39h-405v39q65 4 104 45q45 49 150 291l426 1005h41l510 -1163q49 -111 82 -142
t102 -36zM442 526h473l-237 564zM1018 1741h59q-8 -32 -14 -51t-23.5 -54.5t-38 -56.5t-57 -38t-82.5 -17q-43 0 -78 11.5t-88 37.5l-47 22q-48 23 -76 23q-27 0 -48 -9t-33.5 -26t-18.5 -29t-12 -30h-60q6 37 21.5 71t40.5 66t64.5 51t88.5 19q66 0 136 -37l49 -25
q65 -31 98 -31q42 0 67.5 21.5t51.5 81.5z" />
    <glyph glyph-name="Adieresis" unicode="&#xc4;" horiz-adv-x="1478" 
d="M1446 39v-39h-522v39q29 0 45 1t37.5 5t32.5 12t19.5 23t8.5 37q0 35 -39 129l-84 196h-536l-95 -239q-16 -43 -16 -78q0 -21 7 -36.5t20 -24.5t25.5 -14.5t31.5 -7.5t29 -2.5t26 -0.5v-39h-405v39q65 4 104 45q45 49 150 291l426 1005h41l510 -1163q49 -111 82 -142
t102 -36zM442 526h473l-237 564zM436 1608q0 35 26.5 68.5t72.5 33.5q41 0 71.5 -30.5t30.5 -71.5q0 -42 -30.5 -72.5t-71.5 -30.5q-48 0 -73.5 33t-25.5 70zM844 1608q0 35 26 68.5t72 33.5q41 0 71.5 -30.5t30.5 -71.5q0 -42 -30 -72.5t-72 -30.5q-48 0 -73 33t-25 70z
" />
    <glyph glyph-name="Aring" unicode="&#xc5;" horiz-adv-x="1478" 
d="M1446 39v-39h-522v39q29 0 45 1t37.5 5t32.5 12t19.5 23t8.5 37q0 35 -39 129l-84 196h-536l-95 -239q-16 -43 -16 -78q0 -21 7 -36.5t20 -24.5t25.5 -14.5t31.5 -7.5t29 -2.5t26 -0.5v-39h-405v39q65 4 104 45q45 49 150 291l426 1005h41l510 -1163q49 -111 82 -142
t102 -36zM442 526h473l-237 564zM516 1634q0 84 59 144.5t144 60.5t145 -60t60 -145q0 -84 -60 -143t-145 -59q-87 0 -145 59t-58 143zM719 1769q-62 0 -97.5 -44t-35.5 -89q0 -47 34.5 -91t96.5 -44q58 0 97.5 38.5t39.5 94.5t-39 95.5t-96 39.5z" />
    <glyph glyph-name="AE" unicode="&#xc6;" horiz-adv-x="1820" 
d="M1671 1067h-47q-5 44 -14.5 75.5t-22.5 55t-36.5 38.5t-47.5 24.5t-66 14t-82 6t-104 1.5h-178q-11 0 -18.5 -1.5t-17 -6.5t-14.5 -18.5t-5 -34.5v-471h227q85 0 136 9.5t80 36t39.5 59.5t15.5 93h43v-479h-43q-3 31 -5.5 46.5t-8.5 41.5t-14 39.5t-23 31t-34.5 26
t-49 14.5t-66.5 6h-297v-488q0 -29 0.5 -43.5t6 -29t13 -19.5t25.5 -10t38.5 -5.5t57.5 -0.5h156q85 0 137.5 9.5t100 39.5t84 80t81.5 137h49l-90 -344h-1044v39l35 4q63 8 91 21t42 48.5t14 108.5v311h-360q-92 -174 -140.5 -279t-48.5 -149q0 -14 9 -24.5t21.5 -17
t31 -11t31.5 -6.5t30 -4t19 -2v-39h-408v39q33 6 49.5 11t39.5 20.5t44 46t47 82.5l502 991q18 36 18 53q0 72 -184 72v41h1155v-289zM489 612h326v641h-6z" />
    <glyph glyph-name="Ccedilla" unicode="&#xc7;" horiz-adv-x="1366" 
d="M1251 1384l19 -460h-47q-41 171 -155.5 275t-295.5 104q-80 0 -162.5 -32t-144.5 -93q-75 -73 -122.5 -189t-47.5 -315q0 -126 27.5 -230t74.5 -174t112 -118t137 -69.5t151 -21.5q72 0 140 17t113 37t93.5 55t67.5 52t49 46l36 -37q-3 -5 -19 -25t-57 -57t-93 -70.5
t-134.5 -63t-173.5 -38.5l-43 -110q27 6 58 6q80 0 126 -37.5t46 -105.5q0 -70 -63 -120t-185 -50q-97 0 -180 32l28 64q23 -9 67.5 -17t59.5 -8q119 0 119 93q0 71 -92 71q-54 0 -74 -8l-14 10l71 174h-2q-102 0 -198 24t-185 78.5t-155.5 134.5t-106 201t-39.5 269
q0 134 38.5 249.5t105.5 198t155.5 141.5t190 88t207.5 29q80 0 159.5 -17t132.5 -33.5t68 -16.5q78 0 94 67h43z" />
    <glyph glyph-name="Egrave" unicode="&#xc8;" horiz-adv-x="1251" 
d="M1223 346l-93 -346h-1105v39q44 3 69.5 7.5t49 15.5t35 30.5t18 51t6.5 79.5v910q0 60 -8.5 95.5t-33.5 54t-52.5 24.5t-83.5 10v39h1087l6 -293h-51q-23 136 -81.5 175.5t-229.5 39.5h-277q-20 0 -29 -1t-20 -7.5t-14.5 -21t-3.5 -40.5v-454h315q46 0 78.5 4t56 14.5
t37.5 23.5t24.5 38t16 49t12.5 65h47v-475h-47q-13 86 -33 124.5t-62 54.5t-130 18h-315v-506q0 -64 39 -75t266 -11q192 0 286.5 56.5t161.5 211.5h58zM780 1473h-82l-315 198q-59 38 -59 88q0 3 0.5 8.5t4.5 16t10 18.5t19 14.5t31 6.5q26 0 39.5 -6.5t50.5 -40.5z" />
    <glyph glyph-name="Eacute" unicode="&#xc9;" horiz-adv-x="1251" 
d="M1223 346l-93 -346h-1105v39q44 3 69.5 7.5t49 15.5t35 30.5t18 51t6.5 79.5v910q0 60 -8.5 95.5t-33.5 54t-52.5 24.5t-83.5 10v39h1087l6 -293h-51q-23 136 -81.5 175.5t-229.5 39.5h-277q-20 0 -29 -1t-20 -7.5t-14.5 -21t-3.5 -40.5v-454h315q46 0 78.5 4t56 14.5
t37.5 23.5t24.5 38t16 49t12.5 65h47v-475h-47q-13 86 -33 124.5t-62 54.5t-130 18h-315v-506q0 -64 39 -75t266 -11q192 0 286.5 56.5t161.5 211.5h58zM557 1473h-82l301 303q32 32 48.5 39.5t41.5 7.5q23 0 38 -8.5t21 -22t7.5 -21.5t1.5 -14q0 -49 -62 -86z" />
    <glyph glyph-name="Ecircumflex" unicode="&#xca;" horiz-adv-x="1251" 
d="M1223 346l-93 -346h-1105v39q44 3 69.5 7.5t49 15.5t35 30.5t18 51t6.5 79.5v910q0 60 -8.5 95.5t-33.5 54t-52.5 24.5t-83.5 10v39h1087l6 -293h-51q-23 136 -81.5 175.5t-229.5 39.5h-277q-20 0 -29 -1t-20 -7.5t-14.5 -21t-3.5 -40.5v-454h315q46 0 78.5 4t56 14.5
t37.5 23.5t24.5 38t16 49t12.5 65h47v-475h-47q-13 86 -33 124.5t-62 54.5t-130 18h-315v-506q0 -64 39 -75t266 -11q192 0 286.5 56.5t161.5 211.5h58zM944 1473h-70l-249 210l-248 -210h-70l254 342h127z" />
    <glyph glyph-name="Edieresis" unicode="&#xcb;" horiz-adv-x="1251" 
d="M1223 346l-93 -346h-1105v39q44 3 69.5 7.5t49 15.5t35 30.5t18 51t6.5 79.5v910q0 60 -8.5 95.5t-33.5 54t-52.5 24.5t-83.5 10v39h1087l6 -293h-51q-23 136 -81.5 175.5t-229.5 39.5h-277q-20 0 -29 -1t-20 -7.5t-14.5 -21t-3.5 -40.5v-454h315q46 0 78.5 4t56 14.5
t37.5 23.5t24.5 38t16 49t12.5 65h47v-475h-47q-13 86 -33 124.5t-62 54.5t-130 18h-315v-506q0 -64 39 -75t266 -11q192 0 286.5 56.5t161.5 211.5h58zM322 1608q0 35 26 68.5t72 33.5q41 0 71.5 -30.5t30.5 -71.5q0 -42 -30 -72.5t-72 -30.5q-48 0 -73 33t-25 70z
M729 1608q0 35 26 68.5t72 33.5q41 0 72 -30.5t31 -71.5q0 -42 -30.5 -72.5t-72.5 -30.5q-48 0 -73 33t-25 70z" />
    <glyph glyph-name="Igrave" unicode="&#xcc;" horiz-adv-x="681" 
d="M37 0v39q67 2 104.5 9.5t59.5 30t28.5 54.5t6.5 90v910q0 60 -6.5 92t-30 53.5t-59 28.5t-103.5 10v39h608v-39q-42 -2 -67.5 -4.5t-51 -9.5t-38.5 -18.5t-24.5 -32t-15.5 -49.5t-4 -70v-910q0 -61 9 -96t35.5 -54.5t60.5 -25.5t96 -8v-39h-608zM496 1473h-82l-316 198
q-59 38 -59 88q0 3 0.5 8.5t4.5 16t10 18.5t19 14.5t31 6.5q26 0 40.5 -6.5t50.5 -40.5z" />
    <glyph glyph-name="Iacute" unicode="&#xcd;" horiz-adv-x="681" 
d="M37 0v39q67 2 104.5 9.5t59.5 30t28.5 54.5t6.5 90v910q0 60 -6.5 92t-30 53.5t-59 28.5t-103.5 10v39h608v-39q-42 -2 -67.5 -4.5t-51 -9.5t-38.5 -18.5t-24.5 -32t-15.5 -49.5t-4 -70v-910q0 -61 9 -96t35.5 -54.5t60.5 -25.5t96 -8v-39h-608zM272 1473h-82l302 303
q32 32 48.5 39.5t41.5 7.5q30 0 46.5 -16.5t18.5 -28t2 -21.5q0 -49 -61 -86z" />
    <glyph glyph-name="Icircumflex" unicode="&#xce;" horiz-adv-x="681" 
d="M37 0v39q67 2 104.5 9.5t59.5 30t28.5 54.5t6.5 90v910q0 60 -6.5 92t-30 53.5t-59 28.5t-103.5 10v39h608v-39q-42 -2 -67.5 -4.5t-51 -9.5t-38.5 -18.5t-24.5 -32t-15.5 -49.5t-4 -70v-910q0 -61 9 -96t35.5 -54.5t60.5 -25.5t96 -8v-39h-608zM659 1473h-69l-250 210
l-248 -210h-69l253 342h127z" />
    <glyph glyph-name="Idieresis" unicode="&#xcf;" horiz-adv-x="681" 
d="M37 0v39q67 2 104.5 9.5t59.5 30t28.5 54.5t6.5 90v910q0 60 -6.5 92t-30 53.5t-59 28.5t-103.5 10v39h608v-39q-42 -2 -67.5 -4.5t-51 -9.5t-38.5 -18.5t-24.5 -32t-15.5 -49.5t-4 -70v-910q0 -61 9 -96t35.5 -54.5t60.5 -25.5t96 -8v-39h-608zM37 1608q0 35 26 68.5
t72 33.5q41 0 72 -30.5t31 -71.5q0 -42 -30.5 -72.5t-72.5 -30.5q-48 0 -73 33t-25 70zM444 1608q0 35 26.5 68.5t72.5 33.5q41 0 71.5 -30.5t30.5 -71.5q0 -42 -30.5 -72.5t-71.5 -30.5q-48 0 -73.5 33t-25.5 70z" />
    <glyph glyph-name="Eth" unicode="&#xd0;" horiz-adv-x="1478" 
d="M33 1317v39h553q186 0 335.5 -42.5t257.5 -126t166 -214t58 -299.5q0 -62 -10.5 -123.5t-36.5 -129t-65.5 -127t-103 -114.5t-143 -94t-190 -62.5t-240.5 -23.5h-581v39q61 3 94.5 11.5t53.5 30.5t26 53.5t6 88.5v422h-170v90h170v398q0 61 -5 92t-26.5 52t-53 28
t-95.5 12zM721 735v-90h-299v-485q0 -52 24.5 -68t98.5 -16q45 0 77.5 1.5t104 13t124.5 32t119 65t108.5 105.5t72 159t29.5 220q0 293 -191 465q-81 72 -185 107.5t-286 35.5q-34 0 -55 -6t-29 -19.5t-10 -24t-2 -30.5v-465h299z" />
    <glyph glyph-name="Ntilde" unicode="&#xd1;" horiz-adv-x="1478" 
d="M1448 1356v-39q-31 -3 -46 -5.5t-38.5 -7.5t-34.5 -12.5t-26.5 -20.5t-22.5 -31.5t-14.5 -44.5t-10 -60.5t-2.5 -79.5v-1078h-34l-902 1123h-4v-799q0 -107 18 -161.5t57.5 -76t117.5 -24.5v-39h-481v39q63 4 97.5 14t59.5 38.5t33 76.5t8 133v903q-61 74 -97.5 93.5
t-100.5 19.5v39h350l784 -985h4v684q0 59 -4.5 100.5t-16 70t-24.5 45t-39 26.5t-49 13.5t-63 6.5v39h481zM1018 1741h59q-8 -32 -14 -51t-23.5 -54.5t-38 -56.5t-57 -38t-82.5 -17q-43 0 -78 11.5t-88 37.5l-47 22q-48 23 -76 23q-27 0 -48 -9t-33.5 -26t-18.5 -29t-12 -30
h-60q6 37 21.5 71t40.5 66t64.5 51t88.5 19q66 0 136 -37l49 -25q65 -31 98 -31q42 0 67.5 21.5t51.5 81.5z" />
    <glyph glyph-name="Ograve" unicode="&#xd2;" horiz-adv-x="1478" 
d="M739 -29q-139 0 -261 49.5t-212.5 139t-143 223t-52.5 293.5q0 170 57 308t152 223.5t213 131t247 45.5t247 -45.5t213.5 -131t152.5 -223.5t57 -308q0 -160 -52.5 -293.5t-143.5 -223t-213 -139t-261 -49.5zM739 45q88 0 164.5 36.5t138.5 110t98 198.5t36 288
q0 135 -25.5 244.5t-68 180.5t-99.5 119t-118 68.5t-126 20.5t-125.5 -20.5t-118 -68.5t-99.5 -119t-67.5 -180.5t-25.5 -244.5q0 -131 23.5 -238.5t64.5 -179.5t97 -121.5t118.5 -71.5t132.5 -22zM895 1473h-82l-315 198q-60 38 -60 88q0 8 2.5 19.5t19 28t44.5 16.5
q26 0 39.5 -6.5t50.5 -40.5z" />
    <glyph glyph-name="Oacute" unicode="&#xd3;" horiz-adv-x="1478" 
d="M739 -29q-139 0 -261 49.5t-212.5 139t-143 223t-52.5 293.5q0 170 57 308t152 223.5t213 131t247 45.5t247 -45.5t213.5 -131t152.5 -223.5t57 -308q0 -160 -52.5 -293.5t-143.5 -223t-213 -139t-261 -49.5zM739 45q88 0 164.5 36.5t138.5 110t98 198.5t36 288
q0 135 -25.5 244.5t-68 180.5t-99.5 119t-118 68.5t-126 20.5t-125.5 -20.5t-118 -68.5t-99.5 -119t-67.5 -180.5t-25.5 -244.5q0 -131 23.5 -238.5t64.5 -179.5t97 -121.5t118.5 -71.5t132.5 -22zM672 1473h-82l301 303q32 32 48.5 39.5t41.5 7.5q23 0 38 -8.5t21 -22
t7.5 -21.5t1.5 -14q0 -49 -62 -86z" />
    <glyph glyph-name="Ocircumflex" unicode="&#xd4;" horiz-adv-x="1478" 
d="M739 -29q-139 0 -261 49.5t-212.5 139t-143 223t-52.5 293.5q0 170 57 308t152 223.5t213 131t247 45.5t247 -45.5t213.5 -131t152.5 -223.5t57 -308q0 -160 -52.5 -293.5t-143.5 -223t-213 -139t-261 -49.5zM739 45q88 0 164.5 36.5t138.5 110t98 198.5t36 288
q0 135 -25.5 244.5t-68 180.5t-99.5 119t-118 68.5t-126 20.5t-125.5 -20.5t-118 -68.5t-99.5 -119t-67.5 -180.5t-25.5 -244.5q0 -131 23.5 -238.5t64.5 -179.5t97 -121.5t118.5 -71.5t132.5 -22zM1059 1473h-70l-250 210l-247 -210h-70l254 342h127z" />
    <glyph glyph-name="Otilde" unicode="&#xd5;" horiz-adv-x="1478" 
d="M739 -29q-139 0 -261 49.5t-212.5 139t-143 223t-52.5 293.5q0 170 57 308t152 223.5t213 131t247 45.5t247 -45.5t213.5 -131t152.5 -223.5t57 -308q0 -160 -52.5 -293.5t-143.5 -223t-213 -139t-261 -49.5zM739 45q88 0 164.5 36.5t138.5 110t98 198.5t36 288
q0 135 -25.5 244.5t-68 180.5t-99.5 119t-118 68.5t-126 20.5t-125.5 -20.5t-118 -68.5t-99.5 -119t-67.5 -180.5t-25.5 -244.5q0 -131 23.5 -238.5t64.5 -179.5t97 -121.5t118.5 -71.5t132.5 -22zM1018 1741h59q-8 -32 -14 -51t-23.5 -54.5t-38 -56.5t-57 -38t-82.5 -17
q-43 0 -78 11.5t-88 37.5l-47 22q-48 23 -76 23q-27 0 -48 -9t-33.5 -26t-18.5 -29t-12 -30h-60q6 37 21.5 71t40.5 66t64.5 51t88.5 19q66 0 136 -37l49 -25q65 -31 98 -31q42 0 67.5 21.5t51.5 81.5z" />
    <glyph glyph-name="Odieresis" unicode="&#xd6;" horiz-adv-x="1478" 
d="M739 -29q-139 0 -261 49.5t-212.5 139t-143 223t-52.5 293.5q0 170 57 308t152 223.5t213 131t247 45.5t247 -45.5t213.5 -131t152.5 -223.5t57 -308q0 -160 -52.5 -293.5t-143.5 -223t-213 -139t-261 -49.5zM739 45q88 0 164.5 36.5t138.5 110t98 198.5t36 288
q0 135 -25.5 244.5t-68 180.5t-99.5 119t-118 68.5t-126 20.5t-125.5 -20.5t-118 -68.5t-99.5 -119t-67.5 -180.5t-25.5 -244.5q0 -131 23.5 -238.5t64.5 -179.5t97 -121.5t118.5 -71.5t132.5 -22zM436 1608q0 35 26.5 68.5t72.5 33.5q41 0 71.5 -30.5t30.5 -71.5
q0 -42 -30.5 -72.5t-71.5 -30.5q-48 0 -73.5 33t-25.5 70zM844 1608q0 35 26 68.5t72 33.5q41 0 71.5 -30.5t30.5 -71.5q0 -42 -30 -72.5t-72 -30.5q-48 0 -73 33t-25 70z" />
    <glyph glyph-name="multiply" unicode="&#xd7;" horiz-adv-x="1155" 
d="M479 518l-401 402l98 98l402 -404l403 404l98 -98l-403 -402l403 -403l-98 -99l-403 404l-402 -404l-98 99z" />
    <glyph glyph-name="Oslash" unicode="&#xd8;" horiz-adv-x="1478" 
d="M1079 1106l-630 -926q112 -135 290 -135q88 0 164.5 36.5t138.5 110t98 198.5t36 288q0 264 -97 428zM397 252l631 926q-116 133 -289 133q-65 0 -125.5 -20.5t-118 -68.5t-99.5 -119t-67.5 -180.5t-25.5 -244.5q0 -267 94 -426zM1348 1503l-181 -266
q113 -94 177.5 -235.5t64.5 -325.5q0 -160 -52.5 -293.5t-143.5 -223t-213 -139t-261 -49.5q-204 0 -362 103l-162 -238h-100l194 285q-113 93 -176 234.5t-63 320.5q0 170 57 308t152 223.5t213 131t247 45.5q201 0 361 -100l147 219h101z" />
    <glyph glyph-name="Ugrave" unicode="&#xd9;" horiz-adv-x="1478" 
d="M1444 1356v-39q-43 -4 -69.5 -9.5t-50.5 -17.5t-36.5 -29t-21.5 -46t-12 -66.5t-3 -93.5v-535q0 -51 -1.5 -83t-11.5 -96t-28.5 -107t-57.5 -97t-93.5 -87t-141.5 -56t-196 -23q-82 0 -151 14.5t-118 36.5t-88.5 57.5t-64 68.5t-42 78t-26 77t-13 76t-5 64t-0.5 51v639
q0 60 -6 92t-28 53t-54.5 28t-95.5 11v39h579v-39q-64 -5 -98 -13t-55 -29.5t-27 -52.5t-6 -89v-656q0 -41 1 -65.5t7.5 -73.5t19 -81t39 -72.5t63 -65t95 -41.5t131.5 -17q116 0 203 43.5t133 118.5q47 78 47 279v553q0 83 -9 132.5t-34 77.5t-58 38.5t-91 13.5v39h475z
M895 1473h-82l-315 198q-60 38 -60 88q0 8 2.5 19.5t19 28t44.5 16.5q26 0 39.5 -6.5t50.5 -40.5z" />
    <glyph glyph-name="Uacute" unicode="&#xda;" horiz-adv-x="1478" 
d="M1444 1356v-39q-43 -4 -69.5 -9.5t-50.5 -17.5t-36.5 -29t-21.5 -46t-12 -66.5t-3 -93.5v-535q0 -51 -1.5 -83t-11.5 -96t-28.5 -107t-57.5 -97t-93.5 -87t-141.5 -56t-196 -23q-82 0 -151 14.5t-118 36.5t-88.5 57.5t-64 68.5t-42 78t-26 77t-13 76t-5 64t-0.5 51v639
q0 60 -6 92t-28 53t-54.5 28t-95.5 11v39h579v-39q-64 -5 -98 -13t-55 -29.5t-27 -52.5t-6 -89v-656q0 -41 1 -65.5t7.5 -73.5t19 -81t39 -72.5t63 -65t95 -41.5t131.5 -17q116 0 203 43.5t133 118.5q47 78 47 279v553q0 83 -9 132.5t-34 77.5t-58 38.5t-91 13.5v39h475z
M836 1473h-82l301 303q32 32 48.5 39.5t41.5 7.5q30 0 46.5 -16.5t18.5 -28t2 -21.5q0 -49 -61 -86z" />
    <glyph glyph-name="Ucircumflex" unicode="&#xdb;" horiz-adv-x="1478" 
d="M1444 1356v-39q-43 -4 -69.5 -9.5t-50.5 -17.5t-36.5 -29t-21.5 -46t-12 -66.5t-3 -93.5v-535q0 -51 -1.5 -83t-11.5 -96t-28.5 -107t-57.5 -97t-93.5 -87t-141.5 -56t-196 -23q-82 0 -151 14.5t-118 36.5t-88.5 57.5t-64 68.5t-42 78t-26 77t-13 76t-5 64t-0.5 51v639
q0 60 -6 92t-28 53t-54.5 28t-95.5 11v39h579v-39q-64 -5 -98 -13t-55 -29.5t-27 -52.5t-6 -89v-656q0 -41 1 -65.5t7.5 -73.5t19 -81t39 -72.5t63 -65t95 -41.5t131.5 -17q116 0 203 43.5t133 118.5q47 78 47 279v553q0 83 -9 132.5t-34 77.5t-58 38.5t-91 13.5v39h475z
M1059 1473h-70l-250 210l-247 -210h-70l254 342h127z" />
    <glyph glyph-name="Udieresis" unicode="&#xdc;" horiz-adv-x="1478" 
d="M1444 1356v-39q-43 -4 -69.5 -9.5t-50.5 -17.5t-36.5 -29t-21.5 -46t-12 -66.5t-3 -93.5v-535q0 -51 -1.5 -83t-11.5 -96t-28.5 -107t-57.5 -97t-93.5 -87t-141.5 -56t-196 -23q-82 0 -151 14.5t-118 36.5t-88.5 57.5t-64 68.5t-42 78t-26 77t-13 76t-5 64t-0.5 51v639
q0 60 -6 92t-28 53t-54.5 28t-95.5 11v39h579v-39q-64 -5 -98 -13t-55 -29.5t-27 -52.5t-6 -89v-656q0 -41 1 -65.5t7.5 -73.5t19 -81t39 -72.5t63 -65t95 -41.5t131.5 -17q116 0 203 43.5t133 118.5q47 78 47 279v553q0 83 -9 132.5t-34 77.5t-58 38.5t-91 13.5v39h475z
M436 1608q0 35 26.5 68.5t72.5 33.5q41 0 71.5 -30.5t30.5 -71.5q0 -42 -30.5 -72.5t-71.5 -30.5q-48 0 -73.5 33t-25.5 70zM844 1608q0 35 26 68.5t72 33.5q41 0 71.5 -30.5t30.5 -71.5q0 -42 -30 -72.5t-72 -30.5q-48 0 -73 33t-25 70z" />
    <glyph glyph-name="Yacute" unicode="&#xdd;" horiz-adv-x="1478" 
d="M1440 1356v-39q-36 -4 -57.5 -10t-57 -27.5t-76.5 -70t-92 -126.5l-303 -462v-398q0 -59 6.5 -91t30 -54.5t63.5 -30t111 -8.5v-39h-627v39q44 1 75 5t54 10t37 19.5t22.5 26t12.5 38.5t5 47t1 61v356l-268 393q-53 78 -90.5 130t-68.5 88t-50.5 55t-42.5 30t-37.5 14
t-42.5 5v39h573v-39q-35 -1 -52 -2.5t-39 -5.5t-31 -10t-16 -17.5t-7 -28.5q0 -35 35 -88l303 -454l293 463q29 48 29 75q0 22 -12.5 37t-36 21t-44 8t-49.5 2v39h449zM754 1473h-82l301 303q32 32 48.5 39.5t41.5 7.5q30 0 46.5 -16.5t18.5 -28t2 -21.5q0 -49 -61 -86z" />
    <glyph glyph-name="Thorn" unicode="&#xde;" horiz-adv-x="1138" 
d="M606 39v-39h-573v39q37 3 63.5 8.5t45.5 11.5t31 21t18.5 26t9.5 37.5t3.5 44.5t0.5 58v887q0 109 -30 141.5t-142 42.5v39h567v-39q-66 -6 -99.5 -14.5t-56 -34t-27.5 -65t-3 -113.5h164q240 0 386 -98.5t146 -270.5q0 -159 -125 -277q-66 -63 -169.5 -91.5
t-264.5 -28.5q-63 0 -137 6v-107q0 -112 36.5 -146.5t155.5 -37.5zM414 944v-532q58 -6 123 -6q19 0 32 0.5t42 3t50.5 8t52 16t53 25.5t46.5 39t39 54t25 72.5t10 92.5q0 295 -389 295q-28 0 -39.5 -1t-24.5 -7.5t-16.5 -20.5t-3.5 -39z" />
    <glyph glyph-name="germandbls" unicode="&#xdf;" 
d="M25 0v31q22 2 31 3t26.5 4.5t24.5 8.5t17.5 15.5t14.5 24.5t7.5 35.5t3.5 49.5v758q0 31 0.5 50.5t4 60t9.5 69t19 68.5t31 68.5t46.5 59t64 49.5t85.5 31.5t110 12.5q46 0 92 -10t91.5 -33t80.5 -57t56.5 -86t21.5 -115q0 -112 -55.5 -183t-218.5 -141v-4q47 -6 93 -20
t97.5 -44.5t90 -72.5t64 -109.5t25.5 -150.5q0 -95 -43 -183.5t-127.5 -148t-191.5 -59.5q-59 0 -102 16t-63 41t-29 47.5t-9 42.5q0 44 26 72t66 28q36 0 59.5 -24.5t26.5 -57.5l4 -45q1 -12 3 -20.5t7.5 -19t18 -16t31.5 -5.5q41 0 68 23.5t40 69.5t18 96.5t5 121.5
q0 230 -121 330q-32 26 -74 37.5t-71 11.5t-49.5 7.5t-20.5 27.5q0 16 19 23.5t47 9.5t61 15t61 36t47 77.5t19 133.5q0 138 -51 210t-129 72q-50 0 -87 -20.5t-54.5 -46.5t-27.5 -61.5t-11.5 -54t-1.5 -36.5v-1124h-297z" />
    <glyph glyph-name="agrave" unicode="&#xe0;" horiz-adv-x="909" 
d="M588 252v297q-88 -29 -152.5 -62.5t-98 -62t-53 -61t-24 -54t-4.5 -47.5v-4q0 -71 38.5 -115.5t96.5 -44.5q30 0 68.5 13t58.5 24q45 22 57.5 45t12.5 72zM905 135v-53q-88 -102 -182 -102q-13 0 -22.5 1t-26 5t-28.5 13.5t-25 25t-21 42.5t-10 62q-167 -149 -297 -149
q-89 0 -153 57.5t-64 155.5q0 126 101 208q78 64 286 148q38 15 121 47l1 1h1l2 1v125q0 52 -15.5 88t-41.5 52.5t-50 23t-51 6.5q-55 0 -100 -27.5t-45 -72.5q0 -17 5 -45t5 -35q0 -34 -27 -61t-65 -27q-43 0 -65.5 29.5t-22.5 60.5q0 33 19.5 70.5t57.5 73.5t105.5 59.5
t151.5 23.5q49 0 90.5 -7.5t71 -19t53 -31.5t38.5 -37.5t25.5 -45.5t15.5 -47t7.5 -49.5t3 -46.5t0.5 -44v-399q0 -20 0.5 -30t2 -26.5t5 -25.5t10 -19t17 -14t24.5 -4q42 0 92 39zM610 1038h-82l-315 199q-59 38 -59 88q0 3 0.5 8.5t4.5 16t10 18.5t19 14.5t31 6.5
q26 0 39.5 -7t50.5 -41z" />
    <glyph glyph-name="aacute" unicode="&#xe1;" horiz-adv-x="909" 
d="M588 252v297q-88 -29 -152.5 -62.5t-98 -62t-53 -61t-24 -54t-4.5 -47.5v-4q0 -71 38.5 -115.5t96.5 -44.5q30 0 68.5 13t58.5 24q45 22 57.5 45t12.5 72zM905 135v-53q-88 -102 -182 -102q-13 0 -22.5 1t-26 5t-28.5 13.5t-25 25t-21 42.5t-10 62q-167 -149 -297 -149
q-89 0 -153 57.5t-64 155.5q0 126 101 208q78 64 286 148q38 15 121 47l1 1h1l2 1v125q0 52 -15.5 88t-41.5 52.5t-50 23t-51 6.5q-55 0 -100 -27.5t-45 -72.5q0 -17 5 -45t5 -35q0 -34 -27 -61t-65 -27q-43 0 -65.5 29.5t-22.5 60.5q0 33 19.5 70.5t57.5 73.5t105.5 59.5
t151.5 23.5q49 0 90.5 -7.5t71 -19t53 -31.5t38.5 -37.5t25.5 -45.5t15.5 -47t7.5 -49.5t3 -46.5t0.5 -44v-399q0 -20 0.5 -30t2 -26.5t5 -25.5t10 -19t17 -14t24.5 -4q42 0 92 39zM387 1038h-82l301 303q33 33 49 40.5t41 7.5q23 0 38 -8.5t21 -22t7.5 -21.5t1.5 -14
q0 -49 -62 -86z" />
    <glyph glyph-name="acircumflex" unicode="&#xe2;" horiz-adv-x="909" 
d="M588 252v297q-88 -29 -152.5 -62.5t-98 -62t-53 -61t-24 -54t-4.5 -47.5v-4q0 -71 38.5 -115.5t96.5 -44.5q30 0 68.5 13t58.5 24q45 22 57.5 45t12.5 72zM905 135v-53q-88 -102 -182 -102q-13 0 -22.5 1t-26 5t-28.5 13.5t-25 25t-21 42.5t-10 62q-167 -149 -297 -149
q-89 0 -153 57.5t-64 155.5q0 126 101 208q78 64 286 148q38 15 121 47l1 1h1l2 1v125q0 52 -15.5 88t-41.5 52.5t-50 23t-51 6.5q-55 0 -100 -27.5t-45 -72.5q0 -17 5 -45t5 -35q0 -34 -27 -61t-65 -27q-43 0 -65.5 29.5t-22.5 60.5q0 33 19.5 70.5t57.5 73.5t105.5 59.5
t151.5 23.5q49 0 90.5 -7.5t71 -19t53 -31.5t38.5 -37.5t25.5 -45.5t15.5 -47t7.5 -49.5t3 -46.5t0.5 -44v-399q0 -20 0.5 -30t2 -26.5t5 -25.5t10 -19t17 -14t24.5 -4q42 0 92 39zM774 1038h-69l-250 211l-248 -211h-70l254 342h127z" />
    <glyph glyph-name="atilde" unicode="&#xe3;" horiz-adv-x="909" 
d="M588 252v297q-88 -29 -152.5 -62.5t-98 -62t-53 -61t-24 -54t-4.5 -47.5v-4q0 -71 38.5 -115.5t96.5 -44.5q30 0 68.5 13t58.5 24q45 22 57.5 45t12.5 72zM905 135v-53q-88 -102 -182 -102q-13 0 -22.5 1t-26 5t-28.5 13.5t-25 25t-21 42.5t-10 62q-167 -149 -297 -149
q-89 0 -153 57.5t-64 155.5q0 126 101 208q78 64 286 148q38 15 121 47l1 1h1l2 1v125q0 52 -15.5 88t-41.5 52.5t-50 23t-51 6.5q-55 0 -100 -27.5t-45 -72.5q0 -17 5 -45t5 -35q0 -34 -27 -61t-65 -27q-43 0 -65.5 29.5t-22.5 60.5q0 33 19.5 70.5t57.5 73.5t105.5 59.5
t151.5 23.5q49 0 90.5 -7.5t71 -19t53 -31.5t38.5 -37.5t25.5 -45.5t15.5 -47t7.5 -49.5t3 -46.5t0.5 -44v-399q0 -20 0.5 -30t2 -26.5t5 -25.5t10 -19t17 -14t24.5 -4q42 0 92 39zM733 1307h60q-8 -32 -14 -51t-23.5 -54.5t-38 -56.5t-57 -38t-82.5 -17q-43 0 -78 11.5
t-88 37.5l-47 22q-48 23 -76 23q-27 0 -48 -9t-33.5 -25.5t-19 -29t-12.5 -30.5h-59q14 81 68 143.5t147 62.5q67 0 135 -36l49 -25q65 -31 98 -31q42 0 67.5 21.5t51.5 81.5z" />
    <glyph glyph-name="adieresis" unicode="&#xe4;" horiz-adv-x="909" 
d="M588 252v297q-88 -29 -152.5 -62.5t-98 -62t-53 -61t-24 -54t-4.5 -47.5v-4q0 -71 38.5 -115.5t96.5 -44.5q30 0 68.5 13t58.5 24q45 22 57.5 45t12.5 72zM905 135v-53q-88 -102 -182 -102q-13 0 -22.5 1t-26 5t-28.5 13.5t-25 25t-21 42.5t-10 62q-167 -149 -297 -149
q-89 0 -153 57.5t-64 155.5q0 126 101 208q78 64 286 148q38 15 121 47l1 1h1l2 1v125q0 52 -15.5 88t-41.5 52.5t-50 23t-51 6.5q-55 0 -100 -27.5t-45 -72.5q0 -17 5 -45t5 -35q0 -34 -27 -61t-65 -27q-43 0 -65.5 29.5t-22.5 60.5q0 33 19.5 70.5t57.5 73.5t105.5 59.5
t151.5 23.5q49 0 90.5 -7.5t71 -19t53 -31.5t38.5 -37.5t25.5 -45.5t15.5 -47t7.5 -49.5t3 -46.5t0.5 -44v-399q0 -20 0.5 -30t2 -26.5t5 -25.5t10 -19t17 -14t24.5 -4q42 0 92 39zM152 1174q0 35 26 68.5t72 33.5q41 0 71.5 -30.5t30.5 -71.5q0 -42 -30 -72.5t-72 -30.5
q-48 0 -73 33t-25 70zM559 1174q0 35 26 68.5t72 33.5q41 0 72 -30.5t31 -71.5q0 -42 -30.5 -72.5t-72.5 -30.5q-48 0 -73 33t-25 70z" />
    <glyph glyph-name="aring" unicode="&#xe5;" horiz-adv-x="909" 
d="M588 252v297q-88 -29 -152.5 -62.5t-98 -62t-53 -61t-24 -54t-4.5 -47.5v-4q0 -71 38.5 -115.5t96.5 -44.5q30 0 68.5 13t58.5 24q45 22 57.5 45t12.5 72zM905 135v-53q-88 -102 -182 -102q-13 0 -22.5 1t-26 5t-28.5 13.5t-25 25t-21 42.5t-10 62q-167 -149 -297 -149
q-89 0 -153 57.5t-64 155.5q0 126 101 208q78 64 286 148q38 15 121 47l1 1h1l2 1v125q0 52 -15.5 88t-41.5 52.5t-50 23t-51 6.5q-55 0 -100 -27.5t-45 -72.5q0 -17 5 -45t5 -35q0 -34 -27 -61t-65 -27q-43 0 -65.5 29.5t-22.5 60.5q0 33 19.5 70.5t57.5 73.5t105.5 59.5
t151.5 23.5q49 0 90.5 -7.5t71 -19t53 -31.5t38.5 -37.5t25.5 -45.5t15.5 -47t7.5 -49.5t3 -46.5t0.5 -44v-399q0 -20 0.5 -30t2 -26.5t5 -25.5t10 -19t17 -14t24.5 -4q42 0 92 39zM252 1251q0 84 59 144.5t144 60.5t144.5 -60t59.5 -145t-59.5 -143.5t-144.5 -58.5
q-87 0 -145 59t-58 143zM455 1386q-62 0 -97.5 -44t-35.5 -89q0 -47 34.5 -91t96.5 -44q58 0 97.5 38.5t39.5 94.5t-39 95.5t-96 39.5z" />
    <glyph glyph-name="ae" unicode="&#xe6;" horiz-adv-x="1366" 
d="M1270 315l24 -10q-36 -85 -82.5 -148t-88 -96t-88.5 -52.5t-76.5 -24t-59.5 -4.5q-50 0 -93 11.5t-68.5 25t-50.5 38t-34.5 37.5t-25.5 37q-46 -38 -73 -58.5t-68 -45t-83 -35t-90 -10.5q-60 0 -107.5 21.5t-74 55t-40 70t-13.5 70.5q0 46 10.5 82t43 69.5t61 56
t97.5 55.5t116.5 53t152.5 62q4 106 1.5 176.5t-31 106t-93.5 35.5q-64 0 -104.5 -28.5t-34.5 -86.5l2 -22q14 -133 -90 -133q-33 0 -59.5 23.5t-26.5 76.5q0 94 94.5 156.5t228.5 62.5q63 0 113.5 -15.5t74.5 -32t56 -44.5q64 51 118.5 71.5t131.5 20.5q47 0 87.5 -10
t70 -25t53.5 -40t40 -47.5t29 -54.5t19.5 -55t12 -55t7 -48t3.5 -40h-537q0 -59 0.5 -90t5.5 -86.5t14.5 -87t28.5 -72t46.5 -62t70 -37t96.5 -15.5q80 0 154 55t129 143zM256 244q0 -23 7.5 -49t23 -53.5t46 -45.5t70.5 -18q38 0 85.5 19.5t79.5 43.5t32 39q0 2 -9.5 30.5
t-19 83t-10.5 118.5l-2 106q-127 -44 -191.5 -82.5t-88 -81t-23.5 -110.5zM727 629h340q0 254 -158 254q-35 0 -63.5 -10t-46.5 -24.5t-31.5 -39t-20.5 -44t-11.5 -49.5t-6 -45.5t-2.5 -41.5z" />
    <glyph glyph-name="ccedilla" unicode="&#xe7;" horiz-adv-x="909" 
d="M815 319l29 -18q-134 -284 -344 -315l-45 -119q27 6 57 6q80 0 126 -37.5t46 -105.5q0 -70 -63 -120t-185 -50q-97 0 -180 32l29 64q23 -9 67.5 -17t59.5 -8q118 0 118 93q0 71 -92 71q-53 0 -73 -8l-15 10l76 183q-50 1 -101 18t-101 53t-88 87.5t-61.5 128.5t-23.5 169
q0 121 40.5 220t106.5 160t146.5 93.5t165.5 32.5q54 0 115.5 -18.5t101.5 -44.5q42 -30 65 -71t23 -73q0 -37 -25 -62t-69 -28h-6q-34 0 -59 28.5t-35 65.5l-13 45q-8 29 -13 42t-19 29t-38.5 22t-64.5 6q-26 0 -57 -8.5t-68.5 -33.5t-67.5 -63.5t-50.5 -106t-20.5 -153.5
q0 -173 90.5 -282t222.5 -109q53 0 97 14.5t79.5 43.5t61 59t55.5 75z" />
    <glyph glyph-name="egrave" unicode="&#xe8;" horiz-adv-x="909" 
d="M836 336l32 -14q-8 -27 -24 -60.5t-53 -86t-82.5 -94t-118.5 -71.5t-156 -30q-173 0 -278 121.5t-105 336.5q0 109 28 197.5t71.5 144t100.5 93.5t111.5 53.5t106.5 15.5q153 0 248 -91t112 -284h-636q7 -104 30.5 -184.5t55.5 -129t74 -79.5t81.5 -42t83.5 -11
q52 0 99 16t78 36.5t61.5 54.5t45 55t34.5 53zM199 633h422q-4 28 -7 44.5t-10 44.5t-15.5 45.5t-23.5 38.5t-33.5 33t-46 20.5t-61.5 8.5q-90 0 -145.5 -53t-79.5 -182zM610 1038h-82l-315 199q-59 38 -59 88q0 3 0.5 8.5t4.5 16t10 18.5t19 14.5t31 6.5q26 0 39.5 -7
t50.5 -41z" />
    <glyph glyph-name="eacute" unicode="&#xe9;" horiz-adv-x="909" 
d="M836 336l32 -14q-8 -27 -24 -60.5t-53 -86t-82.5 -94t-118.5 -71.5t-156 -30q-173 0 -278 121.5t-105 336.5q0 109 28 197.5t71.5 144t100.5 93.5t111.5 53.5t106.5 15.5q153 0 248 -91t112 -284h-636q7 -104 30.5 -184.5t55.5 -129t74 -79.5t81.5 -42t83.5 -11
q52 0 99 16t78 36.5t61.5 54.5t45 55t34.5 53zM199 633h422q-4 28 -7 44.5t-10 44.5t-15.5 45.5t-23.5 38.5t-33.5 33t-46 20.5t-61.5 8.5q-90 0 -145.5 -53t-79.5 -182zM469 1038h-82l301 303q33 33 49 40.5t41 7.5q23 0 38 -8.5t21 -22t7.5 -21.5t1.5 -14q0 -49 -62 -86z
" />
    <glyph glyph-name="ecircumflex" unicode="&#xea;" horiz-adv-x="909" 
d="M836 336l32 -14q-8 -27 -24 -60.5t-53 -86t-82.5 -94t-118.5 -71.5t-156 -30q-173 0 -278 121.5t-105 336.5q0 109 28 197.5t71.5 144t100.5 93.5t111.5 53.5t106.5 15.5q153 0 248 -91t112 -284h-636q7 -104 30.5 -184.5t55.5 -129t74 -79.5t81.5 -42t83.5 -11
q52 0 99 16t78 36.5t61.5 54.5t45 55t34.5 53zM199 633h422q-4 28 -7 44.5t-10 44.5t-15.5 45.5t-23.5 38.5t-33.5 33t-46 20.5t-61.5 8.5q-90 0 -145.5 -53t-79.5 -182zM774 1038h-69l-250 211l-248 -211h-70l254 342h127z" />
    <glyph glyph-name="edieresis" unicode="&#xeb;" horiz-adv-x="909" 
d="M836 336l32 -14q-8 -27 -24 -60.5t-53 -86t-82.5 -94t-118.5 -71.5t-156 -30q-173 0 -278 121.5t-105 336.5q0 109 28 197.5t71.5 144t100.5 93.5t111.5 53.5t106.5 15.5q153 0 248 -91t112 -284h-636q7 -104 30.5 -184.5t55.5 -129t74 -79.5t81.5 -42t83.5 -11
q52 0 99 16t78 36.5t61.5 54.5t45 55t34.5 53zM199 633h422q-4 28 -7 44.5t-10 44.5t-15.5 45.5t-23.5 38.5t-33.5 33t-46 20.5t-61.5 8.5q-90 0 -145.5 -53t-79.5 -182zM152 1174q0 35 26 68.5t72 33.5q41 0 71.5 -30.5t30.5 -71.5q0 -42 -30 -72.5t-72 -30.5q-48 0 -73 33
t-25 70zM559 1174q0 35 26 68.5t72 33.5q41 0 72 -30.5t31 -71.5q0 -42 -30.5 -72.5t-72.5 -30.5q-48 0 -73 33t-25 70z" />
    <glyph glyph-name="igrave" unicode="&#xec;" horiz-adv-x="569" 
d="M33 0v31q54 3 80 8t47.5 23.5t28 52t6.5 94.5v475q0 43 -6 70t-18.5 37.5t-22 13t-25.5 2.5q-28 0 -82 -8v30l317 113l9 -6v-727q0 -46 2.5 -70.5t10 -47.5t24.5 -33.5t44 -17.5t70 -9v-31h-485zM440 1038h-82l-315 199q-59 38 -59 88q0 3 0.5 8.5t4.5 16t10 18.5
t19 14.5t31 6.5q26 0 39.5 -7t50.5 -41z" />
    <glyph glyph-name="iacute" unicode="&#xed;" horiz-adv-x="569" 
d="M33 0v31q54 3 80 8t47.5 23.5t28 52t6.5 94.5v475q0 43 -6 70t-18.5 37.5t-22 13t-25.5 2.5q-28 0 -82 -8v30l317 113l9 -6v-727q0 -46 2.5 -70.5t10 -47.5t24.5 -33.5t44 -17.5t70 -9v-31h-485zM217 1038h-82l301 303q33 33 49 40.5t41 7.5q23 0 38 -8.5t21 -22
t7.5 -21.5t1.5 -14q0 -49 -62 -86z" />
    <glyph glyph-name="icircumflex" unicode="&#xee;" horiz-adv-x="569" 
d="M33 0v31q54 3 80 8t47.5 23.5t28 52t6.5 94.5v475q0 43 -6 70t-18.5 37.5t-22 13t-25.5 2.5q-28 0 -82 -8v30l317 113l9 -6v-727q0 -46 2.5 -70.5t10 -47.5t24.5 -33.5t44 -17.5t70 -9v-31h-485zM604 1038h-69l-250 211l-248 -211h-70l254 342h127z" />
    <glyph glyph-name="idieresis" unicode="&#xef;" horiz-adv-x="569" 
d="M33 0v31q54 3 80 8t47.5 23.5t28 52t6.5 94.5v475q0 43 -6 70t-18.5 37.5t-22 13t-25.5 2.5q-28 0 -82 -8v30l317 113l9 -6v-727q0 -46 2.5 -70.5t10 -47.5t24.5 -33.5t44 -17.5t70 -9v-31h-485zM-18 1174q0 35 26 68.5t72 33.5q41 0 71.5 -30.5t30.5 -71.5
q0 -42 -30 -72.5t-72 -30.5q-48 0 -73 33t-25 70zM389 1174q0 35 26 68.5t72 33.5q41 0 72 -30.5t31 -71.5q0 -42 -30.5 -72.5t-72.5 -30.5q-48 0 -73 33t-25 70z" />
    <glyph glyph-name="eth" unicode="&#xf0;" 
d="M539 37q43 0 82.5 17.5t76.5 57t59.5 116t22.5 180.5q0 226 -86 351.5t-207 125.5q-103 0 -173 -83t-70 -233q0 -44 5 -94t16.5 -112.5t34 -118.5t53.5 -103.5t79 -75.5t107 -28zM553 1178l-252 -134l-68 62l248 131q-132 95 -272 115l86 47q177 -12 311 -96l195 102
l67 -62l-186 -98q138 -116 210.5 -294t72.5 -369q0 -86 -17 -170t-54 -162.5t-89 -138t-128.5 -95.5t-166.5 -36q-195 0 -323 136.5t-128 334.5q0 135 53 246t155.5 178t234.5 67q65 0 121 -27t122 -90l5 4q-31 189 -197 349z" />
    <glyph glyph-name="ntilde" unicode="&#xf1;" 
d="M164 184v508q0 46 -6 74.5t-18.5 40t-22 14t-25.5 2.5q-43 0 -59 -8v35q165 48 282 92l15 -4v-162q48 45 74 67.5t65.5 49.5t77.5 38t82 11q31 0 61 -7.5t63.5 -28.5t58 -54t40.5 -89t16 -128v-469q0 -73 25.5 -101t99.5 -34v-31h-426v31q35 3 53.5 8t38.5 21.5t28.5 51
t8.5 91.5v428q0 99 -35 148.5t-122 49.5q-84 0 -203 -116v-576q0 -53 29 -77.5t106 -28.5v-31h-434v31q74 5 100.5 35t26.5 118zM791 1307h59q-8 -32 -14 -51t-23.5 -54.5t-38 -56.5t-57 -38t-82.5 -17q-43 0 -78 11.5t-88 37.5l-47 22q-48 23 -76 23q-27 0 -48 -9
t-33.5 -25.5t-19 -29t-12.5 -30.5h-59q14 81 68 143.5t147 62.5q67 0 135 -36l49 -25q65 -31 99 -31q42 0 67.5 21.5t51.5 81.5z" />
    <glyph glyph-name="ograve" unicode="&#xf2;" 
d="M502 942q205 0 333 -128t128 -347q0 -63 -17 -129t-54 -130.5t-89 -115t-128.5 -81.5t-166.5 -31q-196 0 -322.5 139t-126.5 348q0 127 52.5 234.5t155 174t235.5 66.5zM537 37q43 0 82.5 17.5t76.5 57t59.5 116t22.5 180.5q0 129 -33.5 236t-101 174t-158.5 67
q-103 0 -172 -83.5t-69 -236.5q0 -53 6.5 -114t26.5 -137t50.5 -135.5t85 -100.5t124.5 -41zM668 1038h-82l-316 199q-59 38 -59 88q0 3 0.5 8.5t4.5 16t10 18.5t19 14.5t31 6.5q26 0 40 -7t51 -41z" />
    <glyph glyph-name="oacute" unicode="&#xf3;" 
d="M502 942q205 0 333 -128t128 -347q0 -63 -17 -129t-54 -130.5t-89 -115t-128.5 -81.5t-166.5 -31q-196 0 -322.5 139t-126.5 348q0 127 52.5 234.5t155 174t235.5 66.5zM537 37q43 0 82.5 17.5t76.5 57t59.5 116t22.5 180.5q0 129 -33.5 236t-101 174t-158.5 67
q-103 0 -172 -83.5t-69 -236.5q0 -53 6.5 -114t26.5 -137t50.5 -135.5t85 -100.5t124.5 -41zM444 1038h-82l302 303q33 33 49 40.5t41 7.5q30 0 46.5 -16.5t18.5 -28t2 -21.5q0 -49 -61 -86z" />
    <glyph glyph-name="ocircumflex" unicode="&#xf4;" 
d="M502 942q205 0 333 -128t128 -347q0 -63 -17 -129t-54 -130.5t-89 -115t-128.5 -81.5t-166.5 -31q-196 0 -322.5 139t-126.5 348q0 127 52.5 234.5t155 174t235.5 66.5zM537 37q43 0 82.5 17.5t76.5 57t59.5 116t22.5 180.5q0 129 -33.5 236t-101 174t-158.5 67
q-103 0 -172 -83.5t-69 -236.5q0 -53 6.5 -114t26.5 -137t50.5 -135.5t85 -100.5t124.5 -41zM831 1038h-69l-250 211l-248 -211h-69l254 342h126z" />
    <glyph glyph-name="otilde" unicode="&#xf5;" 
d="M502 942q205 0 333 -128t128 -347q0 -63 -17 -129t-54 -130.5t-89 -115t-128.5 -81.5t-166.5 -31q-196 0 -322.5 139t-126.5 348q0 127 52.5 234.5t155 174t235.5 66.5zM537 37q43 0 82.5 17.5t76.5 57t59.5 116t22.5 180.5q0 129 -33.5 236t-101 174t-158.5 67
q-103 0 -172 -83.5t-69 -236.5q0 -53 6.5 -114t26.5 -137t50.5 -135.5t85 -100.5t124.5 -41zM791 1307h59q-8 -32 -14 -51t-23.5 -54.5t-38 -56.5t-57 -38t-82.5 -17q-43 0 -78 11.5t-88 37.5l-47 22q-48 23 -76 23q-27 0 -48 -9t-33.5 -25.5t-19 -29t-12.5 -30.5h-59
q14 81 68 143.5t147 62.5q67 0 135 -36l49 -25q65 -31 99 -31q42 0 67.5 21.5t51.5 81.5z" />
    <glyph glyph-name="odieresis" unicode="&#xf6;" 
d="M502 942q205 0 333 -128t128 -347q0 -63 -17 -129t-54 -130.5t-89 -115t-128.5 -81.5t-166.5 -31q-196 0 -322.5 139t-126.5 348q0 127 52.5 234.5t155 174t235.5 66.5zM537 37q43 0 82.5 17.5t76.5 57t59.5 116t22.5 180.5q0 129 -33.5 236t-101 174t-158.5 67
q-103 0 -172 -83.5t-69 -236.5q0 -53 6.5 -114t26.5 -137t50.5 -135.5t85 -100.5t124.5 -41zM209 1174q0 35 26 68.5t72 33.5q41 0 72 -30.5t31 -71.5q0 -42 -30.5 -72.5t-72.5 -30.5q-48 0 -73 33t-25 70zM616 1174q0 35 26.5 68.5t72.5 33.5q41 0 71.5 -30.5t30.5 -71.5
q0 -42 -30.5 -72.5t-71.5 -30.5q-48 0 -73.5 33t-25.5 70z" />
    <glyph glyph-name="divide" unicode="&#xf7;" horiz-adv-x="1155" 
d="M1094 451h-1033v135h1033v-135zM578 829q-39 0 -76 29t-37 82q0 49 33.5 83t79.5 34t80 -35t34 -82q0 -52 -37.5 -81.5t-76.5 -29.5zM578 -20q-39 0 -76 28.5t-37 81.5q0 49 33.5 83t79.5 34t80 -35t34 -82q0 -52 -37.5 -81t-76.5 -29z" />
    <glyph glyph-name="oslash" unicode="&#xf8;" 
d="M696 750l-329 -627q67 -86 170 -86q43 0 82.5 17.5t76.5 57t59.5 116t22.5 180.5q0 206 -82 342zM895 1128l-133 -256q96 -60 148.5 -163.5t52.5 -241.5q0 -63 -17 -129t-54 -130.5t-89 -115t-128.5 -81.5t-166.5 -31q-106 0 -193 43l-133 -252h-76l150 286
q-93 65 -145 172.5t-52 237.5q0 127 52.5 234.5t155 174t235.5 66.5q109 0 196 -37l117 223h80zM324 188l325 623q-71 74 -164 74q-103 0 -172 -83.5t-69 -236.5q0 -84 19 -190t61 -187z" />
    <glyph glyph-name="ugrave" unicode="&#xf9;" 
d="M981 102v-28q-115 -30 -285 -92l-4 4v170l-88 -88q-88 -88 -215 -88q-28 0 -58 6.5t-64 25t-60.5 47t-44 77t-17.5 110.5v516q0 35 -8 60t-18 38t-30.5 20.5t-33 9t-37.5 3.5v29h299v-668q0 -12 3 -28t13 -39.5t25.5 -42.5t45 -32.5t67.5 -13.5q88 0 178 74q33 29 33 104
v482q0 36 -4 55t-18.5 38t-45.5 27t-84 9v35h324v-703q0 -33 2.5 -50t13 -35t34 -25t63.5 -7h14zM668 1038h-82l-316 199q-59 38 -59 88q0 3 0.5 8.5t4.5 16t10 18.5t19 14.5t31 6.5q26 0 40 -7t51 -41z" />
    <glyph glyph-name="uacute" unicode="&#xfa;" 
d="M981 102v-28q-115 -30 -285 -92l-4 4v170l-88 -88q-88 -88 -215 -88q-28 0 -58 6.5t-64 25t-60.5 47t-44 77t-17.5 110.5v516q0 35 -8 60t-18 38t-30.5 20.5t-33 9t-37.5 3.5v29h299v-668q0 -12 3 -28t13 -39.5t25.5 -42.5t45 -32.5t67.5 -13.5q88 0 178 74q33 29 33 104
v482q0 36 -4 55t-18.5 38t-45.5 27t-84 9v35h324v-703q0 -33 2.5 -50t13 -35t34 -25t63.5 -7h14zM444 1038h-82l302 303q33 33 49 40.5t41 7.5q30 0 46.5 -16.5t18.5 -28t2 -21.5q0 -49 -61 -86z" />
    <glyph glyph-name="ucircumflex" unicode="&#xfb;" 
d="M981 102v-28q-115 -30 -285 -92l-4 4v170l-88 -88q-88 -88 -215 -88q-28 0 -58 6.5t-64 25t-60.5 47t-44 77t-17.5 110.5v516q0 35 -8 60t-18 38t-30.5 20.5t-33 9t-37.5 3.5v29h299v-668q0 -12 3 -28t13 -39.5t25.5 -42.5t45 -32.5t67.5 -13.5q88 0 178 74q33 29 33 104
v482q0 36 -4 55t-18.5 38t-45.5 27t-84 9v35h324v-703q0 -33 2.5 -50t13 -35t34 -25t63.5 -7h14zM831 1038h-69l-250 211l-248 -211h-69l254 342h126z" />
    <glyph glyph-name="udieresis" unicode="&#xfc;" 
d="M981 102v-28q-115 -30 -285 -92l-4 4v170l-88 -88q-88 -88 -215 -88q-28 0 -58 6.5t-64 25t-60.5 47t-44 77t-17.5 110.5v516q0 35 -8 60t-18 38t-30.5 20.5t-33 9t-37.5 3.5v29h299v-668q0 -12 3 -28t13 -39.5t25.5 -42.5t45 -32.5t67.5 -13.5q88 0 178 74q33 29 33 104
v482q0 36 -4 55t-18.5 38t-45.5 27t-84 9v35h324v-703q0 -33 2.5 -50t13 -35t34 -25t63.5 -7h14zM209 1174q0 35 26 68.5t72 33.5q41 0 72 -30.5t31 -71.5q0 -42 -30.5 -72.5t-72.5 -30.5q-48 0 -73 33t-25 70zM616 1174q0 35 26.5 68.5t72.5 33.5q41 0 71.5 -30.5
t30.5 -71.5q0 -42 -30.5 -72.5t-71.5 -30.5q-48 0 -73.5 33t-25.5 70z" />
    <glyph glyph-name="yacute" unicode="&#xfd;" 
d="M973 922v-31q-21 -3 -32.5 -6.5t-32 -25t-34.5 -60.5l-315 -836q-82 -216 -159.5 -312.5t-188.5 -96.5q-71 0 -110.5 36.5t-39.5 81.5q0 6 1 14t7 22.5t15.5 25.5t29.5 19.5t46 8.5q31 0 83 -18t62 -18q37 0 74 44t61 101.5t39 106t15 63.5q0 14 -23.5 67t-60.5 128
t-43 88l-234 503q-27 55 -104 66v29h422v-31q-25 -1 -39.5 -2.5t-36.5 -7t-32.5 -18.5t-10.5 -32q0 -26 20 -73l236 -518l160 454q47 129 47 140q0 57 -90 57h-9v31h277zM526 1038h-82l301 303q32 32 49 40t42 8q30 0 46.5 -16.5t18.5 -28t2 -21.5q0 -49 -61 -86z" />
    <glyph glyph-name="thorn" unicode="&#xfe;" 
d="M154 -268v1442q0 29 -2 43t-10 31t-27 23.5t-52 6.5t-45 -2v33q197 54 297 90l11 -6v-605h-2l4 -4q125 158 297 158q141 0 239.5 -121t98.5 -319q0 -91 -28 -181.5t-80 -167.5t-136.5 -125t-186.5 -48q-62 0 -109 19.5t-97 68.5v-322q0 -97 34 -125.5t146 -28.5v-36h-496
v36q50 3 79.5 12t43.5 29t17.5 40.5t3.5 58.5zM326 684v-504q0 -40 65 -87.5t144 -47.5q17 0 35.5 3t44 13.5t48 27t46 47t40 70.5t27 100.5t10.5 133.5q0 16 -1 36t-7 59t-15.5 74t-29.5 75t-46 68.5t-68 47.5t-93 19q-61 0 -126.5 -40t-73.5 -95z" />
    <glyph glyph-name="ydieresis" unicode="&#xff;" 
d="M973 922v-31q-21 -3 -32.5 -6.5t-32 -25t-34.5 -60.5l-315 -836q-82 -216 -159.5 -312.5t-188.5 -96.5q-71 0 -110.5 36.5t-39.5 81.5q0 6 1 14t7 22.5t15.5 25.5t29.5 19.5t46 8.5q31 0 83 -18t62 -18q37 0 74 44t61 101.5t39 106t15 63.5q0 14 -23.5 67t-60.5 128
t-43 88l-234 503q-27 55 -104 66v29h422v-31q-25 -1 -39.5 -2.5t-36.5 -7t-32.5 -18.5t-10.5 -32q0 -26 20 -73l236 -518l160 454q47 129 47 140q0 57 -90 57h-9v31h277zM209 1174q0 35 26 68.5t72 33.5q41 0 72 -30.5t31 -71.5q0 -42 -30.5 -72.5t-72.5 -30.5q-48 0 -73 33
t-25 70zM616 1174q0 35 26.5 68.5t72.5 33.5q41 0 71.5 -30.5t30.5 -71.5q0 -42 -30.5 -72.5t-71.5 -30.5q-48 0 -73.5 33t-25.5 70z" />
    <glyph glyph-name="dotlessi" unicode="&#x131;" horiz-adv-x="569" 
d="M33 0v31q54 3 80 8t47.5 23.5t28 52t6.5 94.5v475q0 43 -6 70t-18.5 37.5t-22 13t-25.5 2.5q-28 0 -82 -8v30l317 113l9 -6v-727q0 -46 2.5 -70.5t10 -47.5t24.5 -33.5t44 -17.5t70 -9v-31h-485z" />
    <glyph glyph-name="Lslash" unicode="&#x141;" horiz-adv-x="1251" 
d="M1225 356l-99 -356h-1101v39q44 3 69.5 7.5t49 15.5t35 30.5t18 51t6.5 79.5v348l-178 -108v100l178 111v459q0 60 -8.5 95.5t-33.5 54t-52.5 24.5t-83.5 10v39h577v-39q-59 -3 -89.5 -9t-56.5 -25t-35 -54t-9 -96v-359l317 195v-101l-317 -192v-512q0 -59 35.5 -71.5
t170.5 -12.5q68 0 108 1t91.5 4.5t81.5 11t67.5 21t62 33.5t52 49t49.5 67.5t44 88.5h51z" />
    <glyph glyph-name="lslash" unicode="&#x142;" horiz-adv-x="569" 
d="M43 0v31q93 6 125.5 35t32.5 112v469l-160 -106v90l160 108v416q0 73 -17 99t-75 26q-20 0 -70 -4v33q200 50 326 90l8 -4v-537l157 109v-90l-157 -107v-598q0 -45 6.5 -71.5t26 -41.5t45.5 -20.5t75 -7.5v-31h-483z" />
    <glyph glyph-name="OE" unicode="&#x152;" horiz-adv-x="1820" 
d="M1716 1067h-47q-5 43 -15 75t-23 55.5t-35.5 38.5t-45.5 24.5t-61 14t-73.5 6t-90.5 1.5h-104q-63 0 -91 -4.5t-35.5 -13.5t-7.5 -31v-483q267 0 334 10q79 13 106 57q20 32 34 131h45v-479h-45q-8 81 -29 124.5t-68 57.5q-40 16 -95.5 19.5t-281.5 3.5v-502
q0 -62 25.5 -78t89.5 -16l254 4q41 2 73.5 11.5t71.5 36t79.5 80t82.5 134.5h49l-90 -344h-716q-96 0 -187 -6q-20 -1 -57 -2.5t-67.5 -2.5t-57.5 -1q-116 0 -219 43t-183 123.5t-127 207t-47 281.5q0 188 50 329.5t140 226.5t207.5 127t260.5 42q27 0 115 -6q177 -6 215 -6
h667v-289zM883 268v811q0 35 -3.5 62t-16 57t-34 50t-59.5 33t-90 13q-83 0 -149 -33t-110.5 -90t-74 -136t-42.5 -168.5t-13 -190.5q0 -107 12.5 -197t41 -168t73 -132t111.5 -85t153 -31q62 0 103.5 16t62 46.5t28 63.5t7.5 79z" />
    <glyph glyph-name="oe" unicode="&#x153;" horiz-adv-x="1478" 
d="M1391 297l22 -12q-28 -61 -56.5 -107t-72 -95t-103 -76t-130.5 -27q-99 0 -163.5 48t-103.5 146q-26 -53 -61.5 -91.5t-66.5 -57.5t-67 -30t-56 -13t-41 -2q-60 0 -119 15.5t-116 51.5t-100 89t-69.5 135t-26.5 182q0 30 4.5 65.5t16.5 84t31 94t52.5 91t75.5 79
t104 54.5t136 21q180 0 305 -156q20 27 31.5 41.5t38.5 40t52 39t64 24.5t83 11q32 0 67 -6.5t83 -30.5t85 -62t63.5 -110t26.5 -166h-520q17 -450 268 -450q46 0 88.5 18t78 51.5t54 55.5t42.5 55zM465 883q-28 0 -56 -8t-58 -30t-53 -55t-37.5 -88.5t-14.5 -126.5
q0 -47 1 -83t6 -96t14 -105t27.5 -96t43 -84.5t63.5 -55.5t88 -22q114 0 163.5 101t49.5 288q0 32 -1.5 63t-7 79t-14.5 89t-27 85t-42 74.5t-61.5 50.5t-83.5 20zM858 629h328v55q0 79 -43.5 139t-114.5 60q-40 0 -70.5 -14t-48 -39.5t-29 -51t-15.5 -58.5t-5.5 -51
t-1.5 -40z" />
    <glyph glyph-name="Scaron" unicode="&#x160;" horiz-adv-x="1138" 
d="M915 1384l46 -436h-52q-14 65 -45 126t-77.5 112.5t-114 82.5t-144.5 31q-83 0 -144.5 -50t-61.5 -140q0 -49 23.5 -93t63 -79.5t91 -69.5t108 -66.5t113 -67t108 -75.5t91 -86t63 -104.5t23.5 -126.5q0 -53 -16.5 -105.5t-52 -100.5t-85.5 -84.5t-122 -58.5t-157 -22
q-68 0 -133.5 17.5t-113 35t-70.5 17.5q-30 0 -46.5 -20.5t-16.5 -47.5h-46l-61 435h47q13 -33 21 -51.5t30.5 -61.5t43.5 -71t56 -65.5t72 -59.5t88.5 -38t108.5 -16q116 0 181 68t65 159q0 49 -10 82.5t-44 76t-101 91t-179 113.5q-66 38 -106.5 64.5t-86 64.5t-70 75
t-41 87.5t-16.5 109.5q0 84 32 152t85 110t118 64t136 22q70 0 169 -34.5t116 -34.5q59 0 71 69h43zM889 1815l-256 -342h-127l-254 342h70l247 -211l250 211h70z" />
    <glyph glyph-name="scaron" unicode="&#x161;" horiz-adv-x="796" 
d="M645 643h-31q-16 75 -41 127t-56 78t-62 36.5t-68 10.5q-77 0 -116.5 -42.5t-39.5 -90.5q0 -94 88 -146l222 -131q88 -53 130 -104.5t42 -136.5q0 -64 -27.5 -116t-72 -83.5t-95.5 -48t-102 -16.5q-49 0 -129.5 18t-104.5 18h-4q-18 0 -27 -5t-18 -19h-27v319h33
q6 -27 9 -39t11 -40.5t15 -43.5t19.5 -40.5t25 -40t32 -32.5t41 -27t50 -16t61.5 -7q40 0 75 12t63 47t28 90q0 93 -106 152l-119 67q-57 32 -92.5 57t-73.5 61.5t-56 81t-18 99.5q0 97 74.5 173.5t212.5 76.5q52 0 115 -20.5t74 -20.5q17 0 34 23h23zM717 1380l-256 -342
h-127l-254 342h70l247 -211l250 211h70z" />
    <glyph glyph-name="Ydieresis" unicode="&#x178;" horiz-adv-x="1478" 
d="M1440 1356v-39q-36 -4 -57.5 -10t-57 -27.5t-76.5 -70t-92 -126.5l-303 -462v-398q0 -59 6.5 -91t30 -54.5t63.5 -30t111 -8.5v-39h-627v39q44 1 75 5t54 10t37 19.5t22.5 26t12.5 38.5t5 47t1 61v356l-268 393q-53 78 -90.5 130t-68.5 88t-50.5 55t-42.5 30t-37.5 14
t-42.5 5v39h573v-39q-35 -1 -52 -2.5t-39 -5.5t-31 -10t-16 -17.5t-7 -28.5q0 -35 35 -88l303 -454l293 463q29 48 29 75q0 22 -12.5 37t-36 21t-44 8t-49.5 2v39h449zM436 1608q0 35 26.5 68.5t72.5 33.5q41 0 71.5 -30.5t30.5 -71.5q0 -42 -30.5 -72.5t-71.5 -30.5
q-48 0 -73.5 33t-25.5 70zM844 1608q0 35 26 68.5t72 33.5q41 0 71.5 -30.5t30.5 -71.5q0 -42 -30 -72.5t-72 -30.5q-48 0 -73 33t-25 70z" />
    <glyph glyph-name="Zcaron" unicode="&#x17d;" horiz-adv-x="1251" 
d="M1176 360h47l-49 -360h-1156v31l895 1247h-452q-61 0 -109.5 -9t-81 -19.5t-58.5 -35.5t-39.5 -40.5t-26 -52.5t-16.5 -52.5t-12 -58.5q-1 -3 -1 -4h-54l41 350h1078v-31l-885 -1247h526q40 0 74 3.5t61.5 12t50 17t41.5 24t33 27.5t26.5 34t20.5 36.5t17.5 41t14.5 41.5
t14 45zM944 1815l-256 -342h-127l-254 342h70l248 -211l249 211h70z" />
    <glyph glyph-name="zcaron" unicode="&#x17e;" horiz-adv-x="909" 
d="M856 276l-29 -276h-772v31l545 829h-283q-32 0 -56 -5t-41 -11t-29.5 -20.5t-19 -25.5t-12.5 -34.5t-8 -38t-6 -45.5h-36l6 242h710v-31l-551 -830h283q80 0 126.5 9.5t73.5 44.5t36 63t25 104q1 2 1 3zM774 1380l-256 -342h-127l-254 342h70l248 -211l250 211h69z" />
    <glyph glyph-name="florin" unicode="&#x192;" 
d="M885 834l-21 -64h-246q-11 -78 -37 -287.5t-44 -302.5q-54 -285 -137 -426t-224 -141q-74 0 -118 41t-44 102q0 48 32 69t63 21q34 0 53.5 -20t19.5 -55q0 -22 -15 -48t-15 -34q0 -11 10.5 -19t27.5 -8q143 0 172 356l31 353q17 211 47 368l4 31h-227l21 64h219
q5 35 9.5 63.5t19 89t31.5 108t47.5 104.5t66.5 95t89 64t114 26q74 0 122 -43t48 -92q0 -44 -29 -70t-68 -26q-35 0 -55.5 23.5t-20.5 46.5q0 18 13.5 43t13.5 32q0 27 -45 27q-28 0 -51 -14t-39.5 -35.5t-30.5 -59.5t-23 -74.5t-17.5 -93t-13.5 -101.5t-11 -113h258z" />
    <glyph glyph-name="circumflex" unicode="&#x2c6;" horiz-adv-x="681" 
d="M659 1038h-69l-250 211l-248 -211h-69l253 342h127z" />
    <glyph glyph-name="caron" unicode="&#x2c7;" horiz-adv-x="681" 
d="M659 1380l-256 -342h-127l-253 342h69l248 -211l250 211h69z" />
    <glyph glyph-name="uni02C9" unicode="&#x2c9;" horiz-adv-x="681" 
d="M23 1231h636v-111h-636v111z" />
    <glyph glyph-name="breve" unicode="&#x2d8;" horiz-adv-x="681" 
d="M569 1360h60q-2 -22 -4 -38.5t-11 -52.5t-20.5 -63t-34 -60.5t-51.5 -55.5t-73.5 -37t-98.5 -15q-120 0 -203 82.5t-80 239.5h60q15 -95 72.5 -147t154.5 -52q33 0 60 6.5t46.5 14.5t37.5 26t27.5 30t22.5 39t18 39t17 44z" />
    <glyph glyph-name="dotaccent" unicode="&#x2d9;" horiz-adv-x="681" 
d="M242 1174q0 35 26 68.5t72 33.5q41 0 71.5 -30.5t30.5 -71.5q0 -42 -30 -72.5t-72 -30.5q-48 0 -73 33t-25 70z" />
    <glyph glyph-name="ring" unicode="&#x2da;" horiz-adv-x="681" 
d="M137 1251q0 84 59 144.5t144 60.5t145 -60t60 -145q0 -84 -60 -143t-145 -59q-87 0 -145 59t-58 143zM340 1386q-62 0 -97.5 -44t-35.5 -89q0 -47 34.5 -91t96.5 -44q58 0 97.5 38.5t39.5 94.5t-39 95.5t-96 39.5z" />
    <glyph glyph-name="ogonek" unicode="&#x2db;" horiz-adv-x="681" 
d="M469 -150l41 -32q-43 -67 -102 -111.5t-123 -44.5q-68 0 -111 43.5t-43 122.5q0 45 35 94t76 78h94q-90 -71 -90 -141q0 -37 22 -59.5t51 -22.5q41 0 75 18.5t75 54.5z" />
    <glyph glyph-name="tilde" unicode="&#x2dc;" horiz-adv-x="681" 
d="M618 1307h60q-8 -32 -14 -51t-23.5 -54.5t-38 -56.5t-57 -38t-82.5 -17q-43 0 -78 11.5t-88 37.5l-47 22q-48 23 -76 23q-27 0 -48 -9t-33.5 -25.5t-19 -29t-12.5 -30.5h-59q14 81 68 143.5t147 62.5q67 0 135 -36l49 -25q65 -31 99 -31q42 0 67 21.5t51 81.5z" />
    <glyph glyph-name="hungarumlaut" unicode="&#x2dd;" horiz-adv-x="681" 
d="M395 1038h-82l301 303q32 32 49 40t42 8q30 0 46.5 -16.5t18.5 -28t2 -21.5q0 -49 -61 -86zM76 1038h-82l301 303q33 33 49 40.5t41 7.5q23 0 38 -8.5t21 -22t7.5 -21.5t1.5 -14q0 -49 -62 -86z" />
    <glyph glyph-name="uni03A9" unicode="&#x3a9;" horiz-adv-x="1339" 
d="M1276 283l-45 -283h-438l-15 35q11 24 53.5 111.5t66 142.5t54.5 140.5t46 167t14 159.5q-1 150 -29.5 262.5t-78 177t-108.5 95t-128 30.5q-74 0 -133 -30t-107 -95t-74 -178.5t-26 -269.5q0 -116 38 -252.5t69.5 -208.5t100.5 -212q13 -27 19 -40l-14 -35h-437l-43 283
l50 2q28 -91 56.5 -118.5t86.5 -27.5h190q-45 42 -79.5 77t-82 97.5t-78 124t-53 147t-22.5 175.5q0 140 42.5 257.5t115.5 197t172.5 123.5t212.5 44q236 0 386 -164.5t150 -443.5q0 -82 -21.5 -163t-51.5 -142.5t-78 -128t-84.5 -108t-87.5 -93.5h200q60 0 86 25t54 121z
" />
    <glyph glyph-name="uni03BC" unicode="&#x3bc;" horiz-adv-x="1044" 
d="M881 922v-734q0 -27 1 -42t6.5 -40.5t20 -38t37.5 -12.5q42 0 103 58v-17q-50 -68 -95.5 -92t-105.5 -24q-73 0 -107 52.5t-34 125.5h-5q-45 -79 -119 -128.5t-151 -49.5q-162 0 -239 143l-5 -4q5 -61 39.5 -197.5t34.5 -202.5q0 -79 -21 -122t-73 -43t-73 43t-21 122
q0 61 24.5 194.5t24.5 197.5v811h180v-627q0 -87 45.5 -138t134.5 -51q71 0 133 42.5t84 87.5v686h181z" />
    <glyph glyph-name="pi" unicode="&#x3c0;" horiz-adv-x="1060" 
d="M961 928l47 -17q-21 -112 -68 -178q-39 -10 -127 -10q-8 -97 -8 -451q0 -91 19.5 -135.5t62.5 -44.5q26 0 45 13t47 45l25 -41q-34 -64 -87.5 -99t-109.5 -35q-80 0 -125 57t-45 199q0 182 20 498q-55 0 -151 2t-131 2v-35q0 -159 -15 -291.5t-37.5 -212t-40.5 -123
t-32 -61.5q-61 -28 -117 -35l-12 35q66 86 108 225.5t56 261t14 238.5q-59 1 -104.5 -11t-69 -26t-68.5 -47l-28 43q53 66 77 88q97 88 246 88q14 0 201 -4t295 -4q44 0 67 13t46 53z" />
    <glyph glyph-name="uni2010" unicode="&#x2010;" horiz-adv-x="681" 
d="M80 526h504v-129h-504v129z" />
    <glyph glyph-name="endash" unicode="&#x2013;" 
d="M0 512h1024v-100h-1024v100z" />
    <glyph glyph-name="emdash" unicode="&#x2014;" horiz-adv-x="2048" 
d="M0 512h2048v-100h-2048v100z" />
    <glyph glyph-name="quoteleft" unicode="&#x2018;" horiz-adv-x="681" 
d="M465 1384l18 -38q-62 -40 -102.5 -86t-53 -77t-12.5 -55q0 -13 9 -20.5t20 -7.5q2 0 18 4q12 4 31 4q50 0 88.5 -23.5t38.5 -78.5q0 -60 -36.5 -89.5t-82.5 -29.5q-22 0 -46 7.5t-53 26t-47.5 60.5t-18.5 102q0 51 27 105t65 93.5t75 67t62 35.5z" />
    <glyph glyph-name="quoteright" unicode="&#x2019;" horiz-adv-x="681" 
d="M217 887l-18 39q62 40 102.5 86t53 76.5t12.5 54.5q0 13 -9 20.5t-20 7.5q-3 0 -19 -4q-12 -4 -30 -4q-50 0 -88.5 24t-38.5 79q0 60 36.5 89t82.5 29q22 0 46 -7.5t53 -26t47.5 -60.5t18.5 -102q0 -51 -27 -105t-65 -93.5t-75 -67t-62 -35.5z" />
    <glyph glyph-name="quotesinglbase" unicode="&#x201a;" horiz-adv-x="681" 
d="M217 -289l-18 39q62 40 102.5 86t53 76.5t12.5 54.5q0 13 -9 21t-20 8q-3 0 -19 -4q-12 -4 -30 -4q-50 0 -88.5 23.5t-38.5 78.5q0 60 36.5 89.5t82.5 29.5q22 0 46.5 -7.5t53 -26.5t47 -61t18.5 -102q0 -51 -27 -105t-65 -93.5t-75 -67t-62 -35.5z" />
    <glyph glyph-name="quotedblleft" unicode="&#x201c;" horiz-adv-x="909" 
d="M317 1384l19 -38q-62 -40 -102.5 -86t-53 -77t-12.5 -55q0 -13 9 -20.5t20 -7.5q2 0 18 4q12 4 31 4q50 0 88.5 -23.5t38.5 -78.5q0 -60 -36.5 -89.5t-82.5 -29.5q-17 0 -35.5 4t-43 16.5t-43 33t-31.5 57.5t-13 85q0 51 27 105t65 93.5t75 67t62 35.5zM793 1384l18 -38
q-62 -40 -102.5 -86t-53 -77t-12.5 -55q0 -13 9 -20.5t20 -7.5q2 0 18 4q12 4 31 4q50 0 88.5 -23.5t38.5 -78.5q0 -60 -36.5 -89.5t-82.5 -29.5q-17 0 -35.5 4t-43 16.5t-43 33t-31.5 57.5t-13 85q0 51 27 105t65.5 93.5t75.5 67t62 35.5z" />
    <glyph glyph-name="quotedblright" unicode="&#x201d;" horiz-adv-x="909" 
d="M117 887l-19 39q62 40 102.5 86t53 76.5t12.5 54.5q0 13 -8.5 20.5t-19.5 7.5q-3 0 -19 -4q-12 -4 -31 -4q-50 0 -88.5 24t-38.5 79q0 60 36.5 89t82.5 29q17 0 35.5 -4t43 -16.5t43 -33t31.5 -57.5t13 -85q0 -51 -27 -105t-65 -93.5t-75 -67t-62 -35.5zM592 887l-19 39
q62 40 102.5 86t53 76.5t12.5 54.5q0 13 -8.5 20.5t-19.5 7.5q-3 0 -19 -4q-12 -4 -30 -4q-50 0 -88.5 24t-38.5 79q0 60 36 89t82 29q17 0 35.5 -4t43 -16.5t43 -33t31.5 -57.5t13 -85q0 -51 -27 -105t-65 -93.5t-75 -67t-62 -35.5z" />
    <glyph glyph-name="quotedblbase" unicode="&#x201e;" horiz-adv-x="909" 
d="M147 -289l-18 39q62 40 102.5 86t53 76.5t12.5 54.5q0 13 -9 21t-20 8q-2 0 -18 -4q-12 -4 -31 -4q-50 0 -88.5 23.5t-38.5 78.5q0 60 36.5 89.5t82.5 29.5q17 0 35.5 -4t43 -17t43 -33t31.5 -57.5t13 -85.5q0 -51 -27 -105t-65.5 -93.5t-75.5 -67t-62 -35.5zM623 -289
l-19 39q62 40 102.5 86t53 76.5t12.5 54.5q0 13 -9 21t-20 8q-2 0 -18 -4q-12 -4 -31 -4q-50 0 -88.5 23.5t-38.5 78.5q0 60 36.5 89.5t82.5 29.5q17 0 35.5 -4t43 -17t43 -33t31.5 -57.5t13 -85.5q0 -51 -27 -105t-65 -93.5t-75 -67t-62 -35.5z" />
    <glyph glyph-name="dagger" unicode="&#x2020;" 
d="M537 -305h-43l-2 252q-3 176 -30 340t-56 231q30 31 49.5 80t26.5 111t8.5 98.5t1.5 89.5q-59 -4 -105.5 -16t-69.5 -23.5t-52 -21t-60 -9.5q-34 0 -59 21t-25 70q0 43 26 65.5t58 22.5q37 0 72.5 -17t87.5 -35t127 -20q1 84 -10.5 145.5t-25.5 88t-26 58t-12 62.5
q0 39 28.5 67.5t67.5 28.5q37 0 65.5 -29t28.5 -67q0 -31 -11.5 -62.5t-25.5 -58t-25.5 -88t-10.5 -145.5q59 1 105 12.5t69 25t52 24t60 10.5q32 0 58 -22.5t26 -65.5q0 -49 -25 -70t-59 -21q-38 0 -72.5 15t-86.5 32.5t-127 22.5q0 -53 1.5 -89.5t8.5 -98.5t26.5 -111
t49.5 -80q-31 -65 -56.5 -228.5t-25.5 -342.5z" />
    <glyph glyph-name="daggerdbl" unicode="&#x2021;" 
d="M905 918q0 -49 -25 -70t-59 -21q-38 0 -72.5 15t-86.5 32.5t-127 22.5q0 -3 -0.5 -32t0 -42t2 -45t4.5 -52t9 -50.5t14.5 -53t21.5 -47t30 -43.5q-13 -14 -24.5 -32t-19.5 -34.5t-14.5 -39t-11 -38t-7 -41t-4 -38.5t-2.5 -39.5t-1 -35v-33.5v-27q59 4 105.5 16t69.5 23.5
t52 21t60 9.5q34 0 59 -20.5t25 -69.5q0 -43 -26 -65.5t-58 -22.5q-31 0 -60.5 10.5t-52 23.5t-69 24.5t-105.5 12.5q-1 -84 10.5 -145.5t25.5 -88t26 -58t12 -62.5q0 -38 -28.5 -67t-65.5 -29q-39 0 -67.5 28.5t-28.5 67.5q0 31 11.5 62.5t25.5 58t25.5 88t10.5 145.5
q-59 -1 -105 -12.5t-69 -24.5t-52 -23.5t-60 -10.5q-32 0 -58 22.5t-26 65.5q0 49 25 69.5t59 20.5q38 0 72.5 -15t86.5 -32.5t127 -22.5v17q0 51 -1.5 84.5t-8 89.5t-24.5 98.5t-47 68.5q31 39 50 89t25.5 111.5t7.5 87.5t1 77q-59 -4 -105.5 -16t-69.5 -23.5t-52 -21
t-60 -9.5q-34 0 -59 21t-25 70q0 43 26 65.5t58 22.5q37 0 72.5 -17t87.5 -35t127 -20q1 84 -10.5 145.5t-25.5 88t-26 58t-12 62.5q0 39 28.5 67.5t67.5 28.5q37 0 65.5 -29t28.5 -67q0 -31 -11.5 -62.5t-25.5 -58t-25.5 -88t-10.5 -145.5q59 1 105 12.5t69 25t52 24
t60 10.5q32 0 58 -22.5t26 -65.5z" />
    <glyph glyph-name="bullet" unicode="&#x2022;" horiz-adv-x="716" 
d="M635 678q0 -114 -81 -195.5t-196 -81.5t-195.5 80.5t-80.5 196.5q-2 116 78.5 196t197.5 80q116 0 196.5 -80.5t80.5 -195.5z" />
    <glyph glyph-name="ellipsis" unicode="&#x2026;" horiz-adv-x="2048" 
d="M340 -23q-39 0 -76 29t-37 82q0 49 33.5 83t79.5 34t80.5 -35t34.5 -82q0 -52 -38 -81.5t-77 -29.5zM1022 -23q-39 0 -76 29t-37 82q0 49 33.5 83t79.5 34t80.5 -35t34.5 -82q0 -52 -38 -81.5t-77 -29.5zM1704 -23q-39 0 -76 29t-37 82q0 49 33.5 83t79.5 34t80.5 -35
t34.5 -82q0 -52 -38 -81.5t-77 -29.5z" />
    <glyph glyph-name="perthousand" unicode="&#x2030;" horiz-adv-x="2048" 
d="M1161 1446l-880 -1483h-97l793 1325l-4 4q-26 -30 -48.5 -47.5t-76 -34t-129.5 -16.5q-43 0 -131 29q8 -46 8 -82q0 -77 -24.5 -159t-66.5 -152.5t-108 -116t-141 -45.5q-15 0 -34 3.5t-48.5 13t-56 31t-50.5 52.5t-38.5 84t-14.5 119t30.5 138t81 133.5t126 101.5
t156.5 40q36 0 64.5 -14t50 -34t47 -40.5t68.5 -34.5t101 -14q39 0 71 7.5t55 17t60.5 40.5t62 53.5t83.5 80.5h90zM160 877q0 -38 9 -70t37.5 -58t74.5 -26q74 0 137 69t96 163t33 180q0 71 -8.5 91t-42.5 34q-14 6 -24 11.5t-19.5 13.5t-14 11.5t-16.5 16t-16 16.5
q-65 -21 -116 -83t-77.5 -136t-39.5 -135t-13 -98zM1096 676q95 0 146.5 -62t51.5 -159q0 -212 -103.5 -353t-229.5 -141q-26 0 -56 7.5t-65.5 28t-63.5 52t-46.5 84.5t-18.5 119q0 104 56.5 203t146.5 160t182 61zM1120 618q-58 0 -110 -54t-83.5 -130t-50 -148.5
t-18.5 -117.5q0 -62 30 -107t81 -45q54 0 101 31t78.5 78t54.5 104t33.5 108.5t10.5 90.5q0 93 -35.5 141.5t-91.5 48.5zM1837 676q95 0 147 -62.5t52 -158.5q0 -107 -30 -201.5t-78 -157.5t-107.5 -99t-118.5 -36q-26 0 -56 7.5t-65.5 28t-63.5 52t-46.5 84.5t-18.5 119
q0 104 56.5 203t146.5 160t182 61zM1862 618q-47 0 -90.5 -36t-74 -90.5t-53.5 -117t-34 -117t-11 -89.5q0 -62 30 -107t81 -45q66 0 122 46t88.5 113.5t50.5 134.5t18 118q0 93 -35.5 141.5t-91.5 48.5z" />
    <glyph glyph-name="guilsinglleft" unicode="&#x2039;" horiz-adv-x="681" 
d="M129 465l64 55q156 131 335 307q19 19 23 22t10 3q21 0 21 -23q0 -6 -11.5 -26t-33 -50t-44 -61.5t-52.5 -70.5t-50 -65.5t-44 -58t-28 -36.5q22 -30 84.5 -106.5t85.5 -106.5q95 -126 95 -158q0 -10 -7 -16t-16 -6q-7 0 -42 34.5t-99.5 98t-118.5 110.5q-4 3 -50.5 44
t-84 74.5t-37.5 35.5z" />
    <glyph glyph-name="guilsinglright" unicode="&#x203a;" horiz-adv-x="681" 
d="M553 455l-64 -56q-156 -131 -335 -307q-18 -18 -22.5 -21t-10.5 -3q-21 0 -21 22q0 25 262 369q-23 30 -84.5 106t-84.5 107q-95 126 -95 157q0 10 7 16.5t16 6.5q7 0 42 -34.5t99.5 -98.5t118.5 -111q5 -4 51 -44.5t83.5 -73.5t37.5 -35z" />
    <glyph glyph-name="fraction" unicode="&#x2044;" horiz-adv-x="342" 
d="M678 1384l-922 -1413h-100l928 1413h94z" />
    <glyph glyph-name="Euro" unicode="&#x20ac;" 
d="M1010 1442l24 -344h-53q-111 284 -289 284q-156 0 -246 -161q-71 -121 -92 -299h588l-49 -101h-547q-4 -62 -4 -102h514l-49 -101h-461q46 -559 348 -559q116 0 279 123l2 -69q-81 -72 -141 -101q-78 -35 -168 -35q-242 0 -381 207q-117 178 -138 434h-114l49 101h63
l5 102h-117l49 101h82q44 212 162 356q144 178 333 178q59 0 166 -43q109 -41 115 -41q44 0 47 70h23z" />
    <glyph glyph-name="afii61289" unicode="&#x2113;" horiz-adv-x="778" 
d="M707 225l38 -32q-113 -218 -313 -218q-131 0 -194 76q-34 45 -49 106.5t-15 178.5v166l-108 -84l-25 47l133 108v258q0 239 19.5 342.5t78.5 176.5q73 98 168 98q83 0 128.5 -74t45.5 -188q0 -163 -71.5 -301t-202.5 -277v-186q0 -187 40 -260.5t124 -73.5q111 0 203 137
zM340 944v-242q78 96 126 226t48 256q0 94 -21.5 148t-62.5 54q-51 0 -70.5 -96t-19.5 -346z" />
    <glyph glyph-name="trademark" unicode="&#x2122;" horiz-adv-x="2007" 
d="M487 1315v-635v-42.5t4 -26.5t7.5 -19.5t18.5 -9.5t28.5 -8t44.5 -5v-41h-350v41q30 3 43.5 4.5t28 7.5t18.5 9.5t8 17.5t4 24.5v37.5v3v3v4v635h-100q-107 0 -140 -139h-41v180h707v-180h-41q-33 139 -137 139h-103zM1362 524l-305 627h-4v-449q0 -71 21 -99t87 -34v-41
h-268v41q65 6 85.5 34t20.5 99v510q-19 46 -58 74.5t-83 28.5v41h248l315 -633l328 633h211v-41q-65 -3 -90 -29.5t-25 -83.5v-522v-42.5t4 -26.5t7.5 -19.5t18.5 -9.5t28.5 -8t44.5 -5v-41h-349v41q30 3 43 4.5t27.5 7.5t18.5 9t8 17t4 24v36v13v475h-4l-312 -631h-22z" />
    <glyph glyph-name="Omega" unicode="&#x2126;" horiz-adv-x="1339" 
d="M1276 283l-45 -283h-438l-15 35q11 24 53.5 111.5t66 142.5t54.5 140.5t46 167t14 159.5q-1 150 -29.5 262.5t-78 177t-108.5 95t-128 30.5q-74 0 -133 -30t-107 -95t-74 -178.5t-26 -269.5q0 -116 38 -252.5t69.5 -208.5t100.5 -212q13 -27 19 -40l-14 -35h-437l-43 283
l50 2q28 -91 56.5 -118.5t86.5 -27.5h190q-45 42 -79.5 77t-82 97.5t-78 124t-53 147t-22.5 175.5q0 140 42.5 257.5t115.5 197t172.5 123.5t212.5 44q236 0 386 -164.5t150 -443.5q0 -82 -21.5 -163t-51.5 -142.5t-78 -128t-84.5 -108t-87.5 -93.5h200q60 0 86 25t54 121z
" />
    <glyph glyph-name="estimated" unicode="&#x212e;" horiz-adv-x="1701" 
d="M1634 657h-1269q-11 0 -11 -8v-385q0 -23 17 -43q95 -98 219 -153.5t260 -55.5q148 0 279.5 62.5t226.5 171.5h112q-107 -126 -270 -199.5t-350 -73.5q-159 0 -304 55.5t-249.5 149.5t-166.5 224.5t-62 273.5q0 144 62 274.5t166.5 224.5t249.5 149.5t304 55.5
q160 0 305.5 -55.5t251 -149.5t167.5 -224.5t62 -274.5v-19zM1346 707v387q0 26 -19 45q-95 94 -218 147t-259 53q-135 0 -258.5 -55t-218.5 -151q-19 -19 -19 -48v-378q0 -4 3.5 -8.5t7.5 -4.5h972q9 0 9 13z" />
    <glyph glyph-name="partialdiff" unicode="&#x2202;" horiz-adv-x="993" 
d="M494 840h2q67 0 133.5 -32.5t109.5 -96.5q16 166 17 211q7 171 -47 309q-31 74 -96 127t-148 53q-131 0 -256 -108q-14 -1 -31 21t-25.5 53.5t-0.5 52.5q118 77 262 77q252 0 389 -278q92 -189 92 -461q0 -124 -22 -258t-66 -234q-62 -140 -158.5 -220.5t-226.5 -80.5
q-156 0 -249 104t-93 286q0 97 31 181.5t79 145.5q53 65 134.5 106.5t169.5 41.5zM535 762h-3q-120 0 -196 -115q-84 -141 -84 -377q-2 -100 44.5 -167.5t125.5 -67.5q66 0 119 61t90 148q36 85 56 170t36 211q-21 49 -72.5 93t-115.5 44z" />
    <glyph glyph-name="Delta" unicode="&#x2206;" horiz-adv-x="1185" 
d="M1118 0h-1055v51l482 1309l76 20l497 -1329v-51zM903 94l-371 1016l-362 -1016h733z" />
    <glyph glyph-name="product" unicode="&#x220f;" horiz-adv-x="1286" 
d="M1233 1364v-51q-65 -6 -96 -11.5t-50 -23.5t-22.5 -40t-3.5 -71v-1124q0 -36 1.5 -57.5t8 -40.5t16.5 -28.5t30.5 -17.5t45.5 -11.5t66 -6.5v-53h-492v53q39 3 60.5 5.5t41 10t27.5 16t14.5 28t7.5 41t1 59.5v1192q0 42 -12.5 53.5t-55.5 11.5h-362q-42 0 -53 -9.5
t-11 -47.5v-1200v-43.5t2 -33t4.5 -27.5t10 -18.5t16 -15.5t24.5 -9t34 -8t46 -5v-53h-477v53q41 3 65.5 6.5t45 11t30 16.5t16 28t8 40.5t1.5 57.5v1126q0 49 -3.5 71.5t-23 40t-50 23t-95.5 11.5v51h1184z" />
    <glyph glyph-name="summation" unicode="&#x2211;" horiz-adv-x="1034" 
d="M989 188l-82 -366h-854v47l420 674l-412 772v49h848q0 -21 23 -313l-55 -11q-24 133 -62 193q-19 39 -56.5 52t-140.5 13h-342l349 -634l-422 -689h469q47 0 72 1.5t52 10t41 21t32.5 40.5t32.5 62.5t34 92.5z" />
    <glyph glyph-name="minus" unicode="&#x2212;" horiz-adv-x="1155" 
d="M1094 451h-1033v135h1033v-135z" />
    <glyph glyph-name="uni2215" unicode="&#x2215;" horiz-adv-x="342" 
d="M678 1384l-922 -1413h-100l928 1413h94z" />
    <glyph glyph-name="uni2219" unicode="&#x2219;" horiz-adv-x="512" 
d="M256 408q-39 0 -76 28.5t-37 81.5q0 49 33.5 83t79.5 34t80.5 -35t34.5 -82q0 -52 -38 -81t-77 -29z" />
    <glyph glyph-name="radical" unicode="&#x221a;" horiz-adv-x="1040" 
d="M1008 1739l-318 -2038l-41 -20l-403 1075l-164 -76l-23 65l301 138l306 -846h4l260 1720z" />
    <glyph glyph-name="infinity" unicode="&#x221e;" horiz-adv-x="1431" 
d="M1339 565v-2q0 -137 -85 -222t-203 -85q-84 0 -162 49.5t-172 165.5q-42 -50 -74.5 -83t-76 -66.5t-91.5 -49.5t-102 -16q-116 0 -200.5 85.5t-84.5 213.5q0 133 85 219t214 86q95 0 175 -55.5t161 -157.5q84 96 126 131q101 82 214 82q121 0 198.5 -82t77.5 -213z
M387 365h2q37 0 73 14.5t69 42.5t57 53t57 62q8 9 12 14q-34 45 -48 62.5t-46.5 52t-55.5 49.5t-57.5 28t-70.5 13q-82 0 -130 -57.5t-48 -145.5q0 -79 52.5 -133.5t133.5 -54.5zM1051 756h-2q-28 0 -57.5 -11t-50.5 -23.5t-49.5 -38.5t-41.5 -40t-40 -45t-32 -37
q94 -111 151.5 -153.5t127.5 -42.5q77 0 124.5 58.5t47.5 131.5q0 91 -49.5 146t-128.5 55z" />
    <glyph glyph-name="integral" unicode="&#x222b;" horiz-adv-x="718" 
d="M305 18l-39 809q-37 824 299 824q43 0 81 -25t38 -67t-26 -65.5t-62 -23.5q-21 0 -36 14.5t-21.5 32t-17.5 32t-25 14.5q-13 0 -24.5 -8t-23.5 -29t-18.5 -57t-10 -92t0.5 -134l35 -745q10 -205 -1.5 -362t-38.5 -254t-70 -158.5t-89 -85t-102 -23.5q-52 0 -85.5 27.5
t-33.5 66.5q-1 40 29 67t71 27q18 0 32 -15.5t21 -33.5t18 -33.5t25 -15.5q42 0 62 84.5t12 228.5z" />
    <glyph glyph-name="approxequal" unicode="&#x2248;" horiz-adv-x="1003" 
d="M854 844l72 -62q-40 -83 -101.5 -134.5t-138.5 -51.5q-51 0 -94 17.5t-111 58.5q-51 31 -87 46t-75 15q-56 0 -94.5 -35t-77.5 -100l-75 61q41 84 110 134.5t150 50.5q21 0 42 -4t36 -8.5t35.5 -14t29.5 -14.5t29 -17t24 -14l25 -15t25 -14.5t20.5 -11t23 -11t20 -7
t23.5 -5.5t23 -1q51 0 88 33.5t78 103.5zM854 518l72 -63q-40 -83 -101 -134t-139 -51q-51 0 -93.5 17t-111.5 57q-36 22 -56 33t-49.5 21t-56.5 10q-30 0 -55.5 -10.5t-47 -33t-35.5 -42t-34 -52.5l-75 62q41 84 109.5 134t148.5 50q32 0 65.5 -9t48.5 -15.5t48.5 -25.5
t35.5 -20q77 -48 109 -57q25 -8 51 -8q51 0 87.5 33t78.5 104z" />
    <glyph glyph-name="notequal" unicode="&#x2260;" horiz-adv-x="1003" 
d="M725 965l-76 -170h262v-113h-305l-112 -260h417v-113h-460l-93 -209l-90 37l78 172h-256v113h299l113 260h-412v113h455l92 206z" />
    <glyph glyph-name="lessequal" unicode="&#x2264;" horiz-adv-x="1003" 
d="M907 201l-807 420v118l807 418v-133l-692 -340v-4l692 -344v-135zM913 10h-821v117h821v-117z" />
    <glyph glyph-name="greaterequal" unicode="&#x2265;" horiz-adv-x="1003" 
d="M102 1157l807 -418v-118l-807 -420v135l693 342v4l-693 342v133zM911 10h-819v117h819v-117z" />
    <glyph glyph-name="lozenge" unicode="&#x25ca;" horiz-adv-x="1048" 
d="M956 659l-364 -790h-137l-363 790l367 797h133zM829 659l-301 672h-6l-303 -669l303 -674h6z" />
    <glyph glyph-name="A.sc" unicode="&#xe000;" horiz-adv-x="1138" 
d="M676 307h-363q-64 -155 -67 -209q-3 -39 21.5 -52t84.5 -13v-33h-303v33q39 0 67.5 18.5t53.5 79.5l352 881h23l389 -852q30 -66 60 -96.5t83 -30.5v-33h-409v33q57 0 79.5 7.5t22.5 31.5q0 14 -14.5 50t-40.5 94.5t-39 90.5zM340 365h309l-164 397z" />
    <glyph glyph-name="AE.sc" unicode="&#xe001;" horiz-adv-x="1478" 
d="M1225 700v-354h-33q-8 88 -34 121t-97 33h-217v-394q0 -20 10 -29.5t44.5 -14.5t105.5 -5q97 0 155.5 8t98.5 38.5t56 53.5t51 88l15 27h35l-76 -272h-823v33q38 0 63.5 2.5t42.5 11.5t26 17t13.5 28.5t5.5 36.5t1 49v199h-303l-95 -187q-32 -62 -32 -112q0 -23 26 -34
t64 -11v-33h-291v33q27 0 49.5 10.5t40.5 32.5t27.5 37t23.5 45t17 35l292 561q4 7 12 23t11.5 22.5t10 19.5t9.5 19.5t7.5 17t6.5 17t4.5 14.5t3.5 14t1 12q0 26 -35.5 38t-85.5 12v32h883v-241h-33q-9 38 -16 60.5t-20 46t-30.5 36t-44.5 23t-65 14.5t-90 4
q-109 0 -140.5 -8.5t-31.5 -38.5v-334h217q71 0 97 31.5t34 111.5h33zM393 434h275v467q0 29 -11 29q-7 0 -18 -21z" />
    <glyph glyph-name="Aacute.sc" unicode="&#xe002;" horiz-adv-x="1138" 
d="M676 307h-363q-64 -155 -67 -209q-3 -39 21.5 -52t84.5 -13v-33h-303v33q39 0 67.5 18.5t53.5 79.5l352 881h23l389 -852q30 -66 60 -96.5t83 -30.5v-33h-409v33q57 0 79.5 7.5t22.5 31.5q0 14 -14.5 50t-40.5 94.5t-39 90.5zM340 365h309l-164 397zM502 1112h-82
l301 303q32 32 48.5 39.5t41.5 7.5q23 0 38 -8.5t21 -21.5t7.5 -21t1.5 -14q0 -49 -62 -86z" />
    <glyph glyph-name="Acircumflex.sc" unicode="&#xe003;" horiz-adv-x="1138" 
d="M676 307h-363q-64 -155 -67 -209q-3 -39 21.5 -52t84.5 -13v-33h-303v33q39 0 67.5 18.5t53.5 79.5l352 881h23l389 -852q30 -66 60 -96.5t83 -30.5v-33h-409v33q57 0 79.5 7.5t22.5 31.5q0 14 -14.5 50t-40.5 94.5t-39 90.5zM340 365h309l-164 397zM889 1112h-70
l-250 211l-247 -211h-70l254 342h127z" />
    <glyph glyph-name="Adieresis.sc" unicode="&#xe004;" horiz-adv-x="1138" 
d="M676 307h-363q-64 -155 -67 -209q-3 -39 21.5 -52t84.5 -13v-33h-303v33q39 0 67.5 18.5t53.5 79.5l352 881h23l389 -852q30 -66 60 -96.5t83 -30.5v-33h-409v33q57 0 79.5 7.5t22.5 31.5q0 14 -14.5 50t-40.5 94.5t-39 90.5zM340 365h309l-164 397zM266 1247
q0 35 26.5 69t72.5 34q41 0 71.5 -31t30.5 -72q0 -42 -30 -72t-72 -30q-48 0 -73.5 32.5t-25.5 69.5zM674 1247q0 35 26 69t72 34q41 0 71.5 -31t30.5 -72q0 -42 -30 -72t-72 -30q-48 0 -73 32.5t-25 69.5z" />
    <glyph glyph-name="Agrave.sc" unicode="&#xe005;" horiz-adv-x="1138" 
d="M676 307h-363q-64 -155 -67 -209q-3 -39 21.5 -52t84.5 -13v-33h-303v33q39 0 67.5 18.5t53.5 79.5l352 881h23l389 -852q30 -66 60 -96.5t83 -30.5v-33h-409v33q57 0 79.5 7.5t22.5 31.5q0 14 -14.5 50t-40.5 94.5t-39 90.5zM340 365h309l-164 397zM725 1112h-82
l-315 199q-60 38 -60 88q0 3 0.5 8t4.5 15.5t10.5 18.5t19.5 14.5t31 6.5q26 0 39.5 -6.5t50.5 -40.5z" />
    <glyph glyph-name="Aring.sc" unicode="&#xe006;" horiz-adv-x="1138" 
d="M676 307h-363q-64 -155 -67 -209q-3 -39 21.5 -52t84.5 -13v-33h-303v33q39 0 67.5 18.5t53.5 79.5l352 881h23l389 -852q30 -66 60 -96.5t83 -30.5v-33h-409v33q57 0 79.5 7.5t22.5 31.5q0 14 -14.5 50t-40.5 94.5t-39 90.5zM340 365h309l-164 397zM367 1325
q0 84 58.5 144.5t143.5 60.5t145 -60t60 -145t-60 -144t-145 -59q-87 0 -144.5 59.5t-57.5 143.5zM569 1460q-62 0 -97.5 -44t-35.5 -89q0 -47 34.5 -91t96.5 -44q58 0 98 38.5t40 94.5t-39.5 95.5t-96.5 39.5z" />
    <glyph glyph-name="Atilde.sc" unicode="&#xe007;" horiz-adv-x="1138" 
d="M676 307h-363q-64 -155 -67 -209q-3 -39 21.5 -52t84.5 -13v-33h-303v33q39 0 67.5 18.5t53.5 79.5l352 881h23l389 -852q30 -66 60 -96.5t83 -30.5v-33h-409v33q57 0 79.5 7.5t22.5 31.5q0 14 -14.5 50t-40.5 94.5t-39 90.5zM340 365h309l-164 397zM848 1380h59
q-8 -32 -14 -51t-23.5 -54.5t-38 -56.5t-57 -38t-82.5 -17q-43 0 -78 11.5t-88 37.5l-47 23q-46 22 -76 22q-27 0 -48 -9t-33.5 -26t-18.5 -29t-12 -30h-60q6 37 21.5 71t40.5 66t64.5 51t88.5 19q66 0 136 -37l49 -24q65 -31 98 -31q42 0 67.5 21t51.5 81z" />
    <glyph glyph-name="B.sc" unicode="&#xe008;" 
d="M201 166v637q0 55 -7.5 87t-28 48t-45 20.5t-71.5 4.5v32h445q399 0 399 -256q0 -48 -21 -87.5t-55 -63.5t-64 -38t-61 -22v-4q36 -7 74 -24t79 -47t67 -81t26 -114q0 -56 -28 -102t-71 -74t-98.5 -47.5t-107.5 -27t-101 -7.5h-483v33q92 0 122 24.5t30 108.5zM377 492
v-369q0 -43 25 -54.5t98 -11.5q110 0 175.5 47t65.5 150t-73 170.5t-207 67.5h-84zM377 887v-338q65 0 112.5 4.5t90 17t69 33.5t41.5 55.5t15 81.5q0 60 -22.5 101t-63 61t-83.5 27.5t-98 7.5q-40 0 -51.5 -10.5t-9.5 -40.5z" />
    <glyph glyph-name="C.sc" unicode="&#xe009;" 
d="M918 995l36 -307h-32q-40 121 -133.5 193.5t-215.5 72.5q-111 0 -188 -65.5t-112 -173t-35 -248.5q0 -59 11 -117.5t35.5 -114.5t60.5 -99t91 -69t121 -26q70 0 130.5 19.5t108.5 57t80 72.5t68 84l33 -20q-32 -52 -67 -93t-90 -84.5t-131.5 -68t-168.5 -24.5
q-228 0 -355.5 135t-127.5 368q0 239 138 382t390 143q68 0 121.5 -15.5t87.5 -31t53 -15.5q25 0 56 45h35z" />
    <glyph glyph-name="Ccedilla.sc" unicode="&#xe00a;" 
d="M918 995l36 -307h-32q-40 121 -133.5 193.5t-215.5 72.5q-111 0 -188 -65.5t-112 -173t-35 -248.5q0 -59 11 -117.5t35.5 -114.5t60.5 -99t91 -69t121 -26q70 0 130.5 19.5t108.5 57t80 72.5t68 84l33 -20q-32 -52 -67 -93t-90 -84.5t-131.5 -68t-168.5 -24.5l-43 -117
q27 6 58 6q80 0 126 -37.5t46 -105.5q0 -70 -63 -120t-185 -50q-97 0 -180 32l28 64q23 -9 67.5 -17t59.5 -8q119 0 119 93q0 71 -92 71q-54 0 -74 -8l-14 10l78 193q-197 19 -305.5 151t-108.5 346q0 239 138 382t390 143q68 0 121.5 -15.5t87.5 -31t53 -15.5q25 0 56 45
h35z" />
    <glyph glyph-name="D.sc" unicode="&#xe00b;" horiz-adv-x="1138" 
d="M193 139v688q0 75 -36.5 104t-115.5 32v32h475q51 0 102.5 -6t109.5 -22t110 -40t100.5 -63t83 -88.5t55.5 -119.5t21 -152q0 -110 -33.5 -200.5t-100.5 -159t-176 -106.5t-251 -38h-496v33q87 1 119.5 25t32.5 81zM897 524q0 201 -113 307.5t-317 106.5q-63 0 -80.5 -15
t-17.5 -55v-778q0 -25 23.5 -33t107.5 -8q86 0 156.5 26.5t125.5 81.5t85 148.5t30 218.5z" />
    <glyph glyph-name="E.sc" unicode="&#xe00c;" 
d="M770 702v-360h-33q-6 87 -48.5 122.5t-143.5 35.5h-168v-385q0 -37 30 -47.5t134 -10.5q83 0 139.5 7.5t95 21t64.5 41.5t42.5 59t35.5 84h40l-65 -270h-848v33q38 0 64.5 4.5t43.5 17.5t27 26t14.5 39.5t5.5 47.5t1 61v611q0 41 -13 67.5t-38.5 37.5t-48 14.5t-56.5 3.5
v32h813l14 -237l-41 -2q-2 67 -24 104t-83.5 57.5t-174.5 20.5q-109 0 -140.5 -8.5t-31.5 -38.5v-334h168q103 0 144.5 30t47.5 115h33z" />
    <glyph glyph-name="Eacute.sc" unicode="&#xe00d;" 
d="M770 702v-360h-33q-6 87 -48.5 122.5t-143.5 35.5h-168v-385q0 -37 30 -47.5t134 -10.5q83 0 139.5 7.5t95 21t64.5 41.5t42.5 59t35.5 84h40l-65 -270h-848v33q38 0 64.5 4.5t43.5 17.5t27 26t14.5 39.5t5.5 47.5t1 61v611q0 41 -13 67.5t-38.5 37.5t-48 14.5t-56.5 3.5
v32h813l14 -237l-41 -2q-2 67 -24 104t-83.5 57.5t-174.5 20.5q-109 0 -140.5 -8.5t-31.5 -38.5v-334h168q103 0 144.5 30t47.5 115h33zM444 1112h-82l302 303q32 32 48.5 39.5t41.5 7.5q30 0 46.5 -16t18.5 -27.5t2 -21.5q0 -49 -61 -86z" />
    <glyph glyph-name="Ecircumflex.sc" unicode="&#xe00e;" 
d="M770 702v-360h-33q-6 87 -48.5 122.5t-143.5 35.5h-168v-385q0 -37 30 -47.5t134 -10.5q83 0 139.5 7.5t95 21t64.5 41.5t42.5 59t35.5 84h40l-65 -270h-848v33q38 0 64.5 4.5t43.5 17.5t27 26t14.5 39.5t5.5 47.5t1 61v611q0 41 -13 67.5t-38.5 37.5t-48 14.5t-56.5 3.5
v32h813l14 -237l-41 -2q-2 67 -24 104t-83.5 57.5t-174.5 20.5q-109 0 -140.5 -8.5t-31.5 -38.5v-334h168q103 0 144.5 30t47.5 115h33zM831 1112h-69l-250 211l-248 -211h-69l254 342h126z" />
    <glyph glyph-name="Edieresis.sc" unicode="&#xe00f;" 
d="M770 702v-360h-33q-6 87 -48.5 122.5t-143.5 35.5h-168v-385q0 -37 30 -47.5t134 -10.5q83 0 139.5 7.5t95 21t64.5 41.5t42.5 59t35.5 84h40l-65 -270h-848v33q38 0 64.5 4.5t43.5 17.5t27 26t14.5 39.5t5.5 47.5t1 61v611q0 41 -13 67.5t-38.5 37.5t-48 14.5t-56.5 3.5
v32h813l14 -237l-41 -2q-2 67 -24 104t-83.5 57.5t-174.5 20.5q-109 0 -140.5 -8.5t-31.5 -38.5v-334h168q103 0 144.5 30t47.5 115h33zM209 1247q0 35 26 69t72 34q41 0 72 -31t31 -72q0 -42 -30.5 -72t-72.5 -30q-48 0 -73 32.5t-25 69.5zM616 1247q0 35 26.5 69t72.5 34
q41 0 71.5 -31t30.5 -72q0 -42 -30 -72t-72 -30q-48 0 -73.5 32.5t-25.5 69.5z" />
    <glyph glyph-name="Egrave.sc" unicode="&#xe010;" 
d="M770 702v-360h-33q-6 87 -48.5 122.5t-143.5 35.5h-168v-385q0 -37 30 -47.5t134 -10.5q83 0 139.5 7.5t95 21t64.5 41.5t42.5 59t35.5 84h40l-65 -270h-848v33q38 0 64.5 4.5t43.5 17.5t27 26t14.5 39.5t5.5 47.5t1 61v611q0 41 -13 67.5t-38.5 37.5t-48 14.5t-56.5 3.5
v32h813l14 -237l-41 -2q-2 67 -24 104t-83.5 57.5t-174.5 20.5q-109 0 -140.5 -8.5t-31.5 -38.5v-334h168q103 0 144.5 30t47.5 115h33zM668 1112h-82l-316 199q-59 38 -59 88q0 3 0.5 8t4.5 15.5t10 18.5t19 14.5t31 6.5q26 0 40.5 -7t50.5 -40z" />
    <glyph glyph-name="Eth.sc" unicode="&#xe011;" horiz-adv-x="1138" 
d="M655 479h-286v-389q0 -25 23.5 -33t107.5 -8q86 0 156.5 26.5t125.5 81.5t85 148.5t30 218.5q0 199 -109.5 306.5t-300.5 107.5q-67 0 -92.5 -14.5t-25.5 -51.5v-319h286v-74zM193 479h-148v74h148v307q0 53 -37.5 76.5t-114.5 26.5v32h475q50 0 102 -6t110 -22
t110 -39.5t100.5 -62t83 -87.5t55.5 -117t21 -149q0 -231 -142 -371.5t-366 -140.5h-549v33q87 1 119.5 25t32.5 81v340z" />
    <glyph glyph-name="F.sc" unicode="&#xe012;" horiz-adv-x="909" 
d="M47 963v32h834l16 -229h-37q-12 55 -26 84.5t-48 51.5t-88.5 29t-148.5 7q-109 0 -140.5 -8.5t-31.5 -38.5v-334h143q103 0 145 30t48 115h32v-360h-32q-6 87 -49 122.5t-144 35.5h-143v-340q0 -35 8.5 -59t21.5 -37t37 -20.5t45.5 -9t55.5 -1.5v-33h-498v33
q41 0 64.5 3.5t46.5 15.5t33 38.5t10 69.5v667q0 46 -10 74.5t-33.5 41.5t-47 16.5t-63.5 3.5z" />
    <glyph glyph-name="G.sc" unicode="&#xe013;" horiz-adv-x="1138" 
d="M688 528h412v-32q-65 -3 -87 -25.5t-22 -64.5v-308q-34 -38 -144 -76t-267 -38q-71 0 -140 13.5t-143 50.5t-129 94.5t-91 154t-36 219.5q0 68 20.5 136.5t65 133.5t107 115t155 80.5t201.5 30.5q63 0 120.5 -14.5t95.5 -29t54 -14.5q33 0 47.5 15.5t22.5 42.5h26
l15 -299h-33q-29 98 -126.5 169.5t-217.5 71.5q-89 0 -159.5 -41.5t-111 -108t-61 -141.5t-20.5 -151q0 -213 103 -342t265 -129q108 0 156.5 25t48.5 81v246q0 98 -127 103v32z" />
    <glyph glyph-name="H.sc" unicode="&#xe014;" horiz-adv-x="1251" 
d="M852 477h-471v-309q0 -75 31 -104.5t120 -30.5v-33h-483v33q90 1 123 31t33 104v659q0 75 -33.5 105t-122.5 31v32h483v-32q-89 -1 -120 -31t-31 -105v-276h471v276q0 75 -33.5 105t-122.5 31v32h484v-32q-89 -1 -120.5 -31t-31.5 -105v-659q0 -75 31.5 -104.5
t120.5 -30.5v-33h-484v33q90 1 123 31t33 104v309z" />
    <glyph glyph-name="I.sc" unicode="&#xe015;" horiz-adv-x="569" 
d="M29 963v32h483v-32q-89 -1 -120.5 -31t-31.5 -105v-659q0 -74 33 -104t123 -31v-33h-483v33q89 1 120 30.5t31 104.5v659q0 75 -33 105t-122 31z" />
    <glyph glyph-name="Iacute.sc" unicode="&#xe016;" horiz-adv-x="569" 
d="M29 963v32h483v-32q-89 -1 -120.5 -31t-31.5 -105v-659q0 -74 33 -104t123 -31v-33h-483v33q89 1 120 30.5t31 104.5v659q0 75 -33 105t-122 31zM217 1112h-82l301 303q32 32 48.5 39.5t41.5 7.5q23 0 38 -8.5t21 -21.5t7.5 -21t1.5 -14q0 -49 -62 -86z" />
    <glyph glyph-name="Icircumflex.sc" unicode="&#xe017;" horiz-adv-x="569" 
d="M29 963v32h483v-32q-89 -1 -120.5 -31t-31.5 -105v-659q0 -74 33 -104t123 -31v-33h-483v33q89 1 120 30.5t31 104.5v659q0 75 -33 105t-122 31zM604 1112h-69l-250 211l-248 -211h-70l254 342h127z" />
    <glyph glyph-name="Idieresis.sc" unicode="&#xe018;" horiz-adv-x="569" 
d="M29 963v32h483v-32q-89 -1 -120.5 -31t-31.5 -105v-659q0 -74 33 -104t123 -31v-33h-483v33q89 1 120 30.5t31 104.5v659q0 75 -33 105t-122 31zM-18 1247q0 35 26 69t72 34q41 0 71.5 -31t30.5 -72q0 -42 -30 -72t-72 -30q-48 0 -73 32.5t-25 69.5zM389 1247q0 35 26 69
t72 34q41 0 72 -31t31 -72q0 -42 -30.5 -72t-72.5 -30q-48 0 -73 32.5t-25 69.5z" />
    <glyph glyph-name="Igrave.sc" unicode="&#xe019;" horiz-adv-x="569" 
d="M29 963v32h483v-32q-89 -1 -120.5 -31t-31.5 -105v-659q0 -74 33 -104t123 -31v-33h-483v33q89 1 120 30.5t31 104.5v659q0 75 -33 105t-122 31zM440 1112h-82l-315 199q-59 38 -59 88q0 3 0.5 8t4.5 15.5t10 18.5t19 14.5t31 6.5q26 0 39.5 -6.5t50.5 -40.5z" />
    <glyph glyph-name="J.sc" unicode="&#xe01a;" horiz-adv-x="681" 
d="M463 831v-503q0 -51 -6.5 -95.5t-26 -91.5t-51 -80.5t-85 -55t-124.5 -21.5q-81 0 -117.5 34t-36.5 82q0 35 22.5 56.5t57.5 21.5q30 0 47 -22.5t21.5 -50t17.5 -50t35 -22.5q24 0 39.5 13t21.5 39t7.5 46.5t1.5 52.5v647q0 67 -34 99t-122 33v32h483v-32
q-80 -1 -115.5 -33.5t-35.5 -98.5z" />
    <glyph glyph-name="K.sc" unicode="&#xe01b;" horiz-adv-x="1138" 
d="M197 147v680q0 82 -27.5 104.5t-124.5 31.5v32h483v-32q-93 2 -124 -24.5t-31 -111.5v-286l291 260q88 79 88 121q0 41 -84 41v32h393v-32q-124 0 -285 -148l-248 -231l375 -406q73 -80 122.5 -114t96.5 -31v-33h-467v33q51 0 72 6.5t21 32.5q0 8 -2 15.5t-7 17t-10 18
t-15.5 21t-19.5 22.5t-25 26.5t-28.5 30t-34.5 36t-39 40.5l-184 193l-10 -11v-334q0 -67 32.5 -90.5t126.5 -23.5v-33h-487v33q92 0 122 23.5t30 90.5z" />
    <glyph glyph-name="L.sc" unicode="&#xe01c;" 
d="M971 260l-88 -260h-838v33q93 1 124.5 27.5t31.5 91.5v675q0 75 -33.5 105t-122.5 31v32h496v-32q-91 -1 -127.5 -31.5t-36.5 -104.5v-675q0 -62 32 -78.5t152 -16.5t190 21t107 61t74 121h39z" />
    <glyph glyph-name="Lslash.sc" unicode="&#xe01d;" 
d="M647 723v-76l-270 -143v-352q0 -62 32 -78.5t152 -16.5t190 21t107 61t74 121h39l-88 -260h-838v33q93 1 124.5 27.5t31.5 91.5v260l-185 -97v76l185 98v338q0 75 -33.5 105t-122.5 31v32h496v-32q-91 -1 -127.5 -31.5t-36.5 -104.5v-245z" />
    <glyph glyph-name="M.sc" unicode="&#xe01e;" horiz-adv-x="1366" 
d="M266 854v-686q0 -75 32 -104.5t124 -30.5v-33h-393v33q92 1 123.5 30.5t31.5 104.5v676q0 67 -33.5 90.5t-117.5 28.5v32h352l295 -712l293 712h350v-32q-90 0 -121 -24.5t-31 -70.5v-700q0 -74 33 -104t123 -31v-33h-483v33q89 1 120 30.5t31 104.5v700h-4l-350 -868
h-27l-344 854h-4z" />
    <glyph glyph-name="N.sc" unicode="&#xe01f;" horiz-adv-x="1251" 
d="M1004 0l-709 778v-610q0 -75 32 -104.5t124 -30.5v-33h-394v33q92 1 124 30.5t32 104.5v696l-43 45q-45 48 -123 54v32h279l628 -690v531q0 73 -32.5 98.5t-124.5 28.5v32h389v-32q-89 -3 -119.5 -28.5t-30.5 -98.5v-836h-32z" />
    <glyph glyph-name="Ntilde.sc" unicode="&#xe020;" horiz-adv-x="1251" 
d="M1004 0l-709 778v-610q0 -75 32 -104.5t124 -30.5v-33h-394v33q92 1 124 30.5t32 104.5v696l-43 45q-45 48 -123 54v32h279l628 -690v531q0 73 -32.5 98.5t-124.5 28.5v32h389v-32q-89 -3 -119.5 -28.5t-30.5 -98.5v-836h-32zM903 1380h60q-8 -32 -14 -51t-23.5 -54.5
t-38 -56.5t-57 -38t-82.5 -17q-43 0 -78 11.5t-88 37.5l-47 23q-46 22 -76 22q-27 0 -48 -9t-33.5 -25.5t-19 -29t-12.5 -30.5h-59q6 37 21.5 71t40.5 66t64.5 51t88.5 19q65 0 135 -37l49 -24q65 -31 98 -31q42 0 67.5 21t51.5 81z" />
    <glyph glyph-name="O.sc" unicode="&#xe021;" horiz-adv-x="1138" 
d="M1069 506q0 -151 -69.5 -271.5t-186 -185.5t-256.5 -65t-256.5 65t-186 185.5t-69.5 271.5q0 108 40.5 202.5t109.5 161t163.5 104.5t198.5 38t198.5 -38t163.5 -104.5t109.5 -161t40.5 -202.5zM868 506q0 75 -7 136t-27.5 121t-54.5 100.5t-90.5 65.5t-131.5 25
t-131.5 -25t-90.5 -65.5t-54.5 -100.5t-27.5 -121t-7 -136q0 -81 7 -144.5t27.5 -125.5t54.5 -103.5t90 -66.5t132 -25t132 25t90 66.5t54.5 103.5t27.5 125.5t7 144.5z" />
    <glyph glyph-name="OE.sc" unicode="&#xe022;" horiz-adv-x="1478" 
d="M696 229v596q0 68 -43.5 98.5t-107.5 30.5q-133 0 -216 -120.5t-83 -341.5q0 -96 16.5 -175t51 -142t93.5 -98.5t138 -35.5q81 0 116 46.5t35 141.5zM1241 702v-360h-29q-4 40 -9.5 61.5t-19 43t-38.5 31.5t-66 16t-104 6h-94v-367q0 -46 23 -61t73 -15q95 0 158.5 7.5
t105 20.5t70 41.5t44.5 59t36 84.5h39l-66 -270h-623q-44 0 -118 -8q-78 -8 -127 -8q-193 0 -322 146t-129 362q0 236 137.5 378t362.5 142q25 0 79.5 -3t61.5 -3q115 -9 154 -9h489l14 -239h-40q-1 30 -5 50.5t-18.5 47.5t-39 43.5t-70 28.5t-109.5 12h-86q-50 0 -72 -14
t-22 -54v-315h135q46 0 72.5 2.5t50 10t35.5 24t20.5 42t13.5 66.5h33z" />
    <glyph glyph-name="Oacute.sc" unicode="&#xe023;" horiz-adv-x="1138" 
d="M1069 506q0 -151 -69.5 -271.5t-186 -185.5t-256.5 -65t-256.5 65t-186 185.5t-69.5 271.5q0 108 40.5 202.5t109.5 161t163.5 104.5t198.5 38t198.5 -38t163.5 -104.5t109.5 -161t40.5 -202.5zM868 506q0 75 -7 136t-27.5 121t-54.5 100.5t-90.5 65.5t-131.5 25
t-131.5 -25t-90.5 -65.5t-54.5 -100.5t-27.5 -121t-7 -136q0 -81 7 -144.5t27.5 -125.5t54.5 -103.5t90 -66.5t132 -25t132 25t90 66.5t54.5 103.5t27.5 125.5t7 144.5zM502 1112h-82l301 303q32 32 48.5 39.5t41.5 7.5q23 0 38 -8.5t21 -21.5t7.5 -21t1.5 -14
q0 -49 -62 -86z" />
    <glyph glyph-name="Ocircumflex.sc" unicode="&#xe024;" horiz-adv-x="1138" 
d="M1069 506q0 -151 -69.5 -271.5t-186 -185.5t-256.5 -65t-256.5 65t-186 185.5t-69.5 271.5q0 108 40.5 202.5t109.5 161t163.5 104.5t198.5 38t198.5 -38t163.5 -104.5t109.5 -161t40.5 -202.5zM868 506q0 75 -7 136t-27.5 121t-54.5 100.5t-90.5 65.5t-131.5 25
t-131.5 -25t-90.5 -65.5t-54.5 -100.5t-27.5 -121t-7 -136q0 -81 7 -144.5t27.5 -125.5t54.5 -103.5t90 -66.5t132 -25t132 25t90 66.5t54.5 103.5t27.5 125.5t7 144.5zM889 1112h-70l-250 211l-247 -211h-70l254 342h127z" />
    <glyph glyph-name="Odieresis.sc" unicode="&#xe025;" horiz-adv-x="1138" 
d="M1069 506q0 -151 -69.5 -271.5t-186 -185.5t-256.5 -65t-256.5 65t-186 185.5t-69.5 271.5q0 108 40.5 202.5t109.5 161t163.5 104.5t198.5 38t198.5 -38t163.5 -104.5t109.5 -161t40.5 -202.5zM868 506q0 75 -7 136t-27.5 121t-54.5 100.5t-90.5 65.5t-131.5 25
t-131.5 -25t-90.5 -65.5t-54.5 -100.5t-27.5 -121t-7 -136q0 -81 7 -144.5t27.5 -125.5t54.5 -103.5t90 -66.5t132 -25t132 25t90 66.5t54.5 103.5t27.5 125.5t7 144.5zM266 1247q0 35 26.5 69t72.5 34q41 0 71.5 -31t30.5 -72q0 -42 -30 -72t-72 -30q-48 0 -73.5 32.5
t-25.5 69.5zM674 1247q0 35 26 69t72 34q41 0 71.5 -31t30.5 -72q0 -42 -30 -72t-72 -30q-48 0 -73 32.5t-25 69.5z" />
    <glyph glyph-name="Ograve.sc" unicode="&#xe026;" horiz-adv-x="1138" 
d="M1069 506q0 -151 -69.5 -271.5t-186 -185.5t-256.5 -65t-256.5 65t-186 185.5t-69.5 271.5q0 108 40.5 202.5t109.5 161t163.5 104.5t198.5 38t198.5 -38t163.5 -104.5t109.5 -161t40.5 -202.5zM868 506q0 75 -7 136t-27.5 121t-54.5 100.5t-90.5 65.5t-131.5 25
t-131.5 -25t-90.5 -65.5t-54.5 -100.5t-27.5 -121t-7 -136q0 -81 7 -144.5t27.5 -125.5t54.5 -103.5t90 -66.5t132 -25t132 25t90 66.5t54.5 103.5t27.5 125.5t7 144.5zM725 1112h-82l-315 199q-60 38 -60 88q0 3 0.5 8t4.5 15.5t10.5 18.5t19.5 14.5t31 6.5q26 0 39.5 -6.5
t50.5 -40.5z" />
    <glyph glyph-name="Oslash.sc" unicode="&#xe027;" horiz-adv-x="1138" 
d="M307 180l449 684q-77 90 -211 90q-299 0 -299 -462q0 -201 61 -312zM801 799l-447 -684q71 -74 191 -74q80 0 138.5 24t92.5 63t54.5 100t27 122t6.5 142q0 191 -63 307zM307 43l-155 -238h-91l183 279q-94 70 -146.5 175.5t-52.5 232.5q0 153 68 273t181.5 183.5
t250.5 63.5q149 0 266 -66l152 232h86l-177 -271q91 -69 142 -175t51 -240q0 -220 -149 -364t-371 -144q-129 0 -238 59z" />
    <glyph glyph-name="Otilde.sc" unicode="&#xe028;" horiz-adv-x="1138" 
d="M1069 506q0 -151 -69.5 -271.5t-186 -185.5t-256.5 -65t-256.5 65t-186 185.5t-69.5 271.5q0 108 40.5 202.5t109.5 161t163.5 104.5t198.5 38t198.5 -38t163.5 -104.5t109.5 -161t40.5 -202.5zM868 506q0 75 -7 136t-27.5 121t-54.5 100.5t-90.5 65.5t-131.5 25
t-131.5 -25t-90.5 -65.5t-54.5 -100.5t-27.5 -121t-7 -136q0 -81 7 -144.5t27.5 -125.5t54.5 -103.5t90 -66.5t132 -25t132 25t90 66.5t54.5 103.5t27.5 125.5t7 144.5zM848 1380h59q-8 -32 -14 -51t-23.5 -54.5t-38 -56.5t-57 -38t-82.5 -17q-43 0 -78 11.5t-88 37.5
l-47 23q-46 22 -76 22q-27 0 -48 -9t-33.5 -26t-18.5 -29t-12 -30h-60q6 37 21.5 71t40.5 66t64.5 51t88.5 19q66 0 136 -37l49 -24q65 -31 98 -31q42 0 67.5 21t51.5 81z" />
    <glyph glyph-name="P.sc" unicode="&#xe029;" horiz-adv-x="909" 
d="M360 467v-283q0 -30 3.5 -52.5t8 -38t16.5 -26t22 -17t32 -10t38.5 -4.5l49.5 -3v-33h-501v33q48 3 70.5 7t45.5 18.5t31 44.5t8 81v639q0 83 -34 111.5t-121 28.5v32h491q45 0 91 -7.5t98 -27.5t92 -50.5t66 -81.5t26 -115q0 -75 -32 -130.5t-85.5 -85t-113 -43.5
t-125.5 -14q-116 0 -177 27zM360 883v-295q0 -55 23.5 -72.5t99.5 -17.5q83 0 146 53.5t63 165.5q0 64 -20 109.5t-55.5 69t-73.5 33t-84 9.5q-35 0 -56.5 -4.5t-30 -13.5t-10.5 -16.5t-2 -20.5z" />
    <glyph glyph-name="Q.sc" unicode="&#xe02a;" horiz-adv-x="1138" 
d="M909 -254q-49 0 -87.5 7.5t-104 34.5t-160 85t-231.5 154q-34 24 -56 40.5t-54.5 44.5t-54 53.5t-45.5 63.5t-38 77t-23.5 91t-9.5 109q0 144 68.5 260.5t185.5 181t258 64.5q104 0 198.5 -38t163.5 -104.5t109.5 -161t40.5 -202.5q0 -111 -34 -202t-91.5 -151.5
t-121.5 -98.5t-136 -58q183 -209 318 -209q17 0 38.5 -1t28.5 -1v-33q-123 -6 -162 -6zM868 506q0 75 -7 136t-27.5 121t-54.5 100.5t-90.5 65.5t-131.5 25t-131.5 -25t-90.5 -65.5t-54.5 -100.5t-27.5 -121t-7 -136q0 -81 7 -144.5t27.5 -125.5t54.5 -103.5t90 -66.5
t132 -25t132 25t90 66.5t54.5 103.5t27.5 125.5t7 144.5z" />
    <glyph glyph-name="R.sc" unicode="&#xe02b;" 
d="M184 184v604q0 58 -8 92.5t-28.5 53t-47 24t-71.5 5.5v32h450q79 0 143.5 -13.5t117.5 -43.5t82.5 -83t29.5 -126q0 -100 -66 -164t-188 -86l238 -299q59 -73 92.5 -103t81.5 -44v-33h-242l-346 467h-62v-283q0 -42 6 -70t16.5 -44t32 -24.5t43 -10.5t60.5 -2v-33h-489
v33q45 0 70 4t46.5 19t30 46t8.5 82zM360 877v-361h60q97 0 166 52.5t69 142.5q0 124 -50.5 179.5t-149.5 55.5q-51 0 -73 -17t-22 -52z" />
    <glyph glyph-name="S.sc" unicode="&#xe02c;" horiz-adv-x="796" 
d="M696 709l-34 4q-16 42 -27 66.5t-35 64t-50 62t-68.5 40t-92.5 17.5q-65 0 -106 -41.5t-41 -102.5q0 -38 26.5 -72t69 -63t94.5 -59t103.5 -66.5t94 -78.5t69 -102.5t26.5 -131.5q0 -82 -46.5 -143.5t-113 -90t-139.5 -28.5q-66 0 -117.5 9t-79.5 18t-36 9t-14.5 -2
t-10.5 -4t-8 -6.5t-5.5 -7t-4 -7t-3.5 -5.5l-32 -4l-60 335l33 5q53 -147 136 -215t173 -68q73 0 124.5 40t51.5 105q0 53 -26.5 98t-69 78.5t-94 65t-103.5 65.5t-94.5 71.5t-69 91t-26.5 116.5q0 116 70.5 178t204.5 62q65 0 132 -20.5t68 -20.5q17 0 27 8.5t26 32.5h29z
" />
    <glyph glyph-name="Scaron.sc" unicode="&#xe02d;" horiz-adv-x="796" 
d="M696 709l-34 4q-16 42 -27 66.5t-35 64t-50 62t-68.5 40t-92.5 17.5q-65 0 -106 -41.5t-41 -102.5q0 -38 26.5 -72t69 -63t94.5 -59t103.5 -66.5t94 -78.5t69 -102.5t26.5 -131.5q0 -82 -46.5 -143.5t-113 -90t-139.5 -28.5q-66 0 -117.5 9t-79.5 18t-36 9t-14.5 -2
t-10.5 -4t-8 -6.5t-5.5 -7t-4 -7t-3.5 -5.5l-32 -4l-60 335l33 5q53 -147 136 -215t173 -68q73 0 124.5 40t51.5 105q0 53 -26.5 98t-69 78.5t-94 65t-103.5 65.5t-94.5 71.5t-69 91t-26.5 116.5q0 116 70.5 178t204.5 62q65 0 132 -20.5t68 -20.5q17 0 27 8.5t26 32.5h29z
M717 1454l-256 -342h-127l-254 342h70l247 -211l250 211h70z" />
    <glyph glyph-name="T.sc" unicode="&#xe02e;" 
d="M418 217v721h-125q-31 0 -55.5 -2.5t-44 -10t-32.5 -13.5t-24 -21t-17.5 -25t-13 -33t-9.5 -36t-9 -43h-35l19 241h868l18 -241h-34q-6 30 -9 43t-9.5 36t-13 33t-17.5 25t-24 21t-32.5 13.5t-44 10t-55.5 2.5h-125v-721q0 -29 0.5 -45.5t2.5 -38t6 -32.5t12 -24.5
t19 -20t27.5 -13t38 -8.5t50.5 -2v-33h-484v33q37 0 62.5 4t42.5 15.5t26.5 23t14 36t5.5 45.5t1 60z" />
    <glyph glyph-name="Thorn.sc" unicode="&#xe02f;" horiz-adv-x="909" 
d="M184 184v676q0 56 -33 79t-122 24v32h483v-32q-81 3 -116.5 -22t-35.5 -81v-69h119q54 0 106.5 -6.5t110 -26t99.5 -49.5t70 -81.5t28 -117.5q0 -63 -23.5 -113t-58 -79.5t-78.5 -48.5t-81.5 -26t-69.5 -7q-127 0 -222 22v-74q0 -85 39.5 -119t116.5 -32v-33h-483v33
q95 -1 123 29t28 122zM360 709v-379q0 -37 105 -37q57 0 101 20t69 52.5t37 68t12 72.5q0 57 -17 100.5t-41.5 66.5t-59 37.5t-62.5 18.5t-58 4q-86 0 -86 -24z" />
    <glyph glyph-name="U.sc" unicode="&#xe030;" horiz-adv-x="1251" 
d="M43 995h494v-32q-27 0 -48.5 -3.5t-37 -7t-27.5 -12.5l-20 -15t-13.5 -20.5t-8 -22.5t-4 -27t-1.5 -28v-32v-471q0 -125 64.5 -196t197.5 -71q72 0 129 19.5t91.5 50.5t57.5 73t32 82.5t9 82.5v401q0 53 -4 82.5t-19.5 55.5t-45.5 39t-82 20v32h383v-32q-55 -7 -86.5 -20
t-47.5 -39.5t-20 -55t-4 -82.5v-401q0 -170 -103.5 -275.5t-289.5 -105.5q-222 0 -330 88t-108 252v471q0 97 -30.5 129.5t-127.5 38.5v32z" />
    <glyph glyph-name="Uacute.sc" unicode="&#xe031;" horiz-adv-x="1251" 
d="M43 995h494v-32q-27 0 -48.5 -3.5t-37 -7t-27.5 -12.5l-20 -15t-13.5 -20.5t-8 -22.5t-4 -27t-1.5 -28v-32v-471q0 -125 64.5 -196t197.5 -71q72 0 129 19.5t91.5 50.5t57.5 73t32 82.5t9 82.5v401q0 53 -4 82.5t-19.5 55.5t-45.5 39t-82 20v32h383v-32q-55 -7 -86.5 -20
t-47.5 -39.5t-20 -55t-4 -82.5v-401q0 -170 -103.5 -275.5t-289.5 -105.5q-222 0 -330 88t-108 252v471q0 97 -30.5 129.5t-127.5 38.5v32zM557 1112h-82l301 303q32 32 48.5 39.5t41.5 7.5q23 0 38 -8.5t21 -21.5t7.5 -21t1.5 -14q0 -49 -62 -86z" />
    <glyph glyph-name="Ucircumflex.sc" unicode="&#xe032;" horiz-adv-x="1251" 
d="M43 995h494v-32q-27 0 -48.5 -3.5t-37 -7t-27.5 -12.5l-20 -15t-13.5 -20.5t-8 -22.5t-4 -27t-1.5 -28v-32v-471q0 -125 64.5 -196t197.5 -71q72 0 129 19.5t91.5 50.5t57.5 73t32 82.5t9 82.5v401q0 53 -4 82.5t-19.5 55.5t-45.5 39t-82 20v32h383v-32q-55 -7 -86.5 -20
t-47.5 -39.5t-20 -55t-4 -82.5v-401q0 -170 -103.5 -275.5t-289.5 -105.5q-222 0 -330 88t-108 252v471q0 97 -30.5 129.5t-127.5 38.5v32zM944 1112h-70l-249 211l-248 -211h-70l254 342h127z" />
    <glyph glyph-name="Udieresis.sc" unicode="&#xe033;" horiz-adv-x="1251" 
d="M43 995h494v-32q-27 0 -48.5 -3.5t-37 -7t-27.5 -12.5l-20 -15t-13.5 -20.5t-8 -22.5t-4 -27t-1.5 -28v-32v-471q0 -125 64.5 -196t197.5 -71q72 0 129 19.5t91.5 50.5t57.5 73t32 82.5t9 82.5v401q0 53 -4 82.5t-19.5 55.5t-45.5 39t-82 20v32h383v-32q-55 -7 -86.5 -20
t-47.5 -39.5t-20 -55t-4 -82.5v-401q0 -170 -103.5 -275.5t-289.5 -105.5q-222 0 -330 88t-108 252v471q0 97 -30.5 129.5t-127.5 38.5v32zM322 1247q0 35 26 69t72 34q41 0 71.5 -31t30.5 -72q0 -42 -30 -72t-72 -30q-48 0 -73 32.5t-25 69.5zM729 1247q0 35 26 69t72 34
q41 0 72 -31t31 -72q0 -42 -30.5 -72t-72.5 -30q-48 0 -73 32.5t-25 69.5z" />
    <glyph glyph-name="Ugrave.sc" unicode="&#xe034;" horiz-adv-x="1251" 
d="M43 995h494v-32q-27 0 -48.5 -3.5t-37 -7t-27.5 -12.5l-20 -15t-13.5 -20.5t-8 -22.5t-4 -27t-1.5 -28v-32v-471q0 -125 64.5 -196t197.5 -71q72 0 129 19.5t91.5 50.5t57.5 73t32 82.5t9 82.5v401q0 53 -4 82.5t-19.5 55.5t-45.5 39t-82 20v32h383v-32q-55 -7 -86.5 -20
t-47.5 -39.5t-20 -55t-4 -82.5v-401q0 -170 -103.5 -275.5t-289.5 -105.5q-222 0 -330 88t-108 252v471q0 97 -30.5 129.5t-127.5 38.5v32zM780 1112h-82l-315 199q-59 38 -59 88q0 3 0.5 8t4.5 15.5t10 18.5t19 14.5t31 6.5q26 0 39.5 -6.5t50.5 -40.5z" />
    <glyph glyph-name="V.sc" unicode="&#xe035;" horiz-adv-x="1138" 
d="M53 963v32h402v-32q-48 0 -69 -7.5t-21 -33.5q0 -36 22 -93l246 -579l215 555q29 76 29 108q0 26 -20 38t-75 12v32h291v-32q-57 -6 -80.5 -27.5t-50.5 -87.5l-340 -864h-33l-354 807q-34 77 -64 116.5t-49.5 47.5t-48.5 8z" />
    <glyph glyph-name="W.sc" unicode="&#xe036;" horiz-adv-x="1593" 
d="M553 256l203 451l-62 147q-26 62 -57.5 85.5t-95.5 23.5v32h432v-32q-55 0 -82 -12t-27 -42q0 -12 4.5 -31t12.5 -40.5t14.5 -38.5t15 -36t9.5 -22l194 -479l225 539q29 73 29 108q0 54 -98 54v32h307v-26q-57 -7 -82 -30.5t-47 -74.5l-375 -880h-22l-256 628l-285 -628
h-29l-348 864q-24 59 -48 82t-85 33v32h393v-32q-52 1 -73 -10.5t-21 -37.5q0 -31 25 -96z" />
    <glyph glyph-name="X.sc" unicode="&#xe037;" horiz-adv-x="1138" 
d="M1049 995v-32q-55 -4 -103 -32.5t-81.5 -66t-88.5 -110.5l-141 -187l289 -428q43 -65 75.5 -85.5t77.5 -20.5v-33h-438v33q27 0 40 0.5t29 4t22.5 12t6.5 22.5q0 24 -9 43.5t-32 52.5l-168 250l-178 -242q-5 -7 -17.5 -21.5t-19 -23.5t-12.5 -25t-6 -34q0 -39 94 -39v-33
h-336v33q29 0 51 5.5t36.5 11.5t38 30.5t36.5 41t51 64.5l226 291l-256 371q-45 66 -79 88t-87 27v32h442v-32q-54 0 -74 -8.5t-20 -32.5q0 -9 1.5 -18t3 -14t6.5 -15.5t6.5 -12.5t9.5 -14.5t8 -13.5l145 -216l147 211q2 3 6 8q37 61 40 85q0 37 -95 41v32h353z" />
    <glyph glyph-name="Y.sc" unicode="&#xe038;" horiz-adv-x="1138" 
d="M651 438v-286q0 -68 33 -94t123 -25v-33h-490v33q90 -1 123 25t35 94v274l-301 471q-41 63 -125 66v32h451v-32h-58q-57 0 -57 -45q0 -33 43 -101l195 -311l194 305q17 26 25 39.5t15 33.5t7 38q0 41 -90 41v32h307v-32q-53 0 -79 -20.5t-68 -83.5q-6 -10 -10 -15z" />
    <glyph glyph-name="Yacute.sc" unicode="&#xe039;" horiz-adv-x="1138" 
d="M651 438v-286q0 -68 33 -94t123 -25v-33h-490v33q90 -1 123 25t35 94v274l-301 471q-41 63 -125 66v32h451v-32h-58q-57 0 -57 -45q0 -33 43 -101l195 -311l194 305q17 26 25 39.5t15 33.5t7 38q0 41 -90 41v32h307v-32q-53 0 -79 -20.5t-68 -83.5q-6 -10 -10 -15z
M502 1112h-82l301 303q32 32 48.5 39.5t41.5 7.5q23 0 38 -8.5t21 -21.5t7.5 -21t1.5 -14q0 -49 -62 -86z" />
    <glyph glyph-name="Ydieresis.sc" unicode="&#xe03a;" horiz-adv-x="1138" 
d="M651 438v-286q0 -68 33 -94t123 -25v-33h-490v33q90 -1 123 25t35 94v274l-301 471q-41 63 -125 66v32h451v-32h-58q-57 0 -57 -45q0 -33 43 -101l195 -311l194 305q17 26 25 39.5t15 33.5t7 38q0 41 -90 41v32h307v-32q-53 0 -79 -20.5t-68 -83.5q-6 -10 -10 -15z
M266 1247q0 35 26.5 69t72.5 34q41 0 71.5 -31t30.5 -72q0 -42 -30 -72t-72 -30q-48 0 -73.5 32.5t-25.5 69.5zM674 1247q0 35 26 69t72 34q41 0 71.5 -31t30.5 -72q0 -42 -30 -72t-72 -30q-48 0 -73 32.5t-25 69.5z" />
    <glyph glyph-name="Z.sc" unicode="&#xe03b;" horiz-adv-x="1138" 
d="M1006 971l-684 -905h415q138 0 193 40t104 179h35l-57 -285h-963l707 930h-363q-99 0 -148 -42t-73 -159h-37l41 266h830v-24z" />
    <glyph glyph-name="Zcaron.sc" unicode="&#xe03c;" horiz-adv-x="1138" 
d="M1006 971l-684 -905h415q138 0 193 40t104 179h35l-57 -285h-963l707 930h-363q-99 0 -148 -42t-73 -159h-37l41 266h830v-24zM889 1454l-256 -342h-127l-254 342h70l247 -211l250 211h70z" />
    <glyph glyph-name="germandbls.sc" unicode="&#xe03f;" horiz-adv-x="1593" 
d="M696 709l-34 4q-16 42 -27 66.5t-35 64t-50 62t-68.5 40t-92.5 17.5q-65 0 -106 -41.5t-41 -102.5q0 -38 26.5 -72t69 -63t94.5 -59t103.5 -66.5t94 -78.5t69 -102.5t26.5 -131.5q0 -82 -46.5 -143.5t-113 -90t-139.5 -28.5q-66 0 -117.5 9t-79.5 18t-36 9t-14.5 -2
t-10.5 -4t-8 -6.5t-5.5 -7t-4 -7t-3.5 -5.5l-32 -4l-60 335l33 5q53 -147 136 -215t173 -68q73 0 124.5 40t51.5 105q0 53 -26.5 98t-69 78.5t-94 65t-103.5 65.5t-94.5 71.5t-69 91t-26.5 116.5q0 116 70.5 178t204.5 62q65 0 132 -20.5t68 -20.5q17 0 27 8.5t26 32.5h29z
M1493 709l-35 4q-13 35 -22 55t-26.5 54.5t-36.5 55t-46 42.5t-63 32.5t-78 10.5q-65 0 -106.5 -41.5t-41.5 -102.5q0 -43 36 -83.5t89.5 -71t116.5 -71.5t116.5 -84.5t89.5 -112t36 -150.5t-46.5 -143.5t-113 -90t-139.5 -28.5q-66 0 -118 9t-80 18t-36 9q-9 0 -16.5 -2
t-12 -6.5t-7 -7.5t-6 -9t-3.5 -7l-33 -4l-59 335l33 5q53 -147 136 -215t173 -68q73 0 124.5 40t51.5 105q0 53 -26.5 98t-69 78.5t-94.5 65t-103.5 65.5t-94 71.5t-69 91t-26.5 116.5q0 116 70 178t204 62q65 0 132.5 -20.5t68.5 -20.5q17 0 27 8.5t26 32.5h29z" />
    <glyph glyph-name="zero.taboldstyle" unicode="&#xf643;" 
d="M508 1012q122 0 228 -69t170.5 -193t64.5 -275q0 -108 -39.5 -201.5t-104.5 -156t-148.5 -98t-170.5 -35.5q-125 0 -231 60t-171 173.5t-65 257.5q0 230 134.5 383.5t332.5 153.5zM508 954q-37 0 -73 -14t-72.5 -49t-63.5 -87.5t-44 -136.5t-17 -190q0 -82 13.5 -155.5
t43 -138.5t84.5 -103.5t129 -38.5q77 0 131.5 38t82.5 104.5t40 138t12 155.5q0 106 -16 190t-41.5 137t-61 87.5t-71.5 48.5t-76 14z" />
    <glyph glyph-name="one.taboldstyle" unicode="&#xf644;" 
d="M418 188v631q0 33 -3 55t-13.5 37.5t-21 24t-37 14.5t-48.5 8t-68 5v32h555v-32q-45 -3 -67 -5t-48.5 -8t-36.5 -14.5t-20.5 -24.5t-13 -37.5t-2.5 -54.5v-631q0 -85 34 -120t124 -35h30v-33h-555v33h31q91 0 125.5 35t34.5 120z" />
    <glyph glyph-name="two.taboldstyle" unicode="&#xf645;" 
d="M905 268l-88 -268h-737v20q199 151 348 297q124 122 165.5 192.5t41.5 176.5q0 94 -62.5 146.5t-166.5 52.5q-48 0 -89 -14.5t-68.5 -35t-53 -51.5t-39 -54.5t-27.5 -53.5l-39 14q1 3 10.5 26t18.5 43t27.5 51.5t38.5 57t51 53.5t65.5 47t82 31.5t99.5 12.5
q159 0 243.5 -80.5t84.5 -196.5q0 -65 -19.5 -122.5t-61.5 -110.5t-86 -95t-114 -98q-112 -91 -211 -145v-4h388q74 0 103 23.5t60 97.5z" />
    <glyph glyph-name="three.taboldstyle" unicode="&#xf646;" 
d="M133 676l-37 6q36 111 82 174q115 156 326 156q57 0 111 -17t99.5 -48.5t73 -83.5t27.5 -115q0 -53 -17.5 -100t-49 -84t-58.5 -60.5t-63 -48.5q38 -8 79 -32t83 -64.5t69 -107t27 -145.5q0 -101 -33 -184.5t-88 -139t-128 -94.5t-151.5 -56t-160.5 -17
q-115 0 -173.5 31.5t-58.5 83.5q0 35 21 55t63 20q29 0 62.5 -18t61.5 -40t74 -40t97 -18q96 0 179 79.5t83 198.5q0 81 -19.5 141.5t-54 99.5t-87.5 63t-114.5 34t-140.5 10v33q97 29 165.5 68.5t103.5 83.5t50 84.5t15 83.5q0 93 -64 157t-167 64q-56 0 -106 -21
t-80.5 -48.5t-54.5 -61.5t-33 -52.5t-13 -29.5z" />
    <glyph glyph-name="four.taboldstyle" unicode="&#xf647;" 
d="M598 135v688h-4l-471 -665v-23h475zM762 1034v-899h211v-135h-209v-362h-164v362h-571v143l639 891h94z" />
    <glyph glyph-name="five.taboldstyle" unicode="&#xf648;" 
d="M815 840h-444l-86 -183q85 -10 161.5 -29t159 -59t141 -95.5t96.5 -144t38 -198.5q0 -98 -32.5 -183t-87.5 -145t-127.5 -103t-152.5 -64t-162 -21q-111 0 -180 34.5t-69 92.5q0 39 24 60.5t68 21.5q56 0 143 -60q40 -28 55 -37.5t41.5 -19.5t53.5 -10q115 0 196.5 99.5
t81.5 244.5q0 70 -21 129.5t-54.5 102.5t-83.5 78.5t-101 58t-114.5 40.5t-116 28t-113.5 18l238 499h399q23 0 37 1.5t38 13t46 34.5l18 -6z" />
    <glyph glyph-name="six.taboldstyle" unicode="&#xf649;" 
d="M770 393q0 83 -16 154t-48 126t-85 86.5t-121 31.5q-65 0 -125.5 -22.5t-89.5 -63.5q-23 -31 -23 -238q0 -111 36.5 -209.5t98 -157.5t131.5 -59q108 0 175 84t67 268zM909 1401v-33q-250 -33 -399 -180.5t-203 -390.5l4 -4q114 96 262 96q53 0 104.5 -13.5t102 -45.5
t89 -79.5t62 -122t23.5 -165.5q0 -198 -126.5 -338.5t-299.5 -140.5q-92 0 -171 34.5t-142.5 104t-100 187.5t-36.5 272q0 157 48 292t129.5 230.5t188.5 163.5t225.5 100.5t239.5 32.5z" />
    <glyph glyph-name="seven.taboldstyle" unicode="&#xf64a;" 
d="M80 682l-43 10l129 303h764l-447 -1378h-129l406 1227h-451q-83 0 -127.5 -34.5t-101.5 -127.5z" />
    <glyph glyph-name="eight.taboldstyle" unicode="&#xf64b;" 
d="M741 252q0 36 -8 69.5t-19.5 60t-33.5 54.5t-40 47t-49 44.5t-50.5 39.5t-55.5 39.5t-53 38.5q-170 -119 -170 -315q0 -77 27.5 -141.5t84.5 -106t134 -41.5q52 0 93.5 14t67 36t42.5 50.5t23.5 56t6.5 54.5zM582 764q10 -8 43 -32t51.5 -38t51 -41.5t52.5 -48.5
t44.5 -53t38.5 -61.5t24 -66.5t10 -75q0 -89 -32.5 -160t-88 -114.5t-126 -66.5t-150.5 -23q-185 0 -289.5 96.5t-104.5 234.5q0 52 19 103.5t47.5 91.5t67 77t71.5 61.5t66 43.5q-16 18 -52.5 46t-68 55.5t-63.5 66.5t-51 94.5t-19 122.5q0 137 100.5 220t263.5 83
q100 0 182.5 -29t136.5 -92t54 -149q0 -49 -16.5 -93.5t-39.5 -75.5t-57.5 -62t-61 -48t-59.5 -38t-44 -29zM524 805q77 49 133 127.5t56 173.5t-69 156t-165 61q-77 0 -143 -55t-66 -142q0 -43 18.5 -86.5t44.5 -77t63 -65.5t66.5 -52.5t61.5 -39.5z" />
    <glyph glyph-name="nine.taboldstyle" unicode="&#xf64c;" 
d="M242 643q0 -86 15 -161t44.5 -136.5t79.5 -97t115 -35.5q63 0 136.5 28.5t96.5 69.5q8 13 11.5 42t4 53t0.5 79v27q0 79 -15.5 154.5t-47 141.5t-86 106t-125.5 40q-104 0 -166.5 -73.5t-62.5 -237.5zM115 -406v33q133 27 235.5 82t175 137.5t121.5 175.5t90 216l-4 4
q-111 -119 -348 -119q-56 0 -113.5 27t-105.5 77t-78.5 130t-30.5 175q0 67 15.5 133.5t49 129t80.5 111t115.5 77.5t149.5 29q215 0 339 -146t124 -428q0 -158 -48.5 -296t-129.5 -236.5t-186.5 -170t-220.5 -106t-230 -35.5z" />
    <glyph glyph-name="dollar.taboldstyle" unicode="&#xf653;" 
d="M870 1024h-30q-48 252 -299 281v-504q188 -108 248 -154q106 -82 134 -182q13 -48 13 -109q0 -303 -395 -356v-178h-70v178q-218 0 -381 104v267h31q68 -314 350 -314v578q-57 32 -92.5 53.5t-83.5 54t-77 62.5t-57.5 68t-41.5 81.5t-13 92.5q0 56 21 108t63.5 96.5
t114.5 73.5t166 35v129h70v-129q71 -9 112.5 -16t108.5 -31.5t108 -61.5v-227zM469 834v471q-56 -9 -98 -31t-62.5 -45.5t-33 -53.5t-15 -48t-2.5 -37q0 -39 14 -73t46.5 -66.5t64 -56t86.5 -60.5zM541 600v-543q21 4 35 7t40.5 12t45 19.5t41.5 30.5t37 44t24 60t10 79
q0 42 -13 79t-30.5 62.5t-53 55t-61.5 46.5t-75 48z" />
    <glyph glyph-name="cent.taboldstyle" unicode="&#xf654;" 
d="M825 1186l-96 -277q66 -22 110 -71t44 -101q0 -39 -24.5 -65.5t-59.5 -26.5q-43 0 -70 24.5t-53 82.5l-207 -596q70 -25 117 -25q94 0 163.5 48t141.5 157l27 -17q-75 -166 -171 -251.5t-225 -85.5q-43 0 -110 18l-101 -283h-69l104 308q-62 31 -108.5 80t-70 94.5
t-38 98t-17.5 84t-3 58.5q0 120 40 218t105.5 158.5t144 93t160.5 32.5q40 0 105 -10l90 254h71zM406 201l235 661q-51 19 -98 19q-34 0 -69.5 -10t-73.5 -35t-67 -63t-48 -100.5t-19 -140.5q0 -217 140 -331z" />
    <glyph glyph-name="breve.sc" unicode="&#xf6f4;" horiz-adv-x="681" 
d="M569 1434h60q-2 -22 -4 -38.5t-11 -52.5t-20.5 -63t-34 -60.5t-51.5 -55.5t-73.5 -37t-98.5 -15q-120 0 -203 82.5t-80 239.5h60q15 -95 72.5 -147t154.5 -52q33 0 60 6.5t46.5 14.5t37.5 26t27.5 30t22.5 39t18 39t17 44z" />
    <glyph glyph-name="caron.sc" unicode="&#xf6f5;" horiz-adv-x="681" 
d="M659 1454l-256 -342h-127l-253 342h69l248 -211l250 211h69z" />
    <glyph glyph-name="circumflex.sc" unicode="&#xf6f6;" horiz-adv-x="681" 
d="M659 1112h-69l-250 211l-248 -211h-69l253 342h127z" />
    <glyph glyph-name="dotaccent.sc" unicode="&#xf6f7;" horiz-adv-x="681" 
d="M242 1247q0 35 26 69t72 34q41 0 71.5 -31t30.5 -72q0 -42 -30 -72t-72 -30q-48 0 -73 32.5t-25 69.5z" />
    <glyph glyph-name="hungarumlaut.sc" unicode="&#xf6f8;" horiz-adv-x="681" 
d="M395 1112h-82l301 303q32 32 49 39.5t42 7.5q30 0 46.5 -16t18.5 -27.5t2 -21.5q0 -49 -61 -86zM76 1112h-82l301 303q32 32 48.5 39.5t41.5 7.5q23 0 38 -8.5t21 -21.5t7.5 -21t1.5 -14q0 -49 -62 -86z" />
    <glyph glyph-name="lslash.sc" unicode="&#xf6f9;" 
d="M647 723v-76l-270 -143v-352q0 -62 32 -78.5t152 -16.5t190 21t107 61t74 121h39l-88 -260h-838v33q93 1 124.5 27.5t31.5 91.5v260l-185 -97v76l185 98v338q0 75 -33.5 105t-122.5 31v32h496v-32q-91 -1 -127.5 -31.5t-36.5 -104.5v-245z" />
    <glyph glyph-name="oe.sc" unicode="&#xf6fa;" horiz-adv-x="1478" 
d="M696 229v596q0 68 -43.5 98.5t-107.5 30.5q-133 0 -216 -120.5t-83 -341.5q0 -96 16.5 -175t51 -142t93.5 -98.5t138 -35.5q81 0 116 46.5t35 141.5zM1241 702v-360h-29q-4 40 -9.5 61.5t-19 43t-38.5 31.5t-66 16t-104 6h-94v-367q0 -46 23 -61t73 -15q95 0 158.5 7.5
t105 20.5t70 41.5t44.5 59t36 84.5h39l-66 -270h-623q-44 0 -118 -8q-78 -8 -127 -8q-193 0 -322 146t-129 362q0 236 137.5 378t362.5 142q25 0 79.5 -3t61.5 -3q115 -9 154 -9h489l14 -239h-40q-1 30 -5 50.5t-18.5 47.5t-39 43.5t-70 28.5t-109.5 12h-86q-50 0 -72 -14
t-22 -54v-315h135q46 0 72.5 2.5t50 10t35.5 24t20.5 42t13.5 66.5h33z" />
    <glyph glyph-name="ogonek.sc" unicode="&#xf6fb;" horiz-adv-x="681" 
d="M469 -150l41 -32q-43 -67 -102 -111.5t-123 -44.5q-68 0 -111 43.5t-43 122.5q0 45 35 94t76 78h94q-90 -71 -90 -141q0 -37 22 -59.5t51 -22.5q41 0 75 18.5t75 54.5z" />
    <glyph glyph-name="ring.sc" unicode="&#xf6fc;" horiz-adv-x="681" 
d="M137 1325q0 84 59 144.5t144 60.5t145 -60t60 -145t-60 -144t-145 -59q-87 0 -145 59.5t-58 143.5zM340 1460q-62 0 -97.5 -44t-35.5 -89q0 -47 34.5 -91t96.5 -44q58 0 97.5 38.5t39.5 94.5t-39 95.5t-96 39.5z" />
    <glyph glyph-name="scaron.sc" unicode="&#xf6fd;" horiz-adv-x="796" 
d="M696 709l-34 4q-16 42 -27 66.5t-35 64t-50 62t-68.5 40t-92.5 17.5q-65 0 -106 -41.5t-41 -102.5q0 -38 26.5 -72t69 -63t94.5 -59t103.5 -66.5t94 -78.5t69 -102.5t26.5 -131.5q0 -82 -46.5 -143.5t-113 -90t-139.5 -28.5q-66 0 -117.5 9t-79.5 18t-36 9t-14.5 -2
t-10.5 -4t-8 -6.5t-5.5 -7t-4 -7t-3.5 -5.5l-32 -4l-60 335l33 5q53 -147 136 -215t173 -68q73 0 124.5 40t51.5 105q0 53 -26.5 98t-69 78.5t-94 65t-103.5 65.5t-94.5 71.5t-69 91t-26.5 116.5q0 116 70.5 178t204.5 62q65 0 132 -20.5t68 -20.5q17 0 27 8.5t26 32.5h29z
M717 1454l-256 -342h-127l-254 342h70l247 -211l250 211h70z" />
    <glyph glyph-name="tilde.sc" unicode="&#xf6fe;" horiz-adv-x="681" 
d="M618 1380h60q-8 -32 -14 -51t-23.5 -54.5t-38 -56.5t-57 -38t-82.5 -17q-43 0 -78 11.5t-88 37.5l-47 23q-46 22 -76 22q-27 0 -48 -9t-33.5 -25.5t-19 -29t-12.5 -30.5h-59q6 37 21.5 71t40.5 66t64.5 51t88.5 19q65 0 135 -37l49 -24q65 -31 99 -31q42 0 67 21t51 81z
" />
    <glyph glyph-name="zcaron.sc" unicode="&#xf6ff;" horiz-adv-x="1138" 
d="M1006 971l-684 -905h415q138 0 193 40t104 179h35l-57 -285h-963l707 930h-363q-99 0 -148 -42t-73 -159h-37l41 266h830v-24zM889 1454l-256 -342h-127l-254 342h70l247 -211l250 211h70z" />
    <glyph glyph-name="exclam.sc" unicode="&#xf721;" horiz-adv-x="681" 
d="M387 360h-27l-18 222q-5 60 -40.5 319.5t-35.5 310.5q0 71 25 121.5t82 50.5q134 0 106 -239zM375 -18q-40 0 -74.5 25.5t-34.5 78.5q0 47 32 79t77 32q47 0 79.5 -33t32.5 -78q0 -51 -34.5 -77.5t-77.5 -26.5z" />
    <glyph glyph-name="ampersand.sc" unicode="&#xf726;" horiz-adv-x="1593" 
d="M575 1141q0 -121 82 -289q240 127 240 295q0 75 -47.5 123.5t-114.5 48.5q-69 0 -114.5 -44t-45.5 -134zM1456 872v-43q-36 -5 -54.5 -9t-46 -16t-49.5 -35t-42 -60l-54 -95q-59 -103 -84.5 -141.5t-119.5 -165.5q10 -15 35 -42t65 -62t95 -59.5t108 -24.5q50 0 88 16
t58 35t50 57l31 -22q-2 -7 -12 -27.5t-35.5 -57t-59 -68.5t-87.5 -55.5t-115 -23.5q-58 0 -113.5 19t-103 53.5t-73 57.5t-58.5 57q-36 -31 -56.5 -48t-68 -47.5t-89.5 -47.5t-106.5 -30.5t-134.5 -13.5q-42 0 -83.5 7.5t-89 29t-83 56t-59 93.5t-23.5 136q0 246 322 432
l77 45q-30 82 -40.5 114t-20.5 81t-10 96q0 57 20.5 112.5t58 103t99 76.5t135.5 29q118 0 198.5 -66t80.5 -179q0 -42 -11.5 -80t-28 -67t-45 -57.5t-52.5 -47t-61 -40t-60.5 -33t-59.5 -28.5q119 -237 270 -421q35 47 56 76.5t57.5 87.5t55 110t18.5 96q0 53 -31.5 71
t-99.5 23v43h442zM274 369q0 -119 78 -204t187 -85q130 0 288 133q-148 177 -311 489q-29 -19 -43 -28t-44.5 -32t-47.5 -40t-40 -45t-35.5 -54t-22 -61.5t-9.5 -72.5z" />
    <glyph glyph-name="question.sc" unicode="&#xf73f;" horiz-adv-x="909" 
d="M500 336h-35q0 78 21.5 163.5t39.5 127.5l58 131q29 64 52 155t23 150q0 48 -13.5 93t-39.5 83t-70.5 61t-101.5 23q-67 0 -128.5 -38t-61.5 -87q0 -22 19.5 -45.5t39 -50.5t19.5 -58t-20.5 -57t-59.5 -26q-103 0 -103 129q0 74 32 132.5t82.5 92.5t107 51.5t112.5 17.5
q85 0 174 -36t127 -82q42 -52 58 -98t16 -124q0 -70 -48.5 -161t-105.5 -158q-91 -105 -132 -184t-62 -205zM485 -16q-40 0 -74 25.5t-34 78.5q0 47 31.5 79t76.5 32q47 0 80 -33t33 -78q0 -51 -35 -77.5t-78 -26.5z" />
    <glyph glyph-name="grave.sc" unicode="&#xf760;" horiz-adv-x="681" 
d="M496 1112h-82l-316 199q-59 38 -59 88q0 3 0.5 8t4.5 15.5t10 18.5t19 14.5t31 6.5q26 0 40.5 -7t50.5 -40z" />
    <glyph glyph-name="a.sc" unicode="&#xf761;" horiz-adv-x="1138" 
d="M676 307h-363q-64 -155 -67 -209q-3 -39 21.5 -52t84.5 -13v-33h-303v33q39 0 67.5 18.5t53.5 79.5l352 881h23l389 -852q30 -66 60 -96.5t83 -30.5v-33h-409v33q57 0 79.5 7.5t22.5 31.5q0 14 -14.5 50t-40.5 94.5t-39 90.5zM340 365h309l-164 397z" />
    <glyph glyph-name="b.sc" unicode="&#xf762;" 
d="M201 166v637q0 55 -7.5 87t-28 48t-45 20.5t-71.5 4.5v32h445q399 0 399 -256q0 -48 -21 -87.5t-55 -63.5t-64 -38t-61 -22v-4q36 -7 74 -24t79 -47t67 -81t26 -114q0 -56 -28 -102t-71 -74t-98.5 -47.5t-107.5 -27t-101 -7.5h-483v33q92 0 122 24.5t30 108.5zM377 492
v-369q0 -43 25 -54.5t98 -11.5q110 0 175.5 47t65.5 150t-73 170.5t-207 67.5h-84zM377 887v-338q65 0 112.5 4.5t90 17t69 33.5t41.5 55.5t15 81.5q0 60 -22.5 101t-63 61t-83.5 27.5t-98 7.5q-40 0 -51.5 -10.5t-9.5 -40.5z" />
    <glyph glyph-name="c.sc" unicode="&#xf763;" 
d="M918 995l36 -307h-32q-40 121 -133.5 193.5t-215.5 72.5q-111 0 -188 -65.5t-112 -173t-35 -248.5q0 -59 11 -117.5t35.5 -114.5t60.5 -99t91 -69t121 -26q70 0 130.5 19.5t108.5 57t80 72.5t68 84l33 -20q-32 -52 -67 -93t-90 -84.5t-131.5 -68t-168.5 -24.5
q-228 0 -355.5 135t-127.5 368q0 239 138 382t390 143q68 0 121.5 -15.5t87.5 -31t53 -15.5q25 0 56 45h35z" />
    <glyph glyph-name="d.sc" unicode="&#xf764;" horiz-adv-x="1138" 
d="M193 139v688q0 75 -36.5 104t-115.5 32v32h475q51 0 102.5 -6t109.5 -22t110 -40t100.5 -63t83 -88.5t55.5 -119.5t21 -152q0 -110 -33.5 -200.5t-100.5 -159t-176 -106.5t-251 -38h-496v33q87 1 119.5 25t32.5 81zM897 524q0 201 -113 307.5t-317 106.5q-63 0 -80.5 -15
t-17.5 -55v-778q0 -25 23.5 -33t107.5 -8q86 0 156.5 26.5t125.5 81.5t85 148.5t30 218.5z" />
    <glyph glyph-name="e.sc" unicode="&#xf765;" 
d="M770 702v-360h-33q-6 87 -48.5 122.5t-143.5 35.5h-168v-385q0 -37 30 -47.5t134 -10.5q83 0 139.5 7.5t95 21t64.5 41.5t42.5 59t35.5 84h40l-65 -270h-848v33q38 0 64.5 4.5t43.5 17.5t27 26t14.5 39.5t5.5 47.5t1 61v611q0 41 -13 67.5t-38.5 37.5t-48 14.5t-56.5 3.5
v32h813l14 -237l-41 -2q-2 67 -24 104t-83.5 57.5t-174.5 20.5q-109 0 -140.5 -8.5t-31.5 -38.5v-334h168q103 0 144.5 30t47.5 115h33z" />
    <glyph glyph-name="f.sc" unicode="&#xf766;" horiz-adv-x="909" 
d="M47 963v32h834l16 -229h-37q-12 55 -26 84.5t-48 51.5t-88.5 29t-148.5 7q-109 0 -140.5 -8.5t-31.5 -38.5v-334h143q103 0 145 30t48 115h32v-360h-32q-6 87 -49 122.5t-144 35.5h-143v-340q0 -35 8.5 -59t21.5 -37t37 -20.5t45.5 -9t55.5 -1.5v-33h-498v33
q41 0 64.5 3.5t46.5 15.5t33 38.5t10 69.5v667q0 46 -10 74.5t-33.5 41.5t-47 16.5t-63.5 3.5z" />
    <glyph glyph-name="g.sc" unicode="&#xf767;" horiz-adv-x="1138" 
d="M688 528h412v-32q-65 -3 -87 -25.5t-22 -64.5v-308q-34 -38 -144 -76t-267 -38q-71 0 -140 13.5t-143 50.5t-129 94.5t-91 154t-36 219.5q0 68 20.5 136.5t65 133.5t107 115t155 80.5t201.5 30.5q63 0 120.5 -14.5t95.5 -29t54 -14.5q33 0 47.5 15.5t22.5 42.5h26
l15 -299h-33q-29 98 -126.5 169.5t-217.5 71.5q-89 0 -159.5 -41.5t-111 -108t-61 -141.5t-20.5 -151q0 -213 103 -342t265 -129q108 0 156.5 25t48.5 81v246q0 98 -127 103v32z" />
    <glyph glyph-name="h.sc" unicode="&#xf768;" horiz-adv-x="1251" 
d="M852 477h-471v-309q0 -75 31 -104.5t120 -30.5v-33h-483v33q90 1 123 31t33 104v659q0 75 -33.5 105t-122.5 31v32h483v-32q-89 -1 -120 -31t-31 -105v-276h471v276q0 75 -33.5 105t-122.5 31v32h484v-32q-89 -1 -120.5 -31t-31.5 -105v-659q0 -75 31.5 -104.5
t120.5 -30.5v-33h-484v33q90 1 123 31t33 104v309z" />
    <glyph glyph-name="i.sc" unicode="&#xf769;" horiz-adv-x="569" 
d="M29 963v32h483v-32q-89 -1 -120.5 -31t-31.5 -105v-659q0 -74 33 -104t123 -31v-33h-483v33q89 1 120 30.5t31 104.5v659q0 75 -33 105t-122 31z" />
    <glyph glyph-name="j.sc" unicode="&#xf76a;" horiz-adv-x="681" 
d="M463 831v-503q0 -51 -6.5 -95.5t-26 -91.5t-51 -80.5t-85 -55t-124.5 -21.5q-81 0 -117.5 34t-36.5 82q0 35 22.5 56.5t57.5 21.5q30 0 47 -22.5t21.5 -50t17.5 -50t35 -22.5q24 0 39.5 13t21.5 39t7.5 46.5t1.5 52.5v647q0 67 -34 99t-122 33v32h483v-32
q-80 -1 -115.5 -33.5t-35.5 -98.5z" />
    <glyph glyph-name="k.sc" unicode="&#xf76b;" horiz-adv-x="1138" 
d="M197 147v680q0 82 -27.5 104.5t-124.5 31.5v32h483v-32q-93 2 -124 -24.5t-31 -111.5v-286l291 260q88 79 88 121q0 41 -84 41v32h393v-32q-124 0 -285 -148l-248 -231l375 -406q73 -80 122.5 -114t96.5 -31v-33h-467v33q51 0 72 6.5t21 32.5q0 8 -2 15.5t-7 17t-10 18
t-15.5 21t-19.5 22.5t-25 26.5t-28.5 30t-34.5 36t-39 40.5l-184 193l-10 -11v-334q0 -67 32.5 -90.5t126.5 -23.5v-33h-487v33q92 0 122 23.5t30 90.5z" />
    <glyph glyph-name="l.sc" unicode="&#xf76c;" 
d="M971 260l-88 -260h-838v33q93 1 124.5 27.5t31.5 91.5v675q0 75 -33.5 105t-122.5 31v32h496v-32q-91 -1 -127.5 -31.5t-36.5 -104.5v-675q0 -62 32 -78.5t152 -16.5t190 21t107 61t74 121h39z" />
    <glyph glyph-name="m.sc" unicode="&#xf76d;" horiz-adv-x="1366" 
d="M266 854v-686q0 -75 32 -104.5t124 -30.5v-33h-393v33q92 1 123.5 30.5t31.5 104.5v676q0 67 -33.5 90.5t-117.5 28.5v32h352l295 -712l293 712h350v-32q-90 0 -121 -24.5t-31 -70.5v-700q0 -74 33 -104t123 -31v-33h-483v33q89 1 120 30.5t31 104.5v700h-4l-350 -868
h-27l-344 854h-4z" />
    <glyph glyph-name="n.sc" unicode="&#xf76e;" horiz-adv-x="1251" 
d="M1004 0l-709 778v-610q0 -75 32 -104.5t124 -30.5v-33h-394v33q92 1 124 30.5t32 104.5v696l-43 45q-45 48 -123 54v32h279l628 -690v531q0 73 -32.5 98.5t-124.5 28.5v32h389v-32q-89 -3 -119.5 -28.5t-30.5 -98.5v-836h-32z" />
    <glyph glyph-name="o.sc" unicode="&#xf76f;" horiz-adv-x="1138" 
d="M1069 506q0 -151 -69.5 -271.5t-186 -185.5t-256.5 -65t-256.5 65t-186 185.5t-69.5 271.5q0 108 40.5 202.5t109.5 161t163.5 104.5t198.5 38t198.5 -38t163.5 -104.5t109.5 -161t40.5 -202.5zM868 506q0 75 -7 136t-27.5 121t-54.5 100.5t-90.5 65.5t-131.5 25
t-131.5 -25t-90.5 -65.5t-54.5 -100.5t-27.5 -121t-7 -136q0 -81 7 -144.5t27.5 -125.5t54.5 -103.5t90 -66.5t132 -25t132 25t90 66.5t54.5 103.5t27.5 125.5t7 144.5z" />
    <glyph glyph-name="p.sc" unicode="&#xf770;" horiz-adv-x="909" 
d="M360 467v-283q0 -30 3.5 -52.5t8 -38t16.5 -26t22 -17t32 -10t38.5 -4.5l49.5 -3v-33h-501v33q48 3 70.5 7t45.5 18.5t31 44.5t8 81v639q0 83 -34 111.5t-121 28.5v32h491q45 0 91 -7.5t98 -27.5t92 -50.5t66 -81.5t26 -115q0 -75 -32 -130.5t-85.5 -85t-113 -43.5
t-125.5 -14q-116 0 -177 27zM360 883v-295q0 -55 23.5 -72.5t99.5 -17.5q83 0 146 53.5t63 165.5q0 64 -20 109.5t-55.5 69t-73.5 33t-84 9.5q-35 0 -56.5 -4.5t-30 -13.5t-10.5 -16.5t-2 -20.5z" />
    <glyph glyph-name="q.sc" unicode="&#xf771;" horiz-adv-x="1138" 
d="M909 -254q-49 0 -87.5 7.5t-104 34.5t-160 85t-231.5 154q-34 24 -56 40.5t-54.5 44.5t-54 53.5t-45.5 63.5t-38 77t-23.5 91t-9.5 109q0 144 68.5 260.5t185.5 181t258 64.5q104 0 198.5 -38t163.5 -104.5t109.5 -161t40.5 -202.5q0 -111 -34 -202t-91.5 -151.5
t-121.5 -98.5t-136 -58q183 -209 318 -209q17 0 38.5 -1t28.5 -1v-33q-123 -6 -162 -6zM868 506q0 75 -7 136t-27.5 121t-54.5 100.5t-90.5 65.5t-131.5 25t-131.5 -25t-90.5 -65.5t-54.5 -100.5t-27.5 -121t-7 -136q0 -81 7 -144.5t27.5 -125.5t54.5 -103.5t90 -66.5
t132 -25t132 25t90 66.5t54.5 103.5t27.5 125.5t7 144.5z" />
    <glyph glyph-name="r.sc" unicode="&#xf772;" 
d="M184 184v604q0 58 -8 92.5t-28.5 53t-47 24t-71.5 5.5v32h450q79 0 143.5 -13.5t117.5 -43.5t82.5 -83t29.5 -126q0 -100 -66 -164t-188 -86l238 -299q59 -73 92.5 -103t81.5 -44v-33h-242l-346 467h-62v-283q0 -42 6 -70t16.5 -44t32 -24.5t43 -10.5t60.5 -2v-33h-489
v33q45 0 70 4t46.5 19t30 46t8.5 82zM360 877v-361h60q97 0 166 52.5t69 142.5q0 124 -50.5 179.5t-149.5 55.5q-51 0 -73 -17t-22 -52z" />
    <glyph glyph-name="s.sc" unicode="&#xf773;" horiz-adv-x="796" 
d="M696 709l-34 4q-16 42 -27 66.5t-35 64t-50 62t-68.5 40t-92.5 17.5q-65 0 -106 -41.5t-41 -102.5q0 -38 26.5 -72t69 -63t94.5 -59t103.5 -66.5t94 -78.5t69 -102.5t26.5 -131.5q0 -82 -46.5 -143.5t-113 -90t-139.5 -28.5q-66 0 -117.5 9t-79.5 18t-36 9t-14.5 -2
t-10.5 -4t-8 -6.5t-5.5 -7t-4 -7t-3.5 -5.5l-32 -4l-60 335l33 5q53 -147 136 -215t173 -68q73 0 124.5 40t51.5 105q0 53 -26.5 98t-69 78.5t-94 65t-103.5 65.5t-94.5 71.5t-69 91t-26.5 116.5q0 116 70.5 178t204.5 62q65 0 132 -20.5t68 -20.5q17 0 27 8.5t26 32.5h29z
" />
    <glyph glyph-name="t.sc" unicode="&#xf774;" 
d="M418 217v721h-125q-31 0 -55.5 -2.5t-44 -10t-32.5 -13.5t-24 -21t-17.5 -25t-13 -33t-9.5 -36t-9 -43h-35l19 241h868l18 -241h-34q-6 30 -9 43t-9.5 36t-13 33t-17.5 25t-24 21t-32.5 13.5t-44 10t-55.5 2.5h-125v-721q0 -29 0.5 -45.5t2.5 -38t6 -32.5t12 -24.5
t19 -20t27.5 -13t38 -8.5t50.5 -2v-33h-484v33q37 0 62.5 4t42.5 15.5t26.5 23t14 36t5.5 45.5t1 60z" />
    <glyph glyph-name="u.sc" unicode="&#xf775;" horiz-adv-x="1251" 
d="M43 995h494v-32q-27 0 -48.5 -3.5t-37 -7t-27.5 -12.5l-20 -15t-13.5 -20.5t-8 -22.5t-4 -27t-1.5 -28v-32v-471q0 -125 64.5 -196t197.5 -71q72 0 129 19.5t91.5 50.5t57.5 73t32 82.5t9 82.5v401q0 53 -4 82.5t-19.5 55.5t-45.5 39t-82 20v32h383v-32q-55 -7 -86.5 -20
t-47.5 -39.5t-20 -55t-4 -82.5v-401q0 -170 -103.5 -275.5t-289.5 -105.5q-222 0 -330 88t-108 252v471q0 97 -30.5 129.5t-127.5 38.5v32z" />
    <glyph glyph-name="v.sc" unicode="&#xf776;" horiz-adv-x="1138" 
d="M53 963v32h402v-32q-48 0 -69 -7.5t-21 -33.5q0 -36 22 -93l246 -579l215 555q29 76 29 108q0 26 -20 38t-75 12v32h291v-32q-57 -6 -80.5 -27.5t-50.5 -87.5l-340 -864h-33l-354 807q-34 77 -64 116.5t-49.5 47.5t-48.5 8z" />
    <glyph glyph-name="w.sc" unicode="&#xf777;" horiz-adv-x="1593" 
d="M553 256l203 451l-62 147q-26 62 -57.5 85.5t-95.5 23.5v32h432v-32q-55 0 -82 -12t-27 -42q0 -12 4.5 -31t12.5 -40.5t14.5 -38.5t15 -36t9.5 -22l194 -479l225 539q29 73 29 108q0 54 -98 54v32h307v-26q-57 -7 -82 -30.5t-47 -74.5l-375 -880h-22l-256 628l-285 -628
h-29l-348 864q-24 59 -48 82t-85 33v32h393v-32q-52 1 -73 -10.5t-21 -37.5q0 -31 25 -96z" />
    <glyph glyph-name="x.sc" unicode="&#xf778;" horiz-adv-x="1138" 
d="M1049 995v-32q-55 -4 -103 -32.5t-81.5 -66t-88.5 -110.5l-141 -187l289 -428q43 -65 75.5 -85.5t77.5 -20.5v-33h-438v33q27 0 40 0.5t29 4t22.5 12t6.5 22.5q0 24 -9 43.5t-32 52.5l-168 250l-178 -242q-5 -7 -17.5 -21.5t-19 -23.5t-12.5 -25t-6 -34q0 -39 94 -39v-33
h-336v33q29 0 51 5.5t36.5 11.5t38 30.5t36.5 41t51 64.5l226 291l-256 371q-45 66 -79 88t-87 27v32h442v-32q-54 0 -74 -8.5t-20 -32.5q0 -9 1.5 -18t3 -14t6.5 -15.5t6.5 -12.5t9.5 -14.5t8 -13.5l145 -216l147 211q2 3 6 8q37 61 40 85q0 37 -95 41v32h353z" />
    <glyph glyph-name="y.sc" unicode="&#xf779;" horiz-adv-x="1138" 
d="M651 438v-286q0 -68 33 -94t123 -25v-33h-490v33q90 -1 123 25t35 94v274l-301 471q-41 63 -125 66v32h451v-32h-58q-57 0 -57 -45q0 -33 43 -101l195 -311l194 305q17 26 25 39.5t15 33.5t7 38q0 41 -90 41v32h307v-32q-53 0 -79 -20.5t-68 -83.5q-6 -10 -10 -15z" />
    <glyph glyph-name="z.sc" unicode="&#xf77a;" horiz-adv-x="1138" 
d="M1006 971l-684 -905h415q138 0 193 40t104 179h35l-57 -285h-963l707 930h-363q-99 0 -148 -42t-73 -159h-37l41 266h830v-24z" />
    <glyph glyph-name="exclamdown.sc" unicode="&#xf7a1;" horiz-adv-x="681" 
d="M295 578h27l18 -222q5 -60 40.5 -319.5t35.5 -310.5q0 -71 -25 -121.5t-82 -50.5q-134 0 -106 239zM307 956q43 0 78 -26.5t35 -77.5q0 -45 -33 -78t-80 -33q-45 0 -76.5 32t-31.5 79q0 53 34 78.5t74 25.5z" />
    <glyph glyph-name="dieresis.sc" unicode="&#xf7a8;" horiz-adv-x="681" 
d="M37 1247q0 35 26 69t72 34q41 0 72 -31t31 -72q0 -42 -30.5 -72t-72.5 -30q-48 0 -73 32.5t-25 69.5zM444 1247q0 35 26.5 69t72.5 34q41 0 71.5 -31t30.5 -72q0 -42 -30 -72t-72 -30q-48 0 -73.5 32.5t-25.5 69.5z" />
    <glyph glyph-name="macron.sc" unicode="&#xf7af;" horiz-adv-x="681" 
d="M23 1305h636v-111h-636v111z" />
    <glyph glyph-name="acute.sc" unicode="&#xf7b4;" horiz-adv-x="681" 
d="M272 1112h-82l302 303q32 32 48.5 39.5t41.5 7.5q30 0 46.5 -16t18.5 -27.5t2 -21.5q0 -49 -61 -86z" />
    <glyph glyph-name="cedilla.sc" unicode="&#xf7b8;" horiz-adv-x="681" 
d="M201 -203l84 203h71l-51 -133q27 6 57 6q80 0 126.5 -37.5t46.5 -105.5q0 -70 -63 -120t-185 -50q-98 0 -181 32l29 64q23 -9 67.5 -17t59.5 -8q119 0 119 93q0 71 -92 71q-54 0 -74 -8z" />
    <glyph glyph-name="questiondown.sc" unicode="&#xf7bf;" horiz-adv-x="909" 
d="M410 602h34q0 -78 -21.5 -163.5t-39.5 -127.5l-57 -131q-29 -65 -52.5 -155.5t-23.5 -149.5q0 -48 13.5 -93t39.5 -83t70.5 -61t101.5 -23q68 0 129.5 38t61.5 87q0 22 -19.5 45.5t-39 50.5t-19.5 58t20.5 57t59.5 26q102 0 102 -129q0 -74 -32 -132.5t-82.5 -92.5
t-107 -51.5t-112.5 -17.5q-85 0 -174 36t-127 82q-42 52 -58 98t-16 124q0 70 48.5 161t105.5 158q91 106 132.5 185t62.5 204zM424 954q43 0 78 -26.5t35 -77.5q0 -45 -33 -78t-80 -33q-45 0 -77 32t-32 79q0 53 34.5 78.5t74.5 25.5z" />
    <glyph glyph-name="agrave.sc" unicode="&#xf7e0;" horiz-adv-x="1138" 
d="M676 307h-363q-64 -155 -67 -209q-3 -39 21.5 -52t84.5 -13v-33h-303v33q39 0 67.5 18.5t53.5 79.5l352 881h23l389 -852q30 -66 60 -96.5t83 -30.5v-33h-409v33q57 0 79.5 7.5t22.5 31.5q0 14 -14.5 50t-40.5 94.5t-39 90.5zM340 365h309l-164 397zM725 1112h-82
l-315 199q-60 38 -60 88q0 3 0.5 8t4.5 15.5t10.5 18.5t19.5 14.5t31 6.5q26 0 39.5 -6.5t50.5 -40.5z" />
    <glyph glyph-name="aacute.sc" unicode="&#xf7e1;" horiz-adv-x="1138" 
d="M676 307h-363q-64 -155 -67 -209q-3 -39 21.5 -52t84.5 -13v-33h-303v33q39 0 67.5 18.5t53.5 79.5l352 881h23l389 -852q30 -66 60 -96.5t83 -30.5v-33h-409v33q57 0 79.5 7.5t22.5 31.5q0 14 -14.5 50t-40.5 94.5t-39 90.5zM340 365h309l-164 397zM502 1112h-82
l301 303q32 32 48.5 39.5t41.5 7.5q23 0 38 -8.5t21 -21.5t7.5 -21t1.5 -14q0 -49 -62 -86z" />
    <glyph glyph-name="acircumflex.sc" unicode="&#xf7e2;" horiz-adv-x="1138" 
d="M676 307h-363q-64 -155 -67 -209q-3 -39 21.5 -52t84.5 -13v-33h-303v33q39 0 67.5 18.5t53.5 79.5l352 881h23l389 -852q30 -66 60 -96.5t83 -30.5v-33h-409v33q57 0 79.5 7.5t22.5 31.5q0 14 -14.5 50t-40.5 94.5t-39 90.5zM340 365h309l-164 397zM889 1112h-70
l-250 211l-247 -211h-70l254 342h127z" />
    <glyph glyph-name="atilde.sc" unicode="&#xf7e3;" horiz-adv-x="1138" 
d="M676 307h-363q-64 -155 -67 -209q-3 -39 21.5 -52t84.5 -13v-33h-303v33q39 0 67.5 18.5t53.5 79.5l352 881h23l389 -852q30 -66 60 -96.5t83 -30.5v-33h-409v33q57 0 79.5 7.5t22.5 31.5q0 14 -14.5 50t-40.5 94.5t-39 90.5zM340 365h309l-164 397zM848 1380h59
q-8 -32 -14 -51t-23.5 -54.5t-38 -56.5t-57 -38t-82.5 -17q-43 0 -78 11.5t-88 37.5l-47 23q-46 22 -76 22q-27 0 -48 -9t-33.5 -26t-18.5 -29t-12 -30h-60q6 37 21.5 71t40.5 66t64.5 51t88.5 19q66 0 136 -37l49 -24q65 -31 98 -31q42 0 67.5 21t51.5 81z" />
    <glyph glyph-name="adieresis.sc" unicode="&#xf7e4;" horiz-adv-x="1138" 
d="M676 307h-363q-64 -155 -67 -209q-3 -39 21.5 -52t84.5 -13v-33h-303v33q39 0 67.5 18.5t53.5 79.5l352 881h23l389 -852q30 -66 60 -96.5t83 -30.5v-33h-409v33q57 0 79.5 7.5t22.5 31.5q0 14 -14.5 50t-40.5 94.5t-39 90.5zM340 365h309l-164 397zM266 1247
q0 35 26.5 69t72.5 34q41 0 71.5 -31t30.5 -72q0 -42 -30 -72t-72 -30q-48 0 -73.5 32.5t-25.5 69.5zM674 1247q0 35 26 69t72 34q41 0 71.5 -31t30.5 -72q0 -42 -30 -72t-72 -30q-48 0 -73 32.5t-25 69.5z" />
    <glyph glyph-name="aring.sc" unicode="&#xf7e5;" horiz-adv-x="1138" 
d="M676 307h-363q-64 -155 -67 -209q-3 -39 21.5 -52t84.5 -13v-33h-303v33q39 0 67.5 18.5t53.5 79.5l352 881h23l389 -852q30 -66 60 -96.5t83 -30.5v-33h-409v33q57 0 79.5 7.5t22.5 31.5q0 14 -14.5 50t-40.5 94.5t-39 90.5zM340 365h309l-164 397zM367 1325
q0 84 58.5 144.5t143.5 60.5t145 -60t60 -145t-60 -144t-145 -59q-87 0 -144.5 59.5t-57.5 143.5zM569 1460q-62 0 -97.5 -44t-35.5 -89q0 -47 34.5 -91t96.5 -44q58 0 98 38.5t40 94.5t-39.5 95.5t-96.5 39.5z" />
    <glyph glyph-name="ae.sc" unicode="&#xf7e6;" horiz-adv-x="1478" 
d="M1225 700v-354h-33q-8 88 -34 121t-97 33h-217v-394q0 -20 10 -29.5t44.5 -14.5t105.5 -5q97 0 155.5 8t98.5 38.5t56 53.5t51 88l15 27h35l-76 -272h-823v33q38 0 63.5 2.5t42.5 11.5t26 17t13.5 28.5t5.5 36.5t1 49v199h-303l-95 -187q-32 -62 -32 -112q0 -23 26 -34
t64 -11v-33h-291v33q27 0 49.5 10.5t40.5 32.5t27.5 37t23.5 45t17 35l292 561q4 7 12 23t11.5 22.5t10 19.5t9.5 19.5t7.5 17t6.5 17t4.5 14.5t3.5 14t1 12q0 26 -35.5 38t-85.5 12v32h883v-241h-33q-9 38 -16 60.5t-20 46t-30.5 36t-44.5 23t-65 14.5t-90 4
q-109 0 -140.5 -8.5t-31.5 -38.5v-334h217q71 0 97 31.5t34 111.5h33zM393 434h275v467q0 29 -11 29q-7 0 -18 -21z" />
    <glyph glyph-name="ccedilla.sc" unicode="&#xf7e7;" 
d="M918 995l36 -307h-32q-40 121 -133.5 193.5t-215.5 72.5q-111 0 -188 -65.5t-112 -173t-35 -248.5q0 -59 11 -117.5t35.5 -114.5t60.5 -99t91 -69t121 -26q70 0 130.5 19.5t108.5 57t80 72.5t68 84l33 -20q-32 -52 -67 -93t-90 -84.5t-131.5 -68t-168.5 -24.5l-43 -117
q27 6 58 6q80 0 126 -37.5t46 -105.5q0 -70 -63 -120t-185 -50q-97 0 -180 32l28 64q23 -9 67.5 -17t59.5 -8q119 0 119 93q0 71 -92 71q-54 0 -74 -8l-14 10l78 193q-197 19 -305.5 151t-108.5 346q0 239 138 382t390 143q68 0 121.5 -15.5t87.5 -31t53 -15.5q25 0 56 45
h35z" />
    <glyph glyph-name="egrave.sc" unicode="&#xf7e8;" 
d="M770 702v-360h-33q-6 87 -48.5 122.5t-143.5 35.5h-168v-385q0 -37 30 -47.5t134 -10.5q83 0 139.5 7.5t95 21t64.5 41.5t42.5 59t35.5 84h40l-65 -270h-848v33q38 0 64.5 4.5t43.5 17.5t27 26t14.5 39.5t5.5 47.5t1 61v611q0 41 -13 67.5t-38.5 37.5t-48 14.5t-56.5 3.5
v32h813l14 -237l-41 -2q-2 67 -24 104t-83.5 57.5t-174.5 20.5q-109 0 -140.5 -8.5t-31.5 -38.5v-334h168q103 0 144.5 30t47.5 115h33zM668 1112h-82l-316 199q-59 38 -59 88q0 3 0.5 8t4.5 15.5t10 18.5t19 14.5t31 6.5q26 0 40.5 -7t50.5 -40z" />
    <glyph glyph-name="eacute.sc" unicode="&#xf7e9;" 
d="M770 702v-360h-33q-6 87 -48.5 122.5t-143.5 35.5h-168v-385q0 -37 30 -47.5t134 -10.5q83 0 139.5 7.5t95 21t64.5 41.5t42.5 59t35.5 84h40l-65 -270h-848v33q38 0 64.5 4.5t43.5 17.5t27 26t14.5 39.5t5.5 47.5t1 61v611q0 41 -13 67.5t-38.5 37.5t-48 14.5t-56.5 3.5
v32h813l14 -237l-41 -2q-2 67 -24 104t-83.5 57.5t-174.5 20.5q-109 0 -140.5 -8.5t-31.5 -38.5v-334h168q103 0 144.5 30t47.5 115h33zM444 1112h-82l302 303q32 32 48.5 39.5t41.5 7.5q30 0 46.5 -16t18.5 -27.5t2 -21.5q0 -49 -61 -86z" />
    <glyph glyph-name="ecircumflex.sc" unicode="&#xf7ea;" 
d="M770 702v-360h-33q-6 87 -48.5 122.5t-143.5 35.5h-168v-385q0 -37 30 -47.5t134 -10.5q83 0 139.5 7.5t95 21t64.5 41.5t42.5 59t35.5 84h40l-65 -270h-848v33q38 0 64.5 4.5t43.5 17.5t27 26t14.5 39.5t5.5 47.5t1 61v611q0 41 -13 67.5t-38.5 37.5t-48 14.5t-56.5 3.5
v32h813l14 -237l-41 -2q-2 67 -24 104t-83.5 57.5t-174.5 20.5q-109 0 -140.5 -8.5t-31.5 -38.5v-334h168q103 0 144.5 30t47.5 115h33zM831 1112h-69l-250 211l-248 -211h-69l254 342h126z" />
    <glyph glyph-name="edieresis.sc" unicode="&#xf7eb;" 
d="M770 702v-360h-33q-6 87 -48.5 122.5t-143.5 35.5h-168v-385q0 -37 30 -47.5t134 -10.5q83 0 139.5 7.5t95 21t64.5 41.5t42.5 59t35.5 84h40l-65 -270h-848v33q38 0 64.5 4.5t43.5 17.5t27 26t14.5 39.5t5.5 47.5t1 61v611q0 41 -13 67.5t-38.5 37.5t-48 14.5t-56.5 3.5
v32h813l14 -237l-41 -2q-2 67 -24 104t-83.5 57.5t-174.5 20.5q-109 0 -140.5 -8.5t-31.5 -38.5v-334h168q103 0 144.5 30t47.5 115h33zM209 1247q0 35 26 69t72 34q41 0 72 -31t31 -72q0 -42 -30.5 -72t-72.5 -30q-48 0 -73 32.5t-25 69.5zM616 1247q0 35 26.5 69t72.5 34
q41 0 71.5 -31t30.5 -72q0 -42 -30 -72t-72 -30q-48 0 -73.5 32.5t-25.5 69.5z" />
    <glyph glyph-name="igrave.sc" unicode="&#xf7ec;" horiz-adv-x="569" 
d="M29 963v32h483v-32q-89 -1 -120.5 -31t-31.5 -105v-659q0 -74 33 -104t123 -31v-33h-483v33q89 1 120 30.5t31 104.5v659q0 75 -33 105t-122 31zM440 1112h-82l-315 199q-59 38 -59 88q0 3 0.5 8t4.5 15.5t10 18.5t19 14.5t31 6.5q26 0 39.5 -6.5t50.5 -40.5z" />
    <glyph glyph-name="iacute.sc" unicode="&#xf7ed;" horiz-adv-x="569" 
d="M29 963v32h483v-32q-89 -1 -120.5 -31t-31.5 -105v-659q0 -74 33 -104t123 -31v-33h-483v33q89 1 120 30.5t31 104.5v659q0 75 -33 105t-122 31zM217 1112h-82l301 303q32 32 48.5 39.5t41.5 7.5q23 0 38 -8.5t21 -21.5t7.5 -21t1.5 -14q0 -49 -62 -86z" />
    <glyph glyph-name="icircumflex.sc" unicode="&#xf7ee;" horiz-adv-x="569" 
d="M29 963v32h483v-32q-89 -1 -120.5 -31t-31.5 -105v-659q0 -74 33 -104t123 -31v-33h-483v33q89 1 120 30.5t31 104.5v659q0 75 -33 105t-122 31zM604 1112h-69l-250 211l-248 -211h-70l254 342h127z" />
    <glyph glyph-name="idieresis.sc" unicode="&#xf7ef;" horiz-adv-x="569" 
d="M29 963v32h483v-32q-89 -1 -120.5 -31t-31.5 -105v-659q0 -74 33 -104t123 -31v-33h-483v33q89 1 120 30.5t31 104.5v659q0 75 -33 105t-122 31zM-18 1247q0 35 26 69t72 34q41 0 71.5 -31t30.5 -72q0 -42 -30 -72t-72 -30q-48 0 -73 32.5t-25 69.5zM389 1247q0 35 26 69
t72 34q41 0 72 -31t31 -72q0 -42 -30.5 -72t-72.5 -30q-48 0 -73 32.5t-25 69.5z" />
    <glyph glyph-name="eth.sc" unicode="&#xf7f0;" horiz-adv-x="1138" 
d="M655 479h-286v-389q0 -25 23.5 -33t107.5 -8q86 0 156.5 26.5t125.5 81.5t85 148.5t30 218.5q0 199 -109.5 306.5t-300.5 107.5q-67 0 -92.5 -14.5t-25.5 -51.5v-319h286v-74zM193 479h-148v74h148v307q0 53 -37.5 76.5t-114.5 26.5v32h475q50 0 102 -6t110 -22
t110 -39.5t100.5 -62t83 -87.5t55.5 -117t21 -149q0 -231 -142 -371.5t-366 -140.5h-549v33q87 1 119.5 25t32.5 81v340z" />
    <glyph glyph-name="ntilde.sc" unicode="&#xf7f1;" horiz-adv-x="1251" 
d="M1004 0l-709 778v-610q0 -75 32 -104.5t124 -30.5v-33h-394v33q92 1 124 30.5t32 104.5v696l-43 45q-45 48 -123 54v32h279l628 -690v531q0 73 -32.5 98.5t-124.5 28.5v32h389v-32q-89 -3 -119.5 -28.5t-30.5 -98.5v-836h-32zM903 1380h60q-8 -32 -14 -51t-23.5 -54.5
t-38 -56.5t-57 -38t-82.5 -17q-43 0 -78 11.5t-88 37.5l-47 23q-46 22 -76 22q-27 0 -48 -9t-33.5 -25.5t-19 -29t-12.5 -30.5h-59q6 37 21.5 71t40.5 66t64.5 51t88.5 19q65 0 135 -37l49 -24q65 -31 98 -31q42 0 67.5 21t51.5 81z" />
    <glyph glyph-name="ograve.sc" unicode="&#xf7f2;" horiz-adv-x="1138" 
d="M1069 506q0 -151 -69.5 -271.5t-186 -185.5t-256.5 -65t-256.5 65t-186 185.5t-69.5 271.5q0 108 40.5 202.5t109.5 161t163.5 104.5t198.5 38t198.5 -38t163.5 -104.5t109.5 -161t40.5 -202.5zM868 506q0 75 -7 136t-27.5 121t-54.5 100.5t-90.5 65.5t-131.5 25
t-131.5 -25t-90.5 -65.5t-54.5 -100.5t-27.5 -121t-7 -136q0 -81 7 -144.5t27.5 -125.5t54.5 -103.5t90 -66.5t132 -25t132 25t90 66.5t54.5 103.5t27.5 125.5t7 144.5zM725 1112h-82l-315 199q-60 38 -60 88q0 3 0.5 8t4.5 15.5t10.5 18.5t19.5 14.5t31 6.5q26 0 39.5 -6.5
t50.5 -40.5z" />
    <glyph glyph-name="oacute.sc" unicode="&#xf7f3;" horiz-adv-x="1138" 
d="M1069 506q0 -151 -69.5 -271.5t-186 -185.5t-256.5 -65t-256.5 65t-186 185.5t-69.5 271.5q0 108 40.5 202.5t109.5 161t163.5 104.5t198.5 38t198.5 -38t163.5 -104.5t109.5 -161t40.5 -202.5zM868 506q0 75 -7 136t-27.5 121t-54.5 100.5t-90.5 65.5t-131.5 25
t-131.5 -25t-90.5 -65.5t-54.5 -100.5t-27.5 -121t-7 -136q0 -81 7 -144.5t27.5 -125.5t54.5 -103.5t90 -66.5t132 -25t132 25t90 66.5t54.5 103.5t27.5 125.5t7 144.5zM502 1112h-82l301 303q32 32 48.5 39.5t41.5 7.5q23 0 38 -8.5t21 -21.5t7.5 -21t1.5 -14
q0 -49 -62 -86z" />
    <glyph glyph-name="ocircumflex.sc" unicode="&#xf7f4;" horiz-adv-x="1138" 
d="M1069 506q0 -151 -69.5 -271.5t-186 -185.5t-256.5 -65t-256.5 65t-186 185.5t-69.5 271.5q0 108 40.5 202.5t109.5 161t163.5 104.5t198.5 38t198.5 -38t163.5 -104.5t109.5 -161t40.5 -202.5zM868 506q0 75 -7 136t-27.5 121t-54.5 100.5t-90.5 65.5t-131.5 25
t-131.5 -25t-90.5 -65.5t-54.5 -100.5t-27.5 -121t-7 -136q0 -81 7 -144.5t27.5 -125.5t54.5 -103.5t90 -66.5t132 -25t132 25t90 66.5t54.5 103.5t27.5 125.5t7 144.5zM889 1112h-70l-250 211l-247 -211h-70l254 342h127z" />
    <glyph glyph-name="otilde.sc" unicode="&#xf7f5;" horiz-adv-x="1138" 
d="M1069 506q0 -151 -69.5 -271.5t-186 -185.5t-256.5 -65t-256.5 65t-186 185.5t-69.5 271.5q0 108 40.5 202.5t109.5 161t163.5 104.5t198.5 38t198.5 -38t163.5 -104.5t109.5 -161t40.5 -202.5zM868 506q0 75 -7 136t-27.5 121t-54.5 100.5t-90.5 65.5t-131.5 25
t-131.5 -25t-90.5 -65.5t-54.5 -100.5t-27.5 -121t-7 -136q0 -81 7 -144.5t27.5 -125.5t54.5 -103.5t90 -66.5t132 -25t132 25t90 66.5t54.5 103.5t27.5 125.5t7 144.5zM848 1380h59q-8 -32 -14 -51t-23.5 -54.5t-38 -56.5t-57 -38t-82.5 -17q-43 0 -78 11.5t-88 37.5
l-47 23q-46 22 -76 22q-27 0 -48 -9t-33.5 -26t-18.5 -29t-12 -30h-60q6 37 21.5 71t40.5 66t64.5 51t88.5 19q66 0 136 -37l49 -24q65 -31 98 -31q42 0 67.5 21t51.5 81z" />
    <glyph glyph-name="odieresis.sc" unicode="&#xf7f6;" horiz-adv-x="1138" 
d="M1069 506q0 -151 -69.5 -271.5t-186 -185.5t-256.5 -65t-256.5 65t-186 185.5t-69.5 271.5q0 108 40.5 202.5t109.5 161t163.5 104.5t198.5 38t198.5 -38t163.5 -104.5t109.5 -161t40.5 -202.5zM868 506q0 75 -7 136t-27.5 121t-54.5 100.5t-90.5 65.5t-131.5 25
t-131.5 -25t-90.5 -65.5t-54.5 -100.5t-27.5 -121t-7 -136q0 -81 7 -144.5t27.5 -125.5t54.5 -103.5t90 -66.5t132 -25t132 25t90 66.5t54.5 103.5t27.5 125.5t7 144.5zM266 1247q0 35 26.5 69t72.5 34q41 0 71.5 -31t30.5 -72q0 -42 -30 -72t-72 -30q-48 0 -73.5 32.5
t-25.5 69.5zM674 1247q0 35 26 69t72 34q41 0 71.5 -31t30.5 -72q0 -42 -30 -72t-72 -30q-48 0 -73 32.5t-25 69.5z" />
    <glyph glyph-name="oslash.sc" unicode="&#xf7f8;" horiz-adv-x="1138" 
d="M307 180l449 684q-77 90 -211 90q-299 0 -299 -462q0 -201 61 -312zM801 799l-447 -684q71 -74 191 -74q80 0 138.5 24t92.5 63t54.5 100t27 122t6.5 142q0 191 -63 307zM307 43l-155 -238h-91l183 279q-94 70 -146.5 175.5t-52.5 232.5q0 153 68 273t181.5 183.5
t250.5 63.5q149 0 266 -66l152 232h86l-177 -271q91 -69 142 -175t51 -240q0 -220 -149 -364t-371 -144q-129 0 -238 59z" />
    <glyph glyph-name="ugrave.sc" unicode="&#xf7f9;" horiz-adv-x="1251" 
d="M43 995h494v-32q-27 0 -48.5 -3.5t-37 -7t-27.5 -12.5l-20 -15t-13.5 -20.5t-8 -22.5t-4 -27t-1.5 -28v-32v-471q0 -125 64.5 -196t197.5 -71q72 0 129 19.5t91.5 50.5t57.5 73t32 82.5t9 82.5v401q0 53 -4 82.5t-19.5 55.5t-45.5 39t-82 20v32h383v-32q-55 -7 -86.5 -20
t-47.5 -39.5t-20 -55t-4 -82.5v-401q0 -170 -103.5 -275.5t-289.5 -105.5q-222 0 -330 88t-108 252v471q0 97 -30.5 129.5t-127.5 38.5v32zM780 1112h-82l-315 199q-59 38 -59 88q0 3 0.5 8t4.5 15.5t10 18.5t19 14.5t31 6.5q26 0 39.5 -6.5t50.5 -40.5z" />
    <glyph glyph-name="uacute.sc" unicode="&#xf7fa;" horiz-adv-x="1251" 
d="M43 995h494v-32q-27 0 -48.5 -3.5t-37 -7t-27.5 -12.5l-20 -15t-13.5 -20.5t-8 -22.5t-4 -27t-1.5 -28v-32v-471q0 -125 64.5 -196t197.5 -71q72 0 129 19.5t91.5 50.5t57.5 73t32 82.5t9 82.5v401q0 53 -4 82.5t-19.5 55.5t-45.5 39t-82 20v32h383v-32q-55 -7 -86.5 -20
t-47.5 -39.5t-20 -55t-4 -82.5v-401q0 -170 -103.5 -275.5t-289.5 -105.5q-222 0 -330 88t-108 252v471q0 97 -30.5 129.5t-127.5 38.5v32zM557 1112h-82l301 303q32 32 48.5 39.5t41.5 7.5q23 0 38 -8.5t21 -21.5t7.5 -21t1.5 -14q0 -49 -62 -86z" />
    <glyph glyph-name="ucircumflex.sc" unicode="&#xf7fb;" horiz-adv-x="1251" 
d="M43 995h494v-32q-27 0 -48.5 -3.5t-37 -7t-27.5 -12.5l-20 -15t-13.5 -20.5t-8 -22.5t-4 -27t-1.5 -28v-32v-471q0 -125 64.5 -196t197.5 -71q72 0 129 19.5t91.5 50.5t57.5 73t32 82.5t9 82.5v401q0 53 -4 82.5t-19.5 55.5t-45.5 39t-82 20v32h383v-32q-55 -7 -86.5 -20
t-47.5 -39.5t-20 -55t-4 -82.5v-401q0 -170 -103.5 -275.5t-289.5 -105.5q-222 0 -330 88t-108 252v471q0 97 -30.5 129.5t-127.5 38.5v32zM944 1112h-70l-249 211l-248 -211h-70l254 342h127z" />
    <glyph glyph-name="udieresis.sc" unicode="&#xf7fc;" horiz-adv-x="1251" 
d="M43 995h494v-32q-27 0 -48.5 -3.5t-37 -7t-27.5 -12.5l-20 -15t-13.5 -20.5t-8 -22.5t-4 -27t-1.5 -28v-32v-471q0 -125 64.5 -196t197.5 -71q72 0 129 19.5t91.5 50.5t57.5 73t32 82.5t9 82.5v401q0 53 -4 82.5t-19.5 55.5t-45.5 39t-82 20v32h383v-32q-55 -7 -86.5 -20
t-47.5 -39.5t-20 -55t-4 -82.5v-401q0 -170 -103.5 -275.5t-289.5 -105.5q-222 0 -330 88t-108 252v471q0 97 -30.5 129.5t-127.5 38.5v32zM322 1247q0 35 26 69t72 34q41 0 71.5 -31t30.5 -72q0 -42 -30 -72t-72 -30q-48 0 -73 32.5t-25 69.5zM729 1247q0 35 26 69t72 34
q41 0 72 -31t31 -72q0 -42 -30.5 -72t-72.5 -30q-48 0 -73 32.5t-25 69.5z" />
    <glyph glyph-name="yacute.sc" unicode="&#xf7fd;" horiz-adv-x="1138" 
d="M651 438v-286q0 -68 33 -94t123 -25v-33h-490v33q90 -1 123 25t35 94v274l-301 471q-41 63 -125 66v32h451v-32h-58q-57 0 -57 -45q0 -33 43 -101l195 -311l194 305q17 26 25 39.5t15 33.5t7 38q0 41 -90 41v32h307v-32q-53 0 -79 -20.5t-68 -83.5q-6 -10 -10 -15z
M502 1112h-82l301 303q32 32 48.5 39.5t41.5 7.5q23 0 38 -8.5t21 -21.5t7.5 -21t1.5 -14q0 -49 -62 -86z" />
    <glyph glyph-name="thorn.sc" unicode="&#xf7fe;" horiz-adv-x="909" 
d="M184 184v676q0 56 -33 79t-122 24v32h483v-32q-81 3 -116.5 -22t-35.5 -81v-69h119q54 0 106.5 -6.5t110 -26t99.5 -49.5t70 -81.5t28 -117.5q0 -63 -23.5 -113t-58 -79.5t-78.5 -48.5t-81.5 -26t-69.5 -7q-127 0 -222 22v-74q0 -85 39.5 -119t116.5 -32v-33h-483v33
q95 -1 123 29t28 122zM360 709v-379q0 -37 105 -37q57 0 101 20t69 52.5t37 68t12 72.5q0 57 -17 100.5t-41.5 66.5t-59 37.5t-62.5 18.5t-58 4q-86 0 -86 -24z" />
    <glyph glyph-name="ydieresis.sc" unicode="&#xf7ff;" horiz-adv-x="1138" 
d="M651 438v-286q0 -68 33 -94t123 -25v-33h-490v33q90 -1 123 25t35 94v274l-301 471q-41 63 -125 66v32h451v-32h-58q-57 0 -57 -45q0 -33 43 -101l195 -311l194 305q17 26 25 39.5t15 33.5t7 38q0 41 -90 41v32h307v-32q-53 0 -79 -20.5t-68 -83.5q-6 -10 -10 -15z
M266 1247q0 35 26.5 69t72.5 34q41 0 71.5 -31t30.5 -72q0 -42 -30 -72t-72 -30q-48 0 -73.5 32.5t-25.5 69.5zM674 1247q0 35 26 69t72 34q41 0 71.5 -31t30.5 -72q0 -42 -30 -72t-72 -30q-48 0 -73 32.5t-25 69.5z" />
    <glyph glyph-name="fi" unicode="&#xfb01;" horiz-adv-x="1138" 
d="M63 856v66h142q8 230 120.5 353.5t325.5 123.5q110 0 184 -37t74 -111q0 -31 -21 -53t-50 -22q-30 0 -53 17.5t-40 43t-35.5 51t-50 43t-73.5 17.5q-66 0 -117.5 -40t-73.5 -91q-12 -29 -17.5 -73t-5.5 -98t1 -124h321q119 0 232 20l8 -6q-4 -132 -4 -201v-536
q0 -100 27.5 -131t109.5 -37v-31h-451v31q35 2 58.5 6t39.5 14t24.5 20t13 32t5.5 41t1 55v540q0 62 -12.5 83t-61.5 28q-81 6 -309 6v-676q0 -30 1.5 -47t9 -38.5t22 -33t41.5 -20t67 -10.5v-31h-450v31q55 1 81.5 11.5t41 45t14.5 105.5v663h-140z" />
    <glyph glyph-name="fl" unicode="&#xfb02;" horiz-adv-x="1138" 
d="M66 856v66h145q0 90 15.5 164t38.5 122.5t55.5 85t63.5 56t66 31.5t58.5 15t46.5 3q56 0 100 -12.5t73.5 -25.5t49.5 -13q16 0 76.5 25t71.5 26l10 -4v-1229q0 -76 23 -103.5t108 -31.5v-31h-440v31q34 3 52.5 7t41 17.5t33 42.5t10.5 74v684h-385v-694q0 -41 9.5 -66.5
t32 -38.5t43.5 -17.5t60 -8.5v-31h-458v31q25 2 35.5 3t29 4.5t25.5 8.5t18.5 14t15.5 21.5t9 31.5t6.5 43.5t1.5 57.5v641h-141zM764 922v288q-14 -14 -31 -14q-35 0 -59.5 15t-39 37t-28 43.5t-36.5 36.5t-56 15q-51 0 -82 -40t-40.5 -101.5t-13 -136t0.5 -143.5h385z" />
    <glyph glyph-name="one.superior" horiz-adv-x="614" 
d="M508 602v-49h-391v49q24 2 35 3t28 5t24.5 10.5t14 18.5t6.5 29v526q0 57 -14 57q-19 0 -90 -26v47l241 112l29 -6v-702q0 -42 26.5 -56.5t90.5 -17.5z" />
    <glyph glyph-name="two.superior" horiz-adv-x="614" 
d="M606 727l-76 -174h-518v47l201 219q166 187 166 279q0 55 -39 106t-109 51q-119 0 -178 -143l-51 29q41 136 115 189.5t196 53.5q106 0 180 -60.5t74 -160.5q0 -47 -17 -94t-48.5 -89t-53 -65.5t-53.5 -54.5l-176 -174h248q41 2 61.5 11.5t42.5 43.5z" />
    <glyph glyph-name="three.superior" horiz-adv-x="614" 
d="M193 942l-3 59q197 60 197 166q0 44 -28.5 73.5t-88.5 29.5q-33 0 -58.5 -8t-49 -29t-31.5 -31t-30 -40q-5 -6 -7 -9l-51 37q33 71 81.5 116.5t94 61.5t94.5 16q61 0 108 -17t72 -43.5t37.5 -53.5t12.5 -51q0 -88 -123 -172q176 -65 176 -242q0 -41 -22 -84.5t-67.5 -86
t-129 -70t-191.5 -27.5q-18 0 -38 3t-50 12t-48.5 32t-18.5 57q0 28 19.5 51t51.5 23q29 0 86 -40t93 -40q43 0 74.5 13.5t46.5 35.5t21.5 43t6.5 43q0 79 -50 126.5t-140 51.5z" />
    <glyph glyph-name="dotlessi.sc" horiz-adv-x="569" 
d="M29 963v32h483v-32q-89 -1 -120.5 -31t-31.5 -105v-659q0 -74 33 -104t123 -31v-33h-483v33q89 1 120 30.5t31 104.5v659q0 75 -33 105t-122 31z" />
    <glyph glyph-name="a.superior" horiz-adv-x="565" 
d="M324 971v157q-187 -61 -187 -129q0 -44 22.5 -70t59.5 -26q36 0 82 23q18 16 23 45zM553 905v-37q-57 -61 -119 -61q-11 0 -18.5 0.5t-21 5.5t-23 13.5t-18.5 26.5t-13 44q-36 -36 -85.5 -63t-98.5 -27q-59 0 -103.5 36t-44.5 101q0 30 8.5 54.5t31.5 46.5t43 36.5
t65.5 34t73.5 30.5t92 34v61q0 39 -19 62.5t-53 23.5q-33 0 -63.5 -14t-30.5 -31q0 -10 3 -26t3 -19q0 -21 -18 -37t-48 -16q-29 0 -46 19.5t-17 43.5q0 55 57.5 96t165.5 41q57 0 98.5 -14.5t63 -34.5t33.5 -49.5t15 -50.5t3 -47v-236q0 -41 4 -56t23 -15q29 0 57 24z" />
    <glyph glyph-name="o.superior" horiz-adv-x="634" 
d="M322 1384q132 0 216.5 -75t84.5 -199q0 -52 -19 -103.5t-56 -97t-100 -74t-143 -28.5q-127 0 -210 82t-83 201q0 126 83 210t227 84zM311 1317q-65 0 -107 -38.5t-42 -104.5q0 -40 6.5 -84.5t22 -96.5t50 -85.5t83.5 -33.5q61 0 105 38t44 126q0 121 -43.5 200t-118.5 79
z" />
    <glyph glyph-name="fi.sc" horiz-adv-x="1478" 
d="M47 963v32h834l16 -229h-37q-12 55 -26 84.5t-48 51.5t-88.5 29t-148.5 7q-109 0 -140.5 -8.5t-31.5 -38.5v-334h143q103 0 145 30t48 115h32v-360h-32q-6 87 -49 122.5t-144 35.5h-143v-340q0 -35 8.5 -59t21.5 -37t37 -20.5t45.5 -9t55.5 -1.5v-33h-498v33
q41 0 64.5 3.5t46.5 15.5t33 38.5t10 69.5v667q0 46 -10 74.5t-33.5 41.5t-47 16.5t-63.5 3.5zM938 963v32h483v-32q-89 -1 -120 -31t-31 -105v-659q0 -75 33 -104.5t122 -30.5v-33h-483v33q89 1 120.5 30.5t31.5 104.5v659q0 75 -33.5 105t-122.5 31z" />
    <glyph glyph-name="fl.sc" horiz-adv-x="1933" 
d="M47 963v32h834l16 -229h-37q-12 55 -26 84.5t-48 51.5t-88.5 29t-148.5 7q-109 0 -140.5 -8.5t-31.5 -38.5v-334h143q103 0 145 30t48 115h32v-360h-32q-6 87 -49 122.5t-144 35.5h-143v-340q0 -35 8.5 -59t21.5 -37t37 -20.5t45.5 -9t55.5 -1.5v-33h-498v33
q41 0 64.5 3.5t46.5 15.5t33 38.5t10 69.5v667q0 46 -10 74.5t-33.5 41.5t-47 16.5t-63.5 3.5zM1880 260l-88 -260h-838v33q93 1 124.5 27.5t31.5 91.5v675q0 75 -33.5 105t-122.5 31v32h496v-32q-91 -1 -127.5 -31.5t-36.5 -104.5v-675q0 -62 32 -78.5t152 -16.5t190 21
t107 61t74 121h39z" />
    </font>
</defs>
</svg>
