<?xml version="1.0" standalone="no"?>
<!DOCTYPE svg PUBLIC "-//W3C//DTD SVG 1.1//EN" "http://www.w3.org/Graphics/SVG/1.1/DTD/svg11.dtd" >
<svg xmlns="http://www.w3.org/2000/svg" xmlns:xlink="http://www.w3.org/1999/xlink" version="1.1">
<metadata>
Created by FontForge 20170731 at Fri May 21 18:30:10 2021
 By Aleksey,,,
(c) 1990, 2002 Adobe Systems Incorporated. All rights reserved.
</metadata>
<defs>
<font id="TimesLTStd-SemiboldItalic" horiz-adv-x="1024" >
  <font-face 
    font-family="Times LT Std Semibold"
    font-weight="600"
    font-style="italic"
    font-stretch="normal"
    units-per-em="2048"
    panose-1="2 2 7 3 6 5 5 9 3 4"
    ascent="1399"
    descent="-649"
    x-height="963"
    cap-height="1393"
    bbox="-342 -446 2099 1882"
    underline-thickness="102"
    underline-position="-307"
    slope="-13"
    unicode-range="U+0020-FB02"
  />
<missing-glyph horiz-adv-x="1224" 
d="M201 0v1434h1024v-1434h-1024zM713 809l348 522h-696zM774 717l348 -522v1044zM365 102h696l-348 523zM303 1239v-1044l348 522z" />
    <glyph glyph-name="fi" unicode="fi" horiz-adv-x="1138" 
d="M1044 254l39 -27q-12 -17 -35.5 -52t-39.5 -57.5t-42.5 -52.5t-50.5 -47.5t-58 -30t-71 -12.5q-59 0 -96 32t-37 91q0 68 70 347t70 348q0 34 -41 34h-275l-123 -581q-24 -115 -52 -207t-69 -181t-89 -148.5t-114.5 -95.5t-144.5 -36q-88 0 -137 43t-49 100
q0 54 26.5 86.5t77.5 32.5q39 0 63.5 -21.5t24.5 -56.5q0 -29 -12 -50t-12 -34q0 -22 37 -22q39 0 66 26t52.5 95t51.5 194l178 856h-186l20 95h184q29 105 72 194t107 167t155 122.5t201 44.5q116 0 192 -48t76 -138q0 -50 -29.5 -80.5t-78.5 -30.5q-109 0 -109 102
q0 21 9 37t19.5 24t19.5 16t9 14q0 13 -28 23.5t-70 10.5q-52 0 -99 -29t-80.5 -74.5t-62 -108t-46.5 -122t-31 -124.5h151q124 0 248 12t125 12q22 0 22 -20q0 -34 -81.5 -386t-81.5 -386q0 -16 10 -25.5t24 -9.5q16 0 35 13.5t40.5 41.5t29.5 40t26 40z" />
    <glyph glyph-name="fl" unicode="fl" horiz-adv-x="1138" 
d="M1040 256l39 -29q-27 -43 -43.5 -68t-49 -65t-61 -62t-68 -39.5t-81.5 -17.5q-62 0 -95.5 32.5t-33.5 88.5q0 37 26 161t67.5 304t58.5 266h-324l-123 -581q-24 -115 -52 -207t-69 -181t-89 -148.5t-114.5 -95.5t-144.5 -36q-88 0 -137 43t-49 100q0 54 26.5 86.5
t77.5 32.5q39 0 63.5 -21.5t24.5 -56.5q0 -29 -12 -50t-12 -34q0 -22 37 -22q39 0 66 26t52.5 95t51.5 194l178 856h-189l17 95h188q24 100 64 188.5t100 167.5t147 125.5t191 46.5q51 0 102 -14q11 -2 26 -6t25 -6.5t17 -2.5q14 0 102 15q61 14 76 14q29 0 29 -31
q0 -40 -136.5 -632t-136.5 -631q0 -37 35 -37q9 0 19.5 4.5t21 14.5t20 19.5t21 25t18.5 25.5t18 26t15 22zM819 922l64 286q-37 21 -37 58q0 23 10 36t19.5 20.5t9.5 16.5q0 41 -86 41q-42 0 -79 -16.5t-63.5 -40.5t-50.5 -64.5t-39.5 -75.5t-31 -88t-24 -87t-19.5 -86h327
z" />
    <glyph glyph-name=".notdef" horiz-adv-x="1224" 
d="M201 0v1434h1024v-1434h-1024zM713 809l348 522h-696zM774 717l348 -522v1044zM365 102h696l-348 523zM303 1239v-1044l348 522z" />
    <glyph glyph-name=".null" horiz-adv-x="0" 
 />
    <glyph glyph-name="nonmarkingreturn" horiz-adv-x="682" 
 />
    <glyph glyph-name="space" unicode=" " horiz-adv-x="512" 
 />
    <glyph glyph-name="exclam" unicode="!" horiz-adv-x="796" 
d="M362 397l-59 9l78 663q14 126 35 240q22 116 135 116q52 0 88.5 -37t36.5 -88q0 -50 -84 -276zM266 262q60 0 102 -41.5t42 -101.5t-42 -102t-102 -42t-101.5 42t-41.5 102t41.5 101.5t101.5 41.5z" />
    <glyph glyph-name="quotedbl" unicode="&#x22;" horiz-adv-x="681" 
d="M420 1260l-37 -418q-8 -64 -49 -64q-17 0 -28.5 13.5t-15 26t-5.5 24.5l-37 418q-4 19 -2 47t7 54.5t26 45t55 18.5t55 -18.5t26 -45t7 -54.5t-2 -47zM762 1260l-37 -418q-2 -12 -5.5 -24.5t-15 -26t-28.5 -13.5q-41 0 -49 64l-37 418q-4 19 -2 47t7 54.5t26 45t55 18.5
t55 -18.5t26 -45t7 -54.5t-2 -47z" />
    <glyph glyph-name="numbersign" unicode="#" 
d="M977 561v-143h-197l-57 -418h-156l58 418h-226l-57 -418h-156l60 418h-193v143h213l37 268h-190v144h211l59 420h152l-58 -420h225l60 420h153l-57 -420h174v-144h-194l-35 -268h174zM682 829h-223l-37 -268h225z" />
    <glyph glyph-name="dollar" unicode="$" 
d="M545 874l102 441h-31q-86 0 -145 -52t-59 -151q0 -122 133 -238zM582 549l-115 -500h18q95 0 165.5 74t70.5 180q0 81 -33.5 133t-105.5 113zM360 66l127 550q-14 13 -47.5 42.5t-50 45t-45.5 45t-44.5 50.5t-36 53t-31 61t-18 66t-7.5 76q0 150 116 244t343 94l30 135
h111l-35 -150q68 -15 152 -52.5t84 -65.5q0 -26 -6.5 -75.5t-13.5 -91t-15 -85t-8 -45.5h-58q-4 64 -10.5 109.5t-22 96t-45.5 82.5t-75 45l-113 -491q120 -90 159 -128q119 -116 126 -260v-18q0 -113 -35.5 -196.5t-101 -133t-150 -74.5t-190.5 -28l-43 -180h-109l43 188
q-111 26 -203 77t-92 77q0 20 7.5 68t15.5 89t19.5 96t12.5 60l56 -10q16 -142 34 -195q38 -111 150 -162q10 -5 20 -9z" />
    <glyph glyph-name="percent" unicode="%" horiz-adv-x="1705" 
d="M1391 791q121 0 180 -69t59 -190q0 -85 -29 -177t-79.5 -171.5t-130 -131.5t-170.5 -52q-132 0 -205.5 69t-73.5 203q0 110 61.5 230t168 204.5t219.5 84.5zM1155 236q0 -146 113 -146q84 0 155.5 77.5t108.5 180.5t37 195q0 71 -32.5 110t-94.5 39q-67 0 -136 -85.5
t-110 -192t-41 -178.5zM356 842q0 -146 113 -146q84 0 155.5 77.5t108.5 180.5t37 195q0 66 -18 90q-73 24 -117 59q-68 0 -135.5 -86t-105.5 -191.5t-38 -178.5zM1274 1425h82l-821 -1450h-107l733 1285q-144 -52 -260 -52q-46 0 -78 11q8 -33 8 -80q0 -85 -29 -177
t-79.5 -172t-130 -132t-170.5 -52q-132 0 -205.5 69.5t-73.5 203.5q0 110 61.5 230t168 204t219.5 84q133 0 192 -82q55 -37 152 -37q110 0 202 44t136 103z" />
    <glyph glyph-name="ampersand" unicode="&#x26;" horiz-adv-x="1593" 
d="M336 393q0 -137 72.5 -214t199.5 -77q137 0 248 88q-174 238 -276 517q-105 -51 -174.5 -132t-69.5 -182zM866 1348q-66 0 -105.5 -49.5t-39.5 -135.5q0 -134 59 -274q45 26 78 49.5t71.5 61t59.5 86.5t21 106q0 68 -37 112t-107 44zM1063 801h477l-10 -62
q-38 -2 -69 -12.5t-52 -23.5t-47 -45t-42.5 -56.5t-49.5 -77.5q-96 -155 -176 -245q26 -37 49 -64t54.5 -55t68 -43t75.5 -15q70 0 168 70l41 -47q-87 -74 -165 -116t-164 -42q-180 0 -310 150q-83 -63 -194 -106.5t-215 -43.5q-210 0 -311 90t-101 244q0 79 31.5 151.5
t80.5 125t112.5 96t122.5 70t116 42.5q-57 145 -57 295q0 156 101 250t259 94q80 0 141 -22t94.5 -59t49.5 -77.5t16 -84.5q0 -42 -11.5 -80.5t-27 -67.5t-46.5 -58.5t-54.5 -48.5t-67 -44t-68.5 -38t-73 -36q94 -246 227 -457q58 62 106 146.5t48 134.5q0 53 -41 77.5
t-100 28.5z" />
    <glyph glyph-name="quotesingle" unicode="'" horiz-adv-x="454" 
d="M457 1260l-37 -418q-2 -12 -5.5 -24.5t-15 -26t-28.5 -13.5t-28.5 13.5t-15 26t-5.5 24.5l-37 418q-4 19 -2 47t7 54.5t26 45t55 18.5t55 -18.5t26 -45t7 -54.5t-2 -47z" />
    <glyph glyph-name="parenleft" unicode="(" horiz-adv-x="681" 
d="M401 -389l-39 -33q-138 146 -231.5 376t-93.5 423q0 342 170 614t498 434l32 -41q-141 -101 -239 -229.5t-153.5 -284t-79 -323t-23.5 -373.5q0 -132 45 -287.5t114 -275.5z" />
    <glyph glyph-name="parenright" unicode=")" horiz-adv-x="681" 
d="M240 1393l39 32q138 -146 231.5 -375.5t93.5 -422.5q0 -342 -169.5 -614.5t-497.5 -434.5l-33 41q141 101 239 229.5t153.5 284t79 323t23.5 373.5q0 132 -45 288t-114 276z" />
    <glyph glyph-name="asterisk" unicode="*" 
d="M590 1022l12 8q-3 98 -39 160q-31 55 -41 79.5t-10 51.5q0 56 32 80t72 24q43 0 72 -31.5t29 -80.5q0 -33 -40 -109t-40 -110q0 -13 2 -36.5t2 -29.5l14 -8q54 37 83 67t57 82q22 40 54 63t64 23q47 0 76 -32.5t29 -65.5q0 -49 -41 -83t-92 -34q-160 0 -211 -55v-18
q85 -49 207 -49q64 0 100.5 -29.5t36.5 -77.5q0 -49 -27 -75.5t-69 -26.5q-21 0 -39.5 7t-31 14.5t-32 31.5t-28 36.5t-35.5 51.5q-25 37 -50 55.5t-59 30.5l-12 -6q0 -98 37 -162q31 -55 41 -79.5t10 -51.5q0 -56 -32.5 -80.5t-72.5 -24.5q-43 0 -71.5 32t-28.5 81
q0 33 40 109t40 110q0 12 -2 37t-2 35l-10 6q-57 -40 -86.5 -71t-57.5 -83q-22 -40 -54 -63t-64 -23q-47 0 -76 33t-29 66q0 49 41 83t92 34q160 0 219 51v22q-100 49 -215 49q-64 0 -100.5 29.5t-36.5 77.5q0 49 27 75.5t69 26.5q21 0 39.5 -7t31 -14.5t32 -31.5t28 -36.5
t35.5 -51.5q42 -64 111 -86z" />
    <glyph glyph-name="plus" unicode="+" horiz-adv-x="1228" 
d="M530 565v398h168v-398h398v-168h-398v-397h-168v397h-397v168h397z" />
    <glyph glyph-name="comma" unicode="," horiz-adv-x="512" 
d="M16 -311v71q91 47 119 73q41 37 41 81q0 20 -12.5 37t-30.5 32.5t-36.5 32.5t-31 43.5t-12.5 59.5q0 61 40 102t104 41q65 0 108 -49.5t43 -136.5q0 -132 -95 -235t-237 -152z" />
    <glyph glyph-name="hyphen" unicode="-" horiz-adv-x="681" 
d="M57 385l33 193h531l-37 -193h-527z" />
    <glyph glyph-name="period" unicode="." horiz-adv-x="512" 
d="M53 119q0 60 42 101.5t102 41.5t101.5 -41.5t41.5 -101.5t-41.5 -102t-101.5 -42t-102 42t-42 102z" />
    <glyph glyph-name="slash" unicode="/" horiz-adv-x="569" 
d="M213 -33h-170l451 1458h170z" />
    <glyph glyph-name="zero" unicode="0" 
d="M670 1348q-60 0 -119.5 -90.5t-103.5 -224.5t-79 -283t-53 -272.5t-18 -186.5q0 -137 29.5 -191.5t93.5 -54.5q60 0 119.5 90.5t103.5 224.5t79 283t53 272.5t18 186.5q0 136 -29.5 191t-93.5 55zM662 1425q163 0 259.5 -126.5t96.5 -348.5q0 -149 -35.5 -298t-95.5 -270
t-135 -215.5t-160 -147t-164 -52.5q-163 0 -259.5 126.5t-96.5 348.5q0 149 35.5 298t95.5 270t135 215.5t160 147t164 52.5z" />
    <glyph glyph-name="one" unicode="1" 
d="M104 0l15 53q121 6 175 50.5t83 162.5q7 28 21 83q173 697 186 796q2 16 2 24q0 42 -18 61t-60 19q-52 0 -137 -18l-11 47l486 147h45q-26 -111 -108 -446t-131.5 -550t-49.5 -255q0 -62 48.5 -88.5t164.5 -32.5l-12 -53h-699z" />
    <glyph glyph-name="two" unicode="2" 
d="M4 0l10 51q21 21 89 87.5t111.5 110t115.5 120t120.5 134t105.5 134.5t91.5 139.5t58 130.5t23.5 125q0 103 -62.5 166.5t-166.5 63.5q-129 0 -256 -150l-45 41q177 269 432 272q161 1 242 -85.5t81 -231.5q0 -56 -24.5 -123.5t-73.5 -143t-96.5 -140.5t-121 -146.5
t-117.5 -128.5t-115.5 -120t-86.5 -89h263q118 0 164 24.5t79 102.5h64l-123 -344h-762z" />
    <glyph glyph-name="three" unicode="3" 
d="M266 737l15 64q50 12 90.5 23.5t95 30.5t95 43t77 54.5t56.5 71t20 86.5q0 87 -48 137.5t-135 50.5q-89 0 -229 -104l-35 51q69 58 115 91t119 61t149 28q82 0 147.5 -25.5t107.5 -83.5t42 -142q0 -63 -23.5 -116t-67 -93t-88.5 -68t-105 -55q104 -63 151 -139.5
t47 -194.5q0 -128 -50 -232.5t-135 -171t-195 -102t-234 -35.5q-99 0 -172.5 41t-73.5 111q0 47 26 74.5t72 27.5q37 0 69.5 -16.5t56.5 -40t47.5 -47t52.5 -40t61 -16.5q30 0 61.5 10t66 35.5t61 62.5t44 96t17.5 132q0 168 -96 252.5t-275 87.5z" />
    <glyph glyph-name="four" unicode="4" 
d="M586 545l131 555l-4 4l-520 -559h393zM883 1425h139l-203 -880h162l-35 -185h-168l-84 -360h-233l84 360h-510l37 199z" />
    <glyph glyph-name="five" unicode="5" 
d="M965 1393l-72 -209h-447l-53 -137q217 -9 346 -127.5t129 -335.5q0 -166 -81.5 -308.5t-222 -225.5t-306.5 -83q-117 0 -185.5 40.5t-68.5 113.5q0 41 29 70.5t78 29.5q40 0 74.5 -23t56.5 -50.5t58 -50.5t79 -23q120 0 202.5 105.5t82.5 285.5q0 113 -29.5 188
t-90.5 116t-138.5 57t-188.5 16l223 551h525z" />
    <glyph glyph-name="six" unicode="6" 
d="M991 1425v-61q-62 -18 -127 -48t-132 -74t-121.5 -95.5t-95 -117.5t-54.5 -136q82 49 182 49q46 0 90 -12.5t87.5 -42.5t76 -74t52.5 -112.5t20 -153.5q0 -111 -35 -215t-98.5 -185.5t-160.5 -130.5t-212 -49q-164 0 -273.5 129.5t-109.5 329.5q0 266 113 471t290 332
q245 175 508 196zM305 297q0 -44 7 -83.5t23.5 -77.5t49.5 -60.5t80 -22.5q79 0 138.5 84t87.5 202.5t28 244.5q0 107 -43.5 171t-130.5 64q-39 0 -82 -17.5t-66 -43.5q-10 -11 -31 -77.5t-41 -177t-20 -206.5z" />
    <glyph glyph-name="seven" unicode="7" 
d="M1073 1393v-25l-692 -1401h-156l600 1217h-383q-75 0 -123.5 -29.5t-109.5 -114.5l-39 35l176 318h727z" />
    <glyph glyph-name="eight" unicode="8" 
d="M641 1348q-96 0 -148.5 -56.5t-52.5 -144.5q0 -89 57.5 -173.5t141.5 -146.5q32 20 61 43.5t64 62t56.5 90t21.5 107.5q0 100 -51.5 159t-149.5 59zM893 385q0 -177 -122.5 -297.5t-295.5 -120.5q-194 0 -315 98.5t-121 237.5q0 84 30 157t81 125t115 87.5t136 52.5
q-85 85 -125 164t-40 186q0 149 114.5 249.5t282.5 100.5q174 0 275.5 -83.5t101.5 -227.5q0 -118 -85 -210.5t-214 -141.5q80 -77 131 -175.5t51 -201.5zM449 45q107 0 167 79.5t60 182.5q0 100 -59.5 195t-147.5 160q-43 -23 -81 -52t-76.5 -72.5t-61.5 -104t-23 -130.5
q0 -108 59.5 -183t162.5 -75z" />
    <glyph glyph-name="nine" unicode="9" 
d="M113 -33v62q62 18 127 48t132 74t121.5 95.5t95 117.5t54.5 136q-82 -49 -182 -49q-46 0 -90 12.5t-87.5 42.5t-76 74t-52.5 112.5t-20 153.5q0 111 35 215t98.5 185t160.5 130t212 49q164 0 273.5 -129t109.5 -329q0 -266 -113 -471t-290 -332q-246 -176 -508 -197z
M799 1096q0 44 -7 83.5t-23.5 77t-49.5 60t-80 22.5q-60 0 -109.5 -48.5t-80 -126.5t-47.5 -170.5t-17 -184.5q0 -107 43.5 -171.5t130.5 -64.5q39 0 82 18t66 44q10 11 31 77.5t41 177t20 206.5z" />
    <glyph glyph-name="colon" unicode=":" horiz-adv-x="512" 
d="M197 262q60 0 101.5 -41.5t41.5 -101.5t-41.5 -102t-101.5 -42t-102 42t-42 102t42 101.5t102 41.5zM344 963q60 0 101.5 -42t41.5 -102t-41.5 -101.5t-101.5 -41.5t-101.5 41.5t-41.5 101.5t41.5 102t101.5 42z" />
    <glyph glyph-name="semicolon" unicode=";" horiz-adv-x="512" 
d="M16 -311v71q91 47 119 73q41 37 41 81q0 20 -12.5 37t-30.5 32.5t-36.5 32.5t-31 43.5t-12.5 59.5q0 61 40 102t104 41q65 0 108 -49.5t43 -136.5q0 -132 -95 -235t-237 -152zM344 963q60 0 101.5 -42t41.5 -102t-41.5 -101.5t-101.5 -41.5t-101.5 41.5t-41.5 101.5
t41.5 102t101.5 42z" />
    <glyph glyph-name="less" unicode="&#x3c;" horiz-adv-x="1228" 
d="M1114 147v-163l-962 426v145l962 424v-168l-749 -330z" />
    <glyph glyph-name="equal" unicode="=" horiz-adv-x="1228" 
d="M1096 760v-168h-963v168h963zM1096 371v-168h-963v168h963z" />
    <glyph glyph-name="greater" unicode="&#x3e;" horiz-adv-x="1228" 
d="M176 815v164l963 -426v-145l-963 -424v168l750 329z" />
    <glyph glyph-name="question" unicode="?" 
d="M410 399l-60 15q23 221 164 411q5 6 25.5 33.5t27 37t24.5 35t25.5 38t21 36.5t19.5 40.5t13.5 38t10.5 42t3 41.5q0 94 -51.5 141.5t-143.5 47.5q-40 0 -66 -16t-26 -46q0 -16 16.5 -49t16.5 -67q0 -47 -31.5 -81t-74.5 -34q-58 0 -92.5 37t-34.5 96q0 105 94 167
t248 62q162 0 266 -74.5t104 -213.5q0 -68 -21 -126t-56.5 -101t-78.5 -81.5t-90.5 -75t-90 -73t-78.5 -84.5t-54 -102q0 -1 -12 -40t-18 -55zM328 262q60 0 101.5 -41.5t41.5 -101.5t-41.5 -102t-101.5 -42t-102 42t-42 102t42 101.5t102 41.5z" />
    <glyph glyph-name="at" unicode="@" horiz-adv-x="1638" 
d="M956 969q-38 0 -83 -28.5t-85.5 -76.5t-68 -122t-27.5 -156q0 -84 32.5 -132t80.5 -48q64 0 121 74.5t86.5 172t29.5 178.5q0 138 -86 138zM1083 971l21 76h153l-124 -504q-11 -42 -11 -66q0 -38 16 -65t54 -27q65 0 121.5 62.5t88.5 159t32 196.5q0 79 -25 154.5
t-74.5 140.5t-118 114.5t-161 78t-197.5 28.5q-84 0 -164 -24.5t-151.5 -77t-125 -128t-85 -185t-31.5 -240.5q0 -159 77 -292t209.5 -209.5t291.5 -76.5q130 0 223.5 24t195.5 74l23 -92q-120 -59 -223.5 -92t-216.5 -33q-159 0 -293.5 45.5t-224.5 118.5t-153.5 165.5
t-92.5 186t-29 181.5q0 167 62 311t167 241.5t245.5 153t295.5 55.5q193 0 352 -80.5t250.5 -223.5t91.5 -318q0 -83 -26.5 -170t-74 -162.5t-124 -123.5t-166.5 -48q-56 0 -97.5 19t-60.5 46t-27 49.5t-7 37.5h-4q-21 -40 -90.5 -93.5t-151.5 -58.5q-37 -2 -71 10.5
t-64.5 41t-49 83t-18.5 127.5q0 52 15.5 117t50 135.5t82 128.5t118.5 95.5t152 37.5q55 0 87 -28t58 -76z" />
    <glyph glyph-name="A" unicode="A" horiz-adv-x="1478" 
d="M1376 0h-577l12 53q88 7 128 27.5t40 77.5q0 30 -8.5 79t-22.5 113t-16 76h-524q-9 -15 -33.5 -54.5t-38 -62.5t-31 -55.5t-25.5 -58t-8 -45.5q0 -28 10 -46.5t32.5 -28.5t45.5 -14t62 -8l-12 -53h-484l13 53q88 15 155 84.5t201 290.5l608 997h78l250 -1224
q19 -92 53 -120t105 -28zM467 532h442l-110 549z" />
    <glyph glyph-name="B" unicode="B" horiz-adv-x="1366" 
d="M664 1204l-101 -434q35 0 58.5 0.5t67 3.5t75 8.5t74 17t73 27t62.5 40.5t52 56t33 74t13 95q0 128 -67 175.5t-199 47.5q-76 0 -100 -18.5t-41 -92.5zM238 1339l12 54h614q469 0 469 -303q0 -245 -280 -349q103 -46 152.5 -118.5t49.5 -180.5q0 -94 -37.5 -170
t-98.5 -126t-142 -83.5t-164 -48t-168 -14.5h-653l12 53q75 0 117.5 32.5t60.5 109.5l201 878q3 16 9.5 42t8.5 38t4.5 33t2.5 43q0 110 -170 110zM545 692l-96 -407q-25 -93 -25 -129q0 -40 29.5 -59t115.5 -19q176 0 300 103.5t124 275.5q0 131 -64.5 183t-215.5 52h-168z
" />
    <glyph glyph-name="C" unicode="C" horiz-adv-x="1478" 
d="M1450 1425h70l-78 -444h-62q-12 183 -106 275t-279 92q-114 0 -212.5 -55t-167 -144.5t-117.5 -202.5t-72 -230t-23 -227q0 -189 103 -302t289 -113q81 0 154.5 23t125 57t94.5 78.5t67.5 83t39.5 75.5h88q-87 -202 -249 -313t-378 -111q-137 0 -246 36.5t-175 93
t-109.5 131.5t-60.5 145.5t-17 142.5q0 186 62 352.5t172 289.5t271 195t349 72q87 0 168 -18.5t136.5 -37.5t80.5 -19q34 0 51.5 18t30.5 57z" />
    <glyph glyph-name="D" unicode="D" horiz-adv-x="1593" 
d="M242 1339l12 54h616q114 0 212.5 -16t190 -55.5t156.5 -100.5t103.5 -156t38.5 -217q0 -168 -50.5 -309.5t-137 -239.5t-201.5 -166.5t-243 -100.5t-263 -32h-676l12 53q77 8 115.5 37.5t56.5 104.5l201 878q3 13 9.5 42.5t8.5 41t4.5 32t2.5 40.5q0 33 -13.5 55
t-39.5 33t-52 15.5t-63 6.5zM678 1210l-223 -923q-19 -81 -19 -121q0 -46 39 -67t141 -21q153 0 285 67.5t220 178.5t138 253t50 293q0 209 -108 327t-312 118q-48 0 -73.5 -0.5t-51 -4.5t-36 -9.5t-22 -19t-16.5 -29t-12 -42.5z" />
    <glyph glyph-name="E" unicode="E" horiz-adv-x="1366" 
d="M1309 1034h-62q-5 60 -12.5 99.5t-24.5 72t-39.5 50.5t-61.5 30.5t-87 16.5t-119 4q-106 0 -156.5 -10.5t-68.5 -30.5t-29 -66l-104 -422q93 0 157 3.5t112.5 14t77.5 23t52 37.5t36 49.5t30 67.5h63l-123 -527h-53q0 46 -1 74.5t-6.5 56.5t-12 42.5t-23 28.5t-34 19.5
t-50.5 10t-66 5.5t-88 1h-92q-12 -55 -42.5 -175t-48 -203t-17.5 -126q0 -55 38 -74.5t160 -19.5q158 0 257 27t164 83.5t130 163.5h66l-107 -360h-1144l12 53q72 8 109 37.5t55 104.5l200 878q3 16 9.5 42t8.5 38t4.5 33t2.5 43q0 33 -13.5 55t-39.5 33t-52 15.5t-63 6.5
l12 54h1139z" />
    <glyph glyph-name="F" unicode="F" horiz-adv-x="1251" 
d="M-16 0l12 53q74 8 112 37.5t56 104.5l201 878q3 13 9.5 41.5t8.5 39.5t4 31.5t2 43.5q0 33 -13.5 55t-39.5 33t-52 15.5t-63 6.5l12 54h1117l-56 -359h-61q-5 60 -12.5 99.5t-24.5 72t-39.5 50.5t-61.5 30.5t-87 16.5t-119 4q-96 0 -142 -10t-63.5 -30.5t-28.5 -66.5
l-104 -422q87 0 148 3.5t107 14t74 23t50.5 37.5t35 50t29.5 67h64l-123 -527h-53q0 46 -1 74.5t-6.5 56.5t-12 42.5t-23 28.5t-34 19.5t-50.5 10t-66 5.5t-88 1h-72q-9 -41 -41.5 -179t-49.5 -223.5t-17 -125.5q0 -30 13.5 -50.5t39.5 -31t53.5 -15t65.5 -6.5l-12 -53h-598
z" />
    <glyph glyph-name="G" unicode="G" horiz-adv-x="1478" 
d="M883 702h620l-12 -53q-85 -3 -123 -32t-61 -115l-111 -410q-115 -63 -234.5 -94t-281.5 -31q-114 0 -220 36t-191.5 103.5t-137 176.5t-51.5 243q0 182 62 346.5t172 286.5t271 194t349 72q87 0 168 -18.5t136.5 -37.5t80.5 -19q33 0 51 18t31 57h69l-77 -444h-62
q-16 186 -105 276.5t-280 90.5q-114 0 -212.5 -55t-167 -144.5t-117.5 -202.5t-72 -230t-23 -227q0 -95 22 -174.5t66.5 -140.5t117 -95t167.5 -34q105 0 159 31.5t77 107.5q25 83 53 198t28 159q0 36 -15.5 59t-44.5 33t-54.5 13t-61.5 3z" />
    <glyph glyph-name="H" unicode="H" horiz-adv-x="1593" 
d="M229 1339l13 54h630l-12 -54q-95 -8 -140.5 -40t-68.5 -128l-98 -413h600l72 315q3 13 9.5 41.5t8.5 39.5t4 31.5t2 43.5q0 56 -40 80t-128 30l13 54h594l-13 -54q-77 -8 -113.5 -37t-54.5 -104l-200 -879q-3 -16 -9.5 -42t-9 -38t-4.5 -32.5t-2 -42.5q0 -27 9 -46.5
t23.5 -31t37 -19t44 -10.5t50.5 -4l-8 -53h-635l12 53q103 8 147 36.5t62 105.5l104 456h-600q-100 -428 -100 -487q0 -33 13.5 -55.5t39.5 -33.5t52.5 -15.5t64.5 -6.5l-12 -53h-598l12 53q77 8 115.5 37.5t56.5 104.5l201 878q3 13 9.5 41.5t8.5 39.5t4 31.5t2 43.5
q0 33 -13.5 55t-39.5 33t-52 15.5t-63 6.5z" />
    <glyph glyph-name="I" unicode="I" horiz-adv-x="796" 
d="M872 1393l-12 -54q-90 -8 -126 -38.5t-58 -129.5q-37 -164 -99.5 -424.5t-93 -398.5t-30.5 -184q0 -56 37.5 -80.5t132.5 -30.5l-13 -53h-606l12 53q83 8 122 37t57 105l202 878q3 16 9.5 42t8.5 38t4.5 33t2.5 43q0 33 -13.5 55t-39.5 33t-52 15.5t-63 6.5l12 54h606z
" />
    <glyph glyph-name="J" unicode="J" 
d="M1085 1393l-12 -54q-89 -8 -124.5 -38.5t-57.5 -129.5l-158 -722q-56 -251 -162 -366.5t-284 -115.5q-59 0 -105.5 13.5t-74.5 34.5t-46 48.5t-25 52t-7 48.5q0 63 37 102t98 39q54 0 90.5 -33.5t36.5 -74.5q0 -34 -13.5 -55.5t-26.5 -35t-13 -26.5q0 -16 14.5 -25.5
t34.5 -9.5q36 0 62 21t54 91.5t56 198.5q27 127 59.5 271.5t51 226t35.5 163.5t24.5 131t7.5 81q0 33 -13.5 55t-39.5 33t-52.5 15.5t-64.5 6.5l12 54h606z" />
    <glyph glyph-name="K" unicode="K" horiz-adv-x="1478" 
d="M221 1339l12 54h627l-12 -54q-44 -5 -72 -15.5t-57.5 -37t-51 -77.5t-40.5 -130l-76 -325q40 29 141 100.5t164.5 118.5t138 107.5t112.5 106t38 75.5q0 39 -30 56.5t-99 20.5l12 54h553l-12 -54q-81 -12 -182.5 -74t-301.5 -223l-303 -243l369 -559
q74 -114 118.5 -147.5t127.5 -39.5l-13 -53h-639l13 53q75 0 111 16t36 54q0 36 -51 122t-155 240.5t-156 239.5q-11 -46 -30.5 -127t-33.5 -140t-28.5 -123t-22.5 -108t-8 -63q0 -103 166 -111l-13 -53h-585l12 53q72 8 109 37.5t55 104.5l201 878q3 13 9.5 41.5t8.5 39.5
t4 31.5t2 43.5q0 33 -13.5 55t-39.5 33t-52 15.5t-63 6.5z" />
    <glyph glyph-name="L" unicode="L" horiz-adv-x="1251" 
d="M246 1393h626l-12 -54q-75 -5 -112 -18t-60 -46.5t-39 -103.5q-40 -180 -80.5 -350t-64 -264t-43 -175.5t-27.5 -127t-8 -74.5q0 -55 38.5 -74.5t160.5 -19.5q158 0 257 27t164 83.5t130 163.5h65l-106 -360h-1147l12 53q74 8 112 37.5t56 104.5l201 878q3 13 9.5 41.5
t8.5 39.5t4 31.5t2 43.5q0 33 -13 55t-38.5 33t-50 15.5t-58.5 6.5z" />
    <glyph glyph-name="M" unicode="M" horiz-adv-x="1820" 
d="M-25 0l13 53q80 8 116 43t60 135q233 968 233 1020q0 27 -12.5 44.5t-37.5 26.5t-52 12.5t-66 4.5l13 54h456l152 -1028h4l625 1028h430l-13 -54q-74 -3 -110.5 -34.5t-56.5 -110.5q-51 -198 -142.5 -583.5t-91.5 -450.5q0 -54 40.5 -77.5t131.5 -29.5l-12 -53h-627
l12 53q107 13 148 52t63 141l215 942l-4 2l-739 -1206h-64l-172 1200h-4q-37 -179 -95 -424t-88 -383.5t-30 -198.5q0 -29 10 -50t24 -33.5t41 -21t48 -12.5t58 -8l-13 -53h-463z" />
    <glyph glyph-name="N" unicode="N" horiz-adv-x="1593" 
d="M229 1339l13 54h360l586 -1031q10 43 34 145t36 155t32 141t31 139.5t23 111t17 96t5 56.5q0 69 -39 97t-131 36l12 54h459l-16 -54q-57 -7 -86.5 -21.5t-53.5 -55t-43 -121.5q-30 -127 -87.5 -368t-105 -441.5t-83.5 -364.5h-62q-105 206 -336 599.5t-300 518.5
l-142 -579q-55 -225 -55 -332q-3 -43 26 -70.5t67 -37t89 -13.5l-12 -53h-471l12 53q38 5 62 12t46 23t34.5 34.5t27 57t24.5 79.5t25 112q18 86 66.5 284t81.5 343.5t33 187.5q0 80 -48 114t-131 39z" />
    <glyph glyph-name="O" unicode="O" horiz-adv-x="1478" 
d="M940 1425q77 0 147.5 -15t140.5 -54t120.5 -98.5t82 -157t31.5 -221.5q0 -134 -42 -268t-119.5 -249t-180 -204t-232.5 -140t-267 -51q-77 0 -147.5 15t-140.5 54t-121 99t-82.5 157.5t-31.5 221.5q0 168 66.5 333t178 292.5t269 206.5t328.5 79zM922 1348
q-125 0 -233.5 -91t-178.5 -235t-110 -316t-40 -339q0 -141 70 -231.5t209 -90.5q101 0 191.5 59.5t156.5 159t115 226.5t73.5 265t24.5 271q0 91 -28 162t-92 115.5t-158 44.5z" />
    <glyph glyph-name="P" unicode="P" horiz-adv-x="1251" 
d="M223 1339l19 54h559q143 0 243 -23.5t158.5 -71.5t84.5 -113t26 -155q0 -211 -169.5 -314.5t-479.5 -103.5q-67 0 -146 9q-94 -393 -94 -457q0 -33 13.5 -55.5t39.5 -33.5t52.5 -15.5t64.5 -6.5l-14 -53h-592l16 53q72 8 109 37.5t55 104.5l199 878q3 13 9.5 41.5
t8.5 39.5t4 31.5t2 43.5q0 33 -13.5 55t-39.5 33t-52 15.5t-63 6.5zM657 1212l-120 -514q280 0 397 87t117 282q0 248 -287 248q-50 0 -71 -20t-36 -83z" />
    <glyph glyph-name="Q" unicode="Q" horiz-adv-x="1478" 
d="M129 -356l348 340q-78 16 -143 52t-119.5 97t-85.5 158t-31 223q0 168 66.5 333t178 292.5t269 206.5t328.5 79q77 0 147.5 -15t140.5 -54t120.5 -98.5t82 -157t31.5 -221.5q0 -134 -42 -268t-119.5 -249t-180 -204t-232.5 -140t-267 -51h-31l-150 -141v-4q55 10 121 10
q82 0 246 -41q7 -2 30 -7.5t31 -7.5t28.5 -6.5t30.5 -6.5t27.5 -5t30 -4.5t27 -2.5t28.5 -1q76 0 140 30.5t129 127.5l47 -47q-93 -142 -207.5 -212.5t-276.5 -70.5q-95 0 -264 45t-241 45q-95 0 -201 -61zM922 1348q-125 0 -233.5 -91t-178.5 -235t-110 -316t-40 -339
q0 -141 70 -231.5t209 -90.5q101 0 191.5 59.5t156.5 159t115 226.5t73.5 265t24.5 271q0 91 -28 162t-92 115.5t-158 44.5z" />
    <glyph glyph-name="R" unicode="R" horiz-adv-x="1478" 
d="M1386 0h-372q-12 27 -39 80t-70 132t-77.5 142t-89 162t-76.5 139h-109q-100 -423 -100 -491q0 -33 13.5 -55.5t39.5 -33.5t52.5 -15.5t64.5 -6.5l-15 -53h-606l12 53q85 8 125 37t58 105l200 878q3 16 9.5 42t8.5 38t4.5 33t2.5 43q0 33 -13.5 55t-39.5 33t-52.5 15.5
t-64.5 6.5l10 54h612q241 0 362.5 -80t121.5 -252q0 -91 -36.5 -162t-100.5 -116.5t-137 -73t-160 -41.5q21 -36 135.5 -245.5t169.5 -281.5q37 -49 74 -64.5t96 -23.5zM678 1188l-105 -455h109q88 0 161.5 20t131 60.5t89.5 109t32 158.5q0 120 -72 177t-231 57
q-53 0 -74 -23t-41 -104z" />
    <glyph glyph-name="S" unicode="S" horiz-adv-x="1138" 
d="M1090 1425h67l-74 -417h-57q-20 157 -94 244t-225 87q-107 0 -177.5 -51.5t-64.5 -144.5q0 -53 30.5 -103t79.5 -92t108 -85.5t118.5 -92.5t108.5 -103t79.5 -127t30.5 -155q0 -133 -65 -229.5t-170.5 -142.5t-237.5 -46q-72 0 -149 19.5t-133 39t-77 19.5
q-33 0 -49 -18.5t-28 -57.5h-66l72 445h61q3 -94 42.5 -175t114.5 -133.5t171 -52.5q139 0 214 73t75 169q0 67 -30.5 127t-79.5 106.5t-108 91t-118.5 91t-108.5 96t-79.5 116t-30.5 142.5q0 87 35 157t94.5 113.5t135 66.5t159.5 23q88 0 158.5 -17.5t113.5 -34.5t65 -17
q38 0 56 17t33 52z" />
    <glyph glyph-name="T" unicode="T" horiz-adv-x="1251" 
d="M156 0l14 51q46 5 78 15.5t64 34.5t56 69t40 113l245 1024h-137q-127 0 -204.5 -59.5t-129.5 -219.5h-57l74 365h1169l-61 -379h-54q-3 69 -8.5 112t-20 81.5t-39.5 58t-64.5 30.5t-98.5 11h-115q-56 -264 -123.5 -543.5t-99 -415t-31.5 -184.5q0 -63 48 -85.5t143 -25.5
l-13 -53h-675z" />
    <glyph glyph-name="U" unicode="U" horiz-adv-x="1593" 
d="M246 1393h643l-12 -54q-52 -1 -85 -8.5t-62.5 -30.5t-49 -64.5t-35.5 -109.5q-13 -56 -63.5 -247t-80.5 -329t-30 -212q0 -131 85.5 -197.5t217.5 -66.5q58 0 107.5 11.5t88 28t73.5 50.5t59 61.5t48 80t38.5 87.5t33.5 101.5t28.5 105.5t27.5 115q98 421 98 502
q0 60 -39 88t-141 34l12 54h471l-12 -54q-73 -3 -121 -44.5t-73 -155.5q-116 -518 -179 -733q-69 -234 -218.5 -336.5t-401.5 -102.5q-124 0 -227.5 41t-170.5 128.5t-67 207.5q0 82 48 276.5t96 376t48 232.5q0 55 -41.5 81t-126.5 29z" />
    <glyph glyph-name="V" unicode="V" horiz-adv-x="1478" 
d="M184 1339l13 54h577l-12 -54q-98 -1 -134 -27t-36 -73q0 -26 147 -928q130 215 286 449t217 334t61 143q0 55 -36.5 77t-111.5 25l12 54h484l-13 -54q-73 -3 -123 -44.5t-114 -139.5l-774 -1188h-76l-215 1241q-13 78 -41.5 100.5t-110.5 30.5z" />
    <glyph glyph-name="W" unicode="W" horiz-adv-x="1933" 
d="M180 1393h557l-12 -54q-91 -1 -128.5 -28.5t-37.5 -81.5q0 -20 20.5 -175t54.5 -394t40 -287h4l375 706l-17 156q-6 59 -45.5 80.5t-122.5 23.5l13 54h581l-12 -54q-93 -6 -126.5 -26.5t-33.5 -87.5q0 -53 12 -193.5t33 -352t29 -302.5h4q34 59 123.5 215t133.5 234
t103 185.5t85 166t26 79.5q0 47 -36.5 63.5t-119.5 18.5l13 54h397l-12 -54q-81 -43 -150 -161l-696 -1211h-70l-92 951h-4l-502 -951h-73l-181 1247q-10 72 -39 96t-106 29z" />
    <glyph glyph-name="X" unicode="X" horiz-adv-x="1478" 
d="M229 1339l13 54h602l-13 -54q-149 0 -149 -67q0 -88 176 -408q36 44 126.5 142.5t136.5 159t46 94.5q0 43 -30 61t-109 18l12 54h516l-12 -54q-179 -36 -393 -282l-250 -287l262 -547q49 -103 91.5 -133.5t142.5 -36.5l-13 -53h-618l12 53q32 3 49.5 5t39 7t32 12t18 19
t7.5 29q0 30 -33 101t-85.5 173t-78.5 166q-24 -28 -79 -88.5t-92.5 -103.5t-79 -94.5t-63.5 -89.5t-22 -60q0 -42 33.5 -59.5t128.5 -16.5l-12 -53h-549l12 53q86 13 148 49t131 113l399 444l-256 533q-37 78 -78 109t-119 38z" />
    <glyph glyph-name="Y" unicode="Y" horiz-adv-x="1366" 
d="M209 1393h594l-12 -54q-90 0 -126 -15t-36 -62q0 -38 26 -103l172 -403q66 85 134 168.5t104 126t67.5 83.5t43.5 66.5t12 50.5q0 51 -42.5 69.5t-121.5 18.5l12 54h500l-12 -54q-63 -8 -128 -64.5t-143 -152.5l-395 -485q-14 -71 -41.5 -184.5t-44 -189t-16.5 -101.5
q0 -61 43.5 -85t146.5 -24l-12 -53h-676l12 53q102 3 157 46t77 134l100 435l-248 571q-26 60 -62 80t-97 20z" />
    <glyph glyph-name="Z" unicode="Z" horiz-adv-x="1251" 
d="M1087 0h-1118l15 66l1011 1241h-254q-216 0 -316.5 -51t-184.5 -207h-62l103 344h1050l-18 -78l-1000 -1229h273q155 0 258.5 29t169 87t114.5 158h64z" />
    <glyph glyph-name="bracketleft" unicode="[" horiz-adv-x="796" 
d="M35 -389l377 1782h419l-6 -62h-125q-47 0 -77 -17.5t-41 -70.5l-277 -1286q-37 -181 -37 -215q0 -38 20.5 -54t65.5 -16h123l-12 -61h-430z" />
    <glyph glyph-name="backslash" unicode="\" horiz-adv-x="569" 
d="M16 1425h168l453 -1458h-168z" />
    <glyph glyph-name="bracketright" unicode="]" horiz-adv-x="796" 
d="M754 1393l-377 -1782h-420l6 61h125q47 0 77.5 17.5t41.5 70.5l276 1287q37 181 37 215q0 38 -20.5 53.5t-65.5 15.5h-123l13 62h430z" />
    <glyph glyph-name="asciicircum" unicode="^" horiz-adv-x="1228" 
d="M371 645h-183l365 748h164l364 -748h-182l-264 559z" />
    <glyph glyph-name="underscore" unicode="_" 
d="M1024 -256h-1024v102h1024v-102z" />
    <glyph glyph-name="grave" unicode="`" horiz-adv-x="569" 
d="M596 1090h-82l-270 190q-64 48 -64 94q0 37 25.5 56.5t62.5 19.5q36 0 56.5 -15t46.5 -51z" />
    <glyph glyph-name="a" unicode="a" 
d="M725 899l25 88h211q-28 -113 -88 -353.5t-85.5 -348.5t-25.5 -133q0 -33 33 -33q46 0 133 121l30 -31q-146 -234 -286 -234q-115 0 -115 127q0 4 6 64h-6q-132 -191 -305 -191q-121 0 -187.5 83.5t-66.5 217.5q0 65 19 143t53 157t85 153t110 131.5t133.5 92t150.5 34.5
q105 0 176 -88zM348 102q64 0 120.5 59t93.5 145t63.5 184.5t38.5 175.5t12 120q0 123 -107 123q-66 0 -130.5 -72t-108.5 -174.5t-71.5 -210.5t-27.5 -184q0 -86 24.5 -126t92.5 -40z" />
    <glyph glyph-name="b" unicode="b" 
d="M573 1364l-122 -522l4 -4q145 149 286 149q111 0 182.5 -70t71.5 -206q0 -98 -30 -202t-87 -199t-132.5 -170t-174 -120t-202.5 -45q-121 0 -223.5 43t-102.5 82q0 13 3.5 30.5t10.5 43.5t9 33l215 887q45 192 45 206q0 38 -28 53t-93 13l8 45q32 3 119 13t157.5 18
t83.5 8q17 0 17 -14q0 -4 -3 -15.5t-7.5 -28t-6.5 -28.5zM641 868q-90 0 -157 -101t-128 -300q-88 -288 -88 -358q0 -28 31.5 -42t77.5 -14q69 0 132.5 52.5t108 132t78 171.5t50 172t16.5 132q0 155 -121 155z" />
    <glyph glyph-name="c" unicode="c" horiz-adv-x="909" 
d="M741 233l47 -47q-50 -50 -89 -82.5t-90.5 -65t-110.5 -48t-127 -15.5q-162 0 -243 93t-81 260q0 115 46.5 232.5t124.5 212t191 154.5t236 60q64 0 119.5 -21t93 -67t37.5 -108q0 -52 -33.5 -84.5t-87.5 -32.5q-55 0 -83.5 26t-28.5 72q0 26 12 46t23.5 33.5t11.5 22.5
q0 20 -20 32t-50 12q-64 0 -122.5 -41.5t-100 -106.5t-73 -143.5t-47 -154.5t-15.5 -136q0 -254 182 -254q67 0 131 37t147 114z" />
    <glyph glyph-name="d" unicode="d" 
d="M580 909q-57 0 -112.5 -51t-97 -128.5t-73.5 -166t-49 -166.5t-17 -127q0 -92 29 -132t96 -40q59 0 113 58.5t91 145.5t64.5 186t40.5 180t13 127q0 114 -98 114zM930 240l33 -35q-18 -31 -42 -63.5t-62 -73.5t-85 -67t-94 -26q-121 0 -121 117q0 30 4 70l-4 4
q-70 -99 -137 -145t-164 -46q-118 0 -189 78.5t-71 233.5q0 75 27 168t78.5 186t118 171t154.5 126.5t179 48.5q100 0 156 -67l67 282q15 73 15 88q0 73 -148 76l4 45q72 6 165 16t152.5 16.5t71.5 6.5q21 0 21 -18q0 -34 -145.5 -638.5t-145.5 -639.5t33 -35q46 0 129 121z
" />
    <glyph glyph-name="e" unicode="e" horiz-adv-x="909" 
d="M727 250l47 -51q-79 -94 -194.5 -159t-245.5 -65q-135 0 -214 83t-79 231q0 126 51 253t134 224.5t196 159t229 61.5q114 0 180 -45.5t66 -134.5q0 -273 -612 -416q-11 -68 -11 -108q0 -87 44.5 -136t130.5 -49q61 0 135 37.5t143 114.5zM612 909q-59 0 -115.5 -49.5
t-96 -123t-65.5 -143.5t-36 -124q47 15 94.5 35.5t104 54t99 71t71 88t28.5 103.5q0 38 -22.5 63t-61.5 25z" />
    <glyph glyph-name="f" unicode="f" horiz-adv-x="681" 
d="M725 922l-16 -95h-197l-123 -581q-24 -115 -52 -207t-69 -181t-89 -148.5t-114.5 -95.5t-144.5 -36q-88 0 -137 43t-49 100q0 54 26.5 86.5t77.5 32.5q39 0 63.5 -21.5t24.5 -56.5q0 -29 -12 -50t-12 -34q0 -22 37 -22q39 0 66 26t52.5 95t51.5 194l178 856h-197l25 95
h188q24 86 48 154t61.5 141.5t80 121.5t103 79.5t131.5 31.5q96 0 157.5 -41t61.5 -115q0 -49 -27.5 -77.5t-80.5 -28.5q-42 0 -69.5 24.5t-27.5 59.5q0 27 13.5 48.5t13.5 33.5q0 13 -12 19.5t-29 6.5q-125 0 -199 -458h197z" />
    <glyph glyph-name="g" unicode="g" horiz-adv-x="909" 
d="M950 954l-18 -135h-109q17 -66 17 -112q0 -166 -116.5 -268.5t-315.5 -102.5q-30 0 -46 2q-24 -8 -46.5 -36.5t-22.5 -51.5q0 -27 26 -43.5t68 -25.5t92.5 -17.5t101.5 -23.5t93 -38.5t68 -68.5t26 -107q0 -109 -66 -189.5t-174 -119.5t-241 -39q-159 0 -266 61t-107 177
q0 87 69 146.5t164 84.5q-59 42 -59 100q0 35 15 65.5t47 58t57 44.5t69 43q-77 24 -129.5 92.5t-52.5 176.5q0 110 61 194t155 125t204 41q94 0 180 -33h256zM408 -35l-187 35q-160 -54 -160 -182q0 -74 68 -118t160 -44q135 0 233.5 48.5t98.5 129.5q0 53 -43.5 80.5
t-169.5 50.5zM416 406q86 0 142 114t56 279q0 119 -94 119q-87 0 -144 -114.5t-57 -279.5q0 -52 23 -85t74 -33z" />
    <glyph glyph-name="h" unicode="h" horiz-adv-x="1138" 
d="M262 0h-225l248 1079q5 23 19.5 79.5t22 91t7.5 50.5q0 37 -25 51.5t-96 14.5l8 45q32 3 119 13t158 18t84 8q16 0 16 -14q0 -4 -2.5 -16t-8 -34.5t-9.5 -42.5q-5 -25 -31 -134.5t-54.5 -234.5t-46.5 -214l5 -4q69 99 164 165t200 66q91 0 148 -46t57 -136
q0 -60 -38.5 -204.5t-77 -276.5t-38.5 -164q0 -19 10.5 -30t24.5 -11q42 0 129 121l41 -29q-31 -47 -60 -82t-69.5 -73.5t-88 -59.5t-97.5 -21q-54 0 -88.5 35t-34.5 90q0 70 80.5 356t81.5 326q0 70 -84 70q-22 0 -54 -13.5t-74 -46t-81.5 -79.5t-77 -122.5t-59.5 -166.5z
" />
    <glyph glyph-name="i" unicode="i" horiz-adv-x="569" 
d="M109 891l10 45q73 8 160.5 21.5t140 21.5t63.5 8q25 0 25 -14q0 -3 -21 -78q-1 -3 -53 -182.5t-95.5 -345t-43.5 -205.5q0 -25 8.5 -34t26.5 -9q10 0 21.5 5t20.5 11.5t20 18.5t18 21t17 23.5t14.5 21.5t12.5 21t9 15l39 -23q-16 -31 -29 -54t-44.5 -65t-62.5 -69
t-78.5 -48.5t-97.5 -21.5q-60 0 -94.5 33.5t-34.5 91.5q0 68 87.5 390t87.5 335q0 38 -28.5 51t-98.5 15zM322 1294q0 54 38.5 92.5t92.5 38.5t92.5 -38.5t38.5 -92.5t-38.5 -92.5t-92.5 -38.5t-92.5 38.5t-38.5 92.5z" />
    <glyph glyph-name="j" unicode="j" horiz-adv-x="569" 
d="M109 895l10 45q80 8 169.5 20t143.5 19.5t68 7.5q18 0 18 -26q0 -8 -14 -80q-17 -85 -58 -299.5t-59.5 -304.5t-51.5 -214.5t-65 -199.5q-56 -131 -143 -208t-201 -77q-85 0 -135.5 44t-50.5 104q0 45 30.5 79.5t75.5 34.5q40 0 63 -24t23 -64q0 -27 -10 -50t-10 -28
q0 -26 33 -26q45 0 77.5 63.5t69.5 218.5q30 122 98 482t68 405q0 26 -11 42.5t-34 24t-45.5 9.5t-58.5 2zM299 1294q0 54 38.5 92.5t92.5 38.5t92.5 -38.5t38.5 -92.5t-38.5 -92.5t-92.5 -38.5t-92.5 38.5t-38.5 92.5z" />
    <glyph glyph-name="k" unicode="k" horiz-adv-x="1138" 
d="M1161 963l-12 -45q-39 -6 -87.5 -31.5t-79 -48.5t-91.5 -72l-229 -180l133 -332q25 -63 46.5 -93t51.5 -30q35 0 63 29.5t72 105.5l41 -24q-68 -124 -99 -165q-79 -101 -175 -102q-58 0 -103.5 37.5t-81.5 128.5l-129 316l-116 -80l-91 -377h-225l248 1079
q5 23 19.5 79.5t22 91t7.5 50.5q0 39 -27.5 52.5t-93.5 13.5l8 45q32 3 119 13t158 18t84 8q16 0 16 -14q0 -10 -20 -93l-199 -858q3 2 38 26.5t65.5 47t77 57.5t82.5 66t70.5 63.5t53.5 60.5t19 46q0 35 -32.5 49t-96.5 17l10 45h483z" />
    <glyph glyph-name="l" unicode="l" horiz-adv-x="569" 
d="M213 1366l8 45q32 3 119 13t158 18t84 8q16 0 16 -18q0 -3 -33 -142q-52 -217 -127 -510.5t-113 -447.5t-38 -178q0 -16 9 -25.5t26 -9.5q14 0 27.5 5.5t26.5 17t22.5 21.5t21.5 27t17.5 25.5t15.5 25t10 17.5l39 -25q-129 -258 -312 -258q-66 0 -101.5 31t-35.5 88
q0 66 70.5 348.5t140.5 552.5t70 305q0 40 -26.5 52t-94.5 14z" />
    <glyph glyph-name="m" unicode="m" horiz-adv-x="1593" 
d="M1489 242l37 -27q-22 -36 -47.5 -70t-66 -76.5t-90.5 -68t-101 -25.5q-64 0 -96.5 28t-32.5 93q0 61 86 358.5t86 327.5q0 34 -19.5 52t-54.5 18q-86 0 -178 -123.5t-144 -349.5l-86 -379h-217q8 35 36.5 156t47 203t41.5 184.5t35 165.5t12 82q0 61 -61 61
q-79 0 -166.5 -107.5t-124.5 -269.5l-106 -475h-226q187 783 187 834q0 35 -26 45t-99 10l6 45q108 13 190.5 27t115.5 20t46 6q14 0 14 -16q0 -20 -17.5 -95.5t-20.5 -91.5l4 -4q149 207 325 207q86 0 131 -48.5t45 -127.5q0 -8 -1 -24t-1 -23h4q171 223 349 223
q85 0 130.5 -46t45.5 -114q0 -62 -78 -348t-78 -323q0 -15 10 -26t25 -11q45 0 129 123z" />
    <glyph glyph-name="n" unicode="n" horiz-adv-x="1138" 
d="M115 889l6 45q108 13 190.5 27t115.5 20t46 6q7 0 15 -4.5t8 -11.5q0 -8 -7.5 -49t-18.5 -94.5t-13 -65.5h4q179 225 354 225q91 0 148 -46t57 -136q0 -61 -38.5 -209.5t-77 -281t-38.5 -154.5q0 -19 10.5 -30t24.5 -11q42 0 129 121l41 -29q-31 -47 -60 -82t-69.5 -73.5
t-88 -59.5t-97.5 -21q-54 0 -88.5 35t-34.5 90q0 70 80.5 356t81.5 326q0 70 -84 70q-32 0 -76 -26t-92 -75t-92 -137.5t-68 -197.5l-92 -416h-234l156 678q27 122 27 156q0 35 -26 45t-99 10z" />
    <glyph glyph-name="o" unicode="o" 
d="M266 236q0 -183 146 -183q70 0 129 56t95 137.5t61.5 177.5t35.5 172.5t10 126.5q0 91 -40.5 138.5t-104.5 47.5q-68 0 -126 -56t-95 -138.5t-63 -178.5t-37 -173.5t-11 -126.5zM969 598q0 -86 -28 -176t-79.5 -169.5t-119 -142t-153.5 -99t-175 -36.5q-72 0 -136.5 22.5
t-118.5 67t-86 120.5t-32 175q0 148 73.5 292t203.5 239.5t278 95.5q72 0 136.5 -22t118.5 -67t86 -122t32 -178z" />
    <glyph glyph-name="p" unicode="p" 
d="M104 889l11 45q336 53 342 53q14 0 14 -16q0 -4 -7 -35t-17 -71l-13 -52l4 -4q58 77 136 127.5t169 50.5q118 0 187 -78t69 -225q0 -76 -26.5 -170.5t-76.5 -188.5t-113.5 -173t-146.5 -128t-167 -49q-129 0 -172 95h-4q-14 -75 -32.5 -159.5t-28 -130.5t-9.5 -71
q0 -45 33.5 -64t103.5 -22l-8 -45h-524l8 45q75 8 108.5 39t55.5 129q3 15 77.5 340t113 501.5t38.5 198.5q0 33 -25 45.5t-100 12.5zM328 203q0 -137 110 -137q81 0 159.5 119t123.5 272t45 270q0 61 -28 99t-85 38q-59 0 -113 -48t-91.5 -123t-65.5 -164.5t-41.5 -174
t-13.5 -151.5z" />
    <glyph glyph-name="q" unicode="q" 
d="M295 -422l8 45q48 4 76 11t52 25.5t37.5 49t25.5 82.5l81 356l-4 5q-60 -81 -139.5 -129t-169.5 -48q-117 0 -181.5 78t-64.5 209q0 73 20.5 156t57.5 163t91 154t117.5 129.5t142 89t159.5 33.5q95 0 180 -53q6 2 55 16.5t88.5 25.5t47.5 11q20 0 20 -16q0 -12 -32 -148
q-37 -158 -81 -341.5t-71 -294.5t-52 -218.5t-36.5 -169.5t-11.5 -90q0 -78 114 -86l-8 -45h-522zM621 918q-63 0 -123 -53t-103.5 -134.5t-77 -176t-50.5 -181t-17 -146.5q0 -125 115 -125q64 0 124 61.5t101.5 151.5t73 190t46.5 178.5t15 115.5q0 119 -104 119z" />
    <glyph glyph-name="r" unicode="r" horiz-adv-x="796" 
d="M123 889l10 45q70 6 148.5 19.5t128.5 23.5t59 10q23 0 23 -26q0 -10 -5 -32t-19.5 -78.5t-27.5 -109.5l4 -4q34 57 56.5 89.5t59.5 75.5t78 64t87 21q65 0 98 -39t33 -94q0 -56 -33.5 -94.5t-91.5 -38.5q-28 0 -47 11.5t-27 25.5t-21 25.5t-30 11.5q-32 0 -61.5 -26
t-55 -75.5t-48.5 -110t-45.5 -142t-41.5 -158t-42 -170.5q-18 -75 -27 -113h-226q32 159 81 363.5t79.5 328.5t30.5 139q0 35 -23.5 46.5t-103.5 11.5z" />
    <glyph glyph-name="s" unicode="s" horiz-adv-x="796" 
d="M35 299h57q16 -104 79.5 -179t152.5 -75q66 0 105.5 30.5t39.5 94.5q0 41 -25 86t-62 83.5t-81 85.5t-81 90.5t-62 100t-25 113.5q0 116 84.5 187t202.5 71q57 0 105 -13.5t82 -26.5t57 -13q15 0 24.5 9t12 16.5t6.5 27.5h55l-43 -311h-60q-18 111 -71 176.5t-144 65.5
q-52 0 -83 -31.5t-31 -79.5q0 -37 34.5 -85.5t84 -98.5t99 -104.5t84 -121t34.5 -131.5q0 -139 -91.5 -215t-234.5 -76q-51 -3 -100.5 9.5t-87 26.5t-56.5 14q-24 0 -37.5 -11.5t-17.5 -46.5h-53z" />
    <glyph glyph-name="t" unicode="t" horiz-adv-x="681" 
d="M115 868l14 78q138 28 236 108t143 206h65l-67 -297h211l-19 -95h-213q-26 -109 -74 -300t-71 -290t-23 -124q0 -19 11 -31t30 -12q54 0 166 151l39 -31q-170 -256 -336 -256q-73 0 -108 30t-35 93q0 41 24 150t77 318.5t75 301.5h-145z" />
    <glyph glyph-name="u" unicode="u" horiz-adv-x="1138" 
d="M842 963h225q-29 -110 -59.5 -226.5t-48.5 -184t-36.5 -138t-27.5 -107.5t-17 -71.5t-11 -51.5t-3 -28q0 -15 10 -26t23 -11q18 0 42.5 19.5t41.5 39.5t49 62l37 -31q-70 -97 -113 -139q-98 -95 -196 -95q-119 0 -119 121q0 49 10 97l-4 4q-188 -222 -379 -222
q-83 0 -129.5 41.5t-46.5 118.5q0 74 75 356.5t75 342.5q0 35 -26 45t-99 10l6 45q110 13 196.5 27t122.5 20t56 6q14 0 14 -16q0 -14 -97.5 -385.5t-97.5 -413.5q0 -61 72 -61q60 0 129.5 56t121.5 135.5t71 152.5z" />
    <glyph glyph-name="v" unicode="v" horiz-adv-x="909" 
d="M100 905l9 45q227 37 284 37q22 0 31 -67q35 -237 47 -637h4q3 4 55.5 71t93.5 122.5t79 123t38 100.5q0 25 -10 43.5t-24 30t-28 23.5t-24 31t-10 44q0 53 37.5 84t87.5 31q60 0 98.5 -38.5t38.5 -102.5q0 -46 -19 -99t-59.5 -117t-67.5 -102t-79 -106
q-99 -130 -234.5 -288.5t-162.5 -158.5q-8 0 -11.5 3t-7 16.5t-5 39t-3.5 72.5q-11 376 -45 697q-6 58 -34 80t-79 22z" />
    <glyph glyph-name="w" unicode="w" horiz-adv-x="1366" 
d="M94 897l10 45q50 12 158 28.5t125 16.5q22 0 25 -33q41 -311 51 -579h4q140 254 262 491q44 84 56 102.5t24 18.5q22 0 38 -79t61 -383q22 -151 36 -242q6 10 55.5 81.5t80 120t61 115t30.5 107.5q0 19 -9.5 31.5t-23.5 21t-28 19t-23.5 33t-9.5 56.5q0 55 35 87t88 32
q57 0 92 -37t35 -96q0 -74 -56 -191.5t-120.5 -211.5t-143.5 -203.5t-96 -136.5q-30 -48 -68.5 -92t-60.5 -44q-19 0 -32.5 83.5t-32.5 259.5t-37 288h-4q-216 -398 -285 -507q-77 -124 -100 -124q-17 0 -24 14.5t-7 30.5q0 115 -21 418.5t-34 382.5q-4 26 -14 42t-27 23
t-31.5 9t-38.5 2z" />
    <glyph glyph-name="x" unicode="x" 
d="M129 881l-10 45q48 5 168.5 33t146.5 28q30 0 51 -47t88 -262q23 40 31.5 54.5t31 51.5t35.5 53.5t35.5 46t40 43.5t40 30.5t45.5 23t47 6.5q55 0 87.5 -32.5t32.5 -94.5q0 -52 -25.5 -87.5t-76.5 -35.5q-21 0 -35.5 11t-21 24t-17 24t-24.5 11q-41 0 -107.5 -94.5
t-85.5 -145.5l84 -311q17 -82 38.5 -113.5t55.5 -31.5q28 0 56.5 27t66.5 79l41 -35q-4 -6 -13 -18q-27 -38 -42 -57.5t-43.5 -49.5t-52 -44.5t-57.5 -26t-72 -11.5q-31 0 -53 5.5t-42 22.5t-34.5 40t-30.5 67.5t-30 94t-34 129.5q-13 -21 -42.5 -75.5t-55.5 -96.5
t-62 -88.5t-79.5 -72.5t-91.5 -26q-64 0 -94.5 37t-30.5 97q0 49 27 84.5t77 35.5q30 0 51 -11t29 -23.5t20 -23.5t27 -11q22 0 52 40.5t79 127t66 114.5q-12 53 -28.5 107t-40 124t-34.5 107q-18 58 -53.5 79.5t-130.5 21.5z" />
    <glyph glyph-name="y" unicode="y" horiz-adv-x="909" 
d="M100 905l9 45q208 37 268 37q22 0 31 -39q64 -279 106 -735h4q52 85 80.5 134t72 128.5t64.5 135.5t21 91q0 26 -16.5 43.5t-36 27t-36 35.5t-16.5 66q0 47 36.5 80t88.5 33q56 0 91.5 -36.5t35.5 -100.5q0 -102 -101 -304t-226 -390.5t-244 -339.5q-186 -238 -352 -238
q-62 0 -93.5 31.5t-31.5 83.5q0 45 28.5 73.5t73.5 28.5q31 0 53.5 -9.5t33 -21t26 -21t34.5 -9.5q48 0 112.5 76.5t94.5 134.5q6 27 6 61q0 101 -45.5 440t-76.5 410q-12 28 -35.5 37.5t-59.5 11.5z" />
    <glyph glyph-name="z" unicode="z" horiz-adv-x="909" 
d="M211 664h-59l100 299h610v-33l-604 -719q65 -9 113.5 -33.5t74 -55t47 -64t35.5 -61t36.5 -45.5t51.5 -18q33 0 33 35q0 11 -11.5 23.5t-22.5 29.5t-11 41q0 40 26.5 62t63.5 22q42 0 70.5 -29t28.5 -75q0 -80 -57 -127t-140 -47q-60 0 -132 28t-125.5 62t-106 62
t-78.5 28q-49 0 -123 -74l-39 37l651 774h-256q-82 0 -117.5 -24.5t-58.5 -97.5z" />
    <glyph glyph-name="braceleft" unicode="{" horiz-adv-x="796" 
d="M793 1393l-5 -25q-59 -23 -97.5 -84.5t-63.5 -169.5l-78 -346q-27 -118 -71 -178t-142 -86v-4q60 -15 86.5 -48.5t26.5 -89.5q0 -39 -10 -95.5t-18 -87t-28 -107.5q-57 -200 -57 -289q0 -64 19.5 -99t72.5 -49l-4 -24q-156 0 -220.5 37t-64.5 147q0 65 56.5 295.5
t56.5 278.5q0 52 -24 83.5t-81 49.5q91 28 132.5 80.5t64.5 154.5l82 365q20 92 51.5 150.5t79.5 89t101.5 41t134.5 10.5z" />
    <glyph glyph-name="bar" unicode="|" horiz-adv-x="454" 
d="M195 0v1450h167v-1450h-167z" />
    <glyph glyph-name="braceright" unicode="}" horiz-adv-x="796" 
d="M-16 -389l4 24q115 46 162 254l77 347q27 118 71 178t142 86v4q-60 15 -86 48t-26 89q0 83 55 291q57 200 57 289q0 64 -19.5 98.5t-72.5 48.5l4 25q155 0 220 -37.5t65 -147.5q0 -65 -56.5 -295t-56.5 -278q0 -52 24 -83.5t81 -49.5q-91 -28 -132.5 -81t-64.5 -155
l-82 -364q-20 -92 -51 -150.5t-79 -89t-101.5 -41t-134.5 -10.5z" />
    <glyph glyph-name="asciitilde" unicode="~" horiz-adv-x="1228" 
d="M1004 645l73 -143q-23 -32 -38.5 -52t-41 -46.5t-49.5 -41t-57 -25.5t-70 -11q-38 0 -79.5 11.5t-63.5 22t-70 35.5q-45 23 -71.5 35t-71 23.5t-88.5 11.5q-61 0 -101.5 -41t-70.5 -107l-74 144q92 176 256 176q84 0 236 -70q125 -56 166 -65q19 -4 34 -4q29 0 55 11.5
t49.5 36t39 45t37.5 54.5z" />
    <glyph glyph-name="uni00A0" unicode="&#xa0;" horiz-adv-x="512" 
 />
    <glyph glyph-name="exclamdown" unicode="&#xa1;" horiz-adv-x="796" 
d="M432 606l60 -8l-78 -664q-14 -123 -35 -239q-22 -117 -135 -117q-52 0 -88.5 37t-36.5 88t84 277zM528 741q-60 0 -101.5 42t-41.5 102t41.5 101.5t101.5 41.5t102 -41.5t42 -101.5t-42 -102t-102 -42z" />
    <glyph glyph-name="cent" unicode="&#xa2;" 
d="M371 135l329 672q6 25 24.5 42t18.5 25q0 20 -19.5 32t-49.5 12q-64 0 -122.5 -41.5t-100.5 -106.5t-73.5 -143.5t-47 -154.5t-15.5 -136q0 -142 56 -201zM735 696l-299 -604q27 -10 62 -10q67 0 131 37t147 114l47 -47q-50 -50 -89 -82.5t-90.5 -65t-110.5 -48
t-127 -15.5q-19 0 -27 2l-121 -245h-88l129 258q-108 27 -162.5 114.5t-54.5 223.5q0 115 46.5 232.5t124.5 212t191 154.5t236 60q52 0 102 -16l109 219h90l-127 -254q76 -56 76 -145q0 -52 -33.5 -84.5t-87.5 -32.5q-49 0 -74 22z" />
    <glyph glyph-name="sterling" unicode="&#xa3;" 
d="M180 233q-46 0 -72 -26t-26 -72q0 -37 24 -59.5t62 -22.5q90 0 121 150q-7 2 -24.5 9t-27 10.5t-26 7t-31.5 3.5zM774 756l-12 -99h-232q-8 -218 -84 -391q49 -28 79 -43t76 -29t87 -14q141 0 195 139h61q-10 -63 -32.5 -120.5t-58.5 -109.5t-92 -83t-124 -31
q-46 0 -87.5 13.5t-76 40t-51.5 42.5t-43 44q-31 -65 -83.5 -102.5t-123.5 -37.5q-77 0 -126.5 42.5t-49.5 129.5q0 88 55.5 144.5t143.5 56.5q12 0 23.5 -1.5t24 -5t19 -6t22.5 -8.5t21 -8q6 86 6 166q0 34 -3 94t-3 78h-190l12 99h176q2 75 11 146t27.5 149.5t51.5 143
t78.5 117.5t113 83t150.5 30q112 0 192.5 -52t80.5 -140q0 -56 -31.5 -88.5t-85.5 -32.5q-55 0 -82 29t-27 78q0 16 3 37.5t3 29.5q0 62 -59 62q-87 0 -131.5 -146t-60.5 -446h237z" />
    <glyph glyph-name="currency" unicode="&#xa4;" 
d="M907 430l99 -98l-99 -101l-104 103q-44 -40 -114 -63t-146 -23q-77 0 -147 23.5t-117 64.5l-103 -105l-96 101l98 98q-40 45 -62 116t-22 150q0 77 22 149t62 118l-98 98l98 100l105 -102q44 40 114 63t146 23t146 -23t114 -63l104 102l99 -100l-99 -98q40 -46 62 -118
t22 -149q0 -79 -22 -150t-62 -116zM543 989q-121 0 -201 -85.5t-80 -207.5t80 -207.5t201 -85.5t200.5 85.5t79.5 207.5t-79.5 207.5t-200.5 85.5z" />
    <glyph glyph-name="yen" unicode="&#xa5;" 
d="M442 1159l172 -403q66 85 134 168.5t104 126t67.5 83.5t43.5 66.5t12 50.5q0 51 -42.5 69.5t-121.5 18.5l12 54h500l-12 -54q-63 -8 -128 -64.5t-143 -152.5l-301 -368h226l-19 -99h-287l-14 -18l-20 -88h299l-19 -98h-303q-59 -249 -59 -289q0 -61 43.5 -85t146.5 -24
l-12 -53h-676l12 53q102 3 157 46t77 134l49 218h-287l19 98h290l25 106h-293l19 99h239l-209 485q-26 60 -62 80t-97 20l12 54h594l-12 -54q-90 0 -126 -15t-36 -62q0 -38 26 -103z" />
    <glyph glyph-name="brokenbar" unicode="&#xa6;" horiz-adv-x="454" 
d="M195 0v563h167v-563h-167zM195 887v563h167v-563h-167z" />
    <glyph glyph-name="section" unicode="&#xa7;" 
d="M590 279l-4 -9q57 -71 90 -135t33 -133q0 -49 -21.5 -96.5t-62.5 -87t-109.5 -64t-153.5 -24.5q-114 0 -201 61.5t-87 151.5q0 58 32.5 91.5t83.5 33.5q50 0 83.5 -28.5t33.5 -78.5q0 -31 -11 -52.5t-24.5 -30.5t-24.5 -21t-11 -25q0 -26 42.5 -41.5t94.5 -15.5
q71 0 123.5 42.5t52.5 112.5q0 41 -22.5 89t-59 94t-80 95.5t-87 101t-80 102.5t-59 108t-22.5 111q0 123 71 191.5t165 68.5q36 0 78 -10l4 6q-113 148 -113 264q0 71 28 126t74.5 86t101 46.5t114.5 15.5q123 0 201.5 -56t78.5 -142q0 -53 -32 -90t-87 -37
q-53 0 -83.5 32.5t-30.5 75.5q0 24 11.5 43.5t25 29.5t25 21.5t11.5 22.5q0 22 -37.5 38.5t-82.5 16.5q-86 0 -130.5 -46.5t-44.5 -104.5q0 -56 41.5 -122.5t100.5 -131.5t118 -133.5t100.5 -152t41.5 -165.5q0 -111 -71 -183.5t-179 -72.5q-23 0 -49 11zM745 446
q0 43 -33.5 110t-82.5 129.5t-111.5 107.5t-114.5 45q-120 0 -120 -125q0 -57 59.5 -151t142.5 -167t140 -73q55 0 87.5 36t32.5 88z" />
    <glyph glyph-name="dieresis" unicode="&#xa8;" horiz-adv-x="569" 
d="M555 1231q0 47 35 82t82 35t81.5 -35t34.5 -82t-34.5 -82t-81.5 -35t-82 35t-35 82zM135 1231q0 47 35 82t82 35t82 -35t35 -82t-35 -82t-82 -35t-82 35t-35 82z" />
    <glyph glyph-name="copyright" unicode="&#xa9;" horiz-adv-x="1638" 
d="M860 1425q200 0 364 -96.5t256.5 -263.5t92.5 -369t-92.5 -369t-256.5 -263.5t-364 -96.5t-364 96.5t-256.5 263.5t-92.5 369t92.5 369t256.5 263.5t364 96.5zM860 1319q-158 0 -289.5 -85.5t-205.5 -228t-74 -309.5t74 -309.5t205.5 -227.5t289.5 -85t290 85t206 228
t74 309t-74 309t-206 228.5t-290 85.5zM1169 530h41l-32 -149q-7 -33 -58 -45q-5 -1 -34 -9.5t-53 -14.5t-61.5 -11.5t-70.5 -5.5q-204 0 -325 107.5t-121 314.5q0 55 14.5 109t49.5 108.5t87 95.5t132.5 66.5t179.5 25.5q25 0 49.5 -2t41 -4t38 -7.5t30.5 -7.5t29 -8.5
t24 -7.5q20 -6 33 -18.5t13 -26.5v-147h-37q-48 184 -224 184q-122 0 -183.5 -94.5t-63.5 -255.5q-1 -113 22 -194.5t81.5 -133t150.5 -51.5q86 0 148.5 49.5t98.5 132.5z" />
    <glyph glyph-name="ordfeminine" unicode="&#xaa;" horiz-adv-x="614" 
d="M563 1370l15 55h135q-21 -84 -56.5 -216.5t-53 -201.5t-17.5 -85q0 -9 6 -14t14 -5q27 0 86 72l21 -19q-18 -25 -31.5 -41t-39 -42t-55 -40t-59.5 -14q-73 0 -73 74q0 15 4 39h-2h-2q-81 -113 -195 -113q-79 0 -122.5 49.5t-43.5 124.5q0 61 27.5 135t73 140.5t114 111.5
t142.5 45q30 0 55.5 -11.5t34 -20t22.5 -23.5zM254 987q0 -82 68 -82q48 0 88.5 52t63.5 122.5t35.5 131.5t12.5 92t-13.5 46t-45.5 15q-44 0 -85 -47t-67 -111.5t-41.5 -125t-15.5 -93.5z" />
    <glyph glyph-name="guillemotleft" unicode="&#xab;" 
d="M43 469v18l338 246q44 32 89 70.5t66 54.5t35 16q10 0 19.5 -7t9.5 -17q0 -26 -41.5 -83.5t-86 -106.5t-105.5 -113.5t-68 -71.5q2 -5 48.5 -99t74 -160.5t27.5 -92.5q0 -14 -9 -24.5t-20 -10.5q-15 0 -39 25t-57 66.5t-52 60.5zM426 469v18l338 246q44 32 89 70.5
t66 54.5t35 16q10 0 19.5 -7t9.5 -17q0 -26 -41.5 -83.5t-86 -106.5t-105.5 -113.5t-68 -71.5q1 -2 48 -98t74 -162t27 -92q0 -15 -8.5 -25t-19.5 -10q-15 0 -39 25t-57 66.5t-52 60.5z" />
    <glyph glyph-name="logicalnot" unicode="&#xac;" horiz-adv-x="1228" 
d="M928 205v387h-795v168h963v-555h-168z" />
    <glyph glyph-name="uni00AD" unicode="&#xad;" horiz-adv-x="681" 
d="M57 385l33 193h531l-37 -193h-527z" />
    <glyph glyph-name="registered" unicode="&#xae;" horiz-adv-x="1638" 
d="M860 1425q200 0 364 -96.5t256.5 -263.5t92.5 -369t-92.5 -369t-256.5 -263.5t-364 -96.5t-364 96.5t-256.5 263.5t-92.5 369t92.5 369t256.5 263.5t364 96.5zM860 1319q-158 0 -289.5 -85.5t-205.5 -228t-74 -309.5t74 -309.5t205.5 -227.5t289.5 -85t290 85t206 228
t74 309t-74 309t-206 228.5t-290 85.5zM518 1063v35h397q102 0 169 -50.5t67 -148.5q0 -72 -45 -130t-119 -83l119 -170q82 -114 143 -172v-25h-166q-28 0 -59 46t-82 142.5t-90 156.5h-74v-215q0 -61 13 -75t81 -18v-37h-354v37q67 4 79.5 18t12.5 75v524q0 59 -12.5 72.5
t-79.5 17.5zM778 1053v-344h70q68 0 99.5 51.5t31.5 130.5q0 162 -129 162h-72z" />
    <glyph glyph-name="macron" unicode="&#xaf;" horiz-adv-x="569" 
d="M748 1171h-646l31 123h645z" />
    <glyph glyph-name="degree" unicode="&#xb0;" horiz-adv-x="819" 
d="M512 938q82 0 134 55.5t52 139.5t-52 139t-134 55t-134 -55t-52 -139t52 -139.5t134 -55.5zM512 840q-123 0 -208 85t-85 208t85 207.5t208 84.5t208 -84.5t85 -207.5t-85 -208t-208 -85z" />
    <glyph glyph-name="plusminus" unicode="&#xb1;" horiz-adv-x="1228" 
d="M530 682v281h168v-281h398v-168h-398v-281h-168v281h-397v168h397zM133 0v168h963v-168h-963z" />
    <glyph glyph-name="twosuperior" unicode="&#xb2;" horiz-adv-x="614" 
d="M53 569l6 31q7 6 57 52t72.5 67t73 71t78 81.5t66.5 80t59 85t35.5 78t15.5 75.5q0 62 -36 95.5t-105 33.5q-31 0 -65 -15t-53.5 -29t-47.5 -38l-29 25q115 160 281 163q105 1 162 -51.5t57 -138.5q0 -57 -44.5 -135t-114.5 -154.5t-127 -131.5t-111 -101h145
q76 0 107 12.5t53 50.5h41l-80 -207h-496z" />
    <glyph glyph-name="threesuperior" unicode="&#xb3;" horiz-adv-x="614" 
d="M238 1010l8 41q34 6 66 14t70.5 23t67 34t47.5 48t19 63q0 42 -28.5 70t-77.5 28q-70 0 -148 -55l-24 39q65 52 124 81t125 29q88 0 144.5 -40t56.5 -113q0 -72 -50.5 -119t-133.5 -80q67 -39 100 -85.5t33 -115.5q0 -153 -116 -238t-296 -85q-75 0 -117 20t-42 70
q0 28 16.5 44.5t46.5 16.5q36 0 67 -20.5t59.5 -41t59.5 -20.5q22 0 45.5 8.5t48 27.5t40.5 59t16 94q0 103 -56.5 148t-170.5 55z" />
    <glyph glyph-name="acute" unicode="&#xb4;" horiz-adv-x="569" 
d="M385 1090h-90l274 288q24 26 37 37.5t34.5 23t43.5 11.5q37 0 62.5 -22.5t25.5 -59.5q0 -52 -51 -80z" />
    <glyph glyph-name="mu" unicode="&#xb5;" horiz-adv-x="1138" 
d="M842 963h225q-29 -110 -59.5 -226.5t-48.5 -184t-36.5 -138t-27.5 -107.5t-17 -71.5t-11 -51.5t-3 -28q0 -15 10 -26t23 -11q18 0 42.5 19.5t41.5 39.5t49 62l37 -31q-70 -97 -113 -139q-98 -95 -196 -95q-119 0 -119 121q0 49 10 97l-4 4q-184 -217 -371 -222l-92 -397
h-350l4 45q28 3 40.5 4.5t31.5 8t26 12.5t20 24.5t19 36.5t17.5 55.5t20 75.5t22.5 101q27 123 82 347.5t90 374t35 171.5q0 35 -26 45t-99 10l6 45q110 13 196.5 27t122.5 20t56 6q14 0 14 -16q0 -14 -97.5 -385.5t-97.5 -413.5q0 -61 72 -61q60 0 129.5 56t121.5 135.5
t71 152.5z" />
    <glyph glyph-name="paragraph" unicode="&#xb6;" horiz-adv-x="1269" 
d="M1030 1364h-121l-383 -1704h-180l209 924q-143 0 -216 79t-73 218q0 263 140 403.5t399 140.5h579l-12 -53q-38 -1 -62.5 -4t-51 -12t-43 -29t-23.5 -51l-365 -1616h-180z" />
    <glyph glyph-name="periodcentered" unicode="&#xb7;" horiz-adv-x="512" 
d="M109 481q0 60 42.5 103t102.5 43t102.5 -43t42.5 -103t-42.5 -102.5t-102.5 -42.5t-102.5 42.5t-42.5 102.5z" />
    <glyph glyph-name="cedilla" unicode="&#xb8;" horiz-adv-x="569" 
d="M-115 -395l37 63q6 -2 32.5 -12t37 -13.5t30.5 -7.5t37 -4q60 0 86.5 26t26.5 64q0 34 -24.5 56t-59.5 22q-42 0 -74 -14l-22 25l129 194h86l-92 -131q28 4 51 4q68 0 123 -37t55 -104q0 -48 -25 -85t-65 -57t-83.5 -30t-88.5 -10q-88 0 -197 51z" />
    <glyph glyph-name="onesuperior" unicode="&#xb9;" horiz-adv-x="614" 
d="M92 569l10 45q77 3 110 27t50 88q135 503 135 543q0 47 -43 47q-36 0 -88 -10l-8 26l315 90h39q-18 -71 -70.5 -269.5t-85 -328t-32.5 -153.5q0 -30 29 -43.5t102 -16.5l-8 -45h-455z" />
    <glyph glyph-name="ordmasculine" unicode="&#xba;" horiz-adv-x="614" 
d="M481 1364q-44 0 -80.5 -32.5t-59 -80t-38.5 -103t-22.5 -99.5t-6.5 -72q0 -54 22 -75t64 -21q43 0 79.5 32t59.5 79t39 102t22.5 99.5t6.5 74.5q0 53 -22.5 74.5t-63.5 21.5zM479 1425q102 0 173 -57.5t71 -173.5q0 -88 -47.5 -174.5t-132.5 -143.5t-183 -57
q-46 0 -88 13.5t-77 40t-55.5 72.5t-20.5 106q0 88 47.5 174t132 143t180.5 57z" />
    <glyph glyph-name="guillemotright" unicode="&#xbb;" 
d="M981 494v-19l-338 -246q-44 -32 -89 -70.5t-66 -54.5t-35 -16q-10 0 -19.5 7.5t-9.5 17.5q0 26 41.5 83.5t86 106.5t105.5 112.5t68 71.5q-2 4 -48.5 99t-74 161.5t-27.5 92.5q0 14 9 24t20 10q15 0 39 -24.5t57 -66t52 -60.5zM598 494v-19l-338 -246q-44 -32 -89 -70.5
t-66 -54.5t-35 -16q-10 0 -19.5 7.5t-9.5 17.5q0 26 41.5 83.5t86 106.5t105.5 112.5t68 71.5q0 1 -47.5 98t-74.5 163t-27 92q0 14 8.5 24t19.5 10q15 0 39 -24.5t57 -66t52 -60.5z" />
    <glyph glyph-name="onequarter" unicode="&#xbc;" horiz-adv-x="1536" 
d="M1200 328l86 331l-4 3l-338 -334h256zM1393 856h90l-131 -528h104l-22 -107h-111l-53 -221h-152l53 221h-329l24 115zM92 569l10 45q77 3 110 27t50 88q135 503 135 543q0 47 -43 47q-36 0 -88 -10l-8 26l315 90h39q-18 -71 -70.5 -269.5t-85 -328t-32.5 -153.5
q0 -30 29 -43.5t102 -16.5l-8 -45h-455zM1182 1425h141l-885 -1458h-141z" />
    <glyph glyph-name="onehalf" unicode="&#xbd;" horiz-adv-x="1536" 
d="M856 0l6 31q7 6 57 52t72.5 67t73 71t78 81.5t66.5 80t59 85t35.5 78t15.5 75.5q0 62 -36 95.5t-105 33.5q-31 0 -65 -15t-53.5 -29t-47.5 -38l-29 24q116 161 281 164q105 1 162 -51.5t57 -138.5q0 -57 -44.5 -135t-115 -155t-127.5 -132t-111 -101h146q76 0 107 13
t53 51h41l-80 -207h-496zM92 569l10 45q77 3 110 27t50 88q135 503 135 543q0 47 -43 47q-36 0 -88 -10l-8 26l315 90h39q-18 -71 -70.5 -269.5t-85 -328t-32.5 -153.5q0 -30 29 -43.5t102 -16.5l-8 -45h-455zM1182 1425h141l-885 -1458h-141z" />
    <glyph glyph-name="threequarters" unicode="&#xbe;" horiz-adv-x="1536" 
d="M1200 328l86 331l-4 3l-338 -334h256zM1393 856h90l-131 -528h104l-22 -107h-111l-53 -221h-152l53 221h-329l24 115zM1182 1425h141l-885 -1458h-141zM238 1010l8 41q34 6 66 14t70.5 23t67 34t47.5 48t19 63q0 42 -28.5 70t-77.5 28q-70 0 -148 -55l-24 39
q65 52 124 81t125 29q88 0 144.5 -40t56.5 -113q0 -72 -50.5 -119t-133.5 -80q67 -39 100 -85.5t33 -115.5q0 -153 -116 -238t-296 -85q-75 0 -117 20t-42 70q0 28 16.5 44.5t46.5 16.5q36 0 67 -20.5t59.5 -41t59.5 -20.5q22 0 45.5 8.5t48 27.5t40.5 59t16 94
q0 103 -56.5 148t-170.5 55z" />
    <glyph glyph-name="questiondown" unicode="&#xbf;" 
d="M606 604l60 -14q-23 -223 -164 -412q-5 -6 -25.5 -33.5t-27 -37t-24.5 -35t-25.5 -38t-21 -36.5t-19.5 -40.5t-13.5 -38t-10.5 -42t-3 -41.5q0 -94 51 -141t143 -47q40 0 66 15.5t26 45.5q0 17 -16 50t-16 67q0 47 31.5 81t74.5 34q58 0 92.5 -37.5t34.5 -96.5
q0 -105 -94 -167t-248 -62q-162 0 -266.5 75t-104.5 214q0 68 21 126t56.5 101t78.5 81.5t90.5 75t90 73t78.5 84.5t54 102q24 76 31 94zM688 741q-60 0 -101.5 42t-41.5 102t41.5 101.5t101.5 41.5t101.5 -41.5t41.5 -101.5t-41.5 -102t-101.5 -42z" />
    <glyph glyph-name="Agrave" unicode="&#xc0;" horiz-adv-x="1478" 
d="M1376 0h-577l12 53q88 7 128 27.5t40 77.5q0 30 -8.5 79t-22.5 113t-16 76h-524q-9 -15 -33.5 -54.5t-38 -62.5t-31 -55.5t-25.5 -58t-8 -45.5q0 -28 10 -46.5t32.5 -28.5t45.5 -14t62 -8l-12 -53h-484l13 53q88 15 155 84.5t201 290.5l608 997h78l250 -1224
q19 -92 53 -120t105 -28zM467 532h442l-110 549zM1122 1460h-82l-270 191q-63 48 -63 94q0 37 25.5 56.5t62.5 19.5q36 0 55.5 -15t46.5 -51z" />
    <glyph glyph-name="Aacute" unicode="&#xc1;" horiz-adv-x="1478" 
d="M1376 0h-577l12 53q88 7 128 27.5t40 77.5q0 30 -8.5 79t-22.5 113t-16 76h-524q-9 -15 -33.5 -54.5t-38 -62.5t-31 -55.5t-25.5 -58t-8 -45.5q0 -28 10 -46.5t32.5 -28.5t45.5 -14t62 -8l-12 -53h-484l13 53q88 15 155 84.5t201 290.5l608 997h78l250 -1224
q19 -92 53 -120t105 -28zM467 532h442l-110 549zM911 1460h-90l275 289q25 26 37 37.5t33.5 23t43.5 11.5q37 0 62.5 -22.5t25.5 -59.5q0 -52 -51 -80z" />
    <glyph glyph-name="Acircumflex" unicode="&#xc2;" horiz-adv-x="1478" 
d="M1376 0h-577l12 53q88 7 128 27.5t40 77.5q0 30 -8.5 79t-22.5 113t-16 76h-524q-9 -15 -33.5 -54.5t-38 -62.5t-31 -55.5t-25.5 -58t-8 -45.5q0 -28 10 -46.5t32.5 -28.5t45.5 -14t62 -8l-12 -53h-484l13 53q88 15 155 84.5t201 290.5l608 997h78l250 -1224
q19 -92 53 -120t105 -28zM467 532h442l-110 549zM721 1460h-103l326 361h137l181 -361h-93l-176 213z" />
    <glyph glyph-name="Atilde" unicode="&#xc3;" horiz-adv-x="1478" 
d="M1376 0h-577l12 53q88 7 128 27.5t40 77.5q0 30 -8.5 79t-22.5 113t-16 76h-524q-9 -15 -33.5 -54.5t-38 -62.5t-31 -55.5t-25.5 -58t-8 -45.5q0 -28 10 -46.5t32.5 -28.5t45.5 -14t62 -8l-12 -53h-484l13 53q88 15 155 84.5t201 290.5l608 997h78l250 -1224
q19 -92 53 -120t105 -28zM467 532h442l-110 549zM1274 1739h72q-19 -103 -76 -166.5t-156 -63.5q-54 0 -155 43t-140 43q-45 0 -66 -20t-40 -70h-76q26 100 83 167t140 67q58 0 169 -44t134 -44q24 0 41 6t30.5 21.5t20 26t19.5 34.5z" />
    <glyph glyph-name="Adieresis" unicode="&#xc4;" horiz-adv-x="1478" 
d="M1376 0h-577l12 53q88 7 128 27.5t40 77.5q0 30 -8.5 79t-22.5 113t-16 76h-524q-9 -15 -33.5 -54.5t-38 -62.5t-31 -55.5t-25.5 -58t-8 -45.5q0 -28 10 -46.5t32.5 -28.5t45.5 -14t62 -8l-12 -53h-484l13 53q88 15 155 84.5t201 290.5l608 997h78l250 -1224
q19 -92 53 -120t105 -28zM467 532h442l-110 549zM1081 1602q0 47 35 81.5t82 34.5t82 -34.5t35 -81.5t-35 -82t-82 -35t-82 35t-35 82zM662 1602q0 47 34.5 81.5t81.5 34.5t82 -34.5t35 -81.5t-35 -82t-82 -35t-81.5 35t-34.5 82z" />
    <glyph glyph-name="Aring" unicode="&#xc5;" horiz-adv-x="1478" 
d="M1376 0h-577l12 53q88 7 128 27.5t40 77.5q0 30 -8.5 79t-22.5 113t-16 76h-524q-9 -15 -33.5 -54.5t-38 -62.5t-31 -55.5t-25.5 -58t-8 -45.5q0 -28 10 -46.5t32.5 -28.5t45.5 -14t62 -8l-12 -53h-484l13 53q88 15 155 84.5t201 290.5l608 997h78l250 -1224
q19 -92 53 -120t105 -28zM467 532h442l-110 549zM778 1671q0 88 61.5 149.5t149.5 61.5t149.5 -61.5t61.5 -149.5t-61.5 -149.5t-149.5 -61.5t-149.5 61.5t-61.5 149.5zM868 1671q0 -51 35 -86t86 -35t86 35t35 86t-35 86t-86 35t-86 -35t-35 -86z" />
    <glyph glyph-name="AE" unicode="&#xc6;" horiz-adv-x="1933" 
d="M721 1339l12 54h1219l-56 -359h-61q-5 60 -12.5 99.5t-24.5 72t-39.5 50.5t-61.5 30.5t-87 16.5t-119 4q-82 0 -122 -10t-56 -30.5t-27 -66.5l-104 -422q80 0 136 3.5t98.5 14t69 23t48 37.5t34 50t29.5 67h64l-123 -527h-53q0 46 -1 74.5t-6.5 56.5t-12 42.5t-23 28.5
t-34 19.5t-50.5 10t-66 5.5t-88 1h-43q-12 -55 -42.5 -175t-48 -203t-17.5 -126q0 -54 30.5 -74t118.5 -20q158 0 257 27t164 83.5t130 163.5h66l-107 -360h-1122l12 53q91 8 126.5 38t59.5 130l54 223h-447q-184 -235 -184 -299q0 -47 38.5 -67t106.5 -25l-12 -53h-428
l16 53q21 7 48 31t68.5 74.5t80 100.5t108.5 141.5t128 164.5q86 109 220 277q188 236 240 309t52 111q0 42 -37 58t-119 19zM866 551l168 706h-4l-553 -706h389z" />
    <glyph glyph-name="Ccedilla" unicode="&#xc7;" horiz-adv-x="1478" 
d="M1450 1425h70l-80 -444h-60q-12 183 -106 275t-279 92q-114 0 -212.5 -55t-167 -144.5t-117.5 -202.5t-72 -230t-23 -227q0 -189 103 -302t289 -113q81 0 154.5 23t125 57t94.5 78.5t67.5 83t39.5 75.5h88q-84 -195 -238 -306t-358 -118l-68 -94q28 4 52 4q68 0 123 -37
t55 -104q0 -48 -25 -85t-65 -57t-83.5 -30t-88.5 -10q-88 0 -197 51l37 63q6 -2 32.5 -12t37 -13.5t30.5 -7.5t37 -4q60 0 86.5 26t26.5 64q0 34 -24.5 56t-59.5 22q-42 0 -74 -14l-22 25l106 157q-125 7 -224 46.5t-159.5 96t-100.5 129t-55.5 140.5t-15.5 137
q0 186 62 352.5t172 289.5t271 195t349 72q87 0 168 -18.5t136.5 -37.5t80.5 -19q34 0 51.5 18t30.5 57z" />
    <glyph glyph-name="Egrave" unicode="&#xc8;" horiz-adv-x="1366" 
d="M1309 1034h-62q-5 60 -12.5 99.5t-24.5 72t-39.5 50.5t-61.5 30.5t-87 16.5t-119 4q-106 0 -156.5 -10.5t-68.5 -30.5t-29 -66l-104 -422q93 0 157 3.5t112.5 14t77.5 23t52 37.5t36 49.5t30 67.5h63l-123 -527h-53q0 46 -1 74.5t-6.5 56.5t-12 42.5t-23 28.5t-34 19.5
t-50.5 10t-66 5.5t-88 1h-92q-12 -55 -42.5 -175t-48 -203t-17.5 -126q0 -55 38 -74.5t160 -19.5q158 0 257 27t164 83.5t130 163.5h66l-107 -360h-1144l12 53q72 8 109 37.5t55 104.5l200 878q3 16 9.5 42t8.5 38t4.5 33t2.5 43q0 33 -13.5 55t-39.5 33t-52 15.5t-63 6.5
l12 54h1139zM1055 1460h-82l-271 191q-63 48 -63 94q0 37 25.5 56.5t62.5 19.5q36 0 55.5 -15t46.5 -51z" />
    <glyph glyph-name="Eacute" unicode="&#xc9;" horiz-adv-x="1366" 
d="M1309 1034h-62q-5 60 -12.5 99.5t-24.5 72t-39.5 50.5t-61.5 30.5t-87 16.5t-119 4q-106 0 -156.5 -10.5t-68.5 -30.5t-29 -66l-104 -422q93 0 157 3.5t112.5 14t77.5 23t52 37.5t36 49.5t30 67.5h63l-123 -527h-53q0 46 -1 74.5t-6.5 56.5t-12 42.5t-23 28.5t-34 19.5
t-50.5 10t-66 5.5t-88 1h-92q-12 -55 -42.5 -175t-48 -203t-17.5 -126q0 -55 38 -74.5t160 -19.5q158 0 257 27t164 83.5t130 163.5h66l-107 -360h-1144l12 53q72 8 109 37.5t55 104.5l200 878q3 16 9.5 42t8.5 38t4.5 33t2.5 43q0 33 -13.5 55t-39.5 33t-52 15.5t-63 6.5
l12 54h1139zM844 1460h-90l274 289q24 26 37 37.5t34.5 23t43.5 11.5q37 0 62.5 -22.5t25.5 -59.5q0 -52 -51 -80z" />
    <glyph glyph-name="Ecircumflex" unicode="&#xca;" horiz-adv-x="1366" 
d="M1309 1034h-62q-5 60 -12.5 99.5t-24.5 72t-39.5 50.5t-61.5 30.5t-87 16.5t-119 4q-106 0 -156.5 -10.5t-68.5 -30.5t-29 -66l-104 -422q93 0 157 3.5t112.5 14t77.5 23t52 37.5t36 49.5t30 67.5h63l-123 -527h-53q0 46 -1 74.5t-6.5 56.5t-12 42.5t-23 28.5t-34 19.5
t-50.5 10t-66 5.5t-88 1h-92q-12 -55 -42.5 -175t-48 -203t-17.5 -126q0 -55 38 -74.5t160 -19.5q158 0 257 27t164 83.5t130 163.5h66l-107 -360h-1144l12 53q72 8 109 37.5t55 104.5l200 878q3 16 9.5 42t8.5 38t4.5 33t2.5 43q0 33 -13.5 55t-39.5 33t-52 15.5t-63 6.5
l12 54h1139zM653 1460h-102l326 361h137l180 -361h-92l-176 213z" />
    <glyph glyph-name="Edieresis" unicode="&#xcb;" horiz-adv-x="1366" 
d="M1309 1034h-62q-5 60 -12.5 99.5t-24.5 72t-39.5 50.5t-61.5 30.5t-87 16.5t-119 4q-106 0 -156.5 -10.5t-68.5 -30.5t-29 -66l-104 -422q93 0 157 3.5t112.5 14t77.5 23t52 37.5t36 49.5t30 67.5h63l-123 -527h-53q0 46 -1 74.5t-6.5 56.5t-12 42.5t-23 28.5t-34 19.5
t-50.5 10t-66 5.5t-88 1h-92q-12 -55 -42.5 -175t-48 -203t-17.5 -126q0 -55 38 -74.5t160 -19.5q158 0 257 27t164 83.5t130 163.5h66l-107 -360h-1144l12 53q72 8 109 37.5t55 104.5l200 878q3 16 9.5 42t8.5 38t4.5 33t2.5 43q0 33 -13.5 55t-39.5 33t-52 15.5t-63 6.5
l12 54h1139zM1014 1602q0 47 34.5 81.5t81.5 34.5t82 -34.5t35 -81.5t-35 -82t-82 -35t-81.5 35t-34.5 82zM594 1602q0 47 35 81.5t82 34.5t81.5 -34.5t34.5 -81.5t-34.5 -82t-81.5 -35t-82 35t-35 82z" />
    <glyph glyph-name="Igrave" unicode="&#xcc;" horiz-adv-x="796" 
d="M872 1393l-12 -54q-90 -8 -126 -38.5t-58 -129.5q-37 -164 -99.5 -424.5t-93 -398.5t-30.5 -184q0 -56 37.5 -80.5t132.5 -30.5l-13 -53h-606l12 53q83 8 122 37t57 105l202 878q3 16 9.5 42t8.5 38t4.5 33t2.5 43q0 33 -13.5 55t-39.5 33t-52 15.5t-63 6.5l12 54h606z
M770 1460h-82l-270 191q-64 48 -64 94q0 37 25.5 56.5t62.5 19.5q36 0 56.5 -15t46.5 -51z" />
    <glyph glyph-name="Iacute" unicode="&#xcd;" horiz-adv-x="796" 
d="M872 1393l-12 -54q-90 -8 -126 -38.5t-58 -129.5q-37 -164 -99.5 -424.5t-93 -398.5t-30.5 -184q0 -56 37.5 -80.5t132.5 -30.5l-13 -53h-606l12 53q83 8 122 37t57 105l202 878q3 16 9.5 42t8.5 38t4.5 33t2.5 43q0 33 -13.5 55t-39.5 33t-52 15.5t-63 6.5l12 54h606z
M559 1460h-90l274 289q24 26 37 37.5t34.5 23t43.5 11.5q37 0 62.5 -22.5t25.5 -59.5q0 -52 -51 -80z" />
    <glyph glyph-name="Icircumflex" unicode="&#xce;" horiz-adv-x="796" 
d="M872 1393l-12 -54q-90 -8 -126 -38.5t-58 -129.5q-37 -164 -99.5 -424.5t-93 -398.5t-30.5 -184q0 -56 37.5 -80.5t132.5 -30.5l-13 -53h-606l12 53q83 8 122 37t57 105l202 878q3 16 9.5 42t8.5 38t4.5 33t2.5 43q0 33 -13.5 55t-39.5 33t-52 15.5t-63 6.5l12 54h606z
M369 1460h-103l326 361h137l180 -361h-92l-176 213z" />
    <glyph glyph-name="Idieresis" unicode="&#xcf;" horiz-adv-x="796" 
d="M872 1393l-12 -54q-90 -8 -126 -38.5t-58 -129.5q-37 -164 -99.5 -424.5t-93 -398.5t-30.5 -184q0 -56 37.5 -80.5t132.5 -30.5l-13 -53h-606l12 53q83 8 122 37t57 105l202 878q3 16 9.5 42t8.5 38t4.5 33t2.5 43q0 33 -13.5 55t-39.5 33t-52 15.5t-63 6.5l12 54h606z
M729 1602q0 47 35 81.5t82 34.5t82 -34.5t35 -81.5t-35 -82t-82 -35t-82 35t-35 82zM309 1602q0 47 35 81.5t82 34.5t82 -34.5t35 -81.5t-35 -82t-82 -35t-82 35t-35 82z" />
    <glyph glyph-name="Eth" unicode="&#xd0;" horiz-adv-x="1593" 
d="M289 651h-211l24 107h211l72 315q3 13 9.5 42.5t8.5 41t4.5 32t2.5 40.5q0 33 -13.5 55t-39.5 33t-52 15.5t-63 6.5l12 54h616q114 0 212.5 -16t190 -55.5t156.5 -100.5t103.5 -156t38.5 -217q0 -168 -50.5 -309.5t-137 -239.5t-201.5 -166.5t-243 -100.5t-263 -32h-676
l12 53q77 8 115.5 37.5t56.5 104.5zM942 651h-399l-88 -364q-19 -81 -19 -121q0 -46 39 -67t141 -21q153 0 285 67.5t220 178.5t138 253t50 293q0 209 -108 327t-312 118q-48 0 -73.5 -0.5t-51 -4.5t-36 -9.5t-22 -19t-16.5 -29t-12 -42.5l-109 -452h398z" />
    <glyph glyph-name="Ntilde" unicode="&#xd1;" horiz-adv-x="1593" 
d="M229 1339l13 54h360l586 -1031q10 43 34 145t36 155t32 141t31 139.5t23 111t17 96t5 56.5q0 69 -39 97t-131 36l12 54h459l-16 -54q-57 -7 -86.5 -21.5t-53.5 -55t-43 -121.5q-30 -127 -87.5 -368t-105 -441.5t-83.5 -364.5h-62q-105 206 -336 599.5t-300 518.5
l-142 -579q-55 -225 -55 -332q-3 -43 26 -70.5t67 -37t89 -13.5l-12 -53h-471l12 53q38 5 62 12t46 23t34.5 34.5t27 57t24.5 79.5t25 112q18 86 66.5 284t81.5 343.5t33 187.5q0 80 -48 114t-131 39zM1319 1739h72q-19 -103 -76 -166.5t-156 -63.5q-55 0 -155 43t-140 43
q-45 0 -66 -20t-40 -70h-76q26 100 83 167t140 67q58 0 169 -44t134 -44q24 0 41 6t30.5 21.5t20 26t19.5 34.5z" />
    <glyph glyph-name="Ograve" unicode="&#xd2;" horiz-adv-x="1478" 
d="M940 1425q77 0 147.5 -15t140.5 -54t120.5 -98.5t82 -157t31.5 -221.5q0 -134 -42 -268t-119.5 -249t-180 -204t-232.5 -140t-267 -51q-77 0 -147.5 15t-140.5 54t-121 99t-82.5 157.5t-31.5 221.5q0 168 66.5 333t178 292.5t269 206.5t328.5 79zM922 1348
q-125 0 -233.5 -91t-178.5 -235t-110 -316t-40 -339q0 -141 70 -231.5t209 -90.5q101 0 191.5 59.5t156.5 159t115 226.5t73.5 265t24.5 271q0 91 -28 162t-92 115.5t-158 44.5zM1145 1460h-82l-270 191q-64 48 -64 94q0 37 25.5 56.5t62.5 19.5q36 0 56.5 -15t46.5 -51z
" />
    <glyph glyph-name="Oacute" unicode="&#xd3;" horiz-adv-x="1478" 
d="M940 1425q77 0 147.5 -15t140.5 -54t120.5 -98.5t82 -157t31.5 -221.5q0 -134 -42 -268t-119.5 -249t-180 -204t-232.5 -140t-267 -51q-77 0 -147.5 15t-140.5 54t-121 99t-82.5 157.5t-31.5 221.5q0 168 66.5 333t178 292.5t269 206.5t328.5 79zM922 1348
q-125 0 -233.5 -91t-178.5 -235t-110 -316t-40 -339q0 -141 70 -231.5t209 -90.5q101 0 191.5 59.5t156.5 159t115 226.5t73.5 265t24.5 271q0 91 -28 162t-92 115.5t-158 44.5zM934 1460h-90l274 289q24 26 37 37.5t34.5 23t43.5 11.5q37 0 62.5 -22.5t25.5 -59.5
q0 -52 -51 -80z" />
    <glyph glyph-name="Ocircumflex" unicode="&#xd4;" horiz-adv-x="1478" 
d="M940 1425q77 0 147.5 -15t140.5 -54t120.5 -98.5t82 -157t31.5 -221.5q0 -134 -42 -268t-119.5 -249t-180 -204t-232.5 -140t-267 -51q-77 0 -147.5 15t-140.5 54t-121 99t-82.5 157.5t-31.5 221.5q0 168 66.5 333t178 292.5t269 206.5t328.5 79zM922 1348
q-125 0 -233.5 -91t-178.5 -235t-110 -316t-40 -339q0 -141 70 -231.5t209 -90.5q101 0 191.5 59.5t156.5 159t115 226.5t73.5 265t24.5 271q0 91 -28 162t-92 115.5t-158 44.5zM743 1460h-102l326 361h137l180 -361h-92l-176 213z" />
    <glyph glyph-name="Otilde" unicode="&#xd5;" horiz-adv-x="1478" 
d="M940 1425q77 0 147.5 -15t140.5 -54t120.5 -98.5t82 -157t31.5 -221.5q0 -134 -42 -268t-119.5 -249t-180 -204t-232.5 -140t-267 -51q-77 0 -147.5 15t-140.5 54t-121 99t-82.5 157.5t-31.5 221.5q0 168 66.5 333t178 292.5t269 206.5t328.5 79zM922 1348
q-125 0 -233.5 -91t-178.5 -235t-110 -316t-40 -339q0 -141 70 -231.5t209 -90.5q101 0 191.5 59.5t156.5 159t115 226.5t73.5 265t24.5 271q0 91 -28 162t-92 115.5t-158 44.5zM1296 1739h72q-19 -103 -75.5 -166.5t-155.5 -63.5q-55 0 -155 43t-140 43q-45 0 -66.5 -20.5
t-40.5 -69.5h-76q26 99 83.5 166.5t140.5 67.5q58 0 169 -44t134 -44q24 0 41 6t30.5 22t19 25t19.5 35z" />
    <glyph glyph-name="Odieresis" unicode="&#xd6;" horiz-adv-x="1478" 
d="M940 1425q77 0 147.5 -15t140.5 -54t120.5 -98.5t82 -157t31.5 -221.5q0 -134 -42 -268t-119.5 -249t-180 -204t-232.5 -140t-267 -51q-77 0 -147.5 15t-140.5 54t-121 99t-82.5 157.5t-31.5 221.5q0 168 66.5 333t178 292.5t269 206.5t328.5 79zM922 1348
q-125 0 -233.5 -91t-178.5 -235t-110 -316t-40 -339q0 -141 70 -231.5t209 -90.5q101 0 191.5 59.5t156.5 159t115 226.5t73.5 265t24.5 271q0 91 -28 162t-92 115.5t-158 44.5zM1104 1602q0 47 35 81.5t82 34.5t81.5 -34.5t34.5 -81.5t-34.5 -82t-81.5 -35t-82 35t-35 82z
M684 1602q0 47 35 81.5t82 34.5t82 -34.5t35 -81.5t-35 -82t-82 -35t-82 35t-35 82z" />
    <glyph glyph-name="multiply" unicode="&#xd7;" horiz-adv-x="1228" 
d="M614 365l-364 -365l-117 123l365 358l-365 359l117 123l364 -365l365 365l117 -123l-365 -359l365 -358l-117 -123z" />
    <glyph glyph-name="Oslash" unicode="&#xd8;" horiz-adv-x="1478" 
d="M424 145l655 1158q-60 45 -157 45q-125 0 -233.5 -91t-178.5 -235t-110 -316t-40 -339q0 -138 64 -222zM1139 1245l-658 -1153q62 -47 158 -47q101 0 191.5 59.5t156.5 159t115 226.5t73.5 265t24.5 271q0 138 -61 219zM1237 1579h92l-121 -211q254 -131 254 -489
q0 -134 -42 -268t-119.5 -249t-180 -204t-232.5 -140t-267 -51q-104 0 -195 29l-129 -225h-88l145 254q-256 129 -256 489q0 168 66.5 333t178 292.5t269 206.5t328.5 79q105 0 193 -28z" />
    <glyph glyph-name="Ugrave" unicode="&#xd9;" horiz-adv-x="1593" 
d="M246 1393h643l-12 -54q-52 -1 -85 -8.5t-62.5 -30.5t-49 -64.5t-35.5 -109.5q-13 -56 -63.5 -247t-80.5 -329t-30 -212q0 -131 85.5 -197.5t217.5 -66.5q58 0 107.5 11.5t88 28t73.5 50.5t59 61.5t48 80t38.5 87.5t33.5 101.5t28.5 105.5t27.5 115q98 421 98 502
q0 60 -39 88t-141 34l12 54h471l-12 -54q-73 -3 -121 -44.5t-73 -155.5q-116 -518 -179 -733q-69 -234 -218.5 -336.5t-401.5 -102.5q-124 0 -227.5 41t-170.5 128.5t-67 207.5q0 82 48 276.5t96 376t48 232.5q0 55 -41.5 81t-126.5 29zM1214 1460h-81l-271 191
q-63 48 -63 94q0 37 25.5 56.5t62.5 19.5q36 0 55.5 -15t46.5 -51z" />
    <glyph glyph-name="Uacute" unicode="&#xda;" horiz-adv-x="1593" 
d="M246 1393h643l-12 -54q-52 -1 -85 -8.5t-62.5 -30.5t-49 -64.5t-35.5 -109.5q-13 -56 -63.5 -247t-80.5 -329t-30 -212q0 -131 85.5 -197.5t217.5 -66.5q58 0 107.5 11.5t88 28t73.5 50.5t59 61.5t48 80t38.5 87.5t33.5 101.5t28.5 105.5t27.5 115q98 421 98 502
q0 60 -39 88t-141 34l12 54h471l-12 -54q-73 -3 -121 -44.5t-73 -155.5q-116 -518 -179 -733q-69 -234 -218.5 -336.5t-401.5 -102.5q-124 0 -227.5 41t-170.5 128.5t-67 207.5q0 82 48 276.5t96 376t48 232.5q0 55 -41.5 81t-126.5 29zM1004 1460h-91l275 289
q24 26 37 37.5t34.5 23t43.5 11.5q37 0 62.5 -22.5t25.5 -59.5q0 -51 -52 -80z" />
    <glyph glyph-name="Ucircumflex" unicode="&#xdb;" horiz-adv-x="1593" 
d="M246 1393h643l-12 -54q-52 -1 -85 -8.5t-62.5 -30.5t-49 -64.5t-35.5 -109.5q-13 -56 -63.5 -247t-80.5 -329t-30 -212q0 -131 85.5 -197.5t217.5 -66.5q58 0 107.5 11.5t88 28t73.5 50.5t59 61.5t48 80t38.5 87.5t33.5 101.5t28.5 105.5t27.5 115q98 421 98 502
q0 60 -39 88t-141 34l12 54h471l-12 -54q-73 -3 -121 -44.5t-73 -155.5q-116 -518 -179 -733q-69 -234 -218.5 -336.5t-401.5 -102.5q-124 0 -227.5 41t-170.5 128.5t-67 207.5q0 82 48 276.5t96 376t48 232.5q0 55 -41.5 81t-126.5 29zM813 1460h-102l325 361h138l180 -361
h-92l-177 213z" />
    <glyph glyph-name="Udieresis" unicode="&#xdc;" horiz-adv-x="1593" 
d="M246 1393h643l-12 -54q-52 -1 -85 -8.5t-62.5 -30.5t-49 -64.5t-35.5 -109.5q-13 -56 -63.5 -247t-80.5 -329t-30 -212q0 -131 85.5 -197.5t217.5 -66.5q58 0 107.5 11.5t88 28t73.5 50.5t59 61.5t48 80t38.5 87.5t33.5 101.5t28.5 105.5t27.5 115q98 421 98 502
q0 60 -39 88t-141 34l12 54h471l-12 -54q-73 -3 -121 -44.5t-73 -155.5q-116 -518 -179 -733q-69 -234 -218.5 -336.5t-401.5 -102.5q-124 0 -227.5 41t-170.5 128.5t-67 207.5q0 82 48 276.5t96 376t48 232.5q0 55 -41.5 81t-126.5 29zM1174 1602q0 47 34.5 81.5t81.5 34.5
t82 -34.5t35 -81.5t-35 -82t-82 -35t-81.5 35t-34.5 82zM754 1602q0 47 34.5 81.5t81.5 34.5t82 -34.5t35 -81.5t-35 -82t-82 -35t-81.5 35t-34.5 82z" />
    <glyph glyph-name="Yacute" unicode="&#xdd;" horiz-adv-x="1366" 
d="M209 1393h594l-12 -54q-90 0 -126 -15t-36 -62q0 -38 26 -103l172 -403q66 85 134 168.5t104 126t67.5 83.5t43.5 66.5t12 50.5q0 51 -42.5 69.5t-121.5 18.5l12 54h500l-12 -54q-63 -8 -128 -64.5t-143 -152.5l-395 -485q-14 -71 -41.5 -184.5t-44 -189t-16.5 -101.5
q0 -61 43.5 -85t146.5 -24l-12 -53h-676l12 53q102 3 157 46t77 134l100 435l-248 571q-26 60 -62 80t-97 20zM868 1460h-90l275 289q25 26 37 37.5t33.5 23t43.5 11.5q37 0 62.5 -22.5t25.5 -59.5q0 -52 -51 -80z" />
    <glyph glyph-name="Thorn" unicode="&#xde;" horiz-adv-x="1251" 
d="M178 195l203 878q3 16 9.5 42t8.5 38t4.5 33t2.5 43q0 33 -13.5 55t-39.5 33t-52 15.5t-63 6.5l12 54h606l-12 -54q-90 -8 -126.5 -38.5t-58.5 -129.5l-10 -45h99q189 0 304 -43.5t161.5 -121t46.5 -197.5q0 -211 -170 -313.5t-480 -102.5h-141q-33 -145 -33 -184
q0 -56 37.5 -80.5t132.5 -30.5l-12 -53h-606l12 53q82 8 121 37t57 105zM608 946l-121 -512q279 0 394.5 87t115.5 280q0 248 -286 248q-49 0 -69 -20.5t-34 -82.5z" />
    <glyph glyph-name="germandbls" unicode="&#xdf;" 
d="M371 14l32 80q48 -41 111 -41q57 0 106 74.5t77 191t28 240.5q0 103 -37 152.5t-143 56.5l10 90q35 0 67.5 10.5t65 37t56 67.5t38.5 107t15 151q0 141 -113 141q-68 0 -106.5 -47.5t-69.5 -153.5q-16 -55 -34.5 -151t-43 -238t-41.5 -229q-48 -249 -100 -428t-101 -284
t-107.5 -165t-110 -79t-117.5 -19q-88 0 -137.5 43t-49.5 100q0 54 27 86.5t78 32.5q39 0 63.5 -21.5t24.5 -56.5q0 -29 -12.5 -50t-12.5 -34q0 -22 37 -22q107 0 170 315l176 879q122 600 477 600q152 0 236 -73t84 -199q0 -76 -31 -138.5t-85 -105.5t-115 -71.5
t-134 -47.5v-4q137 -9 223 -93t86 -222q0 -91 -33 -183.5t-90 -167.5t-142.5 -122.5t-180.5 -47.5q-75 0 -141 39z" />
    <glyph glyph-name="agrave" unicode="&#xe0;" 
d="M725 899l25 88h211q-28 -113 -88 -353.5t-85.5 -348.5t-25.5 -133q0 -33 33 -33q46 0 133 121l30 -31q-146 -234 -286 -234q-115 0 -115 127q0 4 6 64h-6q-132 -191 -305 -191q-121 0 -187.5 83.5t-66.5 217.5q0 65 19 143t53 157t85 153t110 131.5t133.5 92t150.5 34.5
q105 0 176 -88zM348 102q64 0 120.5 59t93.5 145t63.5 184.5t38.5 175.5t12 120q0 123 -107 123q-66 0 -130.5 -72t-108.5 -174.5t-71.5 -210.5t-27.5 -184q0 -86 24.5 -126t92.5 -40zM823 1090h-82l-270 190q-63 48 -63 94q0 37 25.5 56.5t62.5 19.5q36 0 55.5 -15
t46.5 -51z" />
    <glyph glyph-name="aacute" unicode="&#xe1;" 
d="M725 899l25 88h211q-28 -113 -88 -353.5t-85.5 -348.5t-25.5 -133q0 -33 33 -33q46 0 133 121l30 -31q-146 -234 -286 -234q-115 0 -115 127q0 4 6 64h-6q-132 -191 -305 -191q-121 0 -187.5 83.5t-66.5 217.5q0 65 19 143t53 157t85 153t110 131.5t133.5 92t150.5 34.5
q105 0 176 -88zM348 102q64 0 120.5 59t93.5 145t63.5 184.5t38.5 175.5t12 120q0 123 -107 123q-66 0 -130.5 -72t-108.5 -174.5t-71.5 -210.5t-27.5 -184q0 -86 24.5 -126t92.5 -40zM612 1090h-90l275 288q25 26 37 37.5t33.5 23t43.5 11.5q37 0 62.5 -22.5t25.5 -59.5
q0 -52 -51 -80z" />
    <glyph glyph-name="acircumflex" unicode="&#xe2;" 
d="M725 899l25 88h211q-28 -113 -88 -353.5t-85.5 -348.5t-25.5 -133q0 -33 33 -33q46 0 133 121l30 -31q-146 -234 -286 -234q-115 0 -115 127q0 4 6 64h-6q-132 -191 -305 -191q-121 0 -187.5 83.5t-66.5 217.5q0 65 19 143t53 157t85 153t110 131.5t133.5 92t150.5 34.5
q105 0 176 -88zM348 102q64 0 120.5 59t93.5 145t63.5 184.5t38.5 175.5t12 120q0 123 -107 123q-66 0 -130.5 -72t-108.5 -174.5t-71.5 -210.5t-27.5 -184q0 -86 24.5 -126t92.5 -40zM422 1090h-103l326 360h137l181 -360h-93l-176 213z" />
    <glyph glyph-name="atilde" unicode="&#xe3;" 
d="M725 899l25 88h211q-28 -113 -88 -353.5t-85.5 -348.5t-25.5 -133q0 -33 33 -33q46 0 133 121l30 -31q-146 -234 -286 -234q-115 0 -115 127q0 4 6 64h-6q-132 -191 -305 -191q-121 0 -187.5 83.5t-66.5 217.5q0 65 19 143t53 157t85 153t110 131.5t133.5 92t150.5 34.5
q105 0 176 -88zM348 102q64 0 120.5 59t93.5 145t63.5 184.5t38.5 175.5t12 120q0 123 -107 123q-66 0 -130.5 -72t-108.5 -174.5t-71.5 -210.5t-27.5 -184q0 -86 24.5 -126t92.5 -40zM975 1368h72q-19 -103 -76 -166t-156 -63q-55 0 -155 43t-140 43q-45 0 -66 -20t-40 -70
h-76q26 99 83 166t140 67q58 0 169 -44t134 -44q24 0 41 6t30.5 21.5t20 26t19.5 34.5z" />
    <glyph glyph-name="adieresis" unicode="&#xe4;" 
d="M725 899l25 88h211q-28 -113 -88 -353.5t-85.5 -348.5t-25.5 -133q0 -33 33 -33q46 0 133 121l30 -31q-146 -234 -286 -234q-115 0 -115 127q0 4 6 64h-6q-132 -191 -305 -191q-121 0 -187.5 83.5t-66.5 217.5q0 65 19 143t53 157t85 153t110 131.5t133.5 92t150.5 34.5
q105 0 176 -88zM348 102q64 0 120.5 59t93.5 145t63.5 184.5t38.5 175.5t12 120q0 123 -107 123q-66 0 -130.5 -72t-108.5 -174.5t-71.5 -210.5t-27.5 -184q0 -86 24.5 -126t92.5 -40zM782 1231q0 47 35 82t82 35t82 -35t35 -82t-35 -82t-82 -35t-82 35t-35 82zM362 1231
q0 47 35 82t82 35t82 -35t35 -82t-35 -82t-82 -35t-82 35t-35 82z" />
    <glyph glyph-name="aring" unicode="&#xe5;" 
d="M725 899l25 88h211q-28 -113 -88 -353.5t-85.5 -348.5t-25.5 -133q0 -33 33 -33q46 0 133 121l30 -31q-146 -234 -286 -234q-115 0 -115 127q0 4 6 64h-6q-132 -191 -305 -191q-121 0 -187.5 83.5t-66.5 217.5q0 65 19 143t53 157t85 153t110 131.5t133.5 92t150.5 34.5
q105 0 176 -88zM348 102q64 0 120.5 59t93.5 145t63.5 184.5t38.5 175.5t12 120q0 123 -107 123q-66 0 -130.5 -72t-108.5 -174.5t-71.5 -210.5t-27.5 -184q0 -86 24.5 -126t92.5 -40zM479 1300q0 88 61.5 149.5t149.5 61.5t149.5 -61.5t61.5 -149.5t-61.5 -149t-149.5 -61
t-149.5 61t-61.5 149zM569 1300q0 -51 35 -85.5t86 -34.5t86 34.5t35 85.5t-35 86t-86 35t-86 -35t-35 -86z" />
    <glyph glyph-name="ae" unicode="&#xe6;" horiz-adv-x="1593" 
d="M1358 250l47 -51q-79 -94 -194.5 -159t-245.5 -65q-43 0 -80 8t-63 18.5t-48.5 31t-36 36t-27.5 42.5t-20 42t-16 42q-51 -69 -95 -112.5t-109.5 -75.5t-139.5 -32q-121 0 -187.5 83.5t-66.5 217.5q0 65 19 143t53 157t85 153t110 131.5t133.5 92t150.5 34.5
q132 0 200 -106l39 106h183l-39 -143l4 -4q136 147 297 147q95 0 156 -46t61 -134q0 -273 -613 -416q-10 -62 -10 -108q0 -87 44 -136t130 -49q61 0 135.5 37.5t143.5 114.5zM782 772q0 57 -31.5 97t-82.5 40q-57 0 -123 -73t-117 -175t-85 -215t-34 -190q0 -80 25.5 -117
t91.5 -37q56 0 108 41t89.5 106t68.5 142.5t50 153.5t29.5 135.5t10.5 91.5zM1243 909q-59 0 -115.5 -49.5t-96 -123t-65.5 -143.5t-36 -124q47 15 94.5 35.5t104 54t99 71t71 88t28.5 103.5q0 38 -22.5 63t-61.5 25z" />
    <glyph glyph-name="ccedilla" unicode="&#xe7;" horiz-adv-x="909" 
d="M741 233l47 -47q-99 -99 -187 -152t-208 -57l-74 -104q28 4 52 4q68 0 123 -37t55 -104q0 -48 -25 -85t-65 -57t-83.5 -30t-88.5 -10q-88 0 -197 51l37 63q6 -2 32.5 -12t37 -13.5t30.5 -7.5t37 -4q60 0 86.5 26t26.5 64q0 34 -24.5 56t-59.5 22q-42 0 -74 -14l-22 25
l112 172q-131 15 -196.5 105t-65.5 241q0 115 46.5 232.5t124.5 212t191 154.5t236 60q64 0 119.5 -21t93 -67t37.5 -108q0 -52 -33.5 -84.5t-87.5 -32.5q-55 0 -83.5 26t-28.5 72q0 26 12 46t23.5 33.5t11.5 22.5q0 20 -20 32t-50 12q-64 0 -122.5 -41.5t-100 -106.5
t-73 -143.5t-47 -154.5t-15.5 -136q0 -254 182 -254q67 0 131 37t147 114z" />
    <glyph glyph-name="egrave" unicode="&#xe8;" horiz-adv-x="909" 
d="M727 250l47 -51q-79 -94 -194.5 -159t-245.5 -65q-135 0 -214 83t-79 231q0 126 51 253t134 224.5t196 159t229 61.5q114 0 180 -45.5t66 -134.5q0 -273 -612 -416q-11 -68 -11 -108q0 -87 44.5 -136t130.5 -49q61 0 135 37.5t143 114.5zM612 909q-59 0 -115.5 -49.5
t-96 -123t-65.5 -143.5t-36 -124q47 15 94.5 35.5t104 54t99 71t71 88t28.5 103.5q0 38 -22.5 63t-61.5 25zM813 1090h-82l-270 190q-64 48 -64 94q0 37 25.5 56.5t62.5 19.5q36 0 56.5 -15t46.5 -51z" />
    <glyph glyph-name="eacute" unicode="&#xe9;" horiz-adv-x="909" 
d="M727 250l47 -51q-79 -94 -194.5 -159t-245.5 -65q-135 0 -214 83t-79 231q0 126 51 253t134 224.5t196 159t229 61.5q114 0 180 -45.5t66 -134.5q0 -273 -612 -416q-11 -68 -11 -108q0 -87 44.5 -136t130.5 -49q61 0 135 37.5t143 114.5zM612 909q-59 0 -115.5 -49.5
t-96 -123t-65.5 -143.5t-36 -124q47 15 94.5 35.5t104 54t99 71t71 88t28.5 103.5q0 38 -22.5 63t-61.5 25zM602 1090h-90l274 288q24 26 37 37.5t34.5 23t43.5 11.5q37 0 62.5 -22.5t25.5 -59.5q0 -52 -51 -80z" />
    <glyph glyph-name="ecircumflex" unicode="&#xea;" horiz-adv-x="909" 
d="M727 250l47 -51q-79 -94 -194.5 -159t-245.5 -65q-135 0 -214 83t-79 231q0 126 51 253t134 224.5t196 159t229 61.5q114 0 180 -45.5t66 -134.5q0 -273 -612 -416q-11 -68 -11 -108q0 -87 44.5 -136t130.5 -49q61 0 135 37.5t143 114.5zM612 909q-59 0 -115.5 -49.5
t-96 -123t-65.5 -143.5t-36 -124q47 15 94.5 35.5t104 54t99 71t71 88t28.5 103.5q0 38 -22.5 63t-61.5 25zM412 1090h-103l326 360h137l180 -360h-92l-176 213z" />
    <glyph glyph-name="edieresis" unicode="&#xeb;" horiz-adv-x="909" 
d="M727 250l47 -51q-79 -94 -194.5 -159t-245.5 -65q-135 0 -214 83t-79 231q0 126 51 253t134 224.5t196 159t229 61.5q114 0 180 -45.5t66 -134.5q0 -273 -612 -416q-11 -68 -11 -108q0 -87 44.5 -136t130.5 -49q61 0 135 37.5t143 114.5zM612 909q-59 0 -115.5 -49.5
t-96 -123t-65.5 -143.5t-36 -124q47 15 94.5 35.5t104 54t99 71t71 88t28.5 103.5q0 38 -22.5 63t-61.5 25zM772 1231q0 47 35 82t82 35t82 -35t35 -82t-35 -82t-82 -35t-82 35t-35 82zM352 1231q0 47 35 82t82 35t82 -35t35 -82t-35 -82t-82 -35t-82 35t-35 82z" />
    <glyph glyph-name="igrave" unicode="&#xec;" horiz-adv-x="569" 
d="M109 891l10 45q73 8 160.5 21.5t140 21.5t63.5 8q25 0 25 -14q0 -3 -21 -78q-1 -3 -53 -182.5t-95.5 -345t-43.5 -205.5q0 -25 8.5 -34t26.5 -9q10 0 21.5 5t20.5 11.5t20 18.5t18 21t17 23.5t14.5 21.5t12.5 21t9 15l39 -23q-16 -31 -29 -54t-44.5 -65t-62.5 -69
t-78.5 -48.5t-97.5 -21.5q-60 0 -94.5 33.5t-34.5 91.5q0 68 87.5 390t87.5 335q0 38 -28.5 51t-98.5 15zM571 1090h-82l-270 190q-63 48 -63 94q0 37 25.5 56.5t62.5 19.5q36 0 55.5 -15t46.5 -51z" />
    <glyph glyph-name="iacute" unicode="&#xed;" horiz-adv-x="569" 
d="M109 891l10 45q73 8 160.5 21.5t140 21.5t63.5 8q25 0 25 -14q0 -3 -21 -78q-1 -3 -53 -182.5t-95.5 -345t-43.5 -205.5q0 -25 8.5 -34t26.5 -9q10 0 21.5 5t20.5 11.5t20 18.5t18 21t17 23.5t14.5 21.5t12.5 21t9 15l39 -23q-16 -31 -29 -54t-44.5 -65t-62.5 -69
t-78.5 -48.5t-97.5 -21.5q-60 0 -94.5 33.5t-34.5 91.5q0 68 87.5 390t87.5 335q0 38 -28.5 51t-98.5 15zM360 1090h-90l275 288q25 26 37 37.5t33.5 23t43.5 11.5q37 0 63 -22.5t26 -59.5q0 -51 -52 -80z" />
    <glyph glyph-name="icircumflex" unicode="&#xee;" horiz-adv-x="569" 
d="M109 891l10 45q73 8 160.5 21.5t140 21.5t63.5 8q25 0 25 -14q0 -3 -21 -78q-1 -3 -53 -182.5t-95.5 -345t-43.5 -205.5q0 -25 8.5 -34t26.5 -9q10 0 21.5 5t20.5 11.5t20 18.5t18 21t17 23.5t14.5 21.5t12.5 21t9 15l39 -23q-16 -31 -29 -54t-44.5 -65t-62.5 -69
t-78.5 -48.5t-97.5 -21.5q-60 0 -94.5 33.5t-34.5 91.5q0 68 87.5 390t87.5 335q0 38 -28.5 51t-98.5 15zM170 1090h-102l325 360h137l181 -360h-93l-176 213z" />
    <glyph glyph-name="idieresis" unicode="&#xef;" horiz-adv-x="569" 
d="M109 891l10 45q73 8 160.5 21.5t140 21.5t63.5 8q25 0 25 -14q0 -3 -21 -78q-1 -3 -53 -182.5t-95.5 -345t-43.5 -205.5q0 -25 8.5 -34t26.5 -9q10 0 21.5 5t20.5 11.5t20 18.5t18 21t17 23.5t14.5 21.5t12.5 21t9 15l39 -23q-16 -31 -29 -54t-44.5 -65t-62.5 -69
t-78.5 -48.5t-97.5 -21.5q-60 0 -94.5 33.5t-34.5 91.5q0 68 87.5 390t87.5 335q0 38 -28.5 51t-98.5 15zM530 1231q0 47 35 82t82 35t82 -35t35 -82t-35 -82t-82 -35t-82 35t-35 82zM111 1231q0 47 34.5 82t81.5 35t82 -35t35 -82t-35 -82t-82 -35t-81.5 35t-34.5 82z" />
    <glyph glyph-name="eth" unicode="&#xf0;" 
d="M412 53q70 0 129 55.5t95 135.5t61.5 172.5t35.5 161t10 106.5q0 95 -40.5 139.5t-104.5 44.5q-57 0 -107 -39t-85 -101t-63 -135t-44 -145t-24.5 -126.5t-8.5 -83.5q0 -185 146 -185zM358 1128l226 132q-87 90 -240 129l25 61q178 -30 311 -133l227 133l54 -70
l-211 -123q74 -75 119.5 -151.5t72.5 -191t27 -267.5q0 -126 -44 -248t-118 -215.5t-177.5 -151t-215.5 -57.5q-72 0 -136.5 22.5t-118.5 67t-86 121.5t-32 176q0 94 44.5 197.5t117.5 189t177.5 141.5t215.5 56q90 0 145 -37q-6 87 -35 162.5t-69 120.5l-225 -133z" />
    <glyph glyph-name="ntilde" unicode="&#xf1;" horiz-adv-x="1138" 
d="M115 889l6 45q108 13 190.5 27t115.5 20t46 6q7 0 15 -4.5t8 -11.5q0 -8 -7.5 -49t-18.5 -94.5t-13 -65.5h4q179 225 354 225q91 0 148 -46t57 -136q0 -61 -38.5 -209.5t-77 -281t-38.5 -154.5q0 -19 10.5 -30t24.5 -11q42 0 129 121l41 -29q-31 -47 -60 -82t-69.5 -73.5
t-88 -59.5t-97.5 -21q-54 0 -88.5 35t-34.5 90q0 70 80.5 356t81.5 326q0 70 -84 70q-32 0 -76 -26t-92 -75t-92 -137.5t-68 -197.5l-92 -416h-234l156 678q27 122 27 156q0 35 -26 45t-99 10zM997 1368h72q-19 -103 -75.5 -166t-155.5 -63q-54 0 -155 43t-140 43
q-45 0 -66.5 -20.5t-40.5 -69.5h-76q26 99 83.5 166t140.5 67q58 0 169 -44t134 -44q24 0 41 6t30.5 22t19 25t19.5 35z" />
    <glyph glyph-name="ograve" unicode="&#xf2;" 
d="M266 236q0 -183 146 -183q70 0 129 56t95 137.5t61.5 177.5t35.5 172.5t10 126.5q0 91 -40.5 138.5t-104.5 47.5q-68 0 -126 -56t-95 -138.5t-63 -178.5t-37 -173.5t-11 -126.5zM969 598q0 -86 -28 -176t-79.5 -169.5t-119 -142t-153.5 -99t-175 -36.5q-72 0 -136.5 22.5
t-118.5 67t-86 120.5t-32 175q0 148 73.5 292t203.5 239.5t278 95.5q72 0 136.5 -22t118.5 -67t86 -122t32 -178zM823 1090h-82l-270 190q-63 48 -63 94q0 37 25.5 56.5t62.5 19.5q36 0 55.5 -15t46.5 -51z" />
    <glyph glyph-name="oacute" unicode="&#xf3;" 
d="M266 236q0 -183 146 -183q70 0 129 56t95 137.5t61.5 177.5t35.5 172.5t10 126.5q0 91 -40.5 138.5t-104.5 47.5q-68 0 -126 -56t-95 -138.5t-63 -178.5t-37 -173.5t-11 -126.5zM969 598q0 -86 -28 -176t-79.5 -169.5t-119 -142t-153.5 -99t-175 -36.5q-72 0 -136.5 22.5
t-118.5 67t-86 120.5t-32 175q0 148 73.5 292t203.5 239.5t278 95.5q72 0 136.5 -22t118.5 -67t86 -122t32 -178zM612 1090h-90l275 288q25 26 37 37.5t33.5 23t43.5 11.5q37 0 62.5 -22.5t25.5 -59.5q0 -52 -51 -80z" />
    <glyph glyph-name="ocircumflex" unicode="&#xf4;" 
d="M266 236q0 -183 146 -183q70 0 129 56t95 137.5t61.5 177.5t35.5 172.5t10 126.5q0 91 -40.5 138.5t-104.5 47.5q-68 0 -126 -56t-95 -138.5t-63 -178.5t-37 -173.5t-11 -126.5zM969 598q0 -86 -28 -176t-79.5 -169.5t-119 -142t-153.5 -99t-175 -36.5q-72 0 -136.5 22.5
t-118.5 67t-86 120.5t-32 175q0 148 73.5 292t203.5 239.5t278 95.5q72 0 136.5 -22t118.5 -67t86 -122t32 -178zM422 1090h-103l326 360h137l181 -360h-93l-176 213z" />
    <glyph glyph-name="otilde" unicode="&#xf5;" 
d="M266 236q0 -183 146 -183q70 0 129 56t95 137.5t61.5 177.5t35.5 172.5t10 126.5q0 91 -40.5 138.5t-104.5 47.5q-68 0 -126 -56t-95 -138.5t-63 -178.5t-37 -173.5t-11 -126.5zM969 598q0 -86 -28 -176t-79.5 -169.5t-119 -142t-153.5 -99t-175 -36.5q-72 0 -136.5 22.5
t-118.5 67t-86 120.5t-32 175q0 148 73.5 292t203.5 239.5t278 95.5q72 0 136.5 -22t118.5 -67t86 -122t32 -178zM975 1368h72q-19 -103 -76 -166t-156 -63q-55 0 -155 43t-140 43q-45 0 -66 -20t-40 -70h-76q26 99 83 166t140 67q58 0 169 -44t134 -44q24 0 41 6t30.5 21.5
t20 26t19.5 34.5z" />
    <glyph glyph-name="odieresis" unicode="&#xf6;" 
d="M266 236q0 -183 146 -183q70 0 129 56t95 137.5t61.5 177.5t35.5 172.5t10 126.5q0 91 -40.5 138.5t-104.5 47.5q-68 0 -126 -56t-95 -138.5t-63 -178.5t-37 -173.5t-11 -126.5zM969 598q0 -86 -28 -176t-79.5 -169.5t-119 -142t-153.5 -99t-175 -36.5q-72 0 -136.5 22.5
t-118.5 67t-86 120.5t-32 175q0 148 73.5 292t203.5 239.5t278 95.5q72 0 136.5 -22t118.5 -67t86 -122t32 -178zM782 1231q0 47 35 82t82 35t82 -35t35 -82t-35 -82t-82 -35t-82 35t-35 82zM362 1231q0 47 35 82t82 35t82 -35t35 -82t-35 -82t-82 -35t-82 35t-35 82z" />
    <glyph glyph-name="divide" unicode="&#xf7;" horiz-adv-x="1228" 
d="M1096 397h-963v168h963v-168zM467 874q0 60 42.5 103t102.5 43t103 -43t43 -103t-43 -102.5t-103 -42.5t-102.5 42.5t-42.5 102.5zM467 88q0 60 42.5 102.5t102.5 42.5t103 -42.5t43 -102.5t-43 -102.5t-103 -42.5t-102.5 42.5t-42.5 102.5z" />
    <glyph glyph-name="oslash" unicode="&#xf8;" 
d="M281 141l411 729q-36 39 -94 39q-68 0 -126 -56t-95 -138.5t-63 -178.5t-37 -173.5t-11 -126.5q0 -54 15 -95zM862 1171h88l-139 -245q158 -101 158 -328q0 -86 -28 -176t-79.5 -169.5t-119 -142t-153.5 -99t-175 -36.5q-66 0 -133 23l-136 -238h-82l152 265
q-174 99 -174 335q0 148 73.5 292t203.5 239.5t278 95.5q79 0 147 -26zM735 793l-409 -717q33 -23 86 -23q70 0 129 56t95 137.5t61.5 177.5t35.5 172.5t10 126.5q0 43 -8 70z" />
    <glyph glyph-name="ugrave" unicode="&#xf9;" horiz-adv-x="1138" 
d="M842 963h225q-29 -110 -59.5 -226.5t-48.5 -184t-36.5 -138t-27.5 -107.5t-17 -71.5t-11 -51.5t-3 -28q0 -15 10 -26t23 -11q18 0 42.5 19.5t41.5 39.5t49 62l37 -31q-70 -97 -113 -139q-98 -95 -196 -95q-119 0 -119 121q0 49 10 97l-4 4q-188 -222 -379 -222
q-83 0 -129.5 41.5t-46.5 118.5q0 74 75 356.5t75 342.5q0 35 -26 45t-99 10l6 45q110 13 196.5 27t122.5 20t56 6q14 0 14 -16q0 -14 -97.5 -385.5t-97.5 -413.5q0 -61 72 -61q60 0 129.5 56t121.5 135.5t71 152.5zM846 1090h-82l-270 190q-64 48 -64 94q0 37 25.5 56.5
t62.5 19.5q36 0 56.5 -15t46.5 -51z" />
    <glyph glyph-name="uacute" unicode="&#xfa;" horiz-adv-x="1138" 
d="M842 963h225q-29 -110 -59.5 -226.5t-48.5 -184t-36.5 -138t-27.5 -107.5t-17 -71.5t-11 -51.5t-3 -28q0 -15 10 -26t23 -11q18 0 42.5 19.5t41.5 39.5t49 62l37 -31q-70 -97 -113 -139q-98 -95 -196 -95q-119 0 -119 121q0 49 10 97l-4 4q-188 -222 -379 -222
q-83 0 -129.5 41.5t-46.5 118.5q0 74 75 356.5t75 342.5q0 35 -26 45t-99 10l6 45q110 13 196.5 27t122.5 20t56 6q14 0 14 -16q0 -14 -97.5 -385.5t-97.5 -413.5q0 -61 72 -61q60 0 129.5 56t121.5 135.5t71 152.5zM635 1090h-90l274 288q24 26 37 37.5t34.5 23t43.5 11.5
q37 0 62.5 -22.5t25.5 -59.5q0 -52 -51 -80z" />
    <glyph glyph-name="ucircumflex" unicode="&#xfb;" horiz-adv-x="1138" 
d="M842 963h225q-29 -110 -59.5 -226.5t-48.5 -184t-36.5 -138t-27.5 -107.5t-17 -71.5t-11 -51.5t-3 -28q0 -15 10 -26t23 -11q18 0 42.5 19.5t41.5 39.5t49 62l37 -31q-70 -97 -113 -139q-98 -95 -196 -95q-119 0 -119 121q0 49 10 97l-4 4q-188 -222 -379 -222
q-83 0 -129.5 41.5t-46.5 118.5q0 74 75 356.5t75 342.5q0 35 -26 45t-99 10l6 45q110 13 196.5 27t122.5 20t56 6q14 0 14 -16q0 -14 -97.5 -385.5t-97.5 -413.5q0 -61 72 -61q60 0 129.5 56t121.5 135.5t71 152.5zM444 1090h-102l326 360h137l180 -360h-92l-176 213z" />
    <glyph glyph-name="udieresis" unicode="&#xfc;" horiz-adv-x="1138" 
d="M842 963h225q-29 -110 -59.5 -226.5t-48.5 -184t-36.5 -138t-27.5 -107.5t-17 -71.5t-11 -51.5t-3 -28q0 -15 10 -26t23 -11q18 0 42.5 19.5t41.5 39.5t49 62l37 -31q-70 -97 -113 -139q-98 -95 -196 -95q-119 0 -119 121q0 49 10 97l-4 4q-188 -222 -379 -222
q-83 0 -129.5 41.5t-46.5 118.5q0 74 75 356.5t75 342.5q0 35 -26 45t-99 10l6 45q110 13 196.5 27t122.5 20t56 6q14 0 14 -16q0 -14 -97.5 -385.5t-97.5 -413.5q0 -61 72 -61q60 0 129.5 56t121.5 135.5t71 152.5zM805 1231q0 47 35 82t82 35t81.5 -35t34.5 -82t-34.5 -82
t-81.5 -35t-82 35t-35 82zM385 1231q0 47 35 82t82 35t81.5 -35t34.5 -82t-34.5 -82t-81.5 -35t-82 35t-35 82z" />
    <glyph glyph-name="yacute" unicode="&#xfd;" horiz-adv-x="909" 
d="M100 905l9 45q208 37 268 37q22 0 31 -39q64 -279 106 -735h4q52 85 80.5 134t72 128.5t64.5 135.5t21 91q0 26 -16.5 43.5t-36 27t-36 35.5t-16.5 66q0 47 36.5 80t88.5 33q56 0 91.5 -36.5t35.5 -100.5q0 -102 -101 -304t-226 -390.5t-244 -339.5q-186 -238 -352 -238
q-62 0 -93.5 31.5t-31.5 83.5q0 45 28.5 73.5t73.5 28.5q31 0 53.5 -9.5t33 -21t26 -21t34.5 -9.5q48 0 112.5 76.5t94.5 134.5q6 27 6 61q0 101 -45.5 440t-76.5 410q-12 28 -35.5 37.5t-59.5 11.5zM555 1090h-90l274 288q24 26 37 37.5t34.5 23t43.5 11.5q37 0 62.5 -22.5
t25.5 -59.5q0 -52 -51 -80z" />
    <glyph glyph-name="thorn" unicode="&#xfe;" 
d="M221 1366l8 45q32 3 119 13t158 18t84 8q16 0 16 -14q0 -4 -2.5 -15.5t-7 -28.5t-6.5 -28l-131 -522l4 -4q128 149 280 149q118 0 187 -78t69 -225q0 -76 -26.5 -170.5t-76.5 -188.5t-113.5 -173t-146.5 -128t-167 -49q-125 0 -172 95h-4q-14 -75 -32.5 -159.5
t-28 -130.5t-9.5 -71q0 -45 33.5 -64t103.5 -22l-8 -45h-524l8 45q76 8 110 39t56 129q75 335 167 729.5t132.5 572t40.5 207.5q0 40 -26.5 52t-94.5 14zM328 203q0 -137 110 -137q81 0 159.5 119t123.5 272t45 270q0 61 -28 99t-85 38q-59 0 -113 -48t-91.5 -123
t-65.5 -164.5t-41.5 -174t-13.5 -151.5z" />
    <glyph glyph-name="ydieresis" unicode="&#xff;" horiz-adv-x="909" 
d="M100 905l9 45q208 37 268 37q22 0 31 -39q64 -279 106 -735h4q52 85 80.5 134t72 128.5t64.5 135.5t21 91q0 26 -16.5 43.5t-36 27t-36 35.5t-16.5 66q0 47 36.5 80t88.5 33q56 0 91.5 -36.5t35.5 -100.5q0 -102 -101 -304t-226 -390.5t-244 -339.5q-186 -238 -352 -238
q-62 0 -93.5 31.5t-31.5 83.5q0 45 28.5 73.5t73.5 28.5q31 0 53.5 -9.5t33 -21t26 -21t34.5 -9.5q48 0 112.5 76.5t94.5 134.5q6 27 6 61q0 101 -45.5 440t-76.5 410q-12 28 -35.5 37.5t-59.5 11.5zM725 1231q0 47 35 82t82 35t81.5 -35t34.5 -82t-34.5 -82t-81.5 -35
t-82 35t-35 82zM305 1231q0 47 35 82t82 35t82 -35t35 -82t-35 -82t-82 -35t-82 35t-35 82z" />
    <glyph glyph-name="dotlessi" unicode="&#x131;" horiz-adv-x="569" 
d="M109 891l10 45q73 8 160.5 21.5t140 21.5t63.5 8q25 0 25 -14q0 -3 -21 -78q-1 -3 -53 -182.5t-95.5 -345t-43.5 -205.5q0 -25 8.5 -34t26.5 -9q10 0 21.5 5t20.5 11.5t20 18.5t18 21t17 23.5t14.5 21.5t12.5 21t9 15l39 -23q-16 -31 -29 -54t-44.5 -65t-62.5 -69
t-78.5 -48.5t-97.5 -21.5q-60 0 -94.5 33.5t-34.5 91.5q0 68 87.5 390t87.5 335q0 38 -28.5 51t-98.5 15z" />
    <glyph glyph-name="Lslash" unicode="&#x141;" horiz-adv-x="1251" 
d="M-4 510v106l289 86l84 371q3 13 9.5 41.5t8.5 39.5t4 31.5t2 43.5q0 33 -13 55t-38.5 33t-50 15.5t-58.5 6.5l13 54h626l-12 -54q-75 -5 -112 -18t-60 -46.5t-39 -103.5q-65 -291 -90 -387l367 111v-107l-394 -118q-91 -372 -101 -435q-5 -33 -5 -55q0 -55 38.5 -74.5
t160.5 -19.5q158 0 257 27t164 83.5t130 163.5h65l-106 -360h-1147l12 53q74 8 112 37.5t56 104.5l90 393z" />
    <glyph glyph-name="lslash" unicode="&#x142;" horiz-adv-x="569" 
d="M698 1024v-100l-254 -119q-16 -62 -37 -145.5t-34 -134.5t-28.5 -113.5t-24.5 -100t-17.5 -73.5t-12 -56t-3.5 -28q0 -16 9 -25.5t26 -9.5q14 0 27.5 5.5t26.5 17t22.5 21.5t21.5 27t17.5 25.5t15.5 25t10 17.5l39 -25q-129 -258 -312 -258q-66 0 -101.5 31t-35.5 88
q0 93 131 590l-221 -104v100l250 117q13 50 36 140.5t34.5 135.5t25.5 101.5t19.5 85.5t5.5 40q0 40 -26.5 52t-94.5 14l8 45q32 3 119 13t158 18t84 8q16 0 16 -18q0 -3 -33 -142q-70 -290 -92 -372z" />
    <glyph glyph-name="OE" unicode="&#x152;" horiz-adv-x="1933" 
d="M2017 1393l-55 -359h-61q-5 59 -13 99t-24.5 72.5t-39.5 50.5t-62 30.5t-87 16.5t-119 4q-69 0 -104 -10t-50 -31t-26 -66l-104 -422q74 0 126 3.5t92 14t64.5 23t45.5 37.5t34 50t29 67h63l-122 -527h-54q0 46 -1 74.5t-6.5 56.5t-11.5 42.5t-23 28.5t-34 19.5t-50 10
t-66 5.5t-88 1h-19q-12 -55 -42.5 -175t-48 -203t-17.5 -126q0 -53 27.5 -73.5t97.5 -20.5q158 0 257 27t164 83.5t130 163.5h65l-106 -360h-752q-104 0 -272 -14q-18 -2 -85.5 -10.5t-107.5 -8.5q-88 0 -162 18.5t-126.5 49t-94 73.5t-66.5 89t-41.5 99t-23 99.5t-6.5 93.5
q0 187 67.5 359t183 299t278 202.5t343.5 75.5q101 0 199 -16q101 -16 211 -16h694zM932 401l149 646q23 98 23 133q0 83 -43.5 121t-130.5 38q-108 0 -203 -49.5t-161.5 -131t-118.5 -181t-82.5 -205.5t-46 -198t-15.5 -164q0 -77 16 -140t50 -112.5t91 -77t134 -27.5
q120 0 209 86.5t129 261.5z" />
    <glyph glyph-name="oe" unicode="&#x153;" horiz-adv-x="1593" 
d="M1378 250l47 -51q-79 -94 -194.5 -159t-245.5 -65q-90 0 -143 35.5t-88 104.5q-53 -69 -139 -104.5t-183 -35.5q-72 0 -136.5 22.5t-118.5 67t-86 120.5t-32 175q0 148 73.5 292t203.5 239.5t278 95.5q71 0 129.5 -13t100.5 -37t63 -40.5t47 -40.5q161 131 349 131
q114 0 179.5 -45t65.5 -135q0 -273 -612 -416q-10 -62 -10 -108q0 -87 44 -136t130 -49q61 0 135 37.5t143 114.5zM285 236q0 -183 145 -183q70 0 129 56t95.5 137.5t62 177.5t35.5 172.5t10 126.5q0 91 -41 138.5t-105 47.5q-68 0 -126 -56t-94.5 -138.5t-62.5 -178.5
t-37 -173.5t-11 -126.5zM1264 909q-48 0 -95 -33.5t-82 -84t-64.5 -112t-47.5 -115t-25 -95.5q61 20 121.5 49t127 73t108 104t41.5 126q0 38 -22.5 63t-61.5 25z" />
    <glyph glyph-name="Scaron" unicode="&#x160;" horiz-adv-x="1138" 
d="M1090 1425h67l-74 -417h-57q-20 157 -94 244t-225 87q-107 0 -177.5 -51.5t-64.5 -144.5q0 -53 30.5 -103t79.5 -92t108 -85.5t118.5 -92.5t108.5 -103t79.5 -127t30.5 -155q0 -133 -65 -229.5t-170.5 -142.5t-237.5 -46q-72 0 -149 19.5t-133 39t-77 19.5
q-33 0 -49 -18.5t-28 -57.5h-66l72 445h61q3 -94 42.5 -175t114.5 -133.5t171 -52.5q139 0 214 73t75 169q0 67 -30.5 127t-79.5 106.5t-108 91t-118.5 91t-108.5 96t-79.5 116t-30.5 142.5q0 87 35 157t94.5 113.5t135 66.5t159.5 23q88 0 158.5 -17.5t113.5 -34.5t65 -17
q38 0 56 17t33 52zM1096 1821h102l-326 -361h-137l-180 361h92l176 -213z" />
    <glyph glyph-name="scaron" unicode="&#x161;" horiz-adv-x="796" 
d="M35 299h57q16 -104 79.5 -179t152.5 -75q66 0 105.5 30.5t39.5 94.5q0 41 -25 86t-62 83.5t-81 85.5t-81 90.5t-62 100t-25 113.5q0 116 84.5 187t202.5 71q57 0 105 -13.5t82 -26.5t57 -13q15 0 24.5 9t12 16.5t6.5 27.5h55l-43 -311h-60q-18 111 -71 176.5t-144 65.5
q-52 0 -83 -31.5t-31 -79.5q0 -37 34.5 -85.5t84 -98.5t99 -104.5t84 -121t34.5 -131.5q0 -139 -91.5 -215t-234.5 -76q-51 -3 -100.5 9.5t-87 26.5t-56.5 14q-24 0 -37.5 -11.5t-17.5 -46.5h-53zM842 1450h102l-326 -360h-137l-180 360h92l176 -213z" />
    <glyph glyph-name="Ydieresis" unicode="&#x178;" horiz-adv-x="1366" 
d="M209 1393h594l-12 -54q-90 0 -126 -15t-36 -62q0 -38 26 -103l172 -403q66 85 134 168.5t104 126t67.5 83.5t43.5 66.5t12 50.5q0 51 -42.5 69.5t-121.5 18.5l12 54h500l-12 -54q-63 -8 -128 -64.5t-143 -152.5l-395 -485q-14 -71 -41.5 -184.5t-44 -189t-16.5 -101.5
q0 -61 43.5 -85t146.5 -24l-12 -53h-676l12 53q102 3 157 46t77 134l100 435l-248 571q-26 60 -62 80t-97 20zM1038 1602q0 47 35 81.5t82 34.5t82 -34.5t35 -81.5t-35 -82t-82 -35t-82 35t-35 82zM618 1602q0 47 35 81.5t82 34.5t82 -34.5t35 -81.5t-35 -82t-82 -35t-82 35
t-35 82z" />
    <glyph glyph-name="Zcaron" unicode="&#x17d;" horiz-adv-x="1251" 
d="M1087 0h-1118l15 66l1011 1241h-254q-216 0 -316.5 -51t-184.5 -207h-62l103 344h1050l-18 -78l-1000 -1229h273q155 0 258.5 29t169 87t114.5 158h64zM1153 1821h102l-325 -361h-137l-181 361h93l176 -213z" />
    <glyph glyph-name="zcaron" unicode="&#x17e;" horiz-adv-x="909" 
d="M211 664h-59l100 299h610v-33l-604 -719q65 -9 113.5 -33.5t74 -55t47 -64t35.5 -61t36.5 -45.5t51.5 -18q33 0 33 35q0 11 -11.5 23.5t-22.5 29.5t-11 41q0 40 26.5 62t63.5 22q42 0 70.5 -29t28.5 -75q0 -80 -57 -127t-140 -47q-60 0 -132 28t-125.5 62t-106 62
t-78.5 28q-49 0 -123 -74l-39 37l651 774h-256q-82 0 -117.5 -24.5t-58.5 -97.5zM897 1450h102l-325 -360h-137l-181 360h93l176 -213z" />
    <glyph glyph-name="florin" unicode="&#x192;" 
d="M184 819l15 99h225q17 72 43 141.5t68 141.5t92 126t119.5 88.5t146.5 34.5q94 0 156.5 -48t62.5 -126q0 -58 -33.5 -89.5t-91.5 -31.5q-46 0 -77 28t-31 70q0 29 12.5 49.5t25.5 34t13 23.5q0 29 -45 29q-39 0 -72.5 -34.5t-56 -83.5t-41.5 -116.5t-29 -119t-20 -104.5
q-1 -9 -2 -13h233l-12 -99h-238l-112 -631q-23 -128 -63 -232.5t-88 -173.5t-104.5 -116t-112.5 -67.5t-112 -20.5q-94 0 -155.5 53t-61.5 123q0 53 34.5 88t90.5 35q50 0 79.5 -31t29.5 -71q0 -21 -7 -38t-15.5 -25.5t-15.5 -18t-7 -17.5q0 -28 36 -28q28 0 52.5 15t44 45
t35 62.5t30 79.5t23.5 82.5t20 85.5q20 91 42.5 222.5t50.5 305t45 273.5h-222z" />
    <glyph glyph-name="circumflex" unicode="&#x2c6;" horiz-adv-x="569" 
d="M195 1090h-103l326 360h137l180 -360h-92l-176 213z" />
    <glyph glyph-name="caron" unicode="&#x2c7;" horiz-adv-x="569" 
d="M727 1450h102l-325 -360h-137l-181 360h93l176 -213z" />
    <glyph glyph-name="uni02C9" unicode="&#x2c9;" horiz-adv-x="569" 
d="M748 1171h-646l31 123h645z" />
    <glyph glyph-name="breve" unicode="&#x2d8;" horiz-adv-x="569" 
d="M162 1425h78q9 -108 65 -150t168 -42q96 0 164 62t84 130h74q-77 -335 -365 -335q-268 0 -268 335z" />
    <glyph glyph-name="dotaccent" unicode="&#x2d9;" horiz-adv-x="569" 
d="M344 1231q0 47 35 82t82 35t82 -35t35 -82t-35 -82t-82 -35t-82 35t-35 82z" />
    <glyph glyph-name="ring" unicode="&#x2da;" horiz-adv-x="569" 
d="M252 1300q0 88 61.5 149.5t149.5 61.5t149.5 -61.5t61.5 -149.5t-61.5 -149t-149.5 -61t-149.5 61t-61.5 149zM342 1300q0 -51 35 -85.5t86 -34.5t86 34.5t35 85.5t-35 86t-86 35t-86 -35t-35 -86z" />
    <glyph glyph-name="ogonek" unicode="&#x2db;" horiz-adv-x="569" 
d="M463 39v-21q-52 -16 -106 -39t-113.5 -58t-97 -82.5t-37.5 -98.5q0 -39 33 -59.5t73 -20.5q67 0 205 88l29 -63q-64 -39 -103 -61t-103.5 -46t-113.5 -24q-80 0 -136 40t-56 117q0 52 26.5 98t72.5 79t99.5 59.5t116.5 44.5t112.5 29t98.5 18z" />
    <glyph glyph-name="tilde" unicode="&#x2dc;" horiz-adv-x="569" 
d="M748 1368h71q-19 -103 -75.5 -166t-155.5 -63q-54 0 -155 43t-140 43q-45 0 -66.5 -20.5t-40.5 -69.5h-75q26 99 83 166t140 67q58 0 169 -44t134 -44q24 0 41 6t30.5 21.5t20 26t19.5 34.5z" />
    <glyph glyph-name="hungarumlaut" unicode="&#x2dd;" horiz-adv-x="569" 
d="M510 1090h-90l172 180q17 18 54 60.5t56.5 62.5t50.5 38.5t60 18.5q33 0 59.5 -25t26.5 -53q0 -33 -24 -57t-103 -70zM178 1090h-76l179 213q12 14 34.5 41.5t31.5 37.5t25.5 27t27 23.5t25.5 12t30 5.5q31 0 58.5 -24.5t27.5 -61.5q0 -52 -111 -119z" />
    <glyph glyph-name="uni03A9" unicode="&#x3a9;" horiz-adv-x="1339" 
d="M1221 305l-117 -305h-451l-6 37q14 21 80 122t97.5 154t82 143.5t81.5 171t48 156.5q35 153 35.5 267.5t-29.5 179.5t-77.5 96t-112.5 31q-312 0 -446 -582q-21 -93 -25.5 -190t9 -204.5t24.5 -170t35 -174.5l-25 -37h-447l27 305l55 2q7 -90 30 -117.5t81 -27.5h184
q-32 38 -52.5 65.5t-51.5 76.5t-48.5 97.5t-31.5 109.5t-12 133t20 149q65 284 262 458t434 174q238 0 351 -167.5t47 -452.5q-20 -85 -61 -167.5t-85 -143.5t-109.5 -129t-111 -108t-112.5 -95h198q58 0 89.5 25.5t82.5 119.5z" />
    <glyph glyph-name="uni03BC" unicode="&#x3bc;" horiz-adv-x="1138" 
d="M842 963h225q-29 -110 -59.5 -226.5t-48.5 -184t-36.5 -138t-27.5 -107.5t-17 -71.5t-11 -51.5t-3 -28q0 -15 10 -26t23 -11q18 0 42.5 19.5t41.5 39.5t49 62l37 -31q-70 -97 -113 -139q-98 -95 -196 -95q-119 0 -119 121q0 49 10 97l-4 4q-184 -217 -371 -222l-92 -397
h-350l4 45q28 3 40.5 4.5t31.5 8t26 12.5t20 24.5t19 36.5t17.5 55.5t20 75.5t22.5 101q27 123 82 347.5t90 374t35 171.5q0 35 -26 45t-99 10l6 45q110 13 196.5 27t122.5 20t56 6q14 0 14 -16q0 -14 -97.5 -385.5t-97.5 -413.5q0 -61 72 -61q60 0 129.5 56t121.5 135.5
t71 152.5z" />
    <glyph glyph-name="pi" unicode="&#x3c0;" horiz-adv-x="1079" 
d="M1069 954l47 -16q-23 -58 -54.5 -114t-57.5 -85q-35 -10 -127 -10q-43 -137 -111 -438q-22 -94 -13 -138t50 -44q25 0 46.5 12t55.5 41l15 -47q-51 -64 -117 -102t-125 -38q-40 0 -67.5 12t-47.5 42.5t-20 82t16 130.5q46 204 133 491q-50 0 -138 2t-124 2l-8 -30
q-38 -164 -83.5 -298t-87 -213.5t-68.5 -121.5t-48 -64q-75 -32 -135 -35l-2 37q126 134 214.5 337t131.5 392q-83 0 -133 -18t-127 -64l-18 52q3 2 24.5 23.5t28.5 28t30 26.5t37 28.5t38.5 24.5t46.5 23t50 15.5t59 12t64 2.5q67 0 234.5 -3t263.5 -3q46 0 71 13t56 52z
" />
    <glyph glyph-name="endash" unicode="&#x2013;" 
d="M1040 559l-32 -156h-1024l32 156h1024z" />
    <glyph glyph-name="emdash" unicode="&#x2014;" horiz-adv-x="2048" 
d="M2064 559l-32 -156h-2048l32 156h2048z" />
    <glyph glyph-name="quoteleft" unicode="&#x2018;" horiz-adv-x="569" 
d="M598 1425v-71q-91 -47 -119 -73q-40 -38 -41 -81q0 -20 12.5 -37t30.5 -32.5t36.5 -32.5t31 -43.5t12.5 -59.5q0 -61 -40 -102t-103 -41q-65 0 -108.5 49.5t-43.5 136.5q0 132 95 235t237 152z" />
    <glyph glyph-name="quoteright" unicode="&#x2019;" horiz-adv-x="569" 
d="M260 852v72q89 46 116 69q44 38 44 84q0 20 -12.5 37t-31 32.5t-36.5 32.5t-30.5 43.5t-12.5 59.5q0 61 40 102t103 41q65 0 108.5 -49.5t43.5 -136.5q0 -132 -95 -235t-237 -152z" />
    <glyph glyph-name="quotesinglbase" unicode="&#x201a;" horiz-adv-x="569" 
d="M70 -311v71q90 46 119 73q40 37 40 81q0 20 -12.5 37t-30.5 32.5t-36.5 32.5t-31 43.5t-12.5 59.5q0 61 40 102t104 41q65 0 108 -49.5t43 -136.5q0 -132 -94.5 -235t-236.5 -152z" />
    <glyph glyph-name="quotedblleft" unicode="&#x201c;" 
d="M993 1425v-71q-90 -46 -119 -73q-39 -38 -40 -81q0 -20 12.5 -37t30.5 -32.5t36 -32.5t30.5 -43.5t12.5 -59.5q0 -61 -40 -102t-103 -41q-65 0 -108 49.5t-43 136.5q0 132 94.5 235t236.5 152zM537 1425v-71q-91 -47 -119 -73q-40 -38 -41 -81q0 -20 12.5 -37t30.5 -32.5
t36.5 -32.5t31 -43.5t12.5 -59.5q0 -61 -40 -102t-104 -41q-65 0 -108 49.5t-43 136.5q0 132 95 235t237 152z" />
    <glyph glyph-name="quotedblright" unicode="&#x201d;" 
d="M717 852v72q89 46 116 69q44 38 44 84q0 20 -12.5 37t-30.5 32.5t-36.5 32.5t-31 43.5t-12.5 59.5q0 61 40 102t103 41q65 0 108.5 -49.5t43.5 -136.5q0 -132 -95 -235t-237 -152zM260 852v72q89 46 116 69q44 38 44 84q0 20 -12.5 37t-31 32.5t-36.5 32.5t-30.5 43.5
t-12.5 59.5q0 61 40 102t103 41q65 0 108.5 -49.5t43.5 -136.5q0 -132 -95 -235t-237 -152z" />
    <glyph glyph-name="quotedblbase" unicode="&#x201e;" 
d="M526 -311v71q91 47 119 73q41 37 41 81q0 20 -12.5 37t-31 32.5t-36.5 32.5t-30.5 43.5t-12.5 59.5q0 61 40 102t104 41q65 0 108 -49.5t43 -136.5q0 -132 -95 -235t-237 -152zM70 -311v71q90 46 119 73q40 37 40 81q0 20 -12.5 37t-30.5 32.5t-36.5 32.5t-31 43.5
t-12.5 59.5q0 61 40 102t104 41q65 0 108 -49.5t43 -136.5q0 -132 -94.5 -235t-236.5 -152z" />
    <glyph glyph-name="dagger" unicode="&#x2020;" 
d="M367 -274h-48q6 34 24 137.5t24.5 147t17 124.5t14.5 150t4 143q0 72 -12 162q61 51 112.5 153t65.5 189q-61 0 -148.5 -41t-131.5 -41q-49 0 -76 29t-27 69q0 50 27.5 79.5t77.5 29.5q47 0 87.5 -20t88 -40t111.5 -20q16 70 16 106q0 31 -17.5 111t-17.5 111q0 50 33 85
t82 35q45 0 77.5 -28.5t32.5 -83.5q0 -34 -22.5 -75t-55 -86.5t-44.5 -70.5q-15 -32 -31 -104q51 2 102.5 22t94.5 39t75 19q44 0 76.5 -26t32.5 -81q0 -53 -33 -79.5t-80 -26.5q-26 0 -56.5 14t-56 30t-69.5 30t-94 14q-17 -83 -17 -115q0 -39 10 -87t18 -74.5t28 -84.5
q-64 -74 -134.5 -276t-160.5 -569z" />
    <glyph glyph-name="daggerdbl" unicode="&#x2021;" 
d="M18 201q0 53 32.5 79.5t78.5 26.5q23 0 69.5 -20.5t105 -41.5t110.5 -22q14 62 14 156q0 135 -45 205q116 86 184 356q-58 -3 -115 -23t-97 -38.5t-60 -18.5q-52 0 -81.5 29t-29.5 76t30.5 71.5t78.5 24.5q29 0 69.5 -18.5t95.5 -37.5t117 -20q13 57 13 98
q0 31 -15.5 110t-15.5 110q0 53 31 87.5t84 34.5q43 0 76.5 -27.5t33.5 -74.5q0 -39 -30 -87.5t-71 -115t-60 -135.5q75 7 168 39.5t120 32.5q47 0 74 -30t27 -64q0 -53 -32.5 -80t-78.5 -27q-23 0 -69.5 20.5t-105 41.5t-110.5 22q-14 -62 -14 -156q0 -134 45 -200
q-116 -91 -184 -361q58 3 115 23t97 38.5t60 18.5q52 0 81.5 -28.5t29.5 -75.5q0 -49 -30 -73t-79 -24q-29 0 -69.5 18.5t-95.5 37.5t-117 20q-13 -57 -13 -98q0 -30 15.5 -109t15.5 -110q0 -53 -31 -88t-84 -35q-43 0 -76.5 27.5t-33.5 74.5q0 32 19.5 70t44.5 71.5
t54 87.5t44 109q-75 -7 -168.5 -39.5t-120.5 -32.5q-47 0 -74 30.5t-27 64.5z" />
    <glyph glyph-name="bullet" unicode="&#x2022;" 
d="M205 696q0 145 101.5 246.5t246.5 101.5t246.5 -101.5t101.5 -246.5t-101.5 -246.5t-246.5 -101.5t-246.5 101.5t-101.5 246.5z" />
    <glyph glyph-name="ellipsis" unicode="&#x2026;" horiz-adv-x="2048" 
d="M117 111q0 60 41.5 101.5t101.5 41.5t101.5 -41.5t41.5 -101.5t-41.5 -102t-101.5 -42t-101.5 42t-41.5 102zM799 111q0 60 41.5 101.5t101.5 41.5t101.5 -41.5t41.5 -101.5t-41.5 -102t-101.5 -42t-101.5 42t-41.5 102zM1481 111q0 60 41.5 101.5t101.5 41.5
t101.5 -41.5t41.5 -101.5t-41.5 -102t-101.5 -42t-101.5 42t-41.5 102z" />
    <glyph glyph-name="perthousand" unicode="&#x2030;" horiz-adv-x="2048" 
d="M1898 627q-49 0 -95.5 -53t-76.5 -127t-48.5 -148t-18.5 -121q0 -67 26.5 -104t75.5 -37q61 0 113 47t82 114t46.5 133t16.5 113q0 85 -31 134t-90 49zM1106 1450h98l-880 -1475h-99l772 1295l-4 4q-90 -78 -221 -78q-56 0 -123 23q6 -40 6 -95q0 -76 -23.5 -156
t-66.5 -150t-112 -114.5t-150 -44.5q-28 0 -57.5 5.5t-68 24.5t-67.5 49.5t-49 86t-20 127.5q0 104 53 202.5t146 162t198 63.5q108 0 180 -82q64 -41 150 -41q197 0 338 193zM1855 696q63 0 108 -23t67.5 -62t32.5 -81t10 -90q0 -76 -24 -156t-67 -150t-112 -114.5
t-150 -44.5q-28 0 -57.5 5.5t-68 24.5t-67.5 49.5t-49 86t-20 127.5q0 104 53 202.5t146 162t198 63.5zM242 862q0 -67 26.5 -104t75.5 -37q61 0 113 47t82 114t46.5 133t16.5 113q0 80 -16 109q-49 11 -123 66q-56 0 -109.5 -86.5t-82.5 -188.5t-29 -166zM1114 696
q63 0 107.5 -23t67.5 -62t32.5 -81t9.5 -90q0 -76 -23.5 -156t-66.5 -150t-112 -114.5t-150 -44.5q-28 0 -57.5 5.5t-68 24.5t-67.5 49.5t-49 86t-20 127.5q0 104 53 202.5t146 162t198 63.5zM1157 627q-49 0 -95.5 -53t-76.5 -127t-48.5 -148t-18.5 -121q0 -67 26.5 -104
t75.5 -37q61 0 113 47t82 114t46.5 133t16.5 113q0 85 -31 134t-90 49z" />
    <glyph glyph-name="guilsinglleft" unicode="&#x2039;" horiz-adv-x="681" 
d="M84 469v18l338 246q44 32 89 70.5t66 54.5t35 16q10 0 19.5 -7t9.5 -17q0 -26 -41.5 -83.5t-86 -106.5t-105.5 -113.5t-68 -71.5q1 -2 48 -98t74 -162t27 -92q0 -15 -8.5 -25t-19.5 -10q-15 0 -39 25t-57 66.5t-52 60.5z" />
    <glyph glyph-name="guilsinglright" unicode="&#x203a;" horiz-adv-x="681" 
d="M598 494v-19l-338 -246q-44 -32 -89 -70.5t-66 -54.5t-35 -16q-10 0 -19.5 7.5t-9.5 17.5q0 26 41.5 83.5t86 106.5t105.5 112.5t68 71.5q0 1 -47.5 98t-74.5 163t-27 92q0 14 8.5 24t19.5 10q15 0 39 -24.5t57 -66t52 -60.5z" />
    <glyph glyph-name="fraction" unicode="&#x2044;" horiz-adv-x="342" 
d="M543 1425h141l-885 -1458h-141z" />
    <glyph glyph-name="Euro" unicode="&#x20ac;" 
d="M1137 1427l-52 -362h-55q-6 55 -22 102.5t-43.5 89t-71.5 65.5t-100 24q-38 0 -73 -18.5t-61 -43t-52.5 -69t-42.5 -76.5t-36 -86t-27.5 -78t-21.5 -70h525l-62 -96h-489q-19 -75 -27 -113h471l-63 -96h-422q-6 -58 -6 -119q0 -405 284 -405q94 0 174 26t191 80v-63
q-117 -79 -217 -115.5t-228 -36.5q-440 0 -440 633h-152l62 96h96q6 54 19 113h-136l62 96h98q30 98 77.5 186.5t114 166t157.5 123.5t194 46q49 0 105 -19.5t100.5 -38.5t64.5 -19q17 0 28.5 13t15.5 26.5t8 31.5q1 4 1 6h52z" />
    <glyph glyph-name="afii61289" unicode="&#x2113;" horiz-adv-x="806" 
d="M662 242l34 -37q-174 -234 -385 -234q-142 0 -186 80q-25 48 -26 103.5t28 189.5l39 164l-127 -80l-12 53l155 107l64 272q54 234 98.5 337.5t122.5 180.5q102 111 211 111q88 0 119 -75t4 -195q-38 -168 -140 -305t-270 -281l-43 -187q-43 -198 -24.5 -271t102.5 -73
q107 0 236 140zM469 973l-55 -238q94 91 169 220t105 259q47 211 -31 211q-48 0 -87.5 -94.5t-100.5 -357.5z" />
    <glyph glyph-name="trademark" unicode="&#x2122;" horiz-adv-x="2048" 
d="M614 1339v-626q0 -25 0.5 -36t4 -24t8.5 -17.5t18 -10t29 -7.5t43 -4v-53h-398v53q27 2 43 4t29 7.5t18 10t8.5 17.5t4 24t0.5 36v626h-94q-105 0 -131 -127h-50v181h742v-181h-49q-26 127 -133 127h-93zM1466 561l-284 600h-4v-405q0 -81 18.5 -109.5t85.5 -32.5v-53
h-272v53q69 4 87.5 32.5t18.5 109.5v477q0 106 -143 106v54h284l291 -592l310 592h241v-54q-67 -3 -87.5 -24t-20.5 -74v-528q0 -25 0.5 -35.5t3.5 -24.5t8.5 -18t18 -9.5t28.5 -7.5t43 -4v-53h-397v53q27 2 43 4t28.5 7.5t18 9.5t8.5 18t3.5 24.5t0.5 35.5v452h-4
l-301 -604h-27z" />
    <glyph glyph-name="Omega" unicode="&#x2126;" horiz-adv-x="1339" 
d="M1221 305l-117 -305h-451l-6 37q14 21 80 122t97.5 154t82 143.5t81.5 171t48 156.5q35 153 35.5 267.5t-29.5 179.5t-77.5 96t-112.5 31q-312 0 -446 -582q-21 -93 -25.5 -190t9 -204.5t24.5 -170t35 -174.5l-25 -37h-447l27 305l55 2q7 -90 30 -117.5t81 -27.5h184
q-32 38 -52.5 65.5t-51.5 76.5t-48.5 97.5t-31.5 109.5t-12 133t20 149q65 284 262 458t434 174q238 0 351 -167.5t47 -452.5q-20 -85 -61 -167.5t-85 -143.5t-109.5 -129t-111 -108t-112.5 -95h198q58 0 89.5 25.5t82.5 119.5z" />
    <glyph glyph-name="estimated" unicode="&#x212e;" horiz-adv-x="1955" 
d="M1886 676h-1311q-10 0 -10 -10v-396q0 -25 17 -45q98 -101 226 -158t269 -57q153 0 288.5 64t233.5 176h117q-111 -130 -279.5 -205.5t-361.5 -75.5q-219 0 -404.5 97t-294 264t-108.5 364q0 198 108.5 365.5t294 264.5t404.5 97q221 0 407.5 -97t295 -264.5
t108.5 -365.5v-18zM1589 727v397q0 27 -20 47q-99 97 -225 152t-267 55q-139 0 -266 -56.5t-227 -156.5q-19 -19 -19 -49v-389q0 -4 3 -9t7 -5h1004q10 0 10 14z" />
    <glyph glyph-name="partialdiff" unicode="&#x2202;" horiz-adv-x="1015" 
d="M573 860h2q65 0 121.5 -30.5t85.5 -92.5q43 125 72 224q49 180 25 311q-13 71 -64 119.5t-133 48.5q-128 0 -289 -115q-15 -1 -27.5 25.5t-13 58.5t12.5 59q138 80 284 80q260 0 336 -291q18 -74 19.5 -166.5t-8 -167t-25.5 -145.5q-30 -129 -84 -263.5t-123 -235.5
q-96 -143 -216 -225.5t-255 -82.5q-157 0 -227 105.5t-29 292.5q23 99 75.5 187.5t116.5 152.5q70 67 162.5 109t181.5 42zM600 776h-2q-112 0 -211 -117q-58 -74 -106 -185t-74 -222q-22 -96 4 -156.5t98 -60.5q61 0 127 64t123 155q56 85 96.5 173t87.5 220
q-9 46 -47 87.5t-96 41.5z" />
    <glyph glyph-name="Delta" unicode="&#x2206;" horiz-adv-x="1206" 
d="M1012 0h-1073l12 59l794 1342l93 24l188 -1366zM786 106l-129 1000l-581 -1000h710z" />
    <glyph glyph-name="product" unicode="&#x220f;" horiz-adv-x="1513" 
d="M1464 1409v-59q-44 -3 -70.5 -6.5t-48 -12t-31.5 -18t-16.5 -29.5t-8 -41t-1.5 -59v-1121q0 -41 1.5 -65t8.5 -45.5t16.5 -31.5t31 -19t46.5 -12.5t68 -6.5v-59h-522v59q38 3 59 5.5t40 11t26.5 17.5t13.5 31.5t7 46.5t1 68v1203q0 45 -12.5 57t-58.5 12h-322
q-43 0 -54 -10t-11 -51v-1211v-40.5t1 -32.5t2.5 -28t4.5 -21t7.5 -18.5t12.5 -12.5t17 -11t22.5 -6.5t29 -6t36.5 -3.5v-59h-510v59q63 5 93.5 11t50.5 27t24 50.5t4 91.5v1121q0 57 -3.5 83t-23.5 46t-52 26t-99 11v59h1220z" />
    <glyph glyph-name="summation" unicode="&#x2211;" horiz-adv-x="1245" 
d="M1204 207l-86 -393h-868v53l422 674l-414 813v55h862q1 -14 9.5 -134.5t13.5 -195.5l-60 -12q-23 125 -63 197q-22 43 -60.5 57t-142.5 14h-311l340 -645l-426 -696h454q48 0 73 1.5t53 9.5t43 21t33.5 40.5t33 63t35.5 93.5z" />
    <glyph glyph-name="minus" unicode="&#x2212;" horiz-adv-x="1228" 
d="M1096 397h-963v168h963v-168z" />
    <glyph glyph-name="uni2215" unicode="&#x2215;" horiz-adv-x="342" 
d="M543 1425h141l-885 -1458h-141z" />
    <glyph glyph-name="uni2219" unicode="&#x2219;" horiz-adv-x="512" 
d="M109 481q0 60 42.5 103t102.5 43t102.5 -43t42.5 -103t-42.5 -102.5t-102.5 -42.5t-102.5 42.5t-42.5 102.5z" />
    <glyph glyph-name="radical" unicode="&#x221a;" horiz-adv-x="1263" 
d="M1235 1780l-328 -2106l-47 -20l-405 1104l-166 -76l-25 72l328 143l291 -836h4l262 1737z" />
    <glyph glyph-name="infinity" unicode="&#x221e;" horiz-adv-x="1538" 
d="M1448 582v-2q0 -145 -89 -233.5t-210 -88.5q-88 0 -167 48t-171 167q-86 -105 -166 -160t-184 -55q-120 0 -207.5 89t-87.5 224q0 140 88 230t221 90q99 0 179.5 -54.5t162.5 -156.5q5 6 16 18q32 36 50 55t53 50t64.5 47t71.5 28.5t87 12.5q125 0 207 -85.5t82 -223.5z
M477 381h2q36 0 70 13t68 42t55.5 51t56.5 62q9 11 14 16q-77 102 -113 135q-75 70 -161 70q-81 0 -127.5 -56t-46.5 -145q0 -79 52.5 -133.5t129.5 -54.5zM1147 770h-2q-24 0 -47.5 -6t-46.5 -20.5t-40 -26.5t-39 -35t-33 -35t-32.5 -37t-27.5 -32q94 -113 149 -155
t125 -42q75 0 121.5 59t46.5 131q0 89 -48 144t-126 55z" />
    <glyph glyph-name="integral" unicode="&#x222b;" horiz-adv-x="952" 
d="M512 2l-41 823q-9 155 -1 276.5t22.5 212.5t41.5 156.5t55 108.5t65 68t70.5 35t70.5 10q49 0 90 -27.5t41 -75.5t-30.5 -74t-72.5 -26q-24 0 -39.5 16.5t-22 36.5t-17 36.5t-25.5 16.5q-83 0 -68 -317l37 -754q10 -207 -2.5 -369t-42 -266t-75 -171.5t-97.5 -95.5
t-113 -28q-55 0 -92 31.5t-37 75.5q-1 47 34.5 78t80.5 31q21 0 36 -18t22 -39.5t18.5 -39.5t25.5 -18q39 0 56.5 82t9.5 225z" />
    <glyph glyph-name="approxequal" unicode="&#x2248;" horiz-adv-x="1079" 
d="M924 881l84 -70q-40 -88 -105 -142.5t-143 -54.5q-51 0 -95.5 17t-107.5 57q-50 34 -85 50t-75 16q-29 0 -53 -10.5t-45.5 -33t-35.5 -42t-34 -52.5l-86 70q41 87 112.5 141t154.5 54q26 0 49 -4t46.5 -14t35.5 -16t36.5 -21t28.5 -17q44 -27 59.5 -36t43.5 -19.5
t53 -10.5q49 0 85.5 34.5t76.5 103.5zM924 539l84 -72q-41 -88 -105 -142.5t-143 -54.5q-51 0 -95.5 17t-107.5 57q-36 23 -55.5 34.5t-48 21.5t-54.5 10q-39 0 -73 -22.5t-52.5 -48t-44.5 -69.5l-86 70q41 88 112.5 142.5t154.5 54.5q26 0 50 -4.5t46 -13.5t35.5 -16
t35 -19.5t27.5 -16.5l32 -20t33.5 -20.5t27.5 -14.5t33.5 -12t31.5 -3q50 0 84.5 34.5t77.5 107.5z" />
    <glyph glyph-name="notequal" unicode="&#x2260;" horiz-adv-x="1114" 
d="M848 997l-72 -168h250v-131h-299l-111 -258h410v-131h-457l-92 -209l-100 39l74 170h-250v131h299l108 258h-407v131h454l90 209z" />
    <glyph glyph-name="lessequal" unicode="&#x2264;" horiz-adv-x="1153" 
d="M1061 207l-811 428v139l811 428v-153l-684 -340v-4l684 -343v-155zM1067 0h-825v133h825v-133z" />
    <glyph glyph-name="greaterequal" unicode="&#x2265;" horiz-adv-x="1153" 
d="M252 1202l811 -428v-139l-811 -428v155l684 340v5l-684 342v153zM1065 0h-823v133h823v-133z" />
    <glyph glyph-name="lozenge" unicode="&#x25ca;" horiz-adv-x="1265" 
d="M1176 680l-361 -815h-160l-360 815l364 821h156zM1030 680l-291 680h-6l-293 -678l295 -682h4z" />
    <glyph glyph-name="hyphentwo" horiz-adv-x="681" 
d="M57 385l33 193h531l-37 -193h-527z" />
    <glyph glyph-name="a.superior" horiz-adv-x="614" 
d="M563 1370l15 55h135q-21 -84 -56.5 -216.5t-53 -201.5t-17.5 -85q0 -9 6 -14t14 -5q27 0 86 72l21 -19q-18 -25 -31.5 -41t-39 -42t-55 -40t-59.5 -14q-73 0 -73 74q0 15 4 39h-2h-2q-81 -113 -195 -113q-79 0 -122.5 49.5t-43.5 124.5q0 61 27.5 135t73 140.5t114 111.5
t142.5 45q30 0 55.5 -11.5t34 -20t22.5 -23.5zM254 987q0 -82 68 -82q48 0 88.5 52t63.5 122.5t35.5 131.5t12.5 92t-13.5 46t-45.5 15q-44 0 -85 -47t-67 -111.5t-41.5 -125t-15.5 -93.5z" />
    <glyph glyph-name="o.superior" horiz-adv-x="614" 
d="M481 1364q-44 0 -80.5 -32.5t-59 -80t-38.5 -103t-22.5 -99.5t-6.5 -72q0 -54 22 -75t64 -21q43 0 79.5 32t59.5 79t39 102t22.5 99.5t6.5 74.5q0 53 -22.5 74.5t-63.5 21.5zM479 1425q102 0 173 -57.5t71 -173.5q0 -88 -47.5 -174.5t-132.5 -143.5t-183 -57
q-46 0 -88 13.5t-77 40t-55.5 72.5t-20.5 106q0 88 47.5 174t132 143t180.5 57z" />
    <glyph glyph-name="f_i" horiz-adv-x="1138" 
d="M1044 254l39 -27q-12 -17 -35.5 -52t-39.5 -57.5t-42.5 -52.5t-50.5 -47.5t-58 -30t-71 -12.5q-59 0 -96 32t-37 91q0 68 70 347t70 348q0 34 -41 34h-275l-123 -581q-24 -115 -52 -207t-69 -181t-89 -148.5t-114.5 -95.5t-144.5 -36q-88 0 -137 43t-49 100
q0 54 26.5 86.5t77.5 32.5q39 0 63.5 -21.5t24.5 -56.5q0 -29 -12 -50t-12 -34q0 -22 37 -22q39 0 66 26t52.5 95t51.5 194l178 856h-186l20 95h184q29 105 72 194t107 167t155 122.5t201 44.5q116 0 192 -48t76 -138q0 -50 -29.5 -80.5t-78.5 -30.5q-109 0 -109 102
q0 21 9 37t19.5 24t19.5 16t9 14q0 13 -28 23.5t-70 10.5q-52 0 -99 -29t-80.5 -74.5t-62 -108t-46.5 -122t-31 -124.5h151q124 0 248 12t125 12q22 0 22 -20q0 -34 -81.5 -386t-81.5 -386q0 -16 10 -25.5t24 -9.5q16 0 35 13.5t40.5 41.5t29.5 40t26 40z" />
    <glyph glyph-name="f_l" horiz-adv-x="1138" 
d="M1040 256l39 -29q-27 -43 -43.5 -68t-49 -65t-61 -62t-68 -39.5t-81.5 -17.5q-62 0 -95.5 32.5t-33.5 88.5q0 37 26 161t67.5 304t58.5 266h-324l-123 -581q-24 -115 -52 -207t-69 -181t-89 -148.5t-114.5 -95.5t-144.5 -36q-88 0 -137 43t-49 100q0 54 26.5 86.5
t77.5 32.5q39 0 63.5 -21.5t24.5 -56.5q0 -29 -12 -50t-12 -34q0 -22 37 -22q39 0 66 26t52.5 95t51.5 194l178 856h-189l17 95h188q24 100 64 188.5t100 167.5t147 125.5t191 46.5q51 0 102 -14q11 -2 26 -6t25 -6.5t17 -2.5q14 0 102 15q61 14 76 14q29 0 29 -31
q0 -40 -136.5 -632t-136.5 -631q0 -37 35 -37q9 0 19.5 4.5t21 14.5t20 19.5t21 25t18.5 25.5t18 26t15 22zM819 922l64 286q-37 21 -37 58q0 23 10 36t19.5 20.5t9.5 16.5q0 41 -86 41q-42 0 -79 -16.5t-63.5 -40.5t-50.5 -64.5t-39.5 -75.5t-31 -88t-24 -87t-19.5 -86h327
z" />
    <glyph glyph-name="one.superior" horiz-adv-x="614" 
d="M92 569l10 45q77 3 110 27t50 88q135 503 135 543q0 47 -43 47q-36 0 -88 -10l-8 26l315 90h39q-18 -71 -70.5 -269.5t-85 -328t-32.5 -153.5q0 -30 29 -43.5t102 -16.5l-8 -45h-455z" />
    <glyph glyph-name="two.superior" horiz-adv-x="614" 
d="M53 569l6 31q7 6 57 52t72.5 67t73 71t78 81.5t66.5 80t59 85t35.5 78t15.5 75.5q0 62 -36 95.5t-105 33.5q-31 0 -65 -15t-53.5 -29t-47.5 -38l-29 25q115 160 281 163q105 1 162 -51.5t57 -138.5q0 -57 -44.5 -135t-114.5 -154.5t-127 -131.5t-111 -101h145
q76 0 107 12.5t53 50.5h41l-80 -207h-496z" />
    <glyph glyph-name="three.superior" horiz-adv-x="614" 
d="M238 1010l8 41q34 6 66 14t70.5 23t67 34t47.5 48t19 63q0 42 -28.5 70t-77.5 28q-70 0 -148 -55l-24 39q65 52 124 81t125 29q88 0 144.5 -40t56.5 -113q0 -72 -50.5 -119t-133.5 -80q67 -39 100 -85.5t33 -115.5q0 -153 -116 -238t-296 -85q-75 0 -117 20t-42 70
q0 28 16.5 44.5t46.5 16.5q36 0 67 -20.5t59.5 -41t59.5 -20.5q22 0 45.5 8.5t48 27.5t40.5 59t16 94q0 103 -56.5 148t-170.5 55z" />
    </font>
</defs>
</svg>
