<?xml version="1.0" standalone="no"?>
<!DOCTYPE svg PUBLIC "-//W3C//DTD SVG 1.1//EN" "http://www.w3.org/Graphics/SVG/1.1/DTD/svg11.dtd" >
<svg xmlns="http://www.w3.org/2000/svg" xmlns:xlink="http://www.w3.org/1999/xlink" version="1.1">
<metadata>
Created by FontForge 20170731 at Fri May 21 18:30:06 2021
 By Aleksey,,,
(c) 1985, 1987, 1989, 1990, 1993, 1997, 1998, 1999, 2002 Adobe Systems Incorporated. All rights reserved.
</metadata>
<defs>
<font id="TimesLTStd-Bold" horiz-adv-x="1024" >
  <font-face 
    font-family="Times LT Std"
    font-weight="700"
    font-stretch="normal"
    units-per-em="2048"
    panose-1="2 2 8 3 7 5 5 2 3 4"
    ascent="1399"
    descent="-649"
    x-height="944"
    cap-height="1384"
    bbox="-344 -446 2073 1915"
    underline-thickness="102"
    underline-position="-307"
    unicode-range="U+0020-FB02"
  />
<missing-glyph 
d="M0 0v1434h1024v-1434h-1024zM512 809l348 522h-696zM573 717l349 -522v1044zM164 102h696l-348 523zM102 1239v-1044l349 522z" />
    <glyph glyph-name="f_i" unicode="fi" horiz-adv-x="1138" 
d="M1098 49v-49h-482v49q33 3 54.5 14t30 30t10.5 34t2 39v618q0 36 -13.5 53t-56.5 17h-213v-688q0 -23 2 -37.5t10.5 -34t29.5 -30.5t54 -15v-49h-497v49q28 4 41.5 6.5t31 10.5t25 20t13 33.5t5.5 52.5v682h-116v90h116q1 41 2.5 69.5t11 82t26 91.5t50.5 84t80 75
t119 49t164 20q15 0 30.5 -0.5t55 -4t72.5 -10t74 -20.5t69.5 -33t48 -49.5t19.5 -68.5q0 -35 -13.5 -60t-31 -37t-40 -19t-33 -8t-18.5 -1q-15 0 -33 4t-41.5 14.5t-39 34.5t-15.5 57q0 22 5 40.5t9.5 29t4.5 12.5q0 11 -8.5 23t-36 23.5t-68.5 11.5q-29 0 -52 -6
t-40.5 -15t-31 -27.5t-22.5 -35t-15 -47.5t-9.5 -55t-5 -66.5t-2 -73.5t-0.5 -84h217q77 0 350 25v-803q0 -58 22.5 -87t78.5 -30z" />
    <glyph glyph-name="f_l" unicode="fl" horiz-adv-x="1138" 
d="M1098 49v-49h-482v49l17 2q27 4 45 16t24.5 31.5t8.5 33.5t2 34v688h-283v-688q0 -23 2 -37.5t10.5 -34t29.5 -30.5t54 -15v-49h-497v49q28 4 41.5 6.5t31 10.5t25 20t13 33.5t5.5 52.5v682h-116v90h116q1 50 4 88.5t14 90t28 90t49 78.5t75.5 65.5t108 42t145.5 16.5
q21 0 50.5 -2t105 -17.5t137.5 -43.5l96 61h39v-1251q0 -105 76 -111zM713 944v201q-15 3 -29 25t-14 49q0 16 13 45.5t13 35.5q0 25 -21.5 36.5t-74.5 11.5q-35 0 -62.5 -9.5t-45 -23.5t-30 -38.5t-18.5 -45t-9.5 -53.5t-4 -53t-0.5 -54v-127h283z" />
    <glyph glyph-name=".notdef" 
d="M0 0v1434h1024v-1434h-1024zM512 809l348 522h-696zM573 717l349 -522v1044zM164 102h696l-348 523zM102 1239v-1044l349 522z" />
    <glyph glyph-name=".null" horiz-adv-x="0" 
 />
    <glyph glyph-name="nonmarkingreturn" horiz-adv-x="682" 
 />
    <glyph glyph-name="space" unicode=" " horiz-adv-x="512" 
 />
    <glyph glyph-name="exclam" unicode="!" horiz-adv-x="681" 
d="M168 145q0 70 50 122t122 52t123 -51.5t51 -122.5q0 -73 -50.5 -122.5t-123.5 -49.5t-122.5 50t-49.5 122zM369 479h-60q-17 177 -43.5 310t-47.5 190.5t-36.5 117t-15.5 115.5q0 97 46.5 150t127.5 53q79 0 125.5 -53t46.5 -150q0 -56 -15.5 -115.5t-36.5 -117
t-47.5 -190.5t-43.5 -310z" />
    <glyph glyph-name="quotedbl" unicode="&#x22;" horiz-adv-x="1136" 
d="M344 827h-84q-90 373 -90 439v2q0 67 35 107t96 40t97 -40.5t36 -106.5q0 -63 -90 -441zM877 827h-84q-91 377 -91 439v2q0 67 35.5 107t96.5 40t97 -40.5t36 -106.5q0 -63 -90 -441z" />
    <glyph glyph-name="numbersign" unicode="#" 
d="M956 580l-2 -150h-198l-60 -430h-159l59 430h-231l-60 -430h-160l60 430h-197l2 150h217l37 274h-196l2 150h215l61 430h158l-60 -430h232l61 430h158l-59 -430h180l-2 -150h-199l-37 -274h178zM655 854h-231l-37 -274h231z" />
    <glyph glyph-name="dollar" unicode="$" 
d="M551 512v-451q25 4 42 8.5t48 20.5t50 38t34.5 63.5t15.5 95.5q0 22 -2.5 40.5t-11 35.5l-14.5 29t-23 27t-25.5 23t-34 23.5t-36.5 22t-43 24.5zM877 985h-43q-9 30 -16 51t-23.5 61.5t-37.5 70.5t-49.5 62t-69 53.5t-87.5 29.5v-441q48 -24 73.5 -37.5t67.5 -37.5
t65.5 -40.5t57 -42t52.5 -47.5t41 -52.5t33 -60.5t18.5 -67.5t7.5 -78.5q0 -87 -24.5 -154t-61.5 -109t-95 -72.5t-111.5 -45.5t-123.5 -27v-203h-113v203q-97 4 -158.5 21t-185.5 67v320l43 -5q27 -94 61 -160t74.5 -102.5t78.5 -54t85 -25.5v514q-40 20 -67 34.5t-70.5 41
t-72.5 50.5t-63.5 59.5t-55 72t-34.5 84.5t-14 99q0 86 34.5 155.5t91 112t121.5 66t132 26.5v160h113v-156q91 -13 160.5 -33.5t98.5 -35t67 -37.5v-289zM436 930v389q-182 -39 -182 -186q0 -140 182 -203z" />
    <glyph glyph-name="percent" unicode="%" horiz-adv-x="2048" 
d="M1335 188q0 -18 0.5 -29t6.5 -31t16.5 -31.5t32.5 -21t53 -9.5q67 0 135.5 77.5t109 180t40.5 180.5q0 19 -3.5 39.5t-13.5 49t-34 46.5t-60 18q-56 0 -111 -62t-91 -144t-58.5 -156.5t-22.5 -106.5zM1096 244q0 102 42 199.5t107.5 166t145.5 110.5t155 42
q129 0 189.5 -68t60.5 -182q0 -54 -15.5 -122t-50.5 -142.5t-83 -135.5t-122 -101t-159 -40q-122 0 -196 80t-74 193zM1491 1417l-807 -1433h-113l709 1261l-4 4q-46 -22 -112.5 -36.5t-119.5 -14.5q-30 0 -92 10q0 -6 1 -17t1 -17q0 -69 -17 -145t-53 -152.5t-86.5 -137.5
t-124.5 -99t-159 -38q-106 0 -183 74.5t-77 191.5q0 102 33.5 191t84 147.5t112 101.5t116.5 62t98 19q16 0 29.5 -1t26.5 -3.5t22 -4t20 -6.5t16.5 -6.5t16.5 -8t13.5 -8t14 -9.5t13.5 -9q24 -18 44 -28.5t60 -19.5t93 -9q61 0 120 15t98 35t62.5 36.5t28.5 23.5
q22 31 37 31h78zM487 805q0 -50 27 -79.5t76 -29.5q58 0 114.5 51.5t95 125.5t62 153t23.5 137q0 70 -60 92q-12 5 -33.5 21t-31.5 16q-56 0 -122.5 -97t-108.5 -212t-42 -178z" />
    <glyph glyph-name="ampersand" unicode="&#x26;" horiz-adv-x="1705" 
d="M1182 858h422v-49q-46 -4 -73 -13.5t-42.5 -24t-34.5 -44.5q-87 -140 -117.5 -186t-128.5 -181q76 -98 128 -142t118 -44q74 0 117 78l41 -25q-1 -1 -44.5 -72t-45.5 -73q-38 -45 -91.5 -73t-87.5 -35t-59 -7q-53 0 -98.5 14t-86.5 46t-63 53.5t-63 66.5
q-233 -178 -455 -178q-76 0 -144.5 23t-124.5 66.5t-89 114.5t-33 159q0 43 10 84.5t24.5 74.5t40 66t47.5 56.5t56.5 49.5t58 42t60 36t54.5 29l50 25q-56 93 -81 159t-25 133q0 72 24 129t62.5 93.5t91.5 61t107 34.5t112 10q92 0 161.5 -22.5t108 -60t56.5 -79.5t18 -86
q0 -196 -311 -301l309 -438q33 40 53.5 67t48 68.5t41 80t13.5 73.5q0 54 -24.5 68t-110.5 24v49zM412 532q0 -53 25 -122t66.5 -133t105.5 -108t132 -44q78 0 185 80q-78 102 -264 381l-99 147q-83 -47 -117 -91t-34 -110zM662 1227q0 -68 48 -151.5t103 -149.5q28 9 47 18
t44 28t38.5 50t13.5 72q0 54 -21 111t-65.5 100t-99.5 43q-46 0 -77 -27t-31 -94z" />
    <glyph glyph-name="quotesingle" unicode="'" horiz-adv-x="569" 
d="M328 827h-84q-90 373 -90 439v2q0 67 35 107t96 40t97 -40.5t36 -106.5q0 -63 -90 -441z" />
    <glyph glyph-name="parenleft" unicode="(" horiz-adv-x="681" 
d="M627 1421v-55q-66 -45 -98.5 -71.5t-79 -89.5t-68 -140.5t-38.5 -211.5t-17 -316q0 -206 18 -345.5t59 -231t91.5 -144.5t132.5 -103v-57q-98 53 -179 120t-135 133.5t-95 141t-64 138t-37 130t-18.5 112t-4.5 87.5q0 123 24 235.5t61.5 196.5t89 158.5t101 124.5t103 91
t89 62.5t65.5 34.5z" />
    <glyph glyph-name="parenright" unicode=")" horiz-adv-x="681" 
d="M55 -344v55q37 25 55.5 38.5t50.5 40.5t48.5 49t40.5 59.5t37 77.5t28.5 97.5t22.5 124t12.5 153.5t5.5 190q0 165 -13 288t-35 207t-61.5 147t-83 102.5t-108.5 78.5v57q98 -53 179 -120t135 -133.5t95 -141t64 -138t37 -130t18.5 -112t4.5 -87.5q0 -123 -24 -235.5
t-61.5 -196.5t-89 -158.5t-101 -124.5t-103 -91t-89 -62.5t-65.5 -34.5z" />
    <glyph glyph-name="asterisk" unicode="*" 
d="M569 975v-17q53 -29 122.5 -41.5t114 -14t77 -25.5t32.5 -78q0 -41 -29.5 -70t-70.5 -29q-66 0 -113 68q-63 92 -83.5 113.5t-73.5 48.5l-15 -10q5 -64 20 -113.5t30 -73t26.5 -50.5t11.5 -54q0 -43 -28 -75t-78 -32q-49 0 -72.5 36t-23.5 77q0 31 8 54t19.5 40.5
t23 38.5t19.5 60t8 92l-15 10q-47 -31 -82 -67.5t-53 -64.5t-35.5 -53t-40 -38t-55.5 -13q-32 0 -64 27t-32 72q0 14 1.5 23.5t8 26t24.5 31t46 25.5q29 12 82 12h24q86 0 158 56l2 14q-50 25 -108 37.5t-97.5 15.5t-74 10t-51.5 30t-17 69q0 50 30.5 74t59.5 24
q37 0 62.5 -11.5t39.5 -30t29.5 -43.5t30.5 -49t45 -50.5t71 -44.5l15 6v6q0 57 -14 101.5t-30 67t-30 54.5t-14 68q0 42 30.5 71t73.5 29q30 0 51.5 -12.5t31 -31.5t13.5 -35t4 -31q0 -32 -12.5 -61t-27 -48.5t-27 -58t-12.5 -88.5q0 -4 1 -15t1 -16l16 -6q55 40 95 87.5
t56 77t42 50t65 20.5q47 0 75.5 -35t28.5 -69q0 -22 -20.5 -55t-63.5 -48q-24 -9 -56 -10.5t-58 -0.5t-66 -12t-82 -42z" />
    <glyph glyph-name="plus" unicode="+" horiz-adv-x="1167" 
d="M494 608v428h180v-428h426v-180h-426v-428h-180v428h-426v180h426z" />
    <glyph glyph-name="comma" unicode="," horiz-adv-x="512" 
d="M117 -369l-23 45q223 153 223 271q0 20 -10.5 32.5t-30.5 12.5q-3 0 -17 -2t-28 -2q-24 0 -48 7.5t-48.5 24.5t-39.5 50.5t-15 79.5q0 77 47.5 122t120.5 45q71 0 120 -37t69 -88t20 -108q0 -53 -14 -103t-34 -88.5t-52 -76t-59.5 -62.5t-66 -52t-60.5 -40t-54 -31z" />
    <glyph glyph-name="hyphen" unicode="-" horiz-adv-x="681" 
d="M588 588v-238h-498v238h498z" />
    <glyph glyph-name="period" unicode="." horiz-adv-x="512" 
d="M84 145q0 70 50 122t122 52t123 -51.5t51 -122.5q0 -73 -50.5 -122.5t-123.5 -49.5t-122.5 50t-49.5 122z" />
    <glyph glyph-name="slash" unicode="/" horiz-adv-x="569" 
d="M618 1415l-483 -1454h-184l483 1454h184z" />
    <glyph glyph-name="zero" unicode="0" 
d="M651 455v469q0 230 -33.5 329t-107.5 99q-20 0 -37 -7t-30 -22t-23 -31t-17.5 -42.5t-12.5 -47.5t-8 -54.5t-5 -55.5t-3 -58.5t-1 -55.5v-54v-469q0 -225 31.5 -324.5t109.5 -99.5q81 0 109 114q9 41 18.5 130t9.5 180zM49 680q0 149 28.5 273.5t75.5 207t108 140t125 83
t128 25.5q66 0 130.5 -28t124.5 -87.5t105.5 -143.5t73 -205.5t27.5 -264.5q0 -139 -32.5 -266.5t-91 -225.5t-147 -156.5t-192.5 -58.5q-130 0 -235.5 90t-166.5 252.5t-61 364.5z" />
    <glyph glyph-name="one" unicode="1" 
d="M905 49v-49h-768v49h8q56 0 97 6t66.5 20t40.5 29t22 42t8.5 48.5t1.5 59.5v788q0 22 -0.5 35t-4.5 36t-12 36.5t-24 24t-39 10.5q-36 0 -168 -51v53l516 223h35v-1167q0 -58 6 -89t28 -57.5t66.5 -36.5t120.5 -10z" />
    <glyph glyph-name="two" unicode="2" 
d="M979 432l-92 -432h-852v47q87 93 138 148.5t120.5 134.5t110 131.5t86 119t69 118t39.5 107.5t16 107q0 22 -4.5 50t-20.5 67t-41 70t-71 53.5t-106 22.5q-24 0 -49.5 -5.5t-63 -22t-74 -57t-63.5 -100.5h-58q11 32 22.5 60.5t34 73t47 80.5t61.5 75.5t77.5 66.5
t94.5 44.5t114 17.5q43 0 88.5 -9.5t99 -36t95 -67.5t69 -111t27.5 -159q0 -27 -1.5 -47.5t-14 -67.5t-35 -90.5t-70 -106.5t-113.5 -126l-331 -316h309q57 0 93 1.5t66.5 9.5t47 16.5t33.5 30t27 42t26 60.5h49z" />
    <glyph glyph-name="three" unicode="3" 
d="M119 1071l-43 25q24 53 63.5 104t96 100t135 79t164.5 30q155 0 249.5 -69.5t94.5 -206.5q0 -57 -12.5 -99t-40.5 -73.5t-51 -49t-66 -43.5q118 -43 183.5 -142t65.5 -218q0 -107 -45 -205t-124 -171.5t-195.5 -117t-251.5 -43.5q-132 0 -220.5 48.5t-88.5 140.5
q0 50 38 82t89 32q48 0 90.5 -20.5t74.5 -50t62 -59t64 -50t69 -20.5q39 0 73.5 12.5t65 39.5t48.5 76t18 115q0 44 -9.5 84t-24 71.5t-39.5 60.5t-47 50t-56.5 42t-58.5 34t-62.5 28.5t-58.5 22.5t-56 19v35l46.5 15t48.5 19t52 26t45 34t40 45.5t24.5 57t10.5 71.5
q0 95 -55 153t-163 58q-47 0 -88.5 -17.5t-70.5 -47t-46.5 -52t-33.5 -48.5q-3 -5 -4 -7z" />
    <glyph glyph-name="four" unicode="4" 
d="M844 522h129v-227h-129v-295h-297v295h-508v231q44 70 101.5 154t100.5 145t119.5 164t106.5 142t116.5 151.5t96.5 126.5h164v-887zM551 522v602h-4l-424 -602h428z" />
    <glyph glyph-name="five" unicode="5" 
d="M305 1124l-45 -166q162 -9 259.5 -27.5t191.5 -72.5q83 -46 148 -145t65 -236q0 -101 -39.5 -190t-113 -156.5t-185.5 -107t-248 -39.5q-125 0 -209 48t-84 132q0 48 33 85.5t94 37.5q47 0 101.5 -28t96.5 -61t94 -61t95 -28q30 0 62 10.5t66 32.5t55.5 66.5t21.5 103.5
q0 88 -64.5 161.5t-154.5 112.5q-64 28 -147.5 46t-139.5 23.5t-154 12.5l199 706h660l-89 -260h-569z" />
    <glyph glyph-name="six" unicode="6" 
d="M963 1409v-53q-68 -14 -127 -34.5t-126.5 -61t-120.5 -96t-99 -142t-72 -195.5q31 13 49 18.5t53.5 11t81.5 5.5q47 0 93 -10.5t98 -40t90.5 -75.5t64 -124.5t25.5 -179.5q0 -40 -10.5 -91t-41.5 -118t-78 -121t-129.5 -91.5t-187.5 -37.5q-61 0 -120 15.5t-124 58
t-113.5 108t-80 176t-31.5 251.5q0 114 34.5 223.5t108 211t178.5 182.5t255.5 136.5t329.5 73.5zM662 319q0 117 -7.5 196t-27 139t-54 88t-86.5 28q-65 0 -90 -27q-1 -1 -5.5 -32t-8.5 -76t-4 -76q0 -157 6.5 -254t25 -161.5t48.5 -89.5t78 -25q26 0 46 8.5t33.5 20
t22.5 35.5t13.5 42.5t6.5 56t2.5 59.5t0.5 68z" />
    <glyph glyph-name="seven" unicode="7" 
d="M977 1384l-481 -1384h-195l410 1104h-424q-19 0 -31 -1t-34.5 -5.5t-39 -15.5t-35.5 -29t-34.5 -49.5t-26.5 -73.5h-51l90 454h852z" />
    <glyph glyph-name="eight" unicode="8" 
d="M344 1184q0 -53 27 -105.5t59.5 -86t78.5 -66.5t64 -43t37 -19q30 40 44 63.5t27 69t13 103.5q0 44 -7.5 83.5t-26 79.5t-56.5 63.5t-92 23.5q-72 0 -120 -50t-48 -116zM545 1409q89 0 160 -20t113.5 -50.5t70.5 -71.5t38.5 -79t10.5 -76q0 -194 -279 -285
q308 -182 308 -438q0 -191 -131 -303.5t-351 -112.5q-113 0 -209 38t-157.5 118t-61.5 188q0 64 19.5 117.5t48.5 88.5t73 64.5t82 45.5t85 31q-285 159 -285 380q0 74 27 138t81.5 115.5t146 81.5t210.5 30zM305 322q0 -119 50.5 -201t144.5 -82q182 0 182 240
q0 49 -16.5 93t-37.5 74.5t-64 67.5t-71 56.5t-83 56.5q-31 -46 -43.5 -67.5t-30.5 -61t-24.5 -81t-6.5 -95.5z" />
    <glyph glyph-name="nine" unicode="9" 
d="M63 -27v54q69 14 126.5 34t124.5 60t119.5 95t100.5 143t78 200q-50 -26 -90 -31q-41 -8 -98 -8q-47 0 -93 10.5t-98 40t-90.5 75.5t-64 124.5t-25.5 179.5q0 40 10.5 91t41.5 118t78 121t129.5 91.5t187.5 37.5q42 0 84 -7.5t89 -27t89 -49.5t80.5 -78.5t66 -109.5
t44 -147.5t16.5 -188.5q0 -114 -34.5 -223.5t-108 -211.5t-178.5 -182.5t-255.5 -136.5t-329.5 -74zM365 1063q0 -117 7.5 -196t26.5 -139t53.5 -88t86.5 -28q28 0 58.5 8t31.5 19q18 99 18 184q0 307 -32 419t-126 112q-18 0 -33.5 -3.5t-27.5 -12t-21 -16.5t-15.5 -24.5
t-11.5 -27.5t-7.5 -35t-4 -37.5t-2.5 -42.5t-1 -43.5v-48.5z" />
    <glyph glyph-name="colon" unicode=":" horiz-adv-x="681" 
d="M168 145q0 70 50 122t122 52t123 -51.5t51 -122.5q0 -73 -50.5 -122.5t-123.5 -49.5t-122.5 50t-49.5 122zM168 795q0 70 50 121t122 51t123 -50.5t51 -121.5q0 -73 -51 -123.5t-123 -50.5q-73 0 -122.5 50.5t-49.5 123.5z" />
    <glyph glyph-name="semicolon" unicode=";" horiz-adv-x="681" 
d="M545 84q0 -53 -14 -103t-34 -88.5t-52 -76t-59.5 -62.5t-66 -52t-60.5 -40t-54 -31l-23 45q224 153 224 271q0 19 -10.5 32t-30.5 13l-46 -4q-8 0 -18.5 1t-36.5 9.5t-45 24t-35 49t-16 78.5q0 77 47.5 122t120.5 45q71 0 120 -37t69 -88t20 -108zM168 795q0 70 50 121
t122 51t123 -50.5t51 -121.5q0 -73 -51 -123.5t-123 -50.5q-73 0 -122.5 50.5t-49.5 123.5z" />
    <glyph glyph-name="less" unicode="&#x3c;" horiz-adv-x="1167" 
d="M1104 164v-180l-1041 456v156l1041 457v-181l-807 -354z" />
    <glyph glyph-name="equal" unicode="=" horiz-adv-x="1167" 
d="M1100 817v-180h-1032v180h1032zM1100 399v-180h-1032v180h1032z" />
    <glyph glyph-name="greater" unicode="&#x3e;" horiz-adv-x="1167" 
d="M63 164l807 354l-807 354v181l1041 -457v-156l-1041 -456v180z" />
    <glyph glyph-name="question" unicode="?" 
d="M518 473h-61q-4 78 -4 90q0 49 16 95.5t38.5 86.5t44.5 84t38 106t16 134q0 32 -2.5 61.5t-13.5 69.5t-29 68.5t-51.5 48.5t-79.5 20q-12 0 -27.5 -2.5t-39 -9.5t-39 -25.5t-15.5 -44.5q0 -20 12 -37.5t26 -29.5t26 -37t12 -59q0 -37 -13.5 -64.5t-34 -41t-40 -19.5
t-37.5 -6q-72 0 -107.5 47.5t-35.5 109.5q0 30 8.5 63.5t35 75.5t68 75t116 56t169.5 23q19 0 42.5 -2t63.5 -10t77 -22t77 -40.5t69.5 -61.5t48.5 -90t19 -122q0 -177 -192 -297q-67 -41 -90.5 -56.5t-50.5 -40t-39 -48.5q-21 -43 -21 -148zM315 145q0 70 51 122t123 52
q70 0 121.5 -51.5t51.5 -122.5q0 -73 -51 -122.5t-122 -49.5q-73 0 -123.5 50t-50.5 122z" />
    <glyph glyph-name="at" unicode="@" horiz-adv-x="1904" 
d="M1182 831q0 134 -90 134q-39 0 -86.5 -28.5t-91.5 -77.5t-73.5 -127.5t-29.5 -166.5t35.5 -131t91.5 -43q76 0 150 116.5t94 323.5zM1219 954l22 82h145l-135 -532q-4 -20 -4 -39q0 -39 17.5 -67.5t60.5 -28.5q76 0 138 69.5t93 165.5t31 189q0 73 -25.5 148.5t-76.5 146
t-121 126t-167 88.5t-206 33q-117 0 -220.5 -44.5t-184.5 -129.5t-128.5 -220.5t-47.5 -305.5q0 -113 45 -218.5t123 -185.5t191.5 -128t242.5 -48q126 0 216 25t202 76l26 -72q-119 -58 -224.5 -90.5t-217.5 -32.5q-115 0 -217.5 23.5t-181 64.5t-144.5 96t-111.5 118
t-77.5 131t-46.5 133.5t-14.5 127.5q0 167 62 310.5t167 241t245.5 153t295.5 55.5q192 0 350.5 -80t250 -222.5t91.5 -317.5q0 -83 -26.5 -169.5t-74 -161.5t-124 -123t-166.5 -48q-48 0 -87 18.5t-59.5 44.5t-31 48.5t-10.5 35.5v2h-4q-27 -42 -94.5 -91t-149.5 -56h-6
q-22 0 -44.5 5t-51 22t-50 43.5t-36.5 75.5t-15 112q0 50 15.5 114t50 134t81.5 128t117.5 96t151.5 38q33 0 56.5 -7.5t40.5 -24.5t25.5 -29t21.5 -37q1 -3 2 -4t2 -3z" />
    <glyph glyph-name="A" unicode="A" horiz-adv-x="1478" 
d="M1411 51v-51h-663v51q105 8 134 20t29 60q0 58 -94 272h-461q-90 -232 -90 -264q0 -22 11.5 -38.5t26.5 -25t41.5 -14t43 -7t45.5 -3.5v-51h-416v51q77 11 113 59.5t88 180.5l455 1122h57l457 -1077q74 -175 112 -230t103 -55h8zM387 483h399l-206 498z" />
    <glyph glyph-name="B" unicode="B" horiz-adv-x="1366" 
d="M541 702v-512q0 -68 28.5 -96t94.5 -28q251 0 251 307q0 61 -10.5 110t-27.5 82.5t-43.5 58t-52 38.5t-59.5 23t-60.5 12t-59.5 5h-61zM541 1223v-459q82 0 138.5 11t92 32t55 58.5t26.5 82t7 111.5q0 264 -211 264q-37 0 -60 -8t-32.5 -25.5t-12 -30t-3.5 -36.5zM33 0
v51q43 4 64 7.5t48 13t39 24t20.5 39.5t8.5 62v991q0 33 -6 57t-20.5 39.5t-27 24.5t-39 14t-41 6.5t-46.5 3.5v51h633q35 0 66.5 -1t88.5 -8t103.5 -19t99.5 -36.5t89.5 -58t60.5 -86t24 -118.5q0 -44 -12.5 -82t-28.5 -64.5t-47 -52t-50.5 -38.5t-59 -29t-52 -20
t-48.5 -15q-13 -4 -19 -6v-5q70 -12 134 -37.5t123 -67.5t94.5 -109t35.5 -150q0 -54 -18 -105t-61 -101t-107 -87.5t-164.5 -61.5t-225.5 -26h-659z" />
    <glyph glyph-name="C" unicode="C" horiz-adv-x="1478" 
d="M1346 311l61 -51q-62 -70 -117 -119.5t-125 -93t-152 -65t-177 -21.5q-174 0 -315.5 58.5t-232 158t-139.5 228.5t-49 274q0 207 90.5 374t257 264t377.5 97q80 0 167 -25t149 -50t80 -25q26 0 45 14.5t28 31t21 48.5h55v-479h-51q-29 72 -73 141.5t-104 133.5
t-138.5 103.5t-161.5 39.5q-379 0 -379 -660q0 -298 88 -450q30 -52 75 -89.5t90.5 -55.5t81.5 -26t64 -8q127 0 244.5 58t239.5 194z" />
    <glyph glyph-name="D" unicode="D" horiz-adv-x="1478" 
d="M29 0v51q170 0 170 135v1010q0 25 -5.5 45t-12 33t-22 23.5t-24.5 15.5t-32 9.5t-31 5.5t-34 4q-6 1 -9 1v51h624q166 0 298.5 -40t217 -105t141 -154t80 -181t23.5 -191q0 -115 -26.5 -217.5t-84.5 -191.5t-143 -154.5t-208.5 -105t-274.5 -44.5h-647zM530 1219v-1029
q0 -65 23.5 -91.5t93.5 -26.5q72 0 131 17t112 60.5t89 112.5t57 178t21 252q0 46 -3.5 93.5t-14.5 111t-28.5 119.5t-48.5 112t-71.5 96.5t-100.5 65.5t-133 25q-78 0 -102.5 -21t-24.5 -59v-16z" />
    <glyph glyph-name="E" unicode="E" horiz-adv-x="1366" 
d="M33 1333v51h1181v-411h-51q-14 87 -41 147.5t-64 98.5t-94 59.5t-119 29t-151 7.5q-90 0 -119.5 -16.5t-29.5 -79.5v-476h10q75 0 126.5 13t93.5 46.5t66.5 93.5t35.5 153h53v-693h-53q-9 95 -33 157.5t-67 97.5t-97.5 49t-134.5 14v-496q0 -67 36 -91t136 -24
q84 0 152.5 14t141.5 51t135.5 112t108.5 186h58l-82 -426h-1198v51q44 5 64.5 8t48 12t39 23.5t20 40t8.5 62.5v991q0 33 -6 57t-20.5 39.5t-27 24.5t-39 14t-41 6.5t-46.5 3.5z" />
    <glyph glyph-name="F" unicode="F" horiz-adv-x="1251" 
d="M33 1333v51h1161v-411h-49q-13 60 -25 100t-34 83t-53 69t-77 48t-111.5 32t-152.5 10q-89 0 -118 -16.5t-29 -79.5v-476h10q45 0 82 6t64.5 19.5t48.5 28t37 39.5t26.5 44.5t19.5 53t13.5 55.5t11.5 60h51v-693h-51q-6 43 -11 71t-16 65t-24.5 60.5t-37 49t-53.5 39.5
t-73.5 23.5t-97.5 9.5v-477q0 -29 5.5 -50.5t13.5 -36.5t25.5 -25.5t31.5 -16t42.5 -9.5t48.5 -5t58 -3v-51h-737v51q44 5 64.5 8t48 12t39 23.5t20 40t8.5 62.5v991q0 39 -10.5 66t-24 41.5t-42 23t-46.5 10.5t-57 4z" />
    <glyph glyph-name="G" unicode="G" horiz-adv-x="1593" 
d="M1546 588v-51l-36 -4.5t-30.5 -4.5t-27.5 -6.5t-22.5 -9t-19.5 -12.5t-14.5 -17t-12 -22.5t-7.5 -29.5t-5 -37.5t-1 -45.5v-260q-71 -51 -243 -89t-310 -38q-149 0 -273 40.5t-209.5 110t-144.5 162t-86.5 195t-27.5 211.5q0 151 52 285t144.5 233.5t229.5 158t299 58.5
q80 0 167 -25t148.5 -50t79.5 -25q26 0 45 14.5t28 31t21 48.5h56v-479h-52q-29 72 -73 141.5t-104 133.5t-138.5 103.5t-161.5 39.5q-379 0 -379 -664q0 -43 1.5 -82.5t10 -109.5t23.5 -127.5t45 -122.5t71 -109.5t105 -74t144 -29.5q66 0 109 10.5t65 31.5t30.5 46t8.5 61
v215q0 28 -4.5 49t-11 35.5t-22 24.5t-28 16t-39.5 10t-45.5 5.5t-56.5 3.5v51h702z" />
    <glyph glyph-name="H" unicode="H" horiz-adv-x="1593" 
d="M1554 51v-51h-696v51q42 5 62 8t48.5 12.5t41 23.5t22.5 39.5t10 62.5v471h-493v-471q0 -37 10 -62.5t22.5 -39.5t41 -23.5t48.5 -12.5t62 -8v-51h-690v51q50 6 74.5 12t51.5 20.5t37.5 42t10.5 71.5v991q0 46 -12 75t-42 43t-49 18t-63 8q-5 1 -8 1v51h690v-51
q-28 -2 -39.5 -3t-36 -5t-35.5 -9t-28 -16t-25 -25.5t-14 -36.5t-6 -50v-424h493v424q0 28 -6 50t-14 36.5t-25 25.5t-28 16t-35.5 9t-36 5t-39.5 3v51h696v-51q-36 -2 -54 -4.5t-46.5 -11t-42.5 -22.5t-25.5 -41.5t-11.5 -65.5v-991q0 -30 5 -52.5t18.5 -37.5t25 -24
t37 -15.5t42.5 -9t52 -7.5z" />
    <glyph glyph-name="I" unicode="I" horiz-adv-x="796" 
d="M758 51v-51h-717v51q35 3 53.5 5.5t44.5 8.5t39.5 15.5t27.5 24.5t19.5 38t5.5 54v991q0 28 -6.5 50t-14 36.5t-25 25.5t-29.5 16t-37 9t-37 5t-41 3v51h717v-51q-26 -1 -36.5 -1.5t-34 -3t-34 -6.5t-28.5 -11t-26.5 -17.5t-18 -25t-13.5 -35t-4 -45.5v-991
q0 -38 10.5 -64.5t24.5 -41t44 -23.5t51.5 -11.5t64.5 -5.5z" />
    <glyph glyph-name="J" unicode="J" 
d="M981 1384v-51q-27 -2 -37.5 -3t-32 -3.5t-30 -6t-24 -10.5t-21.5 -16t-15.5 -23t-12.5 -31.5t-6 -41.5t-3 -53v-893q0 -107 -27 -188.5t-69 -130t-103 -79t-120 -41t-128 -10.5q-86 0 -153 24t-102 57t-57 73t-28 65t-6 41q0 77 46.5 117.5t99.5 40.5q27 0 58.5 -13.5
t60 -50.5t28.5 -89q0 -43 -27.5 -75.5t-27.5 -58.5q0 -27 24 -45t66 -18q38 0 65 13.5t39.5 30t19.5 45.5t8 45.5t1 43.5v1139q0 29 -6 51.5t-14 37.5t-25.5 25.5t-30 15.5t-40 8.5t-42.5 4.5t-49 2v51h721z" />
    <glyph glyph-name="K" unicode="K" horiz-adv-x="1593" 
d="M1575 51v-51h-688v51q97 3 129.5 11t32.5 32q0 31 -50 90l-372 465l-56 -51v-401q0 -36 9.5 -61t21.5 -39t40.5 -24t48 -13.5t61.5 -8.5v-51h-691v51q35 4 53 6.5t43 8.5t37 15.5t24.5 24.5t17 37.5t4.5 53.5v991q0 28 -5.5 50t-13 36.5t-23 25t-27 16t-34.5 9.5t-35.5 5
t-40.5 3v51h693v-51q-32 -2 -46.5 -3.5t-38.5 -6.5t-35 -12t-26 -20.5t-21 -32.5t-11 -47.5t-5 -65.5v-438l445 446q46 46 60 66t14 47q0 36 -33 48.5t-142 18.5v51h592v-51q-33 -2 -60.5 -5.5t-58 -14.5t-52.5 -18.5t-55 -30t-53 -35.5t-61 -49.5t-63.5 -57t-74.5 -73
t-82 -82.5t-97 -99l625 -774q21 -25 42.5 -33t57.5 -10z" />
    <glyph glyph-name="L" unicode="L" horiz-adv-x="1366" 
d="M1307 465l-84 -465h-1184v51q37 5 53.5 7.5t42 9t36.5 15t23.5 24t16.5 37.5t4 53v991q0 33 -6 57t-20 39.5t-26.5 24.5t-38 14t-39.5 6.5t-46 3.5v51h715v-51q-35 -1 -50.5 -2t-41.5 -4.5t-37 -8.5t-27.5 -14t-23 -22t-14.5 -32.5t-10.5 -45t-2.5 -59.5v-967
q0 -71 37.5 -93t144.5 -22q90 0 163.5 20.5t125 53.5t95.5 87.5t73.5 109.5t60.5 131h60z" />
    <glyph glyph-name="M" unicode="M" horiz-adv-x="1933" 
d="M1886 51v-51h-680v51q46 4 67.5 7.5t49 13t38.5 24.5t19.5 42t8.5 67v1032h-5l-512 -1237h-55l-512 1206h-4v-952q0 -110 41 -153t166 -50v-51h-479v51q118 10 152 41.5t34 122.5v973q0 79 -36.5 108t-145.5 37v51h518l410 -966l409 966h516v-51q-32 -2 -46.5 -3.5
t-38.5 -6.5t-34.5 -12t-25 -20.5t-20.5 -32.5t-10.5 -47.5t-4.5 -65.5v-905q0 -35 3.5 -61t8 -45t17.5 -32t23 -20.5t34 -13.5t41 -9t53 -8z" />
    <glyph glyph-name="N" unicode="N" horiz-adv-x="1478" 
d="M33 0v51q35 4 56.5 7.5t44.5 11t35.5 18t23.5 28t15.5 41.5t4.5 58v971q-54 66 -90.5 100.5t-51.5 40.5t-32 6v51h432l711 -874h4v620q0 51 -6.5 83t-26.5 59.5t-58.5 42t-99.5 18.5v51h441v-51q-54 -7 -86.5 -19t-48.5 -34t-20.5 -45.5t-4.5 -65.5v-1206h-57l-912 1110
h-4v-819q0 -109 40 -150t155 -53v-51h-465z" />
    <glyph glyph-name="O" unicode="O" horiz-adv-x="1593" 
d="M797 1348q-83 0 -147.5 -40.5t-104.5 -105t-65.5 -153.5t-35.5 -177t-10 -184q0 -51 1.5 -93.5t9.5 -114t21.5 -127.5t41 -119.5t64.5 -106t95 -70.5t130 -28t130 28t95 70.5t64 106t40.5 119.5t21.5 127.5t9.5 114t1.5 93.5q0 96 -10 184t-35.5 177t-65 153.5t-104 105
t-147.5 40.5zM797 1415q148 0 280 -51.5t230.5 -144t156.5 -230.5t58 -301q0 -212 -93.5 -378t-258.5 -257.5t-373 -91.5t-373 91.5t-258.5 257.5t-93.5 378q0 163 58 301t156.5 230.5t230.5 144t280 51.5z" />
    <glyph glyph-name="P" unicode="P" horiz-adv-x="1251" 
d="M33 0v51q71 11 89.5 16t29.5 13q16 11 25.5 23.5t18.5 47.5t9 89v905q0 42 -4.5 72.5t-16.5 50.5t-23 31.5t-35.5 18.5t-41 9.5t-51.5 5.5v51h659q42 0 82 -2.5t96 -11.5t103 -24.5t96 -44.5t83 -67t55.5 -96.5t21.5 -129.5q0 -33 -7 -67t-24.5 -79t-57.5 -88.5
t-98 -75.5q-91 -52 -184 -63.5t-321 -13.5v-381q0 -32 1.5 -55t7.5 -42t10.5 -31t18.5 -22t23 -15t32 -10t38 -7.5t49 -6.5v-51h-684zM537 1241v-549h22q90 0 147.5 13.5t97.5 49t56.5 94.5t16.5 152q0 172 -56.5 242t-185.5 70q-95 0 -98 -72z" />
    <glyph glyph-name="Q" unicode="Q" horiz-adv-x="1593" 
d="M1495 -240l12 -49q-106 -39 -192 -55t-187 -16q-14 0 -31.5 1t-65.5 8t-91.5 19t-102 38.5t-107 63t-95 95t-76.5 131.5q-119 35 -214.5 107.5t-153.5 164.5t-88.5 192.5t-30.5 201.5q0 173 57.5 316.5t156.5 238t231 146.5t280 52t280 -51.5t230.5 -144t156.5 -230.5
t58 -301q0 -264 -141.5 -451.5t-376.5 -248.5q55 -129 151 -190.5t203 -61.5q51 0 137 24zM797 1348q-83 0 -147.5 -40.5t-104.5 -105t-65.5 -153.5t-35.5 -177t-10 -184q0 -51 1.5 -93.5t9.5 -114t21.5 -127.5t41 -119.5t64.5 -106t95 -70.5t130 -28t130 28t95 70.5t64 106
t40.5 119.5t21.5 127.5t9.5 114t1.5 93.5q0 96 -10 184t-35.5 177t-65 153.5t-104 105t-147.5 40.5z" />
    <glyph glyph-name="R" unicode="R" horiz-adv-x="1478" 
d="M565 1229v-522q71 1 121 5.5t95 17.5t72.5 34.5t48.5 56.5t29.5 83.5t8.5 115.5q0 153 -61.5 224t-186.5 71q-42 0 -66 -3.5t-36.5 -16.5t-16 -25t-8.5 -41zM1464 51v-51h-420l-423 641h-56v-401q0 -35 3.5 -61t8 -45t17.5 -32t23 -20.5t34 -13.5t41 -9t53 -8v-51h-692
v51q42 5 62 8t45.5 11t35.5 19t20.5 31.5t13.5 49t3 70.5v905q0 37 -4.5 65.5t-10 47.5t-20 32.5t-25 20.5t-34.5 12t-38.5 6.5t-47.5 3.5v51h660q40 0 77.5 -1.5t98.5 -9.5t111.5 -22t106.5 -41t94.5 -64t63.5 -94t25 -128q0 -52 -13 -97t-30.5 -76.5t-49 -59.5t-54.5 -44
t-62.5 -33t-57.5 -23t-54 -17l411 -584q31 -39 84 -39z" />
    <glyph glyph-name="S" unicode="S" horiz-adv-x="1138" 
d="M991 973h-57q-12 47 -32.5 94.5t-55.5 100t-78 92.5t-105 66t-131 26q-88 0 -153.5 -51t-65.5 -144q0 -83 41 -130.5t170 -111.5l301 -149q32 -16 66 -43.5t72.5 -73t63 -114t24.5 -146.5q0 -57 -16 -114t-54.5 -114.5t-95 -101t-145 -71t-197.5 -27.5q-85 0 -158.5 17.5
t-121 35t-70.5 17.5q-20 0 -33.5 -12t-18.5 -24.5t-10 -33.5h-59v506h59q17 -84 47.5 -157t79.5 -138.5t124.5 -104t168.5 -38.5q50 0 91.5 11.5t67 29t45 41.5t29 45.5t15.5 45t7 35.5t1 21q0 40 -12 73t-29 55.5t-51 46t-61 38t-76 37.5l-138 65q-72 35 -129 73
t-93.5 70.5t-62 71t-38 64.5t-19 61.5t-7.5 52.5t-1 46q0 44 9 90.5t39 105t77 102.5t132 74.5t196 30.5q71 0 138 -16.5t113 -33.5t68 -17q32 0 45.5 17t22.5 52h61v-444z" />
    <glyph glyph-name="T" unicode="T" horiz-adv-x="1366" 
d="M1051 51v-51h-732v51q35 3 52 4.5t42 6t35.5 9.5t25.5 14.5t21 22.5t12.5 32t8.5 43t2 57v1079q-34 -2 -50.5 -3t-51.5 -6t-55.5 -11.5t-52 -19t-51.5 -29.5t-44.5 -43t-40 -58.5t-29 -77.5t-20.5 -98h-60l7 411h1228l5 -411h-60q-7 53 -20.5 98t-29 77.5t-40 58.5
t-44.5 43t-51.5 29.5t-51.5 19t-55 11.5t-51.5 6l-49.5 3v-1079q0 -44 3.5 -73.5t15.5 -50.5t23.5 -32t40 -18t50 -9.5t68.5 -5.5z" />
    <glyph glyph-name="U" unicode="U" horiz-adv-x="1478" 
d="M1436 1384v-51q-47 -7 -73.5 -15.5t-48 -27t-30 -50t-8.5 -81.5v-653q0 -107 -28 -219.5t-87 -175.5q-70 -77 -183 -113.5t-220 -36.5q-269 0 -416 129q-50 44 -77 82.5t-45.5 110.5t-18.5 178v684q0 26 -1.5 47t-5.5 37.5t-7 29.5t-12 23t-14.5 17t-19 12.5t-21 8
t-26 5.5t-28.5 4.5t-33 3.5v51h692v-51h-2q-100 -5 -132 -19q-53 -25 -63 -115q-2 -24 -2 -54v-684q0 -37 0.5 -60t6.5 -69.5t16 -78t32 -71t52.5 -63.5t78.5 -41t109 -17q74 0 133.5 18.5t96.5 46t64.5 70.5t40.5 79t20.5 86.5t8.5 78t1 66.5v624q0 52 -7 84.5t-27.5 60.5
t-61 41.5t-105.5 16.5v51h451z" />
    <glyph glyph-name="V" unicode="V" horiz-adv-x="1478" 
d="M1436 1384v-51q-43 -5 -70 -15t-48 -31.5t-34.5 -48t-32.5 -73.5l-467 -1202h-55l-524 1227q-20 46 -36 72t-38 40.5t-40 19.5t-58 11v51h688v-51q-112 -7 -137 -17q-38 -18 -39 -69q0 -18 9 -45.5t30 -77t22 -53.5l268 -647l261 674q41 107 41 141q0 29 -10 47t-36 27.5
t-53 13t-78 6.5v51h437z" />
    <glyph glyph-name="W" unicode="W" horiz-adv-x="2048" 
d="M2009 1384v-51q-101 -8 -141 -131l-410 -1233h-55l-344 959h-15l-372 -959h-58l-434 1233q-27 74 -52 98t-89 33v51h602v-51q-29 -2 -42.5 -4t-34.5 -7t-30 -13.5t-16.5 -24t-7.5 -37.5q0 -27 14 -67l244 -740h4l240 625l-72 197q-22 37 -50 52.5t-97 18.5v51h639v-51
q-90 -6 -115 -19q-33 -16 -33 -59q0 -18 29 -112l219 -682h4l227 696q15 50 15 86q0 24 -9 41t-19.5 25.5t-34.5 14t-36.5 6.5t-42.5 3v51h373z" />
    <glyph glyph-name="X" unicode="X" horiz-adv-x="1478" 
d="M1409 1384v-51q-101 -9 -160 -47q-68 -44 -176 -185q-55 -72 -213 -294l373 -580q40 -61 68 -97.5t52 -52.5t38.5 -20t40.5 -6v-51h-697v51q48 3 72 5.5t48.5 9t34 19t9.5 32.5q0 14 -13.5 47t-29.5 59l-207 332l-78 -104q-120 -160 -156 -221t-36 -93q0 -17 6.5 -30.5
t21 -22.5t28 -14.5t36.5 -9.5t36.5 -5.5t37.5 -3.5v-51h-512v51q34 5 54 9.5t49.5 16t56.5 33.5t53 56l358 452l-405 596q-21 31 -32.5 46t-32 34.5t-44.5 28.5t-55 10v51h708v-51q-109 -7 -132 -17q-29 -12 -29 -50q0 -20 5.5 -34t24.5 -42l199 -307q175 243 204 290.5
t29 88.5q0 22 -9.5 36t-28 20.5t-44 9.5t-58.5 5h-7v51h512z" />
    <glyph glyph-name="Y" unicode="Y" horiz-adv-x="1478" 
d="M1432 1384v-51q-22 -3 -34 -6t-34 -11t-40 -24t-32 -39l-391 -637v-376q0 -32 1.5 -56t8 -43t12 -31.5t20 -22.5t24.5 -15t34 -9.5t39.5 -6.5t49.5 -5v-51h-711v51q34 3 49.5 5t39.5 6.5t34 9.5t24.5 15t20 22.5t12 31t8.5 43t2 56.5v301l-374 680q-59 106 -164 112v51
h686v-51q-105 0 -135.5 -13t-30.5 -56q0 -14 7.5 -33t23 -48t18.5 -34l246 -475l227 379q80 131 80 190q0 20 -5 34t-19 23.5t-25.5 15t-36.5 9t-39.5 5t-46.5 3.5v51h451z" />
    <glyph glyph-name="Z" unicode="Z" horiz-adv-x="1366" 
d="M1298 494l-53 -494h-1188v33l783 1280q-254 -7 -308 -11.5t-106 -19.5q-37 -11 -68.5 -31t-56.5 -50.5t-42 -55t-35 -65.5t-25 -59.5t-21 -57.5h-57l43 421h1073v-32l-776 -1280q26 0 73.5 -1t69.5 -1q85 0 144.5 3.5t122.5 13.5t107 29t87.5 50t74.5 76.5t58 107.5
t47 144h53z" />
    <glyph glyph-name="bracketleft" unicode="[" horiz-adv-x="681" 
d="M616 1389v-68h-129q-86 0 -111.5 -26t-25.5 -117v-1307q0 -30 2 -45.5t11.5 -32.5t31.5 -24t58 -7h163v-67h-479v1694h479z" />
    <glyph glyph-name="backslash" unicode="\" horiz-adv-x="569" 
d="M432 -39l-483 1454h190l482 -1454h-189z" />
    <glyph glyph-name="bracketright" unicode="]" horiz-adv-x="681" 
d="M66 -305v67h163q37 0 59 6.5t31 23.5t11 32t2 47v1307q0 91 -25.5 117t-111.5 26h-129v68h479v-1694h-479z" />
    <glyph glyph-name="asciicircum" unicode="^" horiz-adv-x="1189" 
d="M332 637h-182l364 747h164l364 -747h-182l-264 557z" />
    <glyph glyph-name="underscore" unicode="_" 
d="M0 -154h1024v-102h-1024v102z" />
    <glyph glyph-name="grave" unicode="`" horiz-adv-x="681" 
d="M504 1081h-115l-291 181q-41 25 -61.5 50t-20.5 58q0 30 24.5 60t76.5 30q57 0 106 -57z" />
    <glyph glyph-name="a" unicode="a" 
d="M969 131l30 -43q-98 -117 -225 -117q-41 0 -71.5 10.5t-47 23t-29 36t-16 36.5t-8.5 38q-46 -46 -98 -78t-98 -44.5t-75.5 -17t-54.5 -4.5q-39 0 -77 12.5t-72 38t-55 69t-21 99.5q0 45 16.5 84t40.5 69t69.5 59.5t84 49.5t105.5 44.5t111.5 38.5t123.5 38v150
q0 88 -37 134t-143 46q-52 0 -86.5 -23.5t-34.5 -50.5q0 -17 15.5 -35.5t30.5 -44t15 -59.5q0 -38 -33.5 -76.5t-103.5 -38.5q-13 0 -24 1t-33.5 8.5t-38 21t-27.5 42t-12 67.5q0 104 101 179t282 75t295.5 -71.5t114.5 -209.5v-534q0 -52 45 -52q11 0 20 9zM600 205v297
q-20 -4 -44.5 -12t-63 -28.5t-68.5 -46t-52 -68.5t-22 -93q0 -54 27 -95.5t78 -41.5q32 0 63.5 17.5t45 31t36.5 39.5z" />
    <glyph glyph-name="b" unicode="b" horiz-adv-x="1138" 
d="M35 1335v49h397v-530q20 21 36 35t48 35.5t74.5 33t91.5 11.5q174 0 279.5 -135t105.5 -340q0 -80 -17 -154.5t-54 -142t-91.5 -117.5t-135.5 -79.5t-179 -29.5q-136 0 -256 117l-162 -115h-25v1244q0 66 -23.5 86t-88.5 32zM432 737v-538q0 -25 6 -50t20.5 -51.5
t43.5 -43.5t69 -17q64 0 105.5 38.5t65.5 134.5t24 253q0 32 -1 60.5t-5.5 70t-12.5 76t-22.5 70.5t-34 61t-49 41t-66.5 16q-33 0 -58.5 -11.5t-42.5 -33.5t-24.5 -37t-17.5 -39z" />
    <glyph glyph-name="c" unicode="c" horiz-adv-x="909" 
d="M844 223l37 -37q-72 -102 -172.5 -158.5t-219.5 -56.5q-127 0 -228.5 65t-155.5 171.5t-54 232.5q0 116 32 209.5t82.5 151.5t116 97t128.5 55t125 16q76 0 146.5 -24.5t120.5 -77t50 -122.5q0 -37 -13.5 -64t-30 -39t-40 -19t-34 -8t-21.5 -1q-24 0 -42.5 6.5
t-30.5 15.5t-20.5 27t-12.5 32t-6 40.5t-2.5 42.5t-0.5 47q0 41 -27 60.5t-57 19.5q-38 0 -68 -18.5t-48 -51t-30.5 -67.5t-18 -77.5t-7.5 -71.5t-2 -58q0 -209 80.5 -330.5t204.5 -121.5q42 0 75.5 9t61 28.5t42.5 34t40 42.5z" />
    <glyph glyph-name="d" unicode="d" horiz-adv-x="1138" 
d="M1094 88v-47q-197 -24 -252 -33t-148 -35v133q-35 -37 -55.5 -55.5t-55 -40t-76 -30.5t-97.5 -9q-65 0 -128 32.5t-115 90.5t-84 149t-32 199q0 128 34.5 231.5t91 166.5t126 96t143.5 33q44 0 81.5 -11t69 -33.5t49 -39t42.5 -43.5v375q0 21 -1.5 36t-7.5 27l-10 20
t-17.5 14t-20 9t-28 5.5t-31.5 3.5t-40 3v49h441v-1177q0 -26 3 -42t13.5 -35.5t36.5 -30t68 -11.5zM688 229v498q0 2 -5.5 14t-18 31.5t-30 37.5t-46 31t-60.5 13q-52 0 -88 -30.5t-54 -87.5t-25 -120t-7 -145q0 -37 0.5 -59.5t3.5 -68t9 -75t18 -67.5t29 -60.5t43.5 -38.5
t60.5 -16q61 0 115.5 58t54.5 85z" />
    <glyph glyph-name="e" unicode="e" horiz-adv-x="909" 
d="M336 578h274q0 7 -1 40.5t-1.5 52t-2.5 47.5t-5 51.5t-8 39.5q-26 96 -111 96q-32 0 -55.5 -12t-45 -44.5t-33 -100.5t-11.5 -170zM823 256l49 -29q-92 -140 -186 -198t-219 -58q-80 0 -152.5 30t-132.5 89t-95.5 158t-35.5 225q0 223 120.5 359.5t301.5 136.5
q73 0 133 -21t99 -51.5t68.5 -77t45 -86.5t26 -91t13 -78.5t4.5 -61.5h-516q13 -383 246 -383q42 0 79.5 13t69 39.5t45 41.5t37.5 43z" />
    <glyph glyph-name="f" unicode="f" horiz-adv-x="681" 
d="M29 0v49q27 3 40 5.5t30.5 10t25.5 19.5t14 34t6 54v682h-116v90h116q0 57 1 90t8 89.5t20.5 90.5t41 77t66 66.5t99 40.5t137.5 17q67 0 128.5 -21t106 -69t44.5 -115q0 -56 -34.5 -91.5t-94.5 -35.5q-58 0 -89.5 36.5t-31.5 74.5q0 30 22.5 68t22.5 51q0 39 -62 39
q-28 0 -48 -12t-29.5 -27t-15 -40t-6.5 -40.5t-1 -38.5v-250h178v-90h-178v-643q0 -54 7 -84.5t28 -48t50 -22.5t83 -7v-49h-569z" />
    <glyph glyph-name="g" unicode="g" 
d="M987 815h-166q82 -82 82 -203q0 -97 -54 -170.5t-161 -107.5q-45 -14 -78.5 -16.5t-179.5 -2.5q-35 0 -75 -30t-40 -72q0 -18 4 -30t16.5 -20t24.5 -12.5t40 -7t51 -3l69 -1.5l133 -2q31 -1 60 -4t71 -11t75.5 -26t64 -43.5t48 -68.5t17.5 -97q0 -309 -526 -309
q-190 0 -298 50t-108 136q0 62 51.5 104.5t137.5 49.5v4q-41 15 -65 26.5t-48.5 30.5t-35.5 47t-11 66q0 46 24.5 87t63 69.5t77 48t75.5 29.5v4q-116 42 -183 123.5t-67 189.5q0 63 26.5 120.5t77.5 104t132.5 74t183.5 27.5q113 0 225 -45h266v-109zM664 -106h-355
q-40 -33 -55.5 -57.5t-15.5 -57.5q0 -45 32 -75.5t81.5 -41.5t79.5 -14.5t56 -3.5q340 0 340 145q0 105 -163 105zM356 637q0 -48 2.5 -82.5t10.5 -71t22.5 -59t40 -37t60.5 -14.5q37 0 63.5 17t40 41t21 63.5t9 69t1.5 73.5q0 33 -1 53t-4 56.5t-12 60t-23 48.5t-38.5 37.5
t-56.5 12.5q-30 0 -53 -10.5t-37.5 -31t-24 -43.5t-14 -56.5t-6 -61.5t-1.5 -65z" />
    <glyph glyph-name="h" unicode="h" horiz-adv-x="1138" 
d="M1094 49v-49h-482v49q51 4 74 32t23 85v496q0 24 -1 40.5t-7 43t-17 43t-33.5 29.5t-54.5 13q-37 0 -79 -26t-66.5 -54t-24.5 -38v-547q0 -22 2.5 -37.5t11.5 -34t31 -30t55 -15.5v-49h-493v49q33 6 49 11t32 18t21.5 35t5.5 59v1045q0 67 -20.5 86t-87.5 32v49h393v-575
q72 85 142 122.5t151 37.5q36 0 72 -8t73 -29t65 -52.5t46 -83t18 -116.5v-508q0 -123 101 -123z" />
    <glyph glyph-name="i" unicode="i" horiz-adv-x="569" 
d="M522 49v-49h-489v49l34 8.5t26 9t22 14t13.5 20t10 30t2.5 41.5v602q0 65 -22.5 87.5t-85.5 33.5v49h393v-778q0 -53 20 -82t76 -35zM123 1255q0 66 46 113t114 47q66 0 111.5 -47t45.5 -113q0 -67 -45.5 -112t-111.5 -45q-70 0 -115 45t-45 112z" />
    <glyph glyph-name="j" unicode="j" horiz-adv-x="681" 
d="M532 944v-940q0 -28 -0.5 -46t-4 -54t-9.5 -61.5t-19.5 -61.5t-31.5 -61t-47 -52.5t-65.5 -44.5t-87 -28t-111.5 -11q-45 0 -90.5 12t-87.5 35.5t-68.5 65.5t-26.5 96q0 47 33.5 84t93.5 37q57 0 89 -36t32 -75q0 -28 -23.5 -67.5t-23.5 -52.5q0 -15 16.5 -23.5t28.5 -10
t21 -1.5q57 0 77.5 40.5t20.5 114.5v971q0 33 -7.5 55.5t-16 34t-30 18.5t-33.5 8.5t-42 4.5v49h413zM221 1255q0 66 45 113t113 47q66 0 113 -47t47 -113q0 -67 -46.5 -112t-113.5 -45q-70 0 -114 45t-44 112z" />
    <glyph glyph-name="k" unicode="k" horiz-adv-x="1138" 
d="M1051 944v-47q-69 -12 -104 -24.5t-75 -45.5q-44 -36 -108.5 -96t-99.5 -102l397 -549q21 -31 51 -31v-49h-479v49q31 0 58.5 8.5t27.5 30.5q0 26 -49 92l-195 275l-47 -49v-234q0 -69 17.5 -91t89.5 -32v-49h-490v49q38 0 61.5 22t30 47t6.5 54v1045q0 118 -98 118v49
h383v-882l262 262q14 14 28.5 38t14.5 36q0 29 -21 38.5t-100 20.5v47h439z" />
    <glyph glyph-name="l" unicode="l" horiz-adv-x="569" 
d="M522 49v-49h-489v49q55 0 79.5 38t24.5 85v1045q0 11 -1 21.5t-7 29.5t-16 32.5t-31 24t-49 10.5v49h389v-1212q0 -123 100 -123z" />
    <glyph glyph-name="m" unicode="m" horiz-adv-x="1705" 
d="M1667 49v-49h-487v49q29 1 49 9.5t29.5 18.5t15 28.5t6 29.5t0.5 31v496q0 27 -0.5 42.5t-6.5 43t-17 43t-33 28t-54 12.5q-30 0 -63 -16t-56 -37t-38 -39.5t-15 -25.5v-547q0 -54 21 -83.5t76 -33.5v-49h-480v49q35 2 56.5 13t30 31t10.5 34.5t2 38.5v496q0 23 -0.5 36
t-3.5 36.5t-10.5 37.5t-19 29t-32 22.5t-47.5 7.5q-31 0 -63.5 -16t-55 -37t-37 -39.5t-14.5 -25.5v-547q0 -53 19 -82t75 -35v-49h-491v49q31 5 47 10.5t33.5 18t24.5 35.5t7 59v602q0 38 -8 62t-27 35.5t-33.5 15.5t-43.5 8v49h391v-147h4q15 25 35 49t55.5 54.5t88 49.5
t112.5 19q53 0 96.5 -13t69 -29.5t48.5 -45.5t31.5 -45t22.5 -45q70 92 142.5 135t160.5 43q46 0 91 -14.5t88 -45t69.5 -90t26.5 -139.5v-514q0 -26 2 -40.5t10.5 -35t31 -30.5t58.5 -11z" />
    <glyph glyph-name="n" unicode="n" horiz-adv-x="1138" 
d="M1104 49v-49h-481v49q51 4 73.5 32t22.5 85v496q0 24 -1 40.5t-7 43t-17 43t-33.5 29.5t-54.5 13q-37 0 -79 -26t-66.5 -54t-24.5 -38v-547q0 -22 3 -37.5t12 -34t31 -30t55 -15.5v-49h-494v49q33 6 49 11t32.5 18t22 35t5.5 59v602q0 66 -22.5 89t-86.5 32v49h391v-147
h4q15 25 34.5 48.5t55 54.5t88 50t113.5 19q46 0 91 -14.5t88 -45t69.5 -90t26.5 -139.5v-514q0 -20 0.5 -31t6 -29.5t15 -28.5t29.5 -18.5t49 -9.5z" />
    <glyph glyph-name="o" unicode="o" 
d="M352 469q0 -55 0.5 -83t2 -77t6 -75.5t12 -63.5t19.5 -57t29 -40.5t41 -29t54 -8.5q41 0 70.5 21t46.5 55.5t26 93.5t12 118t3 146q0 242 -34 339t-126 97q-32 0 -57 -12.5t-42 -32.5t-29 -54t-18.5 -67t-10 -82.5t-4.5 -89.5t-1 -98zM51 469q0 133 55 246t162.5 183.5
t245.5 70.5q200 0 330.5 -142.5t130.5 -357.5q0 -136 -56 -249t-162.5 -181t-242.5 -68q-138 0 -245 69.5t-162.5 182t-55.5 246.5z" />
    <glyph glyph-name="p" unicode="p" horiz-adv-x="1138" 
d="M438 709v-498q2 -5 5.5 -13.5t17.5 -30t30.5 -38t44.5 -30t60 -13.5q174 0 174 371q0 51 -1.5 89.5t-6.5 88.5t-16 85t-28 67t-44.5 48.5t-63.5 16.5q-61 0 -116.5 -56.5t-55.5 -86.5zM598 -377v-43h-559v49q71 11 93 33.5t22 85.5v1026q0 61 -21.5 86.5t-89.5 34.5v49
h391v-135h4q13 25 25 43.5t34.5 42t48.5 38.5t65.5 25.5t86.5 10.5q67 0 131.5 -28t120 -83t89.5 -149t34 -213q0 -243 -114 -383t-279 -140q-41 0 -74.5 8.5t-64.5 29t-50 36.5t-53 49v-289q0 -59 10.5 -96t34.5 -55.5t49 -24.5t66 -8z" />
    <glyph glyph-name="q" unicode="q" horiz-adv-x="1138" 
d="M700 201v538q0 67 -35.5 115.5t-101.5 48.5q-194 0 -194 -416q0 -203 46 -304t146 -101q35 0 64 16.5t44 39t23 39.5t8 24zM1098 -371v-49h-547v51q35 6 51 9.5t37.5 11.5t29.5 18t17 28t11.5 42.5t2.5 60.5v285q-57 -62 -122.5 -88.5t-120.5 -26.5q-79 0 -147.5 29.5
t-122.5 88.5t-85.5 157t-31.5 225q0 93 30 180.5t86.5 159t147 115t201.5 43.5q129 0 260 -117l159 115h31v-1219q0 -36 6 -57.5t24 -33.5t33 -16.5t50 -11.5z" />
    <glyph glyph-name="r" unicode="r" horiz-adv-x="909" 
d="M604 49v-49h-545v49q31 6 46 10.5t33 17t25 35.5t7 60v602q0 37 -8 60.5t-25.5 35.5t-33.5 16.5t-44 8.5v49h387v-162h5q128 187 268 187q49 0 84.5 -17.5t53 -44.5t25 -51.5t7.5 -46.5t-6.5 -44t-20.5 -44t-41 -35.5t-63 -13.5q-40 0 -69 19t-42.5 41.5t-32 41.5
t-39.5 19q-14 0 -32.5 -10t-39 -30.5t-34.5 -61.5t-14 -93v-387q0 -95 28 -126.5t121 -35.5z" />
    <glyph glyph-name="s" unicode="s" horiz-adv-x="796" 
d="M696 668h-51q-32 109 -99.5 171t-154.5 62q-55 0 -93 -34.5t-38 -82.5q0 -42 26.5 -75t68.5 -56.5t93 -45.5t102.5 -49.5t93.5 -61t68.5 -87.5t26.5 -122q0 -145 -88.5 -230.5t-232.5 -85.5q-45 0 -105.5 15t-105 30t-49.5 15q-17 0 -28.5 -13t-27.5 -45h-51v338h58
q5 -22 10.5 -40t19 -53.5t34.5 -63t50.5 -55t74.5 -43t99 -15.5q71 0 108.5 41.5t37.5 93.5q0 38 -27 69.5t-70 55.5t-95 48t-104 53t-95 63.5t-70 86.5t-27 116q0 134 92 217.5t234 83.5q55 0 131 -22.5t88 -22.5q17 0 28.5 8t14.5 14.5t8 18.5h45v-297z" />
    <glyph glyph-name="t" unicode="t" horiz-adv-x="681" 
d="M625 944v-90h-193v-621q0 -112 80 -112q21 0 39.5 9.5t33.5 28.5t23.5 32.5t20.5 35.5l51 -22q-17 -35 -30.5 -58.5t-41 -59.5t-56.5 -57.5t-74.5 -38t-98.5 -16.5q-45 0 -82 10t-60.5 24.5t-41 37t-26 40.5t-14 42t-6.5 35t-2 26v664h-106v55q92 78 167.5 160.5
t172.5 220.5h51v-346h193z" />
    <glyph glyph-name="u" unicode="u" horiz-adv-x="1138" 
d="M1100 88v-47q-201 -22 -257.5 -31t-140.5 -37v133q-34 -29 -53.5 -44t-60 -41t-84.5 -38t-92 -12q-75 0 -131 24t-87.5 65.5t-46 91t-14.5 106.5v516q0 63 -19 87t-81 34v49h385v-694q0 -24 1 -38t7 -37t17 -36.5t34 -24t55 -10.5q36 0 71 16.5t52 31.5t45 43v579
q0 33 -7.5 55.5t-16 34t-29.5 18.5t-32.5 8.5t-41.5 4.5v49h412v-737q0 -63 24 -90.5t91 -28.5z" />
    <glyph glyph-name="v" unicode="v" 
d="M993 944v-49q-23 -3 -34.5 -6t-27.5 -14t-29 -33.5t-28 -59.5l-327 -811h-53l-246 607q-37 91 -119 262q-13 24 -24 34t-21 13t-41 8v49h512v-49q-74 -7 -92 -18q-17 -12 -17 -37q0 -12 19 -62l162 -416l147 373q23 57 23 92q0 16 -4 28t-14.5 19t-18 11t-25.5 6
t-24.5 2.5t-26.5 1.5v49h309z" />
    <glyph glyph-name="w" unicode="w" horiz-adv-x="1478" 
d="M1448 944v-49q-20 -4 -28.5 -7t-23 -13t-26 -30t-24.5 -52l-318 -822h-47l-205 621h-10l-250 -621h-49l-303 766q-40 100 -58.5 125.5t-58.5 32.5v49h455v-49q-18 -3 -25.5 -4.5t-23 -7.5t-22.5 -18t-7 -31q0 -12 7.5 -38t24 -70t35 -91.5t49 -125.5t56.5 -149l139 351
q-27 96 -43 135q-12 28 -28 36t-53 12q-6 1 -9 1v49h479v-49q-25 -2 -38.5 -4t-29.5 -7t-23 -15t-7 -25q0 -18 22 -99t54 -193.5t47 -176.5h4q20 56 63.5 167t70 184t26.5 93q0 24 -6.5 38.5t-23 22t-29 10t-40.5 5.5v49h277z" />
    <glyph glyph-name="x" unicode="x" 
d="M991 49v-49h-493v49q92 4 92 43q0 26 -37 84q-7 12 -44.5 65t-72.5 109q-49 -59 -106.5 -140t-57.5 -108q0 -17 10 -28t24.5 -15.5t31 -6.5t30.5 -3h7v-49h-346v49q18 2 27.5 4t23 5t25 12.5t24.5 18.5t32 31.5t38 43.5t51 63t62 80.5t81 104.5l-262 403
q-28 43 -47.5 58.5t-58.5 21.5v49h512v-49q-97 0 -97 -41q0 -23 54.5 -104.5t91.5 -128.5q113 145 132 173t19 50q0 30 -19 38t-85 13v49h344v-49q-90 -13 -143 -80l-207 -258l303 -467q19 -29 61 -41z" />
    <glyph glyph-name="y" unicode="y" 
d="M983 944v-49q-22 -3 -33 -6.5t-27.5 -14t-30.5 -33t-28 -59.5l-305 -813q-74 -196 -109 -257q-55 -94 -135 -120q-40 -12 -94 -12q-91 0 -139.5 50.5t-48.5 109.5q0 16 4.5 34t16.5 42.5t41.5 40.5t72.5 16q61 0 88 -33.5t27 -70.5q0 -10 -3.5 -22t-3.5 -15
q0 -10 9 -22.5t26 -12.5q32 0 63 34.5t46.5 68.5t25.5 65l37 108l-245 605q-37 91 -119 262q-13 24 -24 34t-21 13t-41 8v49h512v-49q-30 -2 -41 -3.5t-31.5 -7t-28.5 -16.5t-8 -28q0 -16 41 -119l148 -379l139 393q22 64 22 92q0 23 -9 37.5t-29.5 20.5t-32.5 7.5t-41 2.5
v49h309z" />
    <glyph glyph-name="z" unicode="z" horiz-adv-x="909" 
d="M860 328l-33 -328h-784v51l479 828q-91 -1 -131 -3t-93.5 -13t-78 -35t-48.5 -66t-40 -109h-53l14 291h760v-53l-473 -825h59q114 0 180 20q52 20 94.5 68.5t62.5 92t28 81.5h57z" />
    <glyph glyph-name="braceleft" unicode="{" horiz-adv-x="806" 
d="M264 -70v367q0 105 -45 157.5t-174 80.5q129 28 174 80t45 157v367q0 74 19.5 126.5t53.5 84t90.5 50t118.5 24.5t150 6v-25q-121 -23 -169 -83t-48 -171v-350q0 -59 -8.5 -98t-33 -73.5t-71.5 -56.5t-120 -36v-5q73 -14 120 -36t71.5 -56.5t33 -73.5t8.5 -98v-350
q0 -110 48.5 -170.5t168.5 -81.5v-24q-88 0 -150 6t-119 24t-90.5 49.5t-53 83.5t-19.5 125z" />
    <glyph glyph-name="bar" unicode="|" horiz-adv-x="450" 
d="M135 1602h180v-2048h-180v2048z" />
    <glyph glyph-name="braceright" unicode="}" horiz-adv-x="806" 
d="M111 -358v24q121 23 169 83t48 171v350q0 59 8.5 98t33 74t71.5 57t120 36v4q-73 14 -120 36t-71.5 56.5t-33 73.5t-8.5 98v350q0 110 -48.5 170.5t-168.5 81.5v25q88 0 150 -6t118.5 -24t90.5 -50t53.5 -84t19.5 -125v-367q0 -105 45 -157t174 -80q-129 -28 -174 -80.5
t-45 -157.5v-367q0 -74 -19.5 -126t-53 -84t-90.5 -50t-118.5 -24t-150.5 -6z" />
    <glyph glyph-name="asciitilde" unicode="~" horiz-adv-x="1064" 
d="M932 682l74 -143q-29 -41 -49 -65.5t-52.5 -54t-71 -43.5t-83.5 -14q-84 0 -209 68q-128 72 -236 72q-61 0 -101.5 -41t-70.5 -107l-74 144q92 176 256 176q81 0 228 -66q12 -5 44 -19.5t48 -21t40.5 -15.5t42.5 -13t34 -4q29 0 55 11.5t49.5 36t38 44.5t37.5 55z" />
    <glyph glyph-name="uni00A0" unicode="&#xa0;" horiz-adv-x="512" 
 />
    <glyph glyph-name="exclamdown" unicode="&#xa1;" horiz-adv-x="681" 
d="M514 854q0 -70 -50 -122t-122 -52t-123 51.5t-51 122.5q0 73 50.5 122.5t123.5 49.5t122.5 -50t49.5 -122zM313 520h60q17 -177 43.5 -310t47.5 -190.5t36.5 -117t15.5 -115.5q0 -97 -46.5 -150t-127.5 -53q-79 0 -125.5 53t-46.5 150q0 56 15.5 115.5t36.5 117
t47.5 190.5t43.5 310z" />
    <glyph glyph-name="cent" unicode="&#xa2;" 
d="M461 262l196 551v6q0 42 -27.5 64t-58.5 22q-39 0 -69.5 -20t-48.5 -55t-30 -71.5t-17.5 -79.5t-7 -69t-1.5 -49q0 -177 64 -299zM879 1204l-99 -278q129 -64 129 -181q0 -37 -14 -64t-31 -39t-40 -19t-32.5 -8t-17.5 -1q-57 0 -90 41l-168 -471q69 -75 166 -75
q43 0 79 10t63.5 30.5t42 35t34.5 38.5l37 -37q-151 -215 -389 -215q-55 0 -105 15l-96 -273h-82l105 297q-117 50 -189.5 165t-72.5 284q0 123 43 223t112.5 161t153 93.5t170.5 32.5q53 0 119 -17l90 252h82z" />
    <glyph glyph-name="sterling" unicode="&#xa3;" 
d="M786 764v-133h-223q4 -37 4 -142q0 -106 -41 -215q114 -45 193 -45q57 0 95 9.5t60.5 31t34 45t21.5 60.5h47q-3 -44 -6 -71t-11.5 -74.5t-19.5 -78t-31.5 -68t-47 -59.5t-66 -37.5t-88.5 -15.5q-56 0 -113.5 26t-140.5 103q-19 -25 -32.5 -39.5t-43.5 -38.5t-71.5 -36.5
t-92.5 -12.5q-19 0 -43 6t-55 21.5t-51.5 51.5t-20.5 87q0 23 2 42.5t14 50t33.5 51.5t64 37t101.5 16q53 0 107 -14q-1 27 -5.5 57.5t-16 68.5t-18.5 59t-23.5 67.5t-20.5 56.5h-201v133h164q-29 162 -29 233q0 52 12 104.5t42.5 107.5t75.5 97t117.5 68.5t162.5 26.5
q64 0 116 -12t84 -29.5t56 -42.5t34.5 -45.5t17 -46t7 -35.5t0.5 -21q0 -64 -35 -105.5t-110 -41.5q-53 0 -87 36t-34 97l4 90q0 94 -90 94q-63 0 -89 -42t-26 -103q0 -32 35 -212t45 -218h233zM109 135q0 -38 21.5 -62t44 -31t44.5 -7q39 0 68 13.5t45.5 38.5t24 43.5
t14.5 45.5q-24 21 -39 32t-46.5 22.5t-68.5 11.5q-32 0 -55 -12t-33.5 -31t-15 -34.5t-4.5 -29.5z" />
    <glyph glyph-name="currency" unicode="&#xa4;" 
d="M772 692q0 110 -75 190.5t-187 80.5q-108 0 -183 -81t-75 -190q0 -112 74.5 -193t183.5 -81q112 0 187 81t75 193zM-53 244l200 200q-75 101 -75 248q0 145 75 248l-200 201l119 114l196 -196q104 71 248 71q148 0 252 -71l196 196l119 -114l-200 -201q75 -110 75 -248
q0 -154 -75 -248l200 -200l-119 -119l-196 201q-111 -76 -252 -76q-137 0 -248 76l-196 -201z" />
    <glyph glyph-name="yen" unicode="&#xa5;" 
d="M922 598h-269l-8 -23v-137h277v-102h-277v-100q0 -28 3 -50.5t7 -39.5t14 -30t17 -22t24 -16t26.5 -11t33.5 -7.5t36 -4.5t42 -4v-51h-678v51q28 2 38.5 3.5t33.5 4.5t32 5.5t26.5 8t24.5 12.5t18.5 17t16 22.5t10 29t7.5 37t2 45.5v100h-277v102h277v117l-23 43h-254
v102h203l-266 523q-52 103 -170 108v53h616v-53q-90 0 -123.5 -14t-33.5 -51q0 -24 39 -106t118 -234t113 -221h4l182 354q27 47 39.5 70.5t24.5 57t12 58.5q0 19 -5 33.5t-18 23.5t-23.5 14.5t-34.5 8.5t-36.5 4t-42.5 2v53h420v-53q-62 -8 -92 -29q-24 -18 -39 -47
l-223 -419l-72 -136h228v-102z" />
    <glyph glyph-name="brokenbar" unicode="&#xa6;" horiz-adv-x="450" 
d="M135 1448h180v-717h-180v717zM135 424h180v-717h-180v717z" />
    <glyph glyph-name="section" unicode="&#xa7;" 
d="M827 -8q0 -111 -92 -186.5t-250 -75.5q-50 0 -101 13t-96.5 38t-74.5 66.5t-29 91.5q0 40 32 84.5t95 44.5q62 0 98.5 -37t36.5 -76q0 -27 -14.5 -47.5t-32.5 -30.5t-32.5 -20.5t-14.5 -20.5q0 -9 10.5 -21t46 -25t89.5 -13q81 0 118 38.5t37 102.5q0 40 -11.5 69t-25 44
t-38.5 35l-117 94q-20 17 -57 48q-66 55 -95 80t-70.5 64t-57.5 61t-34.5 54.5t-24 62t-5.5 66.5q0 64 17.5 112t43 74.5t61.5 43t65.5 21.5t62.5 5q6 0 16.5 -1t15.5 -1l4 4q-101 89 -132 126q-68 81 -68 163q0 123 85.5 197.5t207.5 74.5q83 0 147 -22.5t97 -55.5
t49 -63.5t16 -54.5q0 -37 -15.5 -66t-38 -43.5t-42 -21.5t-33.5 -7q-49 0 -88 38t-39 79q0 29 21.5 54t43 43.5t21.5 29.5q0 8 -10 17.5t-40 17.5t-73 8q-66 0 -112 -39.5t-46 -107.5q0 -37 30.5 -77.5t79.5 -79.5t107.5 -82t117.5 -92.5t108 -101.5t79.5 -117.5
t30.5 -133.5q0 -48 -11.5 -86.5t-28 -63t-43 -42.5t-49 -27t-55 -14.5t-50.5 -6.5t-45 -2v-4q202 -135 202 -299zM270 690q0 -65 35 -109t148 -139q36 -31 60 -49t59.5 -34.5t66.5 -16.5q57 0 85 36.5t28 82.5q0 42 -15.5 70t-72.5 87q-10 10 -22 21.5t-49.5 44.5t-69.5 56
t-71.5 43t-66.5 20q-23 0 -47 -8t-46 -35.5t-22 -69.5z" />
    <glyph glyph-name="dieresis" unicode="&#xa8;" horiz-adv-x="681" 
d="M-4 1233q0 45 35 89t94 44q54 0 92.5 -39.5t38.5 -95.5q0 -55 -37.5 -93t-93.5 -38q-60 0 -94.5 43.5t-34.5 89.5zM426 1233q0 46 34 89.5t93 43.5q54 0 93.5 -40t39.5 -95t-38 -93t-95 -38q-60 0 -93.5 43.5t-33.5 89.5z" />
    <glyph glyph-name="copyright" unicode="&#xa9;" horiz-adv-x="1529" 
d="M766 -39q-200 0 -363.5 96t-256.5 262.5t-93 366.5q0 201 93 368.5t256.5 264t363.5 96.5q199 0 362.5 -96.5t256 -263.5t92.5 -369q0 -201 -92.5 -367t-255.5 -262t-363 -96zM766 68q156 0 286.5 84t204.5 226t74 308q0 167 -73.5 310t-204 228t-287.5 85
q-158 0 -288.5 -85t-204.5 -228t-74 -310q0 -166 74 -308t204.5 -226t288.5 -84zM1075 524h39l-33 -151q-2 -23 -50 -42q-4 -2 -7 -3t-47.5 -12.5t-86.5 -18t-85 -6.5q-203 0 -324 106.5t-121 311.5q0 55 14.5 109t49.5 108.5t86.5 95.5t131.5 66.5t179 25.5q19 0 37.5 -1
t32 -2.5t30.5 -4.5l25.5 -4.5t24.5 -6.5t21 -6.5t22 -7t20 -6.5q45 -14 45 -43v-147h-39q-18 77 -70 129.5t-151 52.5q-122 0 -185 -94t-65 -254v-10q0 -169 61.5 -270t194.5 -101q166 0 250 186z" />
    <glyph glyph-name="ordfeminine" unicode="&#xaa;" horiz-adv-x="614" 
d="M596 907l20 -24q-63 -70 -145 -70q-33 0 -55.5 7.5t-34 23t-15.5 25.5t-8 28q-90 -84 -211 -84q-58 0 -103.5 34t-45.5 103q0 31 12.5 57t39.5 47t56 37.5t75 32t82 26t91 24.5v81q0 53 -21.5 80t-84.5 27q-34 0 -57 -14t-23 -29q0 -12 20.5 -33.5t20.5 -42.5
q0 -24 -23 -46.5t-73 -22.5q-88 0 -88 83q0 63 67 107.5t191 44.5q118 0 192 -42t74 -126v-319q0 -31 20 -31q11 0 15 4zM352 952v178q-17 -4 -35 -11.5t-48.5 -24.5t-50 -46.5t-19.5 -66.5q0 -31 16.5 -56.5t46.5 -25.5q53 0 90 53z" />
    <glyph glyph-name="guillemotleft" unicode="&#xab;" 
d="M469 121l-422 340v8l416 336q4 4 13 11t12.5 10t10 8t10.5 7l9 4.5t9.5 3.5t9.5 1q13 0 19 -4.5t6.5 -9t0.5 -15.5q0 -10 -5.5 -24.5t-18 -35.5t-24 -40t-32 -47.5t-33 -46.5t-36.5 -48.5t-33 -43t-31 -40.5t-24 -30q18 -27 83 -109.5t111.5 -150t46.5 -94.5
q0 -37 -24 -37q-19 0 -74 47zM870 121l-421 340v8l415 336q4 4 13 11t12.5 10t10 8t10.5 7l9 4.5t9.5 3.5t9.5 1q13 0 19 -4.5t7 -9.5t1 -15t-6 -25t-17.5 -35.5t-24 -40.5t-32 -46.5t-34 -47t-36 -48.5t-33.5 -43t-31 -39.5t-24 -30.5q18 -27 83.5 -109.5t112 -150
t46.5 -94.5q0 -37 -25 -37q-19 0 -74 47z" />
    <glyph glyph-name="logicalnot" unicode="&#xac;" horiz-adv-x="1167" 
d="M920 221v416h-852v180h1032v-596h-180z" />
    <glyph glyph-name="uni00AD" unicode="&#xad;" horiz-adv-x="681" 
d="M588 588v-238h-498v238h498z" />
    <glyph glyph-name="registered" unicode="&#xae;" horiz-adv-x="1529" 
d="M766 -39q-200 0 -363.5 96t-256.5 262.5t-93 366.5q0 201 93 368.5t256.5 264t363.5 96.5q199 0 362.5 -96.5t256 -263.5t92.5 -369q0 -201 -92.5 -367t-255.5 -262t-363 -96zM766 68q156 0 286.5 84t204.5 226t74 308q0 167 -73.5 310t-204 228t-287.5 85
q-158 0 -288.5 -85t-204.5 -228t-74 -310q0 -166 74 -308t204.5 -226t288.5 -84zM424 1053v37h395q103 0 169.5 -50t66.5 -149q0 -72 -45 -130t-119 -83l119 -168q80 -114 143 -174v-23h-166q-28 0 -58.5 45t-81 141t-89.5 156h-76v-223q0 -53 13.5 -65.5t80.5 -16.5v-37
h-352v37q67 4 80.5 16.5t13.5 65.5v539q0 54 -13.5 66.5t-80.5 15.5zM682 1044v-344h72q67 0 97 52t30 131q0 161 -125 161h-74z" />
    <glyph glyph-name="macron" unicode="&#xaf;" horiz-adv-x="681" 
d="M678 1305v-148h-676v148h676z" />
    <glyph glyph-name="degree" unicode="&#xb0;" horiz-adv-x="819" 
d="M410 897q87 0 147.5 65t60.5 154t-60.5 154t-147.5 65t-148 -65t-61 -154t61 -154t148 -65zM410 823q-123 0 -208 85t-85 208t85 208t208 85t207.5 -85t84.5 -208t-84.5 -208t-207.5 -85z" />
    <glyph glyph-name="plusminus" unicode="&#xb1;" horiz-adv-x="1167" 
d="M494 735v301h180v-301h426v-180h-426v-293h-180v293h-426v180h426zM68 0v180h1032v-180h-1032z" />
    <glyph glyph-name="twosuperior" unicode="&#xb2;" horiz-adv-x="614" 
d="M614 823l-61 -260h-553v29q82 81 124 124t99.5 107.5t85 106.5t48 91t20.5 91q0 17 -6.5 40t-21.5 51.5t-49 47.5t-81 19q-98 0 -151 -111h-50q96 250 293 250q28 0 57.5 -5.5t64 -21.5t61.5 -40.5t45 -66.5t18 -95q0 -22 -3 -40t-15 -54t-46 -80t-87 -91l-203 -188h188
q103 0 133 15.5t58 80.5h32z" />
    <glyph glyph-name="threesuperior" unicode="&#xb3;" horiz-adv-x="614" 
d="M74 1208l-41 15q36 72 114 129t185 57q101 0 162 -41t61 -123q0 -34 -8.5 -59.5t-26.5 -44t-33.5 -29t-42.5 -25.5q79 -27 121.5 -86t42.5 -131q0 -133 -112.5 -227t-288.5 -94q-13 0 -28.5 1t-49 7t-58.5 17t-45 34t-20 54q0 29 23.5 50t58.5 31q31 0 59 -12.5t49 -30
t40.5 -35t41.5 -30t44 -12.5q56 0 94.5 32.5t38.5 100.5q0 34 -10.5 64t-24 51t-40.5 41.5t-44 31.5t-52 25.5t-48.5 19t-47.5 15.5v20q27 8 43 13t44 19t43.5 29.5t28.5 42t13 58.5q0 57 -35 91t-106 34q-79 0 -145 -103z" />
    <glyph glyph-name="acute" unicode="&#xb4;" horiz-adv-x="681" 
d="M582 1262l-291 -181h-115l281 322q51 57 106 57q38 0 69.5 -20.5t31.5 -69.5q0 -27 -12 -47.5t-25.5 -30.5t-44.5 -30z" />
    <glyph glyph-name="mu" unicode="&#xb5;" horiz-adv-x="1230" 
d="M1223 274q-21 -303 -285 -303q-87 0 -139 50.5t-66 166.5q-38 -108 -114.5 -162.5t-165.5 -54.5q-77 0 -130 28.5t-98 104.5q8 -74 41.5 -153t61.5 -142t28 -108q0 -65 -29.5 -100t-84.5 -35q-56 0 -86.5 39t-30.5 112q0 43 14.5 150t14.5 184v893h284v-610
q0 -117 21.5 -166t91.5 -49q47 0 81.5 29.5t53 79.5t27 105t8.5 116v495h285v-715q0 -56 12.5 -82t46.5 -26q78 0 88 153h70z" />
    <glyph glyph-name="paragraph" unicode="&#xb6;" horiz-adv-x="1105" 
d="M600 1333v-1714h-358v51q44 4 60.5 6.5t44.5 8.5t39.5 16t14.5 25q7 59 7 149v668q-193 0 -300.5 119t-107.5 317q0 212 108.5 308.5t340.5 96.5h614v-51q-109 -9 -135 -22q-23 -13 -27 -33q-6 -51 -6 -150v-1253q0 -98 6 -149q3 -16 13.5 -25.5t35.5 -15.5t43 -8.5
t60 -6.5v-51h-351v1714h-102zM408 594v739q-79 -17 -126.5 -54t-72.5 -111t-25 -193q0 -164 64 -258.5t160 -122.5z" />
    <glyph glyph-name="periodcentered" unicode="&#xb7;" horiz-adv-x="512" 
d="M84 680q0 70 50 122t122 52t123 -51.5t51 -122.5q0 -73 -50.5 -122.5t-123.5 -49.5t-122.5 50t-49.5 122z" />
    <glyph glyph-name="cedilla" unicode="&#xb8;" horiz-adv-x="681" 
d="M238 -197l88 197h86l-58 -131q33 10 64 10q83 0 133.5 -35.5t50.5 -107.5q0 -47 -22 -82.5t-52 -53.5t-71.5 -29.5t-71 -14t-59.5 -2.5q-95 0 -187 36l33 76q78 -28 121 -28q119 0 119 83q0 37 -26.5 55.5t-68.5 18.5q-25 0 -57 -8z" />
    <glyph glyph-name="onesuperior" unicode="&#xb9;" horiz-adv-x="614" 
d="M559 604v-41h-498v41h11q52 0 83 7.5t44.5 26.5t16.5 36.5t3 52.5v453q0 17 -1 27t-5 25.5t-15.5 23.5t-29.5 8q-24 0 -111 -31v43l336 133h23v-690q0 -34 4 -53t18.5 -34.5t43 -21.5t77.5 -6z" />
    <glyph glyph-name="ordmasculine" unicode="&#xba;" horiz-adv-x="675" 
d="M338 854q62 0 81 60.5t19 195.5q0 143 -21 199.5t-79 56.5t-80 -56.5t-22 -199.5q0 -52 2 -88t8 -70t17 -54t30 -32t45 -12zM338 813q-134 0 -217.5 85.5t-83.5 211.5q0 128 85 213.5t216 85.5t216 -85.5t85 -213.5q0 -126 -83.5 -211.5t-217.5 -85.5z" />
    <glyph glyph-name="guillemotright" unicode="&#xbb;" 
d="M154 803l421 -340v-8l-415 -336q-4 -4 -13 -11t-12.5 -10t-10 -8t-10.5 -7l-9 -4.5t-9.5 -3.5t-9.5 -1q-13 0 -19 4t-7 9t-1 15t5.5 25t18 35.5t24.5 40t32 47.5t33.5 47t36.5 48.5t33 43t31 40.5t24 30q-18 27 -83.5 109.5t-112 150t-46.5 94.5q0 37 25 37q19 0 74 -47z
M555 803l422 -340v-8l-416 -336q-4 -4 -13 -11t-12.5 -10t-10 -8t-10.5 -7l-9 -4.5t-9.5 -3.5t-9.5 -1q-13 0 -19 4.5t-6.5 8.5t-0.5 15q0 55 223 340q4 4 5.5 6t4 5.5t4.5 5.5q-18 27 -83 109.5t-111.5 150t-46.5 94.5q0 37 24 37q19 0 74 -47z" />
    <glyph glyph-name="onequarter" unicode="&#xbc;" horiz-adv-x="1536" 
d="M1438 313h84v-135h-84v-178h-193v178h-330v137q109 165 416 531h107v-533zM1247 313v353h-4l-272 -349v-4h276zM1260 1409h114l-899 -1434h-119zM559 604v-41h-498v41h11q52 0 83 7.5t44.5 26.5t16.5 36.5t3 52.5v453q0 17 -1 27t-5 25.5t-15.5 23.5t-29.5 8
q-24 0 -111 -31v43l336 133h23v-690q0 -34 4 -53t18.5 -34.5t43 -21.5t77.5 -6z" />
    <glyph glyph-name="onehalf" unicode="&#xbd;" horiz-adv-x="1536" 
d="M1174 1409h114l-899 -1434h-119zM487 604v-41h-497v41h10q52 0 83 7.5t44.5 26.5t16.5 36.5t3 52.5v453q0 17 -1 27t-5 25.5t-15.5 23.5t-29.5 8q-23 0 -110 -31v43l336 133h22v-690q0 -34 4 -53t18.5 -34.5t43 -21.5t77.5 -6zM1587 260l-61 -260h-553v29q82 81 124 124
t99.5 107.5t85 106.5t48 91t20.5 91q0 17 -6.5 40t-21.5 51.5t-49 47.5t-81 19q-99 0 -152 -111h-49q96 250 293 250q27 0 57 -6t64.5 -22t61.5 -40.5t45 -66.5t18 -95q0 -129 -152 -264l-190 -178v-10h176q73 0 105.5 7.5t48.5 25t36 63.5h33z" />
    <glyph glyph-name="threequarters" unicode="&#xbe;" horiz-adv-x="1536" 
d="M1255 1409h115l-899 -1434h-119zM115 1208l-41 15q36 72 114 129t185 57q101 0 162 -41t61 -123q0 -44 -17 -76t-35 -45.5t-50 -31.5v-9q72 -24 113.5 -83t41.5 -130q0 -133 -112.5 -227t-288.5 -94q-13 0 -28.5 1t-49 7t-58.5 17t-45 34t-20 54q0 29 23.5 50t58.5 31
q31 0 59 -12.5t48.5 -30t40 -35t41.5 -30t44 -12.5q56 0 95 32.5t39 100.5q0 34 -10.5 64t-24 51t-40.5 41.5t-44 31.5t-52 25.5t-48.5 19t-47.5 15.5v20q27 8 43 13t44 19t43.5 29.5t28.5 42t13 58.5q0 57 -35 91t-106 34q-79 0 -145 -103zM1417 313h84v-135h-84v-178h-192
v178h-330v137q109 165 416 531h106v-533zM1227 313v353h-4l-273 -349v-4h277z" />
    <glyph glyph-name="questiondown" unicode="&#xbf;" 
d="M506 526h61q4 -78 4 -90q0 -49 -16 -95.5t-38 -86.5t-44.5 -84t-38.5 -106t-16 -134q0 -32 2.5 -61.5t13.5 -69.5t29 -68.5t51.5 -48.5t79.5 -20q12 0 27.5 2.5t39 9.5t39 25.5t15.5 44.5q0 20 -12 37.5t-26 30t-26 37.5t-12 59q0 37 13.5 64.5t34 41t40 19.5t37.5 6
q72 0 107.5 -48t35.5 -110q0 -30 -8.5 -63.5t-35 -75.5t-68 -75t-116 -56t-169.5 -23q-19 0 -42.5 2t-63.5 10.5t-77 22t-77 40.5t-69.5 62t-48.5 90t-19 122q0 176 192 296q64 40 89.5 56.5t52 41t38.5 48.5q21 43 21 147zM709 854q0 -70 -51 -122t-123 -52
q-70 0 -121.5 51.5t-51.5 122.5q0 73 51 122.5t122 49.5q73 0 123.5 -50t50.5 -122z" />
    <glyph glyph-name="Agrave" unicode="&#xc0;" horiz-adv-x="1478" 
d="M1411 51v-51h-663v51q105 8 134 20t29 60q0 58 -94 272h-461q-90 -232 -90 -264q0 -22 11.5 -38.5t26.5 -25t41.5 -14t43 -7t45.5 -3.5v-51h-416v51q77 11 113 59.5t88 180.5l455 1122h57l457 -1077q74 -175 112 -230t103 -55h8zM387 483h399l-206 498zM889 1511h-115
l-291 181q-41 25 -61.5 50t-20.5 58q0 30 24.5 60t76.5 30q57 0 106 -57z" />
    <glyph glyph-name="Aacute" unicode="&#xc1;" horiz-adv-x="1478" 
d="M1411 51v-51h-663v51q105 8 134 20t29 60q0 58 -94 272h-461q-90 -232 -90 -264q0 -22 11.5 -38.5t26.5 -25t41.5 -14t43 -7t45.5 -3.5v-51h-416v51q77 11 113 59.5t88 180.5l455 1122h57l457 -1077q74 -175 112 -230t103 -55h8zM387 483h399l-206 498zM967 1692
l-291 -181h-115l281 322q51 57 106 57q38 0 69.5 -20.5t31.5 -69.5q0 -27 -12 -47.5t-25.5 -30.5t-44.5 -30z" />
    <glyph glyph-name="Acircumflex" unicode="&#xc2;" horiz-adv-x="1478" 
d="M1411 51v-51h-663v51q105 8 134 20t29 60q0 58 -94 272h-461q-90 -232 -90 -264q0 -22 11.5 -38.5t26.5 -25t41.5 -14t43 -7t45.5 -3.5v-51h-416v51q77 11 113 59.5t88 180.5l455 1122h57l457 -1077q74 -175 112 -230t103 -55h8zM387 483h399l-206 498zM954 1511
l-229 201l-229 -201h-115l250 361h188l252 -361h-117z" />
    <glyph glyph-name="Atilde" unicode="&#xc3;" horiz-adv-x="1478" 
d="M1411 51v-51h-663v51q105 8 134 20t29 60q0 58 -94 272h-461q-90 -232 -90 -264q0 -22 11.5 -38.5t26.5 -25t41.5 -14t43 -7t45.5 -3.5v-51h-416v51q77 11 113 59.5t88 180.5l455 1122h57l457 -1077q74 -175 112 -230t103 -55h8zM387 483h399l-206 498zM438 1554h-86
q50 256 242 256q50 0 145 -38l82 -37q41 -19 51.5 -22t30.5 -3q27 0 47 9.5t32.5 28.5t17.5 30.5t12 31.5h88q-6 -22 -10 -37.5t-15 -45t-23 -50.5t-32 -47t-42.5 -42t-55.5 -27t-70 -11q-55 0 -123 29l-59 27q-77 34 -93 39.5t-38 5.5q-45 0 -72 -32t-29 -65z" />
    <glyph glyph-name="Adieresis" unicode="&#xc4;" horiz-adv-x="1478" 
d="M1411 51v-51h-663v51q105 8 134 20t29 60q0 58 -94 272h-461q-90 -232 -90 -264q0 -22 11.5 -38.5t26.5 -25t41.5 -14t43 -7t45.5 -3.5v-51h-416v51q77 11 113 59.5t88 180.5l455 1122h57l457 -1077q74 -175 112 -230t103 -55h8zM387 483h399l-206 498zM381 1663
q0 45 35 89t94 44q54 0 92.5 -39.5t38.5 -95.5q0 -55 -37.5 -93t-93.5 -38q-60 0 -94.5 43.5t-34.5 89.5zM811 1663q0 46 34 89.5t93 43.5q54 0 93.5 -40t39.5 -95t-38.5 -93t-94.5 -38q-60 0 -93.5 43.5t-33.5 89.5z" />
    <glyph glyph-name="Aring" unicode="&#xc5;" horiz-adv-x="1478" 
d="M1411 51v-51h-663v51q105 8 134 20t29 60q0 58 -94 272h-461q-90 -232 -90 -264q0 -22 11.5 -38.5t26.5 -25t41.5 -14t43 -7t45.5 -3.5v-51h-416v51q77 11 113 59.5t88 180.5l455 1122h57l457 -1077q74 -175 112 -230t103 -55h8zM387 483h399l-206 498zM492 1696
q0 90 64.5 154.5t154.5 64.5q89 0 153 -65t64 -154q0 -90 -63.5 -153.5t-153.5 -63.5t-154.5 63t-64.5 154zM829 1696q0 48 -36 84.5t-86 36.5q-53 0 -85 -40.5t-32 -80.5q0 -41 31.5 -80t85.5 -39q52 0 87 34.5t35 84.5z" />
    <glyph glyph-name="AE" unicode="&#xc6;" horiz-adv-x="2048" 
d="M705 0v51q112 4 146 42.5t34 150.5v377h-389l-205 -385q-2 -3 -6 -11.5t-5 -11t-4.5 -9.5t-4.5 -9.5t-3 -8.5l-3 -9t-2 -8.5t-1.5 -9.5t-1 -9t-0.5 -11q0 -20 8.5 -34.5t19 -22.5t31.5 -14t35 -8t41 -5l35 -4v-51h-422v51q33 6 48.5 12.5t41.5 32.5t55 75t80 142l437 797
q71 126 71 150q0 23 -12 38t-38 23.5t-55 12t-73 5.5v45h1299v-411h-52q-27 129 -54 181q-57 110 -202 142q-73 17 -174 17q-80 0 -118 -8.5t-44 -19t-6 -34.5v-508q67 6 103.5 11.5t72.5 20.5t52.5 31t34.5 53t28.5 77t26.5 113h47v-693h-47q-12 77 -20.5 112.5t-29 83.5
t-51.5 68.5t-84.5 37.5t-132.5 20v-498q0 -59 27.5 -84.5t114.5 -25.5q155 0 237 29t156 98q47 45 100.5 129t53.5 106h47l-84 -432h-1159zM541 702h344v594h-15z" />
    <glyph glyph-name="Ccedilla" unicode="&#xc7;" horiz-adv-x="1478" 
d="M1370 1409v-479h-51q-29 72 -73 141.5t-104 133.5t-138.5 103.5t-161.5 39.5q-379 0 -379 -660q0 -298 88 -450q30 -52 75 -89.5t90.5 -55.5t81.5 -26t64 -8q127 0 244.5 58t239.5 194l61 -51q-61 -69 -115.5 -118t-123 -92.5t-149 -65.5t-173.5 -23l-41 -92q33 10 63 10
q83 0 134 -35.5t51 -107.5q0 -47 -22 -82.5t-52.5 -53.5t-72 -29.5t-71 -14t-59.5 -2.5q-94 0 -186 36l33 76q78 -28 120 -28q119 0 119 83q0 37 -26 55.5t-68 18.5q-25 0 -57 -8l-23 16l72 162q-126 10 -233.5 53t-185 110t-132.5 154.5t-82 188t-27 209.5q0 207 90.5 374
t257 264t377.5 97q80 0 167 -25t149 -50t80 -25q26 0 45 14.5t28 31t21 48.5h55z" />
    <glyph glyph-name="Egrave" unicode="&#xc8;" horiz-adv-x="1366" 
d="M33 1333v51h1181v-411h-51q-14 87 -41 147.5t-64 98.5t-94 59.5t-119 29t-151 7.5q-90 0 -119.5 -16.5t-29.5 -79.5v-476h10q75 0 126.5 13t93.5 46.5t66.5 93.5t35.5 153h53v-693h-53q-9 95 -33 157.5t-67 97.5t-97.5 49t-134.5 14v-496q0 -67 36 -91t136 -24
q84 0 152.5 14t141.5 51t135.5 112t108.5 186h58l-82 -426h-1198v51q44 5 64.5 8t48 12t39 23.5t20 40t8.5 62.5v991q0 33 -6 57t-20.5 39.5t-27 24.5t-39 14t-41 6.5t-46.5 3.5zM860 1511h-115l-290 181q-41 25 -61.5 50t-20.5 58q0 30 24 60t76 30q58 0 107 -57z" />
    <glyph glyph-name="Eacute" unicode="&#xc9;" horiz-adv-x="1366" 
d="M33 1333v51h1181v-411h-51q-14 87 -41 147.5t-64 98.5t-94 59.5t-119 29t-151 7.5q-90 0 -119.5 -16.5t-29.5 -79.5v-476h10q75 0 126.5 13t93.5 46.5t66.5 93.5t35.5 153h53v-693h-53q-9 95 -33 157.5t-67 97.5t-97.5 49t-134.5 14v-496q0 -67 36 -91t136 -24
q84 0 152.5 14t141.5 51t135.5 112t108.5 186h58l-82 -426h-1198v51q44 5 64.5 8t48 12t39 23.5t20 40t8.5 62.5v991q0 33 -6 57t-20.5 39.5t-27 24.5t-39 14t-41 6.5t-46.5 3.5zM938 1692l-291 -181h-115l281 322q51 57 107 57q37 0 68.5 -20.5t31.5 -69.5q0 -27 -12 -47.5
t-25.5 -30.5t-44.5 -30z" />
    <glyph glyph-name="Ecircumflex" unicode="&#xca;" horiz-adv-x="1366" 
d="M33 1333v51h1181v-411h-51q-14 87 -41 147.5t-64 98.5t-94 59.5t-119 29t-151 7.5q-90 0 -119.5 -16.5t-29.5 -79.5v-476h10q75 0 126.5 13t93.5 46.5t66.5 93.5t35.5 153h53v-693h-53q-9 95 -33 157.5t-67 97.5t-97.5 49t-134.5 14v-496q0 -67 36 -91t136 -24
q84 0 152.5 14t141.5 51t135.5 112t108.5 186h58l-82 -426h-1198v51q44 5 64.5 8t48 12t39 23.5t20 40t8.5 62.5v991q0 33 -6 57t-20.5 39.5t-27 24.5t-39 14t-41 6.5t-46.5 3.5zM926 1511l-230 201l-229 -201h-115l250 361h189l251 -361h-116z" />
    <glyph glyph-name="Edieresis" unicode="&#xcb;" horiz-adv-x="1366" 
d="M33 1333v51h1181v-411h-51q-14 87 -41 147.5t-64 98.5t-94 59.5t-119 29t-151 7.5q-90 0 -119.5 -16.5t-29.5 -79.5v-476h10q75 0 126.5 13t93.5 46.5t66.5 93.5t35.5 153h53v-693h-53q-9 95 -33 157.5t-67 97.5t-97.5 49t-134.5 14v-496q0 -67 36 -91t136 -24
q84 0 152.5 14t141.5 51t135.5 112t108.5 186h58l-82 -426h-1198v51q44 5 64.5 8t48 12t39 23.5t20 40t8.5 62.5v991q0 33 -6 57t-20.5 39.5t-27 24.5t-39 14t-41 6.5t-46.5 3.5zM352 1663q0 45 35 89t94 44q54 0 92.5 -39.5t38.5 -95.5q0 -55 -37.5 -93t-93.5 -38
q-60 0 -94.5 43.5t-34.5 89.5zM782 1663q0 46 34 89.5t93 43.5q54 0 93.5 -40t39.5 -95t-38 -93t-95 -38q-60 0 -93.5 43.5t-33.5 89.5z" />
    <glyph glyph-name="Igrave" unicode="&#xcc;" horiz-adv-x="796" 
d="M758 51v-51h-717v51q35 3 53.5 5.5t44.5 8.5t39.5 15.5t27.5 24.5t19.5 38t5.5 54v991q0 28 -6.5 50t-14 36.5t-25 25.5t-29.5 16t-37 9t-37 5t-41 3v51h717v-51q-26 -1 -36.5 -1.5t-34 -3t-34 -6.5t-28.5 -11t-26.5 -17.5t-18 -25t-13.5 -35t-4 -45.5v-991
q0 -38 10.5 -64.5t24.5 -41t44 -23.5t51.5 -11.5t64.5 -5.5zM561 1511h-115l-290 181q-41 25 -61.5 50t-20.5 58q0 30 24 60t76 30q58 0 107 -57z" />
    <glyph glyph-name="Iacute" unicode="&#xcd;" horiz-adv-x="796" 
d="M758 51v-51h-717v51q35 3 53.5 5.5t44.5 8.5t39.5 15.5t27.5 24.5t19.5 38t5.5 54v991q0 28 -6.5 50t-14 36.5t-25 25.5t-29.5 16t-37 9t-37 5t-41 3v51h717v-51q-26 -1 -36.5 -1.5t-34 -3t-34 -6.5t-28.5 -11t-26.5 -17.5t-18 -25t-13.5 -35t-4 -45.5v-991
q0 -38 10.5 -64.5t24.5 -41t44 -23.5t51.5 -11.5t64.5 -5.5zM639 1692l-291 -181h-115l281 322q51 57 107 57q37 0 68.5 -20.5t31.5 -69.5q0 -27 -12 -47.5t-25.5 -30.5t-44.5 -30z" />
    <glyph glyph-name="Icircumflex" unicode="&#xce;" horiz-adv-x="796" 
d="M758 51v-51h-717v51q35 3 53.5 5.5t44.5 8.5t39.5 15.5t27.5 24.5t19.5 38t5.5 54v991q0 28 -6.5 50t-14 36.5t-25 25.5t-29.5 16t-37 9t-37 5t-41 3v51h717v-51q-26 -1 -36.5 -1.5t-34 -3t-34 -6.5t-28.5 -11t-26.5 -17.5t-18 -25t-13.5 -35t-4 -45.5v-991
q0 -38 10.5 -64.5t24.5 -41t44 -23.5t51.5 -11.5t64.5 -5.5zM627 1511l-230 201l-229 -201h-115l250 361h189l251 -361h-116z" />
    <glyph glyph-name="Idieresis" unicode="&#xcf;" horiz-adv-x="796" 
d="M758 51v-51h-717v51q35 3 53.5 5.5t44.5 8.5t39.5 15.5t27.5 24.5t19.5 38t5.5 54v991q0 28 -6.5 50t-14 36.5t-25 25.5t-29.5 16t-37 9t-37 5t-41 3v51h717v-51q-26 -1 -36.5 -1.5t-34 -3t-34 -6.5t-28.5 -11t-26.5 -17.5t-18 -25t-13.5 -35t-4 -45.5v-991
q0 -38 10.5 -64.5t24.5 -41t44 -23.5t51.5 -11.5t64.5 -5.5zM53 1663q0 45 35 89t94 44q54 0 92.5 -39.5t38.5 -95.5q0 -55 -37.5 -93t-93.5 -38q-60 0 -94.5 43.5t-34.5 89.5zM483 1663q0 46 34 89.5t93 43.5q54 0 93.5 -40t39.5 -95t-38.5 -93t-94.5 -38q-60 0 -93.5 43.5
t-33.5 89.5z" />
    <glyph glyph-name="Eth" unicode="&#xd0;" horiz-adv-x="1478" 
d="M764 764v-96h-234v-478q0 -65 23.5 -91.5t93.5 -26.5q72 0 131 17t112 60.5t89 112.5t57 178t21 252q0 46 -3.5 93.5t-14.5 111t-28.5 119.5t-48.5 112t-71.5 96.5t-100.5 65.5t-133 25q-78 0 -102.5 -21t-24.5 -59v-471h234zM12 668v96h187v432q0 25 -5.5 45t-12 33
t-22 23.5t-24.5 15.5t-32 9.5t-31 5.5t-34 4q-6 1 -9 1v51h624q166 0 298.5 -40t217 -105t141 -154t80 -181t23.5 -191q0 -115 -26.5 -217.5t-84.5 -191.5t-143 -154.5t-208.5 -105t-274.5 -44.5h-647v51q170 0 170 135v482h-187z" />
    <glyph glyph-name="Ntilde" unicode="&#xd1;" horiz-adv-x="1478" 
d="M33 0v51q35 4 56.5 7.5t44.5 11t35.5 18t23.5 28t15.5 41.5t4.5 58v971q-54 66 -90.5 100.5t-51.5 40.5t-32 6v51h432l711 -874h4v620q0 51 -6.5 83t-26.5 59.5t-58.5 42t-99.5 18.5v51h441v-51q-54 -7 -86.5 -19t-48.5 -34t-20.5 -45.5t-4.5 -65.5v-1206h-57l-912 1110
h-4v-819q0 -109 40 -150t155 -53v-51h-465zM453 1554h-86q50 256 241 256q51 0 146 -38l82 -37q41 -19 51.5 -22t30.5 -3q27 0 46.5 9.5t32 29t17.5 30t12 31.5h88q-6 -22 -10 -37.5t-15 -45t-23 -50.5t-32 -47t-42.5 -42t-55.5 -27t-70 -11q-55 0 -123 29l-59 27
q-77 34 -93 39.5t-38 5.5q-45 0 -71.5 -31.5t-28.5 -65.5z" />
    <glyph glyph-name="Ograve" unicode="&#xd2;" horiz-adv-x="1593" 
d="M797 1348q-83 0 -147.5 -40.5t-104.5 -105t-65.5 -153.5t-35.5 -177t-10 -184q0 -51 1.5 -93.5t9.5 -114t21.5 -127.5t41 -119.5t64.5 -106t95 -70.5t130 -28t130 28t95 70.5t64 106t40.5 119.5t21.5 127.5t9.5 114t1.5 93.5q0 96 -10 184t-35.5 177t-65 153.5t-104 105
t-147.5 40.5zM797 1415q148 0 280 -51.5t230.5 -144t156.5 -230.5t58 -301q0 -212 -93.5 -378t-258.5 -257.5t-373 -91.5t-373 91.5t-258.5 257.5t-93.5 378q0 163 58 301t156.5 230.5t230.5 144t280 51.5zM961 1511h-115l-291 181q-41 25 -61.5 50t-20.5 58q0 30 24 60
t76 30q58 0 107 -57z" />
    <glyph glyph-name="Oacute" unicode="&#xd3;" horiz-adv-x="1593" 
d="M797 1348q-83 0 -147.5 -40.5t-104.5 -105t-65.5 -153.5t-35.5 -177t-10 -184q0 -51 1.5 -93.5t9.5 -114t21.5 -127.5t41 -119.5t64.5 -106t95 -70.5t130 -28t130 28t95 70.5t64 106t40.5 119.5t21.5 127.5t9.5 114t1.5 93.5q0 96 -10 184t-35.5 177t-65 153.5t-104 105
t-147.5 40.5zM797 1415q148 0 280 -51.5t230.5 -144t156.5 -230.5t58 -301q0 -212 -93.5 -378t-258.5 -257.5t-373 -91.5t-373 91.5t-258.5 257.5t-93.5 378q0 163 58 301t156.5 230.5t230.5 144t280 51.5zM1038 1692l-290 -181h-115l280 322q51 57 107 57q37 0 68.5 -20.5
t31.5 -69.5q0 -27 -12 -47.5t-25.5 -30.5t-44.5 -30z" />
    <glyph glyph-name="Ocircumflex" unicode="&#xd4;" horiz-adv-x="1593" 
d="M797 1348q-83 0 -147.5 -40.5t-104.5 -105t-65.5 -153.5t-35.5 -177t-10 -184q0 -51 1.5 -93.5t9.5 -114t21.5 -127.5t41 -119.5t64.5 -106t95 -70.5t130 -28t130 28t95 70.5t64 106t40.5 119.5t21.5 127.5t9.5 114t1.5 93.5q0 96 -10 184t-35.5 177t-65 153.5t-104 105
t-147.5 40.5zM797 1415q148 0 280 -51.5t230.5 -144t156.5 -230.5t58 -301q0 -212 -93.5 -378t-258.5 -257.5t-373 -91.5t-373 91.5t-258.5 257.5t-93.5 378q0 163 58 301t156.5 230.5t230.5 144t280 51.5zM1026 1511l-229 201l-230 -201h-114l249 361h189l252 -361h-117z
" />
    <glyph glyph-name="Otilde" unicode="&#xd5;" horiz-adv-x="1593" 
d="M797 1348q-83 0 -147.5 -40.5t-104.5 -105t-65.5 -153.5t-35.5 -177t-10 -184q0 -51 1.5 -93.5t9.5 -114t21.5 -127.5t41 -119.5t64.5 -106t95 -70.5t130 -28t130 28t95 70.5t64 106t40.5 119.5t21.5 127.5t9.5 114t1.5 93.5q0 96 -10 184t-35.5 177t-65 153.5t-104 105
t-147.5 40.5zM797 1415q148 0 280 -51.5t230.5 -144t156.5 -230.5t58 -301q0 -212 -93.5 -378t-258.5 -257.5t-373 -91.5t-373 91.5t-258.5 257.5t-93.5 378q0 163 58 301t156.5 230.5t230.5 144t280 51.5zM510 1554h-86q50 256 242 256q50 0 145 -38l82 -37
q41 -19 51.5 -22t30.5 -3q27 0 46.5 9.5t32 29t17.5 30t12 31.5h88q-7 -27 -12.5 -45t-18.5 -53.5t-31 -59.5t-43.5 -49.5t-62 -39t-79.5 -13.5q-55 0 -123 29l-60 27q-76 34 -92.5 39.5t-38.5 5.5q-45 0 -71.5 -31.5t-28.5 -65.5z" />
    <glyph glyph-name="Odieresis" unicode="&#xd6;" horiz-adv-x="1593" 
d="M797 1348q-83 0 -147.5 -40.5t-104.5 -105t-65.5 -153.5t-35.5 -177t-10 -184q0 -51 1.5 -93.5t9.5 -114t21.5 -127.5t41 -119.5t64.5 -106t95 -70.5t130 -28t130 28t95 70.5t64 106t40.5 119.5t21.5 127.5t9.5 114t1.5 93.5q0 96 -10 184t-35.5 177t-65 153.5t-104 105
t-147.5 40.5zM797 1415q148 0 280 -51.5t230.5 -144t156.5 -230.5t58 -301q0 -212 -93.5 -378t-258.5 -257.5t-373 -91.5t-373 91.5t-258.5 257.5t-93.5 378q0 163 58 301t156.5 230.5t230.5 144t280 51.5zM453 1663q0 45 35 89t94 44q54 0 92.5 -39.5t38.5 -95.5
q0 -55 -37.5 -93t-93.5 -38q-60 0 -94.5 43.5t-34.5 89.5zM883 1663q0 46 34 89.5t93 43.5q54 0 93.5 -40t39.5 -95t-38.5 -93t-94.5 -38q-60 0 -93.5 43.5t-33.5 89.5z" />
    <glyph glyph-name="multiply" unicode="&#xd7;" horiz-adv-x="1167" 
d="M457 518l-359 359l127 127l359 -361l358 361l127 -127l-360 -359l360 -358l-127 -127l-358 360l-359 -360l-127 127z" />
    <glyph glyph-name="Oslash" unicode="&#xd8;" horiz-adv-x="1593" 
d="M1403 1509l-160 -235q130 -97 204.5 -247.5t74.5 -338.5q0 -212 -93.5 -378t-258.5 -257.5t-373 -91.5q-218 0 -383 100l-146 -213h-102l176 258q-128 98 -199 248.5t-71 333.5q0 163 58 301t156.5 230.5t230.5 144t280 51.5q208 0 374 -96l129 190h103zM479 309l586 856
q-91 183 -268 183q-83 0 -147.5 -40.5t-104.5 -105t-65.5 -153.5t-35.5 -177t-10 -184q0 -234 45 -379zM1106 1073l-588 -860q89 -184 279 -184q72 0 130 28t95 70.5t64 106t40.5 119.5t21.5 127.5t9.5 114t1.5 93.5q0 229 -53 385z" />
    <glyph glyph-name="Ugrave" unicode="&#xd9;" horiz-adv-x="1478" 
d="M1436 1384v-51q-47 -7 -73.5 -15.5t-48 -27t-30 -50t-8.5 -81.5v-653q0 -107 -28 -219.5t-87 -175.5q-70 -77 -183 -113.5t-220 -36.5q-269 0 -416 129q-50 44 -77 82.5t-45.5 110.5t-18.5 178v684q0 26 -1.5 47t-5.5 37.5t-7 29.5t-12 23t-14.5 17t-19 12.5t-21 8
t-26 5.5t-28.5 4.5t-33 3.5v51h692v-51h-2q-100 -5 -132 -19q-53 -25 -63 -115q-2 -24 -2 -54v-684q0 -37 0.5 -60t6.5 -69.5t16 -78t32 -71t52.5 -63.5t78.5 -41t109 -17q74 0 133.5 18.5t96.5 46t64.5 70.5t40.5 79t20.5 86.5t8.5 78t1 66.5v624q0 52 -7 84.5t-27.5 60.5
t-61 41.5t-105.5 16.5v51h451zM958 1511h-114l-291 181q-41 25 -61.5 50t-20.5 58q0 30 24 60t76 30q58 0 107 -57z" />
    <glyph glyph-name="Uacute" unicode="&#xda;" horiz-adv-x="1478" 
d="M1436 1384v-51q-47 -7 -73.5 -15.5t-48 -27t-30 -50t-8.5 -81.5v-653q0 -107 -28 -219.5t-87 -175.5q-70 -77 -183 -113.5t-220 -36.5q-269 0 -416 129q-50 44 -77 82.5t-45.5 110.5t-18.5 178v684q0 26 -1.5 47t-5.5 37.5t-7 29.5t-12 23t-14.5 17t-19 12.5t-21 8
t-26 5.5t-28.5 4.5t-33 3.5v51h692v-51h-2q-100 -5 -132 -19q-53 -25 -63 -115q-2 -24 -2 -54v-684q0 -37 0.5 -60t6.5 -69.5t16 -78t32 -71t52.5 -63.5t78.5 -41t109 -17q74 0 133.5 18.5t96.5 46t64.5 70.5t40.5 79t20.5 86.5t8.5 78t1 66.5v624q0 52 -7 84.5t-27.5 60.5
t-61 41.5t-105.5 16.5v51h451zM1036 1692l-291 -181h-114l280 322q51 57 107 57q37 0 68.5 -20.5t31.5 -69.5q0 -27 -12 -47.5t-25.5 -30.5t-44.5 -30z" />
    <glyph glyph-name="Ucircumflex" unicode="&#xdb;" horiz-adv-x="1478" 
d="M1436 1384v-51q-47 -7 -73.5 -15.5t-48 -27t-30 -50t-8.5 -81.5v-653q0 -107 -28 -219.5t-87 -175.5q-70 -77 -183 -113.5t-220 -36.5q-269 0 -416 129q-50 44 -77 82.5t-45.5 110.5t-18.5 178v684q0 26 -1.5 47t-5.5 37.5t-7 29.5t-12 23t-14.5 17t-19 12.5t-21 8
t-26 5.5t-28.5 4.5t-33 3.5v51h692v-51h-2q-100 -5 -132 -19q-53 -25 -63 -115q-2 -24 -2 -54v-684q0 -37 0.5 -60t6.5 -69.5t16 -78t32 -71t52.5 -63.5t78.5 -41t109 -17q74 0 133.5 18.5t96.5 46t64.5 70.5t40.5 79t20.5 86.5t8.5 78t1 66.5v624q0 52 -7 84.5t-27.5 60.5
t-61 41.5t-105.5 16.5v51h451zM1024 1511l-229 201l-230 -201h-114l249 361h189l252 -361h-117z" />
    <glyph glyph-name="Udieresis" unicode="&#xdc;" horiz-adv-x="1478" 
d="M1436 1384v-51q-47 -7 -73.5 -15.5t-48 -27t-30 -50t-8.5 -81.5v-653q0 -107 -28 -219.5t-87 -175.5q-70 -77 -183 -113.5t-220 -36.5q-269 0 -416 129q-50 44 -77 82.5t-45.5 110.5t-18.5 178v684q0 26 -1.5 47t-5.5 37.5t-7 29.5t-12 23t-14.5 17t-19 12.5t-21 8
t-26 5.5t-28.5 4.5t-33 3.5v51h692v-51h-2q-100 -5 -132 -19q-53 -25 -63 -115q-2 -24 -2 -54v-684q0 -37 0.5 -60t6.5 -69.5t16 -78t32 -71t52.5 -63.5t78.5 -41t109 -17q74 0 133.5 18.5t96.5 46t64.5 70.5t40.5 79t20.5 86.5t8.5 78t1 66.5v624q0 52 -7 84.5t-27.5 60.5
t-61 41.5t-105.5 16.5v51h451zM451 1663q0 45 35 89t94 44q54 0 92.5 -39.5t38.5 -95.5q0 -55 -37.5 -93t-93.5 -38q-60 0 -94.5 43.5t-34.5 89.5zM881 1663q0 46 34 89.5t93 43.5q54 0 93.5 -40t39.5 -95t-38.5 -93t-94.5 -38q-60 0 -93.5 43.5t-33.5 89.5z" />
    <glyph glyph-name="Yacute" unicode="&#xdd;" horiz-adv-x="1478" 
d="M1432 1384v-51q-22 -3 -34 -6t-34 -11t-40 -24t-32 -39l-391 -637v-376q0 -32 1.5 -56t8 -43t12 -31.5t20 -22.5t24.5 -15t34 -9.5t39.5 -6.5t49.5 -5v-51h-711v51q34 3 49.5 5t39.5 6.5t34 9.5t24.5 15t20 22.5t12 31t8.5 43t2 56.5v301l-374 680q-59 106 -164 112v51
h686v-51q-105 0 -135.5 -13t-30.5 -56q0 -14 7.5 -33t23 -48t18.5 -34l246 -475l227 379q80 131 80 190q0 20 -5 34t-19 23.5t-25.5 15t-36.5 9t-39.5 5t-46.5 3.5v51h451zM1012 1692l-291 -181h-115l281 322q51 57 106 57q38 0 69.5 -20.5t31.5 -69.5q0 -27 -12 -47.5
t-25.5 -30.5t-44.5 -30z" />
    <glyph glyph-name="Thorn" unicode="&#xde;" horiz-adv-x="1251" 
d="M33 0v51q71 11 89.5 16t29.5 13q16 11 25.5 23.5t18.5 47.5t9 89v905q0 42 -4.5 72.5t-16.5 50.5t-23 31.5t-35.5 18.5t-41 9.5t-51.5 5.5v51h684v-51q-29 -4 -40 -5.5t-32.5 -6t-29 -7.5l-22.5 -9t-19.5 -12.5t-13.5 -17t-11 -22.5t-6 -28.5t-5 -36.5t-1 -45v-25h135
q557 0 557 -377q0 -33 -7 -67t-24.5 -78.5t-57.5 -88t-98 -75.5q-92 -52 -185.5 -64t-319.5 -14v-114q0 -32 1.5 -55t7.5 -42t10.5 -31t18.5 -22t23 -15t32 -10t38 -7.5t49 -6.5v-51h-684zM537 975v-549h22q90 0 147.5 13.5t97.5 49t56.5 94.5t16.5 152q0 172 -56.5 242
t-185.5 70q-95 0 -98 -72z" />
    <glyph glyph-name="germandbls" unicode="&#xdf;" horiz-adv-x="1138" 
d="M39 0v49q62 10 83 32.5t21 96.5v860q0 162 118 269.5t296 107.5q92 0 166.5 -21.5t120 -55t76.5 -76t43 -81.5t12 -75q0 -119 -85 -195.5t-228 -103.5v-4q209 -55 303 -150.5t94 -263.5q0 -95 -36 -176t-93 -131.5t-124 -78.5t-132 -28q-50 0 -133 31l28 70
q32 -22 40.5 -25.5t27.5 -3.5q46 0 71.5 27.5t38.5 104t13 220.5q0 93 -9.5 158t-25 104.5t-43 62t-57 30.5t-74.5 10v70q47 0 74 10.5t41 38.5q28 50 28 223q0 141 -37.5 196.5t-107.5 55.5q-115 0 -121 -158v-1200h-389z" />
    <glyph glyph-name="agrave" unicode="&#xe0;" 
d="M969 131l30 -43q-98 -117 -225 -117q-41 0 -71.5 10.5t-47 23t-29 36t-16 36.5t-8.5 38q-46 -46 -98 -78t-98 -44.5t-75.5 -17t-54.5 -4.5q-39 0 -77 12.5t-72 38t-55 69t-21 99.5q0 45 16.5 84t40.5 69t69.5 59.5t84 49.5t105.5 44.5t111.5 38.5t123.5 38v150
q0 88 -37 134t-143 46q-52 0 -86.5 -23.5t-34.5 -50.5q0 -17 15.5 -35.5t30.5 -44t15 -59.5q0 -38 -33.5 -76.5t-103.5 -38.5q-13 0 -24 1t-33.5 8.5t-38 21t-27.5 42t-12 67.5q0 104 101 179t282 75t295.5 -71.5t114.5 -209.5v-534q0 -52 45 -52q11 0 20 9zM600 205v297
q-20 -4 -44.5 -12t-63 -28.5t-68.5 -46t-52 -68.5t-22 -93q0 -54 27 -95.5t78 -41.5q32 0 63.5 17.5t45 31t36.5 39.5zM662 1081h-115l-291 181q-41 25 -61.5 50t-20.5 58q0 30 24 60t76 30q58 0 107 -57z" />
    <glyph glyph-name="aacute" unicode="&#xe1;" 
d="M969 131l30 -43q-98 -117 -225 -117q-41 0 -71.5 10.5t-47 23t-29 36t-16 36.5t-8.5 38q-46 -46 -98 -78t-98 -44.5t-75.5 -17t-54.5 -4.5q-39 0 -77 12.5t-72 38t-55 69t-21 99.5q0 45 16.5 84t40.5 69t69.5 59.5t84 49.5t105.5 44.5t111.5 38.5t123.5 38v150
q0 88 -37 134t-143 46q-52 0 -86.5 -23.5t-34.5 -50.5q0 -17 15.5 -35.5t30.5 -44t15 -59.5q0 -38 -33.5 -76.5t-103.5 -38.5q-13 0 -24 1t-33.5 8.5t-38 21t-27.5 42t-12 67.5q0 104 101 179t282 75t295.5 -71.5t114.5 -209.5v-534q0 -52 45 -52q11 0 20 9zM600 205v297
q-20 -4 -44.5 -12t-63 -28.5t-68.5 -46t-52 -68.5t-22 -93q0 -54 27 -95.5t78 -41.5q32 0 63.5 17.5t45 31t36.5 39.5zM739 1262l-290 -181h-115l280 322q51 57 107 57q37 0 68.5 -20.5t31.5 -69.5q0 -27 -12 -47.5t-25.5 -30.5t-44.5 -30z" />
    <glyph glyph-name="acircumflex" unicode="&#xe2;" 
d="M969 131l30 -43q-98 -117 -225 -117q-41 0 -71.5 10.5t-47 23t-29 36t-16 36.5t-8.5 38q-46 -46 -98 -78t-98 -44.5t-75.5 -17t-54.5 -4.5q-39 0 -77 12.5t-72 38t-55 69t-21 99.5q0 45 16.5 84t40.5 69t69.5 59.5t84 49.5t105.5 44.5t111.5 38.5t123.5 38v150
q0 88 -37 134t-143 46q-52 0 -86.5 -23.5t-34.5 -50.5q0 -17 15.5 -35.5t30.5 -44t15 -59.5q0 -38 -33.5 -76.5t-103.5 -38.5q-13 0 -24 1t-33.5 8.5t-38 21t-27.5 42t-12 67.5q0 104 101 179t282 75t295.5 -71.5t114.5 -209.5v-534q0 -52 45 -52q11 0 20 9zM600 205v297
q-20 -4 -44.5 -12t-63 -28.5t-68.5 -46t-52 -68.5t-22 -93q0 -54 27 -95.5t78 -41.5q32 0 63.5 17.5t45 31t36.5 39.5zM727 1081l-229 201l-230 -201h-114l249 361h189l252 -361h-117z" />
    <glyph glyph-name="atilde" unicode="&#xe3;" 
d="M969 131l30 -43q-98 -117 -225 -117q-41 0 -71.5 10.5t-47 23t-29 36t-16 36.5t-8.5 38q-46 -46 -98 -78t-98 -44.5t-75.5 -17t-54.5 -4.5q-39 0 -77 12.5t-72 38t-55 69t-21 99.5q0 45 16.5 84t40.5 69t69.5 59.5t84 49.5t105.5 44.5t111.5 38.5t123.5 38v150
q0 88 -37 134t-143 46q-52 0 -86.5 -23.5t-34.5 -50.5q0 -17 15.5 -35.5t30.5 -44t15 -59.5q0 -38 -33.5 -76.5t-103.5 -38.5q-13 0 -24 1t-33.5 8.5t-38 21t-27.5 42t-12 67.5q0 104 101 179t282 75t295.5 -71.5t114.5 -209.5v-534q0 -52 45 -52q11 0 20 9zM600 205v297
q-20 -4 -44.5 -12t-63 -28.5t-68.5 -46t-52 -68.5t-22 -93q0 -54 27 -95.5t78 -41.5q32 0 63.5 17.5t45 31t36.5 39.5zM211 1124h-86q50 256 242 256q47 0 145 -39l82 -36q41 -19 51.5 -22t30.5 -3q27 0 46.5 9.5t32 29t17.5 30t12 31.5h88q-7 -27 -12.5 -45t-18.5 -53.5
t-31 -59.5t-43.5 -49.5t-62 -39t-79.5 -13.5q-55 0 -123 29l-60 27q-76 34 -92.5 39.5t-38.5 5.5q-45 0 -71.5 -31.5t-28.5 -65.5z" />
    <glyph glyph-name="adieresis" unicode="&#xe4;" 
d="M969 131l30 -43q-98 -117 -225 -117q-41 0 -71.5 10.5t-47 23t-29 36t-16 36.5t-8.5 38q-46 -46 -98 -78t-98 -44.5t-75.5 -17t-54.5 -4.5q-39 0 -77 12.5t-72 38t-55 69t-21 99.5q0 45 16.5 84t40.5 69t69.5 59.5t84 49.5t105.5 44.5t111.5 38.5t123.5 38v150
q0 88 -37 134t-143 46q-52 0 -86.5 -23.5t-34.5 -50.5q0 -17 15.5 -35.5t30.5 -44t15 -59.5q0 -38 -33.5 -76.5t-103.5 -38.5q-13 0 -24 1t-33.5 8.5t-38 21t-27.5 42t-12 67.5q0 104 101 179t282 75t295.5 -71.5t114.5 -209.5v-534q0 -52 45 -52q11 0 20 9zM600 205v297
q-20 -4 -44.5 -12t-63 -28.5t-68.5 -46t-52 -68.5t-22 -93q0 -54 27 -95.5t78 -41.5q32 0 63.5 17.5t45 31t36.5 39.5zM154 1233q0 45 35 89t94 44q54 0 92.5 -39.5t38.5 -95.5q0 -55 -37.5 -93t-93.5 -38q-60 0 -94.5 43.5t-34.5 89.5zM584 1233q0 46 34 89.5t93 43.5
q54 0 93.5 -40t39.5 -95t-38 -93t-95 -38q-60 0 -93.5 43.5t-33.5 89.5z" />
    <glyph glyph-name="aring" unicode="&#xe5;" 
d="M969 131l30 -43q-98 -117 -225 -117q-41 0 -71.5 10.5t-47 23t-29 36t-16 36.5t-8.5 38q-46 -46 -98 -78t-98 -44.5t-75.5 -17t-54.5 -4.5q-39 0 -77 12.5t-72 38t-55 69t-21 99.5q0 45 16.5 84t40.5 69t69.5 59.5t84 49.5t105.5 44.5t111.5 38.5t123.5 38v150
q0 88 -37 134t-143 46q-52 0 -86.5 -23.5t-34.5 -50.5q0 -17 15.5 -35.5t30.5 -44t15 -59.5q0 -38 -33.5 -76.5t-103.5 -38.5q-13 0 -24 1t-33.5 8.5t-38 21t-27.5 42t-12 67.5q0 104 101 179t282 75t295.5 -71.5t114.5 -209.5v-534q0 -52 45 -52q11 0 20 9zM600 205v297
q-20 -4 -44.5 -12t-63 -28.5t-68.5 -46t-52 -68.5t-22 -93q0 -54 27 -95.5t78 -41.5q32 0 63.5 17.5t45 31t36.5 39.5zM281 1296q0 90 64.5 155t154.5 65q89 0 153 -65t64 -155t-63.5 -153.5t-153.5 -63.5t-154.5 63t-64.5 154zM618 1296q0 48 -36 84.5t-86 36.5
q-53 0 -85 -40.5t-32 -80.5q0 -41 31 -79.5t86 -38.5q52 0 87 34t35 84z" />
    <glyph glyph-name="ae" unicode="&#xe6;" horiz-adv-x="1478" 
d="M1376 262l43 -31q-81 -132 -183.5 -190.5t-234.5 -58.5q-27 0 -43.5 1t-48.5 5t-57 15.5t-55 29.5t-57 49t-50 72l-12 -13q-170 -170 -367 -170q-118 0 -180.5 55t-62.5 160q0 45 12.5 83t29 66t58 56.5t72.5 46.5t102.5 45t118 42.5t145.5 47.5v164q0 26 -1 41t-9.5 42
t-24.5 42.5t-49 28t-80 12.5q-49 0 -89 -18.5t-40 -50.5q0 -17 9.5 -30.5t20.5 -22.5t20.5 -30t9.5 -51q0 -118 -140 -118q-50 0 -90.5 34.5t-40.5 96.5q0 106 103.5 181t255.5 75q71 0 124.5 -9t89 -28.5t52 -32t39.5 -35.5q101 105 264 105q52 0 102 -12.5t101 -43.5
t89.5 -78t62.5 -122.5t24 -169.5v-35h-520v-47q0 -30 0.5 -49t5 -58t12.5 -65.5t24.5 -60t40 -54t60.5 -35t84 -14.5q53 0 96.5 13t76 38t49 41.5t38.5 44.5zM606 166v342q-41 -14 -69.5 -26.5t-64 -34.5t-57.5 -48t-37.5 -65t-15.5 -86q0 -35 7 -65t33 -56.5t69 -26.5
q24 0 40 3t41.5 18t53.5 45zM889 584h272v67q0 141 -28 198.5t-105 57.5q-29 0 -51.5 -12t-37 -28.5t-24.5 -46.5t-15 -53t-7.5 -62.5t-3 -60.5t-0.5 -60z" />
    <glyph glyph-name="ccedilla" unicode="&#xe7;" horiz-adv-x="909" 
d="M844 223l37 -37q-142 -201 -359 -213l-45 -104q33 10 64 10q83 0 133.5 -35.5t50.5 -107.5q0 -47 -22 -82.5t-52 -53.5t-71.5 -29.5t-71 -14t-59.5 -2.5q-95 0 -187 36l33 76q78 -28 121 -28q119 0 119 83q0 37 -26.5 55.5t-68.5 18.5q-25 0 -57 -8l-23 16l78 174
q-172 17 -279.5 149.5t-107.5 313.5q0 116 32 209.5t82.5 151.5t116 97t128.5 55t125 16q76 0 146.5 -24.5t120.5 -77t50 -122.5q0 -37 -13.5 -64t-30 -39t-40 -19t-34 -8t-21.5 -1q-24 0 -42.5 6.5t-30.5 15.5t-20.5 27t-12.5 32t-6 40.5t-2.5 42.5t-0.5 47q0 41 -27 60.5
t-57 19.5q-38 0 -68 -18.5t-48 -51t-30.5 -67.5t-18 -77.5t-7.5 -71.5t-2 -58q0 -209 80.5 -330.5t204.5 -121.5q42 0 75.5 9t61 28.5t42.5 34t40 42.5z" />
    <glyph glyph-name="egrave" unicode="&#xe8;" horiz-adv-x="909" 
d="M336 578h274q0 7 -1 40.5t-1.5 52t-2.5 47.5t-5 51.5t-8 39.5q-26 96 -111 96q-32 0 -55.5 -12t-45 -44.5t-33 -100.5t-11.5 -170zM823 256l49 -29q-92 -140 -186 -198t-219 -58q-80 0 -152.5 30t-132.5 89t-95.5 158t-35.5 225q0 223 120.5 359.5t301.5 136.5
q73 0 133 -21t99 -51.5t68.5 -77t45 -86.5t26 -91t13 -78.5t4.5 -61.5h-516q13 -383 246 -383q42 0 79.5 13t69 39.5t45 41.5t37.5 43zM631 1081h-115l-291 181q-41 25 -61.5 50t-20.5 58q0 30 24.5 60t76.5 30q57 0 106 -57z" />
    <glyph glyph-name="eacute" unicode="&#xe9;" horiz-adv-x="909" 
d="M336 578h274q0 7 -1 40.5t-1.5 52t-2.5 47.5t-5 51.5t-8 39.5q-26 96 -111 96q-32 0 -55.5 -12t-45 -44.5t-33 -100.5t-11.5 -170zM823 256l49 -29q-92 -140 -186 -198t-219 -58q-80 0 -152.5 30t-132.5 89t-95.5 158t-35.5 225q0 223 120.5 359.5t301.5 136.5
q73 0 133 -21t99 -51.5t68.5 -77t45 -86.5t26 -91t13 -78.5t4.5 -61.5h-516q13 -383 246 -383q42 0 79.5 13t69 39.5t45 41.5t37.5 43zM709 1262l-291 -181h-115l281 322q51 57 106 57q38 0 69.5 -20.5t31.5 -69.5q0 -27 -12 -47.5t-25.5 -30.5t-44.5 -30z" />
    <glyph glyph-name="ecircumflex" unicode="&#xea;" horiz-adv-x="909" 
d="M336 578h274q0 7 -1 40.5t-1.5 52t-2.5 47.5t-5 51.5t-8 39.5q-26 96 -111 96q-32 0 -55.5 -12t-45 -44.5t-33 -100.5t-11.5 -170zM823 256l49 -29q-92 -140 -186 -198t-219 -58q-80 0 -152.5 30t-132.5 89t-95.5 158t-35.5 225q0 223 120.5 359.5t301.5 136.5
q73 0 133 -21t99 -51.5t68.5 -77t45 -86.5t26 -91t13 -78.5t4.5 -61.5h-516q13 -383 246 -383q42 0 79.5 13t69 39.5t45 41.5t37.5 43zM696 1081l-229 201l-229 -201h-115l250 361h188l252 -361h-117z" />
    <glyph glyph-name="edieresis" unicode="&#xeb;" horiz-adv-x="909" 
d="M336 578h274q0 7 -1 40.5t-1.5 52t-2.5 47.5t-5 51.5t-8 39.5q-26 96 -111 96q-32 0 -55.5 -12t-45 -44.5t-33 -100.5t-11.5 -170zM823 256l49 -29q-92 -140 -186 -198t-219 -58q-80 0 -152.5 30t-132.5 89t-95.5 158t-35.5 225q0 223 120.5 359.5t301.5 136.5
q73 0 133 -21t99 -51.5t68.5 -77t45 -86.5t26 -91t13 -78.5t4.5 -61.5h-516q13 -383 246 -383q42 0 79.5 13t69 39.5t45 41.5t37.5 43zM123 1233q0 45 35 89t94 44q54 0 92.5 -39.5t38.5 -95.5q0 -55 -37.5 -93t-93.5 -38q-60 0 -94.5 43.5t-34.5 89.5zM553 1233
q0 46 34 89.5t93 43.5q54 0 93.5 -40t39.5 -95t-38.5 -93t-94.5 -38q-60 0 -93.5 43.5t-33.5 89.5z" />
    <glyph glyph-name="igrave" unicode="&#xec;" horiz-adv-x="569" 
d="M522 49v-49h-489v49l34 8.5t26 9t22 14t13.5 20t10 30t2.5 41.5v602q0 65 -22.5 87.5t-85.5 33.5v49h393v-778q0 -53 20 -82t76 -35zM432 1081h-115l-290 181q-41 25 -61.5 50t-20.5 58q0 30 24 60t76 30q58 0 107 -57z" />
    <glyph glyph-name="iacute" unicode="&#xed;" horiz-adv-x="569" 
d="M522 49v-49h-489v49l34 8.5t26 9t22 14t13.5 20t10 30t2.5 41.5v602q0 65 -22.5 87.5t-85.5 33.5v49h393v-778q0 -53 20 -82t76 -35zM510 1262l-291 -181h-115l281 322q51 57 107 57q37 0 68.5 -20.5t31.5 -69.5q0 -27 -12 -47.5t-25.5 -30.5t-44.5 -30z" />
    <glyph glyph-name="icircumflex" unicode="&#xee;" horiz-adv-x="569" 
d="M522 49v-49h-489v49l34 8.5t26 9t22 14t13.5 20t10 30t2.5 41.5v602q0 65 -22.5 87.5t-85.5 33.5v49h393v-778q0 -53 20 -82t76 -35zM498 1081l-230 201l-229 -201h-115l250 361h188l252 -361h-116z" />
    <glyph glyph-name="idieresis" unicode="&#xef;" horiz-adv-x="569" 
d="M522 49v-49h-489v49l34 8.5t26 9t22 14t13.5 20t10 30t2.5 41.5v602q0 65 -22.5 87.5t-85.5 33.5v49h393v-778q0 -53 20 -82t76 -35zM-76 1233q0 45 35 89t94 44q54 0 92.5 -39.5t38.5 -95.5q0 -55 -37.5 -93t-93.5 -38q-60 0 -94.5 43.5t-34.5 89.5zM354 1233
q0 46 34 89.5t93 43.5q54 0 93.5 -40t39.5 -95t-38 -93t-95 -38q-60 0 -93.5 43.5t-33.5 89.5z" />
    <glyph glyph-name="eth" unicode="&#xf0;" 
d="M674 469q0 242 -34 339t-126 97q-32 0 -57 -12.5t-42 -32.5t-29 -54t-18.5 -67t-10 -82.5t-4.5 -89.5t-1 -98q0 -55 0.5 -83t2 -77t6 -75.5t12 -63.5t19.5 -57t29 -40.5t41 -29t54 -8.5q41 0 70.5 21t46.5 55.5t26 93.5t12 118t3 146zM524 1176l-225 -115l-98 63l239 121
q-128 94 -272 119l94 51q179 -15 328 -94l184 94l100 -61l-188 -97q289 -213 289 -655q0 -307 -123.5 -469t-337.5 -162q-138 0 -245 69.5t-162.5 182t-55.5 246.5q0 133 55 246t162.5 183.5t245.5 70.5q120 0 182 -84l4 6q-55 167 -176 285z" />
    <glyph glyph-name="ntilde" unicode="&#xf1;" horiz-adv-x="1138" 
d="M1104 49v-49h-481v49q51 4 73.5 32t22.5 85v496q0 24 -1 40.5t-7 43t-17 43t-33.5 29.5t-54.5 13q-37 0 -79 -26t-66.5 -54t-24.5 -38v-547q0 -22 3 -37.5t12 -34t31 -30t55 -15.5v-49h-494v49q33 6 49 11t32.5 18t22 35t5.5 59v602q0 66 -22.5 89t-86.5 32v49h391v-147
h4q15 25 34.5 48.5t55 54.5t88 50t113.5 19q46 0 91 -14.5t88 -45t69.5 -90t26.5 -139.5v-514q0 -20 0.5 -31t6 -29.5t15 -28.5t29.5 -18.5t49 -9.5zM283 1124h-86q50 256 241 256q49 0 146 -39l82 -36q41 -19 51.5 -22t30.5 -3q27 0 46.5 9.5t32 29t17.5 30t12 31.5h88
q-6 -22 -10 -37.5t-15 -45t-23 -50.5t-32 -47t-42.5 -42t-55.5 -27t-70 -11q-55 0 -123 29l-59 27q-77 34 -93 39.5t-38 5.5q-45 0 -71.5 -31.5t-28.5 -65.5z" />
    <glyph glyph-name="ograve" unicode="&#xf2;" 
d="M352 469q0 -55 0.5 -83t2 -77t6 -75.5t12 -63.5t19.5 -57t29 -40.5t41 -29t54 -8.5q41 0 70.5 21t46.5 55.5t26 93.5t12 118t3 146q0 242 -34 339t-126 97q-32 0 -57 -12.5t-42 -32.5t-29 -54t-18.5 -67t-10 -82.5t-4.5 -89.5t-1 -98zM51 469q0 133 55 246t162.5 183.5
t245.5 70.5q200 0 330.5 -142.5t130.5 -357.5q0 -136 -56 -249t-162.5 -181t-242.5 -68q-138 0 -245 69.5t-162.5 182t-55.5 246.5zM676 1081h-115l-291 181q-41 25 -61.5 50t-20.5 58q0 30 24.5 60t76.5 30q57 0 106 -57z" />
    <glyph glyph-name="oacute" unicode="&#xf3;" 
d="M352 469q0 -55 0.5 -83t2 -77t6 -75.5t12 -63.5t19.5 -57t29 -40.5t41 -29t54 -8.5q41 0 70.5 21t46.5 55.5t26 93.5t12 118t3 146q0 242 -34 339t-126 97q-32 0 -57 -12.5t-42 -32.5t-29 -54t-18.5 -67t-10 -82.5t-4.5 -89.5t-1 -98zM51 469q0 133 55 246t162.5 183.5
t245.5 70.5q200 0 330.5 -142.5t130.5 -357.5q0 -136 -56 -249t-162.5 -181t-242.5 -68q-138 0 -245 69.5t-162.5 182t-55.5 246.5zM754 1262l-291 -181h-115l281 322q51 57 106 57q38 0 69.5 -20.5t31.5 -69.5q0 -27 -12 -47.5t-25.5 -30.5t-44.5 -30z" />
    <glyph glyph-name="ocircumflex" unicode="&#xf4;" 
d="M352 469q0 -55 0.5 -83t2 -77t6 -75.5t12 -63.5t19.5 -57t29 -40.5t41 -29t54 -8.5q41 0 70.5 21t46.5 55.5t26 93.5t12 118t3 146q0 242 -34 339t-126 97q-32 0 -57 -12.5t-42 -32.5t-29 -54t-18.5 -67t-10 -82.5t-4.5 -89.5t-1 -98zM51 469q0 133 55 246t162.5 183.5
t245.5 70.5q200 0 330.5 -142.5t130.5 -357.5q0 -136 -56 -249t-162.5 -181t-242.5 -68q-138 0 -245 69.5t-162.5 182t-55.5 246.5zM741 1081l-229 201l-229 -201h-115l250 361h188l252 -361h-117z" />
    <glyph glyph-name="otilde" unicode="&#xf5;" 
d="M352 469q0 -55 0.5 -83t2 -77t6 -75.5t12 -63.5t19.5 -57t29 -40.5t41 -29t54 -8.5q41 0 70.5 21t46.5 55.5t26 93.5t12 118t3 146q0 242 -34 339t-126 97q-32 0 -57 -12.5t-42 -32.5t-29 -54t-18.5 -67t-10 -82.5t-4.5 -89.5t-1 -98zM51 469q0 133 55 246t162.5 183.5
t245.5 70.5q200 0 330.5 -142.5t130.5 -357.5q0 -136 -56 -249t-162.5 -181t-242.5 -68q-138 0 -245 69.5t-162.5 182t-55.5 246.5zM225 1124h-86q50 256 242 256q47 0 145 -39l82 -36q41 -19 51.5 -22t30.5 -3q27 0 47 9.5t32.5 28.5t17.5 30.5t12 31.5h88
q-6 -22 -10 -37.5t-15 -45t-23 -50.5t-32 -47t-42.5 -42t-55.5 -27t-70 -11q-55 0 -123 29l-59 27q-77 34 -93 39.5t-38 5.5q-45 0 -72 -32t-29 -65z" />
    <glyph glyph-name="odieresis" unicode="&#xf6;" 
d="M352 469q0 -55 0.5 -83t2 -77t6 -75.5t12 -63.5t19.5 -57t29 -40.5t41 -29t54 -8.5q41 0 70.5 21t46.5 55.5t26 93.5t12 118t3 146q0 242 -34 339t-126 97q-32 0 -57 -12.5t-42 -32.5t-29 -54t-18.5 -67t-10 -82.5t-4.5 -89.5t-1 -98zM51 469q0 133 55 246t162.5 183.5
t245.5 70.5q200 0 330.5 -142.5t130.5 -357.5q0 -136 -56 -249t-162.5 -181t-242.5 -68q-138 0 -245 69.5t-162.5 182t-55.5 246.5zM168 1233q0 45 35 89t94 44q54 0 92.5 -39.5t38.5 -95.5q0 -55 -37.5 -93t-93.5 -38q-60 0 -94.5 43.5t-34.5 89.5zM598 1233q0 46 34 89.5
t93 43.5q54 0 93.5 -40t39.5 -95t-38 -93t-95 -38q-60 0 -93.5 43.5t-33.5 89.5z" />
    <glyph glyph-name="divide" unicode="&#xf7;" horiz-adv-x="1167" 
d="M1100 428h-1032v180h1032v-180zM428 942q0 64 47 111t111 47q62 0 108.5 -47.5t46.5 -110.5q0 -59 -47 -107.5t-106 -48.5q-66 0 -113 46.5t-47 109.5zM428 94q0 64 46.5 110t111.5 46q62 0 108.5 -46.5t46.5 -109.5q0 -59 -47 -108t-106 -49q-66 0 -113 47t-47 110z" />
    <glyph glyph-name="oslash" unicode="&#xf8;" 
d="M358 293l289 489q-17 64 -49 93.5t-84 29.5q-32 0 -57 -12.5t-42 -32.5t-29 -54t-18.5 -67t-10 -82.5t-4.5 -89.5t-1 -98q0 -123 2 -176h4zM944 1124l-149 -252q84 -67 132 -172t48 -231q0 -136 -56 -249t-162.5 -181t-242.5 -68q-121 0 -219 56l-129 -215h-96l155 262
q-83 69 -128.5 172.5t-45.5 222.5q0 133 55 246t162.5 183.5t245.5 70.5q122 0 213 -51l123 206h94zM666 657l-291 -493q32 -129 141 -129q41 0 70.5 21t46.5 55.5t26 93.5t12 118t3 146q0 86 -4 188h-4z" />
    <glyph glyph-name="ugrave" unicode="&#xf9;" horiz-adv-x="1138" 
d="M1100 88v-47q-201 -22 -257.5 -31t-140.5 -37v133q-34 -29 -53.5 -44t-60 -41t-84.5 -38t-92 -12q-75 0 -131 24t-87.5 65.5t-46 91t-14.5 106.5v516q0 63 -19 87t-81 34v49h385v-694q0 -24 1 -38t7 -37t17 -36.5t34 -24t55 -10.5q36 0 71 16.5t52 31.5t45 43v579
q0 33 -7.5 55.5t-16 34t-29.5 18.5t-32.5 8.5t-41.5 4.5v49h412v-737q0 -63 24 -90.5t91 -28.5zM719 1081h-115l-291 181q-41 25 -61.5 50t-20.5 58q0 30 24.5 60t76.5 30q57 0 106 -57z" />
    <glyph glyph-name="uacute" unicode="&#xfa;" horiz-adv-x="1138" 
d="M1100 88v-47q-201 -22 -257.5 -31t-140.5 -37v133q-34 -29 -53.5 -44t-60 -41t-84.5 -38t-92 -12q-75 0 -131 24t-87.5 65.5t-46 91t-14.5 106.5v516q0 63 -19 87t-81 34v49h385v-694q0 -24 1 -38t7 -37t17 -36.5t34 -24t55 -10.5q36 0 71 16.5t52 31.5t45 43v579
q0 33 -7.5 55.5t-16 34t-29.5 18.5t-32.5 8.5t-41.5 4.5v49h412v-737q0 -63 24 -90.5t91 -28.5zM797 1262l-291 -181h-115l281 322q51 57 106 57q38 0 69.5 -20.5t31.5 -69.5q0 -27 -12 -47.5t-25.5 -30.5t-44.5 -30z" />
    <glyph glyph-name="ucircumflex" unicode="&#xfb;" horiz-adv-x="1138" 
d="M1100 88v-47q-201 -22 -257.5 -31t-140.5 -37v133q-34 -29 -53.5 -44t-60 -41t-84.5 -38t-92 -12q-75 0 -131 24t-87.5 65.5t-46 91t-14.5 106.5v516q0 63 -19 87t-81 34v49h385v-694q0 -24 1 -38t7 -37t17 -36.5t34 -24t55 -10.5q36 0 71 16.5t52 31.5t45 43v579
q0 33 -7.5 55.5t-16 34t-29.5 18.5t-32.5 8.5t-41.5 4.5v49h412v-737q0 -63 24 -90.5t91 -28.5zM784 1081l-229 201l-229 -201h-115l250 361h188l252 -361h-117z" />
    <glyph glyph-name="udieresis" unicode="&#xfc;" horiz-adv-x="1138" 
d="M1100 88v-47q-201 -22 -257.5 -31t-140.5 -37v133q-34 -29 -53.5 -44t-60 -41t-84.5 -38t-92 -12q-75 0 -131 24t-87.5 65.5t-46 91t-14.5 106.5v516q0 63 -19 87t-81 34v49h385v-694q0 -24 1 -38t7 -37t17 -36.5t34 -24t55 -10.5q36 0 71 16.5t52 31.5t45 43v579
q0 33 -7.5 55.5t-16 34t-29.5 18.5t-32.5 8.5t-41.5 4.5v49h412v-737q0 -63 24 -90.5t91 -28.5zM211 1233q0 45 35 89t94 44q54 0 92.5 -39.5t38.5 -95.5q0 -55 -37.5 -93t-93.5 -38q-60 0 -94.5 43.5t-34.5 89.5zM641 1233q0 46 34 89.5t93 43.5q54 0 93.5 -40t39.5 -95
t-38.5 -93t-94.5 -38q-60 0 -93.5 43.5t-33.5 89.5z" />
    <glyph glyph-name="yacute" unicode="&#xfd;" 
d="M983 944v-49q-22 -3 -33 -6.5t-27.5 -14t-30.5 -33t-28 -59.5l-305 -813q-74 -196 -109 -257q-55 -94 -135 -120q-40 -12 -94 -12q-91 0 -139.5 50.5t-48.5 109.5q0 16 4.5 34t16.5 42.5t41.5 40.5t72.5 16q61 0 88 -33.5t27 -70.5q0 -10 -3.5 -22t-3.5 -15
q0 -10 9 -22.5t26 -12.5q32 0 63 34.5t46.5 68.5t25.5 65l37 108l-245 605q-37 91 -119 262q-13 24 -24 34t-21 13t-41 8v49h512v-49q-30 -2 -41 -3.5t-31.5 -7t-28.5 -16.5t-8 -28q0 -16 41 -119l148 -379l139 393q22 64 22 92q0 23 -9 37.5t-29.5 20.5t-32.5 7.5t-41 2.5
v49h309zM754 1262l-291 -181h-115l281 322q51 57 106 57q38 0 69.5 -20.5t31.5 -69.5q0 -27 -12 -47.5t-25.5 -30.5t-44.5 -30z" />
    <glyph glyph-name="thorn" unicode="&#xfe;" horiz-adv-x="1138" 
d="M438 709v-498q24 -59 68.5 -92t89.5 -33q174 0 174 371q0 51 -1.5 89.5t-6.5 88.5t-16 85t-28 67t-44.5 48.5t-63.5 16.5q-61 0 -116.5 -56.5t-55.5 -86.5zM598 -377v-43h-559v49q71 11 93 33.5t22 85.5v1469q0 66 -24 86t-89 32v49h397v-575h4q73 160 256 160
q67 0 131.5 -28t120 -83t89.5 -149t34 -213q0 -243 -114 -383t-279 -140q-41 0 -74.5 8.5t-64.5 29t-50 36.5t-53 49v-289q0 -59 10.5 -96t34.5 -55.5t49 -24.5t66 -8z" />
    <glyph glyph-name="ydieresis" unicode="&#xff;" 
d="M983 944v-49q-22 -3 -33 -6.5t-27.5 -14t-30.5 -33t-28 -59.5l-305 -813q-74 -196 -109 -257q-55 -94 -135 -120q-40 -12 -94 -12q-91 0 -139.5 50.5t-48.5 109.5q0 16 4.5 34t16.5 42.5t41.5 40.5t72.5 16q61 0 88 -33.5t27 -70.5q0 -10 -3.5 -22t-3.5 -15
q0 -10 9 -22.5t26 -12.5q32 0 63 34.5t46.5 68.5t25.5 65l37 108l-245 605q-37 91 -119 262q-13 24 -24 34t-21 13t-41 8v49h512v-49q-30 -2 -41 -3.5t-31.5 -7t-28.5 -16.5t-8 -28q0 -16 41 -119l148 -379l139 393q22 64 22 92q0 23 -9 37.5t-29.5 20.5t-32.5 7.5t-41 2.5
v49h309zM168 1233q0 45 35 89t94 44q54 0 92.5 -39.5t38.5 -95.5q0 -55 -37.5 -93t-93.5 -38q-60 0 -94.5 43.5t-34.5 89.5zM598 1233q0 46 34 89.5t93 43.5q54 0 93.5 -40t39.5 -95t-38 -93t-95 -38q-60 0 -93.5 43.5t-33.5 89.5z" />
    <glyph glyph-name="dotlessi" unicode="&#x131;" horiz-adv-x="569" 
d="M522 49v-49h-489v49l34 8.5t26 9t22 14t13.5 20t10 30t2.5 41.5v602q0 65 -22.5 87.5t-85.5 33.5v49h393v-778q0 -53 20 -82t76 -35z" />
    <glyph glyph-name="Lslash" unicode="&#x141;" horiz-adv-x="1366" 
d="M1307 465l-84 -465h-1184v51q37 5 53.5 7.5t42 9t36.5 15t23.5 24t16.5 37.5t4 53v190l-166 -100v125l166 100v676q0 33 -6 57t-20 39.5t-26.5 24.5t-38 14t-39.5 6.5t-46 3.5v51h715v-51q-35 -1 -50.5 -2t-41.5 -4.5t-37 -8.5t-27.5 -14t-23 -22t-14.5 -32.5t-10.5 -45
t-2.5 -59.5v-438l252 155v-125l-252 -155v-404q0 -71 37.5 -93t144.5 -22q90 0 163.5 20.5t125 53.5t95.5 87.5t73.5 109.5t60.5 131h60z" />
    <glyph glyph-name="lslash" unicode="&#x142;" horiz-adv-x="569" 
d="M33 1384h389v-440l199 164v-102l-199 -164v-670q0 -123 100 -123v-49h-489v49q55 0 79.5 38t24.5 85v487l-182 -147v102l182 148v455q0 11 -1 21.5t-7 29.5t-16 32.5t-31 24t-49 10.5v49z" />
    <glyph glyph-name="OE" unicode="&#x152;" horiz-adv-x="2048" 
d="M967 434v596q0 72 -1.5 105t-11.5 80.5t-31 67.5t-60.5 36t-98.5 16q-68 0 -124 -25t-94 -65.5t-66.5 -98.5t-44.5 -116.5t-26 -128t-13 -124.5t-3 -113q0 -115 11 -207t28.5 -155t45.5 -109t56.5 -72t67 -41.5t72 -20t76.5 -4.5q54 0 91.5 8t61.5 33.5t37 48t19 77t7 92
t1 120.5zM2009 432l-86 -432h-881q-98 0 -192 -4q-68 -6 -119 -6q-316 0 -501 187.5t-185 533.5q0 47 7.5 100t28.5 122t54.5 132t91 125.5t131.5 108t182.5 74t237.5 28.5q24 0 160 -8q26 -2 61.5 -4t56 -3.5t25.5 -1.5h844v-411h-53q-8 47 -15.5 79t-22.5 71t-35 64.5
t-52.5 51t-74.5 40.5t-102.5 24.5t-135.5 9.5q-93 0 -121.5 -9t-28.5 -44v-510q61 1 104 7.5t73.5 22t50 37.5t33.5 57.5t24.5 76.5t23.5 100v2h47v-693h-47q-5 35 -8 53t-9 48.5t-12 46t-16 40t-21.5 37.5t-28 30.5t-37.5 27t-47 19t-58.5 14.5t-71.5 6v-512
q0 -25 2.5 -37.5t14.5 -29.5t42 -24t80 -7q68 0 118.5 6t112.5 27t110.5 59t99 105.5t90.5 162.5h55z" />
    <glyph glyph-name="oe" unicode="&#x153;" horiz-adv-x="1478" 
d="M909 578h260q-1 50 -2 74.5t-3.5 63.5t-6.5 58t-10 46t-15 39.5t-21.5 26t-29.5 18.5t-39 5q-30 0 -53.5 -11t-37 -33t-22.5 -42t-13 -50.5t-5 -45.5t-2 -39v-110zM1384 256l41 -33q-22 -31 -33.5 -46.5t-37.5 -47t-46 -49t-52.5 -41.5t-64 -36.5t-74 -22t-87.5 -9.5
q-46 0 -85 7.5t-62 16.5t-46 26t-31 25t-22 24q-23 -20 -40 -31.5t-53 -30t-86 -28t-113 -9.5q-84 0 -157 27.5t-125.5 75t-90 110.5t-56 134.5t-18.5 146.5q0 213 126.5 358.5t326.5 145.5q60 0 107 -10t79.5 -29.5t46 -30.5t33.5 -31q39 30 64.5 47t78.5 35.5t111 18.5
q88 0 157 -25t114 -67t74 -103t42 -127.5t14 -144.5h-510v-41q0 -342 228 -342q46 0 83 10.5t68.5 34t48.5 40.5t47 52zM631 305v332q0 149 -32.5 210.5t-113.5 61.5q-53 0 -82 -30t-45 -121t-16 -262q0 -106 5.5 -184.5t16.5 -128t24 -80.5t33.5 -46t38 -19.5t44.5 -4.5
q127 0 127 272z" />
    <glyph glyph-name="Scaron" unicode="&#x160;" horiz-adv-x="1138" 
d="M991 973h-57q-12 47 -32.5 94.5t-55.5 100t-78 92.5t-105 66t-131 26q-88 0 -153.5 -51t-65.5 -144q0 -83 41 -130.5t170 -111.5l301 -149q32 -16 66 -43.5t72.5 -73t63 -114t24.5 -146.5q0 -57 -16 -114t-54.5 -114.5t-95 -101t-145 -71t-197.5 -27.5q-85 0 -158.5 17.5
t-121 35t-70.5 17.5q-20 0 -33.5 -12t-18.5 -24.5t-10 -33.5h-59v506h59q17 -84 47.5 -157t79.5 -138.5t124.5 -104t168.5 -38.5q50 0 91.5 11.5t67 29t45 41.5t29 45.5t15.5 45t7 35.5t1 21q0 40 -12 73t-29 55.5t-51 46t-61 38t-76 37.5l-138 65q-72 35 -129 73
t-93.5 70.5t-62 71t-38 64.5t-19 61.5t-7.5 52.5t-1 46q0 44 9 90.5t39 105t77 102.5t132 74.5t196 30.5q71 0 138 -16.5t113 -33.5t68 -17q32 0 45.5 17t22.5 52h61v-444zM915 1872l-251 -361h-189l-250 361h115l229 -203l230 203h116z" />
    <glyph glyph-name="scaron" unicode="&#x161;" horiz-adv-x="796" 
d="M696 668h-51q-32 109 -99.5 171t-154.5 62q-55 0 -93 -34.5t-38 -82.5q0 -42 26.5 -75t68.5 -56.5t93 -45.5t102.5 -49.5t93.5 -61t68.5 -87.5t26.5 -122q0 -145 -88.5 -230.5t-232.5 -85.5q-45 0 -105.5 15t-105 30t-49.5 15q-17 0 -28.5 -13t-27.5 -45h-51v338h58
q5 -22 10.5 -40t19 -53.5t34.5 -63t50.5 -55t74.5 -43t99 -15.5q71 0 108.5 41.5t37.5 93.5q0 38 -27 69.5t-70 55.5t-95 48t-104 53t-95 63.5t-70 86.5t-27 116q0 134 92 217.5t234 83.5q55 0 131 -22.5t88 -22.5q17 0 28.5 8t14.5 14.5t8 18.5h45v-297zM743 1442
l-251 -361h-189l-250 361h115l229 -203l230 203h116z" />
    <glyph glyph-name="Ydieresis" unicode="&#x178;" horiz-adv-x="1478" 
d="M1432 1384v-51q-22 -3 -34 -6t-34 -11t-40 -24t-32 -39l-391 -637v-376q0 -32 1.5 -56t8 -43t12 -31.5t20 -22.5t24.5 -15t34 -9.5t39.5 -6.5t49.5 -5v-51h-711v51q34 3 49.5 5t39.5 6.5t34 9.5t24.5 15t20 22.5t12 31t8.5 43t2 56.5v301l-374 680q-59 106 -164 112v51
h686v-51q-105 0 -135.5 -13t-30.5 -56q0 -14 7.5 -33t23 -48t18.5 -34l246 -475l227 379q80 131 80 190q0 20 -5 34t-19 23.5t-25.5 15t-36.5 9t-39.5 5t-46.5 3.5v51h451zM436 1663q0 45 35 89t94 44q54 0 92.5 -39.5t38.5 -95.5q0 -55 -37.5 -93t-93.5 -38
q-60 0 -94.5 43.5t-34.5 89.5zM866 1663q0 46 34 89.5t93 43.5q54 0 93.5 -40t39.5 -95t-38 -93t-95 -38q-60 0 -93.5 43.5t-33.5 89.5z" />
    <glyph glyph-name="Zcaron" unicode="&#x17d;" horiz-adv-x="1366" 
d="M1298 494l-53 -494h-1188v33l783 1280q-254 -7 -308 -11.5t-106 -19.5q-37 -11 -68.5 -31t-56.5 -50.5t-42 -55t-35 -65.5t-25 -59.5t-21 -57.5h-57l43 421h1073v-32l-776 -1280q26 0 73.5 -1t69.5 -1q85 0 144.5 3.5t122.5 13.5t107 29t87.5 50t74.5 76.5t58 107.5
t47 144h53zM1028 1872l-252 -361h-188l-250 361h115l229 -203l229 203h117z" />
    <glyph glyph-name="zcaron" unicode="&#x17e;" horiz-adv-x="909" 
d="M860 328l-33 -328h-784v51l479 828q-91 -1 -131 -3t-93.5 -13t-78 -35t-48.5 -66t-40 -109h-53l14 291h760v-53l-473 -825h59q114 0 180 20q52 20 94.5 68.5t62.5 92t28 81.5h57zM801 1442l-252 -361h-189l-249 361h114l230 -203l229 203h117z" />
    <glyph glyph-name="florin" unicode="&#x192;" 
d="M152 807v94h245q6 37 10 59.5t15 70t21.5 80t29.5 79.5t40 79.5t51.5 68.5t65.5 57.5t81 36t98 14.5q56 0 98 -14.5t62.5 -33.5t33 -44t15 -40.5t2.5 -29.5q0 -50 -31.5 -86.5t-75.5 -36.5q-46 0 -79 27t-33 69q0 25 18.5 60t18.5 37q0 4 -2.5 10t-13.5 13t-29 7
q-134 0 -134 -299v-184h250v-94h-250q-6 -86 -11 -194.5t-10 -185t-15 -155.5q-12 -94 -32.5 -176t-56 -159.5t-82 -132.5t-114 -88t-148.5 -33q-100 0 -145 47.5t-45 109.5t35 90.5t76 28.5q45 0 77.5 -25.5t32.5 -74.5q0 -30 -18.5 -52t-18.5 -32q0 -11 13.5 -21t31.5 -10
q47 0 88 54t45 177l27 832h-237z" />
    <glyph glyph-name="circumflex" unicode="&#x2c6;" horiz-adv-x="681" 
d="M569 1081l-229 201l-229 -201h-115l250 361h188l252 -361h-117z" />
    <glyph glyph-name="caron" unicode="&#x2c7;" horiz-adv-x="681" 
d="M686 1442l-252 -361h-188l-250 361h115l229 -203l229 203h117z" />
    <glyph glyph-name="uni02C9" unicode="&#x2c9;" horiz-adv-x="681" 
d="M678 1305v-148h-676v148h676z" />
    <glyph glyph-name="breve" unicode="&#x2d8;" horiz-adv-x="681" 
d="M561 1415h90q-11 -159 -88.5 -246.5t-222.5 -87.5q-144 0 -226 86.5t-83 247.5h90q4 -24 8.5 -41t20 -45.5t37 -46t62 -31.5t93.5 -14q49 0 87.5 13.5t59.5 30.5t37.5 45t22 45t12.5 44z" />
    <glyph glyph-name="dotaccent" unicode="&#x2d9;" horiz-adv-x="681" 
d="M211 1255q0 66 46 113t114 47q66 0 111.5 -47t45.5 -113q0 -67 -45.5 -112t-111.5 -45q-70 0 -115 45t-45 112z" />
    <glyph glyph-name="ring" unicode="&#x2da;" horiz-adv-x="681" 
d="M123 1296q0 90 64.5 155t154.5 65q89 0 153 -65t64 -155t-63.5 -153.5t-153.5 -63.5t-154.5 63t-64.5 154zM461 1296q0 48 -36.5 84.5t-86.5 36.5q-53 0 -85 -40.5t-32 -80.5q0 -41 31 -79.5t86 -38.5q52 0 87.5 34t35.5 84z" />
    <glyph glyph-name="ogonek" unicode="&#x2db;" horiz-adv-x="681" 
d="M324 49h67q-2 -11 -12 -47t-16.5 -68t-6.5 -55q0 -133 133 -133q17 0 33.5 5.5t25.5 11t30 20t30 20.5l45 -45q-31 -68 -106 -110.5t-135 -42.5q-36 0 -71 7.5t-72.5 24.5t-61 52.5t-23.5 85.5q0 145 140 274z" />
    <glyph glyph-name="tilde" unicode="&#x2dc;" horiz-adv-x="681" 
d="M53 1124h-86q50 256 242 256q47 0 145 -39l82 -36q41 -19 51.5 -22t30.5 -3q27 0 47 9.5t32.5 28.5t17.5 30.5t12 31.5h88q-6 -22 -10 -37.5t-15 -45t-23 -50.5t-32 -47t-42.5 -42t-55.5 -27t-70 -11q-55 0 -123 29l-59 27q-76 34 -92.5 39.5t-38.5 5.5q-45 0 -72 -32
t-29 -65z" />
    <glyph glyph-name="hungarumlaut" unicode="&#x2dd;" horiz-adv-x="681" 
d="M379 1262l-291 -181h-115l281 322q51 57 106 57q38 0 69.5 -20.5t31.5 -69.5q0 -27 -12 -47.5t-25.5 -30.5t-44.5 -30zM788 1262l-290 -181h-115l281 322q51 57 106 57q37 0 68.5 -20.5t31.5 -69.5q0 -27 -12 -47.5t-25.5 -30.5t-44.5 -30z" />
    <glyph glyph-name="uni03A9" unicode="&#x3a9;" horiz-adv-x="1339" 
d="M1282 354l-51 -354h-477l-19 43q5 15 27.5 84.5t30.5 95t28 90.5t28.5 99t22.5 92t20.5 98t11.5 87.5t5 88.5q-3 545 -243 545q-56 0 -97 -24t-73.5 -83t-49 -169.5t-16.5 -272.5q0 -259 172 -731l-20 -43h-480l-45 354h72q29 -83 58 -108t92 -25h161q-40 32 -62.5 51
t-62.5 57.5t-64 68.5t-54 77t-47 92t-29 104t-12 122q0 138 43.5 253t119.5 193t179.5 121t222.5 43q244 0 399.5 -163.5t155.5 -438.5q0 -95 -25.5 -177t-83 -156t-97 -115t-118.5 -112q-15 -13 -22 -20h190q55 0 81.5 25t53.5 108h74z" />
    <glyph glyph-name="uni03BC" unicode="&#x3bc;" horiz-adv-x="1230" 
d="M1223 274q-21 -303 -285 -303q-87 0 -139 50.5t-66 166.5q-38 -108 -114.5 -162.5t-165.5 -54.5q-77 0 -130 28.5t-98 104.5q8 -74 41.5 -153t61.5 -142t28 -108q0 -65 -29.5 -100t-84.5 -35q-56 0 -86.5 39t-30.5 112q0 43 14.5 150t14.5 184v893h284v-610
q0 -117 21.5 -166t91.5 -49q47 0 81.5 29.5t53 79.5t27 105t8.5 116v495h285v-715q0 -56 12.5 -82t46.5 -26q78 0 88 153h70z" />
    <glyph glyph-name="pi" unicode="&#x3c0;" horiz-adv-x="1107" 
d="M1001 946l64 -12q-6 -63 -29 -141t-43 -111q-31 -12 -112 -12q-11 -148 -11 -355q1 -94 18 -132t50 -38q34 0 78 35l26 -57q-37 -61 -103.5 -105.5t-131.5 -44.5q-207 0 -207 279q0 181 16 424q-22 -3 -103.5 -0.5t-100.5 2.5v-14q0 -477 -125 -652q-62 -30 -150 -39
l-16 47q95 145 137.5 321t42.5 341q-75 1 -120 -12.5t-113 -53.5l-33 66q3 4 17.5 24.5t20.5 28t22 27t26 29t29.5 26t35.5 25t40 19.5t48 16.5t54 9.5t63 4q225 -6 502 -6q48 0 68.5 12t39.5 49z" />
    <glyph glyph-name="uni2010" unicode="&#x2010;" horiz-adv-x="681" 
d="M588 588v-238h-498v238h498z" />
    <glyph glyph-name="endash" unicode="&#x2013;" 
d="M0 555h1024v-184h-1024v184z" />
    <glyph glyph-name="emdash" unicode="&#x2014;" horiz-adv-x="2048" 
d="M0 555h2048v-184h-2048v184z" />
    <glyph glyph-name="quoteleft" unicode="&#x2018;" horiz-adv-x="681" 
d="M483 1415l23 -45q-223 -153 -223 -270q0 -20 10.5 -32.5t30.5 -12.5q3 0 17 2t28 2q24 0 48 -7.5t48.5 -24.5t39.5 -50.5t15 -79.5q0 -77 -47.5 -122.5t-120.5 -45.5q-71 0 -120 37.5t-69 88.5t-20 108q0 53 14 103t34 88.5t52.5 76t59.5 62t65.5 51.5t60.5 40t54 31z
" />
    <glyph glyph-name="quoteright" unicode="&#x2019;" horiz-adv-x="681" 
d="M199 729l-23 45q223 153 223 270q0 20 -11 33t-30 13q-3 0 -17 -2.5t-28 -2.5q-24 0 -48 7.5t-48.5 24.5t-39.5 50.5t-15 79.5q0 77 47.5 122.5t120.5 45.5q71 0 120 -37t69 -88t20 -108q0 -53 -14 -103t-34 -88.5t-52 -76t-59.5 -62.5t-66 -52t-60.5 -40t-54 -31z" />
    <glyph glyph-name="quotesinglbase" unicode="&#x201a;" horiz-adv-x="681" 
d="M199 -369l-23 45q223 153 223 271q0 20 -10.5 32.5t-30.5 12.5q-3 0 -17 -2t-28 -2q-24 0 -48 7.5t-48.5 24.5t-39.5 50.5t-15 79.5q0 77 47.5 122t120.5 45q71 0 120 -37t69 -88t20 -108q0 -53 -14 -103t-34 -88.5t-52 -76t-59.5 -62.5t-66 -52t-60.5 -40t-54 -31z" />
    <glyph glyph-name="quotedblleft" unicode="&#x201c;" 
d="M406 1415l22 -45q-223 -153 -223 -270q0 -20 10.5 -32.5t30.5 -12.5q3 0 17 2t28 2q24 0 48 -7.5t48.5 -24.5t39.5 -50.5t15 -79.5q0 -77 -47.5 -122.5t-120.5 -45.5q-103 0 -155.5 71t-52.5 163q0 53 14 103t34 88.5t52.5 76t59.5 62t65.5 51.5t60.5 40t54 31zM958 1415
l23 -45q-223 -153 -223 -270q0 -20 10.5 -32.5t30.5 -12.5q3 0 17 2t28 2q24 0 48 -7.5t48.5 -24.5t39.5 -50.5t15 -79.5q0 -77 -47.5 -122.5t-120.5 -45.5q-71 0 -120 37.5t-69 88.5t-20 108q0 53 14 103t34 88.5t52.5 76t59.5 62t65.5 51.5t60.5 40t54 31z" />
    <glyph glyph-name="quotedblright" unicode="&#x201d;" 
d="M618 729l-22 45q223 153 223 270q0 20 -11 33t-30 13q-3 0 -17 -2.5t-28 -2.5q-24 0 -48 7.5t-48.5 24.5t-39.5 50.5t-15 79.5q0 77 47.5 122.5t120.5 45.5q54 0 95.5 -21t65 -56t35.5 -74.5t12 -81.5q0 -53 -14 -103t-34 -88.5t-52 -76t-59.5 -62.5t-66 -52t-60.5 -40
t-54 -31zM66 729l-23 45q223 153 223 270q0 20 -11 33t-30 13q-3 0 -17 -2.5t-28 -2.5q-24 0 -48 7.5t-48.5 24.5t-39.5 50.5t-15 79.5q0 77 47.5 122.5t120.5 45.5q71 0 120 -37t69 -88t20 -108q0 -53 -14 -103t-34 -88.5t-52 -76t-59.5 -62.5t-66 -52t-60.5 -40t-54 -31z
" />
    <glyph glyph-name="quotedblbase" unicode="&#x201e;" 
d="M618 -369l-22 45q223 153 223 271q0 20 -10.5 32.5t-30.5 12.5q-3 0 -17 -2t-28 -2q-24 0 -48 7.5t-48.5 24.5t-39.5 50.5t-15 79.5q0 77 47.5 122t120.5 45q54 0 95.5 -21t65 -56t35.5 -74.5t12 -81.5q0 -53 -14 -103t-34 -88.5t-52 -76t-59.5 -62.5t-66 -52t-60.5 -40
t-54 -31zM66 -369l-23 45q223 153 223 271q0 20 -10.5 32.5t-30.5 12.5q-3 0 -17 -2t-28 -2q-24 0 -48 7.5t-48.5 24.5t-39.5 50.5t-15 79.5q0 77 47.5 122t120.5 45q71 0 120 -37t69 -88t20 -108q0 -53 -14 -103t-34 -88.5t-52 -76t-59.5 -62.5t-66 -52t-60.5 -40t-54 -31z
" />
    <glyph glyph-name="dagger" unicode="&#x2020;" 
d="M535 -274h-43l-11 294q-3 90 -14.5 176t-26.5 145t-29.5 105t-24 72t-9.5 29q0 17 11.5 34t27.5 38.5t32 53.5t27.5 94.5t11.5 145.5q-61 -5 -106.5 -19.5t-66.5 -29.5t-51 -27t-66 -12q-48 0 -74.5 33.5t-26.5 73.5q0 12 2 24.5t10.5 35.5t32 37.5t58.5 14.5
q34 0 66 -12.5t55 -28t67.5 -30.5t99.5 -19q0 70 -9.5 121t-22.5 78t-26 47.5t-22.5 43t-9.5 50.5q0 47 28 84t87 37q11 0 23 -1.5t30 -8t31 -17t23 -31t10 -48.5q0 -39 -14.5 -75t-32.5 -62.5t-32.5 -80t-14.5 -124.5v-13q69 8 123.5 31t92 41t72.5 18q33 0 56 -12.5
t32.5 -33t13 -35.5t3.5 -29q0 -48 -27 -77.5t-76 -29.5q-40 0 -82.5 21.5t-94 43t-113.5 21.5v-16q0 -61 12 -118t29 -95.5t34 -68.5t29 -47t12 -19q0 -3 -8 -24t-17 -44.5t-10 -27.5q-63 -214 -71 -433z" />
    <glyph glyph-name="daggerdbl" unicode="&#x2021;" 
d="M831 834q-30 0 -62 12.5t-58.5 27t-72.5 27t-101 12.5q0 -63 11.5 -119.5t27.5 -93.5t32 -65t27.5 -44t11.5 -20t-11.5 -20.5t-27.5 -44.5t-32 -65t-27.5 -94t-11.5 -120h6q51 0 94.5 12.5t69 27.5t60.5 27.5t71 12.5q96 0 96 -106q0 -42 -30.5 -67t-76.5 -25
q-27 0 -73 20t-104 41t-113 23q0 -67 14 -124.5t31 -89.5t31 -68.5t14 -68.5q0 -50 -33.5 -81t-83.5 -31q-40 0 -73.5 26.5t-33.5 81.5q0 35 13.5 70t29.5 63.5t29.5 86t13.5 132.5h-36q-43 0 -130.5 -40.5t-125.5 -40.5q-31 0 -54 11.5t-33 29t-14 32t-4 27.5q0 45 29 73.5
t74 28.5q34 0 80 -21t101 -42t109 -21h4q-1 101 -28 175.5t-84 168.5q39 64 57 99.5t36 101.5t19 141q-62 0 -117 -20.5t-98.5 -41t-78.5 -20.5q-45 0 -74 29t-29 74q0 13 4 27.5t14 32t33 29t54 11.5q38 0 125.5 -41t130.5 -41l36 -2q0 74 -13.5 133t-29.5 89t-29.5 66
t-13.5 69q0 55 33 81.5t74 26.5q50 0 83.5 -31t33.5 -81q0 -31 -14 -68.5t-31 -70t-31 -90t-14 -124.5q55 2 113 23t104 41t73 20q47 0 77 -26t30 -72q0 -49 -27.5 -75.5t-75.5 -26.5z" />
    <glyph glyph-name="bullet" unicode="&#x2022;" horiz-adv-x="716" 
d="M72 692q0 118 84.5 202.5t201.5 84.5q121 0 204 -84t83 -203q0 -121 -82.5 -203.5t-204.5 -82.5q-118 0 -202 83t-84 203z" />
    <glyph glyph-name="ellipsis" unicode="&#x2026;" horiz-adv-x="2048" 
d="M168 145q0 70 50 122t122 52t123 -51.5t51 -122.5q0 -73 -50.5 -122.5t-123.5 -49.5t-122.5 50t-49.5 122zM850 145q0 70 50 122t122 52t123 -51.5t51 -122.5q0 -73 -50.5 -122.5t-123.5 -49.5t-122.5 50t-49.5 122zM1532 145q0 70 50 122t122 52t123 -51.5t51 -122.5
q0 -73 -50.5 -122.5t-123.5 -49.5t-122.5 50t-49.5 122z" />
    <glyph glyph-name="perthousand" unicode="&#x2030;" horiz-adv-x="2048" 
d="M1171 1446l-897 -1505h-98l789 1329l-4 4q-40 -33 -94.5 -52.5t-81 -22.5t-46.5 -3q-63 0 -123 27q7 -58 7 -90q0 -50 -10.5 -108t-37.5 -124t-66.5 -119t-103.5 -88t-143 -35q-39 0 -81 17t-80 49t-62.5 86.5t-24.5 122.5q0 86 27 161.5t69.5 126t95 87.5t104 54
t96.5 17q41 0 73.5 -10.5t44 -18.5t39.5 -30q24 -20 40.5 -30.5t51.5 -20.5t80 -10q193 0 338 186h98zM211 866q0 -145 106 -145q65 0 124.5 64.5t93.5 162t34 193.5q0 22 -6 59q-4 19 -12.5 29.5t-16 14.5t-30.5 13q-16 5 -43 23t-39 18q-47 0 -98 -78.5t-82 -180
t-31 -173.5zM1425 242q0 96 36 180.5t93 140t126.5 87.5t138.5 32q45 0 81 -12t58.5 -29.5t38.5 -44t24 -48t12 -50t4.5 -41t0.5 -29.5q0 -46 -11 -103.5t-38.5 -122t-66 -117t-100.5 -87.5t-136 -35q-31 0 -64 7.5t-69 27.5t-64 50t-46 80.5t-18 113.5zM1626 170
q0 -20 1 -33.5t6.5 -38t15.5 -39.5t30.5 -27t49.5 -12q61 0 113 49t82 119t46.5 136.5t16.5 111.5q0 57 -14.5 96t-37.5 55t-39 21.5t-30 5.5q-50 0 -97 -54t-77 -128.5t-48 -146.5t-18 -115zM684 256q0 77 32 154t84.5 137t126.5 97.5t152 37.5q45 0 81 -12t58.5 -29.5
t38.5 -44t24 -48t12 -50t4.5 -41t0.5 -29.5q0 -46 -11.5 -103t-38.5 -121.5t-66 -117.5t-101 -88t-135 -35q-28 0 -57.5 5.5t-68 24.5t-67.5 49.5t-49 86t-20 127.5zM885 170q0 -21 1 -35.5t6.5 -38.5t15.5 -38.5t31 -26t50 -11.5q61 0 113 49t82 119t46.5 136.5t16.5 111.5
q0 57 -14.5 96t-37.5 55t-39 21.5t-30 5.5q-49 0 -96 -53t-77.5 -126.5t-49 -146.5t-18.5 -118z" />
    <glyph glyph-name="guilsinglleft" unicode="&#x2039;" horiz-adv-x="681" 
d="M526 121l-422 340v8l416 336q4 4 13 11t12.5 10t10 8t10.5 7l9 4.5t9.5 3.5t9.5 1q13 0 19 -4.5t7 -9.5t1 -15t-6 -25t-17.5 -35.5t-24 -40.5t-32 -46.5t-34 -47t-36 -48.5t-33.5 -43t-31 -39.5t-24 -30.5q18 -27 83.5 -109.5t112 -150t46.5 -94.5q0 -37 -25 -37
q-19 0 -74 47z" />
    <glyph glyph-name="guilsinglright" unicode="&#x203a;" horiz-adv-x="681" 
d="M156 803l422 -340v-8l-416 -336q-4 -4 -13 -11t-12.5 -10t-10 -8t-10.5 -7l-9 -4.5t-9.5 -3.5t-9.5 -1q-13 0 -19 4t-7 9t-1 15t5.5 25t18 35.5t24.5 40t32 47.5t33.5 47t36.5 48.5t33 43t31 40.5t24 30q-18 27 -83.5 109.5t-112 150t-46.5 94.5q0 37 25 37q19 0 74 -47z
" />
    <glyph glyph-name="fraction" unicode="&#x2044;" horiz-adv-x="342" 
d="M559 1409h115l-899 -1434h-119z" />
    <glyph glyph-name="Euro" unicode="&#x20ac;" 
d="M1012 131q-156 -166 -353 -166q-226 0 -362 164q-119 140 -154 379h-133l64 147h57l4 103h-127l62 147h86q46 213 151 338q131 158 324 158q58 0 164 -45q99 -41 116 -41q49 0 58 84h43v-342h-51q-69 113 -123 170q-88 94 -179 94q-173 0 -208 -416h501l-63 -147h-447
v-103h418l-63 -147h-346q18 -200 43 -277q52 -163 188 -163q96 0 182 59q42 27 148 127v-123z" />
    <glyph glyph-name="afii61289" unicode="&#x2113;" horiz-adv-x="866" 
d="M788 291l54 -45q-136 -271 -371 -271q-156 0 -229 80q-40 53 -55 108.5t-15 186.5v133l-100 -65l-29 69l129 91v292q0 193 22 289.5t80 179.5q47 67 108.5 103.5t123.5 36.5q102 0 157.5 -78t55.5 -205q0 -161 -63 -282.5t-207 -268.5v-151q0 -198 28.5 -272.5
t112.5 -74.5q58 0 104.5 38.5t93.5 105.5zM449 969v-197q56 64 90 176t34 242q0 213 -63 213q-14 0 -23 -6t-16.5 -25t-11 -46.5t-6 -79.5t-3.5 -115t-1 -162z" />
    <glyph glyph-name="trademark" unicode="&#x2122;" horiz-adv-x="2048" 
d="M514 1335v-641q0 -57 14.5 -70.5t89.5 -19.5v-47h-397v47q73 6 88 19.5t15 70.5v641h-95q-104 0 -133 -131h-47v180h742v-180h-48q-29 131 -135 131h-94zM1368 555l-287 598h-4v-408q0 -81 19 -109t88 -32v-47h-273v47q69 4 88 32t19 109v486q-22 49 -60.5 77.5
t-83.5 28.5v47h285l291 -591l309 591h242v-47q-69 -3 -90 -24t-21 -74v-545q0 -57 15 -70.5t90 -19.5v-47h-398v47q73 6 88 18.5t15 63.5v471h-4l-301 -602h-27z" />
    <glyph glyph-name="Omega" unicode="&#x2126;" horiz-adv-x="1339" 
d="M1282 354l-51 -354h-477l-19 43q5 15 27.5 84.5t30.5 95t28 90.5t28.5 99t22.5 92t20.5 98t11.5 87.5t5 88.5q-3 545 -243 545q-56 0 -97 -24t-73.5 -83t-49 -169.5t-16.5 -272.5q0 -259 172 -731l-20 -43h-480l-45 354h72q29 -83 58 -108t92 -25h161q-40 32 -62.5 51
t-62.5 57.5t-64 68.5t-54 77t-47 92t-29 104t-12 122q0 138 43.5 253t119.5 193t179.5 121t222.5 43q244 0 399.5 -163.5t155.5 -438.5q0 -95 -25.5 -177t-83 -156t-97 -115t-118.5 -112q-15 -13 -22 -20h190q55 0 81.5 25t53.5 108h74z" />
    <glyph glyph-name="estimated" unicode="&#x212e;" horiz-adv-x="1728" 
d="M1659 670h-1288q-11 0 -11 -8v-392q0 -23 17 -43q97 -100 222.5 -156.5t264.5 -56.5q150 0 283 63.5t231 174.5h113q-107 -128 -273.5 -202.5t-355.5 -74.5q-215 0 -398 95.5t-289.5 260t-106.5 357.5q0 146 63 279t169.5 229t253.5 152.5t308 56.5q162 0 309.5 -56.5
t254.5 -152.5t170 -229t63 -279v-18zM1366 721v393q0 27 -18 45q-97 95 -222 150t-262 55t-262.5 -56.5t-222.5 -154.5q-19 -19 -19 -49v-383q0 -3 3.5 -7.5t7.5 -4.5h987q8 0 8 12z" />
    <glyph glyph-name="partialdiff" unicode="&#x2202;" horiz-adv-x="1058" 
d="M520 858h2q57 0 111.5 -24t93.5 -74q19 128 27 229q12 187 -41 293q-57 107 -205 107q-128 0 -277 -129q-27 0 -60 75.5t-19 116.5q133 76 278 76q143 0 254 -77t180 -214q55 -110 80 -240t25 -247q0 -126 -25 -252t-70 -222q-65 -139 -176 -220t-260 -81
q-164 0 -263 102t-99 283q0 101 34.5 193t86.5 154q57 69 142 110t181 41zM580 758h-2q-42 0 -77.5 -22.5t-70.5 -86.5q-40 -81 -63 -207t-23 -247q-1 -75 24 -109.5t78 -34.5q77 0 164 217q65 166 92 391q-12 37 -45.5 68t-76.5 31z" />
    <glyph glyph-name="Delta" unicode="&#x2206;" horiz-adv-x="1247" 
d="M1182 0h-1119v82l486 1292l121 29l512 -1321v-82zM834 135l-320 848l-307 -848h627z" />
    <glyph glyph-name="product" unicode="&#x220f;" horiz-adv-x="1386" 
d="M1337 1393v-72q-66 -6 -99 -14t-53 -33.5t-24 -59.5t-4 -106v-983q0 -51 1.5 -80.5t9 -55.5t17.5 -38.5t32.5 -23t48 -15t69.5 -8.5v-74h-600v74q35 3 54.5 6.5t36.5 14t24.5 22t12.5 38.5t6 56t1 82v1104q0 51 -13.5 64.5t-63.5 13.5h-209q-45 0 -56.5 -12t-11.5 -60
v-1110v-8v-58t1.5 -44.5t4.5 -36t9 -25t14 -20.5t21.5 -12t29.5 -10t39 -5v-74h-588v74q43 4 69.5 8.5t48.5 15t33 23.5t18 39t9 55t2 78v985q0 49 -1.5 77t-9 53.5t-18 37.5t-34 22.5t-50.5 14.5t-73 8v72h1296z" />
    <glyph glyph-name="summation" unicode="&#x2211;" horiz-adv-x="1079" 
d="M1040 262l-96 -450h-893v69l408 600l-404 840v72h891q2 -16 5.5 -71.5t9.5 -144.5t10 -141l-76 -14q-25 110 -70 201q-25 50 -65.5 66t-143.5 16h-223l303 -607l-424 -643h408q58 0 89.5 4t61.5 14.5t50 37.5t39.5 65t44.5 105z" />
    <glyph glyph-name="minus" unicode="&#x2212;" horiz-adv-x="1167" 
d="M1100 428h-1032v180h1032v-180z" />
    <glyph glyph-name="uni2215" unicode="&#x2215;" horiz-adv-x="342" 
d="M559 1409h115l-899 -1434h-119z" />
    <glyph glyph-name="uni2219" unicode="&#x2219;" horiz-adv-x="512" 
d="M84 680q0 70 50 122t122 52t123 -51.5t51 -122.5q0 -73 -50.5 -122.5t-123.5 -49.5t-122.5 50t-49.5 122z" />
    <glyph glyph-name="radical" unicode="&#x221a;" horiz-adv-x="1093" 
d="M1079 1718l-354 -2080l-61 -23l-394 1075l-170 -72l-28 89l385 159l245 -729h5l264 1602z" />
    <glyph glyph-name="infinity" unicode="&#x221e;" horiz-adv-x="1474" 
d="M1386 569v-2q0 -160 -94 -255t-221 -95q-90 0 -168.5 43t-163.5 166q-80 -104 -159 -156.5t-185 -52.5q-125 0 -217 95t-92 245q0 153 93 248.5t233 95.5q101 0 180 -48.5t153 -150.5q2 2 20.5 23.5t23.5 27t24 25.5t28 27.5t29.5 24t34.5 23.5t36.5 18.5t42 16.5t44.5 9
t51 4q128 0 217.5 -92t89.5 -240zM416 381h2q45 0 89 25.5t72.5 56.5t71.5 86q-69 99 -95 126q-64 66 -144 66q-75 0 -118.5 -50.5t-43.5 -135.5q-1 -72 48 -123t118 -51zM1065 741h-2q-16 0 -32 -3.5t-29 -7.5t-28.5 -14t-25 -16t-25 -21t-22 -21.5t-21.5 -24t-19 -22.5
t-19 -24.5t-17 -21.5q80 -110 130 -147t118 -37q67 0 108.5 56t41.5 118q0 79 -43 132.5t-115 53.5z" />
    <glyph glyph-name="integral" unicode="&#x222b;" horiz-adv-x="815" 
d="M311 -45l-43 780q-5 143 -2 258t20.5 206t39 160t53 119t62.5 83t67 52.5t68 27.5t65 8q60 0 111 -33.5t51 -93.5q0 -64 -41 -98.5t-94 -34.5q-29 0 -48 21.5t-25.5 48t-16.5 48t-23 21.5q-19 0 -28 -20.5t-12.5 -82t3.5 -174.5l39 -706q11 -194 -4 -356t-50.5 -274.5
t-88 -191t-114.5 -115t-132 -36.5q-65 0 -111.5 37.5t-46.5 91.5q-1 61 46.5 102t103.5 41q25 0 42.5 -24t25 -53.5t18.5 -53.5t24 -24q32 0 41 71.5t0 194.5z" />
    <glyph glyph-name="approxequal" unicode="&#x2248;" horiz-adv-x="991" 
d="M819 911l109 -96q-46 -94 -116 -152.5t-144 -58.5q-54 0 -97.5 15.5t-99.5 54.5q-44 34 -75.5 49.5t-69.5 15.5q-17 0 -31.5 -3.5t-28.5 -13t-22.5 -15.5t-22 -23t-18.5 -23t-19.5 -28.5t-17.5 -26.5l-111 94q41 90 118 148.5t165 58.5q41 0 78.5 -11t57.5 -22t48 -30
q6 -4 20.5 -13.5t19.5 -12.5t16.5 -10.5t16.5 -10l14 -7t14.5 -6.5t13.5 -4.5t15 -3t14 -0.5q45 0 77.5 33t75.5 102zM819 537l109 -97q-45 -93 -115 -152t-147 -59q-52 0 -95 16.5t-100 53.5q-46 36 -77.5 52t-67.5 16q-17 0 -31.5 -3.5t-29 -14t-22.5 -16t-22.5 -25
t-18 -23.5t-19.5 -29.5t-17 -26.5l-111 97q41 88 118 147t163 59q42 0 81 -12t55.5 -21.5t47.5 -29.5q13 -8 37.5 -24t37.5 -24t32.5 -15t36.5 -7q45 0 76 30.5t72 95.5q2 4 3.5 6.5t3.5 5.5z" />
    <glyph glyph-name="notequal" unicode="&#x2260;" horiz-adv-x="991" 
d="M750 1010l-64 -154h219v-174h-280l-99 -244h379v-174h-440l-84 -205l-135 50l65 155h-227v174h289l98 244h-387v174h446l84 203z" />
    <glyph glyph-name="lessequal" unicode="&#x2264;" horiz-adv-x="991" 
d="M901 199l-807 426v188l807 424v-201l-645 -315v-4l645 -316v-202zM909 -45h-821v176h821v-176z" />
    <glyph glyph-name="greaterequal" unicode="&#x2265;" horiz-adv-x="991" 
d="M100 1237l805 -426v-188l-805 -424v202l643 316v4l-643 315v201zM905 -45h-815v176h815v-176z" />
    <glyph glyph-name="lozenge" unicode="&#x25ca;" horiz-adv-x="1091" 
d="M1001 668l-348 -805h-217l-346 805l352 811h213zM811 668l-260 630h-6l-262 -628l262 -635h6z" />
    <glyph glyph-name="A.sc" unicode="&#xe000;" horiz-adv-x="1138" 
d="M631 270h-346l-29 -65q-31 -68 -31 -107q0 -49 99 -49v-49h-291v49q35 0 61 22.5t37 49.5l408 915h49l393 -884q27 -60 45.5 -80t58.5 -23v-49h-499v49q46 -3 78 8t32 31q0 52 -24 102zM602 344l-141 338l-146 -338h287z" />
    <glyph glyph-name="AE.sc" unicode="&#xe001;" horiz-adv-x="1593" 
d="M688 195v202h-317l-97 -170q-4 -7 -13.5 -24t-13.5 -24t-11 -20t-9.5 -20.5t-5 -17t-2.5 -17.5q0 -49 100 -55v-49h-290v49q31 0 54.5 15.5t51.5 66.5l395 700q27 49 27 84q0 42 -125 48v49h1010l16 -307h-49q-27 119 -97 180t-210 61q-47 0 -65.5 -1t-38.5 -5.5
t-25.5 -14.5t-5.5 -28v-336q106 -9 157 38t68 167h49v-483h-49q-15 119 -65.5 167.5t-159.5 45.5v-314q0 -33 3.5 -51t16.5 -35t42 -23.5t77 -6.5q136 0 216.5 57t156.5 209h47l-47 -332h-926v49q35 3 51.5 5.5t36.5 11t28 23.5t13.5 40.5t5.5 65.5zM688 471v467h-20
l-258 -467h278z" />
    <glyph glyph-name="Aacute.sc" unicode="&#xe002;" horiz-adv-x="1138" 
d="M631 270h-346l-29 -65q-31 -68 -31 -107q0 -49 99 -49v-49h-291v49q35 0 61 22.5t37 49.5l408 915h49l393 -884q27 -60 45.5 -80t58.5 -23v-49h-499v49q46 -3 78 8t32 31q0 52 -24 102zM602 344l-141 338l-146 -338h287zM797 1329l-291 -180h-115l281 321q51 58 106 58
q38 0 69.5 -20.5t31.5 -69.5q0 -27 -12 -47.5t-25.5 -31.5t-44.5 -30z" />
    <glyph glyph-name="Acircumflex.sc" unicode="&#xe003;" horiz-adv-x="1138" 
d="M631 270h-346l-29 -65q-31 -68 -31 -107q0 -49 99 -49v-49h-291v49q35 0 61 22.5t37 49.5l408 915h49l393 -884q27 -60 45.5 -80t58.5 -23v-49h-499v49q46 -3 78 8t32 31q0 52 -24 102zM602 344l-141 338l-146 -338h287zM784 1149l-229 201l-229 -201h-115l250 360h188
l252 -360h-117z" />
    <glyph glyph-name="Adieresis.sc" unicode="&#xe004;" horiz-adv-x="1138" 
d="M631 270h-346l-29 -65q-31 -68 -31 -107q0 -49 99 -49v-49h-291v49q35 0 61 22.5t37 49.5l408 915h49l393 -884q27 -60 45.5 -80t58.5 -23v-49h-499v49q46 -3 78 8t32 31q0 52 -24 102zM602 344l-141 338l-146 -338h287zM211 1300q0 45 35 89.5t94 44.5q54 0 92.5 -40
t38.5 -96q0 -55 -37.5 -93t-93.5 -38q-60 0 -94.5 43.5t-34.5 89.5zM641 1300q0 46 34 90t93 44q54 0 93.5 -40.5t39.5 -95.5q0 -54 -38.5 -92.5t-94.5 -38.5q-60 0 -93.5 43.5t-33.5 89.5z" />
    <glyph glyph-name="Agrave.sc" unicode="&#xe005;" horiz-adv-x="1138" 
d="M631 270h-346l-29 -65q-31 -68 -31 -107q0 -49 99 -49v-49h-291v49q35 0 61 22.5t37 49.5l408 915h49l393 -884q27 -60 45.5 -80t58.5 -23v-49h-499v49q46 -3 78 8t32 31q0 52 -24 102zM602 344l-141 338l-146 -338h287zM719 1149h-115l-291 180q-41 25 -61.5 50.5
t-20.5 58.5q0 30 24.5 60t76.5 30q57 0 106 -58z" />
    <glyph glyph-name="Aring.sc" unicode="&#xe006;" horiz-adv-x="1138" 
d="M631 270h-346l-29 -65q-31 -68 -31 -107q0 -49 99 -49v-49h-291v49q35 0 61 22.5t37 49.5l408 915h49l393 -884q27 -60 45.5 -80t58.5 -23v-49h-499v49q46 -3 78 8t32 31q0 52 -24 102zM602 344l-141 338l-146 -338h287zM338 1364q0 90 64.5 154.5t154.5 64.5
q89 0 153 -65t64 -154q0 -90 -63.5 -153.5t-153.5 -63.5t-154.5 63t-64.5 154zM676 1364q0 48 -36.5 84.5t-86.5 36.5q-53 0 -85 -40.5t-32 -80.5q0 -41 31.5 -80t85.5 -39q52 0 87.5 34.5t35.5 84.5z" />
    <glyph glyph-name="Atilde.sc" unicode="&#xe007;" horiz-adv-x="1138" 
d="M631 270h-346l-29 -65q-31 -68 -31 -107q0 -49 99 -49v-49h-291v49q35 0 61 22.5t37 49.5l408 915h49l393 -884q27 -60 45.5 -80t58.5 -23v-49h-499v49q46 -3 78 8t32 31q0 52 -24 102zM602 344l-141 338l-146 -338h287zM268 1192h-86q50 256 242 256q48 0 145 -39
l82 -37q40 -18 50.5 -21t31.5 -3q27 0 47 9.5t32.5 28.5t17.5 30.5t12 31.5h88q-6 -22 -10 -37.5t-15 -45t-23 -50.5t-32 -47t-42.5 -42t-55.5 -27t-70 -11q-55 0 -123 29l-59 26q-77 34 -93 39.5t-38 5.5q-45 0 -72 -31.5t-29 -64.5z" />
    <glyph glyph-name="B.sc" unicode="&#xe008;" horiz-adv-x="1138" 
d="M584 0h-543v49q40 0 59.5 2.5t40 14.5t28 38.5t7.5 71.5v655q0 74 -27 103t-104 29v49h569q46 0 88 -3.5t99.5 -18t98.5 -38.5t70 -70t29 -108q0 -32 -7 -59t-17 -46t-28.5 -36t-31.5 -26t-37 -19t-35.5 -13.5t-36 -10t-28.5 -7.5v-4q24 -3 55 -12t70 -29.5t71 -48
t53.5 -72t21.5 -96.5q0 -83 -32 -141t-94.5 -91.5t-145 -48t-193.5 -14.5zM467 512v-379q0 -25 4.5 -39t19 -20t27 -7t43.5 -1q91 0 140 62.5t49 174.5q0 93 -56.5 151t-183.5 58h-43zM709 760q0 82 -45.5 142.5t-106.5 60.5q-90 0 -90 -70v-324q125 0 183.5 40.5
t58.5 150.5z" />
    <glyph glyph-name="C.sc" unicode="&#xe009;" horiz-adv-x="1138" 
d="M1028 1036v-364h-61q-30 115 -126.5 207t-213.5 92q-133 0 -200 -115t-67 -354q0 -217 75.5 -330.5t215.5 -118.5q180 -6 355 189l45 -49q-26 -29 -46 -50.5t-62.5 -55.5t-84.5 -56t-102.5 -39t-124.5 -17q-268 0 -423 134.5t-155 371.5q0 127 45 233.5t121 176
t173 107.5t202 38q110 0 207 -37q15 -6 39.5 -16.5t38 -15t24.5 -4.5q50 0 76 73h49z" />
    <glyph glyph-name="Ccedilla.sc" unicode="&#xe00a;" horiz-adv-x="1138" 
d="M1028 1036v-364h-61q-30 115 -126.5 207t-213.5 92q-133 0 -200 -115t-67 -354q0 -217 75.5 -330.5t215.5 -118.5q180 -6 355 189l45 -49q-32 -37 -59.5 -63.5t-78.5 -65t-117 -61.5t-139 -26l-47 -108q33 10 64 10q83 0 133.5 -35.5t50.5 -107.5q0 -47 -22 -82.5
t-52 -53.5t-71.5 -29.5t-71 -14t-59.5 -2.5q-95 0 -187 36l33 76q78 -28 121 -28q119 0 119 83q0 37 -26.5 55.5t-68.5 18.5q-25 0 -57 -8l-22 16l77 177q-244 14 -381 145.5t-137 355.5q0 127 45 233.5t121 176t173 107.5t202 38q110 0 207 -37q15 -6 39.5 -16.5t38 -15
t24.5 -4.5q50 0 76 73h49z" />
    <glyph glyph-name="D.sc" unicode="&#xe00b;" horiz-adv-x="1251" 
d="M172 188v643q0 39 -3 59t-15.5 39t-39.5 26.5t-73 7.5v49h516q102 0 189.5 -16.5t165.5 -54.5t132.5 -96t86.5 -146t32 -199q0 -108 -37 -196t-94.5 -143t-131 -93t-142 -53t-131.5 -15h-586v49q33 0 52.5 3.5t40 16.5t29.5 42.5t9 76.5zM463 877v-725q0 -54 19 -70
t79 -16q295 0 295 442q0 196 -77.5 317t-200.5 121q-61 0 -88 -15t-27 -54z" />
    <glyph glyph-name="E.sc" unicode="&#xe00c;" horiz-adv-x="1138" 
d="M168 133v711q0 61 -24.5 90t-104.5 29v49h928v-316h-49q-36 250 -308 250q-84 0 -119.5 -12.5t-35.5 -52.5v-328q221 -22 239 209h49v-488h-49q-5 69 -25 113t-55 65t-70.5 28t-88.5 7v-340q0 -50 32 -65.5t121 -15.5q130 0 231.5 64t153.5 194h49l-51 -324h-952v49
q21 0 33.5 0.5t33 5t32.5 12.5t21 25t9 41z" />
    <glyph glyph-name="Eacute.sc" unicode="&#xe00d;" horiz-adv-x="1138" 
d="M168 133v711q0 61 -24.5 90t-104.5 29v49h928v-316h-49q-36 250 -308 250q-84 0 -119.5 -12.5t-35.5 -52.5v-328q221 -22 239 209h49v-488h-49q-5 69 -25 113t-55 65t-70.5 28t-88.5 7v-340q0 -50 32 -65.5t121 -15.5q130 0 231.5 64t153.5 194h49l-51 -324h-952v49
q21 0 33.5 0.5t33 5t32.5 12.5t21 25t9 41zM823 1329l-291 -180h-114l280 321q51 58 107 58q37 0 68.5 -20.5t31.5 -69.5q0 -27 -12 -47.5t-25.5 -31.5t-44.5 -30z" />
    <glyph glyph-name="Ecircumflex.sc" unicode="&#xe00e;" horiz-adv-x="1138" 
d="M168 133v711q0 61 -24.5 90t-104.5 29v49h928v-316h-49q-36 250 -308 250q-84 0 -119.5 -12.5t-35.5 -52.5v-328q221 -22 239 209h49v-488h-49q-5 69 -25 113t-55 65t-70.5 28t-88.5 7v-340q0 -50 32 -65.5t121 -15.5q130 0 231.5 64t153.5 194h49l-51 -324h-952v49
q21 0 33.5 0.5t33 5t32.5 12.5t21 25t9 41zM811 1149l-229 201l-230 -201h-114l249 360h189l252 -360h-117z" />
    <glyph glyph-name="Edieresis.sc" unicode="&#xe00f;" horiz-adv-x="1138" 
d="M168 133v711q0 61 -24.5 90t-104.5 29v49h928v-316h-49q-36 250 -308 250q-84 0 -119.5 -12.5t-35.5 -52.5v-328q221 -22 239 209h49v-488h-49q-5 69 -25 113t-55 65t-70.5 28t-88.5 7v-340q0 -50 32 -65.5t121 -15.5q130 0 231.5 64t153.5 194h49l-51 -324h-952v49
q21 0 33.5 0.5t33 5t32.5 12.5t21 25t9 41zM238 1300q0 45 35 89.5t94 44.5q54 0 92.5 -40t38.5 -96q0 -55 -37.5 -93t-93.5 -38q-60 0 -94.5 43.5t-34.5 89.5zM668 1300q0 46 34 90t93 44q54 0 93.5 -40.5t39.5 -95.5q0 -54 -38 -92.5t-95 -38.5q-60 0 -93.5 43.5
t-33.5 89.5z" />
    <glyph glyph-name="Egrave.sc" unicode="&#xe010;" horiz-adv-x="1138" 
d="M168 133v711q0 61 -24.5 90t-104.5 29v49h928v-316h-49q-36 250 -308 250q-84 0 -119.5 -12.5t-35.5 -52.5v-328q221 -22 239 209h49v-488h-49q-5 69 -25 113t-55 65t-70.5 28t-88.5 7v-340q0 -50 32 -65.5t121 -15.5q130 0 231.5 64t153.5 194h49l-51 -324h-952v49
q21 0 33.5 0.5t33 5t32.5 12.5t21 25t9 41zM745 1149h-114l-291 180q-41 25 -61.5 50.5t-20.5 58.5q0 30 24 60t76 30q58 0 107 -58z" />
    <glyph glyph-name="Eth.sc" unicode="&#xe011;" horiz-adv-x="1251" 
d="M172 188v291h-143v94h143v258q0 39 -3 59t-15.5 39t-39.5 26.5t-73 7.5v49h516q102 0 189.5 -16.5t165.5 -54.5t132.5 -96t86.5 -146t32 -199q0 -108 -37 -196t-94.5 -143t-131 -93t-142 -53t-131.5 -15h-586v49q33 0 52.5 3.5t40 16.5t29.5 42.5t9 76.5zM463 877v-304
h237v-94h-237v-327q0 -54 19 -70t79 -16q295 0 295 442q0 196 -77.5 317t-200.5 121q-61 0 -88 -15t-27 -54z" />
    <glyph glyph-name="F.sc" unicode="&#xe012;" 
d="M168 152v704q0 62 -31.5 84.5t-103.5 22.5l6 49h907v-307h-49q-10 62 -33.5 107t-54.5 71t-73 41t-81 19t-86 3q-61 -2 -85.5 -12.5t-24.5 -40.5v-336q59 0 100 16.5t64 49.5t33.5 62.5t19.5 76.5h49v-488h-49q-9 52 -20 86t-34 67t-63.5 49t-99.5 16v-340q0 -24 8 -42.5
t23.5 -29.5t31 -17.5t38.5 -9.5t36.5 -3.5t34.5 -0.5v-49h-592v49q24 0 41.5 2.5t40 11.5t35 31.5t12.5 57.5z" />
    <glyph glyph-name="G.sc" unicode="&#xe013;" horiz-adv-x="1251" 
d="M1032 1042v-366h-49q-50 140 -138 217.5t-202 77.5q-270 0 -270 -475q0 -455 268 -455q84 0 119 22t35 80v164q0 83 -146 86v49h504v-49q-84 -18 -84 -90v-233q0 -17 -41 -37.5t-147 -39t-250 -18.5q-118 0 -219.5 34t-179 99t-122 167.5t-44.5 230.5q0 100 36.5 193.5
t103 169.5t172 121.5t232.5 45.5q106 0 203 -37q13 -5 32 -13t29.5 -12t23 -7.5t22.5 -3.5q49 0 63 79h49z" />
    <glyph glyph-name="H.sc" unicode="&#xe014;" horiz-adv-x="1251" 
d="M791 487h-353v-315q0 -70 30 -96.5t95 -26.5v-49h-534v49q55 0 86.5 27.5t31.5 95.5v684q0 61 -28.5 84t-89.5 23v49h534v-49q-53 0 -89 -24t-36 -83v-291h353v291q0 61 -29 84t-90 23v49h534v-49q-53 0 -89 -24t-36 -83v-684q0 -70 30 -96.5t95 -26.5v-49h-534v49
q55 0 87 27.5t32 95.5v315z" />
    <glyph glyph-name="I.sc" unicode="&#xe015;" horiz-adv-x="681" 
d="M57 963v49h559v-49q-133 0 -133 -107v-684q0 -71 31 -97t102 -26v-49h-559v49q67 0 101.5 27t34.5 96v684q0 62 -31.5 84.5t-104.5 22.5z" />
    <glyph glyph-name="Iacute.sc" unicode="&#xe016;" horiz-adv-x="681" 
d="M57 963v49h559v-49q-133 0 -133 -107v-684q0 -71 31 -97t102 -26v-49h-559v49q67 0 101.5 27t34.5 96v684q0 62 -31.5 84.5t-104.5 22.5zM567 1329l-291 -180h-114l280 321q51 58 107 58q37 0 68.5 -20.5t31.5 -69.5q0 -27 -12 -47.5t-25.5 -31.5t-44.5 -30z" />
    <glyph glyph-name="Icircumflex.sc" unicode="&#xe017;" horiz-adv-x="681" 
d="M57 963v49h559v-49q-133 0 -133 -107v-684q0 -71 31 -97t102 -26v-49h-559v49q67 0 101.5 27t34.5 96v684q0 62 -31.5 84.5t-104.5 22.5zM555 1149l-229 201l-230 -201h-114l249 360h189l252 -360h-117z" />
    <glyph glyph-name="Idieresis.sc" unicode="&#xe018;" horiz-adv-x="681" 
d="M57 963v49h559v-49q-133 0 -133 -107v-684q0 -71 31 -97t102 -26v-49h-559v49q67 0 101.5 27t34.5 96v684q0 62 -31.5 84.5t-104.5 22.5zM-18 1300q0 45 35 89.5t94 44.5q54 0 92.5 -40t38.5 -96q0 -55 -37.5 -93t-93.5 -38q-60 0 -94.5 43.5t-34.5 89.5zM412 1300
q0 46 34 90t93 44q54 0 93.5 -40.5t39.5 -95.5q0 -54 -38 -92.5t-95 -38.5q-60 0 -93.5 43.5t-33.5 89.5z" />
    <glyph glyph-name="Igrave.sc" unicode="&#xe019;" horiz-adv-x="681" 
d="M57 963v49h559v-49q-133 0 -133 -107v-684q0 -71 31 -97t102 -26v-49h-559v49q67 0 101.5 27t34.5 96v684q0 62 -31.5 84.5t-104.5 22.5zM489 1149h-114l-291 180q-41 25 -61.5 50.5t-20.5 58.5q0 30 24 60t76 30q58 0 107 -58z" />
    <glyph glyph-name="J.sc" unicode="&#xe01a;" horiz-adv-x="909" 
d="M418 66v790q0 62 -33.5 84.5t-114.5 22.5v49h574v-49q-62 0 -98.5 -22.5t-36.5 -84.5v-647q0 -84 -23.5 -150t-62 -107t-92 -68t-108.5 -37.5t-116 -10.5q-117 0 -197.5 60t-80.5 145q0 149 135 149q50 0 86.5 -33t36.5 -79q0 -36 -22.5 -70.5t-22.5 -62.5q0 -43 69 -43
q59 0 83 36t24 128z" />
    <glyph glyph-name="K.sc" unicode="&#xe01b;" horiz-adv-x="1251" 
d="M33 1012h526v-49q-64 -5 -90.5 -22t-26.5 -73v-360l258 276q32 34 45.5 48.5t30 34.5t22 32t5.5 23q0 24 -25 33.5t-82 7.5v49h451v-49q-89 -3 -157.5 -38t-131.5 -98l-170 -170l416 -518q52 -68 104 -90v-49h-530v49q92 0 92 45q0 13 -6 26.5t-11 20.5t-21 25t-21 24
l-224 275l-45 -43v-258q0 -109 117 -115v-49h-526v49q26 2 43.5 6t36.5 15t29 34.5t10 59.5v704q0 53 -26.5 74t-92.5 21v49z" />
    <glyph glyph-name="L.sc" unicode="&#xe01c;" horiz-adv-x="1138" 
d="M995 346h54l-54 -346h-952v49q76 -3 102.5 28.5t26.5 94.5v684q0 62 -31.5 84.5t-103.5 22.5v49h559v-49q-133 0 -133 -107v-684q0 -71 25.5 -88.5t125.5 -17.5q76 0 139 22.5t100.5 51t70 73t45 71t26.5 62.5z" />
    <glyph glyph-name="Lslash.sc" unicode="&#xe01d;" horiz-adv-x="1138" 
d="M741 754v-101l-278 -131v-350q0 -71 25.5 -88.5t125.5 -17.5q76 0 139 22.5t100.5 51t70 73t45 71t26.5 62.5h54l-54 -346h-952v49q76 -3 102.5 28.5t26.5 94.5v213l-180 -84v100l180 84v371q0 62 -31.5 84.5t-103.5 22.5v49h559v-49q-133 0 -133 -107v-233z" />
    <glyph glyph-name="M.sc" unicode="&#xe01e;" horiz-adv-x="1478" 
d="M426 1012l303 -668l309 668h394v-49q-70 -5 -95.5 -25t-25.5 -94v-631q0 -37 4 -64t14.5 -44.5t18.5 -27.5t26.5 -16t27 -7.5t30.5 -4.5v-49h-523v49q18 1 31 3t32.5 11.5t32 25.5t22 48t9.5 76v616h-6l-377 -829h-49l-362 799h-4v-629q0 -39 13 -65t36.5 -37t41 -14.5
t42.5 -4.5v-49h-342v49q24 0 40 3t38 13.5t33.5 37t11.5 67.5v682q0 25 -2.5 38.5t-12.5 32.5t-37 29t-71 11v49h397z" />
    <glyph glyph-name="N.sc" unicode="&#xe01f;" horiz-adv-x="1138" 
d="M971 -25h-56l-673 818h-4v-615q0 -71 28.5 -98.5t104.5 -30.5v-49h-342v49q75 6 99 33t24 98v713q-19 37 -47 53.5t-72 16.5v49h379l469 -576h4v379q0 145 -131 148v49h331v-49q-28 -4 -45 -8.5t-35 -16.5t-26 -35.5t-8 -58.5v-869z" />
    <glyph glyph-name="Ntilde.sc" unicode="&#xe020;" horiz-adv-x="1138" 
d="M971 -25h-56l-673 818h-4v-615q0 -71 28.5 -98.5t104.5 -30.5v-49h-342v49q75 6 99 33t24 98v713q-19 37 -47 53.5t-72 16.5v49h379l469 -576h4v379q0 145 -131 148v49h331v-49q-28 -4 -45 -8.5t-35 -16.5t-26 -35.5t-8 -58.5v-869zM283 1192h-86q50 256 241 256
q49 0 146 -39l82 -37q40 -18 50.5 -21t31.5 -3q27 0 46.5 9.5t32 29t17.5 30t12 31.5h88q-6 -22 -10 -37.5t-15 -45t-23 -50.5t-32 -47t-42.5 -42t-55.5 -27t-70 -11q-55 0 -123 29l-59 26q-77 34 -93 39.5t-38 5.5q-45 0 -71.5 -31.5t-28.5 -64.5z" />
    <glyph glyph-name="O.sc" unicode="&#xe021;" horiz-adv-x="1251" 
d="M614 971q-122 0 -183.5 -111.5t-61.5 -347.5q0 -471 245 -471q87 0 140.5 43t81.5 147.5t28 280.5q0 239 -60.5 349t-189.5 110zM614 1036q237 0 397 -149t160 -375q0 -151 -73 -274.5t-201 -193t-283 -69.5q-236 0 -394.5 153.5t-158.5 383.5q0 226 158 375t395 149z
" />
    <glyph glyph-name="OE.sc" unicode="&#xe022;" horiz-adv-x="1705" 
d="M627 963q-123 0 -195 -127t-72 -328q0 -239 72 -349t211 -110q89 0 122.5 37t33.5 123v579q0 45 -4 70t-20 52.5t-52.5 40t-95.5 12.5zM1081 487v-340q0 -54 28 -67.5t124 -13.5q45 0 84.5 8.5t68 19.5t56 33.5t44.5 39.5t38 49t31.5 50.5t29.5 54.5q2 3 3 5l2.5 5l2.5 5
h41l-39 -336h-620q-62 0 -184 -8q-126 -8 -189 -8q-258 0 -397 134.5t-139 405.5q0 146 72.5 262t194.5 179t269 63q63 0 189 -8q122 -8 184 -8h579l13 -307h-56q-7 108 -77 174.5t-217 66.5q-136 0 -136 -41v-352q37 0 66.5 6t50 14t37 24.5t26 30.5t18.5 40t13 44t11 50
h49v-492h-49q5 36 -6 77.5t-35.5 78.5t-72 55.5t-108.5 5.5z" />
    <glyph glyph-name="Oacute.sc" unicode="&#xe023;" horiz-adv-x="1251" 
d="M614 971q-122 0 -183.5 -111.5t-61.5 -347.5q0 -471 245 -471q87 0 140.5 43t81.5 147.5t28 280.5q0 239 -60.5 349t-189.5 110zM614 1036q237 0 397 -149t160 -375q0 -151 -73 -274.5t-201 -193t-283 -69.5q-236 0 -394.5 153.5t-158.5 383.5q0 226 158 375t395 149z
M866 1329l-291 -180h-114l280 321q51 58 107 58q37 0 68.5 -20.5t31.5 -69.5q0 -27 -12 -47.5t-25.5 -31.5t-44.5 -30z" />
    <glyph glyph-name="Ocircumflex.sc" unicode="&#xe024;" horiz-adv-x="1251" 
d="M614 971q-122 0 -183.5 -111.5t-61.5 -347.5q0 -471 245 -471q87 0 140.5 43t81.5 147.5t28 280.5q0 239 -60.5 349t-189.5 110zM614 1036q237 0 397 -149t160 -375q0 -151 -73 -274.5t-201 -193t-283 -69.5q-236 0 -394.5 153.5t-158.5 383.5q0 226 158 375t395 149z
M854 1149l-229 201l-230 -201h-114l249 360h189l252 -360h-117z" />
    <glyph glyph-name="Odieresis.sc" unicode="&#xe025;" horiz-adv-x="1251" 
d="M614 971q-122 0 -183.5 -111.5t-61.5 -347.5q0 -471 245 -471q87 0 140.5 43t81.5 147.5t28 280.5q0 239 -60.5 349t-189.5 110zM614 1036q237 0 397 -149t160 -375q0 -151 -73 -274.5t-201 -193t-283 -69.5q-236 0 -394.5 153.5t-158.5 383.5q0 226 158 375t395 149z
M281 1300q0 45 35 89.5t94 44.5q54 0 92.5 -40t38.5 -96q0 -55 -37.5 -93t-93.5 -38q-60 0 -94.5 43.5t-34.5 89.5zM711 1300q0 46 34 90t93 44q54 0 93.5 -40.5t39.5 -95.5q0 -54 -38.5 -92.5t-94.5 -38.5q-60 0 -93.5 43.5t-33.5 89.5z" />
    <glyph glyph-name="Ograve.sc" unicode="&#xe026;" horiz-adv-x="1251" 
d="M614 971q-122 0 -183.5 -111.5t-61.5 -347.5q0 -471 245 -471q87 0 140.5 43t81.5 147.5t28 280.5q0 239 -60.5 349t-189.5 110zM614 1036q237 0 397 -149t160 -375q0 -151 -73 -274.5t-201 -193t-283 -69.5q-236 0 -394.5 153.5t-158.5 383.5q0 226 158 375t395 149z
M788 1149h-114l-291 180q-41 25 -61.5 50.5t-20.5 58.5q0 30 24 60t76 30q58 0 107 -58z" />
    <glyph glyph-name="Oslash.sc" unicode="&#xe027;" horiz-adv-x="1251" 
d="M401 236l406 616q-57 119 -193 119q-122 0 -183.5 -111.5t-61.5 -347.5q0 -179 32 -276zM362 31l-145 -219h-94l170 258q-108 74 -170 189t-62 253q0 226 158 375t395 149q150 0 273 -63l127 192h96l-154 -233q100 -70 157.5 -179.5t57.5 -240.5q0 -151 -73 -274.5
t-201 -193t-283 -69.5q-134 0 -252 56zM840 756l-402 -611q60 -104 176 -104q87 0 140.5 43t81.5 147.5t28 280.5q0 152 -24 244z" />
    <glyph glyph-name="Otilde.sc" unicode="&#xe028;" horiz-adv-x="1251" 
d="M614 971q-122 0 -183.5 -111.5t-61.5 -347.5q0 -471 245 -471q87 0 140.5 43t81.5 147.5t28 280.5q0 239 -60.5 349t-189.5 110zM614 1036q237 0 397 -149t160 -375q0 -151 -73 -274.5t-201 -193t-283 -69.5q-236 0 -394.5 153.5t-158.5 383.5q0 226 158 375t395 149z
M338 1192h-86q50 256 242 256q48 0 145 -39l82 -37q40 -18 50.5 -21t31.5 -3q27 0 46.5 9.5t32 29t17.5 30t12 31.5h88q-7 -27 -12.5 -45t-18.5 -53.5t-31 -59.5t-43.5 -49.5t-62 -39t-79.5 -13.5q-55 0 -123 29l-60 26q-77 34 -93 39.5t-38 5.5q-45 0 -71.5 -31.5
t-28.5 -64.5z" />
    <glyph glyph-name="P.sc" unicode="&#xe029;" 
d="M143 152v692q0 65 -20 91.5t-90 27.5v49h528q55 0 99.5 -3.5t97 -13.5t91.5 -31.5t73 -53.5t51.5 -82.5t17.5 -116.5q0 -82 -51 -143.5t-131 -91.5t-174 -30h-201v-294q0 -28 10 -48t22 -30t33 -16t31.5 -7t28.5 -2v-49h-526v49q21 1 36 4.5t34 13t29.5 31.5t10.5 54z
M434 848v-336q146 0 206 56t60 186q0 97 -57 144.5t-139 47.5q-24 0 -39.5 -8t-21.5 -24.5t-7.5 -29.5t-1.5 -36z" />
    <glyph glyph-name="Q.sc" unicode="&#xe02a;" horiz-adv-x="1251" 
d="M614 971q-122 0 -183.5 -111.5t-61.5 -347.5q0 -471 245 -471q87 0 140.5 43t81.5 147.5t28 280.5q0 239 -60.5 349t-189.5 110zM1165 -266l6 -49q-118 -33 -251 -33q-207 0 -328 92.5t-156 255.5q-174 56 -274.5 186t-100.5 326q0 144 72 264t199 190t282 70
q237 0 397 -149t160 -375q0 -195 -111.5 -334t-273.5 -178q11 -56 35.5 -103.5t67 -89.5t114 -62t162.5 -11z" />
    <glyph glyph-name="R.sc" unicode="&#xe02b;" horiz-adv-x="1251" 
d="M172 152v692q0 34 -3 52t-15.5 35t-38.5 24t-70 8v49h647q170 0 269.5 -69.5t99.5 -201.5q0 -49 -20.5 -89t-47.5 -63.5t-65.5 -42t-63.5 -25.5t-53 -13l336 -432q17 -19 61 -27v-49h-360l-332 459h-53v-307q0 -28 10.5 -48t23 -30t34.5 -16t34 -7t33 -2v-49h-553v49
q28 1 46.5 4.5t39 13t31 31t10.5 54.5zM463 868v-344h84q98 0 152.5 56t54.5 172q0 97 -60.5 149.5t-130.5 52.5q-34 0 -56 -7.5t-30.5 -22t-11 -26t-2.5 -30.5z" />
    <glyph glyph-name="S.sc" unicode="&#xe02c;" horiz-adv-x="909" 
d="M793 1036v-323h-56q-34 99 -123.5 182.5t-187.5 83.5q-70 0 -113 -34t-43 -85q0 -24 6.5 -44t13.5 -34.5t29 -31.5t35.5 -26.5t51 -27t58 -26.5t73.5 -31q162 -68 230.5 -143.5t68.5 -200.5q0 -149 -99 -234.5t-295 -85.5q-72 0 -133 14.5t-96.5 29t-46.5 14.5
q-34 0 -55 -58h-50v369h50q58 -157 153.5 -234t204.5 -77q68 0 113 37.5t45 103.5q0 27 -5.5 48.5t-20 39.5t-27 30t-41.5 26.5t-46.5 22.5t-57.5 24.5t-62 25.5q-72 30 -122.5 60t-94.5 70.5t-66.5 92.5t-22.5 117q0 59 24.5 113.5t69 97.5t115 68.5t156.5 25.5
q71 0 128 -14t89.5 -28.5t44.5 -14.5q8 0 15 2t12 6.5t9 8.5t7.5 11t5 10.5t3.5 10.5l3 8h50z" />
    <glyph glyph-name="Scaron.sc" unicode="&#xe02d;" horiz-adv-x="909" 
d="M793 1036v-323h-56q-34 99 -123.5 182.5t-187.5 83.5q-70 0 -113 -34t-43 -85q0 -24 6.5 -44t13.5 -34.5t29 -31.5t35.5 -26.5t51 -27t58 -26.5t73.5 -31q162 -68 230.5 -143.5t68.5 -200.5q0 -149 -99 -234.5t-295 -85.5q-72 0 -133 14.5t-96.5 29t-46.5 14.5
q-34 0 -55 -58h-50v369h50q58 -157 153.5 -234t204.5 -77q68 0 113 37.5t45 103.5q0 27 -5.5 48.5t-20 39.5t-27 30t-41.5 26.5t-46.5 22.5t-57.5 24.5t-62 25.5q-72 30 -122.5 60t-94.5 70.5t-66.5 92.5t-22.5 117q0 59 24.5 113.5t69 97.5t115 68.5t156.5 25.5
q71 0 128 -14t89.5 -28.5t44.5 -14.5q8 0 15 2t12 6.5t9 8.5t7.5 11t5 10.5t3.5 10.5l3 8h50zM801 1509l-252 -360h-189l-249 360h114l230 -202l229 202h117z" />
    <glyph glyph-name="T.sc" unicode="&#xe02e;" horiz-adv-x="1138" 
d="M45 1012h1028v-316h-49q-3 20 -6 34t-12 42.5t-21 49t-34 45.5t-49.5 41t-69 27t-91.5 11h-36v-794q0 -59 30.5 -79.5t104.5 -23.5v-49h-557v49q74 3 102.5 23.5t28.5 79.5v794h-37q-50 0 -91.5 -11t-69 -27t-49.5 -41t-34 -45.5t-21 -49t-12 -42.5t-6 -34h-49v316z" />
    <glyph glyph-name="Thorn.sc" unicode="&#xe02f;" 
d="M193 172v684q0 62 -31.5 84.5t-104.5 22.5v49h559v-49q-133 0 -133 -107v-8h133q29 0 51.5 -0.5t71 -6.5t85.5 -16.5t82.5 -33t75.5 -53t50.5 -80t20.5 -111.5q0 -108 -92.5 -186t-241.5 -78h-223h-13v-111q0 -71 31 -97t102 -26v-49h-559v49q50 -2 93 27.5t43 95.5z
M483 741v-393q140 1 209.5 55.5t69.5 153.5q0 38 -11.5 76t-34 72t-63 55.5t-92.5 21.5q-65 0 -78 -41z" />
    <glyph glyph-name="U.sc" unicode="&#xe030;" horiz-adv-x="1251" 
d="M1186 1012v-49q-83 0 -108 -25.5t-25 -93.5v-447q0 -35 -2 -64t-11.5 -74.5t-26 -81.5t-49 -75.5t-77 -65.5t-114 -43.5t-155.5 -17.5q-87 0 -164 21t-139 63t-98.5 111.5t-36.5 159.5v538q0 95 -137 95v49h563v-49q-135 0 -135 -95v-540q0 -56 9 -99t32 -82t68.5 -60
t111.5 -21q63 0 113.5 19t80.5 48t50 67t27.5 72.5t7.5 67.5v491q0 38 -3 58t-16 39.5t-41.5 27t-76.5 7.5v49h352z" />
    <glyph glyph-name="Uacute.sc" unicode="&#xe031;" horiz-adv-x="1251" 
d="M1186 1012v-49q-83 0 -108 -25.5t-25 -93.5v-447q0 -35 -2 -64t-11.5 -74.5t-26 -81.5t-49 -75.5t-77 -65.5t-114 -43.5t-155.5 -17.5q-87 0 -164 21t-139 63t-98.5 111.5t-36.5 159.5v538q0 95 -137 95v49h563v-49q-135 0 -135 -95v-540q0 -56 9 -99t32 -82t68.5 -60
t111.5 -21q63 0 113.5 19t80.5 48t50 67t27.5 72.5t7.5 67.5v491q0 38 -3 58t-16 39.5t-41.5 27t-76.5 7.5v49h352zM852 1329l-291 -180h-115l281 321q51 58 107 58q37 0 68.5 -20.5t31.5 -69.5q0 -27 -12 -47.5t-25.5 -31.5t-44.5 -30z" />
    <glyph glyph-name="Ucircumflex.sc" unicode="&#xe032;" horiz-adv-x="1251" 
d="M1186 1012v-49q-83 0 -108 -25.5t-25 -93.5v-447q0 -35 -2 -64t-11.5 -74.5t-26 -81.5t-49 -75.5t-77 -65.5t-114 -43.5t-155.5 -17.5q-87 0 -164 21t-139 63t-98.5 111.5t-36.5 159.5v538q0 95 -137 95v49h563v-49q-135 0 -135 -95v-540q0 -56 9 -99t32 -82t68.5 -60
t111.5 -21q63 0 113.5 19t80.5 48t50 67t27.5 72.5t7.5 67.5v491q0 38 -3 58t-16 39.5t-41.5 27t-76.5 7.5v49h352zM840 1149l-230 201l-229 -201h-115l250 360h189l251 -360h-116z" />
    <glyph glyph-name="Udieresis.sc" unicode="&#xe033;" horiz-adv-x="1251" 
d="M1186 1012v-49q-83 0 -108 -25.5t-25 -93.5v-447q0 -35 -2 -64t-11.5 -74.5t-26 -81.5t-49 -75.5t-77 -65.5t-114 -43.5t-155.5 -17.5q-87 0 -164 21t-139 63t-98.5 111.5t-36.5 159.5v538q0 95 -137 95v49h563v-49q-135 0 -135 -95v-540q0 -56 9 -99t32 -82t68.5 -60
t111.5 -21q63 0 113.5 19t80.5 48t50 67t27.5 72.5t7.5 67.5v491q0 38 -3 58t-16 39.5t-41.5 27t-76.5 7.5v49h352zM266 1300q0 45 35 89.5t94 44.5q54 0 92.5 -40t38.5 -96q0 -55 -37.5 -93t-93.5 -38q-60 0 -94.5 43.5t-34.5 89.5zM696 1300q0 46 34 90t93 44
q54 0 93.5 -40.5t39.5 -95.5q0 -54 -38 -92.5t-95 -38.5q-60 0 -93.5 43.5t-33.5 89.5z" />
    <glyph glyph-name="Ugrave.sc" unicode="&#xe034;" horiz-adv-x="1251" 
d="M1186 1012v-49q-83 0 -108 -25.5t-25 -93.5v-447q0 -35 -2 -64t-11.5 -74.5t-26 -81.5t-49 -75.5t-77 -65.5t-114 -43.5t-155.5 -17.5q-87 0 -164 21t-139 63t-98.5 111.5t-36.5 159.5v538q0 95 -137 95v49h563v-49q-135 0 -135 -95v-540q0 -56 9 -99t32 -82t68.5 -60
t111.5 -21q63 0 113.5 19t80.5 48t50 67t27.5 72.5t7.5 67.5v491q0 38 -3 58t-16 39.5t-41.5 27t-76.5 7.5v49h352zM774 1149h-115l-290 180q-41 25 -61.5 50.5t-20.5 58.5q0 30 24 60t76 30q58 0 107 -58z" />
    <glyph glyph-name="V.sc" unicode="&#xe035;" horiz-adv-x="1138" 
d="M602 -25h-51l-418 916q-33 72 -100 72v49h516v-49q-64 0 -89.5 -9.5t-25.5 -38.5q0 -10 2.5 -21t5.5 -17.5t9.5 -20.5t9.5 -22l213 -486l203 502q14 35 14 59q0 54 -113 54v49h307v-49q-37 0 -66 -23t-42 -55z" />
    <glyph glyph-name="W.sc" unicode="&#xe036;" horiz-adv-x="1593" 
d="M1145 -25h-55l-275 684l-309 -684h-55l-357 920q-12 30 -33.5 49t-44.5 19v49h484v-49q-82 0 -82 -56q0 -16 6.5 -37.5t24 -68.5t28.5 -78l121 -352l182 391l-51 129q-17 43 -43.5 57.5t-67.5 14.5v49h496v-49q-94 0 -94 -50q0 -8 4.5 -25t14 -45t20 -56t26.5 -73t29 -81
l88 -248h4l137 428q21 65 21 90q0 26 -27.5 43t-70.5 17v49h274v-49q-32 0 -61.5 -26.5t-44.5 -70.5z" />
    <glyph glyph-name="X.sc" unicode="&#xe037;" horiz-adv-x="1138" 
d="M1094 0h-525v49q53 0 80 8t27 33q0 29 -33 76l-160 223l-155 -203q-41 -55 -41 -88q0 -21 28 -35t70 -14v-49h-352v49q37 -1 74.5 23t60.5 49t85 100q3 3 4.5 5t4 5t4.5 5l176 213l-327 466q-20 27 -37 37.5t-41 10.5v49h532v-49q-39 0 -68.5 -13.5t-29.5 -36.5t10.5 -43
t36.5 -57l117 -162l153 189q39 49 39 73q0 22 -29 36t-73 14v49h352v-49q-82 0 -186 -123l-211 -252l317 -469q49 -70 97 -70v-49z" />
    <glyph glyph-name="Y.sc" unicode="&#xe038;" horiz-adv-x="1138" 
d="M709 457v-301q0 -63 31.5 -83.5t103.5 -23.5v-49h-561v49q73 3 104 23.5t31 83.5v237l-295 516q-32 54 -90 54v49h520v-49q-13 0 -28 -1.5t-34.5 -6t-32 -15.5t-12.5 -27q0 -12 4.5 -26.5t18.5 -41t27 -49t42 -72t52 -89.5l69 -123l84 135q21 34 47 74t40.5 62.5t28.5 46
t20 40.5t6 31q0 62 -107 62v49h312v-49q-32 0 -53.5 -13t-45.5 -49z" />
    <glyph glyph-name="Yacute.sc" unicode="&#xe039;" horiz-adv-x="1138" 
d="M709 457v-301q0 -63 31.5 -83.5t103.5 -23.5v-49h-561v49q73 3 104 23.5t31 83.5v237l-295 516q-32 54 -90 54v49h520v-49q-13 0 -28 -1.5t-34.5 -6t-32 -15.5t-12.5 -27q0 -12 4.5 -26.5t18.5 -41t27 -49t42 -72t52 -89.5l69 -123l84 135q21 34 47 74t40.5 62.5t28.5 46
t20 40.5t6 31q0 62 -107 62v49h312v-49q-32 0 -53.5 -13t-45.5 -49zM811 1329l-291 -180h-114l280 321q51 58 107 58q37 0 68.5 -20.5t31.5 -69.5q0 -27 -12 -47.5t-25.5 -31.5t-44.5 -30z" />
    <glyph glyph-name="Ydieresis.sc" unicode="&#xe03a;" horiz-adv-x="1138" 
d="M709 457v-301q0 -63 31.5 -83.5t103.5 -23.5v-49h-561v49q73 3 104 23.5t31 83.5v237l-295 516q-32 54 -90 54v49h520v-49q-13 0 -28 -1.5t-34.5 -6t-32 -15.5t-12.5 -27q0 -12 4.5 -26.5t18.5 -41t27 -49t42 -72t52 -89.5l69 -123l84 135q21 34 47 74t40.5 62.5t28.5 46
t20 40.5t6 31q0 62 -107 62v49h312v-49q-32 0 -53.5 -13t-45.5 -49zM225 1300q0 45 35 89.5t94 44.5q54 0 92.5 -40t38.5 -96q0 -55 -37.5 -93t-93.5 -38q-60 0 -94.5 43.5t-34.5 89.5zM655 1300q0 46 34 90t93 44q54 0 93.5 -40.5t39.5 -95.5q0 -54 -38.5 -92.5
t-94.5 -38.5q-60 0 -93.5 43.5t-33.5 89.5z" />
    <glyph glyph-name="Z.sc" unicode="&#xe03b;" 
d="M29 33l542 901h-161q-68 0 -118.5 -18.5t-81.5 -53t-49 -73t-30 -89.5h-51l29 312h829l-559 -934h215q39 0 67.5 4.5t65 21.5t65.5 47.5t60 85.5t57 132h49l-28 -369h-901v33z" />
    <glyph glyph-name="Zcaron.sc" unicode="&#xe03c;" 
d="M29 33l542 901h-161q-68 0 -118.5 -18.5t-81.5 -53t-49 -73t-30 -89.5h-51l29 312h829l-559 -934h215q39 0 67.5 4.5t65 21.5t65.5 47.5t60 85.5t57 132h49l-28 -369h-901v33zM858 1509l-252 -360h-188l-250 360h115l229 -202l229 202h117z" />
    <glyph glyph-name="germandbls.sc" unicode="&#xe03f;" horiz-adv-x="1818" 
d="M793 1036v-323h-56q-34 99 -123.5 182.5t-187.5 83.5q-70 0 -113 -34t-43 -85q0 -24 6.5 -44t13.5 -34.5t29 -31.5t35.5 -26.5t51 -27t58 -26.5t73.5 -31q162 -68 230.5 -143.5t68.5 -200.5q0 -149 -99 -234.5t-295 -85.5q-72 0 -133 14.5t-96.5 29t-46.5 14.5
q-34 0 -55 -58h-50v369h50q58 -157 153.5 -234t204.5 -77q68 0 113 37.5t45 103.5q0 27 -5.5 48.5t-20 39.5t-27 30t-41.5 26.5t-46.5 22.5t-57.5 24.5t-62 25.5q-72 30 -122.5 60t-94.5 70.5t-66.5 92.5t-22.5 117q0 59 24.5 113.5t69 97.5t115 68.5t156.5 25.5
q71 0 128 -14t89.5 -28.5t44.5 -14.5q8 0 15 2t12 6.5t9 8.5t7.5 11t5 10.5t3.5 10.5l3 8h50zM1702 1036v-323h-55q-34 99 -124 182.5t-188 83.5q-70 0 -112.5 -34t-42.5 -85q0 -18 4 -34.5t8 -29.5t17 -26.5t21.5 -22.5t30.5 -21.5t34.5 -19.5t44.5 -21.5t48.5 -21.5
t57.5 -24q162 -68 230.5 -143.5t68.5 -200.5q0 -150 -99 -235t-294 -85q-72 0 -133 14.5t-97 29t-47 14.5q-34 0 -55 -58h-49v369h49q58 -157 153.5 -234t204.5 -77q68 0 113 37.5t45 103.5q0 27 -5.5 48.5t-20 39.5t-27 30t-41.5 26.5t-46.5 22.5t-57.5 24.5t-62 25.5
q-72 30 -122.5 60t-94.5 70.5t-66 92.5t-22 117q0 59 24 113.5t69 97.5t115 68.5t156 25.5q71 0 128 -14t89.5 -28.5t44.5 -14.5q7 0 13.5 2t11 4.5t9 7.5t7 8.5t5.5 10t4 9t3 9.5l3 6h49z" />
    <glyph glyph-name="zero.taboldstyle" unicode="&#xf643;" 
d="M502 971q-87 0 -120.5 -103t-33.5 -362t33.5 -362t120.5 -103t120 103t33 362t-33 362t-120 103zM496 1036q98 0 179 -35.5t133.5 -92t88 -130.5t51 -148t15.5 -147q0 -212 -138 -360t-333 -148q-95 0 -180.5 44.5t-144 116t-92.5 163t-34 184.5q0 74 14 147.5
t47.5 147.5t84 130.5t130.5 92t179 35.5z" />
    <glyph glyph-name="one.taboldstyle" unicode="&#xf644;" 
d="M655 819v-614q0 -50 14.5 -82t45 -47.5t63.5 -21t82 -5.5v-49h-717v49q49 0 82 5.5t63.5 21t45 47.5t14.5 82v614q0 38 -10.5 64.5t-25 41t-45 23t-54.5 11t-70 4.5v49h717v-49q-46 -2 -70 -4.5t-54.5 -11t-45 -23t-25 -41t-10.5 -64.5z" />
    <glyph glyph-name="two.taboldstyle" unicode="&#xf645;" 
d="M883 385h41l-70 -385h-788v49q261 245 320 305q144 147 175 240q12 36 12 70q0 180 -204 180q-40 0 -74.5 -12.5t-57 -28t-45.5 -44.5t-32.5 -45t-26.5 -46h-53q11 35 28 73.5t55 94t86 97.5t124.5 72.5t165.5 30.5q149 0 237 -78.5t88 -191.5q0 -44 -25.5 -93.5t-58 -88
t-95 -92t-102.5 -83t-117 -84.5t-104 -75v-4h351q78 0 114.5 34t55.5 105z" />
    <glyph glyph-name="three.taboldstyle" unicode="&#xf646;" 
d="M313 360v41q260 67 260 275q0 86 -57.5 141t-146.5 55q-43 0 -77.5 -10.5t-67.5 -37.5t-54 -49.5t-59 -67.5l-39 28q26 43 49.5 76t67.5 78t91 74.5t117 51t148 21.5q86 0 153.5 -26t106 -68t57.5 -89t19 -95q0 -142 -170 -250q23 -9 50 -25t62.5 -47.5t63.5 -69.5
t47.5 -96t19.5 -123q0 -118 -52.5 -220t-139 -170t-197 -107t-227.5 -39q-133 0 -219 46.5t-86 129.5q0 61 36 96t95 35q43 0 83.5 -21t73 -51t63.5 -60.5t67.5 -51.5t72.5 -21q74 0 135.5 62t61.5 178q0 65 -26 126.5t-68.5 108.5t-96 84.5t-109.5 59.5t-108 28z" />
    <glyph glyph-name="four.taboldstyle" unicode="&#xf647;" 
d="M840 1063v-838h135v-225h-135v-344h-287v344h-512v238l635 825h164zM553 225v561h-6l-412 -548v-13h418z" />
    <glyph glyph-name="five.taboldstyle" unicode="&#xf648;" 
d="M94 295l201 717h651l-82 -258h-565l-53 -181q105 1 199.5 -13t182 -49t151 -89t101.5 -137.5t38 -188.5q0 -147 -77 -258.5t-207 -169t-290 -57.5q-147 0 -229 46.5t-82 135.5q0 45 36 83t91 38q37 0 76 -18.5t74 -45t72 -53t83.5 -45t95.5 -18.5q78 0 135.5 59t57.5 146
q0 86 -67 159t-168 116.5t-214.5 65t-210.5 15.5z" />
    <glyph glyph-name="six.taboldstyle" unicode="&#xf649;" 
d="M950 1413v-49q-81 -17 -150 -46t-118 -60.5t-91 -75.5t-68.5 -81.5t-50.5 -89.5t-37 -88.5t-29 -88.5q97 38 184 38q160 0 264 -115.5t104 -320.5q0 -121 -52.5 -225t-157.5 -170t-242 -66q-207 0 -330 158t-123 412q0 143 38 267.5t104.5 216t153.5 164t188.5 118.5
t205 71.5t207.5 30.5zM467 782q-69 0 -88 -59.5t-19 -247.5q0 -212 40.5 -323t119.5 -111q70 0 100.5 65.5t30.5 212.5q0 245 -41 354t-143 109z" />
    <glyph glyph-name="seven.taboldstyle" unicode="&#xf64a;" 
d="M49 567l94 445h832l-488 -1368h-180l406 1106h-451q-64 0 -107 -56t-57 -127h-49z" />
    <glyph glyph-name="eight.taboldstyle" unicode="&#xf64b;" 
d="M522 1413q177 0 292.5 -87.5t115.5 -219.5q0 -47 -9.5 -85t-30 -66.5t-42.5 -49t-56.5 -38t-61.5 -28.5t-68 -24q14 -13 57 -43.5t80 -61.5t77 -75.5t63.5 -105.5t23.5 -132q0 -191 -121 -306.5t-350 -115.5q-217 0 -328 85t-111 249q0 63 20.5 116t49 87t73 64t78 45
t78.5 32q-128 67 -203 171.5t-75 244.5q0 141 132.5 242.5t315.5 101.5zM500 1348q-71 0 -115.5 -52t-44.5 -139q0 -41 18.5 -80.5t40.5 -66.5t66 -60.5t68 -49t73 -44.5q36 36 59 105t23 157q0 100 -53 165t-135 65zM295 319q0 -129 53.5 -203.5t155.5 -74.5q176 0 176 211
q0 199 -268 364q-40 -37 -78.5 -125.5t-38.5 -171.5z" />
    <glyph glyph-name="nine.taboldstyle" unicode="&#xf64c;" 
d="M53 -389v49q63 11 119 29.5t99.5 40.5t82 53t66.5 59.5t53.5 67t42.5 69t33.5 72t26.5 70.5t22 69q-96 -38 -184 -38q-162 0 -265.5 108t-103.5 309q0 211 128.5 339t324.5 128q206 0 329 -162.5t123 -418.5q0 -156 -53 -291.5t-141.5 -232.5t-204.5 -168.5
t-242.5 -108.5t-255.5 -43zM352 623q0 -192 41 -286.5t131 -94.5q29 0 47.5 4t32.5 19.5t21 34.5t11.5 60.5t5.5 84.5t1 120q0 196 -41.5 301t-118.5 105q-19 0 -35.5 -3.5t-28.5 -13t-22 -18.5t-17 -28t-12 -32.5t-8 -40.5t-4.5 -44t-2.5 -52t-1 -55v-61z" />
    <glyph glyph-name="dollar.taboldstyle" unicode="&#xf653;" 
d="M551 512v-451q25 4 42 8.5t48 20.5t50 38t34.5 63.5t15.5 95.5q0 22 -2.5 40.5t-11 35.5l-14.5 29t-23 27t-25.5 23t-34 23.5t-36.5 22t-43 24.5zM877 985h-43q-9 30 -16 51t-23.5 61.5t-37.5 70.5t-49.5 62t-69 53.5t-87.5 29.5v-441q48 -24 73.5 -37.5t67.5 -37.5
t65.5 -40.5t57 -42t52.5 -47.5t41 -52.5t33 -60.5t18.5 -67.5t7.5 -78.5q0 -87 -24.5 -154t-61.5 -109t-95 -72.5t-111.5 -45.5t-123.5 -27v-203h-113v203q-97 4 -158.5 21t-185.5 67v320l43 -5q27 -94 61 -160t74.5 -102.5t78.5 -54t85 -25.5v514q-40 20 -67 34.5t-70.5 41
t-72.5 50.5t-63.5 59.5t-55 72t-34.5 84.5t-14 99q0 86 34.5 155.5t91 112t121.5 66t132 26.5v160h113v-156q91 -13 160.5 -33.5t98.5 -35t67 -37.5v-289zM436 930v389q-182 -39 -182 -186q0 -140 182 -203z" />
    <glyph glyph-name="cent.taboldstyle" unicode="&#xf654;" 
d="M461 262l196 551v6q0 42 -27.5 64t-58.5 22q-39 0 -69.5 -20t-48.5 -55t-30 -71.5t-17.5 -79.5t-7 -69t-1.5 -49q0 -177 64 -299zM879 1204l-99 -278q129 -64 129 -181q0 -37 -14 -64t-31 -39t-40 -19t-32.5 -8t-17.5 -1q-57 0 -90 41l-168 -471q69 -75 166 -75
q43 0 79 10t63.5 30.5t42 35t34.5 38.5l37 -37q-151 -215 -389 -215q-55 0 -105 15l-96 -273h-82l105 297q-117 50 -189.5 165t-72.5 284q0 123 43 223t112.5 161t153 93.5t170.5 32.5q53 0 119 -17l90 252h82z" />
    <glyph glyph-name="breve.sc" unicode="&#xf6f4;" horiz-adv-x="681" 
d="M561 1483h90q-11 -159 -88.5 -246.5t-222.5 -87.5q-144 0 -226 86.5t-83 247.5h90q4 -24 8.5 -41t20 -45.5t37 -46t62 -31.5t93.5 -14q49 0 87.5 13.5t59.5 30.5t37.5 45t22 45t12.5 44z" />
    <glyph glyph-name="caron.sc" unicode="&#xf6f5;" horiz-adv-x="681" 
d="M686 1509l-252 -360h-188l-250 360h115l229 -202l229 202h117z" />
    <glyph glyph-name="circumflex.sc" unicode="&#xf6f6;" horiz-adv-x="681" 
d="M569 1149l-229 201l-229 -201h-115l250 360h188l252 -360h-117z" />
    <glyph glyph-name="dotaccent.sc" unicode="&#xf6f7;" horiz-adv-x="681" 
d="M211 1300q0 46 34 90t93 44q54 0 93.5 -40.5t39.5 -95.5q0 -54 -38.5 -92.5t-94.5 -38.5q-60 0 -93.5 43.5t-33.5 89.5z" />
    <glyph glyph-name="hungarumlaut.sc" unicode="&#xf6f8;" horiz-adv-x="681" 
d="M379 1329l-291 -180h-115l281 321q51 58 106 58q38 0 69.5 -20.5t31.5 -69.5q0 -27 -12 -47.5t-25.5 -31.5t-44.5 -30zM788 1329l-290 -180h-115l281 321q51 58 106 58q37 0 68.5 -20.5t31.5 -69.5q0 -27 -12 -47.5t-25.5 -31.5t-44.5 -30z" />
    <glyph glyph-name="lslash.sc" unicode="&#xf6f9;" horiz-adv-x="1138" 
d="M741 754v-101l-278 -131v-350q0 -71 25.5 -88.5t125.5 -17.5q76 0 139 22.5t100.5 51t70 73t45 71t26.5 62.5h54l-54 -346h-952v49q76 -3 102.5 28.5t26.5 94.5v213l-180 -84v100l180 84v371q0 62 -31.5 84.5t-103.5 22.5v49h559v-49q-133 0 -133 -107v-233z" />
    <glyph glyph-name="oe.sc" unicode="&#xf6fa;" horiz-adv-x="1705" 
d="M627 963q-123 0 -195 -127t-72 -328q0 -239 72 -349t211 -110q89 0 122.5 37t33.5 123v579q0 45 -4 70t-20 52.5t-52.5 40t-95.5 12.5zM1081 487v-340q0 -54 28 -67.5t124 -13.5q45 0 84.5 8.5t68 19.5t56 33.5t44.5 39.5t38 49t31.5 50.5t29.5 54.5q2 3 3 5l2.5 5l2.5 5
h41l-39 -336h-620q-62 0 -184 -8q-126 -8 -189 -8q-258 0 -397 134.5t-139 405.5q0 146 72.5 262t194.5 179t269 63q63 0 189 -8q122 -8 184 -8h579l13 -307h-56q-7 108 -77 174.5t-217 66.5q-136 0 -136 -41v-352q37 0 66.5 6t50 14t37 24.5t26 30.5t18.5 40t13 44t11 50
h49v-492h-49q5 36 -6 77.5t-35.5 78.5t-72 55.5t-108.5 5.5z" />
    <glyph glyph-name="ogonek.sc" unicode="&#xf6fb;" horiz-adv-x="681" 
d="M324 66l67 24q-2 -11 -12 -47t-16.5 -68t-6.5 -55q0 -133 133 -133q17 0 33 4t26.5 8.5t29.5 14t30 14.5l45 -29q-31 -68 -106 -110.5t-135 -42.5q-36 0 -71 7.5t-72.5 24.5t-61 52.5t-23.5 85.5q0 32 17 71t32.5 61.5t50 65.5t40.5 52z" />
    <glyph glyph-name="ring.sc" unicode="&#xf6fc;" horiz-adv-x="681" 
d="M123 1364q0 90 64.5 154.5t154.5 64.5q89 0 153 -65t64 -154q0 -90 -63.5 -153.5t-153.5 -63.5t-154.5 63t-64.5 154zM461 1364q0 48 -36.5 84.5t-86.5 36.5q-53 0 -85 -40.5t-32 -80.5q0 -41 31.5 -80t85.5 -39q52 0 87.5 34.5t35.5 84.5z" />
    <glyph glyph-name="scaron.sc" unicode="&#xf6fd;" horiz-adv-x="909" 
d="M793 1036v-323h-56q-34 99 -123.5 182.5t-187.5 83.5q-70 0 -113 -34t-43 -85q0 -24 6.5 -44t13.5 -34.5t29 -31.5t35.5 -26.5t51 -27t58 -26.5t73.5 -31q162 -68 230.5 -143.5t68.5 -200.5q0 -149 -99 -234.5t-295 -85.5q-72 0 -133 14.5t-96.5 29t-46.5 14.5
q-34 0 -55 -58h-50v369h50q58 -157 153.5 -234t204.5 -77q68 0 113 37.5t45 103.5q0 27 -5.5 48.5t-20 39.5t-27 30t-41.5 26.5t-46.5 22.5t-57.5 24.5t-62 25.5q-72 30 -122.5 60t-94.5 70.5t-66.5 92.5t-22.5 117q0 59 24.5 113.5t69 97.5t115 68.5t156.5 25.5
q71 0 128 -14t89.5 -28.5t44.5 -14.5q8 0 15 2t12 6.5t9 8.5t7.5 11t5 10.5t3.5 10.5l3 8h50zM801 1509l-252 -360h-189l-249 360h114l230 -202l229 202h117z" />
    <glyph glyph-name="tilde.sc" unicode="&#xf6fe;" horiz-adv-x="681" 
d="M53 1192h-86q50 256 242 256q47 0 145 -39l82 -37q40 -18 50.5 -21t31.5 -3q27 0 47 9.5t32.5 28.5t17.5 30.5t12 31.5h88q-6 -22 -10 -37.5t-15 -45t-23 -50.5t-32 -47t-42.5 -42t-55.5 -27t-70 -11q-55 0 -123 29l-59 26q-76 34 -92.5 39.5t-38.5 5.5q-45 0 -72 -31.5
t-29 -64.5z" />
    <glyph glyph-name="zcaron.sc" unicode="&#xf6ff;" 
d="M29 33l542 901h-161q-68 0 -118.5 -18.5t-81.5 -53t-49 -73t-30 -89.5h-51l29 312h829l-559 -934h215q39 0 67.5 4.5t65 21.5t65.5 47.5t60 85.5t57 132h49l-28 -369h-901v33zM858 1509l-252 -360h-188l-250 360h115l229 -202l229 202h117z" />
    <glyph glyph-name="exclam.sc" unicode="&#xf721;" horiz-adv-x="681" 
d="M168 145q0 70 50 122t122 52t123 -51.5t51 -122.5q0 -73 -50.5 -122.5t-123.5 -49.5t-122.5 50t-49.5 122zM369 479h-60q-17 177 -43.5 310t-47.5 190.5t-36.5 117t-15.5 115.5q0 97 46.5 150t127.5 53q79 0 125.5 -53t46.5 -150q0 -56 -15.5 -115.5t-36.5 -117
t-47.5 -190.5t-43.5 -310z" />
    <glyph glyph-name="ampersand.sc" unicode="&#xf726;" horiz-adv-x="1705" 
d="M1182 858h422v-49q-46 -4 -73 -13.5t-42.5 -24t-34.5 -44.5q-87 -140 -117.5 -186t-128.5 -181q76 -98 128 -142t118 -44q74 0 117 78l41 -25q-1 -1 -44.5 -72t-45.5 -73q-38 -45 -91.5 -73t-87.5 -35t-59 -7q-53 0 -98.5 14t-86.5 46t-63 53.5t-63 66.5
q-233 -178 -455 -178q-76 0 -144.5 23t-124.5 66.5t-89 114.5t-33 159q0 43 10 84.5t24.5 74.5t40 66t47.5 56.5t56.5 49.5t58 42t60 36t54.5 29l50 25q-56 93 -81 159t-25 133q0 72 24 129t62.5 93.5t91.5 61t107 34.5t112 10q92 0 161.5 -22.5t108 -60t56.5 -79.5t18 -86
q0 -196 -311 -301l309 -438q33 40 53.5 67t48 68.5t41 80t13.5 73.5q0 54 -24.5 68t-110.5 24v49zM412 532q0 -53 25 -122t66.5 -133t105.5 -108t132 -44q78 0 185 80q-78 102 -264 381l-99 147q-83 -47 -117 -91t-34 -110zM662 1227q0 -68 48 -151.5t103 -149.5q28 9 47 18
t44 28t38.5 50t13.5 72q0 54 -21 111t-65.5 100t-99.5 43q-46 0 -77 -27t-31 -94z" />
    <glyph glyph-name="question.sc" unicode="&#xf73f;" 
d="M518 473h-61q-4 78 -4 90q0 49 16 95.5t38.5 86.5t44.5 84t38 106t16 134q0 32 -2.5 61.5t-13.5 69.5t-29 68.5t-51.5 48.5t-79.5 20q-12 0 -27.5 -2.5t-39 -9.5t-39 -25.5t-15.5 -44.5q0 -20 12 -37.5t26 -29.5t26 -37t12 -59q0 -37 -13.5 -64.5t-34 -41t-40 -19.5
t-37.5 -6q-72 0 -107.5 47.5t-35.5 109.5q0 30 8.5 63.5t35 75.5t68 75t116 56t169.5 23q19 0 42.5 -2t63.5 -10t77 -22t77 -40.5t69.5 -61.5t48.5 -90t19 -122q0 -177 -192 -297q-67 -41 -90.5 -56.5t-50.5 -40t-39 -48.5q-21 -43 -21 -148zM315 145q0 70 51 122t123 52
q70 0 121.5 -51.5t51.5 -122.5q0 -73 -51 -122.5t-122 -49.5q-73 0 -123.5 50t-50.5 122z" />
    <glyph glyph-name="grave.sc" unicode="&#xf760;" horiz-adv-x="681" 
d="M504 1149h-115l-291 180q-41 25 -61.5 50.5t-20.5 58.5q0 30 24.5 60t76.5 30q57 0 106 -58z" />
    <glyph glyph-name="a.sc" unicode="&#xf761;" horiz-adv-x="1138" 
d="M631 270h-346l-29 -65q-31 -68 -31 -107q0 -49 99 -49v-49h-291v49q35 0 61 22.5t37 49.5l408 915h49l393 -884q27 -60 45.5 -80t58.5 -23v-49h-499v49q46 -3 78 8t32 31q0 52 -24 102zM602 344l-141 338l-146 -338h287z" />
    <glyph glyph-name="b.sc" unicode="&#xf762;" horiz-adv-x="1138" 
d="M584 0h-543v49q40 0 59.5 2.5t40 14.5t28 38.5t7.5 71.5v655q0 74 -27 103t-104 29v49h569q46 0 88 -3.5t99.5 -18t98.5 -38.5t70 -70t29 -108q0 -32 -7 -59t-17 -46t-28.5 -36t-31.5 -26t-37 -19t-35.5 -13.5t-36 -10t-28.5 -7.5v-4q24 -3 55 -12t70 -29.5t71 -48
t53.5 -72t21.5 -96.5q0 -83 -32 -141t-94.5 -91.5t-145 -48t-193.5 -14.5zM467 512v-379q0 -25 4.5 -39t19 -20t27 -7t43.5 -1q91 0 140 62.5t49 174.5q0 93 -56.5 151t-183.5 58h-43zM709 760q0 82 -45.5 142.5t-106.5 60.5q-90 0 -90 -70v-324q125 0 183.5 40.5
t58.5 150.5z" />
    <glyph glyph-name="c.sc" unicode="&#xf763;" horiz-adv-x="1138" 
d="M1028 1036v-364h-61q-30 115 -126.5 207t-213.5 92q-133 0 -200 -115t-67 -354q0 -217 75.5 -330.5t215.5 -118.5q180 -6 355 189l45 -49q-26 -29 -46 -50.5t-62.5 -55.5t-84.5 -56t-102.5 -39t-124.5 -17q-268 0 -423 134.5t-155 371.5q0 127 45 233.5t121 176
t173 107.5t202 38q110 0 207 -37q15 -6 39.5 -16.5t38 -15t24.5 -4.5q50 0 76 73h49z" />
    <glyph glyph-name="d.sc" unicode="&#xf764;" horiz-adv-x="1251" 
d="M172 188v643q0 39 -3 59t-15.5 39t-39.5 26.5t-73 7.5v49h516q102 0 189.5 -16.5t165.5 -54.5t132.5 -96t86.5 -146t32 -199q0 -108 -37 -196t-94.5 -143t-131 -93t-142 -53t-131.5 -15h-586v49q33 0 52.5 3.5t40 16.5t29.5 42.5t9 76.5zM463 877v-725q0 -54 19 -70
t79 -16q295 0 295 442q0 196 -77.5 317t-200.5 121q-61 0 -88 -15t-27 -54z" />
    <glyph glyph-name="e.sc" unicode="&#xf765;" horiz-adv-x="1138" 
d="M168 133v711q0 61 -24.5 90t-104.5 29v49h928v-316h-49q-36 250 -308 250q-84 0 -119.5 -12.5t-35.5 -52.5v-328q221 -22 239 209h49v-488h-49q-5 69 -25 113t-55 65t-70.5 28t-88.5 7v-340q0 -50 32 -65.5t121 -15.5q130 0 231.5 64t153.5 194h49l-51 -324h-952v49
q21 0 33.5 0.5t33 5t32.5 12.5t21 25t9 41z" />
    <glyph glyph-name="f.sc" unicode="&#xf766;" 
d="M168 152v704q0 62 -31.5 84.5t-103.5 22.5l6 49h907v-307h-49q-10 62 -33.5 107t-54.5 71t-73 41t-81 19t-86 3q-61 -2 -85.5 -12.5t-24.5 -40.5v-336q59 0 100 16.5t64 49.5t33.5 62.5t19.5 76.5h49v-488h-49q-9 52 -20 86t-34 67t-63.5 49t-99.5 16v-340q0 -24 8 -42.5
t23.5 -29.5t31 -17.5t38.5 -9.5t36.5 -3.5t34.5 -0.5v-49h-592v49q24 0 41.5 2.5t40 11.5t35 31.5t12.5 57.5z" />
    <glyph glyph-name="g.sc" unicode="&#xf767;" horiz-adv-x="1251" 
d="M1032 1042v-366h-49q-50 140 -138 217.5t-202 77.5q-270 0 -270 -475q0 -455 268 -455q84 0 119 22t35 80v164q0 83 -146 86v49h504v-49q-84 -18 -84 -90v-233q0 -17 -41 -37.5t-147 -39t-250 -18.5q-118 0 -219.5 34t-179 99t-122 167.5t-44.5 230.5q0 100 36.5 193.5
t103 169.5t172 121.5t232.5 45.5q106 0 203 -37q13 -5 32 -13t29.5 -12t23 -7.5t22.5 -3.5q49 0 63 79h49z" />
    <glyph glyph-name="h.sc" unicode="&#xf768;" horiz-adv-x="1251" 
d="M791 487h-353v-315q0 -70 30 -96.5t95 -26.5v-49h-534v49q55 0 86.5 27.5t31.5 95.5v684q0 61 -28.5 84t-89.5 23v49h534v-49q-53 0 -89 -24t-36 -83v-291h353v291q0 61 -29 84t-90 23v49h534v-49q-53 0 -89 -24t-36 -83v-684q0 -70 30 -96.5t95 -26.5v-49h-534v49
q55 0 87 27.5t32 95.5v315z" />
    <glyph glyph-name="i.sc" unicode="&#xf769;" horiz-adv-x="681" 
d="M57 963v49h559v-49q-133 0 -133 -107v-684q0 -71 31 -97t102 -26v-49h-559v49q67 0 101.5 27t34.5 96v684q0 62 -31.5 84.5t-104.5 22.5z" />
    <glyph glyph-name="j.sc" unicode="&#xf76a;" horiz-adv-x="909" 
d="M418 66v790q0 62 -33.5 84.5t-114.5 22.5v49h574v-49q-62 0 -98.5 -22.5t-36.5 -84.5v-647q0 -84 -23.5 -150t-62 -107t-92 -68t-108.5 -37.5t-116 -10.5q-117 0 -197.5 60t-80.5 145q0 149 135 149q50 0 86.5 -33t36.5 -79q0 -36 -22.5 -70.5t-22.5 -62.5q0 -43 69 -43
q59 0 83 36t24 128z" />
    <glyph glyph-name="k.sc" unicode="&#xf76b;" horiz-adv-x="1251" 
d="M33 1012h526v-49q-64 -5 -90.5 -22t-26.5 -73v-360l258 276q32 34 45.5 48.5t30 34.5t22 32t5.5 23q0 24 -25 33.5t-82 7.5v49h451v-49q-89 -3 -157.5 -38t-131.5 -98l-170 -170l416 -518q52 -68 104 -90v-49h-530v49q92 0 92 45q0 13 -6 26.5t-11 20.5t-21 25t-21 24
l-224 275l-45 -43v-258q0 -109 117 -115v-49h-526v49q26 2 43.5 6t36.5 15t29 34.5t10 59.5v704q0 53 -26.5 74t-92.5 21v49z" />
    <glyph glyph-name="l.sc" unicode="&#xf76c;" horiz-adv-x="1138" 
d="M995 346h54l-54 -346h-952v49q76 -3 102.5 28.5t26.5 94.5v684q0 62 -31.5 84.5t-103.5 22.5v49h559v-49q-133 0 -133 -107v-684q0 -71 25.5 -88.5t125.5 -17.5q76 0 139 22.5t100.5 51t70 73t45 71t26.5 62.5z" />
    <glyph glyph-name="m.sc" unicode="&#xf76d;" horiz-adv-x="1478" 
d="M426 1012l303 -668l309 668h394v-49q-70 -5 -95.5 -25t-25.5 -94v-631q0 -37 4 -64t14.5 -44.5t18.5 -27.5t26.5 -16t27 -7.5t30.5 -4.5v-49h-523v49q18 1 31 3t32.5 11.5t32 25.5t22 48t9.5 76v616h-6l-377 -829h-49l-362 799h-4v-629q0 -39 13 -65t36.5 -37t41 -14.5
t42.5 -4.5v-49h-342v49q24 0 40 3t38 13.5t33.5 37t11.5 67.5v682q0 25 -2.5 38.5t-12.5 32.5t-37 29t-71 11v49h397z" />
    <glyph glyph-name="n.sc" unicode="&#xf76e;" horiz-adv-x="1138" 
d="M971 -25h-56l-673 818h-4v-615q0 -71 28.5 -98.5t104.5 -30.5v-49h-342v49q75 6 99 33t24 98v713q-19 37 -47 53.5t-72 16.5v49h379l469 -576h4v379q0 145 -131 148v49h331v-49q-28 -4 -45 -8.5t-35 -16.5t-26 -35.5t-8 -58.5v-869z" />
    <glyph glyph-name="o.sc" unicode="&#xf76f;" horiz-adv-x="1251" 
d="M614 971q-122 0 -183.5 -111.5t-61.5 -347.5q0 -471 245 -471q87 0 140.5 43t81.5 147.5t28 280.5q0 239 -60.5 349t-189.5 110zM614 1036q237 0 397 -149t160 -375q0 -151 -73 -274.5t-201 -193t-283 -69.5q-236 0 -394.5 153.5t-158.5 383.5q0 226 158 375t395 149z
" />
    <glyph glyph-name="p.sc" unicode="&#xf770;" 
d="M143 152v692q0 65 -20 91.5t-90 27.5v49h528q55 0 99.5 -3.5t97 -13.5t91.5 -31.5t73 -53.5t51.5 -82.5t17.5 -116.5q0 -82 -51 -143.5t-131 -91.5t-174 -30h-201v-294q0 -28 10 -48t22 -30t33 -16t31.5 -7t28.5 -2v-49h-526v49q21 1 36 4.5t34 13t29.5 31.5t10.5 54z
M434 848v-336q146 0 206 56t60 186q0 97 -57 144.5t-139 47.5q-24 0 -39.5 -8t-21.5 -24.5t-7.5 -29.5t-1.5 -36z" />
    <glyph glyph-name="q.sc" unicode="&#xf771;" horiz-adv-x="1251" 
d="M614 971q-122 0 -183.5 -111.5t-61.5 -347.5q0 -471 245 -471q87 0 140.5 43t81.5 147.5t28 280.5q0 239 -60.5 349t-189.5 110zM1165 -266l6 -49q-118 -33 -251 -33q-207 0 -328 92.5t-156 255.5q-174 56 -274.5 186t-100.5 326q0 144 72 264t199 190t282 70
q237 0 397 -149t160 -375q0 -195 -111.5 -334t-273.5 -178q11 -56 35.5 -103.5t67 -89.5t114 -62t162.5 -11z" />
    <glyph glyph-name="r.sc" unicode="&#xf772;" horiz-adv-x="1251" 
d="M172 152v692q0 34 -3 52t-15.5 35t-38.5 24t-70 8v49h647q170 0 269.5 -69.5t99.5 -201.5q0 -49 -20.5 -89t-47.5 -63.5t-65.5 -42t-63.5 -25.5t-53 -13l336 -432q17 -19 61 -27v-49h-360l-332 459h-53v-307q0 -28 10.5 -48t23 -30t34.5 -16t34 -7t33 -2v-49h-553v49
q28 1 46.5 4.5t39 13t31 31t10.5 54.5zM463 868v-344h84q98 0 152.5 56t54.5 172q0 97 -60.5 149.5t-130.5 52.5q-34 0 -56 -7.5t-30.5 -22t-11 -26t-2.5 -30.5z" />
    <glyph glyph-name="s.sc" unicode="&#xf773;" horiz-adv-x="909" 
d="M793 1036v-323h-56q-34 99 -123.5 182.5t-187.5 83.5q-70 0 -113 -34t-43 -85q0 -24 6.5 -44t13.5 -34.5t29 -31.5t35.5 -26.5t51 -27t58 -26.5t73.5 -31q162 -68 230.5 -143.5t68.5 -200.5q0 -149 -99 -234.5t-295 -85.5q-72 0 -133 14.5t-96.5 29t-46.5 14.5
q-34 0 -55 -58h-50v369h50q58 -157 153.5 -234t204.5 -77q68 0 113 37.5t45 103.5q0 27 -5.5 48.5t-20 39.5t-27 30t-41.5 26.5t-46.5 22.5t-57.5 24.5t-62 25.5q-72 30 -122.5 60t-94.5 70.5t-66.5 92.5t-22.5 117q0 59 24.5 113.5t69 97.5t115 68.5t156.5 25.5
q71 0 128 -14t89.5 -28.5t44.5 -14.5q8 0 15 2t12 6.5t9 8.5t7.5 11t5 10.5t3.5 10.5l3 8h50z" />
    <glyph glyph-name="t.sc" unicode="&#xf774;" horiz-adv-x="1138" 
d="M45 1012h1028v-316h-49q-3 20 -6 34t-12 42.5t-21 49t-34 45.5t-49.5 41t-69 27t-91.5 11h-36v-794q0 -59 30.5 -79.5t104.5 -23.5v-49h-557v49q74 3 102.5 23.5t28.5 79.5v794h-37q-50 0 -91.5 -11t-69 -27t-49.5 -41t-34 -45.5t-21 -49t-12 -42.5t-6 -34h-49v316z" />
    <glyph glyph-name="u.sc" unicode="&#xf775;" horiz-adv-x="1251" 
d="M1186 1012v-49q-83 0 -108 -25.5t-25 -93.5v-447q0 -35 -2 -64t-11.5 -74.5t-26 -81.5t-49 -75.5t-77 -65.5t-114 -43.5t-155.5 -17.5q-87 0 -164 21t-139 63t-98.5 111.5t-36.5 159.5v538q0 95 -137 95v49h563v-49q-135 0 -135 -95v-540q0 -56 9 -99t32 -82t68.5 -60
t111.5 -21q63 0 113.5 19t80.5 48t50 67t27.5 72.5t7.5 67.5v491q0 38 -3 58t-16 39.5t-41.5 27t-76.5 7.5v49h352z" />
    <glyph glyph-name="v.sc" unicode="&#xf776;" horiz-adv-x="1138" 
d="M602 -25h-51l-418 916q-33 72 -100 72v49h516v-49q-64 0 -89.5 -9.5t-25.5 -38.5q0 -10 2.5 -21t5.5 -17.5t9.5 -20.5t9.5 -22l213 -486l203 502q14 35 14 59q0 54 -113 54v49h307v-49q-37 0 -66 -23t-42 -55z" />
    <glyph glyph-name="w.sc" unicode="&#xf777;" horiz-adv-x="1593" 
d="M1145 -25h-55l-275 684l-309 -684h-55l-357 920q-12 30 -33.5 49t-44.5 19v49h484v-49q-82 0 -82 -56q0 -16 6.5 -37.5t24 -68.5t28.5 -78l121 -352l182 391l-51 129q-17 43 -43.5 57.5t-67.5 14.5v49h496v-49q-94 0 -94 -50q0 -8 4.5 -25t14 -45t20 -56t26.5 -73t29 -81
l88 -248h4l137 428q21 65 21 90q0 26 -27.5 43t-70.5 17v49h274v-49q-32 0 -61.5 -26.5t-44.5 -70.5z" />
    <glyph glyph-name="x.sc" unicode="&#xf778;" horiz-adv-x="1138" 
d="M1094 0h-525v49q53 0 80 8t27 33q0 29 -33 76l-160 223l-155 -203q-41 -55 -41 -88q0 -21 28 -35t70 -14v-49h-352v49q37 -1 74.5 23t60.5 49t85 100q3 3 4.5 5t4 5t4.5 5l176 213l-327 466q-20 27 -37 37.5t-41 10.5v49h532v-49q-39 0 -68.5 -13.5t-29.5 -36.5t10.5 -43
t36.5 -57l117 -162l153 189q39 49 39 73q0 22 -29 36t-73 14v49h352v-49q-82 0 -186 -123l-211 -252l317 -469q49 -70 97 -70v-49z" />
    <glyph glyph-name="y.sc" unicode="&#xf779;" horiz-adv-x="1138" 
d="M709 457v-301q0 -63 31.5 -83.5t103.5 -23.5v-49h-561v49q73 3 104 23.5t31 83.5v237l-295 516q-32 54 -90 54v49h520v-49q-13 0 -28 -1.5t-34.5 -6t-32 -15.5t-12.5 -27q0 -12 4.5 -26.5t18.5 -41t27 -49t42 -72t52 -89.5l69 -123l84 135q21 34 47 74t40.5 62.5t28.5 46
t20 40.5t6 31q0 62 -107 62v49h312v-49q-32 0 -53.5 -13t-45.5 -49z" />
    <glyph glyph-name="z.sc" unicode="&#xf77a;" 
d="M29 33l542 901h-161q-68 0 -118.5 -18.5t-81.5 -53t-49 -73t-30 -89.5h-51l29 312h829l-559 -934h215q39 0 67.5 4.5t65 21.5t65.5 47.5t60 85.5t57 132h49l-28 -369h-901v33z" />
    <glyph glyph-name="exclamdown.sc" unicode="&#xf7a1;" horiz-adv-x="681" 
d="M514 854q0 -70 -50 -122t-122 -52t-123 51.5t-51 122.5q0 73 50.5 122.5t123.5 49.5t122.5 -50t49.5 -122zM313 520h60q17 -177 43.5 -310t47.5 -190.5t36.5 -117t15.5 -115.5q0 -97 -46.5 -150t-127.5 -53q-79 0 -125.5 53t-46.5 150q0 56 15.5 115.5t36.5 117
t47.5 190.5t43.5 310z" />
    <glyph glyph-name="dieresis.sc" unicode="&#xf7a8;" horiz-adv-x="681" 
d="M-4 1300q0 45 35 89.5t94 44.5q54 0 92.5 -40t38.5 -96q0 -55 -37.5 -93t-93.5 -38q-60 0 -94.5 43.5t-34.5 89.5zM426 1300q0 46 34 90t93 44q54 0 93.5 -40.5t39.5 -95.5q0 -54 -38 -92.5t-95 -38.5q-60 0 -93.5 43.5t-33.5 89.5z" />
    <glyph glyph-name="macron.sc" unicode="&#xf7af;" horiz-adv-x="681" 
d="M678 1372v-147h-676v147h676z" />
    <glyph glyph-name="acute.sc" unicode="&#xf7b4;" horiz-adv-x="681" 
d="M582 1329l-291 -180h-115l281 321q51 58 106 58q38 0 69.5 -20.5t31.5 -69.5q0 -27 -12 -47.5t-25.5 -31.5t-44.5 -30z" />
    <glyph glyph-name="cedilla.sc" unicode="&#xf7b8;" horiz-adv-x="681" 
d="M238 -197l88 197h86l-58 -131q33 10 64 10q83 0 133.5 -35.5t50.5 -107.5q0 -47 -22 -82.5t-52 -53.5t-71.5 -29.5t-71 -14t-59.5 -2.5q-95 0 -187 36l33 76q78 -28 121 -28q119 0 119 83q0 37 -26.5 55.5t-68.5 18.5q-25 0 -57 -8z" />
    <glyph glyph-name="questiondown.sc" unicode="&#xf7bf;" 
d="M506 526h61q4 -78 4 -90q0 -49 -16 -95.5t-38 -86.5t-44.5 -84t-38.5 -106t-16 -134q0 -32 2.5 -61.5t13.5 -69.5t29 -68.5t51.5 -48.5t79.5 -20q12 0 27.5 2.5t39 9.5t39 25.5t15.5 44.5q0 20 -12 37.5t-26 30t-26 37.5t-12 59q0 37 13.5 64.5t34 41t40 19.5t37.5 6
q72 0 107.5 -48t35.5 -110q0 -30 -8.5 -63.5t-35 -75.5t-68 -75t-116 -56t-169.5 -23q-19 0 -42.5 2t-63.5 10.5t-77 22t-77 40.5t-69.5 62t-48.5 90t-19 122q0 176 192 296q64 40 89.5 56.5t52 41t38.5 48.5q21 43 21 147zM709 854q0 -70 -51 -122t-123 -52
q-70 0 -121.5 51.5t-51.5 122.5q0 73 51 122.5t122 49.5q73 0 123.5 -50t50.5 -122z" />
    <glyph glyph-name="agrave.sc" unicode="&#xf7e0;" horiz-adv-x="1138" 
d="M631 270h-346l-29 -65q-31 -68 -31 -107q0 -49 99 -49v-49h-291v49q35 0 61 22.5t37 49.5l408 915h49l393 -884q27 -60 45.5 -80t58.5 -23v-49h-499v49q46 -3 78 8t32 31q0 52 -24 102zM602 344l-141 338l-146 -338h287zM719 1149h-115l-291 180q-41 25 -61.5 50.5
t-20.5 58.5q0 30 24.5 60t76.5 30q57 0 106 -58z" />
    <glyph glyph-name="aacute.sc" unicode="&#xf7e1;" horiz-adv-x="1138" 
d="M631 270h-346l-29 -65q-31 -68 -31 -107q0 -49 99 -49v-49h-291v49q35 0 61 22.5t37 49.5l408 915h49l393 -884q27 -60 45.5 -80t58.5 -23v-49h-499v49q46 -3 78 8t32 31q0 52 -24 102zM602 344l-141 338l-146 -338h287zM797 1329l-291 -180h-115l281 321q51 58 106 58
q38 0 69.5 -20.5t31.5 -69.5q0 -27 -12 -47.5t-25.5 -31.5t-44.5 -30z" />
    <glyph glyph-name="acircumflex.sc" unicode="&#xf7e2;" horiz-adv-x="1138" 
d="M631 270h-346l-29 -65q-31 -68 -31 -107q0 -49 99 -49v-49h-291v49q35 0 61 22.5t37 49.5l408 915h49l393 -884q27 -60 45.5 -80t58.5 -23v-49h-499v49q46 -3 78 8t32 31q0 52 -24 102zM602 344l-141 338l-146 -338h287zM784 1149l-229 201l-229 -201h-115l250 360h188
l252 -360h-117z" />
    <glyph glyph-name="atilde.sc" unicode="&#xf7e3;" horiz-adv-x="1138" 
d="M631 270h-346l-29 -65q-31 -68 -31 -107q0 -49 99 -49v-49h-291v49q35 0 61 22.5t37 49.5l408 915h49l393 -884q27 -60 45.5 -80t58.5 -23v-49h-499v49q46 -3 78 8t32 31q0 52 -24 102zM602 344l-141 338l-146 -338h287zM268 1192h-86q50 256 242 256q48 0 145 -39
l82 -37q40 -18 50.5 -21t31.5 -3q27 0 47 9.5t32.5 28.5t17.5 30.5t12 31.5h88q-6 -22 -10 -37.5t-15 -45t-23 -50.5t-32 -47t-42.5 -42t-55.5 -27t-70 -11q-55 0 -123 29l-59 26q-77 34 -93 39.5t-38 5.5q-45 0 -72 -31.5t-29 -64.5z" />
    <glyph glyph-name="adieresis.sc" unicode="&#xf7e4;" horiz-adv-x="1138" 
d="M631 270h-346l-29 -65q-31 -68 -31 -107q0 -49 99 -49v-49h-291v49q35 0 61 22.5t37 49.5l408 915h49l393 -884q27 -60 45.5 -80t58.5 -23v-49h-499v49q46 -3 78 8t32 31q0 52 -24 102zM602 344l-141 338l-146 -338h287zM211 1300q0 45 35 89.5t94 44.5q54 0 92.5 -40
t38.5 -96q0 -55 -37.5 -93t-93.5 -38q-60 0 -94.5 43.5t-34.5 89.5zM641 1300q0 46 34 90t93 44q54 0 93.5 -40.5t39.5 -95.5q0 -54 -38.5 -92.5t-94.5 -38.5q-60 0 -93.5 43.5t-33.5 89.5z" />
    <glyph glyph-name="aring.sc" unicode="&#xf7e5;" horiz-adv-x="1138" 
d="M631 270h-346l-29 -65q-31 -68 -31 -107q0 -49 99 -49v-49h-291v49q35 0 61 22.5t37 49.5l408 915h49l393 -884q27 -60 45.5 -80t58.5 -23v-49h-499v49q46 -3 78 8t32 31q0 52 -24 102zM602 344l-141 338l-146 -338h287zM338 1364q0 90 64.5 154.5t154.5 64.5
q89 0 153 -65t64 -154q0 -90 -63.5 -153.5t-153.5 -63.5t-154.5 63t-64.5 154zM676 1364q0 48 -36.5 84.5t-86.5 36.5q-53 0 -85 -40.5t-32 -80.5q0 -41 31.5 -80t85.5 -39q52 0 87.5 34.5t35.5 84.5z" />
    <glyph glyph-name="ae.sc" unicode="&#xf7e6;" horiz-adv-x="1593" 
d="M688 195v202h-317l-97 -170q-4 -7 -13.5 -24t-13.5 -24t-11 -20t-9.5 -20.5t-5 -17t-2.5 -17.5q0 -49 100 -55v-49h-290v49q31 0 54.5 15.5t51.5 66.5l395 700q27 49 27 84q0 42 -125 48v49h1010l16 -307h-49q-27 119 -97 180t-210 61q-47 0 -65.5 -1t-38.5 -5.5
t-25.5 -14.5t-5.5 -28v-336q106 -9 157 38t68 167h49v-483h-49q-15 119 -65.5 167.5t-159.5 45.5v-314q0 -33 3.5 -51t16.5 -35t42 -23.5t77 -6.5q136 0 216.5 57t156.5 209h47l-47 -332h-926v49q35 3 51.5 5.5t36.5 11t28 23.5t13.5 40.5t5.5 65.5zM688 471v467h-20
l-258 -467h278z" />
    <glyph glyph-name="ccedilla.sc" unicode="&#xf7e7;" horiz-adv-x="1138" 
d="M1028 1036v-364h-61q-30 115 -126.5 207t-213.5 92q-133 0 -200 -115t-67 -354q0 -217 75.5 -330.5t215.5 -118.5q180 -6 355 189l45 -49q-32 -37 -59.5 -63.5t-78.5 -65t-117 -61.5t-139 -26l-47 -108q33 10 64 10q83 0 133.5 -35.5t50.5 -107.5q0 -47 -22 -82.5
t-52 -53.5t-71.5 -29.5t-71 -14t-59.5 -2.5q-95 0 -187 36l33 76q78 -28 121 -28q119 0 119 83q0 37 -26.5 55.5t-68.5 18.5q-25 0 -57 -8l-22 16l77 177q-244 14 -381 145.5t-137 355.5q0 127 45 233.5t121 176t173 107.5t202 38q110 0 207 -37q15 -6 39.5 -16.5t38 -15
t24.5 -4.5q50 0 76 73h49z" />
    <glyph glyph-name="egrave.sc" unicode="&#xf7e8;" horiz-adv-x="1138" 
d="M168 133v711q0 61 -24.5 90t-104.5 29v49h928v-316h-49q-36 250 -308 250q-84 0 -119.5 -12.5t-35.5 -52.5v-328q221 -22 239 209h49v-488h-49q-5 69 -25 113t-55 65t-70.5 28t-88.5 7v-340q0 -50 32 -65.5t121 -15.5q130 0 231.5 64t153.5 194h49l-51 -324h-952v49
q21 0 33.5 0.5t33 5t32.5 12.5t21 25t9 41zM745 1149h-114l-291 180q-41 25 -61.5 50.5t-20.5 58.5q0 30 24 60t76 30q58 0 107 -58z" />
    <glyph glyph-name="eacute.sc" unicode="&#xf7e9;" horiz-adv-x="1138" 
d="M168 133v711q0 61 -24.5 90t-104.5 29v49h928v-316h-49q-36 250 -308 250q-84 0 -119.5 -12.5t-35.5 -52.5v-328q221 -22 239 209h49v-488h-49q-5 69 -25 113t-55 65t-70.5 28t-88.5 7v-340q0 -50 32 -65.5t121 -15.5q130 0 231.5 64t153.5 194h49l-51 -324h-952v49
q21 0 33.5 0.5t33 5t32.5 12.5t21 25t9 41zM823 1329l-291 -180h-114l280 321q51 58 107 58q37 0 68.5 -20.5t31.5 -69.5q0 -27 -12 -47.5t-25.5 -31.5t-44.5 -30z" />
    <glyph glyph-name="ecircumflex.sc" unicode="&#xf7ea;" horiz-adv-x="1138" 
d="M168 133v711q0 61 -24.5 90t-104.5 29v49h928v-316h-49q-36 250 -308 250q-84 0 -119.5 -12.5t-35.5 -52.5v-328q221 -22 239 209h49v-488h-49q-5 69 -25 113t-55 65t-70.5 28t-88.5 7v-340q0 -50 32 -65.5t121 -15.5q130 0 231.5 64t153.5 194h49l-51 -324h-952v49
q21 0 33.5 0.5t33 5t32.5 12.5t21 25t9 41zM811 1149l-229 201l-230 -201h-114l249 360h189l252 -360h-117z" />
    <glyph glyph-name="edieresis.sc" unicode="&#xf7eb;" horiz-adv-x="1138" 
d="M168 133v711q0 61 -24.5 90t-104.5 29v49h928v-316h-49q-36 250 -308 250q-84 0 -119.5 -12.5t-35.5 -52.5v-328q221 -22 239 209h49v-488h-49q-5 69 -25 113t-55 65t-70.5 28t-88.5 7v-340q0 -50 32 -65.5t121 -15.5q130 0 231.5 64t153.5 194h49l-51 -324h-952v49
q21 0 33.5 0.5t33 5t32.5 12.5t21 25t9 41zM238 1300q0 45 35 89.5t94 44.5q54 0 92.5 -40t38.5 -96q0 -55 -37.5 -93t-93.5 -38q-60 0 -94.5 43.5t-34.5 89.5zM668 1300q0 46 34 90t93 44q54 0 93.5 -40.5t39.5 -95.5q0 -54 -38 -92.5t-95 -38.5q-60 0 -93.5 43.5
t-33.5 89.5z" />
    <glyph glyph-name="igrave.sc" unicode="&#xf7ec;" horiz-adv-x="681" 
d="M57 963v49h559v-49q-133 0 -133 -107v-684q0 -71 31 -97t102 -26v-49h-559v49q67 0 101.5 27t34.5 96v684q0 62 -31.5 84.5t-104.5 22.5zM489 1149h-114l-291 180q-41 25 -61.5 50.5t-20.5 58.5q0 30 24 60t76 30q58 0 107 -58z" />
    <glyph glyph-name="iacute.sc" unicode="&#xf7ed;" horiz-adv-x="681" 
d="M57 963v49h559v-49q-133 0 -133 -107v-684q0 -71 31 -97t102 -26v-49h-559v49q67 0 101.5 27t34.5 96v684q0 62 -31.5 84.5t-104.5 22.5zM567 1329l-291 -180h-114l280 321q51 58 107 58q37 0 68.5 -20.5t31.5 -69.5q0 -27 -12 -47.5t-25.5 -31.5t-44.5 -30z" />
    <glyph glyph-name="icircumflex.sc" unicode="&#xf7ee;" horiz-adv-x="681" 
d="M57 963v49h559v-49q-133 0 -133 -107v-684q0 -71 31 -97t102 -26v-49h-559v49q67 0 101.5 27t34.5 96v684q0 62 -31.5 84.5t-104.5 22.5zM555 1149l-229 201l-230 -201h-114l249 360h189l252 -360h-117z" />
    <glyph glyph-name="idieresis.sc" unicode="&#xf7ef;" horiz-adv-x="681" 
d="M57 963v49h559v-49q-133 0 -133 -107v-684q0 -71 31 -97t102 -26v-49h-559v49q67 0 101.5 27t34.5 96v684q0 62 -31.5 84.5t-104.5 22.5zM-18 1300q0 45 35 89.5t94 44.5q54 0 92.5 -40t38.5 -96q0 -55 -37.5 -93t-93.5 -38q-60 0 -94.5 43.5t-34.5 89.5zM412 1300
q0 46 34 90t93 44q54 0 93.5 -40.5t39.5 -95.5q0 -54 -38 -92.5t-95 -38.5q-60 0 -93.5 43.5t-33.5 89.5z" />
    <glyph glyph-name="eth.sc" unicode="&#xf7f0;" horiz-adv-x="1251" 
d="M172 188v291h-143v94h143v258q0 39 -3 59t-15.5 39t-39.5 26.5t-73 7.5v49h516q102 0 189.5 -16.5t165.5 -54.5t132.5 -96t86.5 -146t32 -199q0 -108 -37 -196t-94.5 -143t-131 -93t-142 -53t-131.5 -15h-586v49q33 0 52.5 3.5t40 16.5t29.5 42.5t9 76.5zM463 877v-304
h237v-94h-237v-327q0 -54 19 -70t79 -16q295 0 295 442q0 196 -77.5 317t-200.5 121q-61 0 -88 -15t-27 -54z" />
    <glyph glyph-name="ntilde.sc" unicode="&#xf7f1;" horiz-adv-x="1138" 
d="M971 -25h-56l-673 818h-4v-615q0 -71 28.5 -98.5t104.5 -30.5v-49h-342v49q75 6 99 33t24 98v713q-19 37 -47 53.5t-72 16.5v49h379l469 -576h4v379q0 145 -131 148v49h331v-49q-28 -4 -45 -8.5t-35 -16.5t-26 -35.5t-8 -58.5v-869zM283 1192h-86q50 256 241 256
q49 0 146 -39l82 -37q40 -18 50.5 -21t31.5 -3q27 0 46.5 9.5t32 29t17.5 30t12 31.5h88q-6 -22 -10 -37.5t-15 -45t-23 -50.5t-32 -47t-42.5 -42t-55.5 -27t-70 -11q-55 0 -123 29l-59 26q-77 34 -93 39.5t-38 5.5q-45 0 -71.5 -31.5t-28.5 -64.5z" />
    <glyph glyph-name="ograve.sc" unicode="&#xf7f2;" horiz-adv-x="1251" 
d="M614 971q-122 0 -183.5 -111.5t-61.5 -347.5q0 -471 245 -471q87 0 140.5 43t81.5 147.5t28 280.5q0 239 -60.5 349t-189.5 110zM614 1036q237 0 397 -149t160 -375q0 -151 -73 -274.5t-201 -193t-283 -69.5q-236 0 -394.5 153.5t-158.5 383.5q0 226 158 375t395 149z
M788 1149h-114l-291 180q-41 25 -61.5 50.5t-20.5 58.5q0 30 24 60t76 30q58 0 107 -58z" />
    <glyph glyph-name="oacute.sc" unicode="&#xf7f3;" horiz-adv-x="1251" 
d="M614 971q-122 0 -183.5 -111.5t-61.5 -347.5q0 -471 245 -471q87 0 140.5 43t81.5 147.5t28 280.5q0 239 -60.5 349t-189.5 110zM614 1036q237 0 397 -149t160 -375q0 -151 -73 -274.5t-201 -193t-283 -69.5q-236 0 -394.5 153.5t-158.5 383.5q0 226 158 375t395 149z
M866 1329l-291 -180h-114l280 321q51 58 107 58q37 0 68.5 -20.5t31.5 -69.5q0 -27 -12 -47.5t-25.5 -31.5t-44.5 -30z" />
    <glyph glyph-name="ocircumflex.sc" unicode="&#xf7f4;" horiz-adv-x="1251" 
d="M614 971q-122 0 -183.5 -111.5t-61.5 -347.5q0 -471 245 -471q87 0 140.5 43t81.5 147.5t28 280.5q0 239 -60.5 349t-189.5 110zM614 1036q237 0 397 -149t160 -375q0 -151 -73 -274.5t-201 -193t-283 -69.5q-236 0 -394.5 153.5t-158.5 383.5q0 226 158 375t395 149z
M854 1149l-229 201l-230 -201h-114l249 360h189l252 -360h-117z" />
    <glyph glyph-name="otilde.sc" unicode="&#xf7f5;" horiz-adv-x="1251" 
d="M614 971q-122 0 -183.5 -111.5t-61.5 -347.5q0 -471 245 -471q87 0 140.5 43t81.5 147.5t28 280.5q0 239 -60.5 349t-189.5 110zM614 1036q237 0 397 -149t160 -375q0 -151 -73 -274.5t-201 -193t-283 -69.5q-236 0 -394.5 153.5t-158.5 383.5q0 226 158 375t395 149z
M338 1192h-86q50 256 242 256q48 0 145 -39l82 -37q40 -18 50.5 -21t31.5 -3q27 0 46.5 9.5t32 29t17.5 30t12 31.5h88q-7 -27 -12.5 -45t-18.5 -53.5t-31 -59.5t-43.5 -49.5t-62 -39t-79.5 -13.5q-55 0 -123 29l-60 26q-77 34 -93 39.5t-38 5.5q-45 0 -71.5 -31.5
t-28.5 -64.5z" />
    <glyph glyph-name="odieresis.sc" unicode="&#xf7f6;" horiz-adv-x="1251" 
d="M614 971q-122 0 -183.5 -111.5t-61.5 -347.5q0 -471 245 -471q87 0 140.5 43t81.5 147.5t28 280.5q0 239 -60.5 349t-189.5 110zM614 1036q237 0 397 -149t160 -375q0 -151 -73 -274.5t-201 -193t-283 -69.5q-236 0 -394.5 153.5t-158.5 383.5q0 226 158 375t395 149z
M281 1300q0 45 35 89.5t94 44.5q54 0 92.5 -40t38.5 -96q0 -55 -37.5 -93t-93.5 -38q-60 0 -94.5 43.5t-34.5 89.5zM711 1300q0 46 34 90t93 44q54 0 93.5 -40.5t39.5 -95.5q0 -54 -38.5 -92.5t-94.5 -38.5q-60 0 -93.5 43.5t-33.5 89.5z" />
    <glyph glyph-name="oslash.sc" unicode="&#xf7f8;" horiz-adv-x="1251" 
d="M401 236l406 616q-57 119 -193 119q-122 0 -183.5 -111.5t-61.5 -347.5q0 -179 32 -276zM362 31l-145 -219h-94l170 258q-108 74 -170 189t-62 253q0 226 158 375t395 149q150 0 273 -63l127 192h96l-154 -233q100 -70 157.5 -179.5t57.5 -240.5q0 -151 -73 -274.5
t-201 -193t-283 -69.5q-134 0 -252 56zM840 756l-402 -611q60 -104 176 -104q87 0 140.5 43t81.5 147.5t28 280.5q0 152 -24 244z" />
    <glyph glyph-name="ugrave.sc" unicode="&#xf7f9;" horiz-adv-x="1251" 
d="M1186 1012v-49q-83 0 -108 -25.5t-25 -93.5v-447q0 -35 -2 -64t-11.5 -74.5t-26 -81.5t-49 -75.5t-77 -65.5t-114 -43.5t-155.5 -17.5q-87 0 -164 21t-139 63t-98.5 111.5t-36.5 159.5v538q0 95 -137 95v49h563v-49q-135 0 -135 -95v-540q0 -56 9 -99t32 -82t68.5 -60
t111.5 -21q63 0 113.5 19t80.5 48t50 67t27.5 72.5t7.5 67.5v491q0 38 -3 58t-16 39.5t-41.5 27t-76.5 7.5v49h352zM774 1149h-115l-290 180q-41 25 -61.5 50.5t-20.5 58.5q0 30 24 60t76 30q58 0 107 -58z" />
    <glyph glyph-name="uacute.sc" unicode="&#xf7fa;" horiz-adv-x="1251" 
d="M1186 1012v-49q-83 0 -108 -25.5t-25 -93.5v-447q0 -35 -2 -64t-11.5 -74.5t-26 -81.5t-49 -75.5t-77 -65.5t-114 -43.5t-155.5 -17.5q-87 0 -164 21t-139 63t-98.5 111.5t-36.5 159.5v538q0 95 -137 95v49h563v-49q-135 0 -135 -95v-540q0 -56 9 -99t32 -82t68.5 -60
t111.5 -21q63 0 113.5 19t80.5 48t50 67t27.5 72.5t7.5 67.5v491q0 38 -3 58t-16 39.5t-41.5 27t-76.5 7.5v49h352zM852 1329l-291 -180h-115l281 321q51 58 107 58q37 0 68.5 -20.5t31.5 -69.5q0 -27 -12 -47.5t-25.5 -31.5t-44.5 -30z" />
    <glyph glyph-name="ucircumflex.sc" unicode="&#xf7fb;" horiz-adv-x="1251" 
d="M1186 1012v-49q-83 0 -108 -25.5t-25 -93.5v-447q0 -35 -2 -64t-11.5 -74.5t-26 -81.5t-49 -75.5t-77 -65.5t-114 -43.5t-155.5 -17.5q-87 0 -164 21t-139 63t-98.5 111.5t-36.5 159.5v538q0 95 -137 95v49h563v-49q-135 0 -135 -95v-540q0 -56 9 -99t32 -82t68.5 -60
t111.5 -21q63 0 113.5 19t80.5 48t50 67t27.5 72.5t7.5 67.5v491q0 38 -3 58t-16 39.5t-41.5 27t-76.5 7.5v49h352zM840 1149l-230 201l-229 -201h-115l250 360h189l251 -360h-116z" />
    <glyph glyph-name="udieresis.sc" unicode="&#xf7fc;" horiz-adv-x="1251" 
d="M1186 1012v-49q-83 0 -108 -25.5t-25 -93.5v-447q0 -35 -2 -64t-11.5 -74.5t-26 -81.5t-49 -75.5t-77 -65.5t-114 -43.5t-155.5 -17.5q-87 0 -164 21t-139 63t-98.5 111.5t-36.5 159.5v538q0 95 -137 95v49h563v-49q-135 0 -135 -95v-540q0 -56 9 -99t32 -82t68.5 -60
t111.5 -21q63 0 113.5 19t80.5 48t50 67t27.5 72.5t7.5 67.5v491q0 38 -3 58t-16 39.5t-41.5 27t-76.5 7.5v49h352zM266 1300q0 45 35 89.5t94 44.5q54 0 92.5 -40t38.5 -96q0 -55 -37.5 -93t-93.5 -38q-60 0 -94.5 43.5t-34.5 89.5zM696 1300q0 46 34 90t93 44
q54 0 93.5 -40.5t39.5 -95.5q0 -54 -38 -92.5t-95 -38.5q-60 0 -93.5 43.5t-33.5 89.5z" />
    <glyph glyph-name="yacute.sc" unicode="&#xf7fd;" horiz-adv-x="1138" 
d="M709 457v-301q0 -63 31.5 -83.5t103.5 -23.5v-49h-561v49q73 3 104 23.5t31 83.5v237l-295 516q-32 54 -90 54v49h520v-49q-13 0 -28 -1.5t-34.5 -6t-32 -15.5t-12.5 -27q0 -12 4.5 -26.5t18.5 -41t27 -49t42 -72t52 -89.5l69 -123l84 135q21 34 47 74t40.5 62.5t28.5 46
t20 40.5t6 31q0 62 -107 62v49h312v-49q-32 0 -53.5 -13t-45.5 -49zM811 1329l-291 -180h-114l280 321q51 58 107 58q37 0 68.5 -20.5t31.5 -69.5q0 -27 -12 -47.5t-25.5 -31.5t-44.5 -30z" />
    <glyph glyph-name="thorn.sc" unicode="&#xf7fe;" 
d="M193 172v684q0 62 -31.5 84.5t-104.5 22.5v49h559v-49q-133 0 -133 -107v-8h133q29 0 51.5 -0.5t71 -6.5t85.5 -16.5t82.5 -33t75.5 -53t50.5 -80t20.5 -111.5q0 -108 -92.5 -186t-241.5 -78h-223h-13v-111q0 -71 31 -97t102 -26v-49h-559v49q50 -2 93 27.5t43 95.5z
M483 741v-393q140 1 209.5 55.5t69.5 153.5q0 38 -11.5 76t-34 72t-63 55.5t-92.5 21.5q-65 0 -78 -41z" />
    <glyph glyph-name="ydieresis.sc" unicode="&#xf7ff;" horiz-adv-x="1138" 
d="M709 457v-301q0 -63 31.5 -83.5t103.5 -23.5v-49h-561v49q73 3 104 23.5t31 83.5v237l-295 516q-32 54 -90 54v49h520v-49q-13 0 -28 -1.5t-34.5 -6t-32 -15.5t-12.5 -27q0 -12 4.5 -26.5t18.5 -41t27 -49t42 -72t52 -89.5l69 -123l84 135q21 34 47 74t40.5 62.5t28.5 46
t20 40.5t6 31q0 62 -107 62v49h312v-49q-32 0 -53.5 -13t-45.5 -49zM225 1300q0 45 35 89.5t94 44.5q54 0 92.5 -40t38.5 -96q0 -55 -37.5 -93t-93.5 -38q-60 0 -94.5 43.5t-34.5 89.5zM655 1300q0 46 34 90t93 44q54 0 93.5 -40.5t39.5 -95.5q0 -54 -38.5 -92.5
t-94.5 -38.5q-60 0 -93.5 43.5t-33.5 89.5z" />
    <glyph glyph-name="fi" unicode="&#xfb01;" horiz-adv-x="1138" 
d="M1098 49v-49h-482v49q33 3 54.5 14t30 30t10.5 34t2 39v618q0 36 -13.5 53t-56.5 17h-213v-688q0 -23 2 -37.5t10.5 -34t29.5 -30.5t54 -15v-49h-497v49q28 4 41.5 6.5t31 10.5t25 20t13 33.5t5.5 52.5v682h-116v90h116q1 41 2.5 69.5t11 82t26 91.5t50.5 84t80 75
t119 49t164 20q15 0 30.5 -0.5t55 -4t72.5 -10t74 -20.5t69.5 -33t48 -49.5t19.5 -68.5q0 -35 -13.5 -60t-31 -37t-40 -19t-33 -8t-18.5 -1q-15 0 -33 4t-41.5 14.5t-39 34.5t-15.5 57q0 22 5 40.5t9.5 29t4.5 12.5q0 11 -8.5 23t-36 23.5t-68.5 11.5q-29 0 -52 -6
t-40.5 -15t-31 -27.5t-22.5 -35t-15 -47.5t-9.5 -55t-5 -66.5t-2 -73.5t-0.5 -84h217q77 0 350 25v-803q0 -58 22.5 -87t78.5 -30z" />
    <glyph glyph-name="fl" unicode="&#xfb02;" horiz-adv-x="1138" 
d="M1098 49v-49h-482v49l17 2q27 4 45 16t24.5 31.5t8.5 33.5t2 34v688h-283v-688q0 -23 2 -37.5t10.5 -34t29.5 -30.5t54 -15v-49h-497v49q28 4 41.5 6.5t31 10.5t25 20t13 33.5t5.5 52.5v682h-116v90h116q1 50 4 88.5t14 90t28 90t49 78.5t75.5 65.5t108 42t145.5 16.5
q21 0 50.5 -2t105 -17.5t137.5 -43.5l96 61h39v-1251q0 -105 76 -111zM713 944v201q-15 3 -29 25t-14 49q0 16 13 45.5t13 35.5q0 25 -21.5 36.5t-74.5 11.5q-35 0 -62.5 -9.5t-45 -23.5t-30 -38.5t-18.5 -45t-9.5 -53.5t-4 -53t-0.5 -54v-127h283z" />
    <glyph glyph-name="one.superior" horiz-adv-x="614" 
d="M559 604v-41h-498v41h11q52 0 83 7.5t44.5 26.5t16.5 36.5t3 52.5v453q0 17 -1 27t-5 25.5t-15.5 23.5t-29.5 8q-24 0 -111 -31v43l336 133h23v-690q0 -34 4 -53t18.5 -34.5t43 -21.5t77.5 -6z" />
    <glyph glyph-name="two.superior" horiz-adv-x="614" 
d="M614 823l-61 -260h-553v29q82 81 124 124t99.5 107.5t85 106.5t48 91t20.5 91q0 17 -6.5 40t-21.5 51.5t-49 47.5t-81 19q-98 0 -151 -111h-50q96 250 293 250q28 0 57.5 -5.5t64 -21.5t61.5 -40.5t45 -66.5t18 -95q0 -22 -3 -40t-15 -54t-46 -80t-87 -91l-203 -188h188
q103 0 133 15.5t58 80.5h32z" />
    <glyph glyph-name="three.superior" horiz-adv-x="614" 
d="M74 1208l-41 15q36 72 114 129t185 57q101 0 162 -41t61 -123q0 -34 -8.5 -59.5t-26.5 -44t-33.5 -29t-42.5 -25.5q79 -27 121.5 -86t42.5 -131q0 -133 -112.5 -227t-288.5 -94q-13 0 -28.5 1t-49 7t-58.5 17t-45 34t-20 54q0 29 23.5 50t58.5 31q31 0 59 -12.5t49 -30
t40.5 -35t41.5 -30t44 -12.5q56 0 94.5 32.5t38.5 100.5q0 34 -10.5 64t-24 51t-40.5 41.5t-44 31.5t-52 25.5t-48.5 19t-47.5 15.5v20q27 8 43 13t44 19t43.5 29.5t28.5 42t13 58.5q0 57 -35 91t-106 34q-79 0 -145 -103z" />
    <glyph glyph-name="dotlessi.sc" horiz-adv-x="681" 
d="M57 963v49h559v-49q-133 0 -133 -107v-684q0 -71 31 -97t102 -26v-49h-559v49q67 0 101.5 27t34.5 96v684q0 62 -31.5 84.5t-104.5 22.5z" />
    <glyph glyph-name="a.superior" horiz-adv-x="614" 
d="M596 907l20 -24q-63 -70 -145 -70q-33 0 -55.5 7.5t-34 23t-15.5 25.5t-8 28q-90 -84 -211 -84q-58 0 -103.5 34t-45.5 103q0 31 12.5 57t39.5 47t56 37.5t75 32t82 26t91 24.5v81q0 53 -21.5 80t-84.5 27q-34 0 -57 -14t-23 -29q0 -12 20.5 -33.5t20.5 -42.5
q0 -24 -23 -46.5t-73 -22.5q-88 0 -88 83q0 63 67 107.5t191 44.5q118 0 192 -42t74 -126v-319q0 -31 20 -31q11 0 15 4zM352 952v178q-17 -4 -35 -11.5t-48.5 -24.5t-50 -46.5t-19.5 -66.5q0 -31 16.5 -56.5t46.5 -25.5q53 0 90 53z" />
    <glyph glyph-name="o.superior" horiz-adv-x="675" 
d="M338 854q62 0 81 60.5t19 195.5q0 143 -21 199.5t-79 56.5t-80 -56.5t-22 -199.5q0 -52 2 -88t8 -70t17 -54t30 -32t45 -12zM338 813q-134 0 -217.5 85.5t-83.5 211.5q0 128 85 213.5t216 85.5t216 -85.5t85 -213.5q0 -126 -83.5 -211.5t-217.5 -85.5z" />
    <glyph glyph-name="fi.sc" horiz-adv-x="1705" 
d="M168 152v704q0 62 -31.5 84.5t-103.5 22.5l6 49h907v-307h-49q-10 62 -33.5 107t-54.5 71t-73 41t-81 19t-86 3q-61 -2 -85.5 -12.5t-24.5 -40.5v-336q59 0 100 16.5t64 49.5t33.5 62.5t19.5 76.5h49v-488h-49q-9 52 -20 86t-34 67t-63.5 49t-99.5 16v-340q0 -24 8 -42.5
t23.5 -29.5t31 -17.5t38.5 -9.5t36.5 -3.5t34.5 -0.5v-49h-592v49q24 0 41.5 2.5t40 11.5t35 31.5t12.5 57.5zM1081 963v49h559v-49q-133 0 -133 -107v-684q0 -71 31 -97t102 -26v-49h-559v49q67 0 101.5 27t34.5 96v684q0 62 -31.5 84.5t-104.5 22.5z" />
    <glyph glyph-name="fl.sc" horiz-adv-x="2162" 
d="M168 152v704q0 62 -31.5 84.5t-103.5 22.5l6 49h907v-307h-49q-10 62 -33.5 107t-54.5 71t-73 41t-81 19t-86 3q-61 -2 -85.5 -12.5t-24.5 -40.5v-336q59 0 100 16.5t64 49.5t33.5 62.5t19.5 76.5h49v-488h-49q-9 52 -20 86t-34 67t-63.5 49t-99.5 16v-340q0 -24 8 -42.5
t23.5 -29.5t31 -17.5t38.5 -9.5t36.5 -3.5t34.5 -0.5v-49h-592v49q24 0 41.5 2.5t40 11.5t35 31.5t12.5 57.5zM2019 346h54l-54 -346h-952v49q76 -3 102.5 28.5t26.5 94.5v684q0 62 -31.5 84.5t-103.5 22.5v49h559v-49q-133 0 -133 -107v-684q0 -71 25.5 -88.5t125.5 -17.5
q76 0 139 22.5t100.5 51t70 73t45 71t26.5 62.5z" />
    </font>
</defs>
</svg>
