<?xml version="1.0" standalone="no"?>
<!DOCTYPE svg PUBLIC "-//W3C//DTD SVG 1.1//EN" "http://www.w3.org/Graphics/SVG/1.1/DTD/svg11.dtd" >
<svg xmlns="http://www.w3.org/2000/svg" xmlns:xlink="http://www.w3.org/1999/xlink" version="1.1">
<metadata>
Created by FontForge 20170731 at Fri May 21 18:30:07 2021
 By Aleksey,,,
(c) 1985, 1987, 1989, 1990, 1993, 1997, 1998, 1999, 2002 Adobe Systems Incorporated. All rights reserved.
</metadata>
<defs>
<font id="TimesLTStd-BoldItalic" horiz-adv-x="1024" >
  <font-face 
    font-family="Times LT Std"
    font-weight="700"
    font-style="italic"
    font-stretch="normal"
    units-per-em="2048"
    panose-1="2 2 8 3 6 5 5 9 3 4"
    ascent="1399"
    descent="-649"
    x-height="920"
    cap-height="1370"
    bbox="-410 -446 2040 1886"
    underline-thickness="102"
    underline-position="-307"
    slope="-15"
    unicode-range="U+0020-FB02"
  />
<missing-glyph horiz-adv-x="1212" 
d="M188 0v1434h1024v-1434h-1024zM700 809l349 522h-697zM762 717l348 -522v1044zM352 102h697l-349 523zM291 1239v-1044l348 522z" />
    <glyph glyph-name="f_i" unicode="fi" horiz-adv-x="1138" 
d="M35 834l20 86h156q24 69 37.5 105.5t42 101t54.5 100.5t69 82.5t90.5 71t113.5 42t144 17.5q111 0 193.5 -53t82.5 -142q0 -54 -34.5 -85.5t-81.5 -31.5q-54 0 -86.5 34t-32.5 77q0 36 22.5 66t22.5 38q0 6 -1 10t-5 11t-15.5 10.5t-29.5 3.5q-43 0 -79 -10.5t-64 -28.5
t-53 -49.5t-43.5 -65.5t-37.5 -85.5t-33.5 -100t-33.5 -118.5h241q30 0 170 10t148 10l-150 -580q-45 -186 -45 -198q0 -20 11.5 -28.5t21.5 -8.5q30 0 80 59t78 103l45 -27q-97 -153 -172 -215.5t-172 -62.5q-43 0 -73 13.5t-44.5 36t-20.5 44t-6 43.5q0 35 33 164l141 551
h-307l-192 -789q-6 -23 -20.5 -66t-50.5 -119t-77 -130q-66 -87 -141 -118.5t-135 -31.5q-85 0 -143 44t-58 110q0 36 11.5 61t28.5 36t30.5 15t25.5 4q46 0 77.5 -27.5t31.5 -72.5q0 -30 -19.5 -50t-19.5 -32q0 -18 37 -18q68 0 101.5 65t80.5 277l188 842h-153z" />
    <glyph glyph-name="f_l" unicode="fl" horiz-adv-x="1138" 
d="M41 834l20 86h152q59 188 103 271q104 193 291 237q60 14 130 14q28 0 74 -8t81.5 -15.5t37.5 -7.5l203 25l-310 -1233q-8 -28 -8 -43q0 -11 10 -22t27 -11q53 0 154 154l41 -23q-26 -40 -40 -61t-39 -55.5t-42.5 -53t-44 -42t-50.5 -35.5t-54.5 -20.5t-63.5 -8.5
q-70 0 -109 35t-39 85q0 31 10 74l162 658h-301l-162 -668q-32 -131 -71.5 -232t-94.5 -183.5t-129.5 -126.5t-166.5 -44q-15 0 -34.5 2.5t-49 13t-52.5 27.5t-40 49.5t-17 75.5q0 37 14.5 61t37 32.5t34.5 11t23 2.5q42 0 68 -27t26 -68q0 -26 -16.5 -51t-16.5 -33
q0 -24 47 -24q21 0 38.5 9.5t32.5 34.5t26 49t24.5 73t22 85.5t24.5 106.5l189 824h-152zM762 920l61 243q-43 32 -43 84q0 28 21.5 60.5t21.5 35.5q0 12 -19 25.5t-50 13.5t-59.5 -11t-51 -26t-44 -44t-36 -52t-31 -63.5t-25 -65t-21.5 -70.5t-17.5 -66t-15.5 -64h309z" />
    <glyph glyph-name=".notdef" horiz-adv-x="1212" 
d="M188 0v1434h1024v-1434h-1024zM700 809l349 522h-697zM762 717l348 -522v1044zM352 102h697l-349 523zM291 1239v-1044l348 522z" />
    <glyph glyph-name=".null" horiz-adv-x="0" 
 />
    <glyph glyph-name="nonmarkingreturn" horiz-adv-x="682" 
 />
    <glyph glyph-name="space" unicode=" " horiz-adv-x="512" 
 />
    <glyph glyph-name="exclam" unicode="!" horiz-adv-x="796" 
d="M401 418l-59 16q100 516 111 770q4 78 43.5 137.5t121.5 59.5q17 0 37 -5.5t45 -20t41.5 -47.5t16.5 -79q0 -60 -29 -114q-29 -53 -72 -138t-120.5 -256t-135.5 -323zM285 268q65 0 110 -45.5t45 -105.5q0 -58 -43 -101t-110 -43q-66 0 -108 41.5t-42 102.5
q0 68 46 109.5t102 41.5z" />
    <glyph glyph-name="quotedbl" unicode="&#x22;" horiz-adv-x="1136" 
d="M362 815h-83l32 438q5 59 53.5 104.5t106.5 45.5q43 0 68.5 -31t25.5 -67q0 -10 -1.5 -20t-6.5 -24t-7 -19.5t-10.5 -24.5t-9.5 -21zM895 815h-84l33 438q5 59 53.5 104.5t106.5 45.5q43 0 68.5 -31t25.5 -67q0 -10 -1.5 -20t-6.5 -24t-7 -19.5t-10.5 -24.5t-9.5 -21z
" />
    <glyph glyph-name="numbersign" unicode="#" 
d="M920 580l-41 -150h-199l-174 -430h-160l174 430h-231l-174 -430h-160l174 430h-197l41 150h217l111 274h-197l41 150h215l179 430h157l-176 -430h232l178 430h157l-176 -430h181l-41 -150h-199l-111 -274h179zM692 854h-231l-111 -274h232z" />
    <glyph glyph-name="dollar" unicode="$" 
d="M1018 1225l-86 -273l-43 11q0 7 1 25t1 28q0 42 -6 77t-22.5 74t-53 68.5t-90.5 44.5l-121 -440q45 -39 68.5 -59.5t59.5 -55t54.5 -57.5t42 -56t35 -62t19.5 -65.5t8 -74.5q0 -165 -134 -287.5t-319 -122.5h-20l-47 2l-58 -207h-106l59 219q-42 10 -65.5 17.5t-64.5 25
t-82.5 47t-88.5 72.5l86 291l45 -12q2 -78 10 -128.5t27.5 -98.5t57 -81.5t96.5 -60.5l151 535q-158 116 -214 197.5t-56 178.5q0 72 27 138.5t77 119.5t129.5 85t177.5 32q14 0 68 -4l37 133h102l-41 -147q56 -8 134.5 -44t107.5 -57zM508 893l113 407q-15 5 -41 5
q-101 0 -158 -58t-57 -137q0 -57 32 -108.5t111 -108.5zM518 561l-137 -495q5 0 15 -1.5t14 -1.5q117 0 184.5 73t67.5 190q0 43 -11 77.5t-35.5 64.5t-43.5 47.5t-54 45.5z" />
    <glyph glyph-name="percent" unicode="%" horiz-adv-x="1705" 
d="M1161 195q0 -121 113 -121q63 0 129.5 74t108.5 179t42 193q0 57 -27 101.5t-79 44.5q-48 0 -95 -43.5t-80.5 -106t-59.5 -131t-39 -120t-13 -70.5zM922 252q0 126 66 247t171.5 196t214.5 75q127 0 188.5 -69t61.5 -181q0 -55 -16 -123.5t-51 -142.5t-84 -134.5
t-122.5 -100t-158.5 -39.5q-124 0 -197 80t-73 192zM80 879q0 89 30.5 172t79 143t107.5 105.5t118 68.5t109 23q46 0 81.5 -10.5t47 -18t43.5 -29.5q37 -27 82 -42t131 -15q57 0 112.5 15.5t99 41t70 45t48.5 39.5h80l-807 -1433h-115l711 1261l-4 4q-50 -23 -116.5 -37
t-117.5 -14q-25 0 -90 10q0 -5 1 -15t1 -15q0 -65 -15.5 -139t-50.5 -152.5t-85 -141t-126.5 -103t-166.5 -40.5q-105 0 -181.5 76.5t-76.5 200.5zM315 797q0 -53 33 -77t70 -24q73 0 143 80.5t110 187.5t40 195q0 54 -8.5 66t-51.5 28q-15 6 -32 22.5t-31 16.5
q-59 0 -125.5 -98t-107 -214.5t-40.5 -182.5z" />
    <glyph glyph-name="ampersand" unicode="&#x26;" horiz-adv-x="1593" 
d="M10 319q0 63 32.5 129.5t68.5 106.5q23 25 46 46.5t58.5 43.5t55.5 34.5t72.5 36.5t71 32t87.5 38q-23 126 -23 189q0 115 42.5 209.5t129.5 153.5t205 59q136 0 210.5 -69.5t74.5 -162.5q0 -207 -373 -354q17 -117 71.5 -252.5t104.5 -212.5q35 44 53.5 67.5t46 63.5
t40 71.5t12.5 57.5q0 19 -7.5 33t-16.5 22t-28.5 14t-29.5 8t-33 5v51h434v-51q-62 -12 -98.5 -32.5t-93.5 -86.5q-55 -64 -228 -297q16 -21 25.5 -33t34.5 -36.5t47 -39t54 -26.5t65 -12q35 0 69.5 16.5t49.5 29.5t38 36l54 -43q-29 -34 -47 -54t-53.5 -52t-68 -49.5
t-80 -31.5t-98.5 -14q-159 0 -286 127q-173 -129 -406 -129q-35 0 -75 6t-97.5 28.5t-102 59t-76.5 105.5t-32 159zM283 383q0 -43 15.5 -89.5t45 -89.5t82 -70.5t117.5 -27.5q85 0 198 58q-33 52 -55.5 90t-55.5 106t-61.5 154t-50.5 188q-53 -25 -89 -48.5t-72.5 -60.5
t-55 -90t-18.5 -120zM750 889q68 36 115 77t70 81.5t32.5 74t9.5 66.5q0 60 -24.5 100.5t-82.5 40.5q-143 0 -143 -250q0 -49 23 -190z" />
    <glyph glyph-name="quotesingle" unicode="'" horiz-adv-x="569" 
d="M346 815h-84l33 438q5 59 53.5 104.5t106.5 45.5q43 0 68.5 -31t25.5 -67q0 -10 -1.5 -20t-6.5 -24t-7 -19.5t-10.5 -24.5t-9.5 -21z" />
    <glyph glyph-name="parenleft" unicode="(" horiz-adv-x="681" 
d="M668 1403l37 -41q-36 -32 -57 -52t-62.5 -63.5t-68.5 -80.5t-65.5 -98.5t-64 -122t-54 -145.5t-45 -175t-27.5 -205.5t-11 -241.5q0 -93 13.5 -174.5t40 -149.5t43.5 -102.5t48 -87.5l-47 -31q-38 51 -64 89t-73.5 122t-77 161.5t-53 187.5t-23.5 219q0 74 7.5 139
t28.5 149.5t64 166t108 170.5t167.5 182.5t235.5 183.5z" />
    <glyph glyph-name="parenright" unicode=")" horiz-adv-x="681" 
d="M-55 -367l-35 41q54 50 80 75t72.5 78.5t76 100.5t64.5 119.5t63 157.5q96 318 96 598q0 161 -29 297.5t-118 271.5l47 31q135 -171 214 -374t79 -423q0 -569 -610 -973z" />
    <glyph glyph-name="asterisk" unicode="*" 
d="M535 1403q43 0 70.5 -31t27.5 -78q0 -38 -20 -74.5t-40 -84t-20 -111.5v-16l18 -11q52 35 90.5 81t56 77.5t46 54.5t67.5 23q47 0 75 -34t28 -64q0 -36 -26.5 -66t-55.5 -41q-27 -10 -74 -10h-18q-29 0 -48.5 -2t-53.5 -14t-70 -35v-21q26 -15 42 -22.5t47.5 -15.5
t76.5 -13h49q131 0 131 -111q0 -32 -13.5 -54t-34 -31t-33.5 -12t-22 -3q-62 0 -112 76l-27 43q-28 45 -50.5 66.5t-72.5 48.5l-18 -13q2 -57 16 -105t29.5 -73t28 -54.5t12.5 -56.5q0 -44 -30.5 -75t-76.5 -31q-39 0 -67.5 31.5t-28.5 81.5q0 36 20 73t40.5 83t21.5 102v28
l-18 9q-46 -30 -80.5 -66t-53 -64.5t-35.5 -53.5t-38.5 -38.5t-52.5 -13.5q-39 0 -71 27t-32 71q0 55 51 92q20 14 54 19.5t76 7.5t57 4q18 3 34 7.5t26 8.5t19.5 9.5t14 9t9 7.5t5.5 5v19q-48 24 -105 36t-97 15.5t-75 11t-53 29.5t-18 65q0 44 26.5 72.5t69.5 28.5
q70 0 117 -68q64 -92 85.5 -114.5t70.5 -45.5l14 11v6q0 54 -14 98t-30 67.5t-30 55t-14 63.5q0 41 27 72t80 31z" />
    <glyph glyph-name="plus" unicode="+" horiz-adv-x="1167" 
d="M494 608v428h180v-428h426v-180h-426v-428h-180v428h-426v180h426z" />
    <glyph glyph-name="comma" unicode="," horiz-adv-x="512" 
d="M-96 -373l-27 49q21 11 41 22t60 38t68 52t50.5 60.5t22.5 67.5q0 23 -15 41t-36 31.5t-42 29t-36 42.5t-15 63q0 65 40.5 108t103.5 43q19 0 39.5 -4.5t46 -17.5t45 -34t32.5 -57t13 -83q0 -76 -38 -150t-90.5 -124.5t-111.5 -92t-98 -61t-53 -23.5z" />
    <glyph glyph-name="hyphen" unicode="-" horiz-adv-x="681" 
d="M555 578l-47 -238h-504l49 238h502z" />
    <glyph glyph-name="period" unicode="." horiz-adv-x="512" 
d="M133 276q63 0 107.5 -44t44.5 -107q0 -64 -44.5 -108t-107.5 -44q-66 0 -108.5 44t-42.5 108q0 63 43 107t108 44z" />
    <glyph glyph-name="slash" unicode="/" horiz-adv-x="569" 
d="M522 1403h178l-653 -1440h-178z" />
    <glyph glyph-name="zero" unicode="0" 
d="M977 938q0 -142 -31 -284t-87.5 -263.5t-131 -216.5t-168.5 -149t-192 -54q-75 0 -134 29.5t-95.5 76t-60.5 108t-33 120.5t-9 119q0 126 30 263t87.5 263t133.5 227t176 161.5t206 60.5q136 0 222.5 -131t86.5 -330zM766 1184q0 155 -107 155q-21 0 -41.5 -11t-40 -36
t-35 -47.5t-33.5 -65t-28.5 -66.5t-27 -74t-21.5 -66.5t-20 -63.5q-20 -66 -53 -187t-73 -299.5t-40 -252.5q0 -22 4 -43t14.5 -44t32.5 -37.5t53 -14.5q27 0 52 14t44 33t39 55t33 64t30 76.5t25 75.5t23 77q60 210 115 441.5t55 316.5z" />
    <glyph glyph-name="one" unicode="1" 
d="M10 0v47q30 1 48 2t46.5 5.5t47.5 15t40 26t36.5 42t25.5 61.5l262 940q8 28 8 45q0 71 -86 71q-69 0 -137 -10l4 47q297 44 553 107l-315 -1147q-25 -90 -25 -111q0 -61 44.5 -77.5t154.5 -16.5v-47h-707z" />
    <glyph glyph-name="two" unicode="2" 
d="M858 391l-162 -391h-751v49q281 281 340.5 343t134.5 153q109 133 164 231t55 205q0 22 -1 40.5t-11.5 57.5t-28.5 65.5t-56.5 48t-92.5 21.5q-154 0 -273 -176l-45 25q20 43 44 82t65 87.5t87.5 83.5t113 59t139.5 24q77 0 142 -31t105.5 -81t63 -110.5t22.5 -121.5
q0 -233 -295 -486l-401 -342h305q84 0 133.5 15.5t82 48.5t69.5 100h51z" />
    <glyph glyph-name="three" unicode="3" 
d="M262 711l8 45q387 77 387 317q0 70 -43.5 125t-130.5 55q-46 0 -83 -12t-67 -38t-47.5 -46.5t-43.5 -56.5l-43 26q171 273 424 273q52 0 103.5 -17.5t96 -51t72 -88.5t27.5 -122q0 -185 -220 -295l-24 -12q78 -57 118 -124.5t40 -182.5q0 -144 -81 -267.5t-217 -194.5
t-292 -71q-73 0 -128 14.5t-82.5 33.5t-43.5 43.5t-19.5 39t-3.5 25.5q0 38 13 64.5t33 38t37 16t34 4.5q55 0 84.5 -27.5t99.5 -132.5q24 -37 90 -37q91 0 157.5 97t66.5 237q0 154 -84 238t-238 84z" />
    <glyph glyph-name="four" unicode="4" 
d="M901 1399h129l-244 -891h142l-56 -201h-139l-86 -307h-262l84 307h-500l58 215zM109 508h415l160 563l-4 4z" />
    <glyph glyph-name="five" unicode="5" 
d="M403 1147l-69 -156q81 -17 115 -25t84.5 -24t86 -36.5t72.5 -51.5q50 -41 84 -94t47 -104.5t17 -82t4 -55.5q0 -125 -51 -229.5t-136 -172.5t-192.5 -105.5t-222.5 -37.5q-133 0 -199 49.5t-66 106.5q0 62 36 92.5t85 30.5q42 0 73 -20.5t49 -49t35 -57.5t41 -49.5
t56 -20.5q77 0 142 50t100 125t35 153q0 163 -128 271t-351 108l268 608h579l-73 -223h-521z" />
    <glyph glyph-name="six" unicode="6" 
d="M1030 1391l12 -50q-398 -144 -569 -503q76 26 129 26q36 0 72 -7.5t79.5 -30.5t76.5 -59.5t55 -102.5t22 -152q0 -116 -42.5 -219t-111.5 -173t-158.5 -110.5t-182.5 -40.5q-92 0 -161.5 32t-107 78t-60.5 110.5t-29.5 115.5t-6.5 107q0 81 19 166.5t58.5 174t97 171.5
t139 159t179.5 137t223.5 106t266.5 65zM276 195q0 -28 2.5 -48t12.5 -49.5t36 -46t66 -16.5q97 0 152 145q108 311 108 457q0 19 -1 31.5t-7.5 36.5t-19 38.5t-38.5 26.5t-63 12q-65 0 -87.5 -27.5t-71.5 -158.5q-89 -246 -89 -401z" />
    <glyph glyph-name="seven" unicode="7" 
d="M170 981h-53l178 389h780l-780 -1370h-189l680 1139h-272q-113 0 -174.5 -14.5t-97 -45.5t-72.5 -98z" />
    <glyph glyph-name="eight" unicode="8" 
d="M6 307q0 54 16 102.5t38.5 83t59.5 66.5t66.5 51.5t72 39t63.5 27.5t53 19v11q-37 39 -54.5 60t-45 63t-40 89t-12.5 103q0 166 112.5 271.5t282.5 105.5q37 0 80 -8.5t93 -29.5t90.5 -52.5t67 -83t26.5 -115.5t-22.5 -117t-65.5 -92t-91.5 -67t-113.5 -54v-10
q32 -34 53 -60t54 -77t51 -111.5t18 -124.5q0 -187 -129.5 -305.5t-314.5 -118.5q-76 0 -139 15.5t-104.5 39t-73 56.5t-48 64t-27 64.5t-13.5 55t-3 39.5zM205 281q0 -39 9 -77.5t30 -78.5t64 -65t102 -25q99 0 158 79t59 183q0 87 -36 149t-163 211q-50 -34 -86 -66.5
t-69.5 -77.5t-50.5 -103.5t-17 -128.5zM451 1133q0 -59 28 -116.5t62.5 -97t93.5 -94.5q38 40 55.5 60.5t44 59t38 78.5t11.5 87q0 105 -46 163t-120 58q-57 0 -96.5 -32.5t-55 -75.5t-15.5 -90z" />
    <glyph glyph-name="nine" unicode="9" 
d="M743 1178q0 25 -0.5 39.5t-6 39.5t-15.5 39t-31 25.5t-51 11.5q-93 0 -164 -139q-48 -93 -80.5 -252t-32.5 -213q0 -139 134 -139q25 0 38 0.5t28.5 9.5t22 15t20.5 34t21.5 48.5t28.5 74.5q37 93 58.5 197t25.5 147.5t4 61.5zM-12 -20l-13 51q179 49 331.5 183.5
t236.5 315.5q-65 -28 -125 -28q-139 0 -224 94.5t-85 247.5q0 74 19 149.5t60 148.5t99.5 130t145 92t188.5 35q167 0 259.5 -120t92.5 -325q0 -69 -15.5 -145.5t-51.5 -163.5t-88.5 -170.5t-133 -164t-178.5 -145.5t-231.5 -114t-286.5 -71z" />
    <glyph glyph-name="colon" unicode=":" horiz-adv-x="681" 
d="M199 276q63 0 107 -44t44 -107q0 -64 -44 -108t-107 -44q-66 0 -109 44t-43 108q0 62 43.5 106.5t108.5 44.5zM389 940q63 0 107.5 -44.5t44.5 -107.5q0 -64 -44.5 -107.5t-107.5 -43.5q-66 0 -108.5 43.5t-42.5 107.5q0 63 43 107.5t108 44.5z" />
    <glyph glyph-name="semicolon" unicode=";" horiz-adv-x="681" 
d="M-25 -375l-26 49q29 15 56.5 31.5t76 51t78.5 76t30 81.5q0 23 -14.5 41t-35.5 31.5t-42.5 29t-36 42.5t-14.5 63q0 65 40 108t103 43q19 0 39.5 -4.5t46 -17.5t45 -33.5t33 -57t13.5 -83.5q0 -76 -38 -150t-91 -124.5t-112 -92t-98 -61t-53 -23.5zM389 940
q63 0 107.5 -44.5t44.5 -107.5q0 -64 -44.5 -107.5t-107.5 -43.5q-66 0 -108.5 43.5t-42.5 107.5q0 63 43 107.5t108 44.5z" />
    <glyph glyph-name="less" unicode="&#x3c;" horiz-adv-x="1167" 
d="M1104 164v-180l-1041 456v156l1041 457v-181l-807 -354z" />
    <glyph glyph-name="equal" unicode="=" horiz-adv-x="1167" 
d="M1100 817v-180h-1032v180h1032zM1100 399v-180h-1032v180h1032z" />
    <glyph glyph-name="greater" unicode="&#x3e;" horiz-adv-x="1167" 
d="M63 164l807 354l-807 354v181l1041 -457v-156l-1041 -456v180z" />
    <glyph glyph-name="question" unicode="?" 
d="M401 426l-59 14q4 46 12 82t41.5 104t91.5 140l84 104q131 161 131 299q0 91 -42.5 129.5t-100.5 38.5q-45 0 -85 -23t-40 -54q0 -15 15 -34.5t30 -46t15 -59.5q0 -51 -37 -86t-88 -35q-53 0 -89 40t-36 96q0 109 96.5 187.5t257.5 78.5q87 0 154.5 -22t106 -54t63.5 -74
t33 -77t8 -68q0 -58 -20 -108.5t-59 -94t-79.5 -76t-99.5 -71.5l-136 -88q-61 -40 -94 -90t-74 -152zM313 276q63 0 107.5 -44t44.5 -107q0 -64 -44.5 -108t-107.5 -44q-66 0 -108.5 44t-42.5 108q0 63 43 107t108 44z" />
    <glyph glyph-name="at" unicode="@" horiz-adv-x="1703" 
d="M1081 823q0 133 -90 133q-39 0 -86 -28t-90.5 -76.5t-72.5 -126t-29 -164.5q0 -86 35 -129t90 -43q76 0 149.5 115.5t93.5 318.5zM1116 948l23 78h145l-133 -526q-4 -20 -4 -41q0 -38 17.5 -65t58.5 -27q75 0 136.5 68.5t92.5 163.5t31 187q0 72 -25 147t-76 145
t-120 124.5t-165.5 87.5t-205.5 33q-92 0 -176.5 -27t-157.5 -83.5t-126.5 -137.5t-84.5 -195.5t-31 -250.5q0 -111 44.5 -214.5t121.5 -183t189.5 -127t240.5 -47.5q125 0 216 24.5t198 74.5l27 -72q-121 -57 -224.5 -89t-214.5 -32q-157 0 -290 44.5t-222 116.5
t-152 163.5t-91.5 184t-28.5 179.5q0 164 61.5 306t165 239t242.5 152t293 55q191 0 348 -79.5t247.5 -221t90.5 -314.5q0 -82 -26.5 -168t-73.5 -160t-122.5 -121.5t-164.5 -47.5q-39 0 -72 12.5t-53 30.5t-34.5 39t-20.5 37.5t-6 27.5v2h-5q-27 -42 -94 -91t-147 -56h-6
q-22 0 -44 5t-50.5 22t-50 43.5t-36 74.5t-14.5 111q0 49 15.5 112.5t49 133t80.5 127.5t117 95.5t150 37.5q18 0 33.5 -3t26.5 -6t22 -11.5t17 -13.5t14.5 -17.5t11.5 -17t11.5 -19.5t10.5 -19z" />
    <glyph glyph-name="A" unicode="A" horiz-adv-x="1366" 
d="M1214 51v-51h-622v51q35 3 53 5.5t43 9.5t36.5 18.5t20.5 32t9 49.5q0 41 -31 260h-440l-121 -209q-31 -52 -31 -94q0 -72 133 -72v-51h-401v51q35 9 54 17.5t49.5 39t66.5 87.5l762 1204h51l196 -1172q5 -32 9 -54t11.5 -41t11.5 -29.5t17 -20t19.5 -13.5t27.5 -8.5
t33 -5.5t43 -4zM330 508h379l-76 498z" />
    <glyph glyph-name="B" unicode="B" horiz-adv-x="1366" 
d="M238 1319v51h557q35 0 65.5 -1t82.5 -7.5t93.5 -17.5t88.5 -33.5t79 -52.5t53 -77t21 -106q0 -51 -15 -95.5t-36.5 -76t-57 -58.5t-65.5 -44t-73.5 -32.5t-69.5 -23t-64 -16.5v-4q30 -9 48.5 -16t50.5 -21t53 -28.5t46.5 -38.5t40 -50.5t25 -64t10.5 -80.5
q0 -93 -34.5 -167t-91 -121t-136 -78.5t-163.5 -45t-179 -14.5h-616v51q34 5 52.5 10t42 19.5t40 43.5t29.5 75l250 919q22 77 22 109q0 24 -8 40.5t-19 26t-33 15t-40 7.5t-49 3zM551 692l-135 -499q-10 -30 -10 -64q0 -63 124 -63q78 0 139.5 33t95.5 79.5t56.5 105
t29.5 101.5t7 76t-4 60.5t-14 48.5t-20 38t-28 29.5t-32 21t-38 14.5t-39.5 9.5t-43.5 5.5t-43 2.5zM692 1214l-125 -460q147 5 218 30q192 66 192 320q0 201 -184 201q-28 0 -47 -7.5t-29.5 -23.5t-15 -27.5t-9.5 -32.5z" />
    <glyph glyph-name="C" unicode="C" horiz-adv-x="1366" 
d="M1386 1403l-104 -479l-65 12q6 35 6 70q0 152 -70.5 238.5t-202.5 86.5q-118 0 -227 -88.5t-182 -222.5t-116.5 -289.5t-43.5 -292.5q0 -75 15.5 -135.5t37.5 -98t54.5 -64.5t58.5 -39.5t58 -19.5t45 -8t26 -1q128 0 231 53t211 188l62 -45q-87 -132 -229 -218.5
t-328 -86.5q-82 0 -160 19t-150.5 61t-127 102t-87 149.5t-32.5 197.5q0 136 38.5 269t113 248.5t175 203.5t233 139t277.5 51q77 0 151 -15t123 -30t66 -15q21 0 37 9t24 19.5t21 31.5h61z" />
    <glyph glyph-name="D" unicode="D" horiz-adv-x="1478" 
d="M651 1229l-262 -971q-27 -94 -27 -117q0 -21 8.5 -35t19 -21t30.5 -10.5t31 -4t32 -0.5q109 0 201 37t154 96t111 139t77 160t46 165t24 147.5t6 113.5q0 31 -1 52.5t-7.5 64.5t-18 74t-36.5 69t-59 62t-88 40.5t-122 16.5h-12q-17 0 -29.5 -2t-29 -9t-29 -24t-19.5 -43z
M193 1319v51h593q290 0 453.5 -147.5t163.5 -421.5q0 -106 -31.5 -213.5t-102.5 -212.5t-174 -186.5t-259 -133.5t-344 -55h-586v51q27 4 40.5 7t35.5 12.5t35.5 23.5t28 41t24.5 64q36 133 70 260t57.5 212.5t45.5 167t35.5 131t26 95.5t18.5 70.5t11 45.5t6.5 31t1.5 17
q0 49 -24.5 62.5t-124.5 27.5z" />
    <glyph glyph-name="E" unicode="E" horiz-adv-x="1366" 
d="M1200 397l-121 -397h-1134v51q32 5 46 8.5t36 13t33.5 23.5t25 40t23.5 63l251 919q21 84 21 115q0 48 -25 60.5t-125 25.5v51h1106l-88 -389l-55 10q0 44 -1 66.5t-8 61.5t-21 60.5t-42 49t-68.5 41.5t-103 24.5t-143.5 10.5q-60 0 -82.5 -21t-36.5 -70l-125 -456h41
q49 0 87.5 2.5t70.5 10t54.5 14t44 23.5t34.5 28.5t30.5 38.5t27.5 45t30 55l57 -8l-151 -559l-58 10q9 55 9 82q0 113 -61 152.5t-234 39.5l-115 -428q-4 -16 -12 -45.5t-13.5 -50.5t-5.5 -29q0 -38 26.5 -55.5t106.5 -17.5q430 0 617 342z" />
    <glyph glyph-name="F" unicode="F" horiz-adv-x="1366" 
d="M1055 967l-152 -559l-57 10q8 49 8 82q0 108 -57.5 150t-223.5 42l-110 -411q-2 -8 -11 -38t-14.5 -55.5t-5.5 -44.5q0 -49 31.5 -68t114.5 -24v-51h-605v51q32 5 46 8.5t36 13t33.5 23.5t25 40t23.5 63l252 919q21 84 21 115q0 48 -25 60.5t-125 25.5v51h1092l-88 -389
l-56 10q0 32 -0.5 48t-3.5 47t-9.5 48.5t-19 44t-30.5 42t-46 33.5t-64.5 28t-86.5 16.5t-110 6.5q-58 0 -82.5 -19.5t-38.5 -71.5l-125 -456q56 0 97 1.5t76.5 8.5t58.5 12.5t46 22t36 27.5t31 39t28.5 46.5t31.5 59.5z" />
    <glyph glyph-name="G" unicode="G" horiz-adv-x="1478" 
d="M1446 676v-53q-81 -6 -107.5 -33.5t-54.5 -134.5l-98 -371l-58 -27q-85 -39 -219.5 -66.5t-249.5 -27.5q-128 0 -239 36.5t-195.5 105t-133 175t-48.5 238.5q0 124 37.5 249.5t112.5 239.5t176.5 202.5t241 141t294.5 52.5q77 0 138 -9.5t91 -21.5t59.5 -21.5t51.5 -9.5
q20 0 35.5 6t26 18.5t14.5 18.5t10 19h64l-105 -453l-59 8q0 371 -293 371q-95 0 -185 -53.5t-159.5 -145.5t-122.5 -208.5t-81 -248.5t-28 -261q0 -72 15 -130.5t38 -96t55.5 -66t62.5 -43t64 -23t55 -10.5t40 -2q70 0 128 20t79 54q10 18 60.5 196t50.5 226q0 50 -29 64
t-123 22v53h588z" />
    <glyph glyph-name="H" unicode="H" horiz-adv-x="1593" 
d="M1346 51v-51h-650v51q57 2 94 12t59 31.5t32.5 43.5t21.5 61l131 475h-489l-103 -371q-2 -7 -10.5 -39t-12 -46t-7.5 -37.5t-4 -41.5q0 -53 29.5 -67t119.5 -21v-51h-606v51q36 6 54 11t42 19.5t39.5 43t28.5 74.5l250 919q22 73 22 111q0 49 -24.5 62.5t-124.5 27.5v51
h649v-51q-93 -3 -138.5 -32t-68.5 -116l-111 -407h490l96 354q21 88 21 115q0 48 -23.5 60t-126.5 26v51h610v-51q-38 -6 -57 -11t-42.5 -19.5t-38.5 -43t-28 -74.5l-223 -813q-2 -8 -18 -65t-24.5 -95.5t-8.5 -60.5q0 -27 11.5 -45t35 -26t46 -11t57.5 -4z" />
    <glyph glyph-name="I" unicode="I" horiz-adv-x="796" 
d="M541 51v-51h-607v51q72 10 106.5 37.5t57.5 110.5l252 919q21 88 21 115q0 48 -23.5 60t-126.5 26v51h610v-51q-36 -5 -55 -10t-43 -19t-40 -43t-29 -76l-234 -860q-37 -135 -37 -172q0 -50 32.5 -67.5t115.5 -20.5z" />
    <glyph glyph-name="J" unicode="J" 
d="M1073 1370v-51q-76 -11 -106 -36.5t-60 -111.5l-262 -981q-19 -68 -41 -121.5t-57.5 -106.5t-80 -87.5t-108.5 -56t-143 -21.5q-129 0 -219 57t-90 148q0 63 37.5 104t91.5 41q55 0 93 -36t38 -91q0 -41 -23.5 -66t-23.5 -50q0 -33 53 -33q38 0 58.5 17t51.5 95.5
t76 249.5l234 885q22 92 22 111q0 49 -24.5 62.5t-124.5 27.5v51h608z" />
    <glyph glyph-name="K" unicode="K" horiz-adv-x="1366" 
d="M803 815l321 -692q10 -22 23.5 -36t33 -21t33 -9.5t39.5 -5.5v-51h-573v51q92 11 112.5 20.5t20.5 43.5q0 3 -6 21t-13 38l-8 21l-221 471l-16 4l-131 -490q-4 -16 -4 -43q0 -35 21 -54.5t46 -24.5t68 -7v-51h-592v51q29 4 42.5 6.5t35.5 12t34.5 24t27 41t24.5 64.5
l250 919q22 73 22 111q0 49 -24.5 62.5t-124.5 27.5v51h635v-51q-84 -7 -127 -35.5t-66 -112.5l-123 -452l10 -2q244 210 373 332q81 76 122 123t46.5 60.5t5.5 29.5q0 31 -23 40.5t-91 16.5v51h432v-51q-45 -6 -64.5 -11t-51.5 -25t-77 -62z" />
    <glyph glyph-name="L" unicode="L" horiz-adv-x="1251" 
d="M1208 397l-121 -397h-1132v51q72 10 106.5 37.5t57.5 110.5l252 919q20 88 20 115q0 48 -23 60t-126 26v51h649v-51q-94 -5 -139 -33t-68 -115l-264 -978q-10 -39 -10 -66q0 -8 1 -13.5t8 -15.5t19.5 -16t39.5 -11t65 -5q428 0 616 342z" />
    <glyph glyph-name="M" unicode="M" horiz-adv-x="1820" 
d="M1712 1171l-252 -919q-20 -88 -20 -113q0 -50 32 -67.5t115 -20.5v-51h-639v51q94 7 138 34.5t67 113.5l252 931l-4 5l-760 -1160h-57l-135 1135h-5l-204 -745q-39 -144 -39 -185q0 -27 4.5 -46.5t17 -33t23 -21.5t34 -13.5t38.5 -8t47 -6.5v-51h-424v51q31 8 44.5 12.5
t34.5 17.5t31.5 30.5t27.5 52t32 81.5t36 120l224 763q22 71 22 119q0 45 -29 57t-118 15v51h452l111 -977h4l631 977h434v-51q-38 -6 -57 -11t-42.5 -19.5t-38.5 -43t-28 -74.5z" />
    <glyph glyph-name="N" unicode="N" horiz-adv-x="1478" 
d="M627 1370l440 -952l164 588q37 133 37 188q0 31 -10.5 54t-24 35.5t-38.5 20.5t-43 10.5t-48 4.5v51h428v-51q-35 -9 -48.5 -13t-35.5 -17.5t-32 -30t-27 -51.5t-31 -81t-35 -120l-293 -1037h-57l-527 1125l-202 -729q-37 -133 -37 -189q0 -31 10.5 -54t24 -35.5
t38.5 -20.5t43 -10.5t48 -4.5v-51h-426v51q32 8 45.5 12t34.5 17t31.5 30.5t27.5 52t32 82t36 120.5l245 841q-29 67 -58.5 86t-111.5 27v51h400z" />
    <glyph glyph-name="O" unicode="O" horiz-adv-x="1478" 
d="M905 1333q-77 0 -149 -47t-126 -123.5t-101 -174t-79.5 -198.5t-55.5 -197.5t-33.5 -169.5t-10.5 -116q0 -274 213 -274q87 0 167.5 60.5t139.5 157.5t108 214.5t79 235.5t46.5 216t16.5 160q0 15 -0.5 28t-5 41t-12 50.5t-23.5 49t-38 44.5t-57 30.5t-79 12.5zM55 424
q0 184 72.5 364t191 314.5t277.5 217.5t324 83q69 0 137 -16.5t133.5 -55t115 -94.5t79.5 -140.5t30 -187.5q0 -119 -41 -250.5t-120 -254.5t-183 -222t-242.5 -159t-285.5 -60q-99 0 -182 29t-138 76t-94 108t-56.5 123.5t-17.5 124.5z" />
    <glyph glyph-name="P" unicode="P" horiz-adv-x="1251" 
d="M682 1214l-131 -489q58 -4 78 -4q72 0 122.5 15t71.5 32t43 45q45 56 67.5 145.5t22.5 149.5q0 197 -174 197q-28 0 -47.5 -7.5t-30 -22.5t-14.5 -28t-8 -33zM231 1319v51h588q70 0 129.5 -8.5t117.5 -30.5t98.5 -57t65.5 -92.5t25 -132.5q0 -95 -44.5 -172.5
t-120 -126.5t-170.5 -75t-199 -26q-96 0 -191 10l-110 -407q-21 -92 -21 -113q0 -50 32.5 -67.5t115.5 -20.5v-51h-602v51q32 5 46 8.5t36 13t33.5 23.5t25 40t23.5 63l251 919q21 84 21 115q0 48 -25 60.5t-125 25.5z" />
    <glyph glyph-name="Q" unicode="Q" horiz-adv-x="1478" 
d="M905 1333q-77 0 -149 -47t-126 -123.5t-101 -174t-79.5 -198.5t-55.5 -197.5t-33.5 -169.5t-10.5 -116q0 -272 213 -272q87 0 167.5 60.5t139.5 157t108 214t79 235t46.5 215.5t16.5 160q0 15 -0.5 28t-5 41t-12 50.5t-23.5 49t-38 44.5t-57 30.5t-79 12.5zM1298 -82
l43 -39q-34 -47 -62 -81t-78 -79.5t-101 -74t-125 -49.5t-156 -21q-79 0 -152.5 15t-120 33t-109 33t-122.5 15q-87 0 -229 -57l-29 49l320 266q25 20 30 25t9 14q-9 11 -29 19q-83 23 -148.5 70.5t-104.5 108.5t-59 127t-20 132q0 184 72.5 364t191 314.5t277.5 217.5
t324 83q69 0 137 -16.5t133.5 -55t115 -94.5t79.5 -140.5t30 -187.5q0 -123 -42.5 -257t-122 -255.5t-183 -219.5t-236 -156t-270.5 -58q-31 0 -45 2q-94 -88 -94 -98q0 -6 45 -10t123 -14t135 -27l86 -27q99 -31 170 -31q103 0 172 40t145 120z" />
    <glyph glyph-name="R" unicode="R" horiz-adv-x="1366" 
d="M682 1214l-123 -471q112 0 203 25q54 18 95.5 56.5t64.5 87.5t34 99t11 99q0 94 -48 144.5t-145 50.5q-46 0 -64 -23.5t-28 -67.5zM227 1319v51h566q30 0 49.5 -0.5t60.5 -3t70.5 -7.5t71 -15.5t71 -24.5t62 -37t52.5 -51.5t33 -69t13 -88.5q0 -60 -24.5 -118t-71 -109.5
t-123.5 -89.5t-174 -54l170 -503q14 -40 27.5 -65.5t26 -41t34.5 -23.5t39 -11t53 -7v-51h-414l-219 678h-59l-113 -395q-29 -103 -29 -142q0 -51 31 -68t117 -22v-51h-606v51q72 10 106 37.5t57 110.5l252 919q21 88 21 115q0 48 -23.5 60t-126.5 26z" />
    <glyph glyph-name="S" unicode="S" horiz-adv-x="1138" 
d="M4 -37l74 459l59 -4q3 -100 30 -174.5t61.5 -113.5t81.5 -62.5t79.5 -29t65.5 -5.5q65 0 114.5 23.5t75 55t42 71.5t20.5 65t4 43q0 54 -27.5 105t-72 94.5t-98 86.5t-107 89t-98 94.5t-72 110t-27.5 128.5q0 79 27.5 151t79 128.5t133 90.5t180.5 34q65 0 169.5 -31
t127.5 -31q65 0 90 54h61l-82 -412l-55 8q-3 33 -6.5 55.5t-12 61.5t-20 66t-32.5 59t-47.5 51.5t-66 33t-87.5 13.5q-43 0 -77.5 -11.5t-56 -28t-37 -40t-23 -43.5t-12 -43t-5 -33t-0.5 -20q0 -46 14 -80.5t45.5 -65.5t65 -56.5t90 -70.5t104.5 -91q182 -178 182 -351
q0 -205 -123 -319.5t-358 -114.5q-67 0 -137 18t-121 36t-72 18q-19 0 -31 -4t-21.5 -15.5t-14 -20.5t-14.5 -32h-62z" />
    <glyph glyph-name="T" unicode="T" horiz-adv-x="1251" 
d="M1331 1370l-74 -393l-55 4q-2 63 -13.5 113t-27 82.5t-41 56t-46 35.5t-53 19t-51 8.5t-50.5 2.5l-287 -1036q-23 -80 -23 -123q0 -24 7.5 -40t17.5 -25t36 -14t45.5 -6t63.5 -3v-51h-678v51h29q70 0 116 30.5t70 117.5l304 1099q-150 0 -259.5 -69.5t-185.5 -222.5
l-51 14l78 350h1128z" />
    <glyph glyph-name="U" unicode="U" horiz-adv-x="1478" 
d="M1524 1370v-51q-25 -6 -35.5 -8.5t-28.5 -10t-26 -15.5t-21.5 -24t-22.5 -36.5t-22 -52.5t-25 -71.5t-28 -94.5l-135 -467q-23 -81 -36.5 -123t-42 -114t-55 -111t-72.5 -89.5t-98 -76t-126.5 -44t-163.5 -18.5q-85 0 -163 21t-143 62t-104 110.5t-39 158.5
q0 76 53.5 285t106.5 402.5t53 230.5q0 48 -24.5 60.5t-124.5 25.5v51h637v-51q-45 -3 -70 -7.5t-51 -19.5t-42.5 -44t-29.5 -77l-168 -614q-37 -132 -47 -179.5t-10 -98.5q0 -81 62 -141t190 -60q48 0 90.5 10.5t75.5 27t63.5 45t52 54t43 66.5t34.5 70.5t28.5 76.5
t23.5 75t21 75l119 428q39 153 39 196q0 29 -12 51t-28.5 33.5t-42 19t-42 9.5t-39.5 4v51h426z" />
    <glyph glyph-name="V" unicode="V" horiz-adv-x="1366" 
d="M1464 1370v-51q-83 -25 -121 -82l-804 -1274h-66l-156 1043q-8 49 -13 83.5t-12.5 67t-11.5 53t-13 39t-13.5 28.5t-16.5 19t-18.5 12.5t-24 6t-27.5 3t-34 1.5v51h610v-51q-40 -3 -58.5 -5t-42 -7.5t-32.5 -14.5t-15.5 -24.5t-6.5 -38.5t2 -35l104 -815h4l385 612
q37 57 79 138t42 116q0 44 -26 55.5t-107 18.5v51h393z" />
    <glyph glyph-name="W" unicode="W" horiz-adv-x="1820" 
d="M1925 1370v-49q-31 -5 -46 -9.5t-38.5 -19t-44 -44t-43.5 -77.5l-586 -1208h-59l-121 995h-4l-473 -995h-59l-160 1186q-6 41 -9.5 62.5t-12.5 42t-15.5 28.5t-27.5 17t-37.5 12t-55.5 10v49h567v-51q-63 -7 -94 -28t-31 -81q0 -14 3 -32l79 -709h5l303 631
q0 43 -3.5 74.5t-7.5 53.5t-15 37.5t-19 24.5t-28 15.5t-32.5 9t-40.5 6.5v49h551v-51q-76 -6 -102.5 -27.5t-26.5 -91.5q0 -27 12 -133l68 -598h4l315 664q22 45 26.5 60.5t4.5 43.5q0 22 -6 36.5t-13.5 22.5t-28 13t-34 6.5t-47.5 3.5v51h383z" />
    <glyph glyph-name="X" unicode="X" horiz-adv-x="1366" 
d="M1200 51v-51h-631v51q31 3 44 4t36 6.5t33 13t18.5 22t8.5 34.5q0 52 -57.5 226.5t-59.5 183.5l-275 -303q-61 -61 -61 -101q0 -75 133 -86v-51h-438v51q46 13 67.5 24.5t55.5 41.5q62 54 153 150t194 210.5t142 155.5l-172 557q-22 72 -61 96.5t-125 32.5v51h624v-51
q-98 -10 -124.5 -23t-26.5 -63q0 -17 17 -79.5t49 -167.5t38 -124l193 203q32 34 48 52t43 50t39.5 55t12.5 38t-4.5 24.5t-9.5 15t-22.5 9.5t-30 5.5t-45.5 4.5v51h415v-51q-33 -6 -51.5 -11.5t-60 -33.5t-90.5 -80l-408 -420l152 -485q23 -74 38.5 -111t42 -67.5
t61.5 -42.5t95 -17z" />
    <glyph glyph-name="Y" unicode="Y" horiz-adv-x="1251" 
d="M479 641l-180 549q-15 45 -24.5 66.5t-28.5 35t-35.5 17.5t-60.5 10v51h579v-51q-84 0 -113.5 -18t-29.5 -56q0 -13 1.5 -25t7 -33t12 -42t20 -64t27.5 -86t39 -120l50 -154l265 381q37 53 45 75.5t8 57.5q0 42 -29.5 63t-107.5 21v51h426v-51q-61 -11 -101.5 -44.5
t-85.5 -96.5l-389 -547l-106 -391q-17 -55 -17 -99q0 -25 8.5 -41.5t19 -25.5t35.5 -14t41.5 -6t53.5 -3v-51h-659v51q36 3 54.5 5.5t43 8.5t37 15t27.5 24.5t25 38.5t19 56z" />
    <glyph glyph-name="Z" unicode="Z" horiz-adv-x="1251" 
d="M1135 397l-121 -397h-1037v59l889 1239h-159q-85 0 -158.5 -19.5t-122.5 -46t-98 -72.5t-75 -78.5t-63 -84.5l-57 9l117 364h958v-59l-889 -1239h144q49 0 82.5 2t91.5 9.5t113.5 28t105.5 52.5q47 32 115 101t108 143z" />
    <glyph glyph-name="bracketleft" unicode="[" horiz-adv-x="681" 
d="M727 1309h-141q-56 0 -70.5 -18t-36.5 -111l-323 -1385q0 -17 7 -28t20 -15t21.5 -5t22.5 -1h160l-14 -72h-449l408 1706h409z" />
    <glyph glyph-name="backslash" unicode="\" horiz-adv-x="569" 
d="M-2 1403h174l399 -1440h-172z" />
    <glyph glyph-name="bracketright" unicode="]" horiz-adv-x="681" 
d="M-100 -250h139q56 0 70 17t36 108l324 1387q0 47 -72 47h-159l14 71h450l-409 -1702h-408z" />
    <glyph glyph-name="asciicircum" unicode="^" horiz-adv-x="1167" 
d="M319 623h-182l365 747h164l364 -747h-182l-264 557z" />
    <glyph glyph-name="underscore" unicode="_" 
d="M0 -154h1024v-102h-1024v102z" />
    <glyph glyph-name="grave" unicode="`" horiz-adv-x="681" 
d="M608 1057h-92l-272 182q-70 47 -70 96q0 34 26.5 63t65.5 29q56 0 115 -69z" />
    <glyph glyph-name="a" unicode="a" 
d="M889 260l43 -31q-166 -258 -309 -258q-13 0 -29.5 3.5t-36 13.5t-35.5 24.5t-26.5 39t-10.5 54.5t27 130l-4 -3q-22 -37 -39 -63t-50 -66.5t-65.5 -66t-79 -45t-94.5 -19.5q-58 0 -101 22t-65.5 52t-36 70.5t-17 68t-3.5 54.5q0 88 33.5 188.5t90.5 190.5t127 164.5
t150.5 118.5t153.5 44q43 0 74 -13.5t46.5 -37.5t22.5 -43.5t11 -44.5h4l35 113l227 14l-146 -483q-69 -228 -69 -304q0 -30 26 -30t61.5 38t84.5 105zM299 119q62 0 124.5 78.5t104 185.5t67.5 212t26 165q0 30 -9 51.5t-22.5 31t-24.5 13.5t-20 4q-60 0 -124 -78.5
t-109 -184t-74 -207.5t-29 -154q0 -62 29.5 -89.5t60.5 -27.5z" />
    <glyph glyph-name="b" unicode="b" 
d="M156 1315v55q231 24 426 62l-181 -658l5 -4q30 40 56 68t60 54.5t75 40t87 13.5q98 0 161.5 -70.5t63.5 -187.5q0 -128 -54.5 -257.5t-143 -230t-209.5 -164t-246 -63.5q-62 0 -117.5 13.5t-91 33t-56 40t-20.5 36.5q0 27 157 568.5t157 582.5t-25.5 54.5t-73.5 13.5h-30
zM653 668q0 139 -94 139q-60 0 -116.5 -73t-94.5 -174t-67.5 -207.5t-43.5 -174.5t-14 -74q0 -63 66 -63t126 48.5t102 122.5t74 160.5t47 164t15 131.5z" />
    <glyph glyph-name="c" unicode="c" horiz-adv-x="909" 
d="M651 289l58 -37q-26 -37 -41 -57.5t-43 -54.5t-49.5 -53.5t-55 -44t-65 -37.5t-73.5 -22.5t-87 -9.5q-42 0 -83.5 11t-82 35.5t-71 60t-49.5 89.5t-19 120q0 115 51 234.5t131 212t186 151.5t209 59q114 0 175 -53t61 -127q0 -69 -35 -108.5t-94 -39.5q-45 0 -81 29
t-36 78q0 32 21.5 70t21.5 49q0 18 -15 26.5t-32 8.5q-62 0 -121 -69t-97 -165t-60.5 -190t-22.5 -152t14.5 -99.5t38.5 -62t47.5 -29t48.5 -8.5q67 0 126.5 46t123.5 139z" />
    <glyph glyph-name="d" unicode="d" 
d="M874 268l46 -32q-20 -33 -37 -58.5t-50 -66t-64 -67t-72.5 -47t-82.5 -20.5q-9 0 -18.5 1t-30 7.5t-35 18.5t-26.5 37.5t-12 60.5q0 44 20 134l-4 -3q-30 -51 -54 -85t-67 -80t-97 -70.5t-116 -24.5q-49 0 -88 18.5t-62.5 47t-39 64.5t-21.5 68t-6 62q0 115 53 244.5
t133 231.5t179 169.5t186 67.5q41 0 73.5 -12.5t46 -23t34.5 -31.5q11 42 27 100.5t26.5 98t21 79.5t16 64.5t5.5 33.5q0 62 -84 62h-43v55q241 18 428 60l-228 -830q-116 -429 -116 -452q0 -29 24 -29q27 0 71.5 56t63.5 91zM211 242q0 -10 2.5 -24.5t9.5 -39t26.5 -41
t47.5 -16.5q55 0 109 60t93 146t70 178.5t46.5 160t15.5 88.5q0 10 -2 22.5t-8.5 34t-24 35.5t-43.5 14q-62 0 -127.5 -76t-111 -179.5t-74.5 -205t-29 -157.5z" />
    <glyph glyph-name="e" unicode="e" horiz-adv-x="909" 
d="M649 291l60 -35q-22 -37 -36 -58t-43.5 -60.5t-58.5 -63.5t-67.5 -50t-86 -38.5t-100.5 -12.5q-54 0 -105.5 18t-98 53.5t-75 99t-28.5 145.5q0 83 29 175t84.5 177t127 153.5t164 110t189.5 41.5q24 0 50 -5t55.5 -18t52.5 -32.5t38 -53t15 -75.5q0 -36 -16 -78t-56 -90
t-98 -90t-150.5 -78t-205.5 -53q-13 -60 -13 -101q0 -46 11 -79.5t25.5 -50t36 -26t35 -11t30.5 -1.5q39 0 74.5 16.5t67.5 51t48.5 56.5t44.5 63zM567 879q-45 0 -89.5 -46.5t-78.5 -118.5t-58 -142.5t-38 -133.5q77 21 136.5 56.5t94 74.5t56.5 84.5t29.5 82.5t7.5 73
q0 70 -60 70z" />
    <glyph glyph-name="f" unicode="f" horiz-adv-x="681" 
d="M672 920l-19 -86h-184q-110 -523 -163 -711q-91 -316 -205 -437q-100 -106 -248 -106q-87 0 -143 42.5t-56 129.5q0 43 36.5 72t67.5 29q30 0 66.5 -26t36.5 -75q0 -26 -16.5 -54.5t-16.5 -29.5q0 -24 33 -24q25 0 43.5 8t35.5 31t29 48.5t26.5 76t25 97t28.5 126.5
q143 655 180 803h-149l18 86h150q28 110 67 198t94.5 160.5t132.5 112t171 39.5q51 0 89.5 -13.5t59 -32t33 -43.5t15.5 -42t3 -33q0 -54 -32 -81.5t-74 -27.5q-40 0 -69 29.5t-29 73.5q0 23 16 50.5t16 30.5q0 29 -34 29q-37 0 -70 -34t-56.5 -90t-36.5 -96.5t-24 -84.5
l-37 -145h189z" />
    <glyph glyph-name="g" unicode="g" 
d="M979 879v-115h-137q12 -44 12 -88q0 -110 -67 -194.5t-168.5 -126.5t-215.5 -42q-21 0 -52 8.5t-46 8.5q-19 0 -37 -25.5t-18 -44.5q0 -51 104 -82l109 -31q56 -16 94 -29t81.5 -35t69 -47.5t43 -63.5t17.5 -85q0 -44 -18 -86.5t-57.5 -82t-96.5 -69t-141 -47.5t-185 -18
q-66 0 -129 11.5t-120 35t-92 66t-35 98.5q0 31 8.5 57.5t21 45.5t35 35.5t42 27t51 21t52.5 16.5t56 14v4q-121 39 -121 131q0 20 5 37t11 30t22 28.5t26.5 25t37.5 26t42.5 25t52.5 29.5q-79 29 -121.5 89t-42.5 143q0 48 18 98.5t56.5 98.5t91 85.5t129 60.5t163.5 23
q138 0 222 -67h227zM295 -346q42 0 80 5t79.5 19t66 44.5t24.5 74.5q0 77 -84 115q-30 14 -86 33t-98 31t-46 12q-6 0 -29.5 -13t-53.5 -33.5t-53 -55t-23 -70.5q0 -65 58 -113.5t165 -48.5zM309 508q0 -131 90 -131q50 0 93.5 45t68.5 108.5t39 124.5t14 101q0 49 -22 88
t-72 39q-53 0 -96.5 -48t-66.5 -115t-35.5 -124t-12.5 -88z" />
    <glyph glyph-name="h" unicode="h" horiz-adv-x="1138" 
d="M975 291l45 -31q-30 -46 -44 -67.5t-44 -61.5t-53.5 -60.5t-56.5 -44.5t-69 -34t-77 -10q-63 0 -98 35t-35 89q0 70 45 219.5t90 278.5t45 148q0 17 -10.5 32t-36.5 15q-25 0 -54.5 -19t-53 -42.5t-54 -64t-46 -63.5t-40.5 -61q-90 -136 -207 -549h-248l316 1161
q16 58 16 86q0 70 -90 70q-6 0 -19.5 -1t-19.5 -1v55q211 19 426 62l-217 -840l4 -2q73 108 136 181t114.5 110t91.5 51t82 14q19 0 34.5 -1.5t41 -10.5t42 -25.5t29.5 -49.5t13 -79q0 -48 -93.5 -335t-93.5 -289q0 -15 12.5 -25t22.5 -10q6 0 14 4t17.5 12.5t18 17t20 22.5
t19.5 23.5t19.5 26t17 24t16 22.5t12.5 18z" />
    <glyph glyph-name="i" unicode="i" horiz-adv-x="569" 
d="M442 289l45 -29q-37 -57 -61.5 -91.5t-59.5 -74.5t-65.5 -61.5t-71 -36t-84.5 -14.5q-42 0 -72 14t-44 36.5t-19.5 43.5t-5.5 43q0 50 80 340.5t80 308.5q0 39 -26 52.5t-72 13.5h-23v55q251 18 414 57q-17 -63 -51 -184.5t-56.5 -204.5t-47.5 -175.5t-37.5 -149.5
t-12.5 -76q0 -14 10.5 -22.5t20.5 -8.5q17 0 38 15.5t45.5 45.5t38.5 50t37 53zM262 1266q0 45 36.5 90t98.5 45q58 0 100 -41t42 -98q0 -56 -41 -96t-101 -40q-65 0 -100 45.5t-35 94.5z" />
    <glyph glyph-name="j" unicode="j" horiz-adv-x="569" 
d="M63 834v55q196 18 259.5 26.5t166.5 30.5l-233 -897q-123 -473 -426 -473q-61 0 -106.5 16t-68 42t-32.5 51t-10 49q0 47 30.5 77.5t69.5 30.5q16 0 37 -7t42.5 -31.5t21.5 -61.5q0 -27 -15.5 -50t-15.5 -28q0 -8 15 -16t30 -8q51 0 81 60t68 208l189 727q24 98 24 135
q0 35 -21 50.5t-73 15.5q-5 0 -16 -1t-17 -1zM295 1266q0 45 36.5 90t98.5 45q58 0 99.5 -41t41.5 -98q0 -56 -41 -96t-100 -40q-65 0 -100 45.5t-35 94.5z" />
    <glyph glyph-name="k" unicode="k" 
d="M305 385l-102 -385h-250l319 1161q17 62 17 86q0 70 -90 70q-6 0 -19.5 -1t-19.5 -1v55q207 20 426 62l-250 -932l4 -4q6 4 31.5 24t42 33t46 37t50.5 42t47.5 41.5t44.5 42.5t34.5 38t25 35t8.5 28q0 17 -8 27.5t-26 15t-31.5 6t-39.5 2.5v52h424v-52q-34 -5 -53.5 -9.5
t-52.5 -20t-73 -45.5t-97 -80l-129 -113q59 -302 84 -377q34 -92 77 -94q23 0 48 23.5t39.5 45t32.5 53.5q3 6 5 9l45 -22q-17 -31 -24 -43.5t-27 -45.5t-34 -50t-38 -42.5t-45.5 -38.5t-50 -23.5t-57.5 -10.5q-39 0 -71 15.5t-56.5 48t-42.5 69.5t-34 94.5t-26.5 107
t-23.5 121.5z" />
    <glyph glyph-name="l" unicode="l" horiz-adv-x="569" 
d="M442 289l45 -29q-28 -42 -39.5 -59.5t-38.5 -54.5t-44 -54t-45.5 -42.5t-53 -37.5t-57 -21t-66.5 -9q-39 0 -67.5 12t-42 27t-20.5 38t-8 34t-1 26q0 65 145.5 578t145.5 558q0 62 -92 62q-6 0 -18.5 -1t-18.5 -1v55q188 16 428 62l-297 -1072q-45 -169 -45 -204
q0 -12 8 -19.5t14 -9.5t9 -2q17 0 38 15.5t45.5 45.5t38.5 50t37 53z" />
    <glyph glyph-name="m" unicode="m" horiz-adv-x="1593" 
d="M70 834v55q177 15 243 23.5t166 31.5l-123 -381l6 -4q34 53 52.5 80t53.5 75t58.5 74.5t59.5 61t66.5 52.5t68.5 31t76 13q9 0 18.5 -1t32.5 -8t40 -20t30.5 -41.5t13.5 -66.5q0 -74 -47 -197l2 -4q47 75 83.5 125t87 104t106.5 81.5t116 27.5q81 0 121.5 -45t40.5 -117
q0 -58 -45.5 -199t-91 -271t-45.5 -162q0 -17 11 -24t23 -7q14 0 32 14.5t41 45t34 46.5t33 49l45 -26q-25 -44 -42.5 -71t-50.5 -69t-63.5 -66.5t-74.5 -43t-91 -18.5q-143 0 -143 133q0 65 45 213t90 276t45 146q0 20 -12.5 33.5t-36.5 13.5q-30 0 -66 -27.5t-68.5 -71
t-54 -76t-38.5 -63.5q-54 -93 -89.5 -191t-117.5 -368h-246q40 130 83 265t65.5 205t42 134.5t27 95.5t7.5 48q0 26 -12.5 37.5t-26.5 11.5q-6 0 -18.5 -4.5t-40 -23.5t-57.5 -50.5t-70.5 -92.5t-79.5 -141.5t-83 -206.5t-83 -278h-248q41 150 101.5 360.5t84 299.5
t23.5 120q0 54 -86 54h-24z" />
    <glyph glyph-name="n" unicode="n" horiz-adv-x="1138" 
d="M965 276l45 -26q-26 -44 -44 -71.5t-51.5 -69.5t-64 -66t-73.5 -42.5t-89 -18.5q-143 0 -143 133q0 63 45 213t90 280t45 146q0 19 -15.5 32t-35.5 13q-13 0 -31 -7.5t-46.5 -30t-59.5 -57.5t-69 -97.5t-75 -143t-78.5 -200.5t-78.5 -263h-248q39 148 96.5 351t85 304.5
t27.5 124.5q0 19 -8.5 30.5t-27.5 16.5t-33.5 6t-41.5 1v55q47 0 175 15t235 40l-123 -381l6 -4q123 181 177 244q115 130 232 142q14 1 27 1q21 0 36 -1.5t39.5 -10.5t40.5 -24.5t28 -48t12 -77.5q0 -57 -44.5 -201t-89 -273t-44.5 -152q0 -37 30 -37q19 0 44.5 24.5
t44.5 51.5t53 79z" />
    <glyph glyph-name="o" unicode="o" 
d="M561 887q-62 0 -117.5 -61.5t-92 -151t-63 -191.5t-38.5 -182.5t-12 -124.5q0 -19 0.5 -31.5t6.5 -36t16 -38t31.5 -26t51.5 -11.5q69 0 131.5 90.5t100.5 214.5t60.5 239t22.5 179q0 131 -98 131zM582 946q29 0 64 -6t82.5 -26.5t84.5 -53t63.5 -92t26.5 -137.5
q0 -114 -45.5 -231.5t-121.5 -212t-185.5 -154.5t-228.5 -60q-134 0 -231 82.5t-97 223.5q0 117 47 237t125 215t188.5 155t227.5 60z" />
    <glyph glyph-name="p" unicode="p" 
d="M657 696q0 48 -23.5 76.5t-58.5 28.5q-55 0 -108.5 -51.5t-85.5 -118.5q-34 -71 -92 -268.5t-58 -237.5q0 -44 26 -62t56 -18q70 0 137 80.5t110.5 190.5t70 215.5t26.5 164.5zM47 834v55q267 31 395 57l-69 -211l6 -6q74 114 154 165.5t153 51.5q101 0 164 -62.5
t63 -195.5q0 -94 -30.5 -196t-85 -193t-124.5 -165t-155 -117.5t-170 -43.5q-36 0 -63 9t-78 36q-5 -21 -25.5 -96t-35.5 -136t-15 -81q0 -24 9.5 -38.5t30.5 -21t41 -8.5t52 -2v-55h-510v55q33 0 49 2t37.5 13.5t35.5 38.5t26 73q31 119 75.5 289.5t71.5 275.5t55 213.5
t41 166.5t13 71q0 25 -14 37t-33.5 15t-63.5 4z" />
    <glyph glyph-name="q" unicode="q" 
d="M760 -365v-55h-547v55q39 2 57.5 4.5t42 9.5t36 20t25.5 36t23 59l123 418l-4 4q-129 -213 -299 -213q-215 0 -215 293q0 75 32 168.5t88 182t124.5 163.5t150 120.5t156.5 45.5q47 0 78 -11.5t46 -34.5t21 -42t11 -51h4l28 113h224q-31 -120 -118 -426.5t-153.5 -542.5
t-66.5 -254q0 -17 7 -29.5t16.5 -18.5t26 -9.5t27 -4t27.5 -0.5h29zM258 252q0 -22 0.5 -34t5 -33.5t12.5 -33t25 -21t41 -9.5q54 0 106.5 55t90 136t67.5 171.5t45 163.5t15 109q0 42 -17.5 72t-56.5 30q-59 0 -122.5 -73t-108.5 -172.5t-74 -200.5t-29 -160z" />
    <glyph glyph-name="r" unicode="r" horiz-adv-x="796" 
d="M55 834v55q236 20 311 35q44 8 99 22l-115 -364l10 -4q22 44 36.5 71.5t42.5 77.5t53 82.5t56.5 67t64.5 52t65 17.5q7 0 16 -1t29 -8t35 -20t27 -40.5t12 -65.5q0 -68 -35.5 -108.5t-85.5 -40.5q-24 0 -45 12t-32.5 26.5t-24 26.5t-21.5 12q-38 0 -102 -104.5
t-107 -208.5q-28 -73 -68.5 -206.5t-70.5 -219.5h-248q209 708 209 778q0 25 -14 37t-33.5 15t-63.5 4z" />
    <glyph glyph-name="s" unicode="s" horiz-adv-x="796" 
d="M682 944l-47 -313l-55 4q-7 44 -18.5 82t-32 77t-54 62t-76.5 23q-31 0 -53 -11t-32 -24.5t-16 -32.5t-6.5 -27t-0.5 -16q0 -35 29 -82.5t70 -97t82 -102.5t70 -116.5t29 -121.5q0 -57 -19.5 -104.5t-51 -78.5t-72 -52.5t-82 -30.5t-82.5 -9q-50 0 -110 20.5t-78 20.5
q-7 0 -17.5 -2.5t-24 -12.5t-18.5 -26h-55l45 340l55 -6q9 -76 31.5 -132t45.5 -82t52.5 -40.5t42.5 -16t25 -1.5q54 0 85.5 34.5t31.5 77.5q0 79 -115 211q-88 102 -126 173t-38 159q0 65 24 116t64 80.5t87.5 44.5t99.5 15q55 0 109.5 -22.5t84.5 -22.5q22 0 32 8t26 35
h59z" />
    <glyph glyph-name="t" unicode="t" horiz-adv-x="569" 
d="M575 920v-86h-169q-20 -72 -72.5 -255.5t-79.5 -287.5t-27 -135q0 -11 7.5 -19t14 -10t9.5 -2q55 0 158 164l45 -29q-32 -51 -49.5 -76.5t-54.5 -71t-67.5 -69t-74.5 -42.5t-90 -19q-41 0 -71.5 13.5t-44.5 30t-22 39.5t-9 33.5t-1 20.5q0 24 10.5 73t31 124t41.5 148
t52.5 181.5t53.5 188.5h-105v71q43 17 75.5 33t87 51.5t109 93.5t103.5 134h72l-80 -297h147z" />
    <glyph glyph-name="u" unicode="u" horiz-adv-x="1138" 
d="M965 272l43 -26q-147 -264 -326 -264q-137 0 -137 114q0 41 8.5 86t14.5 65t22 68l-4 2q-49 -68 -74 -101.5t-63 -80.5t-63 -68.5t-59 -44.5t-67 -31.5t-72 -8.5q-45 0 -77 13t-47 28.5t-23 42t-9 40t-1 35.5q0 73 76.5 324.5t76.5 308.5q0 19 -7 31t-25 17.5t-33.5 7.5
t-48.5 4v55q80 4 179.5 17.5t170.5 26.5t78 13l-193 -631q-31 -97 -31 -137q0 -49 48 -49q29 0 66.5 30t71.5 74.5t58 80t37 59.5q63 113 104.5 230.5t98.5 316.5h241q-3 -10 -67 -225.5t-104 -360.5t-40 -174q0 -39 31 -39q22 0 56.5 34.5t54 62.5t35.5 54z" />
    <glyph glyph-name="v" unicode="v" horiz-adv-x="909" 
d="M33 834v55q207 29 317 57q33 -121 45.5 -256.5t18.5 -427.5q149 167 203.5 251.5t54.5 131.5q0 23 -14 45t-31 38t-31 42.5t-14 58.5q0 48 35 81.5t75 35.5q47 0 88 -38.5t41 -100.5q0 -281 -594 -834h-53l8 279v86q0 243 -28 383q-7 34 -15 55t-15.5 33.5t-23.5 17.5
t-27.5 6t-39.5 1z" />
    <glyph glyph-name="w" unicode="w" horiz-adv-x="1366" 
d="M33 834v55q86 12 317 57q33 -121 49 -246.5t19 -310.5h4q30 53 95 173.5t116.5 210.5t103.5 173h56l65 -680q45 52 71.5 84.5t74.5 95t73 110.5t25 77q0 35 -42 92.5t-42 99.5q0 44 33.5 82.5t81.5 38.5q44 0 84 -34.5t40 -98.5q0 -72 -52 -179t-116.5 -199t-157.5 -203
t-137.5 -159.5t-93.5 -99.5h-55q-26 328 -47 578h-4q-14 -29 -104 -188t-123 -213l-117 -177h-55l4 174l-4 160q-7 256 -39 414q-9 43 -17 65.5t-25 33.5t-31.5 12.5t-49.5 1.5z" />
    <glyph glyph-name="x" unicode="x" 
d="M819 252l43 -29q-30 -45 -53 -74.5t-66.5 -77t-91 -73t-94.5 -25.5q-76 0 -124.5 71.5t-78.5 246.5q-35 -60 -63 -105q-75 -124 -129 -168.5t-129 -44.5q-38 0 -65.5 14t-39.5 35.5t-17 39.5t-5 34q0 40 29.5 76.5t76.5 36.5h6q42 -2 75.5 -22.5t51.5 -20.5q49 0 97 84
l90 143l-62 316q-8 39 -19.5 66.5t-21.5 41t-25.5 20.5t-24.5 8t-25 1q-30 0 -70 -4v55l342 49q30 -41 48 -98.5t44 -183.5q116 164 184 223t146 59q46 0 79.5 -41t33.5 -82v-4q-2 -42 -34 -74t-81 -32q-30 0 -64 20.5t-57 20.5q-20 0 -43 -15.5t-45 -42t-38.5 -50
t-34.5 -52.5t-23 -35l65 -319q5 -25 9 -38t12.5 -32.5t23 -29t33.5 -9.5q20 0 43 17.5t39 36.5t53 67z" />
    <glyph glyph-name="y" unicode="y" horiz-adv-x="909" 
d="M29 842v55q175 15 305 49q27 -66 67.5 -241.5t67.5 -325.5l25 -148h4q60 116 88.5 173.5t57 129.5t28.5 107q0 25 -11.5 42t-28 27.5t-33.5 23t-28.5 37t-11.5 60.5q0 41 34 78t81 37q51 0 90 -38t39 -89q0 -35 -7.5 -77t-20 -84t-30.5 -89.5t-36.5 -89t-40.5 -87
t-40.5 -80t-38.5 -71t-32.5 -57t-24.5 -40.5l-12 -21q-166 -274 -306 -408.5t-286 -134.5q-53 0 -87 39t-34 84q0 37 27 75t82 38q19 0 54 -12.5t50 -22.5q59 -37 84 -37q28 0 72 36t79.5 95t35.5 113q0 116 -92 542q-21 95 -37.5 152t-29 91.5t-30 48.5t-31 17t-42.5 3z
" />
    <glyph glyph-name="z" unicode="z" horiz-adv-x="796" 
d="M27 604l88 316h639v-21l-576 -686q66 -26 113 -68t70 -83t41.5 -78.5t40.5 -60.5t53 -23q19 0 31 9.5t12 20.5q0 12 -20.5 39.5t-20.5 61.5q0 37 29.5 69.5t70.5 32.5q37 0 74 -27t37 -83q0 -27 -13 -57.5t-38 -59.5t-69.5 -47.5t-99.5 -18.5q-56 0 -109 17.5t-93 42.5
t-76.5 50t-72 42.5t-66.5 17.5q-23 0 -36.5 -7t-72.5 -50l-51 45l598 725h-297q-24 0 -44 -9t-32 -20t-24 -31.5t-16.5 -32t-12.5 -32.5z" />
    <glyph glyph-name="braceleft" unicode="{" horiz-adv-x="712" 
d="M604 1126l-92 -350q-15 -59 -33.5 -98t-52 -73.5t-86 -56.5t-129.5 -36v-4q105 -27 142.5 -59t37.5 -99q0 -53 -60.5 -268.5t-60.5 -276.5q0 -65 35 -107t131 -56l-6 -25q-145 0 -227.5 21.5t-114 62.5t-31.5 109q0 63 62.5 287t62.5 259q0 64 -40 97.5t-132 56.5
q136 28 195 80.5t86 157.5l94 366q19 74 52.5 126.5t75.5 84t103.5 50t125 24.5t151.5 6l-6 -25q-126 -23 -190 -83t-93 -171z" />
    <glyph glyph-name="bar" unicode="|" horiz-adv-x="450" 
d="M135 1602h180v-2048h-180v2048z" />
    <glyph glyph-name="braceright" unicode="}" horiz-adv-x="712" 
d="M25 -104l92 350q15 59 33.5 98t52 73.5t86 56.5t129.5 36v4q-105 27 -142.5 59t-37.5 99q0 53 60 268.5t60 276.5q0 65 -34.5 107t-130.5 56l6 25q145 0 227 -21.5t113.5 -62t31.5 -109.5q0 -63 -62.5 -287t-62.5 -259q0 -64 40 -97.5t132 -56.5q-136 -28 -194.5 -80.5
t-85.5 -157.5l-94 -366q-19 -74 -52.5 -126.5t-75.5 -84t-103.5 -50t-125 -24.5t-151.5 -6l6 25q126 23 190 83t93 171z" />
    <glyph glyph-name="asciitilde" unicode="~" horiz-adv-x="1167" 
d="M983 682l74 -143q-29 -41 -49 -65.5t-52.5 -54t-71 -43.5t-83.5 -14q-84 0 -209 68q-128 72 -236 72q-61 0 -101.5 -41t-70.5 -107l-73 144q92 176 256 176q80 0 227 -66q12 -5 44 -19.5t48 -21t40.5 -15.5t42.5 -13t34 -4q29 0 55 11.5t49.5 36t38 44.5t37.5 55z" />
    <glyph glyph-name="uni00A0" unicode="&#xa0;" horiz-adv-x="512" 
 />
    <glyph glyph-name="exclamdown" unicode="&#xa1;" horiz-adv-x="796" 
d="M395 563l60 -16q-100 -516 -111 -770q-4 -78 -44 -137.5t-122 -59.5q-17 0 -37 5.5t-45 20t-41 47.5t-16 79q0 60 29 114q28 52 71.5 138t120.5 256.5t135 322.5zM512 713q-65 0 -110.5 45.5t-45.5 105.5q0 58 43.5 101t110.5 43q66 0 107.5 -41.5t41.5 -102.5
q0 -68 -45.5 -109.5t-101.5 -41.5z" />
    <glyph glyph-name="cent" unicode="&#xa2;" 
d="M438 117l256 729v4q0 29 -49 29q-60 0 -118 -68.5t-96 -163.5t-61.5 -187.5t-23.5 -146.5q0 -157 92 -196zM883 1180l-92 -260q53 -26 80.5 -68.5t27.5 -93.5q0 -62 -39.5 -101t-89.5 -39q-49 0 -76 23l-188 -535q120 3 242 183l55 -37q-35 -49 -53.5 -74t-54.5 -65
t-66.5 -62t-74.5 -42.5t-93 -28.5l-96 -273h-70l94 266q-36 0 -74 8.5t-80 31t-74.5 57t-53.5 91t-21 128.5q0 118 51.5 238.5t132.5 212t186 149t206 57.5q35 0 65 -6l84 240h72z" />
    <glyph glyph-name="sterling" unicode="&#xa3;" 
d="M807 758l-21 -123h-235q-15 -77 -55.5 -184t-75.5 -162l-23 -35q171 -66 242 -66q51 0 85 8.5t56 29.5t32 38t26 53h51q-63 -342 -320 -342q-110 0 -250 125q-17 -26 -28.5 -41t-36.5 -37.5t-60 -33.5t-81 -11q-77 0 -128 51.5t-51 121.5q0 86 56.5 134t132.5 48
q31 0 57 -4.5t37.5 -9t38.5 -15.5q3 28 16.5 148.5t22.5 183.5h-223l20 123h215q21 126 57 228t75.5 167t88 113.5t89 73t85 39t69 17.5t46.5 3q89 0 158 -48.5t69 -140.5q0 -63 -38.5 -100t-85.5 -37q-39 0 -74 27.5t-35 77.5q0 24 7 60.5t7 45.5q0 22 -13.5 33.5
t-33.5 11.5q-47 0 -79 -41t-46 -117l-80 -413h234zM-4 137q0 -48 37 -73t78 -25q94 0 120 145q-67 62 -131 62q-40 0 -72 -24.5t-32 -84.5z" />
    <glyph glyph-name="currency" unicode="&#xa4;" 
d="M772 637q0 110 -75 190t-187 80q-108 0 -183 -80.5t-75 -189.5q0 -112 74.5 -193.5t183.5 -81.5q112 0 187 81.5t75 193.5zM-53 188l200 201q-75 101 -75 248q0 145 75 248l-200 200l119 115l196 -196q104 71 248 71q148 0 252 -71l196 196l119 -115l-200 -200
q75 -110 75 -248q0 -154 -75 -248l200 -201l-119 -118l-196 200q-110 -75 -252 -75q-138 0 -248 75l-196 -200z" />
    <glyph glyph-name="yen" unicode="&#xa5;" 
d="M1032 700l-26 -102h-308l-43 -160h312l-29 -102h-311l-11 -39q-10 -39 -14 -56.5t-9 -48t-5 -51.5q0 -25 8.5 -41.5t19.5 -25.5t37 -14t43.5 -6t57.5 -3v-51h-660v51q48 4 70 6.5t52 11.5t45 23.5t30 40.5t26 66l39 137h-288l28 102h289l45 160h-291l29 102h256l-162 490
q-12 30 -20 48t-20 32.5t-19.5 21t-27 12.5t-33.5 8.5t-48 6.5v51h574v-51q-91 0 -122.5 -18t-31.5 -56q0 -27 70 -241t106 -299l277 397q37 53 45 75.5t8 57.5q0 42 -30.5 63t-112.5 21v51h409v-51q-63 -11 -103.5 -44t-86.5 -97l-340 -478h276z" />
    <glyph glyph-name="brokenbar" unicode="&#xa6;" horiz-adv-x="450" 
d="M135 1448h180v-717h-180v717zM135 424h180v-717h-180v717z" />
    <glyph glyph-name="section" unicode="&#xa7;" 
d="M190 45q25 0 49 -7.5t46 -32.5t22 -64q0 -30 -11 -51.5t-24.5 -31t-24.5 -21.5t-11 -25q0 -25 47 -41.5t88 -16.5q24 0 51.5 7t57.5 22.5t49.5 48t19.5 76.5q0 56 -30.5 105t-139.5 182l-135 163q-105 128 -105 246q0 67 20.5 120.5t53.5 84t69 46t72 15.5q59 0 99 -12
l4 6q-17 17 -39 47.5t-48 93t-26 121.5q0 123 88 200t219 77q143 0 216 -60.5t73 -138.5q0 -66 -38.5 -96.5t-80.5 -30.5q-46 0 -79 33.5t-33 75.5q0 26 11.5 45t25 27.5t25 20t11.5 24.5q0 20 -35 37.5t-88 17.5q-81 0 -126.5 -45t-45.5 -107q0 -39 24 -87.5t48 -79
t68 -83.5l141 -165q45 -51 84 -128t39 -161q0 -111 -73 -182.5t-167 -71.5q-29 0 -61 8l-4 -8q26 -33 38 -49t36 -55t35.5 -79.5t11.5 -82.5q0 -116 -98 -195.5t-234 -79.5q-132 0 -216.5 62.5t-84.5 152.5q0 57 35 90t81 33zM285 696q0 -45 36 -109.5t62.5 -96.5t38.5 -44
q81 -89 120 -116t83 -27t82 33t38 94q0 59 -61.5 152.5t-144 165t-136.5 71.5q-51 0 -84.5 -33t-33.5 -90z" />
    <glyph glyph-name="dieresis" unicode="&#xa8;" horiz-adv-x="681" 
d="M113 1266q0 45 36.5 90t98.5 45q58 0 99.5 -41t41.5 -98q0 -56 -41 -96t-100 -40q-65 0 -100 45.5t-35 94.5zM547 1266q0 45 36.5 90t98.5 45q58 0 99.5 -41t41.5 -98q0 -56 -41 -96t-100 -40q-65 0 -100 45.5t-35 94.5z" />
    <glyph glyph-name="copyright" unicode="&#xa9;" horiz-adv-x="1529" 
d="M766 -37q-146 0 -276.5 56.5t-224.5 152.5t-149 229t-55 281q0 147 55 280.5t149 230t225 153.5t276 57q194 0 356 -96t255 -261.5t93 -363.5t-93 -363t-255 -260.5t-356 -95.5zM766 57q159 0 293 86t210.5 229.5t76.5 309.5t-76.5 310t-211 230.5t-292.5 86.5
t-292.5 -86.5t-211 -230.5t-76.5 -310q0 -124 46 -239t123 -200t185 -135.5t226 -50.5zM1077 512h37l-35 -147q0 -12 -8 -19.5t-15 -10t-30 -9.5q-109 -39 -219 -39q-94 0 -172.5 24.5t-138.5 73.5t-93.5 129.5t-33.5 185.5q0 54 15.5 108.5t51 108t86 94.5t128.5 66t171 25
q51 0 94.5 -6.5t62 -12t56.5 -18.5q45 -14 45 -43v-145h-35q-6 35 -20 65.5t-39.5 58.5t-68.5 44t-99 16q-134 0 -203 -95.5t-71 -254.5v-9q0 -169 69.5 -268.5t214.5 -99.5q176 0 250 178z" />
    <glyph glyph-name="ordfeminine" unicode="&#xaa;" horiz-adv-x="544" 
d="M520 1384l156 9l-94 -287q-45 -142 -45 -182q0 -19 12 -19q7 0 15.5 5.5t19.5 16.5t18.5 19.5t21 24.5t17.5 20l27 -18q-106 -156 -201 -156q-27 0 -57.5 20.5t-30.5 61.5q0 16 12 66l2 8l-4 4q-89 -158 -209 -158q-46 0 -78.5 18.5t-45.5 47.5t-18 51t-5 43
q0 66 33.5 142t84.5 138t117 103t127 41q85 0 101 -84h4zM193 977q0 -26 10.5 -42t19.5 -20t15 -4q54 0 104.5 78.5t77 165t26.5 133.5q0 25 -12 42.5t-26 17.5q-44 0 -96.5 -74t-85.5 -161.5t-33 -135.5z" />
    <glyph glyph-name="guillemotleft" unicode="&#xab;" 
d="M281 451l81 -170q68 -140 68 -183q0 -14 -9 -23t-20 -9t-17 5t-32 33q-99 108 -327 340v19q51 37 185 135t185 135q26 19 62 51t58 49t36 17q13 0 21 -7.5t8 -17.5q0 -21 -18.5 -53t-53.5 -73.5t-68.5 -77.5t-82.5 -87.5t-76 -82.5zM659 451l82 -170q68 -140 68 -183
q0 -14 -9 -23t-20 -9t-17 5t-32 33q-85 92 -328 340v19q51 37 185.5 135t185.5 135q26 19 62 51t58 49t36 17q13 0 20.5 -7.5t7.5 -17.5q0 -21 -18.5 -53t-53.5 -73.5t-68.5 -77.5t-82.5 -87.5t-76 -82.5z" />
    <glyph glyph-name="logicalnot" unicode="&#xac;" horiz-adv-x="1241" 
d="M956 221v416h-852v180h1033v-596h-181z" />
    <glyph glyph-name="uni00AD" unicode="&#xad;" horiz-adv-x="681" 
d="M555 578l-47 -238h-504l49 238h502z" />
    <glyph glyph-name="registered" unicode="&#xae;" horiz-adv-x="1529" 
d="M766 -37q-146 0 -276.5 56.5t-224.5 152.5t-149 229t-55 281q0 147 55 280.5t149 230t225 153.5t276 57q194 0 356 -96t255 -261.5t93 -363.5t-93 -363t-255 -260.5t-356 -95.5zM766 57q159 0 293 86t210.5 229.5t76.5 309.5t-76.5 310t-211 230.5t-292.5 86.5
t-292.5 -86.5t-211 -230.5t-76.5 -310q0 -124 46 -239t123 -200t185 -135.5t226 -50.5zM430 1047v32h375q103 0 171 -49t68 -143q0 -76 -45.5 -133.5t-119.5 -81.5l120 -168q87 -123 152 -172v-23h-143q-31 0 -61 39t-86 138.5t-99 162.5h-90v-219q0 -57 13 -69t85 -19v-33
h-340v33q69 8 82.5 18.5t13.5 61.5v547q0 49 -13.5 59.5t-82.5 18.5zM672 1036v-346h84q70 0 104.5 51.5t34.5 137.5q0 157 -141 157h-82z" />
    <glyph glyph-name="macron" unicode="&#xaf;" horiz-adv-x="681" 
d="M805 1276l-33 -143h-668l35 143h666z" />
    <glyph glyph-name="degree" unicode="&#xb0;" horiz-adv-x="819" 
d="M463 887q87 0 148 65t61 154t-61 154t-148 65t-148 -65t-61 -154t61 -154t148 -65zM463 813q-123 0 -208 85t-85 208t85 208t208 85t208 -85t85 -208t-85 -208t-208 -85z" />
    <glyph glyph-name="plusminus" unicode="&#xb1;" horiz-adv-x="1167" 
d="M494 735v301h180v-301h426v-180h-426v-293h-180v293h-426v180h426zM68 0v180h1032v-180h-1032z" />
    <glyph glyph-name="twosuperior" unicode="&#xb2;" horiz-adv-x="614" 
d="M596 795l-104 -234h-488v33q172 163 211.5 202t91.5 95q71 80 107.5 136t36.5 106q0 14 -1 25t-7 34.5t-17.5 39.5t-36.5 29t-59 13q-27 0 -52 -8t-44.5 -22t-31.5 -25t-25.5 -26.5t-14.5 -16.5l-37 22q17 34 39 64t58 63.5t88.5 53.5t113.5 20q98 0 157.5 -63.5
t59.5 -141.5q0 -80 -55 -154.5t-133 -130.5l-252 -202v-5h178q77 0 113 19t71 74h33z" />
    <glyph glyph-name="threesuperior" unicode="&#xb3;" horiz-adv-x="614" 
d="M225 985l4 29q248 42 248 174q0 42 -26 74t-82 32q-39 0 -72 -15.5t-46.5 -28.5t-39.5 -42l-29 27q109 164 277 164q46 0 89.5 -17t76 -57t32.5 -94q0 -110 -147 -176l-14 -8q52 -34 79 -75t27 -110q0 -131 -116 -225t-273 -94q-47 0 -82.5 8.5t-53 20t-28 26.5
t-12.5 23.5t-2 15.5q0 42 20 67t56 25q29 0 53.5 -19.5t64.5 -76.5q16 -23 60 -23q58 0 99.5 55t41.5 128q0 93 -53 142.5t-152 49.5z" />
    <glyph glyph-name="acute" unicode="&#xb4;" horiz-adv-x="681" 
d="M385 1057h-100l250 268q37 39 52.5 53.5t41.5 31.5t47 17q37 0 68.5 -25t31.5 -71q0 -32 -19 -52t-61 -44z" />
    <glyph glyph-name="mu" unicode="&#xb5;" horiz-adv-x="1089" 
d="M979 246q-58 -105 -100 -153q-96 -111 -209 -111q-31 0 -53.5 3.5t-48 14.5t-39 37t-13.5 65q0 22 1.5 40t6.5 40.5t8 34.5t13.5 46.5t15.5 51.5q-116 -176 -213 -254.5t-194 -78.5q-56 0 -83.5 21t-41.5 83q-47 -135 -47 -362v-23q0 -123 -109 -123q-88 0 -88 90
q0 34 33 106.5t79 172.5t68 178l221 795h246l-168 -592q-2 -8 -13 -44.5t-16.5 -58.5t-5.5 -35q0 -40 10 -52.5t42 -12.5q52 0 115 64.5t116 158.5t95 190.5t61 168.5l57 213h238l-191 -695q-12 -34 -12 -73q0 -31 31 -31q51 0 145 151z" />
    <glyph glyph-name="paragraph" unicode="&#xb6;" 
d="M676 1319l-445 -1714h-348l15 51q107 10 136 22q27 12 36 33q26 65 45 150l174 667q-297 0 -297 283q0 87 41.5 218t113.5 206q130 135 400 135h604l-12 -51q-110 -10 -139 -23q-28 -12 -37 -32q-19 -48 -45 -150l-326 -1253q-30 -132 -33 -150v-2q0 -38 135 -51
q10 -1 15 -2l-15 -51h-350l444 1714h-112zM301 580l193 739q-95 -22 -147.5 -58t-100.5 -116q-38 -61 -65 -159.5t-27 -176.5t40.5 -142t106.5 -87z" />
    <glyph glyph-name="periodcentered" unicode="&#xb7;" horiz-adv-x="512" 
d="M256 829q63 0 107.5 -44t44.5 -107q0 -64 -44.5 -108t-107.5 -44q-66 0 -109 44t-43 108q0 62 43.5 106.5t108.5 44.5z" />
    <glyph glyph-name="cedilla" unicode="&#xb8;" horiz-adv-x="681" 
d="M-51 -188l135 198h90l-92 -137q27 6 53 6q17 0 38 -3.5t47.5 -13.5t48 -25t36 -42.5t14.5 -62.5q0 -60 -42.5 -102.5t-98 -59t-115.5 -16.5q-100 0 -227 51l45 67q76 -34 142 -34q49 0 79.5 22t30.5 61q0 6 -0.5 11.5t-5.5 18t-14 21t-28.5 16t-45.5 7.5q-32 0 -64 -8z
" />
    <glyph glyph-name="onesuperior" unicode="&#xb9;" horiz-adv-x="614" 
d="M61 561v39q25 0 41.5 2t40.5 8.5t42 24t30 45.5q15 46 46 143t49 154t39.5 126t31.5 106t10 46q-3 19 -16.5 30t-21 12t-13.5 1q-9 0 -90 -6l4 43q145 22 362 64l-204 -676q-13 -48 -13 -68q0 -37 25 -46t96 -9v-39h-459z" />
    <glyph glyph-name="ordmasculine" unicode="&#xba;" horiz-adv-x="614" 
d="M545 1288q0 41 -15.5 57.5t-35.5 16.5q-51 0 -94 -54t-67.5 -128t-38 -139.5t-13.5 -100.5q0 -80 59 -80q44 0 85 53.5t66 126.5t39.5 141.5t14.5 106.5zM711 1214q0 -92 -50 -183t-139.5 -151.5t-191.5 -60.5q-87 0 -151 49t-64 133q0 95 51.5 187.5t141.5 153.5t192 61
q19 0 42 -3.5t54 -16t55.5 -32t42 -55.5t17.5 -82z" />
    <glyph glyph-name="guillemotright" unicode="&#xbb;" 
d="M702 465l-81 170q-68 140 -68 182q0 14 9 23.5t20 9.5q10 0 16.5 -5t32.5 -34q99 -108 327 -340v-18q-51 -37 -185 -135.5t-185 -135.5q-26 -19 -62 -51t-58 -48.5t-36 -16.5q-13 0 -21 7t-8 17q0 21 18 53t53.5 73.5t69 78t82.5 88.5t76 82zM324 465l-82 170
q-68 140 -68 182q0 14 9 23.5t20 9.5t17 -5t32 -34q85 -92 328 -340v-18q-51 -37 -185.5 -135.5t-185.5 -135.5q-26 -19 -62 -51t-58 -48.5t-36 -16.5q-13 0 -20.5 7t-7.5 17q0 21 18 53t53.5 73.5t69 78t82.5 88.5t76 82z" />
    <glyph glyph-name="onequarter" unicode="&#xbc;" horiz-adv-x="1536" 
d="M1382 840h95l-160 -535h92l-35 -125h-90l-57 -180h-176l55 180h-326l33 137zM870 305h271l104 336h-2l-4 4zM1169 1399h119v-4l-891 -1424h-118zM569 1399l-204 -676q-13 -48 -13 -68q0 -37 25 -46t96 -9v-39h-459v39q25 0 41.5 2t40.5 8.5t42 24t30 45.5q15 46 46 143
t49 154t39.5 126t31.5 106t10 46q-3 19 -16.5 30t-21 12t-13.5 1q-9 0 -90 -6l4 43q145 22 362 64z" />
    <glyph glyph-name="onehalf" unicode="&#xbd;" horiz-adv-x="1536" 
d="M1257 1399v-4l-890 -1424h-119l891 1428h118zM1436 233l-105 -233h-487v33q172 163 211.5 202t91.5 95q71 80 107 135.5t36 105.5q0 11 -0.5 19.5t-3.5 27.5t-11 33.5t-20.5 29.5t-34.5 23.5t-51 8.5q-27 0 -52 -8t-44.5 -22.5t-31.5 -25.5t-25.5 -26.5t-14.5 -16.5
l-36 23q17 34 39 64t58 63.5t88.5 53.5t113.5 20q98 0 157.5 -63.5t59.5 -141.5q0 -80 -55.5 -154.5t-133.5 -130.5l-252 -203v-4h179q77 0 113 19t71 73h33zM-18 561v39q25 0 41.5 2t40 8.5t41.5 24t30 45.5q15 46 46 143t49 154t39.5 126t31.5 106t10 46q-3 19 -16.5 30
t-21 12t-13.5 1q-9 0 -90 -6l4 43q150 22 363 64l-205 -676q-13 -48 -13 -68q0 -37 25 -46t96 -9v-39h-458z" />
    <glyph glyph-name="threequarters" unicode="&#xbe;" horiz-adv-x="1536" 
d="M1180 1399h118v-4l-890 -1424h-119zM190 1208l-28 27q109 164 276 164q74 0 136.5 -44.5t62.5 -123.5q0 -110 -148 -176l-14 -8q52 -34 79.5 -75t27.5 -110q0 -131 -116 -225t-273 -94q-47 0 -82.5 8.5t-53 20t-28.5 26.5t-13 23.5t-2 15.5q0 42 20 67t56 25
q29 0 54 -19.5t65 -76.5q16 -23 59 -23q58 0 100 55t42 128q0 93 -53 142.5t-152 49.5l4 29q248 42 248 174q0 42 -26.5 74t-82.5 32q-39 0 -72 -15.5t-46.5 -28.5t-39.5 -42zM1393 840h94l-160 -535h92l-35 -125h-90l-57 -180h-176l55 180h-325l32 137zM881 305h270
l104 336h-2l-4 4z" />
    <glyph glyph-name="questiondown" unicode="&#xbf;" 
d="M623 555l59 -14q-4 -46 -12 -82t-41.5 -104t-91.5 -140l-84 -104q-131 -161 -131 -299q0 -91 42.5 -129.5t100.5 -38.5q45 0 85 23t40 54q0 15 -15 34.5t-30 46t-15 59.5q0 51 37 86t88 35q53 0 89 -40t36 -96q0 -109 -96.5 -187.5t-257.5 -78.5q-87 0 -154.5 22t-106 54
t-63.5 74t-33 77t-8 68q0 58 20 108.5t59 94t79.5 76t99.5 71.5l136 88q61 40 94 90t74 152zM711 1008q63 0 107 -44.5t44 -107.5q0 -64 -44 -107.5t-107 -43.5q-67 0 -109.5 43.5t-42.5 107.5q0 63 43.5 107.5t108.5 44.5z" />
    <glyph glyph-name="Agrave" unicode="&#xc0;" horiz-adv-x="1366" 
d="M1214 51v-51h-622v51q35 3 53 5.5t43 9.5t36.5 18.5t20.5 32t9 49.5q0 41 -31 260h-440l-121 -209q-31 -52 -31 -94q0 -72 133 -72v-51h-401v51q35 9 54 17.5t49.5 39t66.5 87.5l762 1204h51l196 -1172q5 -32 9 -54t11.5 -41t11.5 -29.5t17 -20t19.5 -13.5t27.5 -8.5
t33 -5.5t43 -4zM330 508h379l-76 498zM961 1481h-93l-272 182q-70 47 -70 96q0 34 26.5 63t65.5 29q56 0 115 -69z" />
    <glyph glyph-name="Aacute" unicode="&#xc1;" horiz-adv-x="1366" 
d="M1214 51v-51h-622v51q35 3 53 5.5t43 9.5t36.5 18.5t20.5 32t9 49.5q0 41 -31 260h-440l-121 -209q-31 -52 -31 -94q0 -72 133 -72v-51h-401v51q35 9 54 17.5t49.5 39t66.5 87.5l762 1204h51l196 -1172q5 -32 9 -54t11.5 -41t11.5 -29.5t17 -20t19.5 -13.5t27.5 -8.5
t33 -5.5t43 -4zM330 508h379l-76 498zM737 1481h-100l250 268q37 39 52.5 53.5t41.5 31.5t47 17q37 0 68.5 -25t31.5 -71q0 -32 -19 -52t-60 -44z" />
    <glyph glyph-name="Acircumflex" unicode="&#xc2;" horiz-adv-x="1366" 
d="M1214 51v-51h-622v51q35 3 53 5.5t43 9.5t36.5 18.5t20.5 32t9 49.5q0 41 -31 260h-440l-121 -209q-31 -52 -31 -94q0 -72 133 -72v-51h-401v51q35 9 54 17.5t49.5 39t66.5 87.5l762 1204h51l196 -1172q5 -32 9 -54t11.5 -41t11.5 -29.5t17 -20t19.5 -13.5t27.5 -8.5
t33 -5.5t43 -4zM330 508h379l-76 498zM1030 1481l-180 194l-268 -194h-117l328 356h165l177 -356h-105z" />
    <glyph glyph-name="Atilde" unicode="&#xc3;" horiz-adv-x="1366" 
d="M1214 51v-51h-622v51q35 3 53 5.5t43 9.5t36.5 18.5t20.5 32t9 49.5q0 41 -31 260h-440l-121 -209q-31 -52 -31 -94q0 -72 133 -72v-51h-401v51q35 9 54 17.5t49.5 39t66.5 87.5l762 1204h51l196 -1172q5 -32 9 -54t11.5 -41t11.5 -29.5t17 -20t19.5 -13.5t27.5 -8.5
t33 -5.5t43 -4zM330 508h379l-76 498zM1092 1765h84q-8 -31 -15 -54t-26.5 -61.5t-43.5 -63.5t-65 -44.5t-92 -19.5q-50 0 -115 26l-121 47q-49 17 -73 17t-42 -7t-30 -23t-17 -26.5t-14 -31.5h-82q0 5 5 27t22 59.5t41.5 71t70 58.5t101.5 25q63 0 171.5 -43t131.5 -43
q25 0 43.5 7t31.5 22.5t19 26t15 30.5z" />
    <glyph glyph-name="Adieresis" unicode="&#xc4;" horiz-adv-x="1366" 
d="M1214 51v-51h-622v51q35 3 53 5.5t43 9.5t36.5 18.5t20.5 32t9 49.5q0 41 -31 260h-440l-121 -209q-31 -52 -31 -94q0 -72 133 -72v-51h-401v51q35 9 54 17.5t49.5 39t66.5 87.5l762 1204h51l196 -1172q5 -32 9 -54t11.5 -41t11.5 -29.5t17 -20t19.5 -13.5t27.5 -8.5
t33 -5.5t43 -4zM330 508h379l-76 498zM455 1630q0 45 36.5 90t98.5 45q58 0 99.5 -41t41.5 -98q0 -56 -40.5 -95.5t-100.5 -39.5q-65 0 -100 45t-35 94zM889 1630q0 45 36.5 90t98.5 45q58 0 99.5 -41t41.5 -98q0 -56 -40.5 -95.5t-100.5 -39.5q-65 0 -100 45t-35 94z" />
    <glyph glyph-name="Aring" unicode="&#xc5;" horiz-adv-x="1366" 
d="M1214 51v-51h-622v51q35 3 53 5.5t43 9.5t36.5 18.5t20.5 32t9 49.5q0 41 -31 260h-440l-121 -209q-31 -52 -31 -94q0 -72 133 -72v-51h-401v51q35 9 54 17.5t49.5 39t66.5 87.5l762 1204h51l196 -1172q5 -32 9 -54t11.5 -41t11.5 -29.5t17 -20t19.5 -13.5t27.5 -8.5
t33 -5.5t43 -4zM330 508h379l-76 498zM582 1669q0 90 64.5 153.5t154.5 63.5q89 0 153 -64t64 -153q0 -91 -64 -155t-153 -64q-90 0 -154.5 63.5t-64.5 155.5zM920 1667q0 50 -36 85.5t-87 35.5q-53 0 -85 -39.5t-32 -79.5q0 -41 30.5 -81t86.5 -40q52 0 87.5 35.5
t35.5 83.5z" />
    <glyph glyph-name="AE" unicode="&#xc6;" horiz-adv-x="1933" 
d="M700 197l95 325h-394l-233 -321q-31 -45 -31 -78q0 -21 10.5 -35.5t31 -21.5t40.5 -10t49 -5v-51h-399v51q50 7 72 26.5t108 131.5l750 967q41 52 41 88q0 12 -4.5 21t-16.5 15t-23 9.5t-34.5 6.5t-39 4t-48.5 3v47h1206l-92 -389l-49 10l-4 82q-3 66 -31 113t-75 72
t-101 36t-119 11q-40 0 -64 -3.5t-36.5 -13.5t-16.5 -19t-10 -30l-133 -481h37q74 0 124 8t95 31.5t78.5 66.5t62.5 111l53 -8l-149 -559l-51 10q1 10 2.5 29t2.5 34t1 29q0 46 -10 76.5t-27.5 50t-53.5 31t-75.5 16.5t-105.5 8l-129 -493q-11 -50 -11 -58q0 -75 99 -75
q154 0 260.5 35.5t183 107t152.5 199.5l53 -7l-121 -401h-1079v51q78 13 106 36.5t53 109.5zM461 602h354l189 682h-25z" />
    <glyph glyph-name="Ccedilla" unicode="&#xc7;" horiz-adv-x="1366" 
d="M1386 1403l-104 -479l-65 12q6 35 6 70q0 152 -70.5 238.5t-202.5 86.5q-118 0 -227 -88.5t-182 -222.5t-116.5 -289.5t-43.5 -292.5q0 -75 15.5 -135.5t37.5 -98t54.5 -64.5t58.5 -39.5t58 -19.5t45 -8t26 -1q128 0 231 53t211 188l62 -45q-80 -122 -207.5 -206
t-294.5 -95l-64 -94q27 6 54 6q17 0 38 -3.5t47.5 -13.5t48 -25t36 -42.5t14.5 -62.5q0 -60 -42.5 -102.5t-98 -59t-115.5 -16.5q-100 0 -227 51l45 67q76 -34 141 -34q49 0 80 22t31 61q0 5 -0.5 11t-6 18.5t-14.5 21.5t-28.5 16t-45.5 7q-31 0 -63 -8l-27 25l105 153
q-78 4 -151.5 25t-141 64t-117.5 102.5t-80 146t-30 189.5q0 136 38.5 269t113 248.5t175 203.5t233 139t277.5 51q77 0 151 -15t123 -30t66 -15q21 0 37 9t24 19.5t21 31.5h61z" />
    <glyph glyph-name="Egrave" unicode="&#xc8;" horiz-adv-x="1366" 
d="M1200 397l-121 -397h-1134v51q32 5 46 8.5t36 13t33.5 23.5t25 40t23.5 63l251 919q21 84 21 115q0 48 -25 60.5t-125 25.5v51h1106l-88 -389l-55 10q0 44 -1 66.5t-8 61.5t-21 60.5t-42 49t-68.5 41.5t-103 24.5t-143.5 10.5q-60 0 -82.5 -21t-36.5 -70l-125 -456h41
q49 0 87.5 2.5t70.5 10t54.5 14t44 23.5t34.5 28.5t30.5 38.5t27.5 45t30 55l57 -8l-151 -559l-58 10q9 55 9 82q0 113 -61 152.5t-234 39.5l-115 -428q-4 -16 -12 -45.5t-13.5 -50.5t-5.5 -29q0 -38 26.5 -55.5t106.5 -17.5q430 0 617 342zM961 1481h-93l-272 182
q-70 47 -70 96q0 34 26.5 63t65.5 29q56 0 115 -69z" />
    <glyph glyph-name="Eacute" unicode="&#xc9;" horiz-adv-x="1366" 
d="M1200 397l-121 -397h-1134v51q32 5 46 8.5t36 13t33.5 23.5t25 40t23.5 63l251 919q21 84 21 115q0 48 -25 60.5t-125 25.5v51h1106l-88 -389l-55 10q0 44 -1 66.5t-8 61.5t-21 60.5t-42 49t-68.5 41.5t-103 24.5t-143.5 10.5q-60 0 -82.5 -21t-36.5 -70l-125 -456h41
q49 0 87.5 2.5t70.5 10t54.5 14t44 23.5t34.5 28.5t30.5 38.5t27.5 45t30 55l57 -8l-151 -559l-58 10q9 55 9 82q0 113 -61 152.5t-234 39.5l-115 -428q-4 -16 -12 -45.5t-13.5 -50.5t-5.5 -29q0 -38 26.5 -55.5t106.5 -17.5q430 0 617 342zM737 1481h-100l250 268
q37 39 52.5 53.5t41.5 31.5t47 17q37 0 68.5 -25t31.5 -71q0 -32 -19 -52t-60 -44z" />
    <glyph glyph-name="Ecircumflex" unicode="&#xca;" horiz-adv-x="1366" 
d="M1200 397l-121 -397h-1134v51q32 5 46 8.5t36 13t33.5 23.5t25 40t23.5 63l251 919q21 84 21 115q0 48 -25 60.5t-125 25.5v51h1106l-88 -389l-55 10q0 44 -1 66.5t-8 61.5t-21 60.5t-42 49t-68.5 41.5t-103 24.5t-143.5 10.5q-60 0 -82.5 -21t-36.5 -70l-125 -456h41
q49 0 87.5 2.5t70.5 10t54.5 14t44 23.5t34.5 28.5t30.5 38.5t27.5 45t30 55l57 -8l-151 -559l-58 10q9 55 9 82q0 113 -61 152.5t-234 39.5l-115 -428q-4 -16 -12 -45.5t-13.5 -50.5t-5.5 -29q0 -38 26.5 -55.5t106.5 -17.5q430 0 617 342zM1030 1481l-180 194l-268 -194
h-117l328 356h165l177 -356h-105z" />
    <glyph glyph-name="Edieresis" unicode="&#xcb;" horiz-adv-x="1366" 
d="M1200 397l-121 -397h-1134v51q32 5 46 8.5t36 13t33.5 23.5t25 40t23.5 63l251 919q21 84 21 115q0 48 -25 60.5t-125 25.5v51h1106l-88 -389l-55 10q0 44 -1 66.5t-8 61.5t-21 60.5t-42 49t-68.5 41.5t-103 24.5t-143.5 10.5q-60 0 -82.5 -21t-36.5 -70l-125 -456h41
q49 0 87.5 2.5t70.5 10t54.5 14t44 23.5t34.5 28.5t30.5 38.5t27.5 45t30 55l57 -8l-151 -559l-58 10q9 55 9 82q0 113 -61 152.5t-234 39.5l-115 -428q-4 -16 -12 -45.5t-13.5 -50.5t-5.5 -29q0 -38 26.5 -55.5t106.5 -17.5q430 0 617 342zM496 1630q0 45 36.5 90t98.5 45
q58 0 99.5 -41t41.5 -98q0 -56 -40.5 -95.5t-100.5 -39.5q-65 0 -100 45t-35 94zM930 1630q0 45 36.5 90t98.5 45q58 0 99.5 -41t41.5 -98q0 -56 -40.5 -95.5t-100.5 -39.5q-65 0 -100 45t-35 94z" />
    <glyph glyph-name="Igrave" unicode="&#xcc;" horiz-adv-x="796" 
d="M541 51v-51h-607v51q72 10 106.5 37.5t57.5 110.5l252 919q21 88 21 115q0 48 -23.5 60t-126.5 26v51h610v-51q-36 -5 -55 -10t-43 -19t-40 -43t-29 -76l-234 -860q-37 -135 -37 -172q0 -50 32.5 -67.5t115.5 -20.5zM717 1481h-92l-273 182q-69 46 -69 96q0 34 26.5 63
t65.5 29q25 0 49.5 -13t36 -24.5t28.5 -31.5z" />
    <glyph glyph-name="Iacute" unicode="&#xcd;" horiz-adv-x="796" 
d="M541 51v-51h-607v51q72 10 106.5 37.5t57.5 110.5l252 919q21 88 21 115q0 48 -23.5 60t-126.5 26v51h610v-51q-36 -5 -55 -10t-43 -19t-40 -43t-29 -76l-234 -860q-37 -135 -37 -172q0 -50 32.5 -67.5t115.5 -20.5zM494 1481h-101l250 268q37 39 52.5 53.5t41.5 31.5
t47 17q37 0 69 -25t32 -71q0 -32 -19 -52t-61 -44z" />
    <glyph glyph-name="Icircumflex" unicode="&#xce;" horiz-adv-x="796" 
d="M541 51v-51h-607v51q72 10 106.5 37.5t57.5 110.5l252 919q21 88 21 115q0 48 -23.5 60t-126.5 26v51h610v-51q-36 -5 -55 -10t-43 -19t-40 -43t-29 -76l-234 -860q-37 -135 -37 -172q0 -50 32.5 -67.5t115.5 -20.5zM817 1481l-180 194l-268 -194h-117l328 356h165
l177 -356h-105z" />
    <glyph glyph-name="Idieresis" unicode="&#xcf;" horiz-adv-x="796" 
d="M541 51v-51h-607v51q72 10 106.5 37.5t57.5 110.5l252 919q21 88 21 115q0 48 -23.5 60t-126.5 26v51h610v-51q-36 -5 -55 -10t-43 -19t-40 -43t-29 -76l-234 -860q-37 -135 -37 -172q0 -50 32.5 -67.5t115.5 -20.5zM211 1630q0 45 36.5 90t98.5 45q58 0 99.5 -41
t41.5 -98q0 -56 -40.5 -95.5t-100.5 -39.5q-65 0 -100 45t-35 94zM645 1630q0 45 36.5 90t98.5 45q58 0 100 -41t42 -98q0 -56 -41 -95.5t-101 -39.5q-65 0 -100 45t-35 94z" />
    <glyph glyph-name="Eth" unicode="&#xd0;" horiz-adv-x="1478" 
d="M807 764l-25 -90h-250l-112 -416q-27 -94 -27 -117q0 -21 8.5 -35t19 -21t30.5 -10.5t31 -4t32 -0.5q109 0 201 37t154 96t111 139t77 160t46 165t24 147.5t6 113.5q0 31 -1 52.5t-7.5 64.5t-18 74t-36.5 69t-59 62t-88 40.5t-122 16.5h-13q-17 0 -29.5 -2t-28.5 -9
t-28.5 -24t-19.5 -43l-125 -465h250zM20 674l25 90h209q114 424 118 451q1 8 1 14q0 49 -24.5 62.5t-125.5 27.5v51h594q290 0 453.5 -147.5t163.5 -421.5q0 -106 -31.5 -213.5t-103 -212.5t-174.5 -186.5t-259 -133.5t-344 -55h-585v51q33 5 50.5 10t42 19t41 43.5
t29.5 75.5q126 462 129 475h-209z" />
    <glyph glyph-name="Ntilde" unicode="&#xd1;" horiz-adv-x="1478" 
d="M627 1370l440 -952l164 588q37 133 37 188q0 31 -10.5 54t-24 35.5t-38.5 20.5t-43 10.5t-48 4.5v51h428v-51q-35 -9 -48.5 -13t-35.5 -17.5t-32 -30t-27 -51.5t-31 -81t-35 -120l-293 -1037h-57l-527 1125l-202 -729q-37 -133 -37 -189q0 -31 10.5 -54t24 -35.5
t38.5 -20.5t43 -10.5t48 -4.5v-51h-426v51q32 8 45.5 12t34.5 17t31.5 30.5t27.5 52t32 82t36 120.5l245 841q-29 67 -58.5 86t-111.5 27v51h400zM1180 1765h84q-8 -31 -15 -54t-26.5 -61.5t-43.5 -63.5t-65 -44.5t-92 -19.5q-50 0 -115 26l-121 47q-49 17 -73 17t-42 -7
t-30 -23t-17 -26.5t-14 -31.5h-82q0 5 5 27t22 59.5t41.5 71t70 58.5t101.5 25q63 0 171.5 -43t131.5 -43q25 0 43.5 7t31.5 22.5t19 26t15 30.5z" />
    <glyph glyph-name="Ograve" unicode="&#xd2;" horiz-adv-x="1478" 
d="M905 1333q-77 0 -149 -47t-126 -123.5t-101 -174t-79.5 -198.5t-55.5 -197.5t-33.5 -169.5t-10.5 -116q0 -274 213 -274q87 0 167.5 60.5t139.5 157.5t108 214.5t79 235.5t46.5 216t16.5 160q0 15 -0.5 28t-5 41t-12 50.5t-23.5 49t-38 44.5t-57 30.5t-79 12.5zM55 424
q0 184 72.5 364t191 314.5t277.5 217.5t324 83q69 0 137 -16.5t133.5 -55t115 -94.5t79.5 -140.5t30 -187.5q0 -119 -41 -250.5t-120 -254.5t-183 -222t-242.5 -159t-285.5 -60q-99 0 -182 29t-138 76t-94 108t-56.5 123.5t-17.5 124.5zM1018 1481h-92l-273 182
q-69 46 -69 96q0 34 26.5 63t65.5 29q56 0 115 -69z" />
    <glyph glyph-name="Oacute" unicode="&#xd3;" horiz-adv-x="1478" 
d="M905 1333q-77 0 -149 -47t-126 -123.5t-101 -174t-79.5 -198.5t-55.5 -197.5t-33.5 -169.5t-10.5 -116q0 -274 213 -274q87 0 167.5 60.5t139.5 157.5t108 214.5t79 235.5t46.5 216t16.5 160q0 15 -0.5 28t-5 41t-12 50.5t-23.5 49t-38 44.5t-57 30.5t-79 12.5zM55 424
q0 184 72.5 364t191 314.5t277.5 217.5t324 83q69 0 137 -16.5t133.5 -55t115 -94.5t79.5 -140.5t30 -187.5q0 -119 -41 -250.5t-120 -254.5t-183 -222t-242.5 -159t-285.5 -60q-99 0 -182 29t-138 76t-94 108t-56.5 123.5t-17.5 124.5zM866 1481h-100l250 268
q37 39 52.5 53.5t41.5 31.5t47 17q37 0 68.5 -25t31.5 -71q0 -32 -19 -52t-60 -44z" />
    <glyph glyph-name="Ocircumflex" unicode="&#xd4;" horiz-adv-x="1478" 
d="M905 1333q-77 0 -149 -47t-126 -123.5t-101 -174t-79.5 -198.5t-55.5 -197.5t-33.5 -169.5t-10.5 -116q0 -274 213 -274q87 0 167.5 60.5t139.5 157.5t108 214.5t79 235.5t46.5 216t16.5 160q0 15 -0.5 28t-5 41t-12 50.5t-23.5 49t-38 44.5t-57 30.5t-79 12.5zM55 424
q0 184 72.5 364t191 314.5t277.5 217.5t324 83q69 0 137 -16.5t133.5 -55t115 -94.5t79.5 -140.5t30 -187.5q0 -119 -41 -250.5t-120 -254.5t-183 -222t-242.5 -159t-285.5 -60q-99 0 -182 29t-138 76t-94 108t-56.5 123.5t-17.5 124.5zM1118 1481l-180 194l-268 -194h-117
l328 356h166l176 -356h-105z" />
    <glyph glyph-name="Otilde" unicode="&#xd5;" horiz-adv-x="1478" 
d="M905 1333q-77 0 -149 -47t-126 -123.5t-101 -174t-79.5 -198.5t-55.5 -197.5t-33.5 -169.5t-10.5 -116q0 -274 213 -274q87 0 167.5 60.5t139.5 157.5t108 214.5t79 235.5t46.5 216t16.5 160q0 15 -0.5 28t-5 41t-12 50.5t-23.5 49t-38 44.5t-57 30.5t-79 12.5zM55 424
q0 184 72.5 364t191 314.5t277.5 217.5t324 83q69 0 137 -16.5t133.5 -55t115 -94.5t79.5 -140.5t30 -187.5q0 -119 -41 -250.5t-120 -254.5t-183 -222t-242.5 -159t-285.5 -60q-99 0 -182 29t-138 76t-94 108t-56.5 123.5t-17.5 124.5zM1190 1765h84q-8 -31 -15 -54
t-26.5 -61.5t-43.5 -63.5t-65 -44.5t-92 -19.5q-49 0 -114 26l-121 47q-49 17 -74 17q-24 0 -41.5 -7t-29.5 -23.5t-17 -26t-14 -31.5h-82q0 5 5 27t21.5 59.5t41 71t70 58.5t101.5 25q63 0 171.5 -43t131.5 -43q25 0 43.5 7t31.5 22.5t19 26t15 30.5z" />
    <glyph glyph-name="Odieresis" unicode="&#xd6;" horiz-adv-x="1478" 
d="M905 1333q-77 0 -149 -47t-126 -123.5t-101 -174t-79.5 -198.5t-55.5 -197.5t-33.5 -169.5t-10.5 -116q0 -274 213 -274q87 0 167.5 60.5t139.5 157.5t108 214.5t79 235.5t46.5 216t16.5 160q0 15 -0.5 28t-5 41t-12 50.5t-23.5 49t-38 44.5t-57 30.5t-79 12.5zM55 424
q0 184 72.5 364t191 314.5t277.5 217.5t324 83q69 0 137 -16.5t133.5 -55t115 -94.5t79.5 -140.5t30 -187.5q0 -119 -41 -250.5t-120 -254.5t-183 -222t-242.5 -159t-285.5 -60q-99 0 -182 29t-138 76t-94 108t-56.5 123.5t-17.5 124.5zM594 1630q0 45 36.5 90t98.5 45
q58 0 99.5 -41t41.5 -98q0 -56 -40.5 -95.5t-100.5 -39.5q-65 0 -100 45t-35 94zM1028 1630q0 45 36.5 90t98.5 45q58 0 100 -41t42 -98q0 -56 -41 -95.5t-101 -39.5q-65 0 -100 45t-35 94z" />
    <glyph glyph-name="multiply" unicode="&#xd7;" horiz-adv-x="1167" 
d="M457 518l-359 359l127 127l359 -361l358 361l127 -127l-360 -359l360 -358l-127 -127l-358 360l-359 -360l-127 127z" />
    <glyph glyph-name="Oslash" unicode="&#xd8;" horiz-adv-x="1478" 
d="M373 158l663 1132q-49 43 -133 43q-105 0 -199 -88t-156.5 -216.5t-109 -275t-67.5 -264t-21 -182.5q0 -90 23 -149zM1092 1214l-666 -1136q53 -45 137 -45q87 0 168 61t140 159t108 215.5t79 235t46 214t16 155.5q0 84 -28 141zM1296 1565l-129 -222
q113 -58 180.5 -166.5t67.5 -267.5q0 -119 -41 -250.5t-120 -254.5t-183 -222t-242.5 -159t-285.5 -60q-85 0 -168 27l-144 -246h-98l162 279q-117 61 -178.5 173.5t-61.5 227.5q0 184 72.5 364t191 314.5t277.5 217.5t324 83q84 0 167 -27l109 189h100z" />
    <glyph glyph-name="Ugrave" unicode="&#xd9;" horiz-adv-x="1478" 
d="M1524 1370v-51q-25 -6 -35.5 -8.5t-28.5 -10t-26 -15.5t-21.5 -24t-22.5 -36.5t-22 -52.5t-25 -71.5t-28 -94.5l-135 -467q-23 -81 -36.5 -123t-42 -114t-55 -111t-72.5 -89.5t-98 -76t-126.5 -44t-163.5 -18.5q-85 0 -163 21t-143 62t-104 110.5t-39 158.5
q0 76 53.5 285t106.5 402.5t53 230.5q0 48 -24.5 60.5t-124.5 25.5v51h637v-51q-45 -3 -70 -7.5t-51 -19.5t-42.5 -44t-29.5 -77l-168 -614q-37 -132 -47 -179.5t-10 -98.5q0 -81 62 -141t190 -60q48 0 90.5 10.5t75.5 27t63.5 45t52 54t43 66.5t34.5 70.5t28.5 76.5
t23.5 75t21 75l119 428q39 153 39 196q0 29 -12 51t-28.5 33.5t-42 19t-42 9.5t-39.5 4v51h426zM1018 1481h-92l-273 182q-69 46 -69 96q0 34 26.5 63t65.5 29q56 0 115 -69z" />
    <glyph glyph-name="Uacute" unicode="&#xda;" horiz-adv-x="1478" 
d="M1524 1370v-51q-25 -6 -35.5 -8.5t-28.5 -10t-26 -15.5t-21.5 -24t-22.5 -36.5t-22 -52.5t-25 -71.5t-28 -94.5l-135 -467q-23 -81 -36.5 -123t-42 -114t-55 -111t-72.5 -89.5t-98 -76t-126.5 -44t-163.5 -18.5q-85 0 -163 21t-143 62t-104 110.5t-39 158.5
q0 76 53.5 285t106.5 402.5t53 230.5q0 48 -24.5 60.5t-124.5 25.5v51h637v-51q-45 -3 -70 -7.5t-51 -19.5t-42.5 -44t-29.5 -77l-168 -614q-37 -132 -47 -179.5t-10 -98.5q0 -81 62 -141t190 -60q48 0 90.5 10.5t75.5 27t63.5 45t52 54t43 66.5t34.5 70.5t28.5 76.5
t23.5 75t21 75l119 428q39 153 39 196q0 29 -12 51t-28.5 33.5t-42 19t-42 9.5t-39.5 4v51h426zM948 1481h-100l250 268q37 39 52.5 53.5t41.5 31.5t47 17q37 0 68.5 -25t31.5 -71q0 -32 -19 -52t-60 -44z" />
    <glyph glyph-name="Ucircumflex" unicode="&#xdb;" horiz-adv-x="1478" 
d="M1524 1370v-51q-25 -6 -35.5 -8.5t-28.5 -10t-26 -15.5t-21.5 -24t-22.5 -36.5t-22 -52.5t-25 -71.5t-28 -94.5l-135 -467q-23 -81 -36.5 -123t-42 -114t-55 -111t-72.5 -89.5t-98 -76t-126.5 -44t-163.5 -18.5q-85 0 -163 21t-143 62t-104 110.5t-39 158.5
q0 76 53.5 285t106.5 402.5t53 230.5q0 48 -24.5 60.5t-124.5 25.5v51h637v-51q-45 -3 -70 -7.5t-51 -19.5t-42.5 -44t-29.5 -77l-168 -614q-37 -132 -47 -179.5t-10 -98.5q0 -81 62 -141t190 -60q48 0 90.5 10.5t75.5 27t63.5 45t52 54t43 66.5t34.5 70.5t28.5 76.5
t23.5 75t21 75l119 428q39 153 39 196q0 29 -12 51t-28.5 33.5t-42 19t-42 9.5t-39.5 4v51h426zM1118 1481l-180 194l-268 -194h-117l328 356h166l176 -356h-105z" />
    <glyph glyph-name="Udieresis" unicode="&#xdc;" horiz-adv-x="1478" 
d="M1524 1370v-51q-25 -6 -35.5 -8.5t-28.5 -10t-26 -15.5t-21.5 -24t-22.5 -36.5t-22 -52.5t-25 -71.5t-28 -94.5l-135 -467q-23 -81 -36.5 -123t-42 -114t-55 -111t-72.5 -89.5t-98 -76t-126.5 -44t-163.5 -18.5q-85 0 -163 21t-143 62t-104 110.5t-39 158.5
q0 76 53.5 285t106.5 402.5t53 230.5q0 48 -24.5 60.5t-124.5 25.5v51h637v-51q-45 -3 -70 -7.5t-51 -19.5t-42.5 -44t-29.5 -77l-168 -614q-37 -132 -47 -179.5t-10 -98.5q0 -81 62 -141t190 -60q48 0 90.5 10.5t75.5 27t63.5 45t52 54t43 66.5t34.5 70.5t28.5 76.5
t23.5 75t21 75l119 428q39 153 39 196q0 29 -12 51t-28.5 33.5t-42 19t-42 9.5t-39.5 4v51h426zM625 1630q0 45 36.5 90t98.5 45q58 0 99.5 -41t41.5 -98q0 -56 -40.5 -95.5t-100.5 -39.5q-65 0 -100 45t-35 94zM1059 1630q0 45 36.5 90t98.5 45q58 0 99.5 -41t41.5 -98
q0 -56 -40.5 -95.5t-100.5 -39.5q-65 0 -100 45t-35 94z" />
    <glyph glyph-name="Yacute" unicode="&#xdd;" horiz-adv-x="1251" 
d="M479 641l-180 549q-15 45 -24.5 66.5t-28.5 35t-35.5 17.5t-60.5 10v51h579v-51q-84 0 -113.5 -18t-29.5 -56q0 -13 1.5 -25t7 -33t12 -42t20 -64t27.5 -86t39 -120l50 -154l265 381q37 53 45 75.5t8 57.5q0 42 -29.5 63t-107.5 21v51h426v-51q-61 -11 -101.5 -44.5
t-85.5 -96.5l-389 -547l-106 -391q-17 -55 -17 -99q0 -25 8.5 -41.5t19 -25.5t35.5 -14t41.5 -6t53.5 -3v-51h-659v51q36 3 54.5 5.5t43 8.5t37 15t27.5 24.5t25 38.5t19 56zM834 1481h-101l250 268q37 39 52.5 53.5t41.5 31.5t47 17q37 0 69 -25t32 -71q0 -32 -19 -52
t-61 -44z" />
    <glyph glyph-name="Thorn" unicode="&#xde;" horiz-adv-x="1251" 
d="M600 938l-131 -489q73 -5 78 -5q72 0 122.5 15.5t71.5 32.5t43 45q45 56 67.5 145t22.5 149q0 197 -174 197q-29 0 -48 -7.5t-29.5 -22.5t-14.5 -27.5t-8 -32.5zM231 1319v51h603l-3 -51q-38 -6 -57 -11t-42 -19.5t-38 -43t-28 -74.5l-27 -77h98q70 0 129.5 -8.5
t117.5 -31t99 -57.5t66 -92.5t25 -132.5q0 -126 -77.5 -218.5t-197 -136.5t-260.5 -44q-95 0 -190 10l-29 -131q-21 -92 -21 -113q0 -50 32.5 -67.5t115.5 -20.5v-51h-602v51q32 5 46 8.5t36 13t33.5 23.5t25 40t23.5 63l251 919q21 84 21 115q0 48 -25 60.5t-125 25.5z" />
    <glyph glyph-name="germandbls" unicode="&#xdf;" 
d="M494 786l14 76l33 -2h8q50 0 89.5 43t60.5 108.5t31.5 128.5t10.5 115q0 24 -2 40t-10.5 39t-30 35.5t-55.5 12.5q-69 0 -117.5 -83t-87.5 -257l-186 -833q-33 -144 -75 -254t-98 -194t-129.5 -127.5t-162.5 -43.5q-93 0 -145 46.5t-52 107.5q0 10 0.5 18.5t6.5 27.5
t16.5 32.5t33.5 24t54 10.5q18 0 36.5 -6t37 -27.5t18.5 -56.5q0 -31 -8.5 -46.5t-17.5 -23.5t-9 -21q0 -22 31 -22q33 0 53.5 9.5t40.5 43.5q28 47 51 124t33 128l189 866q17 78 38.5 147.5t53 142t72.5 130t92 103.5t117.5 71t142.5 25q129 0 213 -76t84 -190
q0 -47 -14.5 -88.5t-35 -72.5t-55.5 -60.5t-62.5 -47.5t-71 -38t-66.5 -29t-62 -23v-4q289 -49 289 -297q0 -128 -60 -251t-164.5 -202t-222.5 -79q-40 0 -73.5 8.5t-46.5 15.5t-33 21l41 71l8 -10q11 -14 37 -25.5t51 -11.5q44 0 82 47.5t62 116t41 147.5t24.5 139.5
t7.5 94.5q0 35 -4 62t-10 45.5t-18.5 32t-21.5 20.5t-29 13t-31.5 8t-36.5 5z" />
    <glyph glyph-name="agrave" unicode="&#xe0;" 
d="M889 260l43 -31q-166 -258 -309 -258q-13 0 -29.5 3.5t-36 13.5t-35.5 24.5t-26.5 39t-10.5 54.5t27 130l-4 -3q-22 -37 -39 -63t-50 -66.5t-65.5 -66t-79 -45t-94.5 -19.5q-58 0 -101 22t-65.5 52t-36 70.5t-17 68t-3.5 54.5q0 88 33.5 188.5t90.5 190.5t127 164.5
t150.5 118.5t153.5 44q43 0 74 -13.5t46.5 -37.5t22.5 -43.5t11 -44.5h4l35 113l227 14l-146 -483q-69 -228 -69 -304q0 -30 26 -30t61.5 38t84.5 105zM299 119q62 0 124.5 78.5t104 185.5t67.5 212t26 165q0 30 -9 51.5t-22.5 31t-24.5 13.5t-20 4q-60 0 -124 -78.5
t-109 -184t-74 -207.5t-29 -154q0 -62 29.5 -89.5t60.5 -27.5zM760 1057h-92l-273 182q-69 46 -69 96q0 34 26.5 63t65.5 29q25 0 49.5 -13t36 -24.5t28.5 -31.5z" />
    <glyph glyph-name="aacute" unicode="&#xe1;" 
d="M889 260l43 -31q-166 -258 -309 -258q-13 0 -29.5 3.5t-36 13.5t-35.5 24.5t-26.5 39t-10.5 54.5t27 130l-4 -3q-22 -37 -39 -63t-50 -66.5t-65.5 -66t-79 -45t-94.5 -19.5q-58 0 -101 22t-65.5 52t-36 70.5t-17 68t-3.5 54.5q0 88 33.5 188.5t90.5 190.5t127 164.5
t150.5 118.5t153.5 44q43 0 74 -13.5t46.5 -37.5t22.5 -43.5t11 -44.5h4l35 113l227 14l-146 -483q-69 -228 -69 -304q0 -30 26 -30t61.5 38t84.5 105zM299 119q62 0 124.5 78.5t104 185.5t67.5 212t26 165q0 30 -9 51.5t-22.5 31t-24.5 13.5t-20 4q-60 0 -124 -78.5
t-109 -184t-74 -207.5t-29 -154q0 -62 29.5 -89.5t60.5 -27.5zM557 1057h-100l250 268q37 39 52.5 53.5t41.5 31.5t47 17q37 0 68.5 -25t31.5 -71q0 -32 -19 -52t-61 -44z" />
    <glyph glyph-name="acircumflex" unicode="&#xe2;" 
d="M889 260l43 -31q-166 -258 -309 -258q-13 0 -29.5 3.5t-36 13.5t-35.5 24.5t-26.5 39t-10.5 54.5t27 130l-4 -3q-22 -37 -39 -63t-50 -66.5t-65.5 -66t-79 -45t-94.5 -19.5q-58 0 -101 22t-65.5 52t-36 70.5t-17 68t-3.5 54.5q0 88 33.5 188.5t90.5 190.5t127 164.5
t150.5 118.5t153.5 44q43 0 74 -13.5t46.5 -37.5t22.5 -43.5t11 -44.5h4l35 113l227 14l-146 -483q-69 -228 -69 -304q0 -30 26 -30t61.5 38t84.5 105zM299 119q62 0 124.5 78.5t104 185.5t67.5 212t26 165q0 30 -9 51.5t-22.5 31t-24.5 13.5t-20 4q-60 0 -124 -78.5
t-109 -184t-74 -207.5t-29 -154q0 -62 29.5 -89.5t60.5 -27.5zM819 1057l-180 194l-268 -194h-117l328 356h166l176 -356h-105z" />
    <glyph glyph-name="atilde" unicode="&#xe3;" 
d="M889 260l43 -31q-166 -258 -309 -258q-13 0 -29.5 3.5t-36 13.5t-35.5 24.5t-26.5 39t-10.5 54.5t27 130l-4 -3q-22 -37 -39 -63t-50 -66.5t-65.5 -66t-79 -45t-94.5 -19.5q-58 0 -101 22t-65.5 52t-36 70.5t-17 68t-3.5 54.5q0 88 33.5 188.5t90.5 190.5t127 164.5
t150.5 118.5t153.5 44q43 0 74 -13.5t46.5 -37.5t22.5 -43.5t11 -44.5h4l35 113l227 14l-146 -483q-69 -228 -69 -304q0 -30 26 -30t61.5 38t84.5 105zM299 119q62 0 124.5 78.5t104 185.5t67.5 212t26 165q0 30 -9 51.5t-22.5 31t-24.5 13.5t-20 4q-60 0 -124 -78.5
t-109 -184t-74 -207.5t-29 -154q0 -62 29.5 -89.5t60.5 -27.5zM922 1341h84q-8 -31 -15 -54t-26.5 -61.5t-43.5 -63.5t-65 -44.5t-92 -19.5q-50 0 -115 26l-121 47q-49 17 -73 17t-42 -7t-30 -23t-17 -26.5t-14 -31.5h-82q0 5 5 27t22 59.5t41.5 71t70 58.5t101.5 25
q63 0 171.5 -43t131.5 -43q25 0 43.5 7t31.5 22.5t19 26t15 30.5z" />
    <glyph glyph-name="adieresis" unicode="&#xe4;" 
d="M889 260l43 -31q-166 -258 -309 -258q-13 0 -29.5 3.5t-36 13.5t-35.5 24.5t-26.5 39t-10.5 54.5t27 130l-4 -3q-22 -37 -39 -63t-50 -66.5t-65.5 -66t-79 -45t-94.5 -19.5q-58 0 -101 22t-65.5 52t-36 70.5t-17 68t-3.5 54.5q0 88 33.5 188.5t90.5 190.5t127 164.5
t150.5 118.5t153.5 44q43 0 74 -13.5t46.5 -37.5t22.5 -43.5t11 -44.5h4l35 113l227 14l-146 -483q-69 -228 -69 -304q0 -30 26 -30t61.5 38t84.5 105zM299 119q62 0 124.5 78.5t104 185.5t67.5 212t26 165q0 30 -9 51.5t-22.5 31t-24.5 13.5t-20 4q-60 0 -124 -78.5
t-109 -184t-74 -207.5t-29 -154q0 -62 29.5 -89.5t60.5 -27.5zM264 1206q0 45 36.5 90t98.5 45q58 0 100 -41t42 -98q0 -56 -41 -95.5t-101 -39.5q-65 0 -100 45t-35 94zM698 1206q0 45 37 90t99 45q58 0 99.5 -41t41.5 -98q0 -56 -40.5 -95.5t-100.5 -39.5
q-65 0 -100.5 45.5t-35.5 93.5z" />
    <glyph glyph-name="aring" unicode="&#xe5;" 
d="M889 260l43 -31q-166 -258 -309 -258q-13 0 -29.5 3.5t-36 13.5t-35.5 24.5t-26.5 39t-10.5 54.5t27 130l-4 -3q-22 -37 -39 -63t-50 -66.5t-65.5 -66t-79 -45t-94.5 -19.5q-58 0 -101 22t-65.5 52t-36 70.5t-17 68t-3.5 54.5q0 88 33.5 188.5t90.5 190.5t127 164.5
t150.5 118.5t153.5 44q43 0 74 -13.5t46.5 -37.5t22.5 -43.5t11 -44.5h4l35 113l227 14l-146 -483q-69 -228 -69 -304q0 -30 26 -30t61.5 38t84.5 105zM299 119q62 0 124.5 78.5t104 185.5t67.5 212t26 165q0 30 -9 51.5t-22.5 31t-24.5 13.5t-20 4q-60 0 -124 -78.5
t-109 -184t-74 -207.5t-29 -154q0 -62 29.5 -89.5t60.5 -27.5zM432 1276q0 90 64.5 153.5t154.5 63.5q89 0 153 -64t64 -153q0 -91 -64 -155t-153 -64q-90 0 -154.5 63.5t-64.5 155.5zM770 1274q0 50 -36 85.5t-87 35.5q-53 0 -85 -39.5t-32 -79.5q0 -41 30.5 -81t86.5 -40
q52 0 87.5 35.5t35.5 83.5z" />
    <glyph glyph-name="ae" unicode="&#xe6;" horiz-adv-x="1478" 
d="M723 819l35 111l211 10l-37 -121l4 -4q59 74 117 99.5t123 25.5q91 0 146.5 -45t55.5 -135q0 -117 -116 -217t-351 -154l-80 -18q-10 -52 -10 -99q0 -18 2.5 -37.5t11.5 -44t23 -43.5t40 -32t60 -13q50 0 96.5 22.5t78.5 57t49.5 59t27.5 44.5l58 -35q-95 -190 -251 -251
q-65 -26 -136 -26q-53 0 -96 10t-72 24.5t-52 39.5t-36 45t-23.5 51.5t-14.5 48.5t-9 46h-5q-22 -38 -38.5 -63t-51.5 -67t-69.5 -67.5t-85.5 -45.5t-107 -20q-42 0 -80.5 13.5t-73.5 42.5t-56 84t-21 129q0 106 52 231.5t131 228.5t180.5 172.5t193.5 69.5q45 0 76.5 -11
t50 -34t26.5 -38.5t17 -43.5h6zM248 242q0 -52 25 -87.5t77 -35.5q56 0 110 53.5t92.5 132.5t69 166t45.5 156.5t15 101.5q0 129 -104 129q-73 0 -152.5 -114t-128.5 -259t-49 -243zM1194 793q0 16 -1.5 26.5t-7 26.5t-20.5 24.5t-39 8.5q-28 0 -54 -12t-48.5 -37t-41 -49.5
t-36.5 -64t-29.5 -65.5t-26 -69t-19.5 -59t-15 -50l-10 -35q20 0 58.5 12.5t88.5 41.5t94.5 68.5t75.5 101t31 131.5z" />
    <glyph glyph-name="ccedilla" unicode="&#xe7;" horiz-adv-x="909" 
d="M651 289l58 -37q-42 -59 -68 -92t-71.5 -77.5t-97.5 -69.5t-114 -33l-71 -107q27 6 53 6q17 0 38 -3.5t47.5 -13.5t48 -25t36 -42.5t14.5 -62.5q0 -60 -42.5 -102.5t-98 -59t-115.5 -16.5q-100 0 -227 51l45 67q77 -34 141 -34q49 0 80 22t31 61q0 6 -0.5 11.5t-5.5 18
t-14 21t-28.5 16t-45.5 7.5q-32 0 -64 -8l-26 25l112 163q-51 4 -98 24t-88 56.5t-65.5 97t-24.5 136.5q0 115 51 234.5t131 212t186 151.5t209 59q114 0 175 -53t61 -127q0 -69 -35 -108.5t-94 -39.5q-45 0 -81 29t-36 78q0 32 21.5 70t21.5 49q0 18 -15 26.5t-32 8.5
q-62 0 -121 -69t-97 -165t-60.5 -190t-22.5 -152t14.5 -99.5t38.5 -62t47.5 -29t48.5 -8.5q67 0 126.5 46t123.5 139z" />
    <glyph glyph-name="egrave" unicode="&#xe8;" horiz-adv-x="909" 
d="M649 291l60 -35q-22 -37 -36 -58t-43.5 -60.5t-58.5 -63.5t-67.5 -50t-86 -38.5t-100.5 -12.5q-54 0 -105.5 18t-98 53.5t-75 99t-28.5 145.5q0 83 29 175t84.5 177t127 153.5t164 110t189.5 41.5q24 0 50 -5t55.5 -18t52.5 -32.5t38 -53t15 -75.5q0 -36 -16 -78t-56 -90
t-98 -90t-150.5 -78t-205.5 -53q-13 -60 -13 -101q0 -46 11 -79.5t25.5 -50t36 -26t35 -11t30.5 -1.5q39 0 74.5 16.5t67.5 51t48.5 56.5t44.5 63zM567 879q-45 0 -89.5 -46.5t-78.5 -118.5t-58 -142.5t-38 -133.5q77 21 136.5 56.5t94 74.5t56.5 84.5t29.5 82.5t7.5 73
q0 70 -60 70zM702 1057h-92l-272 182q-70 47 -70 96q0 34 26.5 63t65.5 29q56 0 115 -69z" />
    <glyph glyph-name="eacute" unicode="&#xe9;" horiz-adv-x="909" 
d="M649 291l60 -35q-22 -37 -36 -58t-43.5 -60.5t-58.5 -63.5t-67.5 -50t-86 -38.5t-100.5 -12.5q-54 0 -105.5 18t-98 53.5t-75 99t-28.5 145.5q0 83 29 175t84.5 177t127 153.5t164 110t189.5 41.5q24 0 50 -5t55.5 -18t52.5 -32.5t38 -53t15 -75.5q0 -36 -16 -78t-56 -90
t-98 -90t-150.5 -78t-205.5 -53q-13 -60 -13 -101q0 -46 11 -79.5t25.5 -50t36 -26t35 -11t30.5 -1.5q39 0 74.5 16.5t67.5 51t48.5 56.5t44.5 63zM567 879q-45 0 -89.5 -46.5t-78.5 -118.5t-58 -142.5t-38 -133.5q77 21 136.5 56.5t94 74.5t56.5 84.5t29.5 82.5t7.5 73
q0 70 -60 70zM500 1057h-101l250 268q36 37 52.5 53t42.5 32.5t47 16.5q37 0 68.5 -25t31.5 -71q0 -32 -19 -52t-61 -44z" />
    <glyph glyph-name="ecircumflex" unicode="&#xea;" horiz-adv-x="909" 
d="M649 291l60 -35q-22 -37 -36 -58t-43.5 -60.5t-58.5 -63.5t-67.5 -50t-86 -38.5t-100.5 -12.5q-54 0 -105.5 18t-98 53.5t-75 99t-28.5 145.5q0 83 29 175t84.5 177t127 153.5t164 110t189.5 41.5q24 0 50 -5t55.5 -18t52.5 -32.5t38 -53t15 -75.5q0 -36 -16 -78t-56 -90
t-98 -90t-150.5 -78t-205.5 -53q-13 -60 -13 -101q0 -46 11 -79.5t25.5 -50t36 -26t35 -11t30.5 -1.5q39 0 74.5 16.5t67.5 51t48.5 56.5t44.5 63zM567 879q-45 0 -89.5 -46.5t-78.5 -118.5t-58 -142.5t-38 -133.5q77 21 136.5 56.5t94 74.5t56.5 84.5t29.5 82.5t7.5 73
q0 70 -60 70zM762 1057l-180 194l-269 -194h-116l327 356h166l176 -356h-104z" />
    <glyph glyph-name="edieresis" unicode="&#xeb;" horiz-adv-x="909" 
d="M649 291l60 -35q-22 -37 -36 -58t-43.5 -60.5t-58.5 -63.5t-67.5 -50t-86 -38.5t-100.5 -12.5q-54 0 -105.5 18t-98 53.5t-75 99t-28.5 145.5q0 83 29 175t84.5 177t127 153.5t164 110t189.5 41.5q24 0 50 -5t55.5 -18t52.5 -32.5t38 -53t15 -75.5q0 -36 -16 -78t-56 -90
t-98 -90t-150.5 -78t-205.5 -53q-13 -60 -13 -101q0 -46 11 -79.5t25.5 -50t36 -26t35 -11t30.5 -1.5q39 0 74.5 16.5t67.5 51t48.5 56.5t44.5 63zM567 879q-45 0 -89.5 -46.5t-78.5 -118.5t-58 -142.5t-38 -133.5q77 21 136.5 56.5t94 74.5t56.5 84.5t29.5 82.5t7.5 73
q0 70 -60 70zM207 1206q0 45 36.5 90t98.5 45q58 0 99.5 -41t41.5 -98q0 -56 -40.5 -95.5t-100.5 -39.5q-65 0 -100 45t-35 94zM641 1206q0 45 36.5 90t98.5 45q58 0 100 -41t42 -98q0 -56 -41 -95.5t-101 -39.5q-65 0 -100 45t-35 94z" />
    <glyph glyph-name="igrave" unicode="&#xec;" horiz-adv-x="569" 
d="M442 289l45 -29q-37 -57 -61.5 -91.5t-59.5 -74.5t-65.5 -61.5t-71 -36t-84.5 -14.5q-42 0 -72 14t-44 36.5t-19.5 43.5t-5.5 43q0 50 80 340.5t80 308.5q0 39 -26 52.5t-72 13.5h-23v55q251 18 414 57q-17 -63 -51 -184.5t-56.5 -204.5t-47.5 -175.5t-37.5 -149.5
t-12.5 -76q0 -14 10.5 -22.5t20.5 -8.5q17 0 38 15.5t45.5 45.5t38.5 50t37 53zM530 1057h-92l-272 182q-70 47 -70 96q0 34 26.5 63t65.5 29q56 0 115 -69z" />
    <glyph glyph-name="iacute" unicode="&#xed;" horiz-adv-x="569" 
d="M442 289l45 -29q-37 -57 -61.5 -91.5t-59.5 -74.5t-65.5 -61.5t-71 -36t-84.5 -14.5q-42 0 -72 14t-44 36.5t-19.5 43.5t-5.5 43q0 50 80 340.5t80 308.5q0 39 -26 52.5t-72 13.5h-23v55q251 18 414 57q-17 -63 -51 -184.5t-56.5 -204.5t-47.5 -175.5t-37.5 -149.5
t-12.5 -76q0 -14 10.5 -22.5t20.5 -8.5q17 0 38 15.5t45.5 45.5t38.5 50t37 53zM330 1057h-101l250 268q36 37 52.5 53t42.5 32.5t47 16.5q37 0 68.5 -25t31.5 -71q0 -32 -19 -52t-61 -44z" />
    <glyph glyph-name="icircumflex" unicode="&#xee;" horiz-adv-x="569" 
d="M442 289l45 -29q-37 -57 -61.5 -91.5t-59.5 -74.5t-65.5 -61.5t-71 -36t-84.5 -14.5q-42 0 -72 14t-44 36.5t-19.5 43.5t-5.5 43q0 50 80 340.5t80 308.5q0 39 -26 52.5t-72 13.5h-23v55q251 18 414 57q-17 -63 -51 -184.5t-56.5 -204.5t-47.5 -175.5t-37.5 -149.5
t-12.5 -76q0 -14 10.5 -22.5t20.5 -8.5q17 0 38 15.5t45.5 45.5t38.5 50t37 53zM559 1057l-180 194l-268 -194h-117l328 356h165l177 -356h-105z" />
    <glyph glyph-name="idieresis" unicode="&#xef;" horiz-adv-x="569" 
d="M442 289l45 -29q-37 -57 -61.5 -91.5t-59.5 -74.5t-65.5 -61.5t-71 -36t-84.5 -14.5q-42 0 -72 14t-44 36.5t-19.5 43.5t-5.5 43q0 50 80 340.5t80 308.5q0 39 -26 52.5t-72 13.5h-23v55q251 18 414 57q-17 -63 -51 -184.5t-56.5 -204.5t-47.5 -175.5t-37.5 -149.5
t-12.5 -76q0 -14 10.5 -22.5t20.5 -8.5q17 0 38 15.5t45.5 45.5t38.5 50t37 53zM35 1206q0 45 36.5 90t98.5 45q58 0 99.5 -41t41.5 -98q0 -56 -40.5 -95.5t-100.5 -39.5q-65 0 -100 45t-35 94zM469 1206q0 45 36.5 90t98.5 45q58 0 99.5 -41t41.5 -98q0 -56 -40.5 -95.5
t-100.5 -39.5q-65 0 -100 45t-35 94z" />
    <glyph glyph-name="eth" unicode="&#xf0;" 
d="M238 176q0 -19 0.5 -31.5t6.5 -36t16 -38t31.5 -26t51.5 -11.5q69 0 131.5 90.5t100.5 214.5t60.5 239t22.5 179q0 131 -98 131q-62 0 -117.5 -61.5t-92 -151t-63 -191.5t-38.5 -182.5t-12 -124.5zM580 1176l-244 -127l-68 63l250 131q-118 115 -237 133l90 56
q142 -18 270 -123l219 116l70 -65l-219 -115q90 -96 141 -217.5t51 -249.5q0 -130 -29.5 -253t-84 -222t-126 -173.5t-159.5 -115.5t-182 -41q-134 0 -231 82.5t-97 223.5q0 157 77.5 311t210.5 255t279 101q40 0 78 -21.5t63 -64.5l5 8q-9 160 -127 308z" />
    <glyph glyph-name="ntilde" unicode="&#xf1;" horiz-adv-x="1138" 
d="M965 276l45 -26q-26 -44 -44 -71.5t-51.5 -69.5t-64 -66t-73.5 -42.5t-89 -18.5q-143 0 -143 133q0 63 45 213t90 280t45 146q0 19 -15.5 32t-35.5 13q-13 0 -31 -7.5t-46.5 -30t-59.5 -57.5t-69 -97.5t-75 -143t-78.5 -200.5t-78.5 -263h-248q39 148 96.5 351t85 304.5
t27.5 124.5q0 19 -8.5 30.5t-27.5 16.5t-33.5 6t-41.5 1v55q47 0 175 15t235 40l-123 -381l6 -4q123 181 177 244q115 130 232 142q14 1 27 1q21 0 36 -1.5t39.5 -10.5t40.5 -24.5t28 -48t12 -77.5q0 -57 -44.5 -201t-89 -273t-44.5 -152q0 -37 30 -37q19 0 44.5 24.5
t44.5 51.5t53 79zM948 1341h84q-8 -32 -15 -54t-26.5 -61.5t-43 -64t-64.5 -44t-92 -19.5q-50 0 -115 26l-121 47q-49 17 -74 17q-24 0 -41.5 -7t-29.5 -23.5t-17 -26t-14 -31.5h-82q0 5 5 27t22 59.5t41.5 71t70 58.5t101.5 25q63 0 171.5 -43t131.5 -43q25 0 43 7t31 22.5
t18.5 25.5t15.5 31z" />
    <glyph glyph-name="ograve" unicode="&#xf2;" 
d="M561 887q-62 0 -117.5 -61.5t-92 -151t-63 -191.5t-38.5 -182.5t-12 -124.5q0 -19 0.5 -31.5t6.5 -36t16 -38t31.5 -26t51.5 -11.5q69 0 131.5 90.5t100.5 214.5t60.5 239t22.5 179q0 131 -98 131zM582 946q29 0 64 -6t82.5 -26.5t84.5 -53t63.5 -92t26.5 -137.5
q0 -114 -45.5 -231.5t-121.5 -212t-185.5 -154.5t-228.5 -60q-134 0 -231 82.5t-97 223.5q0 117 47 237t125 215t188.5 155t227.5 60zM760 1057h-92l-273 182q-69 46 -69 96q0 34 26.5 63t65.5 29q25 0 49.5 -13t36 -24.5t28.5 -31.5z" />
    <glyph glyph-name="oacute" unicode="&#xf3;" 
d="M561 887q-62 0 -117.5 -61.5t-92 -151t-63 -191.5t-38.5 -182.5t-12 -124.5q0 -19 0.5 -31.5t6.5 -36t16 -38t31.5 -26t51.5 -11.5q69 0 131.5 90.5t100.5 214.5t60.5 239t22.5 179q0 131 -98 131zM582 946q29 0 64 -6t82.5 -26.5t84.5 -53t63.5 -92t26.5 -137.5
q0 -114 -45.5 -231.5t-121.5 -212t-185.5 -154.5t-228.5 -60q-134 0 -231 82.5t-97 223.5q0 117 47 237t125 215t188.5 155t227.5 60zM557 1057h-100l250 268q37 39 52.5 53.5t41.5 31.5t47 17q37 0 68.5 -25t31.5 -71q0 -32 -19 -52t-61 -44z" />
    <glyph glyph-name="ocircumflex" unicode="&#xf4;" 
d="M561 887q-62 0 -117.5 -61.5t-92 -151t-63 -191.5t-38.5 -182.5t-12 -124.5q0 -19 0.5 -31.5t6.5 -36t16 -38t31.5 -26t51.5 -11.5q69 0 131.5 90.5t100.5 214.5t60.5 239t22.5 179q0 131 -98 131zM582 946q29 0 64 -6t82.5 -26.5t84.5 -53t63.5 -92t26.5 -137.5
q0 -114 -45.5 -231.5t-121.5 -212t-185.5 -154.5t-228.5 -60q-134 0 -231 82.5t-97 223.5q0 117 47 237t125 215t188.5 155t227.5 60zM819 1057l-180 194l-268 -194h-117l328 356h166l176 -356h-105z" />
    <glyph glyph-name="otilde" unicode="&#xf5;" 
d="M561 887q-62 0 -117.5 -61.5t-92 -151t-63 -191.5t-38.5 -182.5t-12 -124.5q0 -19 0.5 -31.5t6.5 -36t16 -38t31.5 -26t51.5 -11.5q69 0 131.5 90.5t100.5 214.5t60.5 239t22.5 179q0 131 -98 131zM582 946q29 0 64 -6t82.5 -26.5t84.5 -53t63.5 -92t26.5 -137.5
q0 -114 -45.5 -231.5t-121.5 -212t-185.5 -154.5t-228.5 -60q-134 0 -231 82.5t-97 223.5q0 117 47 237t125 215t188.5 155t227.5 60zM922 1341h84q-8 -31 -15 -54t-26.5 -61.5t-43.5 -63.5t-65 -44.5t-92 -19.5q-50 0 -115 26l-121 47q-49 17 -73 17t-42 -7t-30 -23
t-17 -26.5t-14 -31.5h-82q0 5 5 27t22 59.5t41.5 71t70 58.5t101.5 25q63 0 171.5 -43t131.5 -43q25 0 43.5 7t31.5 22.5t19 26t15 30.5z" />
    <glyph glyph-name="odieresis" unicode="&#xf6;" 
d="M561 887q-62 0 -117.5 -61.5t-92 -151t-63 -191.5t-38.5 -182.5t-12 -124.5q0 -19 0.5 -31.5t6.5 -36t16 -38t31.5 -26t51.5 -11.5q69 0 131.5 90.5t100.5 214.5t60.5 239t22.5 179q0 131 -98 131zM582 946q29 0 64 -6t82.5 -26.5t84.5 -53t63.5 -92t26.5 -137.5
q0 -114 -45.5 -231.5t-121.5 -212t-185.5 -154.5t-228.5 -60q-134 0 -231 82.5t-97 223.5q0 117 47 237t125 215t188.5 155t227.5 60zM254 1206q0 45 36.5 90t98.5 45q58 0 99.5 -41t41.5 -98q0 -56 -40.5 -95.5t-100.5 -39.5q-65 0 -100 45t-35 94zM688 1206q0 45 36.5 90
t98.5 45q58 0 100 -41t42 -98q0 -56 -41 -95.5t-101 -39.5q-65 0 -100 45t-35 94z" />
    <glyph glyph-name="divide" unicode="&#xf7;" horiz-adv-x="1167" 
d="M1100 428h-1032v180h1032v-180zM584 244q63 0 107 -44.5t44 -107.5q0 -64 -44 -107.5t-107 -43.5q-67 0 -109.5 43.5t-42.5 107.5q0 63 43.5 107.5t108.5 44.5zM584 1096q63 0 107 -44.5t44 -107.5q0 -64 -44 -107.5t-107 -43.5q-67 0 -109.5 43.5t-42.5 107.5
q0 63 43.5 107.5t108.5 44.5z" />
    <glyph glyph-name="oslash" unicode="&#xf8;" 
d="M242 168l387 690q-26 29 -68 29q-62 0 -117.5 -61.5t-92 -151t-63 -191.5t-38.5 -182.5t-12 -124.5v-8h4zM868 1147l-133 -238q168 -74 168 -278q0 -114 -45.5 -231.5t-121.5 -212t-185.5 -154.5t-228.5 -60q-49 0 -105 17l-131 -234h-82l148 258q-72 37 -115 105
t-43 160q0 117 47 237t125 215t188.5 155t227.5 60q46 0 90 -12l121 213h75zM657 772l-395 -702q26 -37 82 -37q69 0 131.5 90.5t100.5 214.5t60.5 239t22.5 179q0 14 -2 16z" />
    <glyph glyph-name="ugrave" unicode="&#xf9;" horiz-adv-x="1138" 
d="M965 272l43 -26q-147 -264 -326 -264q-137 0 -137 114q0 41 8.5 86t14.5 65t22 68l-4 2q-49 -68 -74 -101.5t-63 -80.5t-63 -68.5t-59 -44.5t-67 -31.5t-72 -8.5q-45 0 -77 13t-47 28.5t-23 42t-9 40t-1 35.5q0 73 76.5 324.5t76.5 308.5q0 19 -7 31t-25 17.5t-33.5 7.5
t-48.5 4v55q80 4 179.5 17.5t170.5 26.5t78 13l-193 -631q-31 -97 -31 -137q0 -49 48 -49q29 0 66.5 30t71.5 74.5t58 80t37 59.5q63 113 104.5 230.5t98.5 316.5h241q-3 -10 -67 -225.5t-104 -360.5t-40 -174q0 -39 31 -39q22 0 56.5 34.5t54 62.5t35.5 54zM817 1057h-92
l-272 182q-70 47 -70 96q0 34 26.5 63t65.5 29q56 0 115 -69z" />
    <glyph glyph-name="uacute" unicode="&#xfa;" horiz-adv-x="1138" 
d="M965 272l43 -26q-147 -264 -326 -264q-137 0 -137 114q0 41 8.5 86t14.5 65t22 68l-4 2q-49 -68 -74 -101.5t-63 -80.5t-63 -68.5t-59 -44.5t-67 -31.5t-72 -8.5q-45 0 -77 13t-47 28.5t-23 42t-9 40t-1 35.5q0 73 76.5 324.5t76.5 308.5q0 19 -7 31t-25 17.5t-33.5 7.5
t-48.5 4v55q80 4 179.5 17.5t170.5 26.5t78 13l-193 -631q-31 -97 -31 -137q0 -49 48 -49q29 0 66.5 30t71.5 74.5t58 80t37 59.5q63 113 104.5 230.5t98.5 316.5h241q-3 -10 -67 -225.5t-104 -360.5t-40 -174q0 -39 31 -39q22 0 56.5 34.5t54 62.5t35.5 54zM614 1057h-100
l250 268q37 39 52.5 53.5t41.5 31.5t47 17q37 0 69 -25t32 -71q0 -32 -19 -52t-61 -44z" />
    <glyph glyph-name="ucircumflex" unicode="&#xfb;" horiz-adv-x="1138" 
d="M965 272l43 -26q-147 -264 -326 -264q-137 0 -137 114q0 41 8.5 86t14.5 65t22 68l-4 2q-49 -68 -74 -101.5t-63 -80.5t-63 -68.5t-59 -44.5t-67 -31.5t-72 -8.5q-45 0 -77 13t-47 28.5t-23 42t-9 40t-1 35.5q0 73 76.5 324.5t76.5 308.5q0 19 -7 31t-25 17.5t-33.5 7.5
t-48.5 4v55q80 4 179.5 17.5t170.5 26.5t78 13l-193 -631q-31 -97 -31 -137q0 -49 48 -49q29 0 66.5 30t71.5 74.5t58 80t37 59.5q63 113 104.5 230.5t98.5 316.5h241q-3 -10 -67 -225.5t-104 -360.5t-40 -174q0 -39 31 -39q22 0 56.5 34.5t54 62.5t35.5 54zM877 1057
l-181 194l-268 -194h-117l328 356h166l176 -356h-104z" />
    <glyph glyph-name="udieresis" unicode="&#xfc;" horiz-adv-x="1138" 
d="M965 272l43 -26q-147 -264 -326 -264q-137 0 -137 114q0 41 8.5 86t14.5 65t22 68l-4 2q-49 -68 -74 -101.5t-63 -80.5t-63 -68.5t-59 -44.5t-67 -31.5t-72 -8.5q-45 0 -77 13t-47 28.5t-23 42t-9 40t-1 35.5q0 73 76.5 324.5t76.5 308.5q0 19 -7 31t-25 17.5t-33.5 7.5
t-48.5 4v55q80 4 179.5 17.5t170.5 26.5t78 13l-193 -631q-31 -97 -31 -137q0 -49 48 -49q29 0 66.5 30t71.5 74.5t58 80t37 59.5q63 113 104.5 230.5t98.5 316.5h241q-3 -10 -67 -225.5t-104 -360.5t-40 -174q0 -39 31 -39q22 0 56.5 34.5t54 62.5t35.5 54zM311 1206
q0 45 36.5 90t98.5 45q58 0 100 -41t42 -98q0 -56 -41 -95.5t-101 -39.5q-65 0 -100 45t-35 94zM745 1206q0 45 37 90t99 45q58 0 99.5 -41t41.5 -98q0 -56 -40.5 -95.5t-100.5 -39.5q-65 0 -100.5 45.5t-35.5 93.5z" />
    <glyph glyph-name="yacute" unicode="&#xfd;" horiz-adv-x="909" 
d="M29 842v55q175 15 305 49q27 -66 67.5 -241.5t67.5 -325.5l25 -148h4q60 116 88.5 173.5t57 129.5t28.5 107q0 25 -11.5 42t-28 27.5t-33.5 23t-28.5 37t-11.5 60.5q0 41 34 78t81 37q51 0 90 -38t39 -89q0 -35 -7.5 -77t-20 -84t-30.5 -89.5t-36.5 -89t-40.5 -87
t-40.5 -80t-38.5 -71t-32.5 -57t-24.5 -40.5l-12 -21q-166 -274 -306 -408.5t-286 -134.5q-53 0 -87 39t-34 84q0 37 27 75t82 38q19 0 54 -12.5t50 -22.5q59 -37 84 -37q28 0 72 36t79.5 95t35.5 113q0 116 -92 542q-21 95 -37.5 152t-29 91.5t-30 48.5t-31 17t-42.5 3z
M500 1057h-101l250 268q36 37 52.5 53t42.5 32.5t47 16.5q37 0 68.5 -25t31.5 -71q0 -32 -19 -52t-61 -44z" />
    <glyph glyph-name="thorn" unicode="&#xfe;" 
d="M657 696q0 48 -23.5 76.5t-58.5 28.5q-55 0 -108.5 -51.5t-85.5 -118.5q-34 -71 -92 -268.5t-58 -237.5q0 -44 26 -62t56 -18q70 0 137 80.5t110.5 190.5t70 215.5t26.5 164.5zM264 -365v-55h-510v55q33 0 49 2t37.5 13.5t35.5 38.5t26 73q379 1469 379 1485
q0 41 -25.5 54.5t-73.5 13.5h-30v55q234 25 421 62l-194 -697l6 -6q70 113 149 165t152 52q101 0 164 -62.5t63 -195.5q0 -94 -30.5 -196t-85 -193t-124.5 -165t-155 -117.5t-170 -43.5q-36 0 -63 9t-78 36q-5 -21 -25.5 -96t-35.5 -136t-15 -81q0 -24 9.5 -38.5t30.5 -21
t41 -8.5t52 -2z" />
    <glyph glyph-name="ydieresis" unicode="&#xff;" horiz-adv-x="909" 
d="M29 842v55q175 15 305 49q27 -66 67.5 -241.5t67.5 -325.5l25 -148h4q60 116 88.5 173.5t57 129.5t28.5 107q0 25 -11.5 42t-28 27.5t-33.5 23t-28.5 37t-11.5 60.5q0 41 34 78t81 37q51 0 90 -38t39 -89q0 -35 -7.5 -77t-20 -84t-30.5 -89.5t-36.5 -89t-40.5 -87
t-40.5 -80t-38.5 -71t-32.5 -57t-24.5 -40.5l-12 -21q-166 -274 -306 -408.5t-286 -134.5q-53 0 -87 39t-34 84q0 37 27 75t82 38q19 0 54 -12.5t50 -22.5q59 -37 84 -37q28 0 72 36t79.5 95t35.5 113q0 116 -92 542q-21 95 -37.5 152t-29 91.5t-30 48.5t-31 17t-42.5 3z
M197 1206q0 45 36.5 90t98.5 45q58 0 99.5 -41t41.5 -98q0 -56 -40.5 -95.5t-100.5 -39.5q-65 0 -100 45t-35 94zM631 1206q0 45 36.5 90t98.5 45q58 0 99.5 -41t41.5 -98q0 -56 -40.5 -95.5t-100.5 -39.5q-65 0 -100 45t-35 94z" />
    <glyph glyph-name="dotlessi" unicode="&#x131;" horiz-adv-x="569" 
d="M442 289l45 -29q-37 -57 -61.5 -91.5t-59.5 -74.5t-65.5 -61.5t-71 -36t-84.5 -14.5q-42 0 -72 14t-44 36.5t-19.5 43.5t-5.5 43q0 50 80 340.5t80 308.5q0 39 -26 52.5t-72 13.5h-23v55q251 18 414 57q-17 -63 -51 -184.5t-56.5 -204.5t-47.5 -175.5t-37.5 -149.5
t-12.5 -76q0 -14 10.5 -22.5t20.5 -8.5q17 0 38 15.5t45.5 45.5t38.5 50t37 53z" />
    <glyph glyph-name="Lslash" unicode="&#x141;" horiz-adv-x="1251" 
d="M1208 397l-121 -397h-1132v51q72 10 106.5 37.5t57.5 110.5l69 250l-213 -115l45 143l205 109l146 532q20 88 20 115q0 48 -23 60t-126 26v51h649v-51q-94 -5 -139 -33t-68 -115l-123 -452l307 166l-43 -144l-303 -170l-102 -378q-10 -39 -10 -66q0 -8 1 -13.5t8 -15.5
t19.5 -16t39.5 -11t65 -5q428 0 616 342z" />
    <glyph glyph-name="lslash" unicode="&#x142;" horiz-adv-x="569" 
d="M442 289l45 -29q-28 -42 -39.5 -59.5t-38.5 -54.5t-44 -54t-45.5 -42.5t-53 -37.5t-57 -21t-66.5 -9q-39 0 -67.5 12t-42 27t-20.5 38t-8 34t-1 26q0 58 139 559l-157 -88l39 143l159 88q111 394 111 434q0 62 -92 62q-6 0 -18.5 -1t-18.5 -1v55q188 16 428 62l-141 -512
l176 96l-39 -139l-176 -97l-117 -420q-45 -169 -45 -204q0 -12 8 -19.5t14 -9.5t9 -2q17 0 38 15.5t45.5 45.5t38.5 50t37 53z" />
    <glyph glyph-name="OE" unicode="&#x152;" horiz-adv-x="1933" 
d="M47 461q0 105 27.5 210.5t62.5 178t81.5 141t70.5 96t43 46.5q54 53 108 94t98 67.5t96 44.5t86.5 27.5t88 14t82 5t84.5 0.5q13 0 123 -8q106 -8 153 -8h686l-94 -391l-51 12q4 40 4 68q0 40 -6.5 71t-28 65.5t-58 57t-100.5 37.5t-151 15q-53 0 -70 -19.5t-32 -77.5
l-125 -450q18 -2 51 -2q69 0 122.5 13.5t85 30.5t59 50.5t39 55.5t30.5 63l55 -6l-147 -557l-56 10q1 10 5 55.5t4 54.5q0 25 -4 45.5t-14.5 35.5t-20.5 26t-31.5 19.5t-36.5 13.5t-47.5 9.5t-51.5 6.5t-61 6l-131 -502q-8 -32 -8 -49q0 -46 39.5 -58.5t146.5 -12.5
q93 0 175 32.5t142 87t100.5 108t72.5 114.5l55 -11l-123 -397h-606l-151 -2l-316 -14q-125 0 -197.5 12.5t-136.5 46.5q-67 35 -113.5 88.5t-68.5 113.5t-30.5 111.5t-8.5 104.5zM803 252l221 801q25 100 25 137q0 131 -156 131q-92 0 -174.5 -56.5t-141.5 -147
t-106.5 -200.5t-76 -223t-43.5 -207.5t-15 -160.5q0 -26 4 -54.5t19.5 -70.5t40.5 -74t74 -55t114 -23q92 0 139 50t76 153z" />
    <glyph glyph-name="oe" unicode="&#x153;" horiz-adv-x="1478" 
d="M1130 885q-20 0 -33 -3t-40 -26t-52.5 -66t-63.5 -131t-79 -213q95 22 164.5 68t101 89t50 94t20.5 70.5t2 31.5q0 40 -20 63t-50 23zM1210 285l58 -31q-69 -139 -164 -210t-230 -71q-131 0 -231 117q-60 -63 -146.5 -90t-158.5 -27q-17 0 -35 1.5t-52.5 9t-63.5 20.5
t-63 39t-57.5 61.5t-39 92t-15.5 125.5q0 66 26 147.5t79 165.5t123 153.5t168 113.5t204 44q53 0 94.5 -11.5t70 -34t43 -39t32.5 -42.5q50 40 81 61t91 43.5t123 22.5q46 0 84.5 -9t73.5 -29.5t55 -59.5t20 -94q0 -69 -51.5 -137.5t-126.5 -114.5q-77 -49 -139.5 -69.5
t-214.5 -55.5q-17 -79 -17 -115q0 -85 38.5 -122.5t95.5 -37.5q44 0 79 12.5t65.5 42t49.5 54.5t51 74zM690 735q0 152 -117 152q-35 0 -65 -17.5t-54.5 -51t-40 -63t-34.5 -73.5l-5 -12q-5 -11 -12 -29.5t-16.5 -44t-19.5 -55.5t-20.5 -62.5t-19.5 -68t-16.5 -69.5
t-11.5 -68.5t-4 -63.5q0 -23 0.5 -38.5t7 -44.5t17.5 -46.5t34 -32t56 -14.5q57 0 110.5 62.5t90.5 153.5t65 192t41.5 179.5t13.5 114.5z" />
    <glyph glyph-name="Scaron" unicode="&#x160;" horiz-adv-x="1138" 
d="M4 -37l74 459l59 -4q3 -100 30 -174.5t61.5 -113.5t81.5 -62.5t79.5 -29t65.5 -5.5q65 0 114.5 23.5t75 55t42 71.5t20.5 65t4 43q0 54 -27.5 105t-72 94.5t-98 86.5t-107 89t-98 94.5t-72 110t-27.5 128.5q0 79 27.5 151t79 128.5t133 90.5t180.5 34q65 0 169.5 -31
t127.5 -31q65 0 90 54h61l-82 -412l-55 8q-3 33 -6.5 55.5t-12 61.5t-20 66t-32.5 59t-47.5 51.5t-66 33t-87.5 13.5q-43 0 -77.5 -11.5t-56 -28t-37 -40t-23 -43.5t-12 -43t-5 -33t-0.5 -20q0 -46 14 -80.5t45.5 -65.5t65 -56.5t90 -70.5t104.5 -91q182 -178 182 -351
q0 -205 -123 -319.5t-358 -114.5q-67 0 -137 18t-121 36t-72 18q-19 0 -31 -4t-21.5 -15.5t-14 -20.5t-14.5 -32h-62zM1133 1837l-332 -356h-168l-180 356h102l186 -199l277 199h115z" />
    <glyph glyph-name="scaron" unicode="&#x161;" horiz-adv-x="796" 
d="M682 944l-47 -313l-55 4q-7 44 -18.5 82t-32 77t-54 62t-76.5 23q-31 0 -53 -11t-32 -24.5t-16 -32.5t-6.5 -27t-0.5 -16q0 -35 29 -82.5t70 -97t82 -102.5t70 -116.5t29 -121.5q0 -57 -19.5 -104.5t-51 -78.5t-72 -52.5t-82 -30.5t-82.5 -9q-50 0 -110 20.5t-78 20.5
q-7 0 -17.5 -2.5t-24 -12.5t-18.5 -26h-55l45 340l55 -6q9 -76 31.5 -132t45.5 -82t52.5 -40.5t42.5 -16t25 -1.5q54 0 85.5 34.5t31.5 77.5q0 79 -115 211q-88 102 -126 173t-38 159q0 65 24 116t64 80.5t87.5 44.5t99.5 15q55 0 109.5 -22.5t84.5 -22.5q22 0 32 8t26 35
h59zM868 1413l-331 -356h-168l-181 356h103l186 -199l277 199h114z" />
    <glyph glyph-name="Ydieresis" unicode="&#x178;" horiz-adv-x="1251" 
d="M479 641l-180 549q-15 45 -24.5 66.5t-28.5 35t-35.5 17.5t-60.5 10v51h579v-51q-84 0 -113.5 -18t-29.5 -56q0 -13 1.5 -25t7 -33t12 -42t20 -64t27.5 -86t39 -120l50 -154l265 381q37 53 45 75.5t8 57.5q0 42 -29.5 63t-107.5 21v51h426v-51q-61 -11 -101.5 -44.5
t-85.5 -96.5l-389 -547l-106 -391q-17 -55 -17 -99q0 -25 8.5 -41.5t19 -25.5t35.5 -14t41.5 -6t53.5 -3v-51h-659v51q36 3 54.5 5.5t43 8.5t37 15t27.5 24.5t25 38.5t19 56zM459 1630q0 45 36.5 90t98.5 45q58 0 99.5 -41t41.5 -98q0 -56 -40.5 -95.5t-100.5 -39.5
q-65 0 -100 45t-35 94zM893 1630q0 45 36.5 90t98.5 45q58 0 99.5 -41t41.5 -98q0 -56 -40.5 -95.5t-100.5 -39.5q-65 0 -100 45t-35 94z" />
    <glyph glyph-name="Zcaron" unicode="&#x17d;" horiz-adv-x="1251" 
d="M1135 397l-121 -397h-1037v59l889 1239h-159q-85 0 -158.5 -19.5t-122.5 -46t-98 -72.5t-75 -78.5t-63 -84.5l-57 9l117 364h958v-59l-889 -1239h144q49 0 82.5 2t91.5 9.5t113.5 28t105.5 52.5q47 32 115 101t108 143zM1126 1837l-331 -356h-168l-181 356h103l186 -199
l277 199h114z" />
    <glyph glyph-name="zcaron" unicode="&#x17e;" horiz-adv-x="796" 
d="M27 604l88 316h639v-21l-576 -686q66 -26 113 -68t70 -83t41.5 -78.5t40.5 -60.5t53 -23q19 0 31 9.5t12 20.5q0 12 -20.5 39.5t-20.5 61.5q0 37 29.5 69.5t70.5 32.5q37 0 74 -27t37 -83q0 -27 -13 -57.5t-38 -59.5t-69.5 -47.5t-99.5 -18.5q-56 0 -109 17.5t-93 42.5
t-76.5 50t-72 42.5t-66.5 17.5q-23 0 -36.5 -7t-72.5 -50l-51 45l598 725h-297q-24 0 -44 -9t-32 -20t-24 -31.5t-16.5 -32t-12.5 -32.5zM868 1413l-331 -356h-168l-181 356h103l186 -199l277 199h114z" />
    <glyph glyph-name="florin" unicode="&#x192;" 
d="M907 901l-18 -90h-238l-55 -315q-40 -230 -98.5 -392.5t-131 -253t-150.5 -130t-171 -39.5q-96 0 -159.5 46t-63.5 142q0 19 8.5 42.5t37.5 47t73 23.5q53 0 79.5 -34t26.5 -69q0 -30 -28.5 -66t-28.5 -44t1.5 -12.5t13.5 -10.5t34 -6q51 0 78 27q35 33 68.5 130.5
t45.5 168.5l144 745h-215l16 90h219q55 220 144 350q135 197 342 197q92 0 155.5 -51t63.5 -123q0 -12 -1 -22t-8 -31.5t-19.5 -36.5t-39 -27t-63.5 -12q-35 0 -68 25.5t-33 76.5q0 24 9.5 43t20.5 28.5t20.5 19t9.5 18.5q0 14 -14.5 22t-34.5 8q-25 0 -45.5 -8t-37.5 -29
t-30 -40t-26 -59.5t-21 -68.5t-19 -85t-16.5 -91t-17.5 -104h241z" />
    <glyph glyph-name="circumflex" unicode="&#x2c6;" horiz-adv-x="681" 
d="M647 1057l-180 194l-268 -194h-117l328 356h165l177 -356h-105z" />
    <glyph glyph-name="caron" unicode="&#x2c7;" horiz-adv-x="681" 
d="M842 1413l-332 -356h-168l-180 356h102l187 -199l276 199h115z" />
    <glyph glyph-name="uni02C9" unicode="&#x2c9;" horiz-adv-x="681" 
d="M805 1276l-33 -143h-668l35 143h666z" />
    <glyph glyph-name="breve" unicode="&#x2d8;" horiz-adv-x="681" 
d="M713 1389h80q-34 -203 -179 -285q-81 -47 -192 -47q-277 0 -277 303v29h88q6 -68 33 -109q54 -76 176 -76q53 0 96 13.5t69 30.5t49.5 47t33 47t23.5 47z" />
    <glyph glyph-name="dotaccent" unicode="&#x2d9;" horiz-adv-x="681" 
d="M334 1266q0 45 36.5 90t98.5 45q58 0 99.5 -41t41.5 -98q0 -56 -41 -96t-100 -40q-65 0 -100 45.5t-35 94.5z" />
    <glyph glyph-name="ring" unicode="&#x2da;" horiz-adv-x="681" 
d="M260 1276q0 90 64.5 153.5t154.5 63.5q89 0 153 -64t64 -153q0 -91 -64 -155t-153 -64q-90 0 -154.5 63.5t-64.5 155.5zM598 1274q0 50 -36 85.5t-87 35.5q-53 0 -85 -39.5t-32 -79.5q0 -41 30.5 -81t86.5 -40q52 0 87.5 35.5t35.5 83.5z" />
    <glyph glyph-name="ogonek" unicode="&#x2db;" horiz-adv-x="681" 
d="M170 70h68q-2 -11 -12 -47t-16.5 -68t-6.5 -55q0 -133 133 -133q14 0 25.5 2t24 7t19 8t21.5 11.5t20 11.5l54 -28q-31 -68 -106.5 -111t-135.5 -43q-36 0 -71 7.5t-72.5 24.5t-60.5 52.5t-23 85.5q0 122 139 275z" />
    <glyph glyph-name="tilde" unicode="&#x2dc;" horiz-adv-x="681" 
d="M750 1341h84q-8 -31 -15 -54t-26.5 -61.5t-43.5 -63.5t-65 -44.5t-92 -19.5q-50 0 -115 26l-121 47q-49 17 -73 17t-42 -7t-30 -23t-17 -26.5t-14 -31.5h-82q0 5 5 27t22 59.5t41.5 71t70 58.5t101.5 25q63 0 171.5 -43t131.5 -43q25 0 43.5 7t31.5 22.5t19 26t15 30.5z
" />
    <glyph glyph-name="hungarumlaut" unicode="&#x2dd;" horiz-adv-x="681" 
d="M242 1057h-101l250 268q37 39 52.5 53.5t41.5 31.5t47 17q37 0 69 -25t32 -71q0 -32 -19 -52t-61 -44zM629 1057h-101l250 268q36 37 52.5 53t42.5 32.5t47 16.5q37 0 68.5 -25t31.5 -71q0 -32 -19 -52t-61 -44z" />
    <glyph glyph-name="uni03A9" unicode="&#x3a9;" horiz-adv-x="1339" 
d="M1169 295l-125 -295h-444l-6 37q15 22 83 116.5t103 148t88.5 141t88.5 167.5t55 156q40 150 43.5 262.5t-25.5 177t-77 95t-115 30.5q-71 0 -135 -29.5t-126 -93.5t-117 -178t-98 -272q-23 -88 -30.5 -180t1 -185.5t19 -160.5t28.5 -160q5 -24 7 -35l-25 -37h-442
l37 295l51 2q4 -89 26 -116t81 -27h184q-36 43 -60.5 77t-56.5 97t-46.5 123t-14.5 145.5t24 175.5q50 187 161.5 330t255.5 218t298 75q156 0 258.5 -73.5t134.5 -209.5t-16 -328q-19 -69 -50.5 -135t-75 -125.5t-84.5 -107.5t-98.5 -100.5t-95 -84t-94.5 -77.5h199
q59 0 91.5 25t86.5 118z" />
    <glyph glyph-name="uni03BC" unicode="&#x3bc;" horiz-adv-x="1089" 
d="M979 246q-58 -105 -100 -153q-96 -111 -209 -111q-31 0 -53.5 3.5t-48 14.5t-39 37t-13.5 65q0 22 1.5 40t6.5 40.5t8 34.5t13.5 46.5t15.5 51.5q-116 -176 -213 -254.5t-194 -78.5q-56 0 -83.5 21t-41.5 83q-47 -135 -47 -362v-23q0 -123 -109 -123q-88 0 -88 90
q0 34 33 106.5t79 172.5t68 178l221 795h246l-168 -592q-2 -8 -13 -44.5t-16.5 -58.5t-5.5 -35q0 -40 10 -52.5t42 -12.5q52 0 115 64.5t116 158.5t95 190.5t61 168.5l57 213h238l-191 -695q-12 -34 -12 -73q0 -31 31 -31q51 0 145 151z" />
    <glyph glyph-name="pi" unicode="&#x3c0;" horiz-adv-x="1069" 
d="M1034 936l45 -16q-51 -120 -118 -191q-41 -10 -127 -10q-43 -119 -125 -436q-17 -63 -19.5 -102t9.5 -59t40 -20q42 0 105 54l12 -43q-51 -64 -117 -101t-123 -37q-40 0 -67 12t-44.5 40.5t-17 81t20.5 127.5q53 192 151 489q-52 0 -142.5 2t-125.5 2l-8 -33
q-43 -160 -93 -292.5t-93.5 -211t-73 -121t-49.5 -61.5q-87 -33 -131 -35l-2 37q129 129 224 331t144 388q-83 1 -133.5 -17t-128.5 -65l-16 49q3 3 28 26t34 31t35.5 29t43.5 30.5t47 25t56.5 22t62 12t72.5 5.5q493 -7 495 -7q45 0 71 13t58 51z" />
    <glyph glyph-name="uni2010" unicode="&#x2010;" horiz-adv-x="681" 
d="M555 578l-47 -238h-504l49 238h502z" />
    <glyph glyph-name="endash" unicode="&#x2013;" 
d="M977 551l-35 -186h-1024l35 186h1024z" />
    <glyph glyph-name="emdash" unicode="&#x2014;" horiz-adv-x="2048" 
d="M2001 551l-35 -186h-2048l35 186h2048z" />
    <glyph glyph-name="quoteleft" unicode="&#x2018;" horiz-adv-x="681" 
d="M653 1403l27 -49q-21 -11 -41 -22t-60 -38t-68 -52t-50.5 -60.5t-22.5 -67.5q0 -23 15 -41t36 -31.5t42 -29t36 -42.5t15 -63q0 -65 -40.5 -108t-103.5 -43q-19 0 -39.5 4.5t-46 17.5t-45 34t-32.5 57t-13 83q0 76 38 150t90.5 124.5t111.5 92t98 61t53 23.5z" />
    <glyph glyph-name="quoteright" unicode="&#x2019;" horiz-adv-x="681" 
d="M227 756l-26 49q22 11 41 22t59.5 37.5t68 52t50 60.5t22.5 67q0 23 -14.5 41t-35.5 31.5t-42.5 29t-36 42.5t-14.5 63q0 65 40.5 108.5t102.5 43.5q25 0 51.5 -8.5t56.5 -28t49 -61t19 -99.5q0 -76 -38 -149.5t-90.5 -124.5t-111.5 -92t-98 -60.5t-53 -23.5z" />
    <glyph glyph-name="quotesinglbase" unicode="&#x201a;" horiz-adv-x="681" 
d="M16 -373l-26 49q29 15 56.5 31.5t76 51t78.5 76t30 81.5q0 23 -14.5 41t-35.5 31.5t-42.5 29t-36 42.5t-14.5 63q0 65 40 108t103 43q19 0 39.5 -4.5t46 -17.5t45 -33.5t33 -57t13.5 -83.5q0 -76 -38 -150t-91 -124.5t-112 -92t-98 -61t-53 -23.5z" />
    <glyph glyph-name="quotedblleft" unicode="&#x201c;" 
d="M500 1403l26 -49q-29 -15 -56.5 -31.5t-76 -51t-78.5 -76t-30 -81.5q0 -23 14.5 -41t35.5 -31.5t42.5 -29t36 -42.5t14.5 -63q0 -65 -40 -108t-103 -43q-19 0 -39.5 4.5t-46 17.5t-45 34t-32.5 57t-13 83q0 76 38 150t90.5 124.5t111.5 92t98 61t53 23.5zM1024 1403
l27 -49q-21 -11 -41 -22t-60 -38t-68 -52t-50.5 -60.5t-22.5 -67.5q0 -23 14.5 -41t35.5 -31.5t42.5 -29t36 -42.5t14.5 -63q0 -65 -40 -108t-103 -43q-19 0 -39.5 4.5t-46 17.5t-45 34t-32.5 57t-13 83q0 76 38 150t90.5 124.5t111.5 92t98 61t53 23.5z" />
    <glyph glyph-name="quotedblright" unicode="&#x201d;" 
d="M659 756l-26 49q22 11 41 22t59.5 37.5t68 52t50 60.5t22.5 67q0 20 -10.5 36t-26.5 26.5t-34.5 24t-34.5 27.5t-26.5 38t-10.5 55q0 65 40.5 108.5t102.5 43.5q19 0 40 -4.5t46 -18t44.5 -34t33 -57t13.5 -83.5q0 -76 -38 -149.5t-91 -124.5t-112 -92t-98 -60.5
t-53 -23.5zM135 756l-26 49q22 11 41 22t59.5 37.5t68 52t50 60.5t22.5 67q0 20 -10.5 36t-26.5 26.5t-34.5 24t-34.5 27.5t-26.5 38t-10.5 55q0 65 40.5 108.5t102.5 43.5q25 0 51.5 -8.5t56.5 -28t49 -61t19 -99.5q0 -76 -38 -149.5t-90.5 -124.5t-111.5 -92t-98 -60.5
t-53 -23.5z" />
    <glyph glyph-name="quotedblbase" unicode="&#x201e;" 
d="M434 -373l-26 49q29 15 56.5 31.5t76 51t78.5 76t30 81.5q0 23 -14.5 41t-35.5 31.5t-42.5 29t-36 42.5t-14.5 63q0 65 40 108t103 43q19 0 39.5 -4.5t46 -17.5t45 -34t32.5 -57t13 -83q0 -76 -38 -150t-90.5 -124.5t-111.5 -92t-98 -61t-53 -23.5zM-90 -373l-27 49
q21 11 41 22t60 38t68 52t50.5 60.5t22.5 67.5q0 23 -14.5 41t-35.5 31.5t-42.5 29t-36 42.5t-14.5 63q0 65 40 108t103 43q19 0 39.5 -4.5t46 -17.5t45 -34t32.5 -57t13 -83q0 -76 -38 -150t-90.5 -124.5t-111.5 -92t-98 -61t-53 -23.5z" />
    <glyph glyph-name="dagger" unicode="&#x2020;" 
d="M367 -297h-48l58 354q26 159 26 375q0 21 -5 75.5t-7 61.5q74 61 123.5 165.5t54.5 172.5h-14q-53 0 -95 -20t-82.5 -40t-88.5 -20q-46 0 -74.5 29.5t-28.5 69.5q0 30 9.5 52t21.5 32.5t29 17t26.5 7.5t18.5 1q42 0 82.5 -20t88 -40t105.5 -20h11q18 54 18 109
q0 33 -19.5 100t-19.5 117q0 55 30.5 88t82.5 33q62 0 89 -36t27 -75q0 -64 -65 -145l-31 -39l-12 -16t-10.5 -18t-8 -17.5t-7.5 -19.5t-6 -17.5t-5 -18t-4 -16t-3 -16.5l-3 -13q59 1 108.5 21t87.5 39.5t72 19.5q32 0 55 -10.5t33.5 -23.5t17 -31t7 -26t0.5 -15
q0 -33 -15 -56.5t-37 -33.5t-37.5 -13.5t-27.5 -3.5q-32 0 -69.5 21t-84 42t-100.5 21h-20q-13 -72 -13 -110q0 -103 54 -246q-87 -103 -166 -365q-23 -77 -60 -224t-69 -259z" />
    <glyph glyph-name="daggerdbl" unicode="&#x2021;" 
d="M649 559q-79 -70 -115 -146t-71 -214q61 0 113 20t90 40t67 20h6q42 0 74.5 -25.5t32.5 -75.5q0 -31 -13 -53t-33 -31t-35 -12.5t-28 -3.5q-32 0 -71.5 19t-88 38t-100.5 19h-22q-13 -61 -13 -123q0 -44 14.5 -104t14.5 -91q0 -121 -119 -121q-41 0 -71.5 31t-30.5 72
q0 29 11.5 55.5t31 53t40 55.5t42.5 75t35 99q-59 -3 -116 -21.5t-100 -35.5t-69 -17q-42 0 -73.5 26t-31.5 70t32 75.5t75 31.5q32 0 76 -20.5t99 -41.5t114 -22q14 60 14 155q0 66 -10 110t-39 93q79 70 115 146t71 215q-61 0 -113 -20t-90 -40t-67 -20h-6q-42 0 -74.5 25
t-32.5 75q0 31 13 53t33 31t35 12.5t28 3.5q26 0 57 -11.5t56.5 -26t65.5 -26t81 -11.5h22q13 61 13 122q0 44 -14.5 104t-14.5 91q0 121 119 121q41 0 71.5 -31t30.5 -72q0 -35 -18.5 -70t-42.5 -64t-53 -83.5t-45 -119.5q59 3 116 21t99.5 35t68.5 17q42 0 73.5 -26
t31.5 -70t-32 -75t-75 -31q-32 0 -76 20.5t-99 41.5t-114 22q-14 -60 -14 -156q0 -66 10 -110t39 -93z" />
    <glyph glyph-name="bullet" unicode="&#x2022;" horiz-adv-x="716" 
d="M717 717q0 -149 -105 -254t-254 -105q-150 0 -254 104t-104 255v4q0 148 104.5 251t253.5 103t254 -104.5t105 -253.5z" />
    <glyph glyph-name="ellipsis" unicode="&#x2026;" horiz-adv-x="2048" 
d="M233 276q63 0 107.5 -44t44.5 -107q0 -64 -44.5 -108t-107.5 -44q-66 0 -108.5 44t-42.5 108q0 63 43 107t108 44zM913 276q63 0 107.5 -44t44.5 -107q0 -64 -44.5 -108t-107.5 -44q-66 0 -108.5 44t-42.5 108q0 63 43 107t108 44zM1593 276q63 0 107.5 -44t44.5 -107
q0 -64 -44.5 -108t-107.5 -44q-66 0 -108.5 44t-42.5 108q0 63 43 107t108 44z" />
    <glyph glyph-name="perthousand" unicode="&#x2030;" horiz-adv-x="2048" 
d="M14 934q0 86 27 161.5t69.5 126t95 87.5t104 54t96.5 17q41 0 73.5 -10.5t44 -18.5t39.5 -30q24 -20 40.5 -30.5t51.5 -20.5t80 -10q193 0 338 186h98l-897 -1505h-98l789 1329l-4 4q-40 -33 -94.5 -52.5t-81 -22.5t-46.5 -3q-63 0 -123 27q7 -58 7 -90q0 -50 -10.5 -108
t-37.5 -124t-66.5 -119t-103.5 -88t-143 -35q-39 0 -81 17t-80 49t-62.5 86.5t-24.5 122.5zM211 866q0 -145 106 -145q65 0 124.5 64.5t93.5 162t34 193.5q0 23 -10 78q-3 15 -10 19.5t-47 16.5q-9 3 -36.5 23t-43.5 20q-47 0 -98 -78.5t-82 -180t-31 -173.5zM684 256
q0 77 32 154t84.5 137t126.5 97.5t152 37.5q45 0 81 -12t58.5 -29.5t38.5 -44t24 -48t12 -50t4.5 -41t0.5 -29.5q0 -46 -11.5 -103t-38.5 -121.5t-66 -117.5t-101 -88t-135 -35q-28 0 -57.5 5.5t-68 24.5t-67.5 49.5t-49 86t-20 127.5zM887 170q0 -22 0.5 -36t6 -38
t15.5 -38.5t30.5 -26t49.5 -11.5q61 0 113 49t82 119t46.5 136.5t16.5 111.5q0 57 -14.5 96t-37.5 55t-39 21.5t-30 5.5q-49 0 -95.5 -53t-76.5 -126.5t-48.5 -146.5t-18.5 -118zM1425 256q0 103 53.5 201.5t146 161.5t196.5 63q45 0 81 -12t58.5 -29.5t38.5 -44t24 -48
t12 -50t4.5 -41t0.5 -29.5q0 -46 -11.5 -103t-38.5 -121.5t-66 -117.5t-101 -88t-135 -35q-28 0 -57.5 5.5t-68 24.5t-67.5 49.5t-49.5 86t-20.5 127.5zM1628 170q0 -22 1 -36t6 -38t15.5 -38.5t31 -26t49.5 -11.5q61 0 113 49t82 119t46.5 136.5t16.5 111.5q0 57 -14.5 96
t-37.5 55t-39 21.5t-30 5.5q-49 0 -95.5 -53t-77 -126.5t-49 -146.5t-18.5 -118z" />
    <glyph glyph-name="guilsinglleft" unicode="&#x2039;" horiz-adv-x="681" 
d="M322 451l81 -170q68 -140 68 -183q0 -14 -9 -23t-20 -9t-17 5t-32 33q-99 108 -327 340v19q51 37 185 135t185 135q26 19 62 51t58 49t36 17q13 0 21 -7.5t8 -17.5q0 -21 -18.5 -53t-53.5 -73.5t-68.5 -77.5t-82.5 -87.5t-76 -82.5z" />
    <glyph glyph-name="guilsinglright" unicode="&#x203a;" horiz-adv-x="681" 
d="M319 465l-81 170q-68 140 -68 182q0 14 9 23.5t20 9.5t17 -5t32 -34q99 -108 327 -340v-18q-51 -37 -185 -135.5t-185 -135.5q-26 -19 -62 -51t-58 -48.5t-36 -16.5q-13 0 -21 7t-8 17q0 21 18 53t53.5 73.5t69 78t82.5 88.5t76 82z" />
    <glyph glyph-name="fraction" unicode="&#x2044;" horiz-adv-x="342" 
d="M664 1399v-4l-891 -1424h-119l891 1428h119z" />
    <glyph glyph-name="Euro" unicode="&#x20ac;" 
d="M1171 1393l-86 -344l-59 4q-21 121 -53 180q-49 88 -152 88q-125 0 -217 -156q-47 -81 -108 -266h528l-100 -139h-471q-9 -31 -29 -115h448l-100 -139h-375q-12 -92 -12 -127q0 -127 49 -203q60 -94 176 -94q178 0 342 252l54 -53q-103 -162 -191 -230q-118 -86 -278 -86
q-220 0 -340 166q-108 147 -111 375h-166l96 139h76q15 81 23 115h-140l99 139h86q88 211 237 342q175 152 375 152q36 0 141 -31q91 -29 146 -29q54 0 63 60h49z" />
    <glyph glyph-name="afii61289" unicode="&#x2113;" horiz-adv-x="794" 
d="M600 238l33 -35q-178 -228 -387 -228q-138 0 -178 78q-24 36 -22.5 101.5t34.5 187.5l43 160l-127 -80l-12 51l159 107l70 264q63 230 111.5 334t126.5 178q103 106 208 106q86 0 114.5 -77t-5.5 -189q-43 -163 -150 -299t-278 -276l-49 -185q-35 -129 -37 -203.5
t23.5 -104.5t82.5 -30q107 0 240 140zM430 954l-63 -235q98 91 177.5 219t114.5 256q27 94 21 149.5t-47 55.5q-48 0 -91.5 -94.5t-111.5 -350.5z" />
    <glyph glyph-name="trademark" unicode="&#x2122;" horiz-adv-x="2048" 
d="M504 1325v-643q0 -63 13.5 -76t88.5 -20v-43h-364v43q75 7 88.5 20t13.5 76v643h-100q-106 0 -135 -135h-43v180h716v-180h-43q-29 135 -135 135h-100zM1372 539l-299 618h-4v-434q0 -75 20 -103t87 -34v-43h-269v43q67 6 87 34t20 103v500q-20 47 -59.5 75.5t-84.5 30.5
v41h260l308 -618l321 618h223v-41q-66 -4 -90 -29.5t-24 -80.5v-537q0 -63 13.5 -76t88.5 -20v-43h-364v43q74 8 88 19.5t14 68.5v487h-4l-309 -622h-23z" />
    <glyph glyph-name="Omega" unicode="&#x2126;" horiz-adv-x="1339" 
d="M1169 295l-125 -295h-444l-6 37q15 22 83 116.5t103 148t88.5 141t88.5 167.5t55 156q40 150 43.5 262.5t-25.5 177t-77 95t-115 30.5q-71 0 -135 -29.5t-126 -93.5t-117 -178t-98 -272q-23 -88 -30.5 -180t1 -185.5t19 -160.5t28.5 -160q5 -24 7 -35l-25 -37h-442
l37 295l51 2q4 -89 26 -116t81 -27h184q-36 43 -60.5 77t-56.5 97t-46.5 123t-14.5 145.5t24 175.5q50 187 161.5 330t255.5 218t298 75q156 0 258.5 -73.5t134.5 -209.5t-16 -328q-19 -69 -50.5 -135t-75 -125.5t-84.5 -107.5t-98.5 -100.5t-95 -84t-94.5 -77.5h199
q59 0 91.5 25t86.5 118z" />
    <glyph glyph-name="estimated" unicode="&#x212e;" horiz-adv-x="1904" 
d="M1837 664h-1282q-10 0 -10 -9v-387q0 -26 16 -45q96 -99 222 -155t264 -56q150 0 282 63t227 173h115q-108 -127 -273 -201t-354 -74q-214 0 -396 95t-288 258.5t-106 355.5q0 145 62.5 277.5t168.5 227.5t252 151.5t307 56.5t308 -56.5t253 -151.5t169 -227.5t63 -277.5
v-18zM1546 715v389q0 29 -18 47q-97 95 -220.5 149t-260.5 54q-136 0 -262 -55.5t-222 -153.5q-18 -18 -18 -49v-381q0 -4 3 -8.5t7 -4.5h983q8 0 8 13z" />
    <glyph glyph-name="partialdiff" unicode="&#x2202;" horiz-adv-x="1005" 
d="M541 848h2q65 0 120.5 -31.5t81.5 -93.5q50 133 78 217q54 172 35 307q-10 71 -59 120.5t-133 49.5q-128 0 -289 -112q-15 -1 -26.5 24t-11.5 56t13 57q141 80 287 80q256 0 322 -285q17 -71 14 -162t-14.5 -163.5t-30.5 -141.5q-34 -126 -91.5 -259t-129.5 -232
q-101 -141 -222.5 -222.5t-255.5 -81.5q-156 0 -221 104t-16 288q48 189 201 331q70 67 163 108.5t183 41.5zM561 766h-2q-112 0 -217 -115q-61 -71 -111 -176.5t-79 -214.5q-28 -95 -1.5 -159t99.5 -64q112 0 260 213q59 85 102 171.5t93 213.5q-5 46 -44 88.5t-100 42.5z
" />
    <glyph glyph-name="Delta" unicode="&#x2206;" horiz-adv-x="1198" 
d="M944 0h-1065l17 55l833 1317l88 23l141 -1340zM733 102l-96 994l-619 -994h715z" />
    <glyph glyph-name="product" unicode="&#x220f;" horiz-adv-x="1486" 
d="M1436 1378v-55q-65 -5 -96.5 -11t-51 -25t-23 -44t-3.5 -78v-1108q0 -39 1.5 -62t8.5 -43.5t16.5 -30t30.5 -18.5t46 -12.5t67 -7.5v-55h-510v55q39 3 59.5 6t40.5 11t27.5 17t13.5 30t7 43.5t1 64.5v1186q0 44 -13.5 56t-58.5 12h-333q-43 0 -54.5 -10.5t-11.5 -49.5
v-1194v-6q0 -92 11 -116q14 -32 70 -43q21 -4 54 -7v-55h-497v55q62 5 92 11t49 26.5t23 48.5t4 86v1110q0 54 -4 79t-23.5 44t-51 24.5t-96.5 10.5v55h1205z" />
    <glyph glyph-name="summation" unicode="&#x2211;" horiz-adv-x="1222" 
d="M1182 201l-84 -383h-862v51l419 668l-411 790v51h856q1 -14 9.5 -131.5t12.5 -189.5l-57 -10q-23 122 -64 194q-21 41 -59.5 55.5t-140.5 14.5h-320l340 -637l-422 -684h459q47 0 72 1.5t52.5 9.5t42 20.5t33 40t32.5 62t34 91.5z" />
    <glyph glyph-name="minus" unicode="&#x2212;" horiz-adv-x="1241" 
d="M1137 428h-1033v180h1033v-180z" />
    <glyph glyph-name="uni2215" unicode="&#x2215;" horiz-adv-x="342" 
d="M664 1399v-4l-891 -1424h-119l891 1428h119z" />
    <glyph glyph-name="uni2219" unicode="&#x2219;" horiz-adv-x="512" 
d="M256 829q63 0 107.5 -44t44.5 -107q0 -64 -44.5 -108t-107.5 -44q-66 0 -109 44t-43 108q0 62 43.5 106.5t108.5 44.5z" />
    <glyph glyph-name="radical" unicode="&#x221a;" horiz-adv-x="1239" 
d="M1210 1749l-323 -2062l-45 -21l-404 1084l-164 -76l-22 69l315 142l295 -832h4l262 1712z" />
    <glyph glyph-name="infinity" unicode="&#x221e;" horiz-adv-x="1488" 
d="M1401 571v-2q0 -143 -87.5 -230t-207.5 -87q-86 0 -164.5 49t-169.5 166q-85 -104 -164 -159.5t-182 -55.5q-118 0 -203.5 87.5t-85.5 221.5q0 136 86 223.5t217 87.5q97 0 176.5 -54t161.5 -156q81 93 122 127q101 83 218 83q123 0 203 -83.5t80 -217.5zM440 371h2
q32 0 64.5 12.5t54 25.5t54.5 45.5t45.5 46.5t46.5 54q-77 101 -114 134q-75 69 -161 69q-81 0 -127.5 -56.5t-46.5 -144.5q0 -77 52.5 -131.5t129.5 -54.5zM1106 758h-2q-28 0 -56.5 -10.5t-50 -23.5t-48 -37.5t-40.5 -40t-39 -44.5t-32 -37q91 -110 147 -152t125 -42
q77 0 123.5 58.5t46.5 129.5q0 89 -48.5 144t-125.5 55z" />
    <glyph glyph-name="integral" unicode="&#x222b;" horiz-adv-x="923" 
d="M496 8l-39 809q-10 203 5 357.5t44.5 245t75 146.5t90.5 75.5t98 19.5q47 0 86.5 -25.5t40.5 -72.5q0 -45 -29.5 -71t-68.5 -26q-23 0 -38.5 16t-22.5 35.5t-17.5 35.5t-24.5 16q-84 0 -69 -316l37 -743q10 -204 -2.5 -363t-41.5 -259.5t-73.5 -165.5t-94 -91t-108.5 -26
q-53 0 -89 30t-36 72q-1 43 33 73t78 30q20 0 34.5 -17t21.5 -37.5t18 -37.5t24 -17q41 0 58.5 82t9.5 225z" />
    <glyph glyph-name="approxequal" unicode="&#x2248;" horiz-adv-x="1046" 
d="M895 862l78 -69q-41 -86 -104 -138.5t-140 -52.5q-52 0 -95.5 17t-109.5 57q-95 63 -157 63q-55 0 -92 -34.5t-78 -100.5l-82 66q41 85 111 137.5t151 52.5q18 0 35.5 -2t34.5 -7.5t28.5 -9t29 -12.5t24 -12.5t24 -13.5t20.5 -12q6 -4 22.5 -14t21.5 -13.5t18.5 -11
t20 -10.5t17.5 -7.5t19 -6.5t18.5 -3.5t20.5 -1.5q49 0 86 34.5t78 104.5zM895 524l78 -67q-41 -86 -104 -138.5t-142 -52.5q-51 0 -94 17t-109 57q-50 32 -85 47.5t-72 15.5q-30 0 -55.5 -11t-46.5 -33.5t-35 -41.5t-33 -51l-82 68q41 85 111 137.5t151 52.5q26 0 50 -4
t46.5 -13.5t35 -16t35 -19.5t27.5 -16t26.5 -16.5t28 -17t24 -13t27.5 -12.5t25 -6t29 -3q49 0 85 33t79 104z" />
    <glyph glyph-name="notequal" unicode="&#x2260;" horiz-adv-x="1089" 
d="M817 979l-74 -168h256v-125h-301l-112 -258h413v-123h-458l-92 -209l-97 39l74 170h-250v123h297l111 258h-408v125h455l90 207z" />
    <glyph glyph-name="lessequal" unicode="&#x2264;" horiz-adv-x="1130" 
d="M1036 203l-807 422v133l807 420v-146l-684 -338v-4l684 -340v-147zM1044 2h-823v127h823v-127z" />
    <glyph glyph-name="greaterequal" unicode="&#x2265;" horiz-adv-x="1130" 
d="M231 1178l809 -422v-131l-809 -422v147l684 338v4l-684 340v146zM1042 2h-821v127h821v-127z" />
    <glyph glyph-name="lozenge" unicode="&#x25ca;" horiz-adv-x="1245" 
d="M1155 666l-362 -799h-152l-360 799l364 804h150zM1016 666l-293 669h-6l-297 -667l297 -670h6z" />
    <glyph glyph-name="zero.taboldstyle" unicode="&#xf643;" 
d="M606 971q-66 0 -129 -92t-103.5 -220.5t-65.5 -257.5t-25 -213q0 -80 36 -117.5t91 -37.5q59 0 112.5 71t89 173.5t62.5 217.5t39 203t12 129q0 144 -119 144zM41 375q0 133 46.5 255.5t122 208.5t174 137.5t200.5 51.5q168 0 275.5 -115.5t107.5 -312.5q0 -155 -73 -299
t-200.5 -235t-273.5 -91q-75 0 -142.5 27t-120.5 76.5t-84.5 126.5t-31.5 170z" />
    <glyph glyph-name="one.taboldstyle" unicode="&#xf644;" 
d="M743 0h-698v49q105 0 160 35t82 129l131 451q1 5 10.5 38.5t13 46.5t9.5 40t8 47.5t2 40.5q0 41 -38.5 55t-133.5 14v49h669v-49q-60 0 -102.5 -14t-69.5 -43.5t-42 -61t-29 -79.5l-131 -457q-29 -102 -29 -152q0 -53 42.5 -71.5t145.5 -18.5v-49z" />
    <glyph glyph-name="two.taboldstyle" unicode="&#xf645;" 
d="M727 0h-727v49q36 31 125.5 100t166.5 131t157 135.5t127 144.5t47 128q0 78 -49.5 123t-127.5 45q-80 0 -141.5 -42.5t-95.5 -106.5l-47 18q19 35 34 59.5t42.5 63t58.5 65.5t71 53.5t91.5 40t109.5 13.5q148 0 230 -76t82 -182q0 -59 -35 -121.5t-83.5 -112.5
t-130.5 -110t-143 -98.5t-153 -92.5v-2h264q52 0 86.5 8t58.5 28.5t37.5 40.5t32.5 58h53z" />
    <glyph glyph-name="three.taboldstyle" unicode="&#xf646;" 
d="M231 340v49q167 18 277 97.5t110 207.5q0 58 -19 98.5t-49 59t-55.5 26t-50.5 7.5q-77 0 -143 -51.5t-90 -102.5l-43 27q166 262 407 262q137 0 223.5 -74t86.5 -194q0 -49 -12.5 -92t-36 -74.5t-46.5 -55t-55.5 -42t-50.5 -27t-43 -19.5q26 -19 43.5 -33.5t42 -42.5
t39.5 -57.5t26 -74.5t11 -97q0 -98 -45.5 -194t-123.5 -171.5t-193 -122t-244 -46.5q-118 0 -187 50t-69 122q0 47 30 76.5t82 29.5q42 0 72.5 -20t48.5 -49l36 -58t46 -49t66 -20q91 0 157 99t66 243q0 158 -80 231t-234 82z" />
    <glyph glyph-name="four.taboldstyle" unicode="&#xf647;" 
d="M995 1051l-233 -858h141l-51 -193h-145l-93 -344h-264l99 344h-502l51 197l870 854h127zM500 193l153 540l-4 4l-559 -544h410z" />
    <glyph glyph-name="five.taboldstyle" unicode="&#xf648;" 
d="M907 778h-528l-72 -160q80 -9 152 -30.5t138.5 -60.5t115 -91.5t77.5 -127.5t29 -165q0 -123 -53.5 -227t-140 -171t-192.5 -104.5t-214 -37.5q-130 0 -197 46.5t-67 114.5q0 45 31 81t84 36q38 0 67 -20t47.5 -49l37 -58t47.5 -49t67 -20q100 0 183 96.5t83 241.5
q0 80 -29 142t-72.5 100t-109.5 65.5t-126 40.5t-136 22l268 602h580z" />
    <glyph glyph-name="six.taboldstyle" unicode="&#xf649;" 
d="M1057 1393v-50q-38 -10 -82 -27.5t-110 -57.5t-127 -92t-127.5 -136.5t-116.5 -185.5q90 24 131 24q15 0 34 -2.5t49.5 -11.5t58.5 -23.5t57.5 -42t51.5 -64t36 -92t14 -122.5q0 -92 -36.5 -186.5t-98.5 -172t-154.5 -127t-194.5 -49.5q-190 0 -283 113.5t-93 312.5
q0 131 43 263.5t128.5 253.5t203 220t277 166.5t339.5 88.5zM295 172q0 -66 36.5 -102.5t86.5 -36.5q53 0 100 68.5t96 222.5q25 79 43.5 175.5t18.5 135.5q0 60 -33.5 105.5t-81.5 45.5q-99 0 -117 -45q-149 -335 -149 -569z" />
    <glyph glyph-name="seven.taboldstyle" unicode="&#xf64a;" 
d="M1040 963l-768 -1336h-182l678 1143h-350q-110 0 -170.5 -42.5t-95.5 -109.5h-52l176 377h764v-32z" />
    <glyph glyph-name="eight.taboldstyle" unicode="&#xf64b;" 
d="M678 827q31 30 50 51.5t43 58t36 80.5t12 95q0 106 -45 162.5t-119 56.5q-66 0 -114.5 -49t-48.5 -147q0 -32 5 -57.5t21.5 -64.5t56.5 -86t103 -100zM432 698q-166 152 -166 334q0 155 110.5 260t264.5 105q176 0 275.5 -87t99.5 -206q0 -39 -11.5 -74t-27 -61.5
t-44 -53t-49.5 -42.5t-58 -36.5t-55 -29.5t-54 -25q35 -35 58.5 -63t54.5 -76.5t47 -109t16 -130.5q0 -211 -125.5 -319.5t-333.5 -108.5q-178 0 -281.5 97t-103.5 233q0 79 34 146.5t81 109.5t104.5 73.5t97 45t66.5 18.5zM246 264q0 -51 19 -100t65.5 -86t111.5 -37
q104 0 165 68.5t61 179.5q0 47 -9.5 87t-21.5 69t-42.5 68.5t-53 64.5t-72.5 77q-50 -30 -85.5 -61.5t-69 -77t-51 -109t-17.5 -143.5z" />
    <glyph glyph-name="nine.taboldstyle" unicode="&#xf64c;" 
d="M-49 -389v49q38 10 82 28t110 57.5t127 92t127.5 137t116.5 185.5q-94 -25 -131 -25q-15 0 -34 2.5t-49.5 11.5t-58.5 24t-57.5 42.5t-51.5 63.5t-36 92t-14 123q0 140 65.5 263.5t177.5 197t240 73.5q185 0 281 -114.5t96 -311.5q0 -131 -43 -263.5t-128.5 -253.5
t-203 -219.5t-277 -166t-339.5 -88.5zM463 217q31 0 59 10t35 25q85 168 120.5 321t35.5 258q0 140 -90 140q-50 0 -97.5 -53.5t-81.5 -131.5t-60 -163.5t-39 -152.5t-13 -97q0 -156 131 -156z" />
    <glyph glyph-name="dollar.taboldstyle" unicode="&#xf653;" 
d="M1018 1225l-86 -273l-43 11q-1 30 1 64.5t-7 73t-24.5 72.5t-51.5 63t-88 44l-121 -440q45 -39 68.5 -59.5t59.5 -55t54.5 -57.5t42 -56t35 -62t19.5 -65.5t8 -74.5q0 -111 -64 -207.5t-173.5 -152t-235.5 -50.5l-47 2l-58 -207h-106l59 219q-42 10 -65.5 17.5t-64.5 25
t-82.5 47t-88.5 72.5l86 291l45 -12q2 -78 10 -128.5t27.5 -98.5t57 -81.5t96.5 -60.5l151 535q-158 116 -214 197.5t-56 178.5q0 72 27 138.5t77 119.5t129.5 85t177.5 32q14 0 68 -4l37 133h102l-41 -147q56 -8 134.5 -44t107.5 -57zM508 893l113 407q-15 5 -41 5
q-101 0 -158 -58t-57 -137q0 -57 32 -108.5t111 -108.5zM518 561l-137 -495q129 -10 205 63.5t76 196.5q0 43 -11 77.5t-35.5 64.5t-43.5 47.5t-54 45.5z" />
    <glyph glyph-name="cent.taboldstyle" unicode="&#xf654;" 
d="M438 117l256 729q2 13 -9 23t-40 10q-60 0 -118 -68.5t-96 -163.5t-61.5 -187.5t-23.5 -146.5q0 -157 92 -196zM883 1180l-92 -260q53 -26 80.5 -68.5t27.5 -93.5q0 -62 -39.5 -101t-89.5 -39q-49 0 -76 23l-188 -535q120 3 242 183l55 -37q-35 -49 -53.5 -74t-54.5 -65
t-66.5 -62t-74.5 -42.5t-93 -28.5l-96 -273h-70l94 266q-36 0 -74 8.5t-80 31t-74.5 57t-53.5 91t-21 128.5q0 118 51.5 238.5t132.5 212t186 149t206 57.5q35 0 65 -6l84 240h72z" />
    <glyph glyph-name="fi" unicode="&#xfb01;" horiz-adv-x="1138" 
d="M35 834l20 86h156q24 69 37.5 105.5t42 101t54.5 100.5t69 82.5t90.5 71t113.5 42t144 17.5q111 0 193.5 -53t82.5 -142q0 -54 -34.5 -85.5t-81.5 -31.5q-54 0 -86.5 34t-32.5 77q0 36 22.5 66t22.5 38q0 6 -1 10t-5 11t-15.5 10.5t-29.5 3.5q-43 0 -79 -10.5t-64 -28.5
t-53 -49.5t-43.5 -65.5t-37.5 -85.5t-33.5 -100t-33.5 -118.5h241q30 0 170 10t148 10l-150 -580q-45 -186 -45 -198q0 -20 11.5 -28.5t21.5 -8.5q30 0 80 59t78 103l45 -27q-97 -153 -172 -215.5t-172 -62.5q-43 0 -73 13.5t-44.5 36t-20.5 44t-6 43.5q0 35 33 164l141 551
h-307l-192 -789q-6 -23 -20.5 -66t-50.5 -119t-77 -130q-66 -87 -141 -118.5t-135 -31.5q-85 0 -143 44t-58 110q0 36 11.5 61t28.5 36t30.5 15t25.5 4q46 0 77.5 -27.5t31.5 -72.5q0 -30 -19.5 -50t-19.5 -32q0 -18 37 -18q68 0 101.5 65t80.5 277l188 842h-153z" />
    <glyph glyph-name="fl" unicode="&#xfb02;" horiz-adv-x="1138" 
d="M41 834l20 86h152q59 188 103 271q104 193 291 237q60 14 130 14q28 0 74 -8t81.5 -15.5t37.5 -7.5l203 25l-310 -1233q-8 -28 -8 -43q0 -11 10 -22t27 -11q53 0 154 154l41 -23q-26 -40 -40 -61t-39 -55.5t-42.5 -53t-44 -42t-50.5 -35.5t-54.5 -20.5t-63.5 -8.5
q-70 0 -109 35t-39 85q0 31 10 74l162 658h-301l-162 -668q-32 -131 -71.5 -232t-94.5 -183.5t-129.5 -126.5t-166.5 -44q-15 0 -34.5 2.5t-49 13t-52.5 27.5t-40 49.5t-17 75.5q0 37 14.5 61t37 32.5t34.5 11t23 2.5q42 0 68 -27t26 -68q0 -26 -16.5 -51t-16.5 -33
q0 -24 47 -24q21 0 38.5 9.5t32.5 34.5t26 49t24.5 73t22 85.5t24.5 106.5l189 824h-152zM762 920l61 243q-43 32 -43 84q0 28 21.5 60.5t21.5 35.5q0 12 -19 25.5t-50 13.5t-59.5 -11t-51 -26t-44 -44t-36 -52t-31 -63.5t-25 -65t-21.5 -70.5t-17.5 -66t-15.5 -64h309z" />
    <glyph glyph-name="one.superior" horiz-adv-x="614" 
d="M61 561v39q25 0 41.5 2t40.5 8.5t42 24t30 45.5q15 46 46 143t49 154t39.5 126t31.5 106t10 46q-3 19 -16.5 30t-21 12t-13.5 1q-9 0 -90 -6l4 43q145 22 362 64l-204 -676q-13 -48 -13 -68q0 -37 25 -46t96 -9v-39h-459z" />
    <glyph glyph-name="two.superior" horiz-adv-x="614" 
d="M596 795l-104 -234h-488v33q172 163 211.5 202t91.5 95q71 80 107.5 136t36.5 106q0 14 -1 25t-7 34.5t-17.5 39.5t-36.5 29t-59 13q-27 0 -52 -8t-44.5 -22t-31.5 -25t-25.5 -26.5t-14.5 -16.5l-37 22q17 34 39 64t58 63.5t88.5 53.5t113.5 20q98 0 157.5 -63.5
t59.5 -141.5q0 -80 -55 -154.5t-133 -130.5l-252 -202v-5h178q77 0 113 19t71 74h33z" />
    <glyph glyph-name="three.superior" horiz-adv-x="614" 
d="M225 985l4 29q248 42 248 174q0 42 -26 74t-82 32q-39 0 -72 -15.5t-46.5 -28.5t-39.5 -42l-29 27q109 164 277 164q46 0 89.5 -17t76 -57t32.5 -94q0 -110 -147 -176l-14 -8q52 -34 79 -75t27 -110q0 -131 -116 -225t-273 -94q-47 0 -82.5 8.5t-53 20t-28 26.5
t-12.5 23.5t-2 15.5q0 42 20 67t56 25q29 0 53.5 -19.5t64.5 -76.5q16 -23 60 -23q58 0 99.5 55t41.5 128q0 93 -53 142.5t-152 49.5z" />
    <glyph glyph-name="a.superior" horiz-adv-x="544" 
d="M520 1384l156 9l-94 -287q-45 -142 -45 -182q0 -19 12 -19q7 0 15.5 5.5t19.5 16.5t18.5 19.5t21 24.5t17.5 20l27 -18q-106 -156 -201 -156q-27 0 -57.5 20.5t-30.5 61.5q0 16 12 66l2 8l-4 4q-89 -158 -209 -158q-46 0 -78.5 18.5t-45.5 47.5t-18 51t-5 43
q0 66 33.5 142t84.5 138t117 103t127 41q85 0 101 -84h4zM193 977q0 -26 10.5 -42t19.5 -20t15 -4q54 0 104.5 78.5t77 165t26.5 133.5q0 25 -12 42.5t-26 17.5q-44 0 -96.5 -74t-85.5 -161.5t-33 -135.5z" />
    <glyph glyph-name="o.superior" horiz-adv-x="614" 
d="M545 1288q0 41 -15.5 57.5t-35.5 16.5q-51 0 -94 -54t-67.5 -128t-38 -139.5t-13.5 -100.5q0 -80 59 -80q44 0 85 53.5t66 126.5t39.5 141.5t14.5 106.5zM711 1214q0 -92 -50 -183t-139.5 -151.5t-191.5 -60.5q-87 0 -151 49t-64 133q0 95 51.5 187.5t141.5 153.5t192 61
q19 0 42 -3.5t54 -16t55.5 -32t42 -55.5t17.5 -82z" />
    </font>
</defs>
</svg>
