<?xml version="1.0" standalone="no"?>
<!DOCTYPE svg PUBLIC "-//W3C//DTD SVG 1.1//EN" "http://www.w3.org/Graphics/SVG/1.1/DTD/svg11.dtd" >
<svg xmlns="http://www.w3.org/2000/svg" xmlns:xlink="http://www.w3.org/1999/xlink" version="1.1">
<metadata>
Created by FontForge 20170731 at Fri May 21 18:30:10 2021
 By Aleksey,,,
(c) 1990, 2002 Adobe Systems Incorporated. All rights reserved.
</metadata>
<defs>
<font id="TimesLTStd-Semibold" horiz-adv-x="1024" >
  <font-face 
    font-family="Times LT Std Semibold"
    font-weight="600"
    font-stretch="normal"
    units-per-em="2048"
    panose-1="2 2 7 3 8 5 5 2 3 4"
    ascent="1399"
    descent="-649"
    x-height="963"
    cap-height="1393"
    bbox="-342 -442 2056 1911"
    underline-thickness="102"
    underline-position="-307"
    unicode-range="U+0020-FB02"
  />
<missing-glyph 
d="M0 0v1434h1024v-1434h-1024zM512 809l348 522h-696zM573 717l349 -522v1044zM164 102h696l-348 523zM102 1239v-1044l349 522z" />
    <glyph glyph-name="fi" unicode="fi" horiz-adv-x="1138" 
d="M1104 0h-486v53q73 -3 96 28t23 112v563q0 67 -27.5 85.5t-93.5 18.5h-215v-667q0 -86 27.5 -113t95.5 -27v-53h-489v53q42 0 67 8t36.5 29t14.5 42t3 61v667h-121v103h121q0 115 21 202t67.5 152.5t126.5 99t192 33.5q161 0 276 -57.5t115 -149.5q0 -48 -28.5 -74
t-71.5 -26q-52 0 -75.5 22.5t-49.5 83.5q-24 60 -60.5 89.5t-105.5 29.5q-42 0 -71 -17.5t-47 -48t-27.5 -83.5t-13 -111.5t-3.5 -144.5h363q101 0 151 12q13 2 30.5 7t21.5 5q9 0 12.5 -8.5t3.5 -32.5v-753q0 -83 29.5 -111.5t91.5 -28.5v-53z" />
    <glyph glyph-name="fl" unicode="fl" horiz-adv-x="1138" 
d="M524 0h-493v53q45 4 69 10t37 21.5t16 33.5t3 54v688h-125v103h125q0 80 8 145t31.5 131t62 110.5t104 72.5t152.5 28q66 0 145 -25t111 -41l84 25q14 4 41.5 14.5t48.5 18.5t25 8q14 0 14 -33v-1245q0 -70 27 -93t98 -26v-53h-490v53q72 6 95.5 27t23.5 92v688h-336
v-688q0 -70 30.5 -92.5t92.5 -26.5v-53zM401 963h336v213q-52 9 -74 25t-34 56q-22 68 -37 85q-22 26 -68 26q-39 0 -64 -17.5t-37.5 -53.5t-17 -78t-4.5 -105v-151z" />
    <glyph glyph-name=".notdef" 
d="M0 0v1434h1024v-1434h-1024zM512 809l348 522h-696zM573 717l349 -522v1044zM164 102h696l-348 523zM102 1239v-1044l349 522z" />
    <glyph glyph-name=".null" horiz-adv-x="0" 
 />
    <glyph glyph-name="nonmarkingreturn" horiz-adv-x="682" 
 />
    <glyph glyph-name="space" unicode=" " horiz-adv-x="512" 
 />
    <glyph glyph-name="exclam" unicode="!" horiz-adv-x="681" 
d="M373 414h-66l-94 708q-2 12 -8.5 50t-10.5 69t-4 49q0 62 41 98.5t109 36.5t108.5 -36t40.5 -99q0 -18 -4 -48.5t-10.5 -70t-7.5 -49.5zM190 125q0 61 44 105t106 44t105.5 -44t43.5 -105q0 -62 -44 -106t-105 -44q-62 0 -106 44.5t-44 105.5z" />
    <glyph glyph-name="quotedbl" unicode="&#x22;" horiz-adv-x="681" 
d="M256 1260l-37 -418q-8 -64 -49 -64q-17 0 -28.5 13.5t-15 26t-5.5 24.5l-37 418q-4 19 -2 47t7 54.5t26 45t55 18.5t55 -18.5t26 -45t7 -54.5t-2 -47zM598 1260l-37 -418q-2 -12 -5.5 -24.5t-15 -26t-28.5 -13.5q-41 0 -49 64l-37 418q-4 19 -2 47t7 54.5t26 45t55 18.5
t55 -18.5t26 -45t7 -54.5t-2 -47z" />
    <glyph glyph-name="numbersign" unicode="#" 
d="M649 831h-225l-37 -270h225zM444 975h226l57 418h154l-58 -418h176v-144h-196l-37 -270h176v-143h-197l-57 -418h-153l57 418h-225l-58 -418h-153l57 418h-193v143h213l37 270h-192v144h213l57 418h154z" />
    <glyph glyph-name="dollar" unicode="$" 
d="M545 -209h-115v184q-91 12 -328 33l-28 352h61q34 -128 101.5 -204.5t193.5 -98.5v541q-63 28 -106.5 51t-94.5 60t-82 76t-52 95t-21 121q0 171 97 275.5t259 107.5v123h115v-123q243 -28 315 -28l8 -332h-53q-29 119 -92 188.5t-178 90.5v-463q44 -20 72 -33.5t67 -34
t64 -37t55.5 -40.5t50 -47t39.5 -53.5t31.5 -63t18.5 -72t7 -84.5q0 -359 -405 -400v-184zM430 877v426q-86 -4 -139 -64t-53 -139q0 -77 53 -133.5t139 -89.5zM545 557v-500q92 0 156.5 66.5t64.5 169.5q0 53 -17 94.5t-51 73t-67.5 52t-85.5 44.5z" />
    <glyph glyph-name="percent" unicode="%" horiz-adv-x="1705" 
d="M907 270q0 125 68 247.5t172.5 198t208.5 75.5q116 0 177.5 -66t61.5 -195q0 -84 -31 -177t-83.5 -171.5t-131 -130t-163.5 -51.5q-117 0 -198 71.5t-81 198.5zM1120 223q0 -68 34 -104.5t79 -36.5q75 0 146.5 74.5t113 181t41.5 203.5q0 69 -34.5 108t-92.5 39
q-62 0 -118 -50.5t-91.5 -124.5t-56.5 -152t-21 -138zM322 825q0 -68 33.5 -104.5t78.5 -36.5q68 0 139 70.5t116.5 179t45.5 211.5q0 30 -5 60t-15 34q-77 30 -107 51q-62 0 -117.5 -50.5t-91 -124.5t-56.5 -152t-21 -138zM498 -25h-107l737 1282l-4 5q-137 -54 -243 -54
q-66 0 -95 13q11 -37 11 -88q0 -84 -31 -177t-84 -172t-131.5 -130.5t-163.5 -51.5q-117 0 -197.5 71t-80.5 199q0 94 40.5 190t104 168t145 117.5t158.5 45.5q119 0 178 -68q74 -47 166 -47q95 0 183.5 39t154.5 108h82z" />
    <glyph glyph-name="ampersand" unicode="&#x26;" horiz-adv-x="1705" 
d="M913 1190q0 69 -42.5 111t-106.5 42q-66 0 -101.5 -41t-35.5 -116q0 -105 80 -273q206 97 206 277zM1008 836h495v-54q-81 -7 -140.5 -60.5t-141.5 -182.5l-138 -215q46 -60 81 -98t90.5 -70.5t113.5 -32.5q113 0 209 102l37 -41q-77 -104 -169.5 -160.5t-219.5 -56.5
q-60 0 -111 12.5t-94.5 38t-68.5 45t-62 52.5q-109 -78 -208 -113t-214 -35q-185 0 -289 99t-104 239q0 78 32.5 150t90 129.5t124.5 103t148 82.5q-33 60 -50.5 133.5t-17.5 128.5q0 186 100 289.5t261 103.5q142 0 220.5 -73t78.5 -185q0 -54 -19.5 -100t-38.5 -73
t-72 -61.5t-74 -45t-91 -43.5q-3 -2 -5 -3l-5 -2.5t-6 -2.5q41 -99 121 -235.5t153 -215.5l49 66q52 85 69 132t17 89q0 59 -37 81t-114 29v54zM332 428q0 -117 83.5 -211t213.5 -94q71 0 114 15.5t88 45.5q-193 224 -317 502q-71 -33 -126.5 -101.5t-55.5 -156.5z" />
    <glyph glyph-name="quotesingle" unicode="'" horiz-adv-x="454" 
d="M313 1260l-37 -418q-2 -12 -5.5 -24.5t-15 -26t-28.5 -13.5t-28.5 13.5t-15 26t-5.5 24.5l-37 418q-4 19 -2 47t7 54.5t26 45t55 18.5t55 -18.5t26 -45t7 -54.5t-2 -47z" />
    <glyph glyph-name="parenleft" unicode="(" horiz-adv-x="681" 
d="M639 -336v-61q-275 102 -434.5 335t-159.5 576t159.5 576t434.5 335v-61q-103 -45 -177.5 -139.5t-113.5 -216t-56.5 -243t-17.5 -251.5t17.5 -251.5t56.5 -243t113.5 -216t177.5 -139.5z" />
    <glyph glyph-name="parenright" unicode=")" horiz-adv-x="681" 
d="M43 1364v61q275 -102 434.5 -335t159.5 -576t-159.5 -576t-434.5 -335v61q103 45 177.5 139.5t113.5 216t56.5 243t17.5 251.5t-17.5 251.5t-56.5 243t-113.5 216t-177.5 139.5z" />
    <glyph glyph-name="asterisk" unicode="*" 
d="M543 940l-15 -8q-1 -43 7 -73.5t34 -88.5q3 -8 14 -30.5t16 -34.5t10 -30t5 -32q0 -49 -33 -77.5t-69 -28.5t-69 28.5t-33 77.5q0 14 5 32t10 30t16 34.5t14 30.5q26 58 34 88.5t7 73.5l-15 8q-37 -15 -64.5 -38.5t-39 -38.5t-35.5 -52q-4 -7 -15 -23.5t-15 -22
t-13 -17.5t-16 -15.5t-18.5 -9.5t-24.5 -8t-29 -2q-45 0 -72.5 27.5t-27.5 72.5q0 51 39 80t100 29q121 0 207 51v16q-86 51 -207 51q-61 0 -100 29t-39 80q0 45 27.5 72.5t72.5 27.5q16 0 29 -2t24.5 -8t18.5 -9.5t16 -15.5t13 -17.5t15 -22t15 -23.5q24 -37 35.5 -52
t39 -38.5t64.5 -38.5l15 8q1 43 -7 73.5t-34 88.5q-3 8 -14 30.5t-16 34.5t-10 30t-5 32q0 49 33 77.5t69 28.5t69 -28.5t33 -77.5q0 -14 -5 -32t-10 -30t-16 -34.5t-14 -30.5q-26 -58 -34 -88.5t-7 -73.5l15 -8q37 15 64.5 38.5t39 38.5t35.5 52q4 7 15 23.5t15 22t13 17.5
t16 15.5t18.5 9.5t24.5 8t29 2q45 0 72.5 -27.5t27.5 -72.5q0 -51 -39 -80t-100 -29q-121 0 -207 -51v-16q86 -51 207 -51q61 0 100 -29t39 -80q0 -45 -27.5 -72.5t-72.5 -27.5q-16 0 -29 2t-24.5 8t-18.5 9.5t-16 15.5t-13 17.5t-15 22t-15 23.5q-24 37 -35.5 52t-39 38.5
t-64.5 38.5z" />
    <glyph glyph-name="plus" unicode="+" horiz-adv-x="1228" 
d="M530 565v398h168v-398h398v-168h-398v-397h-168v397h-397v168h397z" />
    <glyph glyph-name="comma" unicode="," horiz-adv-x="512" 
d="M106 -319v69q79 21 142 73t63 114q0 28 -20 51h-27q-62 0 -110 35.5t-48 97.5q0 71 40.5 112t107.5 41q72 0 126 -57.5t54 -173.5q0 -77 -26 -138.5t-74 -103.5t-102.5 -70t-125.5 -50z" />
    <glyph glyph-name="hyphen" unicode="-" horiz-adv-x="681" 
d="M88 375v213h508v-213h-508z" />
    <glyph glyph-name="period" unicode="." horiz-adv-x="512" 
d="M106 125q0 61 44 105t106 44t106 -44t44 -105t-44 -105.5t-106 -44.5t-106 44.5t-44 105.5z" />
    <glyph glyph-name="slash" unicode="/" horiz-adv-x="569" 
d="M170 -33h-170l399 1458h170z" />
    <glyph glyph-name="zero" unicode="0" 
d="M324 700q0 -255 19.5 -395t59 -194t109.5 -54t109.5 54t59 194t19.5 395t-19.5 395t-59 194t-109.5 54t-109.5 -54t-59 -194t-19.5 -395zM45 700q0 207 53 369.5t160 259t254 96.5t254 -96.5t160 -259t53 -369.5t-53 -369.5t-160 -259t-254 -96.5t-254 96.5t-160 259
t-53 369.5z" />
    <glyph glyph-name="one" unicode="1" 
d="M897 0h-709v53q69 2 108 9t68 28.5t39.5 59.5t10.5 102v768q0 125 -74 125q-56 0 -152 -47l-20 45l467 282h37v-1173q0 -64 10.5 -102t39 -59.5t67.5 -28.5t108 -9v-53z" />
    <glyph glyph-name="two" unicode="2" 
d="M864 0h-823v74l223 227q70 70 113.5 116.5t98 116t85 127.5t52.5 132t22 149q0 126 -60.5 202.5t-181.5 76.5q-42 0 -75.5 -8.5t-59 -27.5t-43 -36.5t-33 -48.5t-23 -49t-20.5 -52h-57q18 85 50 158t81 135t121.5 97.5t161.5 35.5q75 0 144 -27t123 -75.5t86 -122
t32 -160.5q0 -58 -18 -119.5t-53.5 -123t-74.5 -117.5t-95.5 -120.5t-100 -112t-104.5 -112t-95 -102.5h387q59 0 90 10.5t51 33.5t50 79h59z" />
    <glyph glyph-name="three" unicode="3" 
d="M246 684v66q59 8 114.5 28t108.5 54.5t85 90.5t32 126q0 91 -59.5 152t-139.5 61q-59 0 -112 -25t-119 -107l-41 37q43 59 82.5 101.5t88 80t105 57t119.5 19.5q78 0 141.5 -27t101 -70t58 -92t20.5 -97q0 -173 -204 -320q129 -61 191.5 -148t62.5 -222
q0 -129 -68.5 -237.5t-190 -172.5t-268.5 -64q-135 0 -207.5 42t-72.5 110q0 54 33 84.5t73 30.5q45 0 101 -37q10 -7 59 -46.5t86.5 -60t71.5 -20.5q72 0 125 60t53 171q0 86 -37.5 156.5t-99.5 115t-137 71t-156 32.5z" />
    <glyph glyph-name="four" unicode="4" 
d="M819 537h160v-193h-160v-344h-246v344h-528v201l639 848h135v-856zM168 537h405v538h-4z" />
    <glyph glyph-name="five" unicode="5" 
d="M885 1393l-62 -234h-473l-47 -155q87 -16 168 -43.5t157.5 -72.5t132.5 -101t90 -133.5t34 -166.5q0 -151 -66 -268t-180.5 -180.5t-257.5 -63.5q-67 0 -117 7t-93 24.5t-66 51t-23 83.5q0 41 25.5 71t68.5 30q44 0 100 -37q9 -6 59 -46t87.5 -60.5t71.5 -20.5
q86 0 144 74t58 192q0 63 -19.5 117t-50 92.5t-78.5 71.5t-94.5 54.5t-108.5 40t-109.5 29t-108.5 21.5l188 623h570z" />
    <glyph glyph-name="six" unicode="6" 
d="M948 1425v-69q-225 -51 -377.5 -187.5t-203.5 -349.5q101 53 202 53q183 0 297.5 -118t114.5 -320q0 -197 -129 -328t-326 -131q-71 0 -135.5 15t-129.5 54t-112 99t-76.5 158.5t-29.5 224.5q0 158 67 313t183.5 279t287.5 207.5t367 99.5zM494 762q-34 0 -66.5 -9.5
t-45.5 -17t-44 -26.5q-21 -176 -21 -293q0 -102 18.5 -180t63.5 -128.5t113 -50.5t113 50.5t63.5 128.5t18.5 180q0 159 -53.5 252.5t-159.5 93.5z" />
    <glyph glyph-name="seven" unicode="7" 
d="M492 -25h-160l379 1184h-338q-89 0 -145.5 -17.5t-88 -49.5t-57.5 -88h-66l156 389h774z" />
    <glyph glyph-name="eight" unicode="8" 
d="M307 1137q0 -149 275 -289q67 72 99 132t32 148q0 98 -61 156.5t-148 58.5q-80 0 -138.5 -61t-58.5 -145zM115 1063q0 160 113 261t276 101q79 0 149.5 -19.5t127.5 -57.5t90.5 -102.5t33.5 -147.5q0 -67 -16.5 -116t-52.5 -84t-73.5 -57.5t-98.5 -49.5
q56 -37 92.5 -65.5t76 -68t62 -79t37 -92.5t14.5 -115q0 -183 -114.5 -289.5t-303.5 -106.5q-225 0 -337.5 91.5t-112.5 250.5q0 131 78 225.5t204 137.5q-59 39 -97.5 71.5t-75 78t-54.5 103.5t-18 130zM733 279q0 45 -10 83t-32.5 70.5t-44.5 56.5t-62 51t-68 43.5
t-78 43.5q-37 -37 -56 -59t-44 -61.5t-36 -87.5t-11 -108q0 -109 59.5 -181.5t173.5 -72.5q105 0 157 60.5t52 161.5z" />
    <glyph glyph-name="nine" unicode="9" 
d="M76 -25v70q225 51 377.5 187.5t203.5 349.5q-103 -54 -202 -54q-183 0 -297.5 118.5t-114.5 320.5q0 197 129 327.5t326 130.5q66 0 129 -15t128.5 -54t114.5 -99t80 -159t31 -224q0 -158 -67 -313t-183.5 -279t-287.5 -207.5t-367 -99.5zM530 639q34 0 66.5 9.5t45.5 17
t44 26.5q21 176 21 293q0 102 -18.5 180t-63.5 128t-113 50t-113 -50t-63.5 -128t-18.5 -180q0 -159 53.5 -252.5t159.5 -93.5z" />
    <glyph glyph-name="colon" unicode=":" horiz-adv-x="512" 
d="M106 125q0 61 44 105t106 44t106 -44t44 -105t-44 -105.5t-106 -44.5t-106 44.5t-44 105.5zM106 817q0 61 44 105.5t106 44.5t106 -44.5t44 -105.5t-44 -105t-106 -44t-106 44t-44 105z" />
    <glyph glyph-name="semicolon" unicode=";" horiz-adv-x="512" 
d="M106 -319v69q79 21 142 73t63 114q0 28 -20 51h-27q-62 0 -110 35.5t-48 97.5q0 71 40.5 112t107.5 41q72 0 126 -57.5t54 -173.5q0 -77 -26 -138.5t-74 -103.5t-102.5 -70t-125.5 -50zM123 817q0 62 44 106t105 44q62 0 106 -44.5t44 -105.5t-44 -105t-106 -44
t-105.5 44t-43.5 105z" />
    <glyph glyph-name="less" unicode="&#x3c;" horiz-adv-x="1228" 
d="M1098 152v-164l-967 422v143l967 422v-164l-750 -330z" />
    <glyph glyph-name="equal" unicode="=" horiz-adv-x="1228" 
d="M1096 758v-168h-963v168h963zM1096 373v-168h-963v168h963z" />
    <glyph glyph-name="greater" unicode="&#x3e;" horiz-adv-x="1228" 
d="M131 152l750 329l-750 330v164l967 -422v-143l-967 -422v164z" />
    <glyph glyph-name="question" unicode="?" horiz-adv-x="909" 
d="M481 414h-61q-5 68 11 138t42.5 132t54 123.5t47 133.5t19.5 142q0 118 -57.5 189t-143.5 71q-48 0 -86.5 -20t-38.5 -57q0 -20 23.5 -62t23.5 -90q0 -50 -40.5 -84.5t-88.5 -34.5q-59 0 -94 37.5t-35 106.5q0 128 115 207t270 79q78 0 149.5 -20t130.5 -59t94.5 -104
t35.5 -148q0 -63 -26.5 -123t-66 -105t-87 -97.5t-88.5 -100.5t-70 -114.5t-33 -139.5zM301 125q0 61 44 105t106 44q61 0 105 -44t44 -105q0 -62 -44 -106t-105 -44t-105.5 44.5t-44.5 105.5z" />
    <glyph glyph-name="at" unicode="@" horiz-adv-x="1638" 
d="M694 582q0 -92 26 -135.5t89 -43.5q44 0 101 66.5t98 168t41 189.5q0 71 -24.5 108.5t-66.5 37.5q-37 0 -82.5 -29.5t-86 -79.5t-68 -125t-27.5 -157zM1260 1047l-125 -506q-11 -53 -11 -72q0 -37 16 -63.5t54 -26.5q62 0 118.5 60t90 157t33.5 201t-44 200t-119.5 168
t-183.5 115t-229 43q-84 0 -164.5 -25.5t-153 -80t-127 -132t-86.5 -189.5t-32 -245q0 -117 46.5 -224.5t124.5 -185.5t186.5 -124.5t226.5 -46.5q132 0 226 27.5t193 84.5l21 -96q-223 -119 -438 -119q-158 0 -292.5 44.5t-225 116.5t-155 163.5t-93.5 185t-29 182.5
q0 167 62.5 311.5t168 243.5t246.5 155t295 56q194 0 351.5 -78.5t248 -222t90.5 -325.5q0 -83 -25.5 -169.5t-72 -161.5t-122.5 -123t-167 -48q-51 0 -87 11.5t-56.5 35t-30.5 45.5t-18 55h-4q-20 -39 -90 -90.5t-152 -56.5q-24 -1 -48.5 4.5t-53 22.5t-50.5 44.5t-36.5 76
t-14.5 112.5q0 52 15.5 117.5t49.5 136.5t80.5 129.5t117 96.5t151.5 38q52 0 91.5 -27t57.5 -79h5l18 78h152z" />
    <glyph glyph-name="A" unicode="A" horiz-adv-x="1478" 
d="M1450 0h-602v53q76 0 111.5 19.5t35.5 68.5q0 25 -16 75t-41.5 113.5t-26.5 67.5h-503q-2 -7 -18.5 -49.5t-28 -75t-22.5 -72t-11 -59.5q0 -49 34 -68.5t109 -19.5v-53h-442v53q69 14 107 41.5t63 89.5l510 1241h67l490 -1198q43 -106 76.5 -140.5t107.5 -33.5v-53z
M453 500h415l-206 551z" />
    <glyph glyph-name="B" unicode="B" horiz-adv-x="1366" 
d="M733 0h-692v53q62 2 94 8t55.5 24t31 49t7.5 87v950q0 56 -7.5 87t-31 49t-55.5 24t-94 8v54h614q256 0 402.5 -89t146.5 -255q0 -127 -87.5 -212t-221.5 -108v-4q74 -14 137 -38.5t121 -64t91.5 -100.5t33.5 -137q0 -175 -138.5 -280t-406.5 -105zM508 668v-498
q0 -45 31 -66.5t114 -21.5q155 0 245.5 90t92.5 213q1 145 -121.5 216.5t-361.5 66.5zM508 1217v-467q222 0 320 70.5t98 223.5q0 119 -79.5 193t-228.5 74q-55 0 -82.5 -22t-27.5 -72z" />
    <glyph glyph-name="C" unicode="C" horiz-adv-x="1478" 
d="M1333 371l56 -43q-109 -187 -259 -274t-366 -87q-223 0 -387 93t-249 260t-85 389q0 97 29 196.5t90.5 192.5t146.5 166t207 117t262 44q64 0 152.5 -20.5t154.5 -41t76 -20.5q15 0 25.5 3.5t21 16.5t17 23.5t22.5 38.5h70l29 -464h-62q-141 370 -471 370
q-95 0 -174.5 -39t-133.5 -102.5t-91.5 -146t-54.5 -167t-17 -167.5q0 -291 128 -459t380 -168q77 0 148.5 23t119.5 52.5t96 75t70 73.5t49 65z" />
    <glyph glyph-name="D" unicode="D" horiz-adv-x="1593" 
d="M737 0h-696v53q56 2 86 8t52.5 24t30 49.5t7.5 86.5v950q0 55 -7.5 86.5t-30 49.5t-52.5 24t-86 8v54h696q166 0 309 -44.5t252 -129.5t171.5 -219.5t62.5 -303.5t-62.5 -303.5t-171.5 -219t-252 -129t-309 -44.5zM496 1184v-975q0 -71 35 -99t128 -28q278 0 432 169.5
t154 444.5t-154 445t-432 170q-93 0 -128 -28t-35 -99z" />
    <glyph glyph-name="E" unicode="E" horiz-adv-x="1366" 
d="M1237 0h-1196v53q55 2 84 8t51 24t29.5 49.5t7.5 86.5v950q0 55 -7.5 86.5t-29.5 49.5t-51 24t-84 8v54h1163l8 -308h-57q-26 84 -60 124.5t-106.5 60.5t-208.5 20h-211q-47 0 -62 -14t-15 -57v-441h237q110 0 167 17t83.5 54.5t40.5 113.5h53v-492h-53q-21 119 -86 162
t-205 43h-237v-481q0 -28 4.5 -44.5t19.5 -31.5t45 -22t78.5 -11t122.5 -4q101 0 170.5 11t135 42t116 89t94.5 149h53z" />
    <glyph glyph-name="F" unicode="F" horiz-adv-x="1251" 
d="M496 676v-455q0 -56 7.5 -87t33 -49t60.5 -24t103 -8v-53h-659v53q56 2 86 8t52.5 24t30 49.5t7.5 86.5v950q0 55 -7.5 86.5t-29.5 49.5t-51 24t-84 8v54h1163l9 -308h-58q-26 84 -60 124.5t-106.5 60.5t-208.5 20h-211q-47 0 -62 -14t-15 -57v-441h237q110 0 167 17
t83.5 54.5t40.5 113.5h53v-492h-53q-21 119 -86 162t-205 43h-237z" />
    <glyph glyph-name="G" unicode="G" horiz-adv-x="1593" 
d="M934 725h631v-53q-50 -2 -77 -8t-48 -24t-28 -49.5t-7 -86.5v-408q-97 -57 -239.5 -93t-293.5 -36q-391 0 -603 201t-212 541q0 97 29.5 196.5t90.5 192.5t146.5 166t207.5 117t262 44q64 0 152.5 -20.5t154.5 -41t76 -20.5q15 0 25.5 3.5t21 16.5t17 23.5t22.5 38.5h69
l29 -464h-62q-141 370 -471 370q-95 0 -174.5 -39t-133.5 -102.5t-91.5 -146t-54.5 -167t-17 -167.5q0 -106 20 -202t61 -177.5t99.5 -141t141 -93.5t180.5 -34q108 0 168 17t80 45.5t20 77.5v303q0 56 -7.5 87t-31.5 49t-57 24t-96 8v53z" />
    <glyph glyph-name="H" unicode="H" horiz-adv-x="1593" 
d="M1102 651h-610v-430q0 -55 7.5 -86.5t29.5 -49.5t51 -24t84 -8v-53h-623v53q55 2 84 8t51 24t29.5 49.5t7.5 86.5v950q0 55 -7.5 86.5t-29.5 49.5t-51 24t-84 8v54h623v-54q-55 -2 -84 -8t-51 -24t-29.5 -49.5t-7.5 -86.5v-405h610v405q0 55 -7.5 86.5t-29.5 49.5t-51 24
t-84 8v54h622v-54q-55 -2 -84 -8t-51 -24t-29.5 -49.5t-7.5 -86.5v-950q0 -55 7.5 -86.5t29.5 -49.5t51 -24t84 -8v-53h-622v53q55 2 84 8t51 24t29.5 49.5t7.5 86.5v430z" />
    <glyph glyph-name="I" unicode="I" horiz-adv-x="796" 
d="M537 1171v-950q0 -56 7.5 -87t33 -49t60.5 -24t103 -8v-53h-688v53q45 2 73 4.5t53.5 9.5t38.5 17.5t23 29.5t13.5 44.5t3.5 62.5v950q0 37 -3.5 62.5t-13.5 44.5t-23 29.5t-38.5 17.5t-53.5 9.5t-73 4.5v54h688v-54q-68 -2 -103 -8t-60.5 -24t-33 -49t-7.5 -87z" />
    <glyph glyph-name="J" unicode="J" 
d="M479 207v964q0 37 -3.5 62.5t-13.5 44.5t-23 29.5t-38.5 17.5t-53.5 9.5t-73 4.5v54h684v-54q-66 -2 -100.5 -8t-59.5 -24t-32.5 -49t-7.5 -87v-702q0 -240 -102 -371t-304 -131q-134 0 -222.5 51t-88.5 150q0 55 35 89t90 34q48 0 80.5 -25t48.5 -60.5t29 -71t32 -60.5
t47 -25q76 0 76 158z" />
    <glyph glyph-name="K" unicode="K" horiz-adv-x="1593" 
d="M508 680v-459q0 -56 7.5 -87t32.5 -49t58.5 -24t98.5 -8v-53h-664v53q62 2 94 8t55.5 24t31 49t7.5 87v950q0 56 -7.5 87t-31 49t-55.5 24t-94 8v54h664v-54q-65 -2 -98.5 -8t-58.5 -24t-32.5 -49t-7.5 -87v-462l395 421q48 54 68 86.5t20 59.5q0 35 -32.5 49t-106.5 14
v54h594v-54q-70 -4 -130 -22.5t-115 -56.5t-94 -73t-97 -95l-269 -283l447 -494q129 -141 210 -199.5t167 -62.5v-53h-697v53q140 0 140 51q0 22 -24 54.5t-89 103.5z" />
    <glyph glyph-name="L" unicode="L" horiz-adv-x="1251" 
d="M1147 0h-1106v53q55 2 84 8t51 24t29.5 49.5t7.5 86.5v950q0 55 -7.5 86.5t-29.5 49.5t-51 24t-84 8v54h643v-54q-63 -2 -96 -8t-57 -24t-31.5 -49t-7.5 -87v-976q0 -45 12.5 -67.5t51 -34t116.5 -11.5q101 0 170.5 11t135 42t116 89t94.5 149h53z" />
    <glyph glyph-name="M" unicode="M" horiz-adv-x="1820" 
d="M913 426l390 967h479v-54q-55 -2 -84 -8t-51 -24t-29.5 -49.5t-7.5 -86.5v-950q0 -55 7.5 -86.5t29.5 -49.5t51 -24t84 -8v-53h-627v53q56 2 86 8t52.5 24t30 49.5t7.5 86.5v979h-4l-465 -1216h-63l-455 1216h-4v-940q0 -105 38.5 -150t149.5 -57v-53h-491v53
q111 12 149.5 57t38.5 150v946q0 74 -40 103.5t-148 29.5v54h506z" />
    <glyph glyph-name="N" unicode="N" horiz-adv-x="1593" 
d="M1249 434v699q0 105 -38.5 149.5t-149.5 56.5v54h491v-54q-111 -12 -149.5 -56.5t-38.5 -149.5v-1166h-70l-950 1098v-805q0 -105 38.5 -150t149.5 -57v-53h-491v53q111 12 149.5 57t38.5 150v938q-35 61 -79 93.5t-109 47.5v54h379z" />
    <glyph glyph-name="O" unicode="O" horiz-adv-x="1478" 
d="M1436 696q0 -101 -24 -201t-78 -196t-133 -169.5t-198.5 -118t-263.5 -44.5t-263.5 44.5t-198 118t-133 169.5t-78 196t-23.5 201t23.5 201t78 196t133 169.5t198 118t263.5 44.5t263.5 -44.5t198.5 -118t133 -169.5t78 -196t24 -201zM1137 696q0 317 -103 476t-295 159
t-294.5 -158.5t-102.5 -476.5t102.5 -476.5t294.5 -158.5t295 159t103 476z" />
    <glyph glyph-name="P" unicode="P" horiz-adv-x="1251" 
d="M496 582v-361q0 -56 7.5 -87t31 -49t55.5 -24t94 -8v-53h-643v53q56 2 86 8t52.5 24t30 49.5t7.5 86.5v950q0 55 -7.5 86.5t-30 49.5t-52.5 24t-86 8v54h659q139 0 242 -31t164 -87t90 -127.5t29 -160.5q0 -199 -139 -302t-408 -103h-182zM496 1233v-569q236 0 339 91
t103 265q0 134 -93 212.5t-235 78.5q-66 0 -90 -19.5t-24 -58.5z" />
    <glyph glyph-name="Q" unicode="Q" horiz-adv-x="1478" 
d="M1409 -389v-53q-161 0 -292 21.5t-249.5 71t-210.5 137.5t-153 214q-118 37 -209.5 113.5t-145 173t-80 199.5t-26.5 208q0 101 23.5 201t78 196t133 169.5t198 118t263.5 44.5t263.5 -44.5t198.5 -118t133 -169.5t78 -196t24 -201q0 -108 -29 -214.5t-86.5 -205.5
t-156.5 -175t-226 -109q20 -72 56 -129t78 -95.5t101 -69.5t112 -50t124 -37zM1137 696q0 317 -103 476t-295 159t-294.5 -158.5t-102.5 -476.5t102.5 -476.5t294.5 -158.5t295 159t103 476z" />
    <glyph glyph-name="R" unicode="R" horiz-adv-x="1478" 
d="M500 614v-393q0 -56 7.5 -87t32 -49t58 -24t98.5 -8v-53h-667v53q63 2 96 8t57 24t31.5 49t7.5 87v950q0 56 -7.5 87t-31.5 49t-57 24t-96 8v54h600q220 0 357.5 -44.5t196 -123.5t58.5 -197q0 -298 -344 -385l397 -506q41 -49 75 -68.5t89 -15.5v-53h-391l-477 614h-90z
M500 1237v-541q454 7 454 318q0 99 -50 168t-124 99t-162 30q-70 0 -94 -16.5t-24 -57.5z" />
    <glyph glyph-name="S" unicode="S" horiz-adv-x="1138" 
d="M80 -16v454h53q22 -70 65 -136.5t99.5 -120.5t129 -87t146.5 -33q63 0 111 20.5t75.5 55t40.5 74t13 82.5q0 64 -40 121.5t-103.5 103t-140 89.5t-153.5 91t-140.5 98.5t-103.5 122t-40 150.5q0 144 120 250t280 106q90 0 163.5 -18.5t124.5 -36.5t86 -18q57 0 74 73h53
v-442h-53q-44 155 -148 251.5t-241 96.5q-108 0 -160.5 -57t-52.5 -137q0 -57 40 -106.5t103.5 -88.5t140 -78.5t153.5 -86.5t140.5 -103t103.5 -138.5t40 -181.5q0 -165 -122 -276t-308 -111q-84 0 -153.5 13.5t-106.5 29.5t-76.5 29.5t-69.5 13.5q-57 0 -69 -69h-74z" />
    <glyph glyph-name="T" unicode="T" horiz-adv-x="1366" 
d="M346 0v53q65 2 98.5 8t58.5 24t32.5 49t7.5 87v1069h-172q-120 0 -178.5 -55.5t-92.5 -198.5h-61l33 357h1220l33 -357h-61q-34 143 -92.5 198.5t-178.5 55.5h-172v-1069q0 -56 7.5 -87t32.5 -49t58.5 -24t98.5 -8v-53h-672z" />
    <glyph glyph-name="U" unicode="U" horiz-adv-x="1593" 
d="M516 1171v-720q0 -182 87 -271.5t276 -89.5q176 0 267 111.5t91 308.5v623q0 104 -38 149t-146 57v54h483v-54q-117 -12 -157 -56.5t-40 -149.5v-621q0 -128 -28.5 -225.5t-90 -170.5t-166.5 -111t-251 -38q-286 0 -425.5 123t-139.5 385v696q0 55 -7.5 86.5t-31 49.5
t-54 24t-88.5 8v54h639v-54q-58 -2 -88.5 -8t-53.5 -24t-30.5 -49.5t-7.5 -86.5z" />
    <glyph glyph-name="V" unicode="V" horiz-adv-x="1478" 
d="M766 -33h-80l-508 1262q-13 31 -28 51t-37.5 31.5t-37 16t-46.5 11.5v54h610v-54q-79 3 -117.5 -18t-38.5 -72q0 -39 18 -96t60 -162l256 -631l256 631q78 196 78 250q0 82 -156 98v54h455v-54q-82 -20 -134.5 -75t-109.5 -197z" />
    <glyph glyph-name="W" unicode="W" horiz-adv-x="2048" 
d="M692 -33h-82l-411 1151q-34 92 -60 137.5t-50 61t-64 22.5v54h550v-54q-68 0 -101.5 -24t-33.5 -64q0 -32 49 -168l252 -698l226 573l-103 261q-25 62 -64 88t-118 32v54h623v-54q-82 0 -121 -17.5t-39 -64.5q0 -39 10 -74.5t35 -99.5l274 -698h4l242 688q2 5 10.5 27.5
t10.5 28.5t8 23.5t8 25.5t5 21.5t4 24t1 21.5q0 49 -37.5 70t-124.5 24v54h428v-54q-78 -28 -111 -65t-67 -135l-411 -1172h-82l-330 848z" />
    <glyph glyph-name="X" unicode="X" horiz-adv-x="1478" 
d="M500 0h-480v53q37 7 66.5 21t71.5 53.5t74 75t106 121.5l283 338l-371 526q-55 78 -93 106t-112 45v54h651v-54q-149 0 -149 -71q0 -26 16 -57t60 -93l176 -250l172 205q6 7 22 25.5t22.5 27t19.5 25t19 27.5t13.5 26t10.5 28.5t3 27.5q0 33 -36 56t-107 23v54h492v-54
q-56 -9 -110.5 -44.5t-88.5 -71t-84 -95.5l-285 -344l453 -647q35 -50 65 -65.5t78 -18.5v-53h-655v53q158 0 158 74q0 60 -105 207l-172 241l-278 -352q-3 -4 -14 -18t-15.5 -21t-11.5 -18.5t-10 -21.5t-3 -19q0 -72 148 -72v-53z" />
    <glyph glyph-name="Y" unicode="Y" horiz-adv-x="1478" 
d="M588 1130l246 -368l256 362q65 91 65 156q0 29 -36 42.5t-136 16.5v54h471v-54q-66 -15 -105 -47t-102 -121l-370 -524v-426q0 -56 7.5 -87t32 -49t58 -24t98.5 -8v-53h-672v53q65 2 98.5 8t58.5 24t32.5 49t7.5 87v426l-412 584q-38 56 -70 75.5t-91 32.5v54h647v-54
q-94 -3 -129 -18.5t-35 -52.5q0 -10 7 -25.5t16 -28.5t27.5 -40t29.5 -44z" />
    <glyph glyph-name="Z" unicode="Z" horiz-adv-x="1366" 
d="M1221 0h-1164v66l889 1224h-383q-72 0 -127.5 -11.5t-94 -31.5t-67.5 -53t-47 -70t-34 -88h-62l49 357h1112v-66l-889 -1225h412q179 0 269 57t163 218h62z" />
    <glyph glyph-name="bracketleft" unicode="[" horiz-adv-x="681" 
d="M586 1393v-62q-142 0 -186 -16.5t-44 -81.5v-1442q0 -65 44 -81.5t186 -16.5v-62h-430v1762h430z" />
    <glyph glyph-name="backslash" unicode="\" horiz-adv-x="569" 
d="M569 -33h-168l-401 1458h168z" />
    <glyph glyph-name="bracketright" unicode="]" horiz-adv-x="681" 
d="M96 1393h430v-1762h-430v62q142 0 186 16.5t44 81.5v1442q0 65 -44 81.5t-186 16.5v62z" />
    <glyph glyph-name="asciicircum" unicode="^" horiz-adv-x="1228" 
d="M352 647h-184l364 746h164l365 -746h-184l-263 557z" />
    <glyph glyph-name="underscore" unicode="_" 
d="M1024 -256h-1024v102h1024v-102z" />
    <glyph glyph-name="grave" unicode="`" horiz-adv-x="569" 
d="M446 1085h-102l-340 207q-41 23 -41 70q0 45 28 66.5t64 21.5q24 0 43.5 -8t30 -17.5t27.5 -27.5z" />
    <glyph glyph-name="a" unicode="a" 
d="M885 678v-522q0 -45 33 -45q24 0 61 32l33 -37q-37 -60 -101 -95.5t-137 -35.5q-80 0 -107.5 39.5t-27.5 104.5q-85 -71 -160.5 -107.5t-171.5 -36.5q-117 0 -187.5 59t-70.5 191q0 52 18.5 97.5t47 78t72.5 61t87 47t97.5 36.5t96.5 28.5t93 23.5t78 21
q0 122 -17.5 183.5t-52 82.5t-102.5 21q-77 0 -102 -32.5t-25 -106.5q0 -53 -31 -80t-78 -27t-77.5 27t-30.5 80q0 72 57 124t140 74.5t180 22.5q80 0 147 -16.5t121.5 -51.5t85.5 -96.5t31 -144.5zM639 225v303q-59 -16 -100 -29.5t-91 -36.5t-80.5 -48.5t-51.5 -62.5
t-21 -81q0 -65 40 -106t105 -41q51 0 104 29t95 73z" />
    <glyph glyph-name="b" unicode="b" 
d="M373 766v-569q0 -140 127 -140q109 0 169 101.5t60 292.5q0 152 -63 256t-152 104q-27 0 -50 -5t-35.5 -11t-30 -16t-25.5 -13zM373 1430v-570q8 6 43.5 36.5t57 45t65.5 30t92 15.5q146 0 245 -126.5t99 -315.5q0 -265 -139 -417.5t-365 -152.5q-81 0 -150.5 17.5
t-99.5 33.5t-71 42q-14 9 -18.5 22.5t-4.5 46.5v23v1044q0 64 -22.5 85.5t-84.5 21.5v53q16 4 100 26t158.5 41t79.5 19q15 0 15 -20z" />
    <glyph glyph-name="c" unicode="c" horiz-adv-x="909" 
d="M852 305l33 -35q-24 -46 -47.5 -82t-62 -78t-80 -69.5t-100.5 -46.5t-126 -19q-128 0 -227 65.5t-150 172.5t-51 236q0 145 60.5 268.5t168 196.5t236.5 73q139 0 232 -61.5t93 -147.5q0 -59 -32 -91t-80 -32q-54 0 -82 26t-57 97q-27 65 -61 96t-83 31
q-73 0 -127.5 -85.5t-54.5 -233.5q0 -110 39 -208.5t109 -160t153 -61.5q103 0 168 34t129 115z" />
    <glyph glyph-name="d" unicode="d" horiz-adv-x="1138" 
d="M709 160v518q0 115 -49 171t-128 56q-103 0 -166 -107t-63 -294q0 -111 27.5 -199.5t85 -143.5t135.5 -55q59 0 93 13.5t65 40.5zM709 926v278q0 65 -26.5 86t-109.5 21v53q31 4 120.5 25.5t166 41t80.5 19.5q14 0 14 -20v-1184q0 -89 25 -114.5t102 -25.5v-53
q-71 -14 -159.5 -34t-140 -32t-56.5 -12q-16 0 -16 35v56q-122 -91 -252 -91q-97 0 -175 36.5t-126 98.5t-73.5 140t-25.5 164q0 247 125 410t316 163q58 0 103.5 -14.5t107.5 -46.5z" />
    <glyph glyph-name="e" unicode="e" horiz-adv-x="909" 
d="M864 549h-577q0 -189 70.5 -291t205.5 -102q87 0 154.5 40.5t128.5 122.5l39 -34q-24 -49 -48 -88.5t-61.5 -82.5t-79.5 -72t-101 -48t-126 -19q-128 0 -227 65.5t-150 172.5t-51 236q0 240 120 389t306 149q121 0 210.5 -60t135 -157t51.5 -221zM287 631h331q0 49 -7 91
t-24 83t-51 64.5t-83 23.5q-166 0 -166 -262z" />
    <glyph glyph-name="f" unicode="f" horiz-adv-x="681" 
d="M618 0h-585v53q57 6 86 13t48.5 26.5t24.5 49t5 85.5v633h-164v103h164q0 84 10.5 153t38 132.5t70.5 107t111 69t157 25.5q60 0 110.5 -15t85.5 -52t35 -91q0 -44 -29 -68t-69 -24q-46 0 -66 19t-55 81q-10 20 -18.5 32.5t-26 24t-39.5 11.5q-32 0 -51 -42.5t-19 -125.5
v-237h197v-103h-197v-651q0 -51 8 -81t32 -45.5t52 -21t84 -8.5v-53z" />
    <glyph glyph-name="g" unicode="g" 
d="M999 942v-131h-145q55 -85 55 -170q0 -76 -35.5 -135t-94 -92t-125.5 -49.5t-138 -16.5q-28 0 -51 2t-32.5 3.5t-32 6l-27.5 5.5q-17 -9 -43.5 -40t-26.5 -57q0 -35 27.5 -51t97.5 -20l297 -19q121 -7 189.5 -64.5t68.5 -150.5q0 -96 -44.5 -175t-117 -128t-160.5 -75.5
t-180 -26.5q-189 0 -300 60t-111 161q0 60 24 107.5t53.5 73t81.5 60.5q-106 48 -106 142q0 51 44 113t107 114q-188 92 -188 264q0 65 23.5 122.5t71 106t129.5 77t190 28.5q78 0 176 -24q14 -3 36.5 -9.5t36 -9t25.5 -2.5h225zM700 -43l-401 31q-18 -26 -25 -38
t-15.5 -36.5t-8.5 -50.5q0 -85 81 -129.5t206 -44.5q55 0 110.5 10t106 29.5t82.5 54.5t32 80q0 47 -36 66.5t-132 27.5zM498 905q-87 0 -126.5 -56.5t-39.5 -180.5t39.5 -181t126.5 -57t126.5 57t39.5 181t-39.5 180.5t-126.5 56.5z" />
    <glyph glyph-name="h" unicode="h" horiz-adv-x="1138" 
d="M399 766v-586q0 -81 20 -101.5t99 -25.5v-53h-483v53q56 3 78.5 12.5t31.5 34t9 82.5v1024q0 65 -25 85t-94 20v53q50 7 135 28.5t148 39.5t67 18q14 0 14 -23v-567q163 127 293 127q154 0 225.5 -77.5t71.5 -241.5v-488q0 -81 20 -101.5t99 -25.5v-53h-483v53
q79 5 98.5 25.5t19.5 101.5v504q0 92 -32 128t-90 36q-63 0 -113.5 -21.5t-108.5 -60.5z" />
    <glyph glyph-name="i" unicode="i" horiz-adv-x="569" 
d="M530 0h-491v53q76 6 100.5 34.5t24.5 96.5v512q0 98 -27.5 129t-97.5 31v53q51 4 135 23.5t147.5 37t69.5 17.5q9 0 13 -5t5 -11.5t1 -20.5v-766q0 -131 120 -131v-53zM287 1139q-58 0 -101 43t-43 100q0 60 42.5 101.5t101.5 41.5t101 -41.5t42 -101.5q0 -57 -42.5 -100
t-100.5 -43z" />
    <glyph glyph-name="j" unicode="j" horiz-adv-x="569" 
d="M426 946v-985q0 -173 -99.5 -288t-267.5 -115q-116 0 -179.5 48.5t-63.5 110.5q0 43 28.5 71t67.5 28q38 0 61.5 -19.5t53.5 -66.5q6 -9 17 -30t17 -31t18.5 -19.5t26.5 -9.5q74 0 74 170v903q0 86 -29.5 113t-117.5 30v53q55 4 147 23.5t160.5 37t71.5 17.5t5 -0.5
t3.5 -2.5t2.5 -3.5t1.5 -4.5t1 -5.5t0.5 -6v-6v-6.5v-6zM303 1425q59 0 101 -41.5t42 -101.5t-42 -101.5t-101 -41.5t-101 41.5t-42 101.5t42 101.5t101 41.5z" />
    <glyph glyph-name="k" unicode="k" horiz-adv-x="1138" 
d="M522 0h-485v53q76 6 97.5 24.5t21.5 84.5v1042q0 68 -24 87.5t-95 19.5v53q30 3 115 25t157.5 41.5t75.5 19.5q16 0 16 -33v-876l213 180q91 76 91 129q0 29 -24.5 42.5t-82.5 16.5v54h467v-54q-65 -7 -129.5 -51t-312.5 -244l288 -366q89 -116 134.5 -158t68.5 -37v-53
h-500v53q95 -7 95 41q0 34 -58 105l-245 313h-5v-350q0 -66 26 -88.5t95 -20.5v-53z" />
    <glyph glyph-name="l" unicode="l" horiz-adv-x="569" 
d="M532 0h-495v53q81 4 103 37t22 135v963q0 76 -24.5 99.5t-100.5 23.5v53q26 4 113 26t162.5 41t80.5 19q15 0 15 -20v-1205q0 -102 21.5 -135t102.5 -37v-53z" />
    <glyph glyph-name="m" unicode="m" horiz-adv-x="1705" 
d="M1098 0h-484v53q79 5 99 25.5t20 101.5v504q0 92 -32.5 128t-90.5 36q-124 0 -209 -78v-588q0 -58 9 -82.5t31.5 -34t78.5 -12.5v-53h-491v53q46 2 68 6.5t37 19t18.5 36.5t3.5 67v553q0 74 -25 97.5t-102 23.5v53q35 5 122 24.5t159 36.5t77 17q14 0 14 -24v-99
q164 123 297 123q82 0 136 -35t118 -108q51 40 77.5 59t67 42.5t79 32.5t84.5 9q154 0 225 -77.5t71 -241.5v-488q0 -81 20 -101.5t99 -25.5v-53h-483v53q79 5 99 25.5t20 101.5v504q0 92 -32.5 128t-90.5 36q-117 0 -209 -78v-588q0 -58 9 -82.5t31.5 -34t78.5 -12.5v-53z
" />
    <glyph glyph-name="n" unicode="n" horiz-adv-x="1138" 
d="M1106 0h-483v53q79 5 98.5 25.5t19.5 101.5v504q0 92 -32.5 128t-90.5 36q-63 0 -112.5 -21t-108.5 -61v-586q0 -81 20 -101.5t99 -25.5v-53h-483v53q79 5 99 25.5t20 101.5v559q0 74 -24 97.5t-95 23.5v53q22 4 108.5 23t161.5 35t80 16q14 0 14 -20v-107
q163 127 293 127q154 0 225.5 -77.5t71.5 -241.5v-488q0 -81 20 -101.5t99 -25.5v-53z" />
    <glyph glyph-name="o" unicode="o" 
d="M975 481q0 -221 -129.5 -363.5t-333.5 -142.5t-333.5 142.5t-129.5 363.5t129.5 363.5t333.5 142.5t333.5 -142.5t129.5 -363.5zM717 481q0 223 -48.5 323.5t-156.5 100.5t-156.5 -100.5t-48.5 -323.5t48.5 -323.5t156.5 -100.5t156.5 100.5t48.5 323.5z" />
    <glyph glyph-name="p" unicode="p" horiz-adv-x="1138" 
d="M422 53v-315q0 -36 3 -55t11 -34.5t28.5 -22t47.5 -10t76 -5.5v-53h-537v53q84 5 104.5 25.5t20.5 101.5v1003q0 73 -24.5 96t-100.5 23v53q26 4 113.5 23t163 35t80.5 16q14 0 14 -20v-129q153 149 297 149q147 0 250.5 -129.5t103.5 -318.5q0 -148 -58.5 -278.5
t-158 -208t-213.5 -77.5q-53 0 -97 13t-66.5 26.5t-57.5 38.5zM422 743v-354q0 -180 47 -256t145 -76q213 0 213 389q0 190 -66 287.5t-169 97.5q-29 0 -54 -7.5t-50 -25t-33.5 -25.5t-32.5 -30z" />
    <glyph glyph-name="q" unicode="q" 
d="M647 199v587q0 57 -35.5 88t-95.5 31q-110 0 -171.5 -107.5t-61.5 -293.5q0 -164 59 -260.5t172 -96.5q84 0 133 52zM999 -442h-483v53q74 0 102.5 19t28.5 71v393q-48 -56 -114.5 -87.5t-139.5 -31.5q-158 0 -257 121t-99 307q0 87 16.5 169.5t53 158t89.5 132.5
t131 90.5t171 33.5q116 0 243 -69l107 69h45v-1286q0 -50 26 -70t80 -20v-53z" />
    <glyph glyph-name="r" unicode="r" horiz-adv-x="796" 
d="M549 0h-508v53q65 9 90 33t25 86v559q0 74 -23 97.5t-92 23.5v53q45 8 129.5 28.5t148.5 37t72 16.5q10 0 10 -31v-145h5q35 74 92 125t135 51q65 0 101 -40.5t36 -96.5q0 -47 -31 -80t-77 -33q-21 0 -39 5t-25.5 9t-21.5 15.5t-15 11.5q-31 21 -53 21q-53 0 -107 -82
v-537q0 -71 35.5 -98t112.5 -29v-53z" />
    <glyph glyph-name="s" unicode="s" horiz-adv-x="796" 
d="M66 -25v353h53q17 -52 41.5 -97t60.5 -85.5t87.5 -64.5t111.5 -24q61 0 101 31t40 92q0 26 -8.5 48t-18 36t-35 32t-40 26.5t-53.5 29.5l-152 84q-42 23 -69 43t-54 53t-40 79.5t-13 109.5q0 110 83 188t222 78q64 0 108 -13.5t70 -26.5t45 -13q24 0 33 11t16 38h54v-328
h-66q-35 111 -101.5 180.5t-172.5 69.5q-56 0 -89.5 -31.5t-33.5 -95.5q0 -44 22 -72.5t84 -60.5l172 -86q57 -29 94 -53t69.5 -58.5t47.5 -79.5t15 -104q0 -137 -89 -213t-233 -76q-88 0 -162 19q-22 6 -57.5 20.5t-52.5 14.5q-30 0 -37 -54h-53z" />
    <glyph glyph-name="t" unicode="t" horiz-adv-x="681" 
d="M627 963v-103h-226v-602q0 -119 74 -119q24 0 49 13t41 27t53 50l41 -41q-27 -37 -33.5 -46t-31.5 -41t-37.5 -42.5t-38.5 -32t-46.5 -29t-50 -15t-61.5 -7.5q-107 0 -155.5 60.5t-48.5 179.5v645h-123v70q116 18 195 107.5t108 248.5h65v-323h226z" />
    <glyph glyph-name="u" unicode="u" horiz-adv-x="1138" 
d="M25 963h364v-684q0 -92 32.5 -128t90.5 -36q63 0 112.5 21t108.5 61v585q0 81 -20 101.5t-99 25.5v54h365v-740q0 -74 24 -97.5t95 -23.5v-53q-22 -4 -108.5 -23t-161.5 -35t-80 -16q-15 0 -15 21v106q-163 -127 -293 -127q-154 0 -225.5 78t-71.5 242v487
q0 81 -19.5 101.5t-98.5 25.5v54z" />
    <glyph glyph-name="v" unicode="v" 
d="M541 -25h-62l-340 842q-35 86 -114 92v54h483v-54q-54 -3 -84.5 -17.5t-30.5 -35.5q0 -11 4.5 -27t9 -28.5t14 -35.5t13.5 -34l158 -407l158 409q28 73 28 121q0 20 -30 36t-80 19v54h331v-54q-45 -7 -80.5 -45t-76.5 -141z" />
    <glyph glyph-name="w" unicode="w" horiz-adv-x="1478" 
d="M492 -25h-72l-301 840q-30 82 -94 94v54h421v-54q-86 4 -86 -45q0 -15 25 -92l156 -457l164 377l-43 125q-14 45 -40.5 66.5t-80.5 25.5v54h471v-54q-46 1 -74.5 -17t-28.5 -46q0 -13 3.5 -27.5t13.5 -43.5t14 -44l125 -393h4l152 393q22 73 22 109q0 33 -22.5 51.5
t-65.5 17.5v54h299v-54q-42 -16 -71 -44.5t-56 -96.5l-299 -793h-67l-209 594z" />
    <glyph glyph-name="x" unicode="x" 
d="M377 0h-352v53q59 9 94.5 35t89.5 94l197 246l-234 367q-23 36 -34.5 51t-37.5 35.5t-59 27.5v54h475v-54q-41 0 -65.5 -12t-24.5 -35q0 -12 4.5 -24t9.5 -19.5t14.5 -22t14.5 -22.5l94 -147l78 98q58 73 68 103q4 12 4 22q0 32 -22.5 45.5t-72.5 13.5v54h357v-54
q-58 -6 -104.5 -46.5t-120.5 -137.5l-138 -182l256 -396q37 -57 65.5 -75.5t65.5 -18.5v-53h-491v53q98 3 98 39q0 18 -53 101l-100 155l-82 -106q-8 -11 -22.5 -30t-21 -27.5t-16.5 -22.5t-14 -21t-9 -17t-7 -16.5t-2 -13.5q0 -41 98 -41v-53z" />
    <glyph glyph-name="y" unicode="y" 
d="M668 963h327v-54q-44 -6 -74.5 -37.5t-56.5 -93.5l-346 -872q-71 -182 -148 -265t-194 -83q-68 0 -112 38t-44 87q0 42 26 71t75 29q41 0 90 -31t74 -31q29 0 53 25.5t49 83.5l74 174l-322 797q-23 58 -44 78.5t-66 29.5v54h471v-54q-42 0 -74.5 -11.5t-32.5 -37.5
q0 -13 7 -35t21.5 -57t20.5 -53l146 -387l147 364q39 95 39 139q0 75 -106 78v54z" />
    <glyph glyph-name="z" unicode="z" horiz-adv-x="909" 
d="M815 0h-756v57l478 824h-191q-46 0 -80 -9.5t-55 -23.5t-37 -41.5t-24 -51.5t-19 -67h-61l36 275h713v-66l-473 -815h205q117 0 170 44.5t70 160.5h59z" />
    <glyph glyph-name="braceleft" unicode="{" horiz-adv-x="681" 
d="M238 -84v363q0 104 -28.5 154.5t-111.5 78.5q83 27 111.5 78t28.5 155v363q0 90 18.5 146.5t61 87t96.5 41t139 10.5v-62q-70 4 -92.5 -38t-22.5 -173v-344q0 -115 -35.5 -176t-128.5 -86v-4q93 -27 128.5 -87.5t35.5 -174.5v-344q0 -131 22.5 -173t92.5 -38v-62
q-86 0 -139.5 10.5t-96 40.5t-61 87t-18.5 147z" />
    <glyph glyph-name="bar" unicode="|" horiz-adv-x="454" 
d="M143 0v1450h168v-1450h-168z" />
    <glyph glyph-name="braceright" unicode="}" horiz-adv-x="681" 
d="M444 1108v-363q0 -104 28.5 -155t111.5 -78q-83 -28 -111.5 -78.5t-28.5 -154.5v-363q0 -90 -18.5 -147t-61 -87t-96 -40.5t-139.5 -10.5v62q70 -4 92.5 38t22.5 173v344q0 114 35.5 174.5t128.5 87.5v4q-93 25 -128.5 86t-35.5 176v344q0 131 -22.5 173t-92.5 38v62
q85 0 139 -10.5t96.5 -41t61 -87t18.5 -146.5z" />
    <glyph glyph-name="asciitilde" unicode="~" horiz-adv-x="1228" 
d="M1014 645l73 -145q-30 -41 -50.5 -65t-53 -53t-71 -42.5t-83.5 -13.5q-39 0 -81 11.5t-66 22.5t-70 35t-71 35t-69 23t-87 12q-55 0 -99 -43.5t-71 -104.5l-74 142q26 42 45.5 67.5t50.5 54.5t70 42.5t88 13.5q80 0 232 -70q55 -25 78 -35t61 -22t65 -12q55 0 95.5 38
t87.5 109z" />
    <glyph glyph-name="uni00A0" unicode="&#xa0;" horiz-adv-x="512" 
 />
    <glyph glyph-name="exclamdown" unicode="&#xa1;" horiz-adv-x="681" 
d="M309 569h66l94 -708q2 -12 8.5 -50t10.5 -69t4 -49q0 -62 -41 -98.5t-109 -36.5t-108.5 36t-40.5 99q0 18 4 48.5t10.5 70t7.5 49.5zM492 858q0 -61 -44 -105t-106 -44t-105.5 43.5t-43.5 105.5t44 106t105 44q62 0 106 -44t44 -106z" />
    <glyph glyph-name="cent" unicode="&#xa2;" 
d="M428 256l199 553q-48 96 -129 96q-73 0 -128 -85.5t-55 -233.5q0 -93 30 -180.5t83 -149.5zM674 713l-182 -514q55 -43 124 -43q103 0 168 34t129 115l33 -35q-24 -46 -47.5 -82t-62 -78t-80 -69.5t-100.5 -46.5t-126 -19q-60 0 -112 15l-99 -273h-81l106 301
q-114 55 -178 171.5t-64 259.5q0 145 60.5 268.5t168 196.5t236.5 73q71 0 117 -14l86 244h82l-94 -269q64 -30 99.5 -74t35.5 -96q0 -59 -32.5 -91t-80.5 -32q-38 0 -62 13t-44 45z" />
    <glyph glyph-name="sterling" unicode="&#xa3;" 
d="M721 774v-102h-215q-2 -140 -8.5 -204t-34.5 -185q6 -2 54 -20t65.5 -24t53.5 -17.5t59 -16t40 -4.5q115 0 178 159h54q-3 -56 -14 -108t-33.5 -103.5t-55 -89t-82 -61t-110.5 -23.5q-49 0 -89.5 12t-74 37t-54 45t-48.5 54q-12 -18 -26.5 -35.5t-44 -47t-68 -47.5
t-79.5 -18q-79 0 -127.5 51t-48.5 134q0 90 51.5 137t139.5 47q57 0 104 -12q2 65 -23 189t-28 151h-162v102h146q-11 90 -11 121q0 109 25.5 203.5t74 168t127 116t177.5 42.5q124 0 212.5 -55.5t88.5 -146.5q0 -47 -28.5 -78t-80.5 -31q-21 0 -37.5 4.5t-31 17t-23.5 22.5
t-21 35t-18 39.5t-20 49.5q-12 31 -27 46t-41 15q-57 0 -91 -61.5t-34 -187.5q0 -113 19 -320h221zM94 139q0 -38 27.5 -60t66.5 -22q52 0 81 41.5t34 102.5q-59 41 -108 41q-36 0 -68.5 -28.5t-32.5 -74.5z" />
    <glyph glyph-name="currency" unicode="&#xa4;" 
d="M184 696q0 -136 97 -238t231 -102t231 102t97 238t-97 238t-231 102t-231 -102t-97 -238zM213 289l-117 -117l-106 107l116 116q-102 130 -102 301q0 168 100 301l-114 113l106 107l115 -113q137 100 301 100q168 0 301 -102l115 115l106 -107l-114 -115
q100 -130 100 -299q0 -168 -100 -301l114 -116l-106 -107l-117 117q-131 -101 -299 -101t-299 101z" />
    <glyph glyph-name="yen" unicode="&#xa5;" 
d="M842 0h-668v53q65 2 98.5 8t58.5 24t32.5 49t7.5 87v303h-312v103h312v20l-72 103h-240v102h166l-266 379q-22 31 -42.5 51.5t-45.5 32t-35.5 14.5t-40.5 10v54h649v-54q-94 -3 -128.5 -18.5t-34.5 -52.5q0 -8 3.5 -18.5t12 -24.5t16.5 -26t22.5 -33t24.5 -36l246 -368
l256 362q68 95 68 144q0 38 -36 53t-138 18v54h473v-54q-49 -9 -89 -36t-61.5 -53t-58.5 -79l-225 -319h166v-102h-240l-72 -103v-20h312v-103h-312v-303q0 -56 7.5 -87t32 -49t57.5 -24t96 -8v-53z" />
    <glyph glyph-name="brokenbar" unicode="&#xa6;" horiz-adv-x="454" 
d="M143 0v532h168v-532h-168zM143 918v532h168v-532h-168z" />
    <glyph glyph-name="section" unicode="&#xa7;" 
d="M647 303v-16q168 -138 168 -281q0 -116 -85 -192t-245 -76q-114 0 -199 58.5t-85 150.5q0 52 32.5 87.5t85.5 35.5q57 0 86 -32t29 -73q0 -50 -33 -74q-4 -3 -13.5 -10t-14 -11t-10.5 -9.5t-8.5 -10.5t-2.5 -10q0 -32 45 -46.5t105 -14.5q80 0 121 40t41 109
q0 45 -31 89.5t-98 99.5l-271 219q-137 111 -137 276q0 116 68 182t190 66v17q-38 36 -51.5 48.5t-43.5 46t-42 56t-23.5 56.5t-11.5 69q0 127 83 199.5t200 72.5q133 0 216 -64.5t83 -131.5q0 -57 -35 -92t-84 -35q-52 0 -83.5 32t-31.5 68q0 43 41 84q6 6 18.5 16
t17.5 16.5t5 14.5q0 22 -34.5 36.5t-86.5 14.5q-78 0 -128 -39t-50 -100q0 -41 29 -84t54 -63.5t83 -64.5q9 -7 14 -11q194 -143 283.5 -255t89.5 -216q0 -130 -69.5 -191.5t-180.5 -56.5zM385 819q-52 0 -89.5 -34t-37.5 -83q0 -39 15 -74.5t46.5 -70t58 -57.5t71.5 -58
q2 -2 21.5 -17t24 -18t22 -15.5t25 -16t23.5 -12t27 -11t26 -5.5t29 -3q52 0 85.5 32.5t33.5 82.5q0 33 -14.5 65t-44.5 65t-52.5 53.5t-62.5 53.5q-104 85 -138 103q-37 20 -69 20z" />
    <glyph glyph-name="dieresis" unicode="&#xa8;" horiz-adv-x="569" 
d="M371 1229q0 51 36 87t87 36t86.5 -36t35.5 -87t-35.5 -87t-86.5 -36t-87 36t-36 87zM-47 1229q0 51 36 87t87 36t87 -36t36 -87t-36 -87t-87 -36t-87 36t-36 87z" />
    <glyph glyph-name="copyright" unicode="&#xa9;" horiz-adv-x="1638" 
d="M1532 690q0 -152 -54.5 -286t-148.5 -230t-226.5 -151.5t-283.5 -55.5q-120 0 -229.5 35.5t-197 101t-152 154.5t-99.5 200t-35 232q0 203 93 371.5t256.5 266t363.5 97.5t364 -97.5t256.5 -265.5t92.5 -372zM1384 690q0 169 -73 314t-203.5 232t-288.5 87
q-118 0 -223.5 -51.5t-180 -137.5t-118 -202t-43.5 -242q0 -167 73.5 -309.5t203.5 -226.5t288 -84t288 84t203.5 226.5t73.5 309.5zM1126 526h41l-30 -151q-1 -16 -12.5 -24t-36.5 -18l-9 -3q-5 -1 -36 -10t-53 -14.5t-59.5 -11t-70.5 -5.5q-204 0 -325 107.5t-121 316.5
q0 55 14.5 110t49.5 109t87 95.5t132.5 67t179.5 25.5q49 0 92.5 -6.5t61.5 -12t59 -18.5q45 -14 45 -45v-147h-45q-12 77 -65 130.5t-151 53.5q-124 0 -187.5 -95.5t-63.5 -256.5q0 -67 8 -124t27 -106.5t48.5 -84t74 -54.5t100.5 -20q86 0 148 53t97 139z" />
    <glyph glyph-name="ordfeminine" unicode="&#xaa;" horiz-adv-x="614" 
d="M539 1241v-313q0 -27 20 -27q17 0 41 19l25 -23q-27 -36 -69 -57t-89 -21q-53 0 -70.5 23t-17.5 63q-54 -42 -103.5 -64t-111.5 -22q-168 0 -168 150q0 42 21 75.5t50.5 54.5t75.5 39.5t81.5 27.5t85 20.5t69.5 17.5q0 73 -11.5 109t-34 47.5t-67.5 11.5q-50 0 -66 -18
t-16 -62q0 -31 -20 -47t-51 -16q-30 0 -50 16t-20 47q0 44 37 75t91 44.5t118 13.5q110 0 180 -44t70 -140zM379 969v182q-38 -10 -64.5 -18t-59 -22t-52.5 -29t-33.5 -37.5t-13.5 -49.5q0 -38 25.5 -60t68.5 -22q73 0 129 56z" />
    <glyph glyph-name="guillemotleft" unicode="&#xab;" 
d="M453 473v16l430 347q48 38 61 38q9 0 17 -7t8 -17q0 -48 -64 -135l-174 -232v-10l174 -225q64 -87 64 -135q0 -10 -8 -17.5t-17 -7.5q-12 0 -61 39zM55 473v16l430 347q48 38 62 38q9 0 16.5 -7t7.5 -17q0 -50 -63 -135l-174 -232v-10l174 -225q63 -85 63 -135
q0 -10 -7.5 -17.5t-16.5 -7.5q-13 0 -62 39z" />
    <glyph glyph-name="logicalnot" unicode="&#xac;" horiz-adv-x="1228" 
d="M928 201v389h-795v168h963v-557h-168z" />
    <glyph glyph-name="uni00AD" unicode="&#xad;" horiz-adv-x="681" 
d="M88 375v213h508v-213h-508z" />
    <glyph glyph-name="registered" unicode="&#xae;" horiz-adv-x="1638" 
d="M1208 313h-166q-28 0 -59 45.5t-82 143t-90 157.5h-74v-217q0 -30 1 -40.5t10 -23t28 -15.5t55 -5v-45h-356v45q64 3 77 17.5t13 66.5v529q0 24 -2 37t-10.5 25.5t-27 18.5t-50.5 7v45h399q101 0 168.5 -53.5t67.5 -153.5q0 -73 -45 -131.5t-119 -81.5l119 -174
q82 -114 143 -172v-25zM737 1059v-354h70q66 0 98.5 52.5t32.5 131.5q0 80 -32.5 125t-96.5 45h-72zM1532 690q0 -152 -54.5 -286t-148.5 -230t-226.5 -151.5t-283.5 -55.5q-120 0 -229.5 35.5t-197 101t-152 154.5t-99.5 200t-35 232q0 203 93 371.5t256.5 266t363.5 97.5
t364 -97.5t256.5 -265.5t92.5 -372zM1384 690q0 169 -73 314t-203.5 232t-288.5 87q-118 0 -223.5 -51.5t-180 -137.5t-118 -202t-43.5 -242q0 -167 73.5 -309.5t203.5 -226.5t288 -84t288 84t203.5 226.5t73.5 309.5z" />
    <glyph glyph-name="macron" unicode="&#xaf;" horiz-adv-x="569" 
d="M-45 1163v135h659v-135h-659z" />
    <glyph glyph-name="degree" unicode="&#xb0;" horiz-adv-x="819" 
d="M217 1133q0 -85 55.5 -148t137.5 -63q81 0 134.5 62.5t53.5 148.5t-53.5 148t-134.5 62q-82 0 -137.5 -62.5t-55.5 -147.5zM115 1133q0 123 86 207.5t209 84.5t206.5 -84.5t83.5 -207.5t-83.5 -208t-206.5 -85t-209 85t-86 208z" />
    <glyph glyph-name="plusminus" unicode="&#xb1;" horiz-adv-x="1228" 
d="M530 684v279h168v-279h398v-168h-398v-283h-168v283h-397v168h397zM133 0v168h963v-168h-963z" />
    <glyph glyph-name="twosuperior" unicode="&#xb2;" horiz-adv-x="614" 
d="M541 569h-537v45l199 187q89 89 139.5 167.5t50.5 170.5q0 75 -41.5 119.5t-115.5 44.5q-112 0 -166 -132h-41q29 109 101.5 181.5t170.5 72.5q106 0 177 -60t71 -169q0 -36 -12 -74.5t-38.5 -79.5t-49.5 -73.5t-65 -76t-63.5 -65.5t-66 -63.5t-53.5 -50.5h250
q55 0 75 12.5t47 60.5h41z" />
    <glyph glyph-name="threesuperior" unicode="&#xb3;" horiz-adv-x="614" 
d="M152 983v37q225 48 225 180q0 59 -36 93t-95 34q-33 0 -76 -18.5t-76 -59.5l-24 25q63 77 118 114t138 37q99 0 152.5 -50.5t53.5 -121.5q0 -106 -131 -188q80 -35 120 -88.5t40 -136.5q0 -84 -51.5 -151.5t-127.5 -101.5t-157 -34q-78 3 -131 30t-53 70q0 64 70 64
q10 0 21 -3t22.5 -8t13.5 -6q11 -6 42.5 -28.5t57.5 -35.5t49 -13q43 0 82 40.5t39 92.5q0 43 -17.5 79.5t-46 61.5t-66.5 43.5t-76.5 28.5t-79.5 14z" />
    <glyph glyph-name="acute" unicode="&#xb4;" horiz-adv-x="569" 
d="M225 1085h-102l291 312q18 19 27.5 27.5t29 17t43.5 8.5q38 0 65 -19.5t27 -68.5q0 -47 -41 -70z" />
    <glyph glyph-name="mu" unicode="&#xb5;" horiz-adv-x="1138" 
d="M389 -20v-422h-364v53q41 2 66 10t35.5 24.5t13.5 31.5t3 42v1063q0 81 -19.5 101.5t-98.5 25.5v54h364v-684q0 -92 32.5 -128t90.5 -36q63 0 112.5 21t108.5 61v585q0 81 -20 101.5t-99 25.5v54h365v-740q0 -74 24 -97.5t95 -23.5v-53q-22 -4 -108.5 -23t-161.5 -35
t-80 -16q-15 0 -15 21v106q-163 -127 -293 -127q-31 0 -51 5z" />
    <glyph glyph-name="paragraph" unicode="&#xb6;" horiz-adv-x="1269" 
d="M938 -373h-180v1712h-123v-1712h-180v926q-176 -1 -270.5 117t-94.5 317q0 215 99.5 310.5t328.5 95.5h580v-54q-12 -2 -32 -4q-97 -12 -113 -30.5t-15 -120.5v-49v-1508z" />
    <glyph glyph-name="periodcentered" unicode="&#xb7;" horiz-adv-x="512" 
d="M106 481q0 61 44 105.5t106 44.5t106 -44.5t44 -105.5t-44 -105t-106 -44t-106 44t-44 105z" />
    <glyph glyph-name="cedilla" unicode="&#xb8;" horiz-adv-x="569" 
d="M238 0h81l-63 -131q48 8 61 8q45 0 83 -10t69 -43t31 -86q0 -180 -267 -180q-109 0 -184 32l33 72q75 -22 123 -22q67 0 95 23.5t28 55.5q0 35 -28.5 55.5t-78.5 20.5q-19 0 -51 -8l-23 16z" />
    <glyph glyph-name="onesuperior" unicode="&#xb9;" horiz-adv-x="614" 
d="M528 569h-462v37q80 -2 113.5 24.5t33.5 90.5v434q0 58 -8.5 80t-38.5 22q-32 0 -100 -28l-13 28l303 168h25v-704q0 -64 33.5 -90.5t113.5 -24.5v-37z" />
    <glyph glyph-name="ordmasculine" unicode="&#xba;" horiz-adv-x="614" 
d="M307 1425q134 0 217.5 -85t83.5 -218t-83.5 -218t-217.5 -85t-217.5 85t-83.5 218t83.5 218t217.5 85zM307 1372q-72 0 -102.5 -58t-30.5 -192t30.5 -192t102.5 -58t102.5 58t30.5 192t-30.5 192t-102.5 58z" />
    <glyph glyph-name="guillemotright" unicode="&#xbb;" 
d="M969 489v-16l-430 -346q-49 -39 -62 -39q-9 0 -16.5 7.5t-7.5 17.5q0 50 63 135l174 231v10l-174 226q-63 85 -63 135q0 10 7.5 17t16.5 7q14 0 62 -38zM571 489v-16l-430 -346q-49 -39 -61 -39q-9 0 -17 7.5t-8 17.5q0 48 64 135l174 231v10l-174 226q-64 87 -64 135
q0 10 8 17t17 7q13 0 61 -38z" />
    <glyph glyph-name="onequarter" unicode="&#xbc;" horiz-adv-x="1536" 
d="M1434 322h102v-115h-102v-207h-160v207h-344v121l416 508h88v-514zM1010 322h264v323h-4zM1223 1425h118l-907 -1450h-119zM528 569h-462v37q80 -2 113.5 24.5t33.5 90.5v434q0 58 -8.5 80t-38.5 22q-32 0 -100 -28l-13 28l303 168h25v-704q0 -64 33.5 -90.5t113.5 -24.5
v-37z" />
    <glyph glyph-name="onehalf" unicode="&#xbd;" horiz-adv-x="1536" 
d="M1182 1425h118l-907 -1450h-119zM1462 0h-536v45l198 186q89 89 140 167.5t51 170.5q0 75 -42 119.5t-116 44.5q-112 0 -166 -131h-41q29 109 102 181.5t171 72.5q106 0 176.5 -60t70.5 -169q0 -36 -12 -74.5t-38.5 -80t-49.5 -73.5t-65 -76t-63 -65t-66.5 -64t-53.5 -51
h250q55 0 75.5 13t47.5 61h41zM528 569h-462v37q80 -2 113.5 24.5t33.5 90.5v434q0 58 -8.5 80t-38.5 22q-32 0 -100 -28l-13 28l303 168h25v-704q0 -64 33.5 -90.5t113.5 -24.5v-37z" />
    <glyph glyph-name="threequarters" unicode="&#xbe;" horiz-adv-x="1536" 
d="M1434 322h102v-115h-102v-207h-160v207h-344v121l416 508h88v-514zM1010 322h264v323h-4zM1219 1425h118l-907 -1450h-119zM152 983v37q225 48 225 180q0 59 -36 93t-95 34q-33 0 -76 -18.5t-76 -59.5l-24 25q63 77 118 114t138 37q99 0 152.5 -50.5t53.5 -121.5
q0 -106 -131 -188q80 -35 120 -88.5t40 -136.5q0 -84 -51.5 -151.5t-127.5 -101.5t-157 -34q-78 3 -131 30t-53 70q0 64 70 64q10 0 21 -3t22.5 -8t13.5 -6q11 -6 42.5 -28.5t57.5 -35.5t49 -13q43 0 82 40.5t39 92.5q0 43 -17.5 79.5t-46 61.5t-66.5 43.5t-76.5 28.5
t-79.5 14z" />
    <glyph glyph-name="questiondown" unicode="&#xbf;" horiz-adv-x="909" 
d="M428 569h61q5 -68 -11 -138t-42.5 -132t-54 -123.5t-47 -133.5t-19.5 -142q0 -118 57.5 -189t143.5 -71q48 0 86.5 20t38.5 57q0 20 -23.5 62t-23.5 90q0 50 40.5 84.5t88.5 34.5q59 0 94 -37.5t35 -106.5q0 -128 -115 -207t-270 -79q-78 0 -149.5 20t-130.5 59
t-94.5 104t-35.5 148q0 63 26.5 123t66 105t87 97.5t88.5 100.5t70 114.5t33 139.5zM608 858q0 -62 -44 -105.5t-105 -43.5q-62 0 -106 44t-44 105q0 62 44.5 106t105.5 44t105 -44t44 -106z" />
    <glyph glyph-name="Agrave" unicode="&#xc0;" horiz-adv-x="1478" 
d="M1450 0h-602v53q76 0 111.5 19.5t35.5 68.5q0 25 -16 75t-41.5 113.5t-26.5 67.5h-503q-2 -7 -18.5 -49.5t-28 -75t-22.5 -72t-11 -59.5q0 -49 34 -68.5t109 -19.5v-53h-442v53q69 14 107 41.5t63 89.5l510 1241h67l490 -1198q43 -106 76.5 -140.5t107.5 -33.5v-53z
M453 500h415l-206 551zM901 1485h-102l-340 207q-41 23 -41 69q0 45 28 66.5t64 21.5q24 0 43.5 -8.5t29 -17t27.5 -27.5z" />
    <glyph glyph-name="Aacute" unicode="&#xc1;" horiz-adv-x="1478" 
d="M1450 0h-602v53q76 0 111.5 19.5t35.5 68.5q0 25 -16 75t-41.5 113.5t-26.5 67.5h-503q-2 -7 -18.5 -49.5t-28 -75t-22.5 -72t-11 -59.5q0 -49 34 -68.5t109 -19.5v-53h-442v53q69 14 107 41.5t63 89.5l510 1241h67l490 -1198q43 -106 76.5 -140.5t107.5 -33.5v-53z
M453 500h415l-206 551zM680 1485h-102l290 311q17 18 27.5 27.5t30 17.5t43.5 8q38 0 65 -19.5t27 -68.5q0 -46 -41 -69z" />
    <glyph glyph-name="Acircumflex" unicode="&#xc2;" horiz-adv-x="1478" 
d="M1450 0h-602v53q76 0 111.5 19.5t35.5 68.5q0 25 -16 75t-41.5 113.5t-26.5 67.5h-503q-2 -7 -18.5 -49.5t-28 -75t-22.5 -72t-11 -59.5q0 -49 34 -68.5t109 -19.5v-53h-442v53q69 14 107 41.5t63 89.5l510 1241h67l490 -1198q43 -106 76.5 -140.5t107.5 -33.5v-53z
M453 500h415l-206 551zM819 1837l254 -352h-102l-234 209l-233 -209h-98l253 352h160z" />
    <glyph glyph-name="Atilde" unicode="&#xc3;" horiz-adv-x="1478" 
d="M1450 0h-602v53q76 0 111.5 19.5t35.5 68.5q0 25 -16 75t-41.5 113.5t-26.5 67.5h-503q-2 -7 -18.5 -49.5t-28 -75t-22.5 -72t-11 -59.5q0 -49 34 -68.5t109 -19.5v-53h-442v53q69 14 107 41.5t63 89.5l510 1241h67l490 -1198q43 -106 76.5 -140.5t107.5 -33.5v-53z
M453 500h415l-206 551zM455 1526h-78q23 105 80 173t155 68q26 0 50.5 -5t37 -10t38.5 -17.5t36 -16.5q9 -4 29 -15.5t32 -17t33.5 -11t44.5 -5.5q45 0 69.5 25t41.5 73h78q-23 -105 -80.5 -173t-155.5 -68q-26 0 -50 5t-37 10t-38.5 17.5t-35.5 16.5q-9 4 -29.5 15.5
t-32.5 17t-33 11t-43 5.5q-47 0 -70.5 -24.5t-41.5 -73.5z" />
    <glyph glyph-name="Adieresis" unicode="&#xc4;" horiz-adv-x="1478" 
d="M1450 0h-602v53q76 0 111.5 19.5t35.5 68.5q0 25 -16 75t-41.5 113.5t-26.5 67.5h-503q-2 -7 -18.5 -49.5t-28 -75t-22.5 -72t-11 -59.5q0 -49 34 -68.5t109 -19.5v-53h-442v53q69 14 107 41.5t63 89.5l510 1241h67l490 -1198q43 -106 76.5 -140.5t107.5 -33.5v-53z
M453 500h415l-206 551zM825 1628q0 51 36 87t87 36t87 -36t36 -87t-36 -87t-87 -36t-87 36t-36 87zM408 1628q0 51 35.5 87t86.5 36t87 -36t36 -87t-36 -87t-87 -36t-86.5 36t-35.5 87z" />
    <glyph glyph-name="Aring" unicode="&#xc5;" horiz-adv-x="1478" 
d="M1450 0h-602v53q76 0 111.5 19.5t35.5 68.5q0 25 -16 75t-41.5 113.5t-26.5 67.5h-503q-2 -7 -18.5 -49.5t-28 -75t-22.5 -72t-11 -59.5q0 -49 34 -68.5t109 -19.5v-53h-442v53q69 14 107 41.5t63 89.5l510 1241h67l490 -1198q43 -106 76.5 -140.5t107.5 -33.5v-53z
M453 500h415l-206 551zM627 1700q0 -46 33 -79.5t79 -33.5q45 0 79 34t34 79q0 46 -33.5 79t-79.5 33t-79 -34t-33 -78zM528 1700q0 88 61.5 149.5t149.5 61.5q87 0 149 -62t62 -149q0 -88 -61.5 -149.5t-149.5 -61.5q-90 0 -150.5 61.5t-60.5 149.5z" />
    <glyph glyph-name="AE" unicode="&#xc6;" horiz-adv-x="2048" 
d="M942 532h-440l-144 -260q-6 -11 -17.5 -31.5t-15 -28t-9.5 -20.5t-7.5 -22t-1.5 -20q0 -38 48 -66.5t112 -30.5v-53h-459v53q43 9 76 27t61 51t46 61t49 82l456 824q31 57 43 79.5t21.5 47t9.5 41.5q0 36 -31 53t-121 20v54h1268l8 -308h-57q-26 84 -60 124.5
t-106.5 60.5t-208.5 20h-164q-48 0 -62.5 -16.5t-14.5 -71.5v-424h190q110 0 167 17t83.5 54.5t40.5 113.5h53v-492h-53q-21 119 -86 162t-205 43h-190v-481q0 -46 14 -68t62 -33.5t147 -11.5q101 0 170.5 11t135 42t116 89t94.5 149h53l-94 -373h-1186v53q90 4 134 20.5
t59.5 49t15.5 98.5v311zM942 635v676h-4l-375 -676h379z" />
    <glyph glyph-name="Ccedilla" unicode="&#xc7;" horiz-adv-x="1581" 
d="M1333 371l56 -43q-102 -174 -239 -261.5t-331 -99.5l-49 -98q48 8 61 8q45 0 83 -10t69 -43t31 -86q0 -180 -266 -180q-110 0 -185 32l33 72q75 -22 123 -22q67 0 95 23.5t28 55.5q0 35 -28.5 55.5t-78.5 20.5q-19 0 -51 -8l-22 16l75 164q-215 5 -372.5 99t-239.5 259.5
t-82 383.5q0 97 29 196.5t90.5 192.5t146.5 166t207 117t262 44q64 0 152.5 -20.5t154.5 -41t76 -20.5q15 0 25.5 3.5t21 16.5t17 23.5t22.5 38.5h70l29 -464h-62q-141 370 -471 370q-95 0 -174.5 -39t-133.5 -102.5t-91.5 -146t-54.5 -167t-17 -167.5q0 -291 128 -459
t380 -168q77 0 148.5 23t119.5 52.5t96 75t70 73.5t49 65z" />
    <glyph glyph-name="Egrave" unicode="&#xc8;" horiz-adv-x="1366" 
d="M1237 0h-1196v53q55 2 84 8t51 24t29.5 49.5t7.5 86.5v950q0 55 -7.5 86.5t-29.5 49.5t-51 24t-84 8v54h1163l8 -308h-57q-26 84 -60 124.5t-106.5 60.5t-208.5 20h-211q-47 0 -62 -14t-15 -57v-441h237q110 0 167 17t83.5 54.5t40.5 113.5h53v-492h-53q-21 119 -86 162
t-205 43h-237v-481q0 -28 4.5 -44.5t19.5 -31.5t45 -22t78.5 -11t122.5 -4q101 0 170.5 11t135 42t116 89t94.5 149h53zM821 1485h-102l-340 207q-41 23 -41 69q0 45 28 66.5t64 21.5q24 0 43.5 -8.5t29 -17t27.5 -27.5z" />
    <glyph glyph-name="Eacute" unicode="&#xc9;" horiz-adv-x="1366" 
d="M1237 0h-1196v53q55 2 84 8t51 24t29.5 49.5t7.5 86.5v950q0 55 -7.5 86.5t-29.5 49.5t-51 24t-84 8v54h1163l8 -308h-57q-26 84 -60 124.5t-106.5 60.5t-208.5 20h-211q-47 0 -62 -14t-15 -57v-441h237q110 0 167 17t83.5 54.5t40.5 113.5h53v-492h-53q-21 119 -86 162
t-205 43h-237v-481q0 -28 4.5 -44.5t19.5 -31.5t45 -22t78.5 -11t122.5 -4q101 0 170.5 11t135 42t116 89t94.5 149h53zM600 1485h-102l290 311q17 18 27.5 27.5t30 17.5t43.5 8q38 0 65 -19.5t27 -68.5q0 -46 -41 -69z" />
    <glyph glyph-name="Ecircumflex" unicode="&#xca;" horiz-adv-x="1366" 
d="M1237 0h-1196v53q55 2 84 8t51 24t29.5 49.5t7.5 86.5v950q0 55 -7.5 86.5t-29.5 49.5t-51 24t-84 8v54h1163l8 -308h-57q-26 84 -60 124.5t-106.5 60.5t-208.5 20h-211q-47 0 -62 -14t-15 -57v-441h237q110 0 167 17t83.5 54.5t40.5 113.5h53v-492h-53q-21 119 -86 162
t-205 43h-237v-481q0 -28 4.5 -44.5t19.5 -31.5t45 -22t78.5 -11t122.5 -4q101 0 170.5 11t135 42t116 89t94.5 149h53zM739 1837l254 -352h-102l-234 209l-233 -209h-98l254 352h159z" />
    <glyph glyph-name="Edieresis" unicode="&#xcb;" horiz-adv-x="1366" 
d="M1237 0h-1196v53q55 2 84 8t51 24t29.5 49.5t7.5 86.5v950q0 55 -7.5 86.5t-29.5 49.5t-51 24t-84 8v54h1163l8 -308h-57q-26 84 -60 124.5t-106.5 60.5t-208.5 20h-211q-47 0 -62 -14t-15 -57v-441h237q110 0 167 17t83.5 54.5t40.5 113.5h53v-492h-53q-21 119 -86 162
t-205 43h-237v-481q0 -28 4.5 -44.5t19.5 -31.5t45 -22t78.5 -11t122.5 -4q101 0 170.5 11t135 42t116 89t94.5 149h53zM745 1628q0 51 36 87t87 36t87 -36t36 -87t-36 -87t-87 -36t-87 36t-36 87zM328 1628q0 51 36 87t87 36t86.5 -36t35.5 -87t-35.5 -87t-86.5 -36t-87 36
t-36 87z" />
    <glyph glyph-name="Igrave" unicode="&#xcc;" horiz-adv-x="796" 
d="M537 1171v-950q0 -56 7.5 -87t33 -49t60.5 -24t103 -8v-53h-688v53q45 2 73 4.5t53.5 9.5t38.5 17.5t23 29.5t13.5 44.5t3.5 62.5v950q0 37 -3.5 62.5t-13.5 44.5t-23 29.5t-38.5 17.5t-53.5 9.5t-73 4.5v54h688v-54q-68 -2 -103 -8t-60.5 -24t-33 -49t-7.5 -87z
M561 1485h-102l-340 207q-41 23 -41 69q0 45 28 66.5t64 21.5q24 0 43.5 -8.5t29 -17t27.5 -27.5z" />
    <glyph glyph-name="Iacute" unicode="&#xcd;" horiz-adv-x="796" 
d="M537 1171v-950q0 -56 7.5 -87t33 -49t60.5 -24t103 -8v-53h-688v53q45 2 73 4.5t53.5 9.5t38.5 17.5t23 29.5t13.5 44.5t3.5 62.5v950q0 37 -3.5 62.5t-13.5 44.5t-23 29.5t-38.5 17.5t-53.5 9.5t-73 4.5v54h688v-54q-68 -2 -103 -8t-60.5 -24t-33 -49t-7.5 -87z
M340 1485h-102l290 311q17 18 27.5 27.5t30 17.5t43.5 8q38 0 65 -19.5t27 -68.5q0 -46 -41 -69z" />
    <glyph glyph-name="Icircumflex" unicode="&#xce;" horiz-adv-x="796" 
d="M537 1171v-950q0 -56 7.5 -87t33 -49t60.5 -24t103 -8v-53h-688v53q45 2 73 4.5t53.5 9.5t38.5 17.5t23 29.5t13.5 44.5t3.5 62.5v950q0 37 -3.5 62.5t-13.5 44.5t-23 29.5t-38.5 17.5t-53.5 9.5t-73 4.5v54h688v-54q-68 -2 -103 -8t-60.5 -24t-33 -49t-7.5 -87z
M479 1837l254 -352h-102l-234 209l-233 -209h-98l253 352h160z" />
    <glyph glyph-name="Idieresis" unicode="&#xcf;" horiz-adv-x="796" 
d="M537 1171v-950q0 -56 7.5 -87t33 -49t60.5 -24t103 -8v-53h-688v53q45 2 73 4.5t53.5 9.5t38.5 17.5t23 29.5t13.5 44.5t3.5 62.5v950q0 37 -3.5 62.5t-13.5 44.5t-23 29.5t-38.5 17.5t-53.5 9.5t-73 4.5v54h688v-54q-68 -2 -103 -8t-60.5 -24t-33 -49t-7.5 -87z
M485 1628q0 51 36 87t87 36t87 -36t36 -87t-36 -87t-87 -36t-87 36t-36 87zM68 1628q0 51 35.5 87t86.5 36t87 -36t36 -87t-36 -87t-87 -36t-86.5 36t-35.5 87z" />
    <glyph glyph-name="Eth" unicode="&#xd0;" horiz-adv-x="1593" 
d="M217 221v430h-176v115h176v405q0 55 -7.5 86.5t-30 49.5t-52.5 24t-86 8v54h696q166 0 309 -44.5t252 -129.5t171.5 -219.5t62.5 -303.5t-62.5 -303.5t-171.5 -219t-252 -129t-309 -44.5h-696v53q56 2 86 8t52.5 24t30 49.5t7.5 86.5zM496 651v-442q0 -71 35 -99t128 -28
q278 0 432 169.5t154 444.5t-154 445t-432 170q-93 0 -128 -28t-35 -99v-418h405v-115h-405z" />
    <glyph glyph-name="Ntilde" unicode="&#xd1;" horiz-adv-x="1593" 
d="M1249 434v699q0 105 -38.5 149.5t-149.5 56.5v54h491v-54q-111 -12 -149.5 -56.5t-38.5 -149.5v-1166h-70l-950 1098v-805q0 -105 38.5 -150t149.5 -57v-53h-491v53q111 12 149.5 57t38.5 150v938q-35 61 -79 93.5t-109 47.5v54h379zM512 1526h-78q23 105 80.5 173
t155.5 68q26 0 50 -5t37 -10t38.5 -17.5t35.5 -16.5q9 -4 29 -15.5t32.5 -17t34 -11t44.5 -5.5q45 0 68.5 25t41.5 73h78q-23 -105 -80 -173t-155 -68q-26 0 -50.5 5t-37 10t-38.5 17.5t-36 16.5q-9 4 -29 15.5t-32 17t-33 11t-43 5.5q-47 0 -71 -25t-42 -73z" />
    <glyph glyph-name="Ograve" unicode="&#xd2;" horiz-adv-x="1478" 
d="M1436 696q0 -101 -24 -201t-78 -196t-133 -169.5t-198.5 -118t-263.5 -44.5t-263.5 44.5t-198 118t-133 169.5t-78 196t-23.5 201t23.5 201t78 196t133 169.5t198 118t263.5 44.5t263.5 -44.5t198.5 -118t133 -169.5t78 -196t24 -201zM1137 696q0 317 -103 476t-295 159
t-294.5 -158.5t-102.5 -476.5t102.5 -476.5t294.5 -158.5t295 159t103 476zM889 1485h-103l-340 207q-40 22 -40 69q0 45 28 66.5t64 21.5q24 0 43.5 -8.5t29 -17t27.5 -27.5z" />
    <glyph glyph-name="Oacute" unicode="&#xd3;" horiz-adv-x="1478" 
d="M1436 696q0 -101 -24 -201t-78 -196t-133 -169.5t-198.5 -118t-263.5 -44.5t-263.5 44.5t-198 118t-133 169.5t-78 196t-23.5 201t23.5 201t78 196t133 169.5t198 118t263.5 44.5t263.5 -44.5t198.5 -118t133 -169.5t78 -196t24 -201zM1137 696q0 317 -103 476t-295 159
t-294.5 -158.5t-102.5 -476.5t102.5 -476.5t294.5 -158.5t295 159t103 476zM668 1485h-103l291 311q18 19 27.5 27.5t29 17t43.5 8.5q38 0 65.5 -19.5t27.5 -68.5q0 -46 -41 -69z" />
    <glyph glyph-name="Ocircumflex" unicode="&#xd4;" horiz-adv-x="1478" 
d="M1436 696q0 -101 -24 -201t-78 -196t-133 -169.5t-198.5 -118t-263.5 -44.5t-263.5 44.5t-198 118t-133 169.5t-78 196t-23.5 201t23.5 201t78 196t133 169.5t198 118t263.5 44.5t263.5 -44.5t198.5 -118t133 -169.5t78 -196t24 -201zM1137 696q0 317 -103 476t-295 159
t-294.5 -158.5t-102.5 -476.5t102.5 -476.5t294.5 -158.5t295 159t103 476zM807 1837l254 -352h-103l-233 209l-233 -209h-99l254 352h160z" />
    <glyph glyph-name="Otilde" unicode="&#xd5;" horiz-adv-x="1478" 
d="M1436 696q0 -101 -24 -201t-78 -196t-133 -169.5t-198.5 -118t-263.5 -44.5t-263.5 44.5t-198 118t-133 169.5t-78 196t-23.5 201t23.5 201t78 196t133 169.5t198 118t263.5 44.5t263.5 -44.5t198.5 -118t133 -169.5t78 -196t24 -201zM1137 696q0 317 -103 476t-295 159
t-294.5 -158.5t-102.5 -476.5t102.5 -476.5t294.5 -158.5t295 159t103 476zM442 1526h-77q23 105 80 173t155 68q26 0 50.5 -5t37 -10t38.5 -17.5t36 -16.5q9 -4 29 -15.5t32 -17t33.5 -11t44.5 -5.5q45 0 69.5 25t41.5 73h78q-23 -105 -80.5 -173t-155.5 -68q-26 0 -50.5 5
t-37 10t-38.5 17.5t-36 16.5q-9 4 -29 15.5t-32 17t-33 11t-43 5.5q-47 0 -71 -25t-42 -73z" />
    <glyph glyph-name="Odieresis" unicode="&#xd6;" horiz-adv-x="1478" 
d="M1436 696q0 -101 -24 -201t-78 -196t-133 -169.5t-198.5 -118t-263.5 -44.5t-263.5 44.5t-198 118t-133 169.5t-78 196t-23.5 201t23.5 201t78 196t133 169.5t198 118t263.5 44.5t263.5 -44.5t198.5 -118t133 -169.5t78 -196t24 -201zM1137 696q0 317 -103 476t-295 159
t-294.5 -158.5t-102.5 -476.5t102.5 -476.5t294.5 -158.5t295 159t103 476zM813 1628q0 51 36 87t87 36t87 -36t36 -87t-36 -87t-87 -36t-87 36t-36 87zM395 1628q0 51 36 87t87 36t87 -36t36 -87t-36 -87t-87 -36t-87 36t-36 87z" />
    <glyph glyph-name="multiply" unicode="&#xd7;" horiz-adv-x="1228" 
d="M496 481l-363 363l117 119l364 -363l365 363l117 -119l-363 -363l363 -362l-117 -119l-365 362l-364 -362l-117 119z" />
    <glyph glyph-name="Oslash" unicode="&#xd8;" horiz-adv-x="1478" 
d="M1067 1106l-612 -897q101 -148 284 -148q192 0 295 159t103 476q0 143 -15 241.5t-55 168.5zM412 287l614 895q-102 149 -287 149q-192 0 -294.5 -158.5t-102.5 -476.5q0 -143 15 -241t55 -168zM360 70l-141 -205h-98l174 252q-127 107 -189.5 262t-62.5 317
q0 101 23.5 201t78 196t133 169.5t198 118t263.5 44.5q223 0 381 -104l140 203h98l-172 -250q125 -105 187.5 -260.5t62.5 -317.5q0 -101 -24 -201t-78 -196t-133 -169.5t-198.5 -118t-263.5 -44.5q-219 0 -379 103z" />
    <glyph glyph-name="Ugrave" unicode="&#xd9;" horiz-adv-x="1593" 
d="M516 1171v-720q0 -182 87 -271.5t276 -89.5q176 0 267 111.5t91 308.5v623q0 104 -38 149t-146 57v54h483v-54q-117 -12 -157 -56.5t-40 -149.5v-621q0 -128 -28.5 -225.5t-90 -170.5t-166.5 -111t-251 -38q-286 0 -425.5 123t-139.5 385v696q0 55 -7.5 86.5t-31 49.5
t-54 24t-88.5 8v54h639v-54q-58 -2 -88.5 -8t-53.5 -24t-30.5 -49.5t-7.5 -86.5zM993 1485h-102l-340 207q-41 23 -41 69q0 45 28 66.5t64 21.5q24 0 43.5 -8.5t29 -17t27.5 -27.5z" />
    <glyph glyph-name="Uacute" unicode="&#xda;" horiz-adv-x="1593" 
d="M516 1171v-720q0 -182 87 -271.5t276 -89.5q176 0 267 111.5t91 308.5v623q0 104 -38 149t-146 57v54h483v-54q-117 -12 -157 -56.5t-40 -149.5v-621q0 -128 -28.5 -225.5t-90 -170.5t-166.5 -111t-251 -38q-286 0 -425.5 123t-139.5 385v696q0 55 -7.5 86.5t-31 49.5
t-54 24t-88.5 8v54h639v-54q-58 -2 -88.5 -8t-53.5 -24t-30.5 -49.5t-7.5 -86.5zM772 1485h-102l291 311q18 19 27.5 27.5t29 17t43.5 8.5q38 0 65 -19.5t27 -68.5q0 -46 -41 -69z" />
    <glyph glyph-name="Ucircumflex" unicode="&#xdb;" horiz-adv-x="1593" 
d="M516 1171v-720q0 -182 87 -271.5t276 -89.5q176 0 267 111.5t91 308.5v623q0 104 -38 149t-146 57v54h483v-54q-117 -12 -157 -56.5t-40 -149.5v-621q0 -128 -28.5 -225.5t-90 -170.5t-166.5 -111t-251 -38q-286 0 -425.5 123t-139.5 385v696q0 55 -7.5 86.5t-31 49.5
t-54 24t-88.5 8v54h639v-54q-58 -2 -88.5 -8t-53.5 -24t-30.5 -49.5t-7.5 -86.5zM911 1837l254 -352h-102l-234 209l-233 -209h-98l254 352h159z" />
    <glyph glyph-name="Udieresis" unicode="&#xdc;" horiz-adv-x="1593" 
d="M516 1171v-720q0 -182 87 -271.5t276 -89.5q176 0 267 111.5t91 308.5v623q0 104 -38 149t-146 57v54h483v-54q-117 -12 -157 -56.5t-40 -149.5v-621q0 -128 -28.5 -225.5t-90 -170.5t-166.5 -111t-251 -38q-286 0 -425.5 123t-139.5 385v696q0 55 -7.5 86.5t-31 49.5
t-54 24t-88.5 8v54h639v-54q-58 -2 -88.5 -8t-53.5 -24t-30.5 -49.5t-7.5 -86.5zM918 1628q0 51 35.5 87t86.5 36t87 -36t36 -87t-36 -87t-87 -36t-86.5 36t-35.5 87zM500 1628q0 51 36 87t87 36t86.5 -36t35.5 -87t-35.5 -87t-86.5 -36t-87 36t-36 87z" />
    <glyph glyph-name="Yacute" unicode="&#xdd;" horiz-adv-x="1478" 
d="M588 1130l246 -368l256 362q65 91 65 156q0 29 -36 42.5t-136 16.5v54h471v-54q-66 -15 -105 -47t-102 -121l-370 -524v-426q0 -56 7.5 -87t32 -49t58 -24t98.5 -8v-53h-672v53q65 2 98.5 8t58.5 24t32.5 49t7.5 87v426l-412 584q-38 56 -70 75.5t-91 32.5v54h647v-54
q-94 -3 -129 -18.5t-35 -52.5q0 -10 7 -25.5t16 -28.5t27.5 -40t29.5 -44zM727 1485h-102l290 311q17 18 27.5 27.5t30 17.5t43.5 8q38 0 65 -19.5t27 -68.5q0 -46 -41 -69z" />
    <glyph glyph-name="Thorn" unicode="&#xde;" horiz-adv-x="1251" 
d="M496 315v-94q0 -56 7.5 -87t31 -49t55.5 -24t94 -8v-53h-643v53q56 2 86 8t52.5 24t30 49.5t7.5 86.5v950q0 55 -7.5 86.5t-30 49.5t-52.5 24t-86 8v54h643v-54q-62 -2 -94 -8t-55.5 -24t-31 -49t-7.5 -87v-45h182q269 0 408 -103t139 -302t-139 -302.5t-408 -103.5h-182
zM496 997v-600q121 0 207 24.5t137 72t74.5 111.5t23.5 149q0 134 -93 212t-235 78q-114 0 -114 -47z" />
    <glyph glyph-name="germandbls" unicode="&#xdf;" 
d="M369 0h-353v53q32 6 47 11.5t31.5 20t22.5 40.5t6 70v819q0 436 389 436q90 0 163 -27.5t118 -73.5t68.5 -101.5t23.5 -114.5q0 -113 -70.5 -200t-179.5 -106v-4q154 -29 243 -142t89 -271q0 -63 -11 -123t-37 -117.5t-64 -100t-96 -68.5t-130 -26q-63 0 -150 25l37 94
q56 -37 86 -37q119 0 119 314q0 99 -11 170.5t-37 126t-71 81t-110 25.5v82q53 4 87 21.5t51 52t23 74.5t6 102q0 123 -40.5 192.5t-124.5 69.5q-57 0 -91 -45.5t-34 -134.5v-1188z" />
    <glyph glyph-name="agrave" unicode="&#xe0;" 
d="M885 678v-522q0 -45 33 -45q24 0 61 32l33 -37q-37 -60 -101 -95.5t-137 -35.5q-80 0 -107.5 39.5t-27.5 104.5q-85 -71 -160.5 -107.5t-171.5 -36.5q-117 0 -187.5 59t-70.5 191q0 52 18.5 97.5t47 78t72.5 61t87 47t97.5 36.5t96.5 28.5t93 23.5t78 21
q0 122 -17.5 183.5t-52 82.5t-102.5 21q-77 0 -102 -32.5t-25 -106.5q0 -53 -31 -80t-78 -27t-77.5 27t-30.5 80q0 72 57 124t140 74.5t180 22.5q80 0 147 -16.5t121.5 -51.5t85.5 -96.5t31 -144.5zM639 225v303q-59 -16 -100 -29.5t-91 -36.5t-80.5 -48.5t-51.5 -62.5
t-21 -81q0 -65 40 -106t105 -41q51 0 104 29t95 73zM674 1085h-103l-340 207q-41 23 -41 70q0 45 28 66.5t65 21.5q24 0 43.5 -8.5t29 -17t27.5 -27.5z" />
    <glyph glyph-name="aacute" unicode="&#xe1;" 
d="M885 678v-522q0 -45 33 -45q24 0 61 32l33 -37q-37 -60 -101 -95.5t-137 -35.5q-80 0 -107.5 39.5t-27.5 104.5q-85 -71 -160.5 -107.5t-171.5 -36.5q-117 0 -187.5 59t-70.5 191q0 52 18.5 97.5t47 78t72.5 61t87 47t97.5 36.5t96.5 28.5t93 23.5t78 21
q0 122 -17.5 183.5t-52 82.5t-102.5 21q-77 0 -102 -32.5t-25 -106.5q0 -53 -31 -80t-78 -27t-77.5 27t-30.5 80q0 72 57 124t140 74.5t180 22.5q80 0 147 -16.5t121.5 -51.5t85.5 -96.5t31 -144.5zM639 225v303q-59 -16 -100 -29.5t-91 -36.5t-80.5 -48.5t-51.5 -62.5
t-21 -81q0 -65 40 -106t105 -41q51 0 104 29t95 73zM453 1085h-103l291 312q18 19 27.5 27.5t29 17t43.5 8.5q38 0 65.5 -19.5t27.5 -68.5q0 -47 -41 -70z" />
    <glyph glyph-name="acircumflex" unicode="&#xe2;" 
d="M885 678v-522q0 -45 33 -45q24 0 61 32l33 -37q-37 -60 -101 -95.5t-137 -35.5q-80 0 -107.5 39.5t-27.5 104.5q-85 -71 -160.5 -107.5t-171.5 -36.5q-117 0 -187.5 59t-70.5 191q0 52 18.5 97.5t47 78t72.5 61t87 47t97.5 36.5t96.5 28.5t93 23.5t78 21
q0 122 -17.5 183.5t-52 82.5t-102.5 21q-77 0 -102 -32.5t-25 -106.5q0 -53 -31 -80t-78 -27t-77.5 27t-30.5 80q0 72 57 124t140 74.5t180 22.5q80 0 147 -16.5t121.5 -51.5t85.5 -96.5t31 -144.5zM639 225v303q-59 -16 -100 -29.5t-91 -36.5t-80.5 -48.5t-51.5 -62.5
t-21 -81q0 -65 40 -106t105 -41q51 0 104 29t95 73zM592 1438l254 -353h-103l-233 209l-234 -209h-98l254 353h160z" />
    <glyph glyph-name="atilde" unicode="&#xe3;" 
d="M885 678v-522q0 -45 33 -45q24 0 61 32l33 -37q-37 -60 -101 -95.5t-137 -35.5q-80 0 -107.5 39.5t-27.5 104.5q-85 -71 -160.5 -107.5t-171.5 -36.5q-117 0 -187.5 59t-70.5 191q0 52 18.5 97.5t47 78t72.5 61t87 47t97.5 36.5t96.5 28.5t93 23.5t78 21
q0 122 -17.5 183.5t-52 82.5t-102.5 21q-77 0 -102 -32.5t-25 -106.5q0 -53 -31 -80t-78 -27t-77.5 27t-30.5 80q0 72 57 124t140 74.5t180 22.5q80 0 147 -16.5t121.5 -51.5t85.5 -96.5t31 -144.5zM639 225v303q-59 -16 -100 -29.5t-91 -36.5t-80.5 -48.5t-51.5 -62.5
t-21 -81q0 -65 40 -106t105 -41q51 0 104 29t95 73zM227 1126h-77q11 49 29 90t45.5 76.5t68.5 55.5t92 20q26 0 50.5 -5t37 -10t38.5 -17.5t36 -16.5q9 -4 29 -15.5t32 -17t33.5 -11t44.5 -5.5q45 0 69.5 25t41.5 73h77q-11 -49 -29 -90t-45.5 -76.5t-68.5 -55.5t-92 -20
q-26 0 -50.5 5t-37.5 10.5t-38 17.5t-36 17q-9 4 -29 15.5t-32 17t-33 11t-43 5.5q-47 0 -71 -25t-42 -74z" />
    <glyph glyph-name="adieresis" unicode="&#xe4;" 
d="M885 678v-522q0 -45 33 -45q24 0 61 32l33 -37q-37 -60 -101 -95.5t-137 -35.5q-80 0 -107.5 39.5t-27.5 104.5q-85 -71 -160.5 -107.5t-171.5 -36.5q-117 0 -187.5 59t-70.5 191q0 52 18.5 97.5t47 78t72.5 61t87 47t97.5 36.5t96.5 28.5t93 23.5t78 21
q0 122 -17.5 183.5t-52 82.5t-102.5 21q-77 0 -102 -32.5t-25 -106.5q0 -53 -31 -80t-78 -27t-77.5 27t-30.5 80q0 72 57 124t140 74.5t180 22.5q80 0 147 -16.5t121.5 -51.5t85.5 -96.5t31 -144.5zM639 225v303q-59 -16 -100 -29.5t-91 -36.5t-80.5 -48.5t-51.5 -62.5
t-21 -81q0 -65 40 -106t105 -41q51 0 104 29t95 73zM598 1229q0 51 36 87t87 36t87 -36t36 -87t-36 -87t-87 -36t-87 36t-36 87zM180 1229q0 51 36 87t87 36t87 -36t36 -87t-36 -87t-87 -36t-87 36t-36 87z" />
    <glyph glyph-name="aring" unicode="&#xe5;" 
d="M885 678v-522q0 -45 33 -45q24 0 61 32l33 -37q-37 -60 -101 -95.5t-137 -35.5q-80 0 -107.5 39.5t-27.5 104.5q-85 -71 -160.5 -107.5t-171.5 -36.5q-117 0 -187.5 59t-70.5 191q0 52 18.5 97.5t47 78t72.5 61t87 47t97.5 36.5t96.5 28.5t93 23.5t78 21
q0 122 -17.5 183.5t-52 82.5t-102.5 21q-77 0 -102 -32.5t-25 -106.5q0 -53 -31 -80t-78 -27t-77.5 27t-30.5 80q0 72 57 124t140 74.5t180 22.5q80 0 147 -16.5t121.5 -51.5t85.5 -96.5t31 -144.5zM639 225v303q-59 -16 -100 -29.5t-91 -36.5t-80.5 -48.5t-51.5 -62.5
t-21 -81q0 -65 40 -106t105 -41q51 0 104 29t95 73zM399 1300q0 -46 33.5 -79t79.5 -33q45 0 79 33.5t34 78.5q0 46 -33.5 79.5t-79.5 33.5t-79.5 -34.5t-33.5 -78.5zM301 1300q0 88 61.5 149.5t149.5 61.5q87 0 149 -62t62 -149q0 -88 -61.5 -149t-149.5 -61
q-90 0 -150.5 61t-60.5 149z" />
    <glyph glyph-name="ae" unicode="&#xe6;" horiz-adv-x="1478" 
d="M1405 549h-578q0 -189 71 -291t206 -102q87 0 154 40.5t128 122.5l39 -34q-24 -49 -48 -88.5t-61.5 -82.5t-79 -72t-100.5 -48t-126 -19q-58 0 -108 13.5t-80.5 30.5t-61 47t-43.5 47t-33 47q-110 -88 -200 -136.5t-189 -48.5q-125 0 -185.5 70t-60.5 180q0 53 18 99
t46.5 80t74 64t90.5 50.5t105.5 39.5t109.5 31t113 25v156q0 67 -38.5 101t-100.5 34q-77 0 -102 -32.5t-25 -106.5q0 -53 -31 -80t-78 -27t-77.5 27t-30.5 80q0 72 57 124t140 74.5t180 22.5q66 0 139 -23t127 -71q59 52 114 73t128 21q121 0 210.5 -60t135 -157t51.5 -221
zM606 438v94q-311 -83 -311 -258q0 -56 36.5 -93.5t100.5 -37.5q21 0 42.5 5t35 9t36.5 17.5t30.5 19t34 25t32.5 23.5q-37 84 -37 196zM827 631h332q0 49 -7 91t-24 83t-51.5 64.5t-83.5 23.5q-166 0 -166 -262z" />
    <glyph glyph-name="ccedilla" unicode="&#xe7;" horiz-adv-x="909" 
d="M852 305l33 -35q-29 -55 -58.5 -96.5t-74.5 -86.5t-106 -73t-134 -34l-53 -111q48 8 61 8q33 0 62 -6t57.5 -20.5t45.5 -43.5t17 -69q0 -180 -266 -180q-109 0 -184 32l33 72q75 -22 123 -22q66 0 94 23.5t28 55.5q0 35 -28.5 55.5t-77.5 20.5q-19 0 -51 -8l-23 16
l80 177q-177 12 -283 146t-106 323q0 145 60.5 268.5t168 196.5t236.5 73q139 0 232 -61.5t93 -147.5q0 -59 -32 -91t-80 -32q-54 0 -82 26t-57 97q-27 65 -61 96t-83 31q-73 0 -127.5 -85.5t-54.5 -233.5q0 -110 39 -208.5t109 -160t153 -61.5q103 0 168 34t129 115z" />
    <glyph glyph-name="egrave" unicode="&#xe8;" horiz-adv-x="909" 
d="M864 549h-577q0 -189 70.5 -291t205.5 -102q87 0 154.5 40.5t128.5 122.5l39 -34q-24 -49 -48 -88.5t-61.5 -82.5t-79.5 -72t-101 -48t-126 -19q-128 0 -227 65.5t-150 172.5t-51 236q0 240 120 389t306 149q121 0 210.5 -60t135 -157t51.5 -221zM287 631h331q0 49 -7 91
t-24 83t-51 64.5t-83 23.5q-166 0 -166 -262zM629 1085h-103l-340 207q-41 23 -41 70q0 45 28.5 66.5t64.5 21.5q24 0 43.5 -8.5t29 -17t27.5 -27.5z" />
    <glyph glyph-name="eacute" unicode="&#xe9;" horiz-adv-x="909" 
d="M864 549h-577q0 -189 70.5 -291t205.5 -102q87 0 154.5 40.5t128.5 122.5l39 -34q-24 -49 -48 -88.5t-61.5 -82.5t-79.5 -72t-101 -48t-126 -19q-128 0 -227 65.5t-150 172.5t-51 236q0 240 120 389t306 149q121 0 210.5 -60t135 -157t51.5 -221zM287 631h331q0 49 -7 91
t-24 83t-51 64.5t-83 23.5q-166 0 -166 -262zM408 1085h-103l291 312q18 19 27.5 27.5t29 17t43.5 8.5q38 0 65 -19.5t27 -68.5q0 -48 -40 -70z" />
    <glyph glyph-name="ecircumflex" unicode="&#xea;" horiz-adv-x="909" 
d="M864 549h-577q0 -189 70.5 -291t205.5 -102q87 0 154.5 40.5t128.5 122.5l39 -34q-24 -49 -48 -88.5t-61.5 -82.5t-79.5 -72t-101 -48t-126 -19q-128 0 -227 65.5t-150 172.5t-51 236q0 240 120 389t306 149q121 0 210.5 -60t135 -157t51.5 -221zM287 631h331q0 49 -7 91
t-24 83t-51 64.5t-83 23.5q-166 0 -166 -262zM547 1438l254 -353h-103l-233 209l-234 -209h-98l254 353h160z" />
    <glyph glyph-name="edieresis" unicode="&#xeb;" horiz-adv-x="909" 
d="M864 549h-577q0 -189 70.5 -291t205.5 -102q87 0 154.5 40.5t128.5 122.5l39 -34q-24 -49 -48 -88.5t-61.5 -82.5t-79.5 -72t-101 -48t-126 -19q-128 0 -227 65.5t-150 172.5t-51 236q0 240 120 389t306 149q121 0 210.5 -60t135 -157t51.5 -221zM287 631h331q0 49 -7 91
t-24 83t-51 64.5t-83 23.5q-166 0 -166 -262zM553 1229q0 51 36 87t87 36t87 -36t36 -87t-36 -87t-87 -36t-87 36t-36 87zM135 1229q0 51 36 87t87 36t87 -36t36 -87t-36 -87t-87 -36t-87 36t-36 87z" />
    <glyph glyph-name="igrave" unicode="&#xec;" horiz-adv-x="569" 
d="M530 0h-491v53q76 6 100.5 34.5t24.5 96.5v512q0 98 -27.5 129t-97.5 31v53q51 4 135 23.5t147.5 37t69.5 17.5q9 0 13 -5t5 -11.5t1 -20.5v-766q0 -131 120 -131v-53zM434 1085h-102l-340 207q-41 23 -41 70q0 45 28 66.5t64 21.5q24 0 43.5 -8.5t29 -17t27.5 -27.5z
" />
    <glyph glyph-name="iacute" unicode="&#xed;" horiz-adv-x="569" 
d="M530 0h-491v53q76 6 100.5 34.5t24.5 96.5v512q0 98 -27.5 129t-97.5 31v53q51 4 135 23.5t147.5 37t69.5 17.5q9 0 13 -5t5 -11.5t1 -20.5v-766q0 -131 120 -131v-53zM213 1085h-102l290 312q17 18 27.5 27.5t30 17.5t43.5 8q38 0 65 -19.5t27 -68.5q0 -47 -41 -70z" />
    <glyph glyph-name="icircumflex" unicode="&#xee;" horiz-adv-x="569" 
d="M530 0h-491v53q76 6 100.5 34.5t24.5 96.5v512q0 98 -27.5 129t-97.5 31v53q51 4 135 23.5t147.5 37t69.5 17.5q9 0 13 -5t5 -11.5t1 -20.5v-766q0 -131 120 -131v-53zM352 1438l254 -353h-102l-234 209l-233 -209h-98l254 353h159z" />
    <glyph glyph-name="idieresis" unicode="&#xef;" horiz-adv-x="569" 
d="M530 0h-491v53q76 6 100.5 34.5t24.5 96.5v512q0 98 -27.5 129t-97.5 31v53q51 4 135 23.5t147.5 37t69.5 17.5q9 0 13 -5t5 -11.5t1 -20.5v-766q0 -131 120 -131v-53zM358 1229q0 51 36 87t87 36t87 -36t36 -87t-36 -87t-87 -36t-87 36t-36 87zM-59 1229q0 51 35.5 87
t86.5 36t87 -36t36 -87t-36 -87t-87 -36t-86.5 36t-35.5 87z" />
    <glyph glyph-name="eth" unicode="&#xf0;" 
d="M717 461q0 215 -48 309t-157 94t-157 -94t-48 -309q0 -214 48 -309t157 -95t157 95t48 309zM596 1159l-225 -135l-37 61l219 132q-76 94 -209 151l33 82q160 -49 287 -168l231 139l37 -61l-215 -129q119 -126 188.5 -298.5t69.5 -375.5q0 -277 -126.5 -429.5
t-336.5 -152.5q-204 0 -333.5 137t-129.5 349q0 213 129 349t334 136q93 0 172 -28q-28 142 -88 241z" />
    <glyph glyph-name="ntilde" unicode="&#xf1;" horiz-adv-x="1138" 
d="M1106 0h-483v53q79 5 98.5 25.5t19.5 101.5v504q0 92 -32.5 128t-90.5 36q-63 0 -112.5 -21t-108.5 -61v-586q0 -81 20 -101.5t99 -25.5v-53h-483v53q79 5 99 25.5t20 101.5v559q0 74 -24 97.5t-95 23.5v53q22 4 108.5 23t161.5 35t80 16q14 0 14 -20v-107
q163 127 293 127q154 0 225.5 -77.5t71.5 -241.5v-488q0 -81 20 -101.5t99 -25.5v-53zM297 1126h-78q23 105 80.5 173.5t155.5 68.5q26 0 50 -5t37 -10t38.5 -17.5t35.5 -16.5q9 -4 29 -15.5t32.5 -17t34 -11t44.5 -5.5q45 0 68.5 25t41.5 73h78q-11 -49 -29 -90
t-45.5 -76.5t-68.5 -55.5t-92 -20q-26 0 -50.5 5t-37.5 10.5t-38 17.5t-36 17q-9 4 -29 15.5t-32 17t-33 11t-43 5.5q-47 0 -71 -25t-42 -74z" />
    <glyph glyph-name="ograve" unicode="&#xf2;" 
d="M975 481q0 -221 -129.5 -363.5t-333.5 -142.5t-333.5 142.5t-129.5 363.5t129.5 363.5t333.5 142.5t333.5 -142.5t129.5 -363.5zM717 481q0 223 -48.5 323.5t-156.5 100.5t-156.5 -100.5t-48.5 -323.5t48.5 -323.5t156.5 -100.5t156.5 100.5t48.5 323.5zM674 1085h-103
l-340 207q-41 23 -41 70q0 45 28 66.5t65 21.5q24 0 43.5 -8.5t29 -17t27.5 -27.5z" />
    <glyph glyph-name="oacute" unicode="&#xf3;" 
d="M975 481q0 -221 -129.5 -363.5t-333.5 -142.5t-333.5 142.5t-129.5 363.5t129.5 363.5t333.5 142.5t333.5 -142.5t129.5 -363.5zM717 481q0 223 -48.5 323.5t-156.5 100.5t-156.5 -100.5t-48.5 -323.5t48.5 -323.5t156.5 -100.5t156.5 100.5t48.5 323.5zM453 1085h-103
l291 312q18 19 27.5 27.5t29 17t43.5 8.5q38 0 65.5 -19.5t27.5 -68.5q0 -47 -41 -70z" />
    <glyph glyph-name="ocircumflex" unicode="&#xf4;" 
d="M975 481q0 -221 -129.5 -363.5t-333.5 -142.5t-333.5 142.5t-129.5 363.5t129.5 363.5t333.5 142.5t333.5 -142.5t129.5 -363.5zM717 481q0 223 -48.5 323.5t-156.5 100.5t-156.5 -100.5t-48.5 -323.5t48.5 -323.5t156.5 -100.5t156.5 100.5t48.5 323.5zM592 1438
l254 -353h-103l-233 209l-234 -209h-98l254 353h160z" />
    <glyph glyph-name="otilde" unicode="&#xf5;" 
d="M975 481q0 -221 -129.5 -363.5t-333.5 -142.5t-333.5 142.5t-129.5 363.5t129.5 363.5t333.5 142.5t333.5 -142.5t129.5 -363.5zM717 481q0 223 -48.5 323.5t-156.5 100.5t-156.5 -100.5t-48.5 -323.5t48.5 -323.5t156.5 -100.5t156.5 100.5t48.5 323.5zM227 1126h-77
q11 49 29 90t45.5 76.5t68.5 55.5t92 20q26 0 50.5 -5t37 -10t38.5 -17.5t36 -16.5q9 -4 29 -15.5t32 -17t33.5 -11t44.5 -5.5q45 0 69.5 25t41.5 73h77q-11 -49 -29 -90t-45.5 -76.5t-68.5 -55.5t-92 -20q-26 0 -50.5 5t-37.5 10.5t-38 17.5t-36 17q-9 4 -29 15.5t-32 17
t-33 11t-43 5.5q-47 0 -71 -25t-42 -74z" />
    <glyph glyph-name="odieresis" unicode="&#xf6;" 
d="M975 481q0 -221 -129.5 -363.5t-333.5 -142.5t-333.5 142.5t-129.5 363.5t129.5 363.5t333.5 142.5t333.5 -142.5t129.5 -363.5zM717 481q0 223 -48.5 323.5t-156.5 100.5t-156.5 -100.5t-48.5 -323.5t48.5 -323.5t156.5 -100.5t156.5 100.5t48.5 323.5zM598 1229
q0 51 36 87t87 36t87 -36t36 -87t-36 -87t-87 -36t-87 36t-36 87zM180 1229q0 51 36 87t87 36t87 -36t36 -87t-36 -87t-87 -36t-87 36t-36 87z" />
    <glyph glyph-name="divide" unicode="&#xf7;" horiz-adv-x="1228" 
d="M1096 397h-963v168h963v-168zM465 877q0 61 43.5 105t105.5 44t106 -44t44 -105t-44 -105.5t-106 -44.5q-61 0 -105 44t-44 106zM465 86q0 62 44 106t105 44q62 0 106 -44t44 -106q0 -61 -44 -105t-106 -44t-105.5 43.5t-43.5 105.5z" />
    <glyph glyph-name="oslash" unicode="&#xf8;" 
d="M698 707l-338 -557q49 -93 152 -93q108 0 156.5 100.5t48.5 323.5q0 139 -19 226zM324 262l338 555q-48 88 -150 88q-108 0 -156.5 -100.5t-48.5 -323.5q0 -122 17 -219zM289 31l-131 -215h-105l162 266q-79 70 -122.5 173t-43.5 226q0 221 129.5 363.5t333.5 142.5
q125 0 219 -55l125 207h105l-156 -256q80 -67 125 -171.5t45 -230.5q0 -221 -129.5 -363.5t-333.5 -142.5q-122 0 -223 56z" />
    <glyph glyph-name="ugrave" unicode="&#xf9;" horiz-adv-x="1138" 
d="M25 963h364v-684q0 -92 32.5 -128t90.5 -36q63 0 112.5 21t108.5 61v585q0 81 -20 101.5t-99 25.5v54h365v-740q0 -74 24 -97.5t95 -23.5v-53q-22 -4 -108.5 -23t-161.5 -35t-80 -16q-15 0 -15 21v106q-163 -127 -293 -127q-154 0 -225.5 78t-71.5 242v487
q0 81 -19.5 101.5t-98.5 25.5v54zM707 1085h-103l-340 207q-41 23 -41 70q0 45 28 66.5t64 21.5q24 0 43.5 -8t30 -17.5t27.5 -27.5z" />
    <glyph glyph-name="uacute" unicode="&#xfa;" horiz-adv-x="1138" 
d="M25 963h364v-684q0 -92 32.5 -128t90.5 -36q63 0 112.5 21t108.5 61v585q0 81 -20 101.5t-99 25.5v54h365v-740q0 -74 24 -97.5t95 -23.5v-53q-22 -4 -108.5 -23t-161.5 -35t-80 -16q-15 0 -15 21v106q-163 -127 -293 -127q-154 0 -225.5 78t-71.5 242v487
q0 81 -19.5 101.5t-98.5 25.5v54zM485 1085h-102l291 312q18 19 27.5 27.5t29 17t43.5 8.5q38 0 65 -19.5t27 -68.5q0 -47 -41 -70z" />
    <glyph glyph-name="ucircumflex" unicode="&#xfb;" horiz-adv-x="1138" 
d="M25 963h364v-684q0 -92 32.5 -128t90.5 -36q63 0 112.5 21t108.5 61v585q0 81 -20 101.5t-99 25.5v54h365v-740q0 -74 24 -97.5t95 -23.5v-53q-22 -4 -108.5 -23t-161.5 -35t-80 -16q-15 0 -15 21v106q-163 -127 -293 -127q-154 0 -225.5 78t-71.5 242v487
q0 81 -19.5 101.5t-98.5 25.5v54zM625 1438l254 -353h-103l-233 209l-234 -209h-98l254 353h160z" />
    <glyph glyph-name="udieresis" unicode="&#xfc;" horiz-adv-x="1138" 
d="M25 963h364v-684q0 -92 32.5 -128t90.5 -36q63 0 112.5 21t108.5 61v585q0 81 -20 101.5t-99 25.5v54h365v-740q0 -74 24 -97.5t95 -23.5v-53q-22 -4 -108.5 -23t-161.5 -35t-80 -16q-15 0 -15 21v106q-163 -127 -293 -127q-154 0 -225.5 78t-71.5 242v487
q0 81 -19.5 101.5t-98.5 25.5v54zM631 1229q0 51 36 87t87 36t87 -36t36 -87t-36 -87t-87 -36t-87 36t-36 87zM213 1229q0 51 36 87t87 36t87 -36t36 -87t-36 -87t-87 -36t-87 36t-36 87z" />
    <glyph glyph-name="yacute" unicode="&#xfd;" 
d="M668 963h327v-54q-44 -6 -74.5 -37.5t-56.5 -93.5l-346 -872q-71 -182 -148 -265t-194 -83q-68 0 -112 38t-44 87q0 42 26 71t75 29q41 0 90 -31t74 -31q29 0 53 25.5t49 83.5l74 174l-322 797q-23 58 -44 78.5t-66 29.5v54h471v-54q-42 0 -74.5 -11.5t-32.5 -37.5
q0 -13 7 -35t21.5 -57t20.5 -53l146 -387l147 364q39 95 39 139q0 75 -106 78v54zM453 1085h-103l291 312q18 19 27.5 27.5t29 17t43.5 8.5q38 0 65.5 -19.5t27.5 -68.5q0 -47 -41 -70z" />
    <glyph glyph-name="thorn" unicode="&#xfe;" horiz-adv-x="1138" 
d="M422 53v-315q0 -36 3 -55t11 -34.5t28.5 -22t47.5 -10t76 -5.5v-53h-537v53q84 5 104.5 25.5t20.5 101.5v1466q0 72 -21.5 95.5t-84.5 23.5v53q65 16 197 45t141 29q14 0 14 -20v-592q153 149 297 149q147 0 250.5 -129.5t103.5 -318.5q0 -148 -58.5 -278.5t-158 -208
t-213.5 -77.5q-53 0 -97 13t-66.5 26.5t-57.5 38.5zM422 743v-354q0 -180 47 -256t145 -76q213 0 213 389q0 190 -66 287.5t-169 97.5q-29 0 -54 -7.5t-50 -25t-33.5 -25.5t-32.5 -30z" />
    <glyph glyph-name="ydieresis" unicode="&#xff;" 
d="M668 963h327v-54q-44 -6 -74.5 -37.5t-56.5 -93.5l-346 -872q-71 -182 -148 -265t-194 -83q-68 0 -112 38t-44 87q0 42 26 71t75 29q41 0 90 -31t74 -31q29 0 53 25.5t49 83.5l74 174l-322 797q-23 58 -44 78.5t-66 29.5v54h471v-54q-42 0 -74.5 -11.5t-32.5 -37.5
q0 -13 7 -35t21.5 -57t20.5 -53l146 -387l147 364q39 95 39 139q0 75 -106 78v54zM598 1229q0 51 36 87t87 36t87 -36t36 -87t-36 -87t-87 -36t-87 36t-36 87zM180 1229q0 51 36 87t87 36t87 -36t36 -87t-36 -87t-87 -36t-87 36t-36 87z" />
    <glyph glyph-name="dotlessi" unicode="&#x131;" horiz-adv-x="569" 
d="M530 0h-491v53q76 6 100.5 34.5t24.5 96.5v512q0 98 -27.5 129t-97.5 31v53q51 4 135 23.5t147.5 37t69.5 17.5q9 0 13 -5t5 -11.5t1 -20.5v-766q0 -131 120 -131v-53z" />
    <glyph glyph-name="Lslash" unicode="&#x141;" horiz-adv-x="1251" 
d="M492 657v-462q0 -45 12.5 -67.5t51 -34t116.5 -11.5q101 0 170.5 11t135 42t116 89t94.5 149h53l-94 -373h-1106v53q55 2 84 8t51 24t29.5 49.5t7.5 86.5v324l-172 -68v94l172 68v532q0 55 -7.5 86.5t-29.5 49.5t-51 24t-84 8v54h643v-54q-63 -2 -96 -8t-57 -24
t-31.5 -49t-7.5 -87v-419l454 184v-94z" />
    <glyph glyph-name="lslash" unicode="&#x142;" horiz-adv-x="569" 
d="M408 750v-525q0 -102 21.5 -135t102.5 -37v-53h-495v53q81 4 103 37t22 135v426l-242 -98v94l242 98v443q0 76 -24.5 99.5t-100.5 23.5v53q26 4 113 26t162.5 41t80.5 19q15 0 15 -20v-586l241 98v-94z" />
    <glyph glyph-name="OE" unicode="&#x152;" horiz-adv-x="2048" 
d="M1962 0h-717q-124 0 -250 -12q-77 -7 -241 -21q-119 0 -223 31t-180.5 85.5t-137 125.5t-97.5 153t-56 166.5t-19 167.5t19 167.5t56 166.5t97.5 153t137 125.5t180.5 85.5t223 31q85 0 241 -16q152 -16 250 -16h684l8 -308h-57q-26 84 -60 124.5t-106.5 60.5t-208.5 20
h-129q-47 0 -62.5 -14t-15.5 -57v-441h156q110 0 167 17t83.5 54.5t40.5 113.5h53v-492h-53q-21 119 -86 162t-205 43h-156v-481q0 -45 13 -67.5t53.5 -34t122.5 -11.5q101 0 170.5 11t135 42t116 89t94.5 149h53zM1020 336v729q0 147 -65 206.5t-185 59.5
q-96 0 -178.5 -55.5t-136.5 -146t-84.5 -203.5t-30.5 -230t30.5 -230t84.5 -203.5t136.5 -146t178.5 -55.5q119 0 184.5 63.5t65.5 211.5z" />
    <glyph glyph-name="oe" unicode="&#x153;" horiz-adv-x="1593" 
d="M930 631h332q0 49 -7 91t-24 83t-51.5 64.5t-83.5 23.5q-166 0 -166 -262zM1507 549h-577q0 -189 70.5 -291t205.5 -102q87 0 154.5 40.5t128.5 122.5l39 -34q-24 -49 -48 -88.5t-61.5 -82.5t-79.5 -72t-101 -48t-126 -19q-69 0 -125 18.5t-84 38t-72 58.5h-4
q-63 -54 -143.5 -84.5t-159.5 -30.5q-204 0 -333.5 142.5t-129.5 363.5t129.5 363.5t333.5 142.5q83 0 170.5 -35.5t132.5 -81.5h4q124 117 279 117q121 0 210.5 -60t135 -157t51.5 -221zM729 481q0 223 -48.5 323.5t-156.5 100.5t-156.5 -100.5t-48.5 -323.5t48.5 -323.5
t156.5 -100.5t156.5 100.5t48.5 323.5z" />
    <glyph glyph-name="Scaron" unicode="&#x160;" horiz-adv-x="1138" 
d="M80 -16v454h53q22 -70 65 -136.5t99.5 -120.5t129 -87t146.5 -33q63 0 111 20.5t75.5 55t40.5 74t13 82.5q0 64 -40 121.5t-103.5 103t-140 89.5t-153.5 91t-140.5 98.5t-103.5 122t-40 150.5q0 144 120 250t280 106q90 0 163.5 -18.5t124.5 -36.5t86 -18q57 0 74 73h53
v-442h-53q-44 155 -148 251.5t-241 96.5q-108 0 -160.5 -57t-52.5 -137q0 -57 40 -106.5t103.5 -88.5t140 -78.5t153.5 -86.5t140.5 -103t103.5 -138.5t40 -181.5q0 -165 -122 -276t-308 -111q-84 0 -153.5 13.5t-106.5 29.5t-76.5 29.5t-69.5 13.5q-57 0 -69 -69h-74z
M537 1485l-254 352h98l233 -205l234 205h102l-254 -352h-159z" />
    <glyph glyph-name="scaron" unicode="&#x161;" horiz-adv-x="796" 
d="M66 -25v353h53q17 -52 41.5 -97t60.5 -85.5t87.5 -64.5t111.5 -24q61 0 101 31t40 92q0 26 -8.5 48t-18 36t-35 32t-40 26.5t-53.5 29.5l-152 84q-42 23 -69 43t-54 53t-40 79.5t-13 109.5q0 110 83 188t222 78q64 0 108 -13.5t70 -26.5t45 -13q24 0 33 11t16 38h54v-328
h-66q-35 111 -101.5 180.5t-172.5 69.5q-56 0 -89.5 -31.5t-33.5 -95.5q0 -44 22 -72.5t84 -60.5l172 -86q57 -29 94 -53t69.5 -58.5t47.5 -79.5t15 -104q0 -137 -89 -213t-233 -76q-88 0 -162 19q-22 6 -57.5 20.5t-52.5 14.5q-30 0 -37 -54h-53zM319 1085l-253 353h98
l233 -205l234 205h102l-254 -353h-160z" />
    <glyph glyph-name="Ydieresis" unicode="&#x178;" horiz-adv-x="1478" 
d="M588 1130l246 -368l256 362q65 91 65 156q0 29 -36 42.5t-136 16.5v54h471v-54q-66 -15 -105 -47t-102 -121l-370 -524v-426q0 -56 7.5 -87t32 -49t58 -24t98.5 -8v-53h-672v53q65 2 98.5 8t58.5 24t32.5 49t7.5 87v426l-412 584q-38 56 -70 75.5t-91 32.5v54h647v-54
q-94 -3 -129 -18.5t-35 -52.5q0 -10 7 -25.5t16 -28.5t27.5 -40t29.5 -44zM872 1628q0 51 36 87t87 36t87 -36t36 -87t-36 -87t-87 -36t-87 36t-36 87zM455 1628q0 51 36 87t87 36t86.5 -36t35.5 -87t-35.5 -87t-86.5 -36t-87 36t-36 87z" />
    <glyph glyph-name="Zcaron" unicode="&#x17d;" horiz-adv-x="1366" 
d="M1221 0h-1164v66l889 1224h-383q-72 0 -127.5 -11.5t-94 -31.5t-67.5 -53t-47 -70t-34 -88h-62l49 357h1112v-66l-889 -1225h412q179 0 269 57t163 218h62zM651 1485l-254 352h99l233 -205l234 205h102l-254 -352h-160z" />
    <glyph glyph-name="zcaron" unicode="&#x17e;" horiz-adv-x="909" 
d="M815 0h-756v57l478 824h-191q-46 0 -80 -9.5t-55 -23.5t-37 -41.5t-24 -51.5t-19 -67h-61l36 275h713v-66l-473 -815h205q117 0 170 44.5t70 160.5h59zM375 1085l-254 353h98l234 -205l233 205h102l-253 -353h-160z" />
    <glyph glyph-name="florin" unicode="&#x192;" 
d="M387 827h-221v103h235q13 80 35.5 153t58.5 141t80.5 117.5t105 79t130.5 29.5q84 0 139.5 -47t55.5 -123q0 -49 -33.5 -83t-81.5 -34q-45 0 -78 27t-33 70q0 25 12.5 51.5t12.5 36.5q0 12 -12 20t-23 8q-43 0 -71.5 -33t-43 -96t-19.5 -139.5t-3 -177.5h225v-103h-225
q-6 -88 -11.5 -205t-9 -196t-10 -178t-14.5 -165t-22.5 -142t-33.5 -125t-48 -97.5t-66 -75.5t-87 -44t-112 -17q-86 0 -143.5 43.5t-57.5 116.5q0 52 31 83.5t86 31.5q50 0 83.5 -31.5t33.5 -65.5q0 -28 -12.5 -53t-12.5 -41q0 -22 39 -22q23 0 40 12t31.5 43t22 92
t7.5 152q0 62 -1.5 215t-1 236t5.5 207.5t17 225.5z" />
    <glyph glyph-name="circumflex" unicode="&#x2c6;" horiz-adv-x="569" 
d="M365 1438l253 -353h-102l-233 209l-234 -209h-98l254 353h160z" />
    <glyph glyph-name="caron" unicode="&#x2c7;" horiz-adv-x="569" 
d="M205 1085l-254 353h98l234 -205l233 205h102l-253 -353h-160z" />
    <glyph glyph-name="uni02C9" unicode="&#x2c9;" horiz-adv-x="569" 
d="M-45 1163v135h659v-135h-659z" />
    <glyph glyph-name="breve" unicode="&#x2d8;" horiz-adv-x="569" 
d="M508 1413h78q-13 -150 -88.5 -239t-212.5 -89t-212.5 89t-88.5 239h77q19 -96 72 -140t152 -44t151.5 44t71.5 140z" />
    <glyph glyph-name="dotaccent" unicode="&#x2d9;" horiz-adv-x="569" 
d="M162 1229q0 51 36 87t87 36t87 -36t36 -87t-36 -87t-87 -36t-87 36t-36 87z" />
    <glyph glyph-name="ring" unicode="&#x2da;" horiz-adv-x="569" 
d="M172 1300q0 -46 33.5 -79t79.5 -33q45 0 78.5 33.5t33.5 78.5q0 46 -33 79.5t-79 33.5t-79.5 -34.5t-33.5 -78.5zM74 1300q0 88 61.5 149.5t149.5 61.5q87 0 149 -62t62 -149q0 -88 -61.5 -149t-149.5 -61q-90 0 -150.5 61t-60.5 149z" />
    <glyph glyph-name="ogonek" unicode="&#x2db;" horiz-adv-x="569" 
d="M532 -250l37 -69q-82 -60 -155 -91.5t-156 -31.5q-85 0 -143 50.5t-58 133.5q0 216 471 299v-25q-37 -14 -51.5 -20t-54.5 -24.5t-61 -31t-53 -35t-48.5 -42.5t-29.5 -47.5t-13 -55.5q0 -39 33.5 -67.5t73.5 -28.5q86 0 208 86z" />
    <glyph glyph-name="tilde" unicode="&#x2dc;" horiz-adv-x="569" 
d="M0 1126h-78q23 105 80.5 173.5t155.5 68.5q26 0 50 -5t37 -10t38.5 -17.5t35.5 -16.5q9 -4 29 -15.5t32.5 -17t34 -11t44.5 -5.5q45 0 68.5 25t41.5 73h78q-11 -49 -29 -90t-45.5 -76.5t-68.5 -55.5t-92 -20q-26 0 -50.5 5t-37.5 10.5t-38 17.5t-36 17q-9 4 -29 15.5
t-32 17t-33 11t-43 5.5q-47 0 -71 -25t-42 -74z" />
    <glyph glyph-name="hungarumlaut" unicode="&#x2dd;" horiz-adv-x="569" 
d="M37 1085h-103l291 312q17 18 27.5 27.5t30 17.5t43.5 8q38 0 65 -19.5t27 -68.5q0 -47 -41 -70zM389 1085h-102l291 312q18 19 27.5 27.5t29 17t43.5 8.5q38 0 65 -19.5t27 -68.5q0 -47 -41 -70z" />
    <glyph glyph-name="uni03A9" unicode="&#x3a9;" horiz-adv-x="1341" 
d="M1280 332l-49 -332h-463l-18 41q9 24 40 108.5t45.5 126t40 121t37.5 134t22.5 123.5t10.5 128q-1 123 -15.5 219.5t-39.5 160t-60.5 105t-76 59t-88.5 17.5q-63 0 -110 -26.5t-85 -89t-58 -175.5t-20 -276q0 -86 16 -180.5t48 -197.5t59 -176.5t70 -180.5l-21 -41h-463
l-43 332h64q28 -87 57.5 -113t89.5 -26h172q-52 46 -84.5 77t-84 92.5t-81 118.5t-52.5 140t-23 172q0 141 43 258.5t117.5 197.5t176.5 124t220 44q241 0 395 -166.5t154 -445.5q0 -42 -5 -82.5t-17 -79t-22.5 -70t-32.5 -67.5t-36 -60t-43.5 -59t-43.5 -52t-48 -51
l-45.5 -45.5t-46.5 -45.5h194q56 0 82.5 25.5t54.5 113.5h66z" />
    <glyph glyph-name="uni03BC" unicode="&#x3bc;" horiz-adv-x="1138" 
d="M389 -20v-422h-364v53q41 2 66 10t35.5 24.5t13.5 31.5t3 42v1063q0 81 -19.5 101.5t-98.5 25.5v54h364v-684q0 -92 32.5 -128t90.5 -36q63 0 112.5 21t108.5 61v585q0 81 -20 101.5t-99 25.5v54h365v-740q0 -74 24 -97.5t95 -23.5v-53q-22 -4 -108.5 -23t-161.5 -35
t-80 -16q-15 0 -15 21v106q-163 -127 -293 -127q-31 0 -51 5z" />
    <glyph glyph-name="pi" unicode="&#x3c0;" horiz-adv-x="1091" 
d="M989 950l58 -14q-7 -59 -28.5 -126.5t-41.5 -96.5q-34 -13 -117 -13q-10 -111 -10 -395q0 -178 72 -178q38 0 86 45l24 -53q-36 -62 -98 -104t-123 -42q-197 0 -197 275q0 161 19 457q-43 0 -120.5 2t-113.5 2v-23q0 -164 -14 -294t-37 -205.5t-40 -113t-34 -61.5
q-61 -31 -139 -39l-14 43q95 139 137.5 329t42.5 368q-79 1 -124.5 -14.5t-113.5 -59.5l-30 59q2 2 19 25t22.5 29.5t24 28t31 30.5t34.5 26t42.5 24.5t48 17t58.5 13t66 3.5q441 -6 500 -6q49 0 69 11.5t41 49.5z" />
    <glyph glyph-name="endash" unicode="&#x2013;" 
d="M0 403v156h1024v-156h-1024z" />
    <glyph glyph-name="emdash" unicode="&#x2014;" horiz-adv-x="2048" 
d="M0 403v156h2048v-156h-2048z" />
    <glyph glyph-name="quoteleft" unicode="&#x2018;" horiz-adv-x="569" 
d="M449 1425v-69q-79 -21 -142 -73t-63 -114q0 -28 20 -51h27q62 0 110 -35.5t48 -97.5q0 -71 -40.5 -112.5t-107.5 -41.5q-72 0 -126 58t-54 174q0 77 26 138.5t74 103.5t102.5 70t125.5 50z" />
    <glyph glyph-name="quoteright" unicode="&#x2019;" horiz-adv-x="569" 
d="M121 831v70q79 21 142 72.5t63 113.5q0 28 -21 52h-26q-62 0 -110 35.5t-48 97.5q0 71 40 112t107 41q72 0 126.5 -57.5t54.5 -173.5q0 -77 -26 -138.5t-73.5 -104t-102.5 -71t-126 -49.5z" />
    <glyph glyph-name="quotesinglbase" unicode="&#x201a;" horiz-adv-x="569" 
d="M121 -319v69q79 21 142 73t63 114q0 27 -21 51h-26q-62 0 -110 35.5t-48 97.5q0 71 40 112t107 41q72 0 126.5 -57.5t54.5 -173.5q0 -77 -26 -138.5t-74 -103.5t-102.5 -70t-125.5 -50z" />
    <glyph glyph-name="quotedblleft" unicode="&#x201c;" 
d="M430 1425v-69q-79 -21 -142 -73t-63 -114q0 -27 21 -51h26q62 0 110 -35.5t48 -97.5q0 -71 -40 -112.5t-107 -41.5q-72 0 -126.5 58t-54.5 174q0 77 26 138.5t74 103.5t102.5 70t125.5 50zM924 1425v-69q-79 -21 -142 -73t-63 -114q0 -28 20 -51h27q62 0 110 -35.5
t48 -97.5q0 -71 -40.5 -112.5t-107.5 -41.5q-72 0 -126 58t-54 174q0 77 26 138.5t74 103.5t102.5 70t125.5 50z" />
    <glyph glyph-name="quotedblright" unicode="&#x201d;" 
d="M100 831v70q79 21 142 72.5t63 113.5q0 29 -20 52h-27q-62 0 -110 35.5t-48 97.5q0 71 40.5 112t107.5 41q72 0 126 -57.5t54 -173.5q0 -77 -26 -138.5t-73.5 -104t-102.5 -71t-126 -49.5zM594 831v70q79 21 142 72.5t63 113.5q0 28 -21 52h-26q-62 0 -110 35.5t-48 97.5
q0 71 40 112t107 41q72 0 126.5 -57.5t54.5 -173.5q0 -77 -26 -138.5t-73.5 -104t-102.5 -71t-126 -49.5z" />
    <glyph glyph-name="quotedblbase" unicode="&#x201e;" 
d="M100 -319v69q79 21 142 73t63 114q0 28 -20 51h-27q-62 0 -110 35.5t-48 97.5q0 71 40.5 112t107.5 41q72 0 126 -57.5t54 -173.5q0 -77 -26 -138.5t-74 -103.5t-102.5 -70t-125.5 -50zM594 -319v69q79 21 142 73t63 114q0 27 -21 51h-26q-62 0 -110 35.5t-48 97.5
q0 71 40 112t107 41q72 0 126.5 -57.5t54.5 -173.5q0 -77 -26 -138.5t-74 -103.5t-102.5 -70t-125.5 -50z" />
    <glyph glyph-name="dagger" unicode="&#x2020;" 
d="M535 -262h-46l-8 295q-9 286 -108 532q124 154 121 361q-51 -1 -106.5 -23.5t-103 -44.5t-81.5 -22q-44 0 -73.5 28.5t-29.5 81.5t29.5 82t73.5 29q34 0 81.5 -22t101 -44.5t103.5 -23.5q-1 80 -23.5 151t-44.5 122t-22 83q0 44 29 73t82 29t82 -29t29 -73
q0 -27 -14 -65.5t-31 -74t-31 -94.5t-15 -122q51 1 106.5 23.5t103 44.5t81.5 22q44 0 73.5 -29t29.5 -82t-29.5 -81.5t-73.5 -28.5q-34 0 -81.5 22t-103 44.5t-106.5 23.5q-3 -207 121 -361q-99 -246 -108 -532z" />
    <glyph glyph-name="daggerdbl" unicode="&#x2021;" 
d="M924 946q0 -53 -29.5 -81.5t-73.5 -28.5q-34 0 -81.5 22t-103 44.5t-106.5 23.5q-3 -207 121 -361q-124 -154 -121 -360q51 1 106.5 23.5t103 44.5t81.5 22q44 0 73.5 -29t29.5 -82t-29.5 -81.5t-73.5 -28.5q-34 0 -81.5 22t-103 44.5t-106.5 23.5q1 -63 15 -122t31 -95
t31 -74.5t14 -65.5q0 -44 -29 -73t-82 -29t-82 29t-29 73q0 27 14 65.5t30.5 74.5t30.5 95t15 122q-50 -1 -103.5 -23.5t-101 -44.5t-81.5 -22q-44 0 -73.5 28.5t-29.5 81.5t29.5 82t73.5 29q34 0 81.5 -22t103 -44.5t106.5 -23.5q3 206 -121 360q124 154 121 361
q-51 -1 -106.5 -23.5t-103 -44.5t-81.5 -22q-44 0 -73.5 28.5t-29.5 81.5t29.5 82t73.5 29q34 0 81.5 -22t101 -44.5t103.5 -23.5q-1 80 -23.5 151t-44.5 122t-22 83q0 44 29 73t82 29t82 -29t29 -73q0 -27 -14 -65.5t-31 -74t-31 -94.5t-15 -122q51 1 106.5 23.5t103 44.5
t81.5 22q44 0 73.5 -29t29.5 -82z" />
    <glyph glyph-name="bullet" unicode="&#x2022;" 
d="M164 696q0 145 101.5 246.5t246.5 101.5t246.5 -101.5t101.5 -246.5t-101.5 -246.5t-246.5 -101.5t-246.5 101.5t-101.5 246.5z" />
    <glyph glyph-name="ellipsis" unicode="&#x2026;" horiz-adv-x="2048" 
d="M193 125q0 61 43.5 105t105.5 44t106 -44t44 -105t-44 -105.5t-106 -44.5q-61 0 -105 44t-44 106zM874 125q0 61 44 105t106 44t106 -44t44 -105t-44 -105.5t-106 -44.5t-106 44.5t-44 105.5zM1556 125q0 61 44 105t106 44t105.5 -44t43.5 -105q0 -62 -44 -106t-105 -44
q-62 0 -106 44.5t-44 105.5z" />
    <glyph glyph-name="perthousand" unicode="&#x2030;" horiz-adv-x="2048" 
d="M1630 184q0 -76 29 -113.5t76 -37.5q66 0 127 70.5t95 166.5t34 179q0 95 -36.5 138.5t-84.5 43.5q-54 0 -110.5 -69.5t-93 -175t-36.5 -202.5zM1077 1450h94l-884 -1475h-99l779 1311l-4 4q-42 -42 -97.5 -62t-107.5 -20q-77 0 -137 27q6 -46 6 -90q0 -118 -42.5 -225
t-126 -177.5t-188.5 -70.5q-32 0 -65 7.5t-70 27t-65.5 49.5t-47 80.5t-18.5 113.5q0 110 52 211.5t147 166.5t207 65q89 0 141 -47q39 -36 82 -54t106 -18q53 0 104.5 15.5t82 31t69.5 49.5t47 42t35 38zM1425 254q0 110 51 211t145 166t206 65q94 0 155.5 -66t61.5 -181
q0 -54 -13.5 -116t-43 -126t-70 -115.5t-100.5 -84t-129 -32.5q-41 0 -82.5 13.5t-84 42.5t-69.5 87t-27 136zM209 879q0 -64 33.5 -107t79.5 -43q65 0 125 72.5t93 168.5t33 175q0 58 -16 104q-7 2 -14.5 5t-13.5 6t-13.5 7t-12.5 6.5t-13 8t-12 8t-13 9t-12.5 9t-13.5 10
t-13 9.5q-78 -30 -147.5 -163.5t-69.5 -284.5zM684 254q0 110 50.5 211t144.5 166t206 65q94 0 156 -66t62 -181q0 -69 -23 -148t-65 -153.5t-113 -123.5t-156 -49q-32 0 -64.5 7.5t-69 27.5t-64 50t-46 80.5t-18.5 113.5zM889 184q0 -76 28.5 -113.5t75.5 -37.5
q66 0 127 70.5t95 166.5t34 179q0 95 -36.5 138.5t-84.5 43.5q-54 0 -110.5 -69.5t-92.5 -175t-36 -202.5z" />
    <glyph glyph-name="guilsinglleft" unicode="&#x2039;" horiz-adv-x="681" 
d="M106 473v16l431 347q48 38 61 38q9 0 17 -7t8 -17q0 -48 -64 -135l-174 -232v-10l174 -225q64 -87 64 -135q0 -10 -8 -17.5t-17 -7.5q-12 0 -61 39z" />
    <glyph glyph-name="guilsinglright" unicode="&#x203a;" horiz-adv-x="681" 
d="M575 489v-16l-430 -346q-49 -39 -61 -39q-9 0 -17 7.5t-8 17.5q0 48 64 135l174 231v10l-174 226q-64 87 -64 135q0 10 8 17t17 7q13 0 61 -38z" />
    <glyph glyph-name="fraction" unicode="&#x2044;" horiz-adv-x="342" 
d="M565 1425h119l-907 -1450h-119z" />
    <glyph glyph-name="Euro" unicode="&#x20ac;" 
d="M1047 188v-55q-209 -164 -406 -164q-240 0 -379 201q-120 172 -135 428h-115l47 100h66l6 111h-121l45 100h92q47 216 156 348q132 164 332 164q64 0 162 -39q101 -39 114 -39q41 0 56 78h51l14 -358h-43q-64 122 -119 180q-82 88 -188 88q-220 0 -279 -422h539l-47 -100
h-502l-4 -111h467l-47 -100h-418q24 -514 338 -514q144 0 318 104z" />
    <glyph glyph-name="afii61289" unicode="&#x2113;" horiz-adv-x="839" 
d="M762 272l49 -41q-125 -251 -352 -251q-153 0 -217 77q-38 51 -53 108.5t-15 186.5v150l-104 -74l-27 64l131 98v282q0 213 21 314t79 180q90 125 211 125q95 0 147 -76.5t52 -200.5q0 -113 -34.5 -212.5t-90 -179t-147.5 -177.5v-168q0 -197 32 -271.5t117 -74.5
q61 0 109 37.5t92 103.5zM412 977v-215q64 77 103.5 197t39.5 251q0 211 -72 211q-22 0 -35 -17.5t-21.5 -68.5t-11.5 -134t-3 -224z" />
    <glyph glyph-name="trademark" unicode="&#x2122;" horiz-adv-x="2048" 
d="M514 1343v-632q0 -36 1.5 -50t13 -26.5t31 -15.5t61.5 -5v-49h-398v49q28 2 44 3t29 7t18 9.5t8.5 17.5t3.5 24v36v632h-95q-106 0 -131 -131h-49v181h742v-181h-50q-25 131 -133 131h-96zM1370 565l-287 596h-4v-407q0 -81 19 -109t88 -31v-49h-273v49q69 3 87 30.5
t18 109.5v485q-20 49 -59 76.5t-85 27.5v50h287l291 -594l309 594h236v-50q-65 -3 -86 -23.5t-21 -72.5v-536q0 -36 1.5 -50t13 -26.5t31 -15.5t61.5 -5v-49h-398v49q28 2 44.5 3t29 7t17.5 9t8.5 18.5t3.5 23.5v36v454h-4l-303 -600h-25z" />
    <glyph glyph-name="Omega" unicode="&#x2126;" horiz-adv-x="1341" 
d="M1280 332l-49 -332h-463l-18 41q9 24 40 108.5t45.5 126t40 121t37.5 134t22.5 123.5t10.5 128q-1 123 -15.5 219.5t-39.5 160t-60.5 105t-76 59t-88.5 17.5q-63 0 -110 -26.5t-85 -89t-58 -175.5t-20 -276q0 -86 16 -180.5t48 -197.5t59 -176.5t70 -180.5l-21 -41h-463
l-43 332h64q28 -87 57.5 -113t89.5 -26h172q-52 46 -84.5 77t-84 92.5t-81 118.5t-52.5 140t-23 172q0 141 43 258.5t117.5 197.5t176.5 124t220 44q241 0 395 -166.5t154 -445.5q0 -42 -5 -82.5t-17 -79t-22.5 -70t-32.5 -67.5t-36 -60t-43.5 -59t-43.5 -52t-48 -51
l-45.5 -45.5t-46.5 -45.5h194q56 0 82.5 25.5t54.5 113.5h66z" />
    <glyph glyph-name="estimated" unicode="&#x212e;" horiz-adv-x="1744" 
d="M1675 680h-1300q-13 0 -13 -10v-394q0 -26 19 -45q96 -101 223 -158t268 -57q153 0 288 64.5t231 177.5h116q-109 -130 -277 -205.5t-360 -75.5q-218 0 -402.5 96.5t-292 262.5t-107.5 362q0 148 63.5 282t171 230.5t256 153.5t311.5 57q219 0 404.5 -96.5t293 -263
t107.5 -363.5v-18zM1380 731v395q0 30 -18 48q-98 96 -224.5 151t-265.5 55t-266 -57t-223 -156q-21 -18 -21 -49v-387q0 -4 4 -9t9 -5h997q8 0 8 14z" />
    <glyph glyph-name="partialdiff" unicode="&#x2202;" horiz-adv-x="1038" 
d="M512 866h2q61 0 119.5 -27.5t99.5 -82.5q23 192 25 227q11 182 -43 303q-30 61 -85.5 98t-135.5 37q-127 0 -271 -121q-16 -1 -36.5 29.5t-31 72t-1.5 66.5q126 78 270 78q274 0 420 -291q54 -110 78 -239.5t24 -245.5q0 -127 -24 -257t-70 -228q-63 -141 -169.5 -223
t-248.5 -82q-162 0 -259 103t-97 288q0 100 33 189.5t84 154.5q56 68 140 109.5t177 41.5zM565 774h-2q-48 0 -88.5 -24t-77.5 -88q-40 -80 -63 -199.5t-23 -235.5q-2 -85 31 -131.5t96 -46.5q95 0 183 217q64 161 92 396q-17 40 -57.5 76t-90.5 36z" />
    <glyph glyph-name="Delta" unicode="&#x2206;" horiz-adv-x="1226" 
d="M1161 0h-1098v72l488 1319l102 26l508 -1345v-72zM862 121l-340 923l-329 -923h669z" />
    <glyph glyph-name="product" unicode="&#x220f;" horiz-adv-x="1355" 
d="M1303 1403v-66q-44 -4 -70.5 -8t-48 -13.5t-31.5 -20t-17 -33.5t-8.5 -47.5t-1.5 -67.5v-1051q0 -47 1.5 -73.5t8.5 -51t16.5 -35.5t31.5 -21t47 -13.5t69 -7.5v-68h-561v68q37 3 56.5 6t37.5 12.5t25.5 19.5t13 35t6.5 51.5t1 75.5v1153q0 49 -13 62.5t-61 13.5h-264
q-44 0 -56 -12t-12 -56v-1161v-7v-43.5t1 -35t2.5 -30t5 -23t7.5 -19.5t11.5 -13.5t16 -11.5t21.5 -7t27.5 -6t34.5 -4v-68h-549v68q42 3 68 7t47 13.5t31.5 21.5t17.5 35.5t8.5 50.5t1.5 72v1053q0 44 -1.5 69t-8.5 48t-17.5 33.5t-33 20t-49 13t-72.5 6.5v66h1260z" />
    <glyph glyph-name="summation" unicode="&#x2211;" horiz-adv-x="1067" 
d="M1024 236l-90 -424h-883v61l416 639l-410 827v64h879q1 -12 9 -139t13 -205l-67 -12q-26 120 -66 198q-24 47 -64 62.5t-143 15.5h-266l322 -627l-426 -671h430q48 0 75 1.5t55.5 10t44 21.5t34.5 41t33.5 62t35.5 91z" />
    <glyph glyph-name="minus" unicode="&#x2212;" horiz-adv-x="1228" 
d="M133 397v168h963v-168h-963z" />
    <glyph glyph-name="uni2215" unicode="&#x2215;" horiz-adv-x="342" 
d="M565 1425h119l-907 -1450h-119z" />
    <glyph glyph-name="uni2219" unicode="&#x2219;" horiz-adv-x="512" 
d="M106 481q0 61 44 105.5t106 44.5t106 -44.5t44 -105.5t-44 -105t-106 -44t-106 44t-44 105z" />
    <glyph glyph-name="radical" unicode="&#x221a;" horiz-adv-x="1081" 
d="M1059 1753l-342 -2097l-55 -23l-400 1092l-168 -74l-26 80l356 152l268 -783h4l265 1672z" />
    <glyph glyph-name="infinity" unicode="&#x221e;" horiz-adv-x="1470" 
d="M1380 578v-3q0 -153 -91.5 -245t-215.5 -92q-90 0 -169 46t-167 167q-82 -105 -161 -159t-185 -54q-124 0 -213.5 91.5t-89.5 235.5q0 148 90.5 241t227.5 93q99 0 179 -52t158 -155q2 2 22.5 25.5t25.5 29t25.5 27t29.5 28.5t30 24.5t35 24.5t36.5 18.5t42 16.5t44 9
t49.5 4q126 -2 211.5 -90t85.5 -231zM408 381h4q36 0 69.5 13.5t66.5 43t55 54t56 67.5q-72 99 -101 128q-70 71 -155 71q-78 0 -124 -54.5t-46 -140.5q0 -75 51 -128.5t124 -53.5zM1069 758h-2q-27 0 -55 -10.5t-46.5 -21t-45.5 -37t-37.5 -37.5t-37.5 -44t-30 -37
q86 -111 139 -150.5t123 -39.5t114 58.5t44 125.5q0 83 -46 138t-120 55z" />
    <glyph glyph-name="integral" unicode="&#x222b;" horiz-adv-x="786" 
d="M311 -20l-41 800q-10 159 -1 284t25 219t46 161.5t61 111.5t70 70t74 36.5t73 10.5q55 0 101.5 -30t46.5 -84q0 -56 -36 -87.5t-83 -31.5q-27 0 -44.5 19.5t-24.5 43t-17 43t-24 19.5q-20 0 -32.5 -22.5t-19.5 -88.5t0 -186l39 -731q10 -201 -4 -363.5t-46.5 -271.5
t-81.5 -182t-106 -105.5t-122 -32.5q-61 0 -103.5 34.5t-42.5 82.5q-1 55 41 91t93 36q23 0 39.5 -21t24 -46.5t18.5 -46.5t24 -21q69 0 53 289z" />
    <glyph glyph-name="approxequal" unicode="&#x2248;" horiz-adv-x="999" 
d="M834 899l98 -84q-45 -91 -112.5 -148t-143.5 -57q-52 0 -95.5 17t-103.5 57q-47 33 -80.5 48.5t-72.5 15.5q-29 0 -52 -10t-45 -34.5t-33 -40t-34 -51.5l-99 82q41 89 115 145t160 56q16 0 32.5 -2t28.5 -4t27 -8t23 -9t23 -11t19.5 -10t19.5 -11.5t17 -10.5
q5 -4 18.5 -12.5t18 -11.5t15.5 -10t15.5 -9t13.5 -7.5t14 -7t13 -4.5t14 -4t13.5 -2t14.5 -1q47 0 82 34.5t76 104.5zM834 539l98 -84q-46 -92 -112 -148.5t-144 -56.5q-51 0 -95 17t-104 55q-36 25 -54.5 36t-45.5 21t-53 10q-12 0 -23.5 -2.5t-20.5 -5t-19.5 -10
t-17 -11.5t-16.5 -15t-14 -16t-14 -19t-13 -18t-13.5 -20.5t-12.5 -19.5l-99 82q41 89 115 145t160 56q42 0 83.5 -13t56 -21.5t50.5 -31.5q9 -5 31 -20t31.5 -20.5t26.5 -14t31.5 -12t29.5 -3.5q47 0 80 33.5t78 106.5z" />
    <glyph glyph-name="notequal" unicode="&#x2260;" horiz-adv-x="999" 
d="M743 1006l-67 -160h235v-154h-290l-105 -252h395v-151h-450l-86 -209l-119 45l70 164h-240v151h295l102 252h-397v154h453l86 205z" />
    <glyph glyph-name="lessequal" unicode="&#x2264;" horiz-adv-x="999" 
d="M905 203l-807 428v164l807 426v-179l-663 -327v-4l663 -328v-180zM913 -23h-823v154h823v-154z" />
    <glyph glyph-name="greaterequal" unicode="&#x2265;" horiz-adv-x="999" 
d="M102 1221l807 -426v-164l-809 -428v178l664 330v4l-662 327v179zM911 -23h-819v154h819v-154z" />
    <glyph glyph-name="lozenge" unicode="&#x25ca;" horiz-adv-x="1081" 
d="M989 676l-354 -813h-191l-352 813l359 817h184zM819 676l-274 655h-6l-279 -653l279 -660h6z" />
    <glyph glyph-name="hyphentwo" horiz-adv-x="681" 
d="M88 375v213h508v-213h-508z" />
    <glyph glyph-name="a.superior" horiz-adv-x="614" 
d="M539 1241v-313q0 -27 20 -27q17 0 41 19l25 -23q-27 -36 -69 -57t-89 -21q-53 0 -70.5 23t-17.5 63q-54 -42 -103.5 -64t-111.5 -22q-168 0 -168 150q0 42 21 75.5t50.5 54.5t75.5 39.5t81.5 27.5t85 20.5t69.5 17.5q0 73 -11.5 109t-34 47.5t-67.5 11.5q-50 0 -66 -18
t-16 -62q0 -31 -20 -47t-51 -16q-30 0 -50 16t-20 47q0 44 37 75t91 44.5t118 13.5q110 0 180 -44t70 -140zM379 969v182q-38 -10 -64.5 -18t-59 -22t-52.5 -29t-33.5 -37.5t-13.5 -49.5q0 -38 25.5 -60t68.5 -22q73 0 129 56z" />
    <glyph glyph-name="o.superior" horiz-adv-x="614" 
d="M307 1425q134 0 217.5 -85t83.5 -218t-83.5 -218t-217.5 -85t-217.5 85t-83.5 218t83.5 218t217.5 85zM307 1372q-72 0 -102.5 -58t-30.5 -192t30.5 -192t102.5 -58t102.5 58t30.5 192t-30.5 192t-102.5 58z" />
    <glyph glyph-name="f_i" horiz-adv-x="1138" 
d="M1104 0h-486v53q73 -3 96 28t23 112v563q0 67 -27.5 85.5t-93.5 18.5h-215v-667q0 -86 27.5 -113t95.5 -27v-53h-489v53q42 0 67 8t36.5 29t14.5 42t3 61v667h-121v103h121q0 115 21 202t67.5 152.5t126.5 99t192 33.5q161 0 276 -57.5t115 -149.5q0 -48 -28.5 -74
t-71.5 -26q-52 0 -75.5 22.5t-49.5 83.5q-24 60 -60.5 89.5t-105.5 29.5q-42 0 -71 -17.5t-47 -48t-27.5 -83.5t-13 -111.5t-3.5 -144.5h363q101 0 151 12q13 2 30.5 7t21.5 5q9 0 12.5 -8.5t3.5 -32.5v-753q0 -83 29.5 -111.5t91.5 -28.5v-53z" />
    <glyph glyph-name="f_l" horiz-adv-x="1138" 
d="M524 0h-493v53q45 4 69 10t37 21.5t16 33.5t3 54v688h-125v103h125q0 80 8 145t31.5 131t62 110.5t104 72.5t152.5 28q66 0 145 -25t111 -41l84 25q14 4 41.5 14.5t48.5 18.5t25 8q14 0 14 -33v-1245q0 -70 27 -93t98 -26v-53h-490v53q72 6 95.5 27t23.5 92v688h-336
v-688q0 -70 30.5 -92.5t92.5 -26.5v-53zM401 963h336v213q-52 9 -74 25t-34 56q-22 68 -37 85q-22 26 -68 26q-39 0 -64 -17.5t-37.5 -53.5t-17 -78t-4.5 -105v-151z" />
    <glyph glyph-name="one.superior" horiz-adv-x="614" 
d="M528 569h-462v37q80 -2 113.5 24.5t33.5 90.5v434q0 58 -8.5 80t-38.5 22q-32 0 -100 -28l-13 28l303 168h25v-704q0 -64 33.5 -90.5t113.5 -24.5v-37z" />
    <glyph glyph-name="two.superior" horiz-adv-x="614" 
d="M541 569h-537v45l199 187q89 89 139.5 167.5t50.5 170.5q0 75 -41.5 119.5t-115.5 44.5q-112 0 -166 -132h-41q29 109 101.5 181.5t170.5 72.5q106 0 177 -60t71 -169q0 -36 -12 -74.5t-38.5 -79.5t-49.5 -73.5t-65 -76t-63.5 -65.5t-66 -63.5t-53.5 -50.5h250
q55 0 75 12.5t47 60.5h41z" />
    <glyph glyph-name="three.superior" horiz-adv-x="614" 
d="M152 983v37q225 48 225 180q0 59 -36 93t-95 34q-33 0 -76 -18.5t-76 -59.5l-24 25q63 77 118 114t138 37q99 0 152.5 -50.5t53.5 -121.5q0 -106 -131 -188q80 -35 120 -88.5t40 -136.5q0 -84 -51.5 -151.5t-127.5 -101.5t-157 -34q-78 3 -131 30t-53 70q0 64 70 64
q10 0 21 -3t22.5 -8t13.5 -6q11 -6 42.5 -28.5t57.5 -35.5t49 -13q43 0 82 40.5t39 92.5q0 43 -17.5 79.5t-46 61.5t-66.5 43.5t-76.5 28.5t-79.5 14z" />
    </font>
</defs>
</svg>
